<svg xmlns="http://www.w3.org/2000/svg" viewBox="0 0 197.52 46.88"><defs><style>.cls-1{fill:none;stroke:#231815;stroke-linecap:round;stroke-linejoin:round;stroke-width:5px;}.cls-2{fill:#fff;}.cls-3{fill:#231815;}</style></defs><g id="レイヤー_1" data-name="レイヤー 1"><path class="cls-1" d="M100.6,2.49c-.13-.21-.39-.43-.37-.62.12-.74-.51-1.05-.94-1.49-.59-.61-.87.23-1.32.21-.13,0-.33,0-.39-.12-.46-.62-1.2.75-1.59-.18a1.63,1.63,0,0,1-.48.23A31.46,31.46,0,0,0,92.1,1c-.63.17-1.13-.82-1.68,0-.64-.73-1.22.31-1.92,0A5.65,5.65,0,0,0,86.56.82,15.85,15.85,0,0,1,85,.62c-.75-.08-1.52,0-2.27,0S81.34.82,80.85.2c-.64,1-1.26-.18-1.91,0-1.25.34-2.62-.75-3.84.24-.07,0-.31-.08-.47-.1-.51,0-1.12-.27-1.51-.09a6.65,6.65,0,0,1-4.29.14c-.39-.08-.54,0-.65.16-.38.63-.79.16-1.2.06s-.71.89-1.33.25a.64.64,0,0,0-1-.08,1.81,1.81,0,0,1-1.84,0,1.46,1.46,0,0,0-.81-.19c-.87.22-1.72.85-2.59,0-1.53.86-3.22.19-4.82.39-.71.08-1.5-.18-2.08.41-1.09-.41-2.18,1.08-3.28,0a.47.47,0,0,0-.43,0c-1,.84-1.89,0-2.82,0s-2,.27-2.69-.09-1.52.61-2-.25a11.35,11.35,0,0,0-2.15.6c-.42.21-.64-.58-1,0-.1.15-.91-.19-1.18,0-.53.31-.77.11-1.15-.15-.13-.09-.51.18-.75.15-.44-.06-.92.07-1.28,0a3.82,3.82,0,0,0-3,.11c-.16.09-.52,0-.76-.13-.48-.2-.86.59-1.47,0-.3-.28-1.12-.13-1.71-.18a2.84,2.84,0,0,1-1.49-.25c-.25-.15-.86.2-1.32.24-2.13.19-4.32-.37-6.42.39-.2.08-.54-.1-.8-.2a2,2,0,0,0-1.85,0c-.34.21-.86-.42-1.14.17-.25-.1-.62-.36-.75-.29-.68.39-1.3-.38-1.85-.08s-1.15.62-1.37.34c-.44-.55-.91.05-1.38-.24-.68-.41-1.7.1-2.44-.46-.44.57-1.13.19-1.66.35a9.74,9.74,0,0,0-1.29.65c-1.72.83-2,1.39-1.42,3.06.09.3.24.8.08.93-.9.7.08,1.83-.77,2.5.72.82.35,1.65.05,2.48,1,.52-.18,1.17.15,1.84a2.86,2.86,0,0,1,.1,2.34A4.89,4.89,0,0,0,1,17.92C1,19.15.6,20.4,1.32,21.63c.23.39-.75,1-.17,1.77.28.38-.25,1.24-.42,1.88-.06.23-.25.63-.18.67.76.43-.11,1.05.09,1.25.5.53.25.81-.16,1.16.65.36.42.94.44,1.45a4.62,4.62,0,0,1,0,1.62A12.43,12.43,0,0,0,.49,36.2C.54,37.43.1,38.7.9,39.89c.17.26-.65.67,0,1.11.1.06-.5.77-.37,1a1,1,0,0,1,0,1.12C.3,43.5.4,44,.16,44.39c-.44.66.16,1.08.3,1.61s.71.27,1.08.38a6.08,6.08,0,0,1,1.39.42c.53.32.64-.5,1.32-.21a3.7,3.7,0,0,0,2.41-.3c.82-.35,1.77.64,2.47-.3.06-.07.64.16,1,.25s.53.18.6.12c.75-.75,1.72-.35,2.56-.35a6.37,6.37,0,0,0,2.09,0c.77,1,1.38-.5,2.18-.1.48.24,1.16-.2,1.7.27.21.18.89.26,1,.12.78-.79,1.46-.18,2.16,0,.24.08.64.33.66.3.58-.72,1.1.21,1.49.06a2.62,2.62,0,0,1,1.47,0,6.6,6.6,0,0,0,3.25-.31c.29-.11.84.63,1.48,0,.2-.19,1.2.35,1.46.15.62-.46,1.21.16,1.26.11.43-.45,1-.3,1.47-.34a12.65,12.65,0,0,0,1.95-.22c.53-.12,1.18.72,1.58-.17.26.66.75,0,1.14.15s.95-.2,1.23,0c1,.59,2,.16,3.06.26.3,0,.87-.41.91-.35.54.61,1,.07,1.49,0,1-.06,2.06-.4,3,.24.3.19.87,0,1.31.1s1-.58,1.72-.06c.24.18,1-.78,1.61,0a1.82,1.82,0,0,1,2.37,0,4.78,4.78,0,0,1,2.77-.4c.29,0,.7,0,.84.11.42.43.59.09.83-.12s.42-.53.83-.11a1,1,0,0,0,.81.09c.53-.74,1.22,0,1.83-.19a9.28,9.28,0,0,1,2.42-.17,6.32,6.32,0,0,1,2.18.18c.6.23,1.47-.15,2.22-.19s1.67,0,2.5,0,1.55-.46,2.38,0c.22.11.67-.13,1-.19s.84-.29,1-.16c1,.72,2.18.22,3.25.38.78.11,1.67-.32,2.34.39a.76.76,0,0,0,.58-.15c.49-.53.65.35,1.08.17a3.53,3.53,0,0,1,1.39-.38c.42,0,.75.72,1.3.13s.89.43,1.57.29a7.23,7.23,0,0,1,2.93,0A1.76,1.76,0,0,0,93.92,46a4.06,4.06,0,0,1,3-.29c.22,0,.36.39.66.06.52-.57,1-1.17.81-1.91-.08-.34-.52-.54,0-.91s-.92-.66-.09-1.1c-.44-.77.28-1.47.14-2.26a14.42,14.42,0,0,1,0-2.63V33.07c0-.34-.16-.83,0-1,1-.83-.23-2.16.88-2.93-.79-.54-.5-1.11-.06-1.67-.78-.6-.3-1.39-.37-2.09a1.58,1.58,0,0,1,.35-1.49c.51-.53-.39-1-.38-1.61,0-.07,0-.15,0-.2.9-1.65.26-3.41.44-5.1,0-.4-.18-1,0-1.19.82-.78.43-1.69.36-2.49s.35-1.62.14-2.52-.54-1.86.33-2.67c-.8-.87-.25-1.9-.4-2.85,0-.08.25-.18.28-.29.09-.34-.23-.65.12-1.06S100,2.87,100.6,2.49Z"/><path class="cls-1" d="M88.53,2.49c.14-.21.42-.43.39-.62-.12-.74.56-1.05,1-1.49.64-.61.93.23,1.43.21A.62.62,0,0,0,91.8.47c.49-.62,1.3.75,1.72-.18a1.9,1.9,0,0,0,.53.23A37.23,37.23,0,0,1,97.74,1c.68.17,1.22-.82,1.82,0,.69-.73,1.32.31,2.08,0a6.58,6.58,0,0,1,2.1-.22c.59,0,1.14-.14,1.71-.2.81-.08,1.64,0,2.46,0s1.49.23,2-.39c.69,1,1.36-.18,2.06,0,1.36.34,2.84-.75,4.16.24.08,0,.34-.08.52-.1A4,4,0,0,1,118.3.24,7.78,7.78,0,0,0,123,.38c.42-.08.58,0,.7.16.42.63.86.16,1.3.06s.77.89,1.44.25a.73.73,0,0,1,1-.08,2.11,2.11,0,0,0,2,0,1.64,1.64,0,0,1,.87-.19c1,.22,1.87.85,2.81,0,1.66.86,3.49.19,5.22.39.77.08,1.63-.18,2.26.41,1.18-.41,2.35,1.08,3.55,0a.55.55,0,0,1,.47,0c1,.84,2,0,3.05,0s2.19.27,2.91-.09,1.65.61,2.19-.25a12.82,12.82,0,0,1,2.33.6c.45.21.69-.58,1.12,0,.11.15,1-.19,1.29,0,.57.31.83.11,1.24-.15.14-.09.55.18.82.15.47-.06,1,.07,1.38,0a4.44,4.44,0,0,1,3.19.11,1.36,1.36,0,0,0,.83-.13c.52-.2.94.59,1.6,0,.32-.28,1.21-.13,1.84-.18A3.3,3.3,0,0,0,170,1.16c.27-.15.93.2,1.43.24,2.31.19,4.68-.37,7,.39.22.08.59-.1.86-.2a2.29,2.29,0,0,1,2,0c.36.21.93-.42,1.23.17.28-.1.67-.36.81-.29.74.39,1.41-.38,2-.08s1.24.62,1.48.34c.49-.55,1,.05,1.5-.24.73-.41,1.85.1,2.64-.46.48.57,1.22.19,1.8.35a11.06,11.06,0,0,1,1.4.65c1.86.83,2.14,1.39,1.54,3.06-.1.3-.26.8-.09.93,1,.7-.09,1.83.84,2.5-.79.82-.39,1.65-.06,2.48-1.06.52.19,1.17-.17,1.84a2.68,2.68,0,0,0-.1,2.34,4.66,4.66,0,0,1,.39,2.69c-.07,1.23.38,2.48-.4,3.71-.24.39.81,1,.18,1.77-.3.38.28,1.24.46,1.88.06.23.27.63.19.67-.82.43.12,1.05-.09,1.25-.55.53-.27.81.17,1.16-.7.36-.45.94-.48,1.45a4.19,4.19,0,0,0,0,1.62A11.54,11.54,0,0,1,197,36.2c0,1.23.43,2.5-.43,3.69-.19.26.7.67,0,1.11-.1.06.55.77.41,1a.93.93,0,0,0,0,1.12c.2.4.09.93.35,1.29.49.66-.16,1.08-.32,1.61s-.77.27-1.17.38a6.88,6.88,0,0,0-1.5.42c-.58.32-.7-.5-1.44-.21a4.28,4.28,0,0,1-2.6-.3c-.89-.35-1.92.64-2.68-.3a4.24,4.24,0,0,0-1.06.25c-.22,0-.58.18-.65.12-.82-.75-1.86-.35-2.78-.35a7.44,7.44,0,0,1-2.26,0c-.83,1-1.5-.5-2.36-.1-.52.24-1.26-.2-1.85.27a1.37,1.37,0,0,1-1.1.12c-.85-.79-1.58-.18-2.34,0-.26.08-.7.33-.72.3-.63-.72-1.19.21-1.61.06a3.06,3.06,0,0,0-1.59,0,7.71,7.71,0,0,1-3.52-.31c-.32-.11-.91.63-1.61,0-.21-.19-1.3.35-1.58.15-.67-.46-1.31.16-1.36.11-.47-.45-1.05-.3-1.59-.34a14.64,14.64,0,0,1-2.11-.22c-.58-.12-1.29.72-1.72-.17-.28.66-.82,0-1.24.15s-1-.2-1.33,0c-1.08.59-2.22.16-3.32.26-.32,0-.94-.41-1-.35-.58.61-1.05.07-1.6,0-1.07-.06-2.24-.4-3.31.24-.33.19-.94,0-1.42.1s-1.11-.58-1.86-.06c-.26.18-1.13-.78-1.75,0a2.09,2.09,0,0,0-2.56,0,5.57,5.57,0,0,0-3-.4c-.32,0-.77,0-.92.11-.45.43-.64.09-.89-.12s-.46-.53-.9-.11a1.12,1.12,0,0,1-.88.09c-.58-.74-1.33,0-2-.19a10.87,10.87,0,0,0-2.62-.17,7.44,7.44,0,0,0-2.37.18c-.65.23-1.59-.15-2.4-.19s-1.81,0-2.72,0-1.67-.46-2.57,0c-.24.11-.72-.13-1.1-.19s-.92-.29-1.11-.16c-1.11.72-2.36.22-3.52.38-.85.11-1.81-.32-2.53.39a.88.88,0,0,1-.63-.15c-.54-.53-.7.35-1.17.17a4.15,4.15,0,0,0-1.51-.38c-.46,0-.82.72-1.41.13s-1,.43-1.7.29a8.45,8.45,0,0,0-3.17,0A2.08,2.08,0,0,1,95.76,46a4.73,4.73,0,0,0-3.21-.29c-.23,0-.38.39-.71.06-.56-.57-1.09-1.17-.88-1.91.1-.34.57-.54,0-.91s1-.66.09-1.1c.48-.77-.3-1.47-.15-2.26a13.57,13.57,0,0,0,0-2.63V33.07c0-.34.18-.83,0-1-1.12-.83.24-2.16-1-2.93.86-.54.54-1.11.06-1.67.84-.6.33-1.39.4-2.09A1.48,1.48,0,0,0,90,23.91c-.55-.53.43-1,.41-1.61,0-.07,0-.15,0-.2-1-1.65-.28-3.41-.49-5.1,0-.4.2-1,0-1.19-.88-.78-.47-1.69-.39-2.49s-.38-1.62-.15-2.52.58-1.86-.35-2.67c.86-.87.27-1.9.43-2.85,0-.08-.27-.18-.3-.29-.1-.34.25-.65-.13-1.06S89.23,2.87,88.53,2.49Z"/><path class="cls-2" d="M100.6,2.49c-.13-.21-.39-.43-.37-.62.12-.74-.51-1.05-.94-1.49-.59-.61-.87.23-1.32.21-.13,0-.33,0-.39-.12-.46-.62-1.2.75-1.59-.18a1.63,1.63,0,0,1-.48.23A31.46,31.46,0,0,0,92.1,1c-.63.17-1.13-.82-1.68,0-.64-.73-1.22.31-1.92,0A5.65,5.65,0,0,0,86.56.82,15.85,15.85,0,0,1,85,.62c-.75-.08-1.52,0-2.27,0S81.34.82,80.85.2c-.64,1-1.26-.18-1.91,0-1.25.34-2.62-.75-3.84.24-.07,0-.31-.08-.47-.1-.51,0-1.12-.27-1.51-.09a6.65,6.65,0,0,1-4.29.14c-.39-.08-.54,0-.65.16-.38.63-.79.16-1.2.06s-.71.89-1.33.25a.64.64,0,0,0-1-.08,1.81,1.81,0,0,1-1.84,0,1.46,1.46,0,0,0-.81-.19c-.87.22-1.72.85-2.59,0-1.53.86-3.22.19-4.82.39-.71.08-1.5-.18-2.08.41-1.09-.41-2.18,1.08-3.28,0a.47.47,0,0,0-.43,0c-1,.84-1.89,0-2.82,0s-2,.27-2.69-.09-1.52.61-2-.25a11.35,11.35,0,0,0-2.15.6c-.42.21-.64-.58-1,0-.1.15-.91-.19-1.18,0-.53.31-.77.11-1.15-.15-.13-.09-.51.18-.75.15-.44-.06-.92.07-1.28,0a3.82,3.82,0,0,0-3,.11c-.16.09-.52,0-.76-.13-.48-.2-.86.59-1.47,0-.3-.28-1.12-.13-1.71-.18a2.84,2.84,0,0,1-1.49-.25c-.25-.15-.86.2-1.32.24-2.13.19-4.32-.37-6.42.39-.2.08-.54-.1-.8-.2a2,2,0,0,0-1.85,0c-.34.21-.86-.42-1.14.17-.25-.1-.62-.36-.75-.29-.68.39-1.3-.38-1.85-.08s-1.15.62-1.37.34c-.44-.55-.91.05-1.38-.24-.68-.41-1.7.1-2.44-.46-.44.57-1.13.19-1.66.35a9.74,9.74,0,0,0-1.29.65c-1.72.83-2,1.39-1.42,3.06.09.3.24.8.08.93-.9.7.08,1.83-.77,2.5.72.82.35,1.65.05,2.48,1,.52-.18,1.17.15,1.84a2.86,2.86,0,0,1,.1,2.34A4.89,4.89,0,0,0,1,17.92C1,19.15.6,20.4,1.32,21.63c.23.39-.75,1-.17,1.77.28.38-.25,1.24-.42,1.88-.06.23-.25.63-.18.67.76.43-.11,1.05.09,1.25.5.53.25.81-.16,1.16.65.36.42.94.44,1.45a4.62,4.62,0,0,1,0,1.62A12.43,12.43,0,0,0,.49,36.2C.54,37.43.1,38.7.9,39.89c.17.26-.65.67,0,1.11.1.06-.5.77-.37,1a1,1,0,0,1,0,1.12C.3,43.5.4,44,.16,44.39c-.44.66.16,1.08.3,1.61s.71.27,1.08.38a6.08,6.08,0,0,1,1.39.42c.53.32.64-.5,1.32-.21a3.7,3.7,0,0,0,2.41-.3c.82-.35,1.77.64,2.47-.3.06-.07.64.16,1,.25s.53.18.6.12c.75-.75,1.72-.35,2.56-.35a6.37,6.37,0,0,0,2.09,0c.77,1,1.38-.5,2.18-.1.48.24,1.16-.2,1.7.27.21.18.89.26,1,.12.78-.79,1.46-.18,2.16,0,.24.08.64.33.66.3.58-.72,1.1.21,1.49.06a2.62,2.62,0,0,1,1.47,0,6.6,6.6,0,0,0,3.25-.31c.29-.11.84.63,1.48,0,.2-.19,1.2.35,1.46.15.62-.46,1.21.16,1.26.11.43-.45,1-.3,1.47-.34a12.65,12.65,0,0,0,1.95-.22c.53-.12,1.18.72,1.58-.17.26.66.75,0,1.14.15s.95-.2,1.23,0c1,.59,2,.16,3.06.26.3,0,.87-.41.91-.35.54.61,1,.07,1.49,0,1-.06,2.06-.4,3,.24.3.19.87,0,1.31.1s1-.58,1.72-.06c.24.18,1-.78,1.61,0a1.82,1.82,0,0,1,2.37,0,4.78,4.78,0,0,1,2.77-.4c.29,0,.7,0,.84.11.42.43.59.09.83-.12s.42-.53.83-.11a1,1,0,0,0,.81.09c.53-.74,1.22,0,1.83-.19a9.28,9.28,0,0,1,2.42-.17,6.32,6.32,0,0,1,2.18.18c.6.23,1.47-.15,2.22-.19s1.67,0,2.5,0,1.55-.46,2.38,0c.22.11.67-.13,1-.19s.84-.29,1-.16c1,.72,2.18.22,3.25.38.78.11,1.67-.32,2.34.39a.76.76,0,0,0,.58-.15c.49-.53.65.35,1.08.17a3.53,3.53,0,0,1,1.39-.38c.42,0,.75.72,1.3.13s.89.43,1.57.29a7.23,7.23,0,0,1,2.93,0A1.76,1.76,0,0,0,93.92,46a4.06,4.06,0,0,1,3-.29c.22,0,.36.39.66.06.52-.57,1-1.17.81-1.91-.08-.34-.52-.54,0-.91s-.92-.66-.09-1.1c-.44-.77.28-1.47.14-2.26a14.42,14.42,0,0,1,0-2.63V33.07c0-.34-.16-.83,0-1,1-.83-.23-2.16.88-2.93-.79-.54-.5-1.11-.06-1.67-.78-.6-.3-1.39-.37-2.09a1.58,1.58,0,0,1,.35-1.49c.51-.53-.39-1-.38-1.61,0-.07,0-.15,0-.2.9-1.65.26-3.41.44-5.1,0-.4-.18-1,0-1.19.82-.78.43-1.69.36-2.49s.35-1.62.14-2.52-.54-1.86.33-2.67c-.8-.87-.25-1.9-.4-2.85,0-.08.25-.18.28-.29.09-.34-.23-.65.12-1.06S100,2.87,100.6,2.49Z"/><path class="cls-2" d="M88.53,2.49c.14-.21.42-.43.39-.62-.12-.74.56-1.05,1-1.49.64-.61.93.23,1.43.21A.62.62,0,0,0,91.8.47c.49-.62,1.3.75,1.72-.18a1.9,1.9,0,0,0,.53.23A37.23,37.23,0,0,1,97.74,1c.68.17,1.22-.82,1.82,0,.69-.73,1.32.31,2.08,0a6.58,6.58,0,0,1,2.1-.22c.59,0,1.14-.14,1.71-.2.81-.08,1.64,0,2.46,0s1.49.23,2-.39c.69,1,1.36-.18,2.06,0,1.36.34,2.84-.75,4.16.24.08,0,.34-.08.52-.1A4,4,0,0,1,118.3.24,7.78,7.78,0,0,0,123,.38c.42-.08.58,0,.7.16.42.63.86.16,1.3.06s.77.89,1.44.25a.73.73,0,0,1,1-.08,2.11,2.11,0,0,0,2,0,1.64,1.64,0,0,1,.87-.19c1,.22,1.87.85,2.81,0,1.66.86,3.49.19,5.22.39.77.08,1.63-.18,2.26.41,1.18-.41,2.35,1.08,3.55,0a.55.55,0,0,1,.47,0c1,.84,2,0,3.05,0s2.19.27,2.91-.09,1.65.61,2.19-.25a12.82,12.82,0,0,1,2.33.6c.45.21.69-.58,1.12,0,.11.15,1-.19,1.29,0,.57.31.83.11,1.24-.15.14-.09.55.18.82.15.47-.06,1,.07,1.38,0a4.44,4.44,0,0,1,3.19.11,1.36,1.36,0,0,0,.83-.13c.52-.2.94.59,1.6,0,.32-.28,1.21-.13,1.84-.18A3.3,3.3,0,0,0,170,1.16c.27-.15.93.2,1.43.24,2.31.19,4.68-.37,7,.39.22.08.59-.1.86-.2a2.29,2.29,0,0,1,2,0c.36.21.93-.42,1.23.17.28-.1.67-.36.81-.29.74.39,1.41-.38,2-.08s1.24.62,1.48.34c.49-.55,1,.05,1.5-.24.73-.41,1.85.1,2.64-.46.48.57,1.22.19,1.8.35a11.06,11.06,0,0,1,1.4.65c1.86.83,2.14,1.39,1.54,3.06-.1.3-.26.8-.09.93,1,.7-.09,1.83.84,2.5-.79.82-.39,1.65-.06,2.48-1.06.52.19,1.17-.17,1.84a2.68,2.68,0,0,0-.1,2.34,4.66,4.66,0,0,1,.39,2.69c-.07,1.23.38,2.48-.4,3.71-.24.39.81,1,.18,1.77-.3.38.28,1.24.46,1.88.06.23.27.63.19.67-.82.43.12,1.05-.09,1.25-.55.53-.27.81.17,1.16-.7.36-.45.94-.48,1.45a4.19,4.19,0,0,0,0,1.62A11.54,11.54,0,0,1,197,36.2c0,1.23.43,2.5-.43,3.69-.19.26.7.67,0,1.11-.1.06.55.77.41,1a.93.93,0,0,0,0,1.12c.2.4.09.93.35,1.29.49.66-.16,1.08-.32,1.61s-.77.27-1.17.38a6.88,6.88,0,0,0-1.5.42c-.58.32-.7-.5-1.44-.21a4.28,4.28,0,0,1-2.6-.3c-.89-.35-1.92.64-2.68-.3a4.24,4.24,0,0,0-1.06.25c-.22,0-.58.18-.65.12-.82-.75-1.86-.35-2.78-.35a7.44,7.44,0,0,1-2.26,0c-.83,1-1.5-.5-2.36-.1-.52.24-1.26-.2-1.85.27a1.37,1.37,0,0,1-1.1.12c-.85-.79-1.58-.18-2.34,0-.26.08-.7.33-.72.3-.63-.72-1.19.21-1.61.06a3.06,3.06,0,0,0-1.59,0,7.71,7.71,0,0,1-3.52-.31c-.32-.11-.91.63-1.61,0-.21-.19-1.3.35-1.58.15-.67-.46-1.31.16-1.36.11-.47-.45-1.05-.3-1.59-.34a14.64,14.64,0,0,1-2.11-.22c-.58-.12-1.29.72-1.72-.17-.28.66-.82,0-1.24.15s-1-.2-1.33,0c-1.08.59-2.22.16-3.32.26-.32,0-.94-.41-1-.35-.58.61-1.05.07-1.6,0-1.07-.06-2.24-.4-3.31.24-.33.19-.94,0-1.42.1s-1.11-.58-1.86-.06c-.26.18-1.13-.78-1.75,0a2.09,2.09,0,0,0-2.56,0,5.57,5.57,0,0,0-3-.4c-.32,0-.77,0-.92.11-.45.43-.64.09-.89-.12s-.46-.53-.9-.11a1.12,1.12,0,0,1-.88.09c-.58-.74-1.33,0-2-.19a10.87,10.87,0,0,0-2.62-.17,7.44,7.44,0,0,0-2.37.18c-.65.23-1.59-.15-2.4-.19s-1.81,0-2.72,0-1.67-.46-2.57,0c-.24.11-.72-.13-1.1-.19s-.92-.29-1.11-.16c-1.11.72-2.36.22-3.52.38-.85.11-1.81-.32-2.53.39a.88.88,0,0,1-.63-.15c-.54-.53-.7.35-1.17.17a4.15,4.15,0,0,0-1.51-.38c-.46,0-.82.72-1.41.13s-1,.43-1.7.29a8.45,8.45,0,0,0-3.17,0A2.08,2.08,0,0,1,95.76,46a4.73,4.73,0,0,0-3.21-.29c-.23,0-.38.39-.71.06-.56-.57-1.09-1.17-.88-1.91.1-.34.57-.54,0-.91s1-.66.09-1.1c.48-.77-.3-1.47-.15-2.26a13.57,13.57,0,0,0,0-2.63V33.07c0-.34.18-.83,0-1-1.12-.83.24-2.16-1-2.93.86-.54.54-1.11.06-1.67.84-.6.33-1.39.4-2.09A1.48,1.48,0,0,0,90,23.91c-.55-.53.43-1,.41-1.61,0-.07,0-.15,0-.2-1-1.65-.28-3.41-.49-5.1,0-.4.2-1,0-1.19-.88-.78-.47-1.69-.39-2.49s-.38-1.62-.15-2.52.58-1.86-.35-2.67c.86-.87.27-1.9.43-2.85,0-.08-.27-.18-.3-.29-.1-.34.25-.65-.13-1.06S89.23,2.87,88.53,2.49Z"/></g><g id="レイヤー_2" data-name="レイヤー 2"><g id="Ec6QiD"><path class="cls-3" d="M57,22.89c-.29.34-.79.46-.41,1.1.18.3-.07.87-.16,1.32-.12.64.33,1.38-.34,1.92l.49,1.89h-1a1.22,1.22,0,0,1-1.23-1,1.28,1.28,0,0,1,0-.34c0-.63-.22-1.4.06-1.86s-.46-1.12,0-1.44c.62-.48,0-1.23.55-1.71.18-.16.12-.63.11-1a9.57,9.57,0,0,1,.65-3.7c.1-.3.52-.75.17-1.12-.51-.51.29-.64.23-1a2.71,2.71,0,0,1,.61-2.16c.06-.07.1-.26.06-.3-.51-.46-.07-1,.14-1.19a1.65,1.65,0,0,1,1.33-.42c.54.15.9-.57,1.49-.1.33.27,1-.12,1.4.37.09.11.52,0,.79-.1s.28-.11.36-.06a2.79,2.79,0,0,0,2.26.49l1.12,2.41-1.31,1,1.41.07c0,.33,0,.61,0,.88s-.15.46-.5.49a1.22,1.22,0,0,0-.71.34.65.65,0,0,1-1,.1c-.27-.19-.82,0-1.25.06-.21,0-.44.2-.61.15-.5-.16-.93-.44-1.47,0-.13.1-.57-.26-.87-.29a18.06,18.06,0,0,0-1.82,0c0,1.14-.73,2.19-.32,3.38l1.73-.28a.37.37,0,0,0,.24-.2c.28-.73.88-.85,1.55-.83.32,0,.56,0,.54-.43-.05-.64.28-.95.9-.95s.79.31.8,1a.67.67,0,0,0,.61.77c.45.13.85.48,1.3.59a3.32,3.32,0,0,1,2.27,1.94,6.25,6.25,0,0,1,.18,3.58c-.06.3.16.69,0,.94-.29.63-1.17.75-1.42,1.46-.38-.54-1,0-1,.07-.41.58-.65-.1-1-.07a8.24,8.24,0,0,1-1.72,0,19.26,19.26,0,0,1-3.13-.38c-.35-.09-1.21-.19-.94-1.06a.77.77,0,0,0,0-.49,4.73,4.73,0,0,1-.66-2.72A4.05,4.05,0,0,0,57,22.89Zm.87-7.32A4.91,4.91,0,0,0,59,16a1.74,1.74,0,0,0,1.56-.33,2.54,2.54,0,0,0,1.74.34.44.44,0,0,0,.29-.11c.44-.44.36,0,.42.23a.38.38,0,0,0,.3.08,1.8,1.8,0,0,0,.37-.36c-.64-.35-.08-1.08-.47-1.5-.17-.18-.59-.43-.66-.37-.81.67-1.5-.28-2.25-.14-.18-.6-.65.48-.89-.14,0-.08-.79,0-.85.08-.14.33,0,.75-.38,1.05C58,15,58,15.29,57.86,15.57Zm1.47,9.11c0,.38.17.71.06.92s-.34.46-.06.72a1.84,1.84,0,0,0,.51.36c.55-.56,1.21.39,1.72-.11V24.68Zm6.52,1.09a5.34,5.34,0,0,1-1.75-.26c-.44-.26-.49.06-.61.21s.35.63-.15.85c0,0,0,.11,0,.17a.44.44,0,0,0,0,.16c0,.05.08.11.12.12a4.77,4.77,0,0,0,1.69,0C65.49,26.87,65.61,26.24,65.85,25.77Zm-4.33-3.14a5.84,5.84,0,0,0-.77-1.06c-.28-.22-1.82.57-1.88.95,0,.11.24.26.37.39.48-.59.95-.08,1.44,0C60.88,22.92,61.1,22.77,61.52,22.63ZM63,21.9c-.08.77.06,1.24.78,1.36.21,0,.4.16.6.18s.4-.07.61-.07a1.24,1.24,0,0,1,.36.11c0-.11.08-.27,0-.31a2.75,2.75,0,0,0-.73-.59C64.17,22.33,63.63,22.15,63,21.9Zm-5.95-.3h-.31l.13.92h.18Z"/><path class="cls-3" d="M115.35,21.86c.39.16-.23-1.07.64-.43a1.92,1.92,0,0,0,1.48.07c.49-.16.76.48,1.33.12.3-.19,1,.15,1.48.4a2.52,2.52,0,0,1,1.08,1.6c.12.4-.07.89.34,1.22a3.94,3.94,0,0,0-1.1,1.78.16.16,0,0,1-.12,0c-.34-.64-.59.16-1,.07a1.86,1.86,0,0,0-1.34,0c-.48.38-.76-.12-1.13,0s-.62,0-1,.21A1.35,1.35,0,0,1,115,27c-.23-.08-.28-.62-.52-.77-.71-.43-.55-1.3-1-1.83.51-1-.51-2.09.33-3a.45.45,0,0,0,0-.32c-.6-.14-.63-.4-.38-.95.17-.38-.06-.93.06-1.36.17-.63-.33-1.16-.11-1.81a7,7,0,0,0,.12-1.85c.64-.26,1.38.17,2-.41.1-.1.57,0,.76.16s.4,0,.49-.15.24-.47.16-.57a1.55,1.55,0,0,1-.41-1.46,6.71,6.71,0,0,1,.63-1.78c.33-.22,1.15.18,1.21.62s0,.81,0,1.2a8.27,8.27,0,0,0,.36,1.74,1.16,1.16,0,0,0,.77.54,10.52,10.52,0,0,0,1.38,0c.76,0,1,.46,1,1.32a4.55,4.55,0,0,0,.16,2.16c.19.43-.62,1.85-1,2-.32-.72-.92.08-1.17-.17-.48-.47-.9.34-1.44-.11-.33-.29-1.1-.06-1.68-.05C115.14,20.17,115.06,20.28,115.35,21.86Zm-.07-3.38a14.78,14.78,0,0,1,1.61-.21c.5,0,1,.13,1.51.15.2,0,.4-.17.6-.19s.45.13.6.05c.51-.24.4-.75.39-1.19s-.46-.32-.75-.38-.39-.49-.8-.08c-.19.19-.81-.12-1.24-.11s-.78.14-1.18.18c-.16,0-.19-.45-.39-.28C115.31,17.06,115.84,17.78,115.28,18.48ZM116,25c.93-.22,1.92.31,2.77-.36.52.53.79.05.85-.31s-.29-.6-.54-.73a4.57,4.57,0,0,0-3.21.16c-.21.12-.49.3-.11.61C115.89,24.5,115.9,24.77,116,25Z"/><path class="cls-3" d="M44,24.66A34.4,34.4,0,0,1,42.53,28c-.89.35-1.59,1.15-2.64,1.13a5.27,5.27,0,0,1-.69,0c-.36-.07-.84.26-1.07-.22S37,28,37.08,27.11s-.33-1.76.22-2.48A6,6,0,0,1,40,22.91c.64-.25,1.27-.54,1.88-.8-.18-.79-.39-1.53-.51-2.28-.1-.57-.33-.89-.68-.66s-.61.42-1,0-.95.54-1.41-.05c-.74.67-1.64.09-2.45.42a1.37,1.37,0,0,1,.4-1.85A4,4,0,0,1,37,17.4c.41-.19.74.39,1.15.14s.68-.08,1.07,0a4.78,4.78,0,0,0,1.67-.28c0-.51,0-1.13,0-1.73a.71.71,0,0,1,.43-.48c.23-.05.51.38.73-.07.07.07.18.13.19.21.16.68.3,1.37.46,2.1l1.24.21a4.36,4.36,0,0,0,.59.17c.16,0,.32-.12.49-.12s.39.1.58.08.26-.22.41-.25a1,1,0,0,1,1.36.79,1.41,1.41,0,0,1-1.22,1.25,16,16,0,0,1-1.82-.16c-.39,0-1.1.3-1,.57.29,1.11-.08,2.55,1.49,3.06.41.13.54.68,1.09.73.19,0,.36.5.51.78s0,.41.11.46c1.18.7.92,1.84.93,2.9,0,.28,0,.56,0,.91h-1.6c0-.06-.15-.23-.11-.34.18-.55-.16-1-.17-1.57A2.5,2.5,0,0,0,44,24.66c-.07,0,0,0,0,0a.9.9,0,0,0-.11-.27s-.13,0-.21.06A.75.75,0,0,0,44,24.66Zm-5.5,1.88c.23.11.46.25.7.34a1.71,1.71,0,0,0,2.32-.63,6.41,6.41,0,0,0,.43-1.53c.08-.38-.19-.5-.51-.42s-.37.33-.54.32a2,2,0,0,0-2.16,1.67C38.67,26.38,38.54,26.45,38.46,26.54Z"/><path class="cls-3" d="M150.4,30l-1,.24c-.36.1-.83-.18-.72-.47.25-.62.56-1.12.1-1.84a5.9,5.9,0,0,1-.46-1.87c0-.15-.1-.3-.21-.64-.45.42-1,.69-1.13,1.09-.2.86-.74.87-1.39.84a1.86,1.86,0,0,1-1.76-1c-.26-.53-.65-1.05,0-1.64.11-.09-.2-.54-.14-.8s.41-.54.44-.84c.06-.62.2-1.05.95-.93.25-.75.63-1,1.32-.41.11.09.51-.08.69-.23a1.1,1.1,0,0,0,.16-1.25c-.11-.36-.5-.51-1-.53a5.3,5.3,0,0,1-2.31-.25c-.58-.27-.4-.55-.46-.88a.74.74,0,0,1,.61-.88,2.55,2.55,0,0,1,1.77.29c.75.46,1.36.08,1.42-.77,0-.16,0-.32.05-.6.66.15,1.19.27,1.48,1,.12.32.57.51.87.76l1.48.1.59,0c-.48.22.1.67-.13.83a6.73,6.73,0,0,1-1.41.73c-.25.11-.69,0-.78.16-.2.34-.43,1-.28,1.12.42.44-.62.86.09,1.29.22.13,0,.86.14,1.29.05.24.32.44.5.64l.49.5a.88.88,0,0,1-.08.11c0,.05-.12.1-.12.12.19.58.63,1.23.49,1.72a5.75,5.75,0,0,0-.27,1.42C150.39,29,150.4,29.53,150.4,30Zm-5.25-6a6.91,6.91,0,0,0,.49,1.11c.05.09.5.08.54,0,.27-.48.47-1,.8-1.75Z"/><path class="cls-3" d="M97.61,16A10.25,10.25,0,0,1,99,16a.84.84,0,0,0,1-.54c.22-1.12,1-.85,1.71-.81,0,.21,0,.38,0,.54.1,1,.4,1.26,1.39,1.14.23,0,.54-.25.64-.17a7,7,0,0,1,1.06,1.11c0,.06-.07.3-.15.43a.91.91,0,0,1-1.21.32c-.66-.32-1.2.13-1.81.07-.43,0-.53.42-.23.87a2.17,2.17,0,0,1,.3.56c.06.25-.1.64.36.59.19,0,.36-.23.54-.36l1.34-1c.06,0,.13,0,.17,0a4.17,4.17,0,0,1,1,.86c.12.19,0,.64-.19.9s-.53.65-.74.61c-.85-.15-.75.59-1,1,.33.08.78.05.92.25a6,6,0,0,1,.74,1.58c0,.12-.18.41-.34.52-.49.33-.77.25-1.39-.39-.27-.28-.52.5-.74,0a2,2,0,0,0-.38-.69.62.62,0,0,0-.55.08c-.16.4.18.91-.26,1.28a.5.5,0,0,0,.15.35c.55.33,1.12.9,1.67.88s1.07.12,1.61.07c.32,0,.92.35.95.6a1.21,1.21,0,0,1-1.65,1.13c-.29-.13-.62-.37-.88-.31s-.51.42-.76,0c-1.32,0-1.34,0-1.66-.29-.62-.61-1.39-1.15-1.46-2.14,0-.12,0-.34.06-.35.71-.22,0-.91.45-1.28.2-.17-.18-.86.54-.76a4.26,4.26,0,0,0,.08-1.27,18.19,18.19,0,0,0-.71-2.12c0-.14-.23-.28-.22-.41a8.92,8.92,0,0,1,.18-1,4.87,4.87,0,0,1-1.07-.31C97.6,17.2,97.45,16.8,97.61,16Z"/><path class="cls-3" d="M157,19.8c-.51-1.28-1.71-.87-2.47-1.37-.37.59-.73,0-1.1,0s-.53,0-.57-.4.29-1,.53-.93c.88.12,1.63-.52,2.45-.37a7.49,7.49,0,0,1,2.09.76c.34.19.44.77.76,1s.18.58.07.91a1,1,0,0,0,.09.64c.07.17.41.29,0,.43a1.33,1.33,0,0,0-.56.31,8.91,8.91,0,0,1-.63.93,4.6,4.6,0,0,1-1,.57,6.71,6.71,0,0,1,1.78,2.74c.15.34.5.59.67.93s-.56.95,0,1.43a2.6,2.6,0,0,1-.93,1.17c-.38.25-1.05.36-1.16,1,0,.1-.24.17-.38.22-.65.25-1.25-.22-1.93-.14-.48.06-.9-.61-1.13-1.16a.48.48,0,0,1,0-.17c.06-.66-.12-1.56.24-1.93a2.59,2.59,0,0,1,2.46-1.08,5.38,5.38,0,0,0,.92,0,8.3,8.3,0,0,0-2.68-1.65c-.21-.11-.52-.25-.56-.42a1.12,1.12,0,0,1,.22-.75A15,15,0,0,0,155.37,21C155.66,20.45,156.4,20.18,157,19.8Zm-1,7.57-.36.21c.06.05.13.16.16.15s.34-.13.51-.19c-.09-.05-.18-.1-.67.35v-.15a1,1,0,0,0-.26.1s0,.14.06.21A3.09,3.09,0,0,0,155.94,27.37Z"/><path class="cls-3" d="M127.08,28.77l-.49-.49c-1-1-.72-1-.28-2.28a25.94,25.94,0,0,0,1.1-3.4c.11-.59,0-1-.52-1.06a3,3,0,0,0-.52,0c-.23,0-.46,0-.69,0-.62-.06-1.21-.48-1.19-.83s.83-1.36,1.15-1.16c.72.46,1.43.15,2.12.27a.63.63,0,0,0,.77-.62c.06-.8.28-1,1-.76,1,.29,1.07.46.51,1.19-.13.17-.3.31-.54.56a11.77,11.77,0,0,0,1.22,1,3.15,3.15,0,0,1,1.73,3.15,8,8,0,0,0,0,1.38c.13,1.25-.74,1.94-1.52,2.63-.16.14-.64,0-.9-.12a.5.5,0,0,1-.21-.82,4.15,4.15,0,0,0,.7-1.76,6.2,6.2,0,0,0,.2-1.54c0-.22.06-.5,0-.68a2.67,2.67,0,0,0-.6-.61c-.33-.32-1.05-.18-1.05.25,0,1.61-1.2,2.93-1.08,4.56,0,.38-.16.43-.5.5C127.29,28.15,127.2,28.54,127.08,28.77Z"/><path class="cls-3" d="M134.92,21.76c-.08-.22-.09-.41-.19-.51-.34-.32-.32-.69.05-.82.69-.23.06-1.23.77-1.28a5.55,5.55,0,0,1,1.58.32,6.55,6.55,0,0,1,4,2.72c.54.74-.23,1.55.29,2.24-.7.55.12,1.57-.65,2.1.17.18.48.33.09.61a5.76,5.76,0,0,0-.62.59c-.33-.67-.79.31-1.06-.05-.56-.75-1.24.21-1.8-.18a2.35,2.35,0,0,1-2.13.08c-.69-.2-.7-.2-.7-.57a12,12,0,0,0,0-1.2c0-.43.16-.88-.23-1.29-.17-.18.46-.49.1-1-.17-.23.13-.83.25-1.25A2.39,2.39,0,0,1,134.92,21.76Zm4.54,4c-.14-.81-.48-1.49-.27-1.77.52-.72-.54-1.1-.2-1.7,0-.08-.09-.41-.15-.41-.79,0-1.31-1.07-2.13-.67l-.47,2.48c.7.63.08,1.58.48,2.32.31-.26.19-1.07.76-.64S138.66,25.51,139.46,25.79Z"/><path class="cls-3" d="M78.26,21.74c1.06,1,.1,1.81.35,2.33.38.8.14,1.54.27,2.29s.27,1.5.42,2.32c-.63.1-1.12.23-1.63-.23a1.67,1.67,0,0,1-.53-1.34c0-.76.28-1.61-.54-2.18a.25.25,0,0,1,0-.24c.49-1,.07-2,.24-3-.38-.15-.63-.49-1.12-.33a1.89,1.89,0,0,1-1-.2c-.71-.24-.82-.69-.31-1.2a8.11,8.11,0,0,1,.65-.51c.4.6.91-.2,1.4.11.33.21.72-.13.54-.39-.33-.49.22-.64.27-1s.89.12,1.12-.46c.17.21.45.41.48.65a14.12,14.12,0,0,1,0,1.73h3c0,.21,0,.44.09.51.38.29.51.81.29,1a1.41,1.41,0,0,1-1.24.39C80.26,21.69,79.48,22,78.26,21.74Z"/><path class="cls-3" d="M112.05,27.41a5.62,5.62,0,0,0,.92-.08c.16,0,.26-.4.49-.09.5.68,1.45.44,2,1,.25.25.32,0,.5,0a.82.82,0,0,1,.64-.07c1.25.77,2.5.3,3.63-.15a5.74,5.74,0,0,1,1.81-.18.81.81,0,0,1,.64.44c.07.17-.09.51-.24.69-.51.61-.62.68-1.92.88a4.63,4.63,0,0,0-1.58.35c-.42.22-1-.23-1.44.27-1-.57-2.27.09-3.28-.64a2.52,2.52,0,0,0-1.44-.59c-.53,0-.93-.36-1.5-.2s-.9-.37-1-.86c-.09-.65-.23-1.28-.34-1.92s.19-1.33-.2-2c-.11-.17.22-.61.36-.93.4.2,1,.3,1.18.63a4.83,4.83,0,0,1,.73,2.27C112.06,26.55,112.05,26.94,112.05,27.41Z"/><path class="cls-3" d="M72,19.73v2.93c.79.47-.28,1.14.12,1.54s-.13,1.28.56,1.66c-.7.51-.1.8.17,1.2a1,1,0,0,1-.59,1.61.7.7,0,0,1-.57-.06,2.62,2.62,0,0,1-1.08-1.79c0-.46-.42-1.08-.23-1.34.37-.51-.26-.73-.13-1.15a5,5,0,0,0,0-1.54,4.39,4.39,0,0,1,.22-1.68C70.64,20.33,71.32,20.2,72,19.73Z"/><path class="cls-3" d="M48.83,24.53c-1.11-1.61-.71-3-.17-4.37.13-.34.43-.64.49-1s.3-.47.57-.38a1.87,1.87,0,0,1,.8.51c.11.13.07.44,0,.66-.22,1.1-.4,2.21-.72,3.28C49.71,23.67,49.25,24,48.83,24.53Z"/><path class="cls-3" d="M111,21.53H109.4l-.46-1.15c-.07-.19-.13-.52-.23-.54-1.2-.16.57-.68-.11-.88.27-.25,1.65-.27,1.69,0,.09.6.58.8.9,1.16s-.08.34-.12.5A8.27,8.27,0,0,0,111,21.53Z"/></g><path class="cls-3" d="M87.23,15.63h2.43c.31-.62-.13-1.33.42-1.93s1.22-.65,1.57-.1c.06.08,0,.24,0,.36a11.12,11.12,0,0,0-.15,1.14c0,.79.3,1.16,1.12,1.24a10,10,0,0,0,1.73,0c.84-.08,1.11.1.94.77a5.65,5.65,0,0,1-.5,1c-1-.08-2.11.23-3.29-.51,0,.7-.21,1.4,0,1.66.4.4,0,.79.24,1.2s.56.51.75.38c.86-.64,1.65.34,2.5.06.12,0,.48.41.59.69a3,3,0,0,1,0,1H93a6.08,6.08,0,0,0,.25,3.22c.13.49,1,.87,1.2.55.81-1.05,1.87-.48,2.79-.65a1.18,1.18,0,0,1-.71,1.74c-.3.13-.55.35-.84.47-.49.21-1,.38-1.5.56-.45-.72-1.51.07-1.92-.78-.23-.48-.53-.93-.72-1.43s-.08-.89-.28-1.26.13-1-.45-1.2c0,0,0-.22,0-.33s.67-.33,0-.49c-.09,0-.31.24-.36.4a5.17,5.17,0,0,1-.38,1.38c-.56.77-.12,1.74-.65,2.5a7.68,7.68,0,0,0-.59,1.41c-.82-.69-1.64-1.15-.81-2.23-.48-.47.11-1,0-1.43s.29-1,.39-1.57a5,5,0,0,1,.25-.71c-.38,0-.58-.65-1.1-.22a1,1,0,0,1-1,.08c-.74-.68-1.08,0-1.55.4-.11-.12-.2-.26-.32-.38-.36-.36-.86-.7-.16-1.2-.72-.31.36-.83-.16-1.22-.35-.26.59-.72,0-1.08a3.45,3.45,0,0,1,.2-.46c.29-.66,0-1.5.65-2-.79-.89.34-1.41.45-2.13.09-.51,1.1-.69,1.6-.36.32.21.68.5.2.95C87.38,15.12,87.36,15.31,87.23,15.63Zm-.43,1.75a1.69,1.69,0,0,0-.15.22c-.12.41-.46,1-.3,1.2.42.56-.07.71-.23,1.05s.09.56.21.81.37.21.42.16c.64-.61,1.41-.27,2.12-.32a.82.82,0,0,0,.87-.81,3,3,0,0,0-.42-2.23c-.6.33-1.15-.23-1.75-.09A3.33,3.33,0,0,1,86.8,17.38Z"/></g></svg>