<svg xmlns="http://www.w3.org/2000/svg" viewBox="0 0 195.31 46.21"><defs><style>.cls-1{fill:none;stroke:#231815;stroke-linecap:round;stroke-linejoin:round;stroke-width:5px;}.cls-2{fill:#fff;}.cls-3{fill:#231815;}</style></defs><g id="レイヤー_1" data-name="レイヤー 1"><path class="cls-1" d="M194.69,32.64c-.09-1.27.36-2.67-.14-3.81a6.8,6.8,0,0,1-.31-3.1c0-.43,0-.85,0-1.29a5.88,5.88,0,0,1,.32-3.1c.44-.9.3-2.07.6-3.11-.75-.43-.46-1.08-.49-1.65s.65-1,0-1.49a2,2,0,0,0,.4-2.42c-.5-.77.91-1.63-.38-2.19-.05,0,.07-.36.16-.53a2.22,2.22,0,0,0-.05-2.6.72.72,0,0,1-.06-.54c.1-.39.51-1,.36-1.11-.73-.51.43-1,0-1.27-.87-.54.51-.89.06-1.33a7.3,7.3,0,0,0,0-.81,1,1,0,0,0-1.05-.9c-1.91-.09-3.85.22-5.73-.38-.24-.08-.65.29-1,.36-.79.15-.41-.68-.8-.74-1.16-.18-2.4.14-3.48-.46-.52.61-1,.42-1.59,0a1.56,1.56,0,0,0-1.1.17,1.11,1.11,0,0,1-1,0c-.43-.13-1-.11-1.46-.21a2.2,2.2,0,0,0-1.6.21c-.35.22-1-.64-1.51.08-1-.35-2,.23-3,.11-1.21-.13-2.64.28-3.64-.12s-1.85.72-2.4-.31a13.4,13.4,0,0,1-7,0,.55.55,0,0,0-.43.08c-.42.51-1,.33-1.58.3-1-.06-2.06,0-3.1-.15s-2,.27-3-.21c-.32-.15-1.11.3-1.36.13a3.27,3.27,0,0,0-2.49-.16c-1.4.21-2.92-.46-4.25.39-.11.07-.42-.09-.65-.14S141,.08,140.81.2a2.8,2.8,0,0,1-2.47.31c-.78-.49-1.69.59-2.17-.33-.69.76-1.31-.36-2.07,0-.4.16-.93.65-1.58.06-.41-.38-1.07.55-1.59.12-.8-.66-1,.46-1.72.31a15.23,15.23,0,0,0-3-.05h-3.21a11,11,0,0,1-2.93,0c-1-.31-2,.43-2.81,0s-1.93,0-2.8.1a3.51,3.51,0,0,1-1.92.11c-.59-.19-1.49.31-2.15.17a7.91,7.91,0,0,0-2.33,0c-2.12.17-4.27.08-6.41,0-.68,0-2.24.63-2.3,1.16-.2,1.86-1.2,3.62-1,5.54,0,.41.62.75.08,1.31-.32.34.06,1.09-.17,1.55s0,.46,0,.74a24.54,24.54,0,0,1,.11,3.21c-.78.26.26.86-.34,1.17-.78.41-.39,1-.34,1.57a9.39,9.39,0,0,1,.17,1.15c0,.44-.26.87-.28,1.31s.38.79.23.95c-.57.56-.63,1,0,1.57.18.19.11.64,0,.93-.79,2.15-.39,4.34-.19,6.5a2.87,2.87,0,0,1,0,1.4c-.17.47.35,1.09.21,1.57a3.34,3.34,0,0,0,0,2,7.17,7.17,0,0,1,0,2v1.82a17,17,0,0,0,0,2,11.12,11.12,0,0,0,.47,1.66c-1.26.32.37,1.15-.41,1.55-.11,1.28,1,1.87,2.4,1.73a38.36,38.36,0,0,1,6.25-.09c.58,0,1.19.4,1.68,0,.79-.68,1,.67,1.7.25,1.16-.77,2.5-.27,3.75-.38.89-.08,2,.22,2.65-.11A3.85,3.85,0,0,1,119,44.8a6.49,6.49,0,0,0,2.08-.08c.77-.06,1.61.26,2.3-.35.16-.14.75,0,1.13.09s.75.3.81.24c.82-.82,1.58-.17,2.34,0,.41.11,1,.41,1.2.29a1.88,1.88,0,0,1,2-.14c.74.44,1-.38,1.67-.19a8.46,8.46,0,0,0,2.2,0c.74,0,1.48,0,2.22,0a9.82,9.82,0,0,1,2.38.18c.74.21,1.18-.4,1.91-.24.51.12,1.32-.46,1.72-.3a4.23,4.23,0,0,0,1.81.35,8,8,0,0,1,2,0,2.16,2.16,0,0,0,1.6,0c.28-.12.8.45,1.26,0,.29.6,1.16-.41,1.4.34.5-.13,1-.29,1.52-.38a1.63,1.63,0,0,1,.66.14c.28.07.79.22.81.2.47-.89,1.22.18,1.74-.18.74-.5,1.3.06,1.93.21.31.08.81.13,1,0,.66-.61,1.24,0,1.84,0,.77,0,1.63-.33,2.32.29a.87.87,0,0,0,.64,0c2.12-.74,4.34-.13,6.5-.33.68.55,1.52-.25,2,0,.89.51,1.57,0,2.34,0a10.58,10.58,0,0,1,3.5.38,9.24,9.24,0,0,0,2,0h2c.66,0,1.32,0,2,0a10.16,10.16,0,0,1,1.65.18,4,4,0,0,0,1.48-.16,8.18,8.18,0,0,1,2.21,0,4.54,4.54,0,0,1,1.67.57c.56.33,1.08-.73,1.55,0,.77-.14,1.74,0,2.17-.66a1.44,1.44,0,0,0,.1-1.45,1.88,1.88,0,0,1-.31-1.32,5.62,5.62,0,0,1,0-1.42c.08-.49.41-1,.45-1.45.08-.87-.32-1.9.11-2.59s-.85-1.63.4-2.18c0,0,0-.29-.09-.36C194.26,34.12,194.74,33.34,194.69,32.64Z"/><path class="cls-1" d="M.67,32.64c.1-1.27-.38-2.67.15-3.81a6.31,6.31,0,0,0,.33-3.1c0-.43,0-.85,0-1.29a5.52,5.52,0,0,0-.34-3.1c-.48-.9-.32-2.07-.64-3.11.8-.43.49-1.08.52-1.65s-.69-1,0-1.49a1.89,1.89,0,0,1-.43-2.42c.54-.77-1-1.63.41-2.19,0,0-.07-.36-.17-.53a2.1,2.1,0,0,1,.05-2.6.68.68,0,0,0,.07-.54C.52,6.42.08,5.81.24,5.7c.78-.51-.46-1,0-1.27.94-.54-.55-.89-.06-1.33,0-.27,0-.54,0-.81,0-.53.45-.87,1.13-.9C3.35,1.3,5.44,1.61,7.45,1c.26-.08.71.29,1.1.36.84.15.43-.68.86-.74C10.64.45,12,.77,13.14.17c.56.61,1.06.42,1.71,0A1.78,1.78,0,0,1,16,.37a1.28,1.28,0,0,0,1.13,0c.46-.13,1-.11,1.56-.21a2.54,2.54,0,0,1,1.73.21c.37.22,1.1-.64,1.62.08C23.16.14,24.19.72,25.3.6c1.3-.13,2.84.28,3.91-.12s2,.72,2.58-.31a15.39,15.39,0,0,0,7.51,0,.65.65,0,0,1,.47.08c.45.51,1.13.33,1.69.3,1.11-.06,2.21,0,3.33-.15S46.9.68,48,.2c.35-.15,1.2.3,1.47.13A3.72,3.72,0,0,1,52.11.17c1.51.21,3.14-.46,4.57.39.11.07.46-.09.69-.14.4-.09,1-.34,1.17-.22a3.19,3.19,0,0,0,2.65.31C62,0,63,1.1,63.52.18c.74.76,1.41-.36,2.23,0,.42.16,1,.65,1.69.06.44-.38,1.15.55,1.71.12C70-.35,70.21.77,71,.62A17.58,17.58,0,0,1,74.17.57h3.44a12.66,12.66,0,0,0,3.15,0c1.11-.31,2.1.43,3,0s2.07,0,3,.1a4,4,0,0,0,2.06.11c.64-.19,1.61.31,2.32.17a9.1,9.1,0,0,1,2.5,0c2.27.17,4.58.08,6.88,0,.73,0,2.41.63,2.47,1.16.22,1.86,1.29,3.62,1.11,5.54,0,.41-.66.75-.08,1.31.34.34-.07,1.09.18,1.55s0,.46,0,.74a21.49,21.49,0,0,0-.12,3.21c.84.26-.28.86.37,1.17.84.41.41,1,.36,1.57a7.83,7.83,0,0,0-.18,1.15c0,.44.28.87.3,1.31s-.42.79-.25.95c.61.56.68,1,0,1.57-.2.19-.13.64,0,.93.86,2.15.42,4.34.21,6.5a2.55,2.55,0,0,0,0,1.4c.18.47-.38,1.09-.23,1.57a3.12,3.12,0,0,1,0,2,6.49,6.49,0,0,0,0,2v1.82a17,17,0,0,1,0,2,11.31,11.31,0,0,1-.51,1.66c1.35.32-.4,1.15.44,1.55.12,1.28-1,1.87-2.57,1.73a44.46,44.46,0,0,0-6.73-.09c-.62,0-1.27.4-1.79,0-.86-.68-1.14.67-1.83.25-1.25-.77-2.69-.27-4-.38-1-.08-2.13.22-2.85-.11A4.41,4.41,0,0,0,82,44.8a7.46,7.46,0,0,1-2.23-.08C79,44.66,78,45,77.3,44.37c-.17-.14-.8,0-1.21.09s-.81.3-.88.24c-.88-.82-1.68-.17-2.51,0-.44.11-1.11.41-1.28.29a2.15,2.15,0,0,0-2.16-.14c-.79.44-1.08-.38-1.79-.19a9.81,9.81,0,0,1-2.37,0c-.79,0-1.59,0-2.38,0a11.19,11.19,0,0,0-2.55.18c-.8.21-1.27-.4-2.07-.24-.54.12-1.41-.46-1.84-.3a4.83,4.83,0,0,1-1.94.35,9.14,9.14,0,0,0-2.1,0,2.48,2.48,0,0,1-1.72,0c-.31-.12-.87.45-1.36,0-.31.6-1.24-.41-1.5.34-.54-.13-1.08-.29-1.63-.38a1.87,1.87,0,0,0-.71.14c-.3.07-.85.22-.87.2-.51-.89-1.31.18-1.88-.18-.79-.5-1.39.06-2.07.21a1.7,1.7,0,0,1-1,0c-.71-.61-1.33,0-2,0-.83,0-1.75-.33-2.49.29a1,1,0,0,1-.7,0c-2.27-.74-4.65-.13-7-.33-.74.55-1.64-.25-2.17,0-1,.51-1.68,0-2.52,0a12.19,12.19,0,0,0-3.76.38,10.59,10.59,0,0,1-2.11,0H14.64c-.71,0-1.41,0-2.12,0a11.54,11.54,0,0,0-1.77.18,4.69,4.69,0,0,1-1.6-.16,9.32,9.32,0,0,0-2.36,0,5.13,5.13,0,0,0-1.8.57c-.61.33-1.16-.73-1.67,0-.83-.14-1.87,0-2.33-.66a1.35,1.35,0,0,1-.1-1.45c.4-.46.29-.88.33-1.32a5.2,5.2,0,0,0,0-1.42c-.09-.49-.44-1-.49-1.45C.64,39,1.07,38,.6,37.28s.92-1.63-.42-2.18c0,0,0-.29.09-.36C1.14,34.12.62,33.34.67,32.64Z"/><path class="cls-2" d="M194.69,32.64c-.09-1.27.36-2.67-.14-3.81a6.8,6.8,0,0,1-.31-3.1c0-.43,0-.85,0-1.29a5.88,5.88,0,0,1,.32-3.1c.44-.9.3-2.07.6-3.11-.75-.43-.46-1.08-.49-1.65s.65-1,0-1.49a2,2,0,0,0,.4-2.42c-.5-.77.91-1.63-.38-2.19-.05,0,.07-.36.16-.53a2.22,2.22,0,0,0-.05-2.6.72.72,0,0,1-.06-.54c.1-.39.51-1,.36-1.11-.73-.51.43-1,0-1.27-.87-.54.51-.89.06-1.33a7.3,7.3,0,0,0,0-.81,1,1,0,0,0-1.05-.9c-1.91-.09-3.85.22-5.73-.38-.24-.08-.65.29-1,.36-.79.15-.41-.68-.8-.74-1.16-.18-2.4.14-3.48-.46-.52.61-1,.42-1.59,0a1.56,1.56,0,0,0-1.1.17,1.11,1.11,0,0,1-1,0c-.43-.13-1-.11-1.46-.21a2.2,2.2,0,0,0-1.6.21c-.35.22-1-.64-1.51.08-1-.35-2,.23-3,.11-1.21-.13-2.64.28-3.64-.12s-1.85.72-2.4-.31a13.4,13.4,0,0,1-7,0,.55.55,0,0,0-.43.08c-.42.51-1,.33-1.58.3-1-.06-2.06,0-3.1-.15s-2,.27-3-.21c-.32-.15-1.11.3-1.36.13a3.27,3.27,0,0,0-2.49-.16c-1.4.21-2.92-.46-4.25.39-.11.07-.42-.09-.65-.14S141,.08,140.81.2a2.8,2.8,0,0,1-2.47.31c-.78-.49-1.69.59-2.17-.33-.69.76-1.31-.36-2.07,0-.4.16-.93.65-1.58.06-.41-.38-1.07.55-1.59.12-.8-.66-1,.46-1.72.31a15.23,15.23,0,0,0-3-.05h-3.21a11,11,0,0,1-2.93,0c-1-.31-2,.43-2.81,0s-1.93,0-2.8.1a3.51,3.51,0,0,1-1.92.11c-.59-.19-1.49.31-2.15.17a7.91,7.91,0,0,0-2.33,0c-2.12.17-4.27.08-6.41,0-.68,0-2.24.63-2.3,1.16-.2,1.86-1.2,3.62-1,5.54,0,.41.62.75.08,1.31-.32.34.06,1.09-.17,1.55s0,.46,0,.74a24.54,24.54,0,0,1,.11,3.21c-.78.26.26.86-.34,1.17-.78.41-.39,1-.34,1.57a9.39,9.39,0,0,1,.17,1.15c0,.44-.26.87-.28,1.31s.38.79.23.95c-.57.56-.63,1,0,1.57.18.19.11.64,0,.93-.79,2.15-.39,4.34-.19,6.5a2.87,2.87,0,0,1,0,1.4c-.17.47.35,1.09.21,1.57a3.34,3.34,0,0,0,0,2,7.17,7.17,0,0,1,0,2v1.82a17,17,0,0,0,0,2,11.12,11.12,0,0,0,.47,1.66c-1.26.32.37,1.15-.41,1.55-.11,1.28,1,1.87,2.4,1.73a38.36,38.36,0,0,1,6.25-.09c.58,0,1.19.4,1.68,0,.79-.68,1,.67,1.7.25,1.16-.77,2.5-.27,3.75-.38.89-.08,2,.22,2.65-.11A3.85,3.85,0,0,1,119,44.8a6.49,6.49,0,0,0,2.08-.08c.77-.06,1.61.26,2.3-.35.16-.14.75,0,1.13.09s.75.3.81.24c.82-.82,1.58-.17,2.34,0,.41.11,1,.41,1.2.29a1.88,1.88,0,0,1,2-.14c.74.44,1-.38,1.67-.19a8.46,8.46,0,0,0,2.2,0c.74,0,1.48,0,2.22,0a9.82,9.82,0,0,1,2.38.18c.74.21,1.18-.4,1.91-.24.51.12,1.32-.46,1.72-.3a4.23,4.23,0,0,0,1.81.35,8,8,0,0,1,2,0,2.16,2.16,0,0,0,1.6,0c.28-.12.8.45,1.26,0,.29.6,1.16-.41,1.4.34.5-.13,1-.29,1.52-.38a1.63,1.63,0,0,1,.66.14c.28.07.79.22.81.2.47-.89,1.22.18,1.74-.18.74-.5,1.3.06,1.93.21.31.08.81.13,1,0,.66-.61,1.24,0,1.84,0,.77,0,1.63-.33,2.32.29a.87.87,0,0,0,.64,0c2.12-.74,4.34-.13,6.5-.33.68.55,1.52-.25,2,0,.89.51,1.57,0,2.34,0a10.58,10.58,0,0,1,3.5.38,9.24,9.24,0,0,0,2,0h2c.66,0,1.32,0,2,0a10.16,10.16,0,0,1,1.65.18,4,4,0,0,0,1.48-.16,8.18,8.18,0,0,1,2.21,0,4.54,4.54,0,0,1,1.67.57c.56.33,1.08-.73,1.55,0,.77-.14,1.74,0,2.17-.66a1.44,1.44,0,0,0,.1-1.45,1.88,1.88,0,0,1-.31-1.32,5.62,5.62,0,0,1,0-1.42c.08-.49.41-1,.45-1.45.08-.87-.32-1.9.11-2.59s-.85-1.63.4-2.18c0,0,0-.29-.09-.36C194.26,34.12,194.74,33.34,194.69,32.64Z"/><path class="cls-2" d="M.67,32.64c.1-1.27-.38-2.67.15-3.81a6.31,6.31,0,0,0,.33-3.1c0-.43,0-.85,0-1.29a5.52,5.52,0,0,0-.34-3.1c-.48-.9-.32-2.07-.64-3.11.8-.43.49-1.08.52-1.65s-.69-1,0-1.49a1.89,1.89,0,0,1-.43-2.42c.54-.77-1-1.63.41-2.19,0,0-.07-.36-.17-.53a2.1,2.1,0,0,1,.05-2.6.68.68,0,0,0,.07-.54C.52,6.42.08,5.81.24,5.7c.78-.51-.46-1,0-1.27.94-.54-.55-.89-.06-1.33,0-.27,0-.54,0-.81,0-.53.45-.87,1.13-.9C3.35,1.3,5.44,1.61,7.45,1c.26-.08.71.29,1.1.36.84.15.43-.68.86-.74C10.64.45,12,.77,13.14.17c.56.61,1.06.42,1.71,0A1.78,1.78,0,0,1,16,.37a1.28,1.28,0,0,0,1.13,0c.46-.13,1-.11,1.56-.21a2.54,2.54,0,0,1,1.73.21c.37.22,1.1-.64,1.62.08C23.16.14,24.19.72,25.3.6c1.3-.13,2.84.28,3.91-.12s2,.72,2.58-.31a15.39,15.39,0,0,0,7.51,0,.65.65,0,0,1,.47.08c.45.51,1.13.33,1.69.3,1.11-.06,2.21,0,3.33-.15S46.9.68,48,.2c.35-.15,1.2.3,1.47.13A3.72,3.72,0,0,1,52.11.17c1.51.21,3.14-.46,4.57.39.11.07.46-.09.69-.14.4-.09,1-.34,1.17-.22a3.19,3.19,0,0,0,2.65.31C62,0,63,1.1,63.52.18c.74.76,1.41-.36,2.23,0,.42.16,1,.65,1.69.06.44-.38,1.15.55,1.71.12C70-.35,70.21.77,71,.62A17.58,17.58,0,0,1,74.17.57h3.44a12.66,12.66,0,0,0,3.15,0c1.11-.31,2.1.43,3,0s2.07,0,3,.1a4,4,0,0,0,2.06.11c.64-.19,1.61.31,2.32.17a9.1,9.1,0,0,1,2.5,0c2.27.17,4.58.08,6.88,0,.73,0,2.41.63,2.47,1.16.22,1.86,1.29,3.62,1.11,5.54,0,.41-.66.75-.08,1.31.34.34-.07,1.09.18,1.55s0,.46,0,.74a21.49,21.49,0,0,0-.12,3.21c.84.26-.28.86.37,1.17.84.41.41,1,.36,1.57a7.83,7.83,0,0,0-.18,1.15c0,.44.28.87.3,1.31s-.42.79-.25.95c.61.56.68,1,0,1.57-.2.19-.13.64,0,.93.86,2.15.42,4.34.21,6.5a2.55,2.55,0,0,0,0,1.4c.18.47-.38,1.09-.23,1.57a3.12,3.12,0,0,1,0,2,6.49,6.49,0,0,0,0,2v1.82a17,17,0,0,1,0,2,11.31,11.31,0,0,1-.51,1.66c1.35.32-.4,1.15.44,1.55.12,1.28-1,1.87-2.57,1.73a44.46,44.46,0,0,0-6.73-.09c-.62,0-1.27.4-1.79,0-.86-.68-1.14.67-1.83.25-1.25-.77-2.69-.27-4-.38-1-.08-2.13.22-2.85-.11A4.41,4.41,0,0,0,82,44.8a7.46,7.46,0,0,1-2.23-.08C79,44.66,78,45,77.3,44.37c-.17-.14-.8,0-1.21.09s-.81.3-.88.24c-.88-.82-1.68-.17-2.51,0-.44.11-1.11.41-1.28.29a2.15,2.15,0,0,0-2.16-.14c-.79.44-1.08-.38-1.79-.19a9.81,9.81,0,0,1-2.37,0c-.79,0-1.59,0-2.38,0a11.19,11.19,0,0,0-2.55.18c-.8.21-1.27-.4-2.07-.24-.54.12-1.41-.46-1.84-.3a4.83,4.83,0,0,1-1.94.35,9.14,9.14,0,0,0-2.1,0,2.48,2.48,0,0,1-1.72,0c-.31-.12-.87.45-1.36,0-.31.6-1.24-.41-1.5.34-.54-.13-1.08-.29-1.63-.38a1.87,1.87,0,0,0-.71.14c-.3.07-.85.22-.87.2-.51-.89-1.31.18-1.88-.18-.79-.5-1.39.06-2.07.21a1.7,1.7,0,0,1-1,0c-.71-.61-1.33,0-2,0-.83,0-1.75-.33-2.49.29a1,1,0,0,1-.7,0c-2.27-.74-4.65-.13-7-.33-.74.55-1.64-.25-2.17,0-1,.51-1.68,0-2.52,0a12.19,12.19,0,0,0-3.76.38,10.59,10.59,0,0,1-2.11,0H14.64c-.71,0-1.41,0-2.12,0a11.54,11.54,0,0,0-1.77.18,4.69,4.69,0,0,1-1.6-.16,9.32,9.32,0,0,0-2.36,0,5.13,5.13,0,0,0-1.8.57c-.61.33-1.16-.73-1.67,0-.83-.14-1.87,0-2.33-.66a1.35,1.35,0,0,1-.1-1.45c.4-.46.29-.88.33-1.32a5.2,5.2,0,0,0,0-1.42c-.09-.49-.44-1-.49-1.45C.64,39,1.07,38,.6,37.28s.92-1.63-.42-2.18c0,0,0-.29.09-.36C1.14,34.12.62,33.34.67,32.64Z"/></g><g id="レイヤー_2" data-name="レイヤー 2"><path class="cls-3" d="M102.37,25a2.63,2.63,0,0,1,.88-2.66c.18-.18.06-.27-.36-.33a2.61,2.61,0,0,1-1-.27,1.46,1.46,0,0,1-.51-.74c0-.12.13-.37.27-.48.68-.49,1.29-1.28,2.29-.5.15.12.51,0,.86-.05a6.48,6.48,0,0,0-.47-1.15.92.92,0,0,0-1-.51,8.19,8.19,0,0,1-.86,0c-1,.05-1,.05-1.54-.49a6.7,6.7,0,0,1,.59-1c.36-.42.68-1,1.36-.29.17.16.77,0,1.1-.14.6-.29.32-.9.38-1.41.69-.33,1.06-.1,1.4.6.63,1.31,1,1.43,2.5,1.06a.65.65,0,0,1,.57.11,6.53,6.53,0,0,1,.7,1.09c0,.07,0,.29,0,.3a1.1,1.1,0,0,0-.83.82c-.22-.41-.65,0-.71-.07-.56-.52-1.19-.11-1.79-.3.22,1.23.26,1.23,1.29,1.44a3,3,0,0,0,1,.16,1.9,1.9,0,0,1,.78.17,1.11,1.11,0,0,1,.27.17l.12.12.51.52a1.64,1.64,0,0,1-1.89.91c-.71-.09-1.48.25-2.1-.34-.54.44-1.09-.14-1.61,0a1.77,1.77,0,0,0-.82.47c-.07.08.1.54.27.65a1.58,1.58,0,0,0,.89.19c.19,0,.38-.28.56-.27.45,0,1-.54,1.37.19a.64.64,0,0,0,.6.12,1.17,1.17,0,0,1,1.46,0c.48-.55.95.14,1.44,0s.53.13.63.53.7,1.08.57,1.44c-.23.66-.13,1.33-.33,1.93-.12.37-.71.62-1.13.86-.08.05-.33-.25-.51-.26-.45,0-.41-.34-.37-.6a4,4,0,0,1,.27-.55c-.59-.4.45-1-.06-1.18s-1.13-1.06-1.85-.66c-.37.21-.68-.2-1.06.17s-.88,0-1.34,0c-.94,0-1.2.31-1.15,1.22.08,1.38.08,1.38-1.38,1.93,0-.61,0-1.17,0-1.72s-.59-.92-.89-.65c-.74.64-1.11-.07-1.5-.36a1.45,1.45,0,0,0-1.81-.17c-.14.13-.32.47-.26.55.66.94.17,2,.32,3,.13.82-.25,1.68.22,2.5.13.22-.43.92-.7,1l-1.15.2a3.22,3.22,0,0,1-.15-2.1,2.21,2.21,0,0,0-.15-2c-.06-.07.17-.31.2-.49a1.18,1.18,0,0,0-.08-.4c-.93,0-.27,1.07-1,1.32s0,1.14-.44,1.66c-.71.23-1.21-.23-1.74-.6-.09-.05-.13-.16-.2-.24.75-.53-.11-1.58.71-2.14.26-.17.28-.67.44-1.08h1.78L96.68,25a3.46,3.46,0,0,1-.55-.08c-.4-.12-.84.28-1.19-.5s-.67-.81-.24-1.47a5.81,5.81,0,0,0,.92-1.46c0-.15.29-.22.45-.33a3.7,3.7,0,0,1-.42-.37c-.44-.49-1.2-1-1.23-1.48a2.57,2.57,0,0,1,.88-2c1.21-.83,2.28-2.22,4.09-1.64.08,1-.11,1.26-1,1.65a5.25,5.25,0,0,0-2.15,2.26c1-.67,1.87.18,2.47-.32s.81,0,1.15.14.49,1,.17,1c-.66,0-.39.86-1.06.84-.31,0-.61.81-1,.87-.67.11-.2.44-.29.64s-.34.52.16.44a5.72,5.72,0,0,0,1.23-.46c0-.19-.15-.47-.09-.51.35-.25.73-.44,1.08-.65.25.94.54,1.28,1.65,2.35.25.25.28.72.65,1.15.18,0,.12-.06.07-.13l-.16.15a1.46,1.46,0,0,0,.21.16S102.56,25.13,102.37,25Z"/><path class="cls-3" d="M143.35,12.47c-.23.56-.52,1,0,1.53a4.55,4.55,0,0,1,.73,1.75c.05.16-.63.48.15.53.25,0,.48.25.73.29s.33-.11.49-.18c.19.53,1-.15,1.08.52s.49.67.92.82c.1,0,.18.46.1.61a2.8,2.8,0,0,0-.14,1.4c0,.12,0,.29-.06.35a3.41,3.41,0,0,1-.94.64c-.54.19.16,1.31-.69,1a4,4,0,0,0-1.26-.29c-.21,0-.42,0-.87,0,.29.44.46.69.61.95a1,1,0,0,1,.15.37c0,1.1,0,1.15.94,1.08.25,0,.48-.3.72-.3s.48.22.72.31.83-.22.81.3.6,1,0,1.44c-.15.12-.32.33-.45.31-.36,0-.71-.27-1.07-.3s-.56.19-.84.19-.45-.14-.74,0L148.54,29c-.07.5-1,.11-1,.82,0,.06-.25.18-.27.16-.63-.72-1.73-.69-2.32-1.55-.26-.4-.88-.56-1.44-.89L143,29.69a.87.87,0,0,1-.79.73c-.61.13-.54-.4-.72-.67s-.27-.5-.2-.59c.5-.64.21-1.4.39-2.08.4-1.51.3-1.72-1.2-2.18-.24-.08-.63.08-.58-.38,0-.25.09-.63.27-.73.43-.23,1.06-.6,1.38-.44.72.35.76.09.76-.49,0-.22,0-.52.11-.63s.79-.1.54-.59c-.09-.18-.61-.1-.91-.21-.55-.21-1.07.51-1.63,0a.89.89,0,0,0-.35.32,5.15,5.15,0,0,0-.49,1.85c.19,1.71-.53,3.3-.34,5.18-.64-.2-1.09-.32-1.52-.49a.47.47,0,0,1-.23-.37c.12-.82-.29-1.67.23-2.49a1.38,1.38,0,0,0,.07-1.14c-.27-.54,0-1,.05-1.45s.29-.71.3-1.07-.28-.59-.3-.89a1.66,1.66,0,0,1,.29-1.44c.13-.14.65-.69,0-1.06a1.87,1.87,0,0,1,2-1.75c.71.13,1.31-.89,2-.07.07-.14.21-.3.17-.41-.09-.3-.19-.69-.42-.84-.72-.48-.61-1.16-.59-1.84s.25-1,1-1C142.62,12.45,143,12.47,143.35,12.47Zm2.41,6.8c-.25-1-1.15-1-1.85-1.28-.76.72-1.5.24-2.29,0s-1.32.18-1.35,1.16c0,.27,0,.54,0,1,.24-.19.35-.35.46-.35.5,0,1.14-.21,1.46,0s.83-.39,1,.23a.86.86,0,0,1,1.31-.1.6.6,0,0,0,.56-.05A4.91,4.91,0,0,0,145.76,19.27Z"/><path class="cls-3" d="M91.38,16.92,90.87,19a15.41,15.41,0,0,1-2.27,0c-.28,0-.62-.51-.78-.05s-.65.85-.34,1.37a.93.93,0,0,0,1,.5,2.06,2.06,0,0,1,1,0c.44.19.69-.6,1.15-.11s.18.86.23,1.29a6.87,6.87,0,0,1,0,.81c-.63,0-1.26.29-1.88-.22-.1-.08-.5.12-.68.28a.71.71,0,0,0-.14.57c.18.63.7.91,1.65,1,.39,0,.78.13,1.17.16s.78,0,1.31,0c-.08.52,0,1.13-.24,1.32a3.31,3.31,0,0,1-1.73.69c-1.45,0-1.44,0-1.92,1.29-.16.45-.55.87-.57,1.31,0,.66-.45.87-.86,1.18s-.28,1.05-1,.77c0,0-.09,0-.14.05-1.36.74-1.36.75-2.16-.55l1.49-.85c1-.58.88-1.84,1.57-2.63.19-.22-.25-.86-.61-.84a8.82,8.82,0,0,0-2.85.17c-.85.33-1.09.18-1.35-.63,0-.11,0-.24,0-.35-.21-.72-.14-.91.43-.93.92,0,1.84,0,2.76,0h1.24V22.93a3,3,0,0,0-2.9-.18c-.45.22-1.22-.25-2-.45a8.31,8.31,0,0,0,.68-.92c.19-.38,1-.12.86-.83,0,0,.36-.18.42-.13.75.69,1.66.09,2.57.47l.08-1.72a4.25,4.25,0,0,0-1.46-.36c-.47.09-.85.33-1.26-.11,0,0-.34.22-.54.29s-.56.05-.55-.37,0-.72-.5-.63v-.34c.66.12,1-1.26,1.78-.42.3-.8.77.21,1.23-.12s1-.15,1.48-.14.86-.12,1.3.2c.21.15.7-.52,1.07.07a.49.49,0,0,0,.44,0c.47-.44.87-.35,1.33,0C90.48,17.35,90.85,17.11,91.38,16.92Z"/><path class="cls-3" d="M57.11,20.92A1.71,1.71,0,0,1,59,20.05a1.06,1.06,0,0,0,.78-.15c.46-.45.68.05,1,.14.12,0,.31-.08.42-.18a.31.31,0,0,0,0-.32,8.85,8.85,0,0,1-1-1c-.4-.67-1.4-1.05-1.1-2.09-.54-.57-.08-1,.32-1.2.55-.27,1.36.07,1.37.58,0,.84.61,1.29,1,1.83.68,1,.77.92.79,2,.86-.09,1.69.23,2.59-.27.34-.18,1,.2,1.53.32-.26.51-.45.93-.69,1.33-.09.15-.35.38-.42.34-.9-.45-1.75.11-2.65.07v2.88a3.73,3.73,0,0,0,.86.51c1.4.34,1.45.35,2.22,1.23-.43.41-1.16-.14-1.55.47,0,.05-.29,0-.45-.06-.83-.11-1.22.18-1.1.9s.29,1.25.46,1.92a2.08,2.08,0,0,1,.49-.3,4,4,0,0,1,.69,0,1.71,1.71,0,0,0,.65-.08c.18-.09.28-.35.5-.06a.25.25,0,0,0,.23,0c.47-.56,1,.17,1.45-.07.21.44.42.87.6,1.31,0,0-.13.21-.23.24a4.22,4.22,0,0,1-1.06.34c-.45.06-.92,0-1.38,0s-1,.36-1.4.29-.72.63-1.13.11c0,0-.16.07-.24.11a4.23,4.23,0,0,1-1.32.7,6,6,0,0,1-1.68-.3l-.51-1.06a4.27,4.27,0,0,0,2.16-1.46c.63-.89,0-1.65-.12-2.54H59.77a4,4,0,0,1-1-1.22,2.1,2.1,0,0,1,1.38-.84c1,.07,1.06,0,1-.86,0-.42-.23-.77-.06-1.29.25-.74-.19-1-1-.69-.58.22-1.27-.25-1.76.34A.45.45,0,0,1,58.1,22C58.19,21.23,57.28,21.5,57.11,20.92Z"/><path class="cls-3" d="M68.69,21.28c.58-1.35,1.58-1.27,2.53-1.21a2,2,0,0,0,1.37-.18c-.28-.17-.57-.31-.83-.5-.07-.05,0-.24-.05-.36-.19-1-.82-1.91-.46-2.89.17-.47.81-.77,1.26-1.17a2.53,2.53,0,0,1,.73,2A3,3,0,0,0,74.1,19c.16.16.1.56-.14,1.07.84,0,1.64,0,2.42,0a3,3,0,0,1,2.42.85,2.45,2.45,0,0,0,.7.37c-.61,1.1-.61,1.09-1.8,1a.61.61,0,0,0-.47.27,1.53,1.53,0,0,0-.14.79,2.89,2.89,0,0,1-1,2.37c-.72.75-.64,1.14.3,1.62a5.21,5.21,0,0,1,2,1.63c0,.12,0,.27-.07.32-.33.29-.71.8-1,.76a4.55,4.55,0,0,1-1.57-.73,6.49,6.49,0,0,1-.79-.59c-.4-.33-.75-.33-1,.16,0,0,0,.12,0,.17s-.09.29-.11.28c-1.16-.1-1.43,1.22-2.35,1.42-.29.07-.76.33-1.07-.41s-.23-.86.2-1.24a2.32,2.32,0,0,1,.86-.43,1.75,1.75,0,0,0,1-.92,1.54,1.54,0,0,0-.4-1.33,25.92,25.92,0,0,0-2.57-1.69c.3-.92,1.26-.76,2-1a.63.63,0,0,1,.33,0c.13,1.1,1.37,1.06,1.89,1.89.58-.59,1.21-1.07,1.25-2,0-.31.24-.59.32-.9s.54-.28.15-.64-.36-.17-.64,0a1.13,1.13,0,0,1-1,0c-.43-.25-.72-.51-1.14,0-.09.11-.6,0-.77-.12-.41-.39-.87-.18-1.3-.18s-.74.33-1,.24S69,21.56,68.69,21.28Z"/><path class="cls-3" d="M155,26.2a2,2,0,0,0-1.72-2.29c-1-.19-.89-1.22-1.59-1.55A2.9,2.9,0,0,0,152,22a7.35,7.35,0,0,1,2.17-2.87,3.83,3.83,0,0,0,.42-.59c-.68-.38-1.31-.14-1.9-.2-.84-.07-1-.31-.66-1.24a2.21,2.21,0,0,0,0-.68,5.16,5.16,0,0,1,3.29.53,2.31,2.31,0,0,0,.89.33c.54,0,.7.16.67.68,0,.18.18.38.29.59L155.73,20c-.31.32-.75.56-.63,1.13,0,.09-.14.27-.26.33-.9.45-.84.38-.1,1.06a7.75,7.75,0,0,1,2,2.11,3.13,3.13,0,0,1-.29,3.49c-.32.43-.12,1-.46,1.18s-.66.31-.58.8a.32.32,0,0,1-.11.28c-1,.32-1.88,1.26-3.05.52a.78.78,0,0,0-.47-.11c-1.06.14-1.1-.87-1.5-1.41-.22-.29.09-.88-.36-1.2.5-.31.22-.83.34-1.24.07-.24.31-.57.52-.61.84-.18,1.66-.47,2.48-.66C153.81,25.52,154.45,26,155,26.2Zm-3.13,1.45.38,1.14a4.16,4.16,0,0,0,.73.38.77.77,0,0,0,1.05-.49.81.81,0,0,0-.79-1C152.88,27.62,152.49,27.65,151.9,27.65Z"/><path class="cls-3" d="M116.44,19.37c0-.4,0-.68,0-1-.08-.63.69-.26.78-.68.28.11.55.21.82.33,0,0-.09.23-.12.35-.22.9,0,1.31.92,1.29a2.82,2.82,0,0,1,2.4.84c-.37,1-1.34.81-2.07,1.1a.93.93,0,0,0-.59.79h2.55c-.47,1.75-.47,1.75-2.33,1.85.11.37.19.71.32,1s.44.59.4.85c-.07.43.41.75.18,1.15s-.83.38-1.24.3a.79.79,0,0,1-.63-1c.09-.48-.2-.74-.5-1s-.14-.65.37-1.06c-.78,0-1.29,0-1.79,0s-.81-.36-1.28,0c-.12.08-.51-.12-.72-.27a1.14,1.14,0,0,1-.5-1.41h3.43c-.09-.44-.11-1-.23-1-.7-.12-1.11-1.14-1.93-.72a1.11,1.11,0,0,1-1.47-.34A.85.85,0,0,1,113,20c.11-.26.42-.6.67-.62C114.54,19.32,115.41,19.37,116.44,19.37Z"/><path class="cls-3" d="M106,29.07a2.44,2.44,0,0,1-1.06,3,.67.67,0,0,1-.2-.13c-.4-.4-1-.74-.41-1.43-.58-.34.39-.68,0-1.09s.31-.52.36-.83,0-.56.09-.83a5.61,5.61,0,0,1,.35-1.23c.32-.67.54-.67,1.25-.22.22.14.51.17.72.32s.73.47.74.73c0,.9.75,1.42,1.11,2.12s1.17.39,1.51.15.55.08.8.08c.59,0,.46.45.4.72a1.65,1.65,0,0,1-1.37,1,3.29,3.29,0,0,1-3.11-1.21C106.85,29.93,106.54,29.67,106,29.07Zm.3-.38s-.11.08-.1.11a1.15,1.15,0,0,0,.1.23s.12-.08.11-.11A1,1,0,0,0,106.25,28.69Z"/><path class="cls-3" d="M126.5,18.81c.52.89.87,1.51.33,2.31-.19.27,0,.78,0,1.18-.12,1.23.29,2.49-.22,3.7,0,.08.11.24.15.36.14.46.27.92.43,1.37.09.25.38.56.31.71a2.87,2.87,0,0,1-.79.88c-.3.24-.71,0-.92-.48s-.56-.63-.58-1-1-.89-.13-1.43c.06,0,0-.36-.08-.44-.32-.31-.31-.54,0-.86s.22-.51-.19-.6c-.19,0-.46,0-.23-.34.59-1,.41-2.11.73-3.15.11-.38-.55-.84.16-1.21A6,6,0,0,0,126.5,18.81Z"/><path class="cls-3" d="M38.06,20.41a3.84,3.84,0,0,0,1.36,0c.46-.17.62.41,1.17.19s.95.42.93,1.06c0,.49-.4.65-.63.95-.37.51-.62.1-1-.07a7.11,7.11,0,0,0-1.39-.37c-.37-.1-.67.6-1.07.07-.29.8-.79-.27-1.21.14A4.25,4.25,0,0,1,35,23a.51.51,0,0,1-.36,0c-.56-.35-.31-.92-.35-1.4a.7.7,0,0,1,.67-.82c.67,0,1.2-.57,1.92-.38A4.88,4.88,0,0,0,38.06,20.41Z"/><path class="cls-3" d="M43.16,27.28a3.48,3.48,0,0,1-.17,1.1,1.54,1.54,0,0,1-.75.63,6.49,6.49,0,0,1-1.57.35,2.6,2.6,0,0,1-1.36,0c-.54-.25-.8.52-1.35.17a1.6,1.6,0,0,0-1.3-.1,1.25,1.25,0,0,1-1.5-.34.45.45,0,0,1,.06-.82,2.75,2.75,0,0,1,1.3-.56c.83,0,1.63-.39,2.48-.06a3.61,3.61,0,0,0,2.06-.15C41.8,27.32,42.47,27.42,43.16,27.28Z"/><path class="cls-3" d="M117.62,30.53c-1.25-.68-3-.6-3.6-2.35-.11-.31,0-1.18.16-1.18.41,0,1.07-.28,1.18.21.15.66.65.67,1,.92s.69-.14,1,.19c.14.14.55,0,.83,0s.68.12.84,0c.39-.34.8,0,1.2-.18.64-.24.71,0,.68.7s-.34.85-1,1A17.88,17.88,0,0,0,117.62,30.53Z"/><path class="cls-3" d="M56.72,27.5A2.73,2.73,0,0,1,55,29.4c-1.9,1-2.26,1.06-3.67,1a.84.84,0,0,1-.87-.8c0-.24-.11-.61.35-.59s1-.36,1.46-.61a2.22,2.22,0,0,1,1-.4c.83.1,1.23-.4,1.64-.94s.63-.62,1.09-.24C56.31,27.05,56.53,27.31,56.72,27.5Z"/><path class="cls-3" d="M129.16,21a9.34,9.34,0,0,1,1-.95,1.63,1.63,0,0,1,.9-.29c.3,0,.59.26.9.3s.46-.23.67-.2c.36.05.92.13,1,.36.3.72,1.15.79,1.47,1.43a.65.65,0,0,1-.46.85c-.32.05-.64.13-.95.2l-.25,0c.07-.86-.7-.47-1.06-.7a5,5,0,0,0-1.17-.49c-.31-.08-.55.55-1,.09A4.5,4.5,0,0,0,129.16,21Z"/><path class="cls-3" d="M54.43,22.3A3.14,3.14,0,0,0,52.58,20c-.59-.28-1-.94-1.58-1.52.47-.25.81-.42,1.13-.61a1.42,1.42,0,0,0,.25-.24c.28.7,1.09.57,1.58,1,.65.56.87,1.53,1.85,1.81.39.11.35.71,0,1A10.74,10.74,0,0,1,54.43,22.3Z"/><path class="cls-3" d="M135.9,27c-.18.57-.3,1-.48,1.45,0,.11-.25.2-.39.22-.8.13-1.61.23-2.42.35-.21,0-.41.1-.62.16a1.33,1.33,0,0,1-1.39-.53c-.11-.17-.34-.45-.29-.51a6.67,6.67,0,0,1,.84-.84s.11,0,.16,0C132.78,27.57,134.16,26.79,135.9,27Z"/><path class="cls-3" d="M45.31,17.3c.4,0,.68,0,1,0s.38.1.4.19c.24,1.28,1.16,2.43.61,3.83-1.35,0-1.94-.47-2-1.79C45.29,18.85,45.31,18.16,45.31,17.3Z"/><path class="cls-3" d="M55,25.57c-2.72.07-2,.31-4.22-.89.13-.28.26-.57.41-.85,0-.09.23-.24.25-.22.66.5,1.43.11,2.12.26a2.82,2.82,0,0,1,1.32.47C55.08,24.52,55,25.07,55,25.57Z"/><path class="cls-3" d="M45,21.75H43.33c-.07-.77-.58-1.41-.47-2.22,0-.22-.33-.56-.26-.69a2.81,2.81,0,0,1,.85-.83c.09-.06.39.12.56.24.46.33.11.88.29,1.25s.87.21.68.9A5.88,5.88,0,0,0,45,21.75Z"/><path class="cls-3" d="M102.23,29.16a1.79,1.79,0,0,1-1.67,1.42.62.62,0,0,1-.36,0c-.38-.25-.29-1-1-.94.14-.38-.64-.64-.12-1.1.06-.06-.58-.55-.16-.76a1.48,1.48,0,0,1,1.23.09c.47.26.75.81,1.33.95A3.17,3.17,0,0,1,102.23,29.16Z"/></g></svg>