<svg xmlns="http://www.w3.org/2000/svg" viewBox="0 0 196.51 45.65"><defs><style>.cls-1{fill:none;stroke:#231815;stroke-linecap:round;stroke-linejoin:round;stroke-width:5px;}.cls-2{fill:#fff;}.cls-3{fill:#231815;}</style></defs><g id="レイヤー_1" data-name="レイヤー 1"><path class="cls-1" d="M195.59,40.14c.22-.28,0-.79,0-1.19s.24-.73.3-1.1c.08-.52.32-1.14.1-1.55a7.61,7.61,0,0,1-.45-1.66c-.16-.5.66-.75.16-1.36-.32-.4-.05-1.16-.13-1.76-.06-.37.87-.72,0-1.08.73-.23-.08-.7.2-1s-.73-.95.18-1.45c.4-.22-.7-.95.07-1.43-.19-1,.4-2-.33-2.91a.68.68,0,0,1-.07-.54,6.1,6.1,0,0,0,0-4c.53-.38-.16-.8,0-1,.3-.49-.09-1.08,0-1.27.51-.76.09-1.64.45-2.27.51-.87-.11-1.56-.07-2.32,0-.61-.23-1.34.06-1.8.43-.67-.11-1.15-.07-1.71a8.76,8.76,0,0,0,0-2.23,7,7,0,0,1-.18-1.83c0-.61-.68-1.27.18-1.81-.74-.41-.2-1.14-.5-1.63-.2-.31-.64-.86-1.05-.54-1.14.9-2.45-.26-3.56.37-.33-.62-1.17.28-1.48-.4-.6.72-1.24.4-1.88,0-1.4.74-2.93.19-4.39.34-.6.06-1.43-.21-1.77.05-.64.51-1-.23-1.48,0a3.49,3.49,0,0,1-2.83,0c-.14-.05-.39.11-.59.16s-.66.24-.75.15c-.65-.59-1.43-.27-2.14-.31-1.06-.05-2.13.06-3.19,0a5.77,5.77,0,0,0-3,.19c-.24.09-.63.24-.76.15-.87-.65-1.88-.2-2.82-.31-.58-.07-1.3.1-1.75-.14a1.52,1.52,0,0,0-1.59,0c-.42.19-.92-.63-1.44,0A1.16,1.16,0,0,1,158,1a2,2,0,0,0-2.21,0,1.75,1.75,0,0,1-1.47,0c-.58-.42-1.15-.25-1.71-.27a32.31,32.31,0,0,0-3.41,0c-.41,0-.44-.53-1.09-.21-1.47.75-3.13-.06-4.74,0-1.8.08-1.81-.25-3.53.11-.38.08-1,0-1.19-.21-.48-.65-1.14-.06-1.37-.19-.7-.4-1-.09-1.4.27-.14.13-.51.11-.75.07s-.81-.36-1-.25a3.82,3.82,0,0,1-2.34.36c-.71,0-1.42-.4-2.13,0-1-.59-2.33.57-3.3-.4-.94.92-1.87,0-2.81,0-.43,0-.85.13-1.28.18-.65.08-1.3.13-1.94.23s-1.4.27-2.09.39a.57.57,0,0,1-.41-.09c-.28-.24-.67-.54-.92-.18-.39.58-.61-.23-1,0a4.39,4.39,0,0,1-3,.19c-2-.33-2-.4-3.75.07a4.46,4.46,0,0,1-2.06.35c-.72-.2-1.15.73-2,.12-.44-.32-2,.67-2,1.17a10.35,10.35,0,0,1-.44,2.87,1.75,1.75,0,0,0,.36,1.83c-.64.51-.61,1,0,1.53-1,.38.19,1-.23,1.58s-.16,1.15-.17,1.74a6.8,6.8,0,0,1-.42,1.94c1.16.72-.53,1.38,0,2.08-.54.42-.24,1-.15,1.42s-.57.78.15,1c-.76.51-.32,1.24-.45,1.86s-.35,1.37-.44,2.06a6.17,6.17,0,0,0,0,1.82c.11.58-.67,1.07-.14,1.65-.69.55.31.93.2,1.54a9.52,9.52,0,0,0-.31,2.61c0,.37.22,1,.08,1.07-1,.44.37.95-.14,1.49a1.1,1.1,0,0,0,.18,1.62.47.47,0,0,1,0,.52c-.68.56-.3,1.27-.36,1.9-.18,2,.34,3.93-.34,5.86.75.39-.31.57-.13.93s.27.85.48,1.23c.1.18.41.25.63.37.56-.86,1.11-.15,1.67,0,.29.08.79.26.83.2.47-.74,1.2.67,1.61-.18.67.08,1.45.39,2,.19a4.59,4.59,0,0,1,2-.18c1,0,2.06-.32,3,.33,2.41-.82,4.91-.15,7.35-.34a5.2,5.2,0,0,1,1.93.23c.53.18.35-.12.48-.29s.41-.24.63-.36c.4,1,1.45-.36,1.93.41a16,16,0,0,1,2.55-.38c.92,0,1.91.48,2.74.29.54-.12.84.08,1.24.07s1.17-.32,1.28-.19c.54.69,1-.34,1.47,0a1.08,1.08,0,0,0,1.55-.19c.28.6.76,0,1.13.15,1,.48,2,.17,3.05.18.25-.66.94.37,1.36-.3.15-.23,1.15,0,1.74-.07s.85.57,1.49.07a2.27,2.27,0,0,1,1.76,0,10,10,0,0,0,3.47.38c1.68.1,3.41-.31,5.06.38a2.28,2.28,0,0,0,1.09-.06,7.68,7.68,0,0,1,1.21-.31c2,0,3.95-.1,5.92,0s3.88-.47,5.73.37a.41.41,0,0,0,.38-.12c.47-.71,1,.18,1.43-.05a1.2,1.2,0,0,1,1.58.1.65.65,0,0,0,.58,0c.4-.49,1-.28,1.46-.31,1.81-.12,3.66.27,5.44-.29.5.53,1.27-.62,1.83.26.12.2,1.12.2,1.51,0a5.28,5.28,0,0,1,3.24-.33c1.26.14,2.48-.77,3.72,0,.38-1,1.15.07,1.8-.25a4.86,4.86,0,0,1,2.42-.13,2.44,2.44,0,0,0,2.39-1.11C195.32,42.48,194.53,41.55,195.59,40.14Z"/><path class="cls-1" d="M1.06,40.14c-.25-.28,0-.79-.06-1.19s-.27-.73-.34-1.1C.57,37.33.29,36.71.55,36.3a7.33,7.33,0,0,0,.51-1.66c.18-.5-.76-.75-.19-1.36.38-.4.06-1.16.16-1.76.06-.37-1-.72,0-1.08-.84-.23.09-.7-.22-1S1.61,28.48.56,28c-.46-.22.81-.95-.07-1.43.21-1-.47-2,.38-2.91A.64.64,0,0,0,1,23.1a5.36,5.36,0,0,1,0-4c-.61-.38.19-.8,0-1-.34-.49.11-1.08,0-1.27-.58-.76-.1-1.64-.51-2.27-.58-.87.13-1.56.08-2.32,0-.61.26-1.34-.08-1.8-.49-.67.14-1.15.09-1.71a7.25,7.25,0,0,1,0-2.23A6,6,0,0,0,.73,4.67c0-.61.78-1.27-.21-1.81.85-.41.23-1.14.58-1.63C1.32.92,1.83.37,2.3.69c1.31.9,2.82-.26,4.09.37.38-.62,1.34.28,1.69-.4.7.72,1.43.4,2.16,0,1.61.74,3.36.19,5,.34.69.06,1.64-.21,2,.05.74.51,1.2-.23,1.71,0a4.52,4.52,0,0,0,3.24,0c.17-.05.45.11.68.16s.76.24.86.15c.74-.59,1.64-.27,2.46-.31,1.21-.05,2.45.06,3.65,0a7.6,7.6,0,0,1,3.49.19c.28.09.73.24.87.15,1-.65,2.16-.2,3.23-.31a7.47,7.47,0,0,0,2-.14,2,2,0,0,1,1.83,0c.48.19,1.06-.63,1.66,0A1.51,1.51,0,0,0,44.17,1a2.61,2.61,0,0,1,2.54,0,2.26,2.26,0,0,0,1.68,0,3.38,3.38,0,0,1,2-.27c1.31,0,2.62-.07,3.92,0,.47,0,.5-.53,1.24-.21,1.7.75,3.6-.06,5.45,0C63,.56,63,.23,65,.59A1.94,1.94,0,0,0,66.38.38C66.92-.27,67.69.32,68,.19c.8-.4,1.12-.09,1.6.27a1.45,1.45,0,0,0,.87.07c.4-.05.93-.36,1.13-.25a4.93,4.93,0,0,0,2.68.36c.82,0,1.63-.4,2.44,0,1.18-.59,2.68.57,3.79-.4,1.08.92,2.15,0,3.23,0,.49,0,1,.13,1.47.18.74.08,1.49.13,2.23.23s1.6.27,2.4.39A.71.71,0,0,0,90.25,1c.32-.24.77-.54,1-.18.46.58.71-.23,1.17,0A5.71,5.71,0,0,0,95.94,1c2.33-.33,2.3-.4,4.31.07a5.8,5.8,0,0,0,2.36.35c.83-.2,1.33.73,2.27.12.5-.32,2.26.67,2.24,1.17a8.85,8.85,0,0,0,.51,2.87,1.6,1.6,0,0,1-.42,1.83c.73.51.7,1,0,1.53,1.17.38-.21,1,.27,1.58s.19,1.15.19,1.74a6.57,6.57,0,0,0,.48,1.94c-1.32.72.61,1.38.07,2.08.61.42.27,1,.17,1.42s.65.78-.17,1c.87.51.37,1.24.51,1.86s.41,1.37.5,2.06a5.06,5.06,0,0,1,0,1.82c-.12.58.77,1.07.17,1.65.79.55-.36.93-.24,1.54a8,8,0,0,1,.36,2.61c0,.37-.25,1-.09,1.07,1.11.44-.42.95.16,1.49a1,1,0,0,1-.21,1.62.44.44,0,0,0,0,.52c.79.56.35,1.27.41,1.9.21,2-.38,3.93.4,5.86-.87.39.35.57.15.93s-.31.85-.56,1.23c-.11.18-.47.25-.72.37-.64-.86-1.28-.15-1.92,0a3.68,3.68,0,0,1-1,.2c-.54-.74-1.38.67-1.85-.18a6.54,6.54,0,0,1-2.27.19,6,6,0,0,0-2.25-.18c-1.14,0-2.37-.32-3.41.33-2.77-.82-5.63-.15-8.44-.34a6.85,6.85,0,0,0-2.22.23c-.6.18-.39-.12-.54-.29a2.42,2.42,0,0,0-.72-.36c-.46,1-1.68-.36-2.23.41a20.71,20.71,0,0,0-2.91-.38c-1.07,0-2.2.48-3.16.29a5.74,5.74,0,0,0-1.42.07c-.51,0-1.34-.32-1.47-.19-.62.69-1.14-.34-1.69,0a1.37,1.37,0,0,1-1.78-.19c-.32.6-.87,0-1.29.15-1.13.48-2.33.17-3.5.18-.29-.66-1.08.37-1.57-.3-.17-.23-1.31,0-2-.07s-1,.57-1.71.07a3,3,0,0,0-2,0,13.07,13.07,0,0,1-4,.38c-1.94.1-3.92-.31-5.81.38a3,3,0,0,1-1.25-.06,10.23,10.23,0,0,0-1.39-.31c-2.27,0-4.54-.1-6.79,0s-4.46-.47-6.59.37a.54.54,0,0,1-.44-.12c-.53-.71-1.15.18-1.63-.05a1.53,1.53,0,0,0-1.81.1.86.86,0,0,1-.67,0c-.46-.49-1.1-.28-1.68-.31-2.08-.12-4.2.27-6.25-.29-.57.53-1.46-.62-2.09.26a2.48,2.48,0,0,1-1.73,0,6.94,6.94,0,0,0-3.73-.33c-1.45.14-2.85-.77-4.27,0-.44-1-1.32.07-2.06-.25a6.38,6.38,0,0,0-2.78-.13A3,3,0,0,1,0,43.32C1.37,42.48,2.28,41.55,1.06,40.14Z"/><path class="cls-2" d="M195.59,40.14c.22-.28,0-.79,0-1.19s.24-.73.3-1.1c.08-.52.32-1.14.1-1.55a7.61,7.61,0,0,1-.45-1.66c-.16-.5.66-.75.16-1.36-.32-.4-.05-1.16-.13-1.76-.06-.37.87-.72,0-1.08.73-.23-.08-.7.2-1s-.73-.95.18-1.45c.4-.22-.7-.95.07-1.43-.19-1,.4-2-.33-2.91a.68.68,0,0,1-.07-.54,6.1,6.1,0,0,0,0-4c.53-.38-.16-.8,0-1,.3-.49-.09-1.08,0-1.27.51-.76.09-1.64.45-2.27.51-.87-.11-1.56-.07-2.32,0-.61-.23-1.34.06-1.8.43-.67-.11-1.15-.07-1.71a8.76,8.76,0,0,0,0-2.23,7,7,0,0,1-.18-1.83c0-.61-.68-1.27.18-1.81-.74-.41-.2-1.14-.5-1.63-.2-.31-.64-.86-1.05-.54-1.14.9-2.45-.26-3.56.37-.33-.62-1.17.28-1.48-.4-.6.72-1.24.4-1.88,0-1.4.74-2.93.19-4.39.34-.6.06-1.43-.21-1.77.05-.64.51-1-.23-1.48,0a3.49,3.49,0,0,1-2.83,0c-.14-.05-.39.11-.59.16s-.66.24-.75.15c-.65-.59-1.43-.27-2.14-.31-1.06-.05-2.13.06-3.19,0a5.77,5.77,0,0,0-3,.19c-.24.09-.63.24-.76.15-.87-.65-1.88-.2-2.82-.31-.58-.07-1.3.1-1.75-.14a1.52,1.52,0,0,0-1.59,0c-.42.19-.92-.63-1.44,0A1.16,1.16,0,0,1,158,1a2,2,0,0,0-2.21,0,1.75,1.75,0,0,1-1.47,0c-.58-.42-1.15-.25-1.71-.27a32.31,32.31,0,0,0-3.41,0c-.41,0-.44-.53-1.09-.21-1.47.75-3.13-.06-4.74,0-1.8.08-1.81-.25-3.53.11-.38.08-1,0-1.19-.21-.48-.65-1.14-.06-1.37-.19-.7-.4-1-.09-1.4.27-.14.13-.51.11-.75.07s-.81-.36-1-.25a3.82,3.82,0,0,1-2.34.36c-.71,0-1.42-.4-2.13,0-1-.59-2.33.57-3.3-.4-.94.92-1.87,0-2.81,0-.43,0-.85.13-1.28.18-.65.08-1.3.13-1.94.23s-1.4.27-2.09.39a.57.57,0,0,1-.41-.09c-.28-.24-.67-.54-.92-.18-.39.58-.61-.23-1,0a4.39,4.39,0,0,1-3,.19c-2-.33-2-.4-3.75.07a4.46,4.46,0,0,1-2.06.35c-.72-.2-1.15.73-2,.12-.44-.32-2,.67-2,1.17a10.35,10.35,0,0,1-.44,2.87,1.75,1.75,0,0,0,.36,1.83c-.64.51-.61,1,0,1.53-1,.38.19,1-.23,1.58s-.16,1.15-.17,1.74a6.8,6.8,0,0,1-.42,1.94c1.16.72-.53,1.38,0,2.08-.54.42-.24,1-.15,1.42s-.57.78.15,1c-.76.51-.32,1.24-.45,1.86s-.35,1.37-.44,2.06a6.17,6.17,0,0,0,0,1.82c.11.58-.67,1.07-.14,1.65-.69.55.31.93.2,1.54a9.52,9.52,0,0,0-.31,2.61c0,.37.22,1,.08,1.07-1,.44.37.95-.14,1.49a1.1,1.1,0,0,0,.18,1.62.47.47,0,0,1,0,.52c-.68.56-.3,1.27-.36,1.9-.18,2,.34,3.93-.34,5.86.75.39-.31.57-.13.93s.27.85.48,1.23c.1.18.41.25.63.37.56-.86,1.11-.15,1.67,0,.29.08.79.26.83.2.47-.74,1.2.67,1.61-.18.67.08,1.45.39,2,.19a4.59,4.59,0,0,1,2-.18c1,0,2.06-.32,3,.33,2.41-.82,4.91-.15,7.35-.34a5.2,5.2,0,0,1,1.93.23c.53.18.35-.12.48-.29s.41-.24.63-.36c.4,1,1.45-.36,1.93.41a16,16,0,0,1,2.55-.38c.92,0,1.91.48,2.74.29.54-.12.84.08,1.24.07s1.17-.32,1.28-.19c.54.69,1-.34,1.47,0a1.08,1.08,0,0,0,1.55-.19c.28.6.76,0,1.13.15,1,.48,2,.17,3.05.18.25-.66.94.37,1.36-.3.15-.23,1.15,0,1.74-.07s.85.57,1.49.07a2.27,2.27,0,0,1,1.76,0,10,10,0,0,0,3.47.38c1.68.1,3.41-.31,5.06.38a2.28,2.28,0,0,0,1.09-.06,7.68,7.68,0,0,1,1.21-.31c2,0,3.95-.1,5.92,0s3.88-.47,5.73.37a.41.41,0,0,0,.38-.12c.47-.71,1,.18,1.43-.05a1.2,1.2,0,0,1,1.58.1.65.65,0,0,0,.58,0c.4-.49,1-.28,1.46-.31,1.81-.12,3.66.27,5.44-.29.5.53,1.27-.62,1.83.26.12.2,1.12.2,1.51,0a5.28,5.28,0,0,1,3.24-.33c1.26.14,2.48-.77,3.72,0,.38-1,1.15.07,1.8-.25a4.86,4.86,0,0,1,2.42-.13,2.44,2.44,0,0,0,2.39-1.11C195.32,42.48,194.53,41.55,195.59,40.14Z"/><path class="cls-2" d="M1.06,40.14c-.25-.28,0-.79-.06-1.19s-.27-.73-.34-1.1C.57,37.33.29,36.71.55,36.3a7.33,7.33,0,0,0,.51-1.66c.18-.5-.76-.75-.19-1.36.38-.4.06-1.16.16-1.76.06-.37-1-.72,0-1.08-.84-.23.09-.7-.22-1S1.61,28.48.56,28c-.46-.22.81-.95-.07-1.43.21-1-.47-2,.38-2.91A.64.64,0,0,0,1,23.1a5.36,5.36,0,0,1,0-4c-.61-.38.19-.8,0-1-.34-.49.11-1.08,0-1.27-.58-.76-.1-1.64-.51-2.27-.58-.87.13-1.56.08-2.32,0-.61.26-1.34-.08-1.8-.49-.67.14-1.15.09-1.71a7.25,7.25,0,0,1,0-2.23A6,6,0,0,0,.73,4.67c0-.61.78-1.27-.21-1.81.85-.41.23-1.14.58-1.63C1.32.92,1.83.37,2.3.69c1.31.9,2.82-.26,4.09.37.38-.62,1.34.28,1.69-.4.7.72,1.43.4,2.16,0,1.61.74,3.36.19,5,.34.69.06,1.64-.21,2,.05.74.51,1.2-.23,1.71,0a4.52,4.52,0,0,0,3.24,0c.17-.05.45.11.68.16s.76.24.86.15c.74-.59,1.64-.27,2.46-.31,1.21-.05,2.45.06,3.65,0a7.6,7.6,0,0,1,3.49.19c.28.09.73.24.87.15,1-.65,2.16-.2,3.23-.31a7.47,7.47,0,0,0,2-.14,2,2,0,0,1,1.83,0c.48.19,1.06-.63,1.66,0A1.51,1.51,0,0,0,44.17,1a2.61,2.61,0,0,1,2.54,0,2.26,2.26,0,0,0,1.68,0,3.38,3.38,0,0,1,2-.27c1.31,0,2.62-.07,3.92,0,.47,0,.5-.53,1.24-.21,1.7.75,3.6-.06,5.45,0C63,.56,63,.23,65,.59A1.94,1.94,0,0,0,66.38.38C66.92-.27,67.69.32,68,.19c.8-.4,1.12-.09,1.6.27a1.45,1.45,0,0,0,.87.07c.4-.05.93-.36,1.13-.25a4.93,4.93,0,0,0,2.68.36c.82,0,1.63-.4,2.44,0,1.18-.59,2.68.57,3.79-.4,1.08.92,2.15,0,3.23,0,.49,0,1,.13,1.47.18.74.08,1.49.13,2.23.23s1.6.27,2.4.39A.71.71,0,0,0,90.25,1c.32-.24.77-.54,1-.18.46.58.71-.23,1.17,0A5.71,5.71,0,0,0,95.94,1c2.33-.33,2.3-.4,4.31.07a5.8,5.8,0,0,0,2.36.35c.83-.2,1.33.73,2.27.12.5-.32,2.26.67,2.24,1.17a8.85,8.85,0,0,0,.51,2.87,1.6,1.6,0,0,1-.42,1.83c.73.51.7,1,0,1.53,1.17.38-.21,1,.27,1.58s.19,1.15.19,1.74a6.57,6.57,0,0,0,.48,1.94c-1.32.72.61,1.38.07,2.08.61.42.27,1,.17,1.42s.65.78-.17,1c.87.51.37,1.24.51,1.86s.41,1.37.5,2.06a5.06,5.06,0,0,1,0,1.82c-.12.58.77,1.07.17,1.65.79.55-.36.93-.24,1.54a8,8,0,0,1,.36,2.61c0,.37-.25,1-.09,1.07,1.11.44-.42.95.16,1.49a1,1,0,0,1-.21,1.62.44.44,0,0,0,0,.52c.79.56.35,1.27.41,1.9.21,2-.38,3.93.4,5.86-.87.39.35.57.15.93s-.31.85-.56,1.23c-.11.18-.47.25-.72.37-.64-.86-1.28-.15-1.92,0a3.68,3.68,0,0,1-1,.2c-.54-.74-1.38.67-1.85-.18a6.54,6.54,0,0,1-2.27.19,6,6,0,0,0-2.25-.18c-1.14,0-2.37-.32-3.41.33-2.77-.82-5.63-.15-8.44-.34a6.85,6.85,0,0,0-2.22.23c-.6.18-.39-.12-.54-.29a2.42,2.42,0,0,0-.72-.36c-.46,1-1.68-.36-2.23.41a20.71,20.71,0,0,0-2.91-.38c-1.07,0-2.2.48-3.16.29a5.74,5.74,0,0,0-1.42.07c-.51,0-1.34-.32-1.47-.19-.62.69-1.14-.34-1.69,0a1.37,1.37,0,0,1-1.78-.19c-.32.6-.87,0-1.29.15-1.13.48-2.33.17-3.5.18-.29-.66-1.08.37-1.57-.3-.17-.23-1.31,0-2-.07s-1,.57-1.71.07a3,3,0,0,0-2,0,13.07,13.07,0,0,1-4,.38c-1.94.1-3.92-.31-5.81.38a3,3,0,0,1-1.25-.06,10.23,10.23,0,0,0-1.39-.31c-2.27,0-4.54-.1-6.79,0s-4.46-.47-6.59.37a.54.54,0,0,1-.44-.12c-.53-.71-1.15.18-1.63-.05a1.53,1.53,0,0,0-1.81.1.86.86,0,0,1-.67,0c-.46-.49-1.1-.28-1.68-.31-2.08-.12-4.2.27-6.25-.29-.57.53-1.46-.62-2.09.26a2.48,2.48,0,0,1-1.73,0,6.94,6.94,0,0,0-3.73-.33c-1.45.14-2.85-.77-4.27,0-.44-1-1.32.07-2.06-.25a6.38,6.38,0,0,0-2.78-.13A3,3,0,0,1,0,43.32C1.37,42.48,2.28,41.55,1.06,40.14Z"/></g><g id="レイヤー_2" data-name="レイヤー 2"><path class="cls-3" d="M78.5,24.18A21.25,21.25,0,0,0,80.74,24c.5-.1,1.31.55,1.47-.53,0,0,.21-.05.23,0,.36.53,1.45.53,1.12,1.58-.1.33,0,.36-.72.56a2.52,2.52,0,0,1-1.74.2c-.31-.12-.8.2-1.21.33-.16.05-.38.19-.48.13-.37-.24-.77-.33-1,.06-.08.12.3.52.46.8.42.69.26,1.24-.45,1.52-.4.16-1.75-.3-1.76-.66a7.87,7.87,0,0,0-.33-2.45c-.14-.41.59-.9,0-1.39.55-.46,0-1.18.31-1.59A2.6,2.6,0,0,0,77,20.72c0-.56.9-1,.12-1.66a.27.27,0,0,1,0-.22c.35-.26.78-.75,1.07-.68,1.2.28,1.32-1.15,2.23-1.29.15,0,.31-.44.34-.68.14-1.5.27-3,.34-4.51a5.58,5.58,0,0,1,.32-1.07c.1-.38.07-.84.47-1,.23-.08.56.14.84.22a4,4,0,0,0,.47.06c-.16.73.24,1.46-.32,2.22a1.48,1.48,0,0,0,0,1.33c.32.54-.67.81-.15,1.35.11.11-.48.68.06,1.07.06.05-.72.55,0,.85s.86-.4,1-.77c.26-.69.93-1.23.82-2.07.61-.43,1.22-.86,1.84-1.28.35-.24.74-.43,1.17-.69.37,1.11-.35,1.91-.85,2.75-.06.11-.4.11-.41.18-.15,1.05-1,1.51-1.74,2,.72.72.75,1.87,1.65,2.43,0,0-.13.17-.11.23.13.43-.29,1-.14,1.16.69.51.05.88,0,1.3s.49.79.08,1.23c.78.31-.42,1,.25,1.32-.76.3-.08.8-.12,1.2s-.22.7,0,1.1c.47.77-.24,1.45-.31,2.19a1.78,1.78,0,0,1-1.09.11.76.76,0,0,1-.55-.93c.09-.31.27-.59.33-.9a3.55,3.55,0,0,0,0-1c0-.28-.29-.73-.2-.81.48-.41-.13-.56-.17-.82-.13-.78.32-1.49.13-2.28-.11-.48,0-.57-.3-.38a1.62,1.62,0,0,1-2,0c-.24-.16-.69-.37-.81-.28-.66.56-1.48-.08-2.1.35-.35.24-1.27.27-.46,1.1C78.82,23.29,78.56,23.88,78.5,24.18Zm5.55-3A1.58,1.58,0,0,0,84,19.12a2.93,2.93,0,0,0-3.22-.43,1.94,1.94,0,0,1-1.37.47c-.12,0-.23.17-.35.26.13.14.31.42.37.39.43-.18.85.62,1.27,0a10.59,10.59,0,0,0,1.57.39C82.89,20.37,83.83,20.22,84.05,21.21Z"/><path class="cls-3" d="M142.93,25.37a3.75,3.75,0,0,1-.33.75c-.28.38-.49,1-1.15.36-.11-.1-.57.23-.79.15s-.2-.53-.4-.66a5,5,0,0,0-1.16-.5c-.64-.24-.66-.17-1,.51s-.82,1.49-1.85,1.44c-.23,0-.53-.09-.67,0a1.11,1.11,0,0,1-1.21.22,5.41,5.41,0,0,1-1.68-1.35.42.42,0,0,1-.1-.3,9.76,9.76,0,0,1,.43-2.24c.16-.38.78-.55,1.14-.88s.4-.31.63,0c0,.06.21.05.32.05.41,0,.47-1.08,1.12-.36,0,0,.11-.08.12-.13s0-.33,0-.5V20.2a1.9,1.9,0,0,1-.65.31,6.19,6.19,0,0,1-1.72,0c-.45-.1-.83.65-1.26,0-.67.45-1-.12-1.44-.44s.54-.74-.05-1.08c.17-.07.35-.22.5-.2a21.49,21.49,0,0,1,2.15-.08,5.51,5.51,0,0,0,2.09-.45,1.61,1.61,0,0,0-.4-1.74,1.88,1.88,0,0,0-1.66-.51,1.11,1.11,0,0,1-.68,0,2.71,2.71,0,0,1-.55-.61c.52-.05-.51-.71.38-.8.69-.07.67-.35,1.64-.27.51,0,.7-.3,1-.55.89-.8,1.3-.69,1.7.48a3.19,3.19,0,0,1,0,.85c.92-.54,1.69.5,2.54-.06.31.3.62.59.91.91,0,0,0,.22-.06.31a1.9,1.9,0,0,1-1.79.52,1.9,1.9,0,0,0-.93.15c-.09,0-.16.31-.14.47a2,2,0,0,0,.25.92c.2.26.39.68.95.34.26-.16.77.16,1.14.09a3.61,3.61,0,0,0,1-.53.29.29,0,0,1,.24,0,.88.88,0,0,1,.39,1c-.08.3-.32.82-.44.81-1-.1-1.89.7-2.91.36-.1,0-.16-.16-.36-.35a6.62,6.62,0,0,0-.07,1c0,.37.45.72,0,1.12,0,0,.26.33.3.53s-.2.24-.31.36l.63.16c.05,0,.13,0,.17,0A22.62,22.62,0,0,0,142.93,25.37ZM137,25a6.4,6.4,0,0,0-.9-.69c-.27-.13-.59.62-.9,0-.17.21-.35.41-.51.63s0,.23-.09.3-.35.31,0,.48.51.31.68.24A19.57,19.57,0,0,0,137,25Z"/><path class="cls-3" d="M151.15,22.42c-.69,1-1.66,1.39-2,2.38,0,.12-.36.16-.56.2s-.88-.2-.81.52c0,.05-.2.19-.25.17a13.54,13.54,0,0,1-2.77-1.22c-.35-.25-.4-1.1-.37-1.67,0-.25.32-.46,0-.77-.06-.06.19-.46.31-.7s.22-.61.41-.67a3.81,3.81,0,0,0,1.55-1.25c.31-.34.43-.13.62.07.08-.19.15-.38.25-.57a.33.33,0,0,1,.23,0,1.33,1.33,0,0,0,1.41.06.45.45,0,0,1,.36,0c.51.26.45.26.54-.18.19-.94-.51-1.77-.13-2.66-.8-.22-1.53.11-2.07-.45-.79.73-1.75-.54-2.58.21-.11.1-.68-.17-.9-.4s0-.54.08-.78c.44-1,1.5-.62,2.24-1,.56.59,1.49-.16,2,.56,0,0,.33-.05.42-.16s.12-.45.27-.56c.33-.25-.19-1,.35-.87a3,3,0,0,1,1.78.87c.7.91.69,1.06,1.65,1.07h1.56a3.09,3.09,0,0,1,2,.5,8.6,8.6,0,0,1-.45.85.91.91,0,0,1-.53.35c-.63.05-1.36-.18-1.88.07-.67.31-1.06-.14-1.57-.22s-.62.13-.54.49a4.31,4.31,0,0,1-.11,2.9.94.94,0,0,0,.39,1.17c1,.65.95,1.8,1.27,2.76.14.41-.12,1.05.11,1.31s-.38.84.25,1a4.63,4.63,0,0,1-1.09,2.81c-.28.31-.69.06-1-.31-.79-.94,0-1.76.16-2.6,0-.25.28-.41.07-.72A7.14,7.14,0,0,1,151.15,22.42Zm-5.08.33a.83.83,0,0,0,.25.18c.55.21,1.11.61,1.7.28a2.27,2.27,0,0,0,1.18-1.35c.19-.64,0-1.15-.55-1C147.62,21.24,146.26,21.23,146.07,22.75Z"/><path class="cls-3" d="M111.26,17.71l.82,2.46c.2-.05.55-.11.88-.22,1-.32,1.72.13,1.68,1.05,0,.29,0,.54-.41.58a8.69,8.69,0,0,0-1.07.32c-.88.18-1.09.38-.75,1.35.15.44-.4.51-.19.82s.45.45,0,.78c-.14.11,0,.55,0,.83a1.2,1.2,0,0,1-.33.91c-.28.35-.78.67-1.17.47s-.69-.44-.57-.92c.07-.3.28-.59.32-.89s.14-.81-.3-1.08c.32-.25.25-.45,0-.75a2.31,2.31,0,0,1-.27-.91c-.11-.4-.26-.6-.44-.61a5,5,0,0,1-2.28-.32c-.51-.26-.72-.74-.26-1.07a6.77,6.77,0,0,1,1.41-.59c.34.53.9-.59,1.2.16l.28-.37c-.54-.31,0-.63,0-.92s-.31-.55,0-.95-.27-.58-.46-.39c-.36.38-.49.17-.76-.06-.49-.39-.49-.33-1.18.2a3.4,3.4,0,0,1-1.17.5.59.59,0,0,1-.52-.23,1.45,1.45,0,0,1-.28-.9c.06-.23.43-.38.67-.57a15.36,15.36,0,0,0,1.14-2.07c0-.11,0-.23,0-.34.66.11.75-.19.9-.81s.82-.86,1.29-1.25a4.3,4.3,0,0,1,.71-.36c.61-.34,1.21-.94,1.82-1s1.1.6,1.63,1a1.85,1.85,0,0,1,.68.65c.28.66,1,.84,1.36,1.32s.52,1.19,1.05,1.61c.25.2.54.37.81.55.66.44.8.87.44,1.36a1.16,1.16,0,0,1-1.63.1,7.87,7.87,0,0,0-1.76-1.5,10.51,10.51,0,0,1-1.39-1.95,1.74,1.74,0,0,0-2.58-.3c-.47.4-.8.95-1.32,1.32-.16.12-.16.53-.11.78,0,.1.37.18.58.18a1.69,1.69,0,0,0,.77-.19c.39-.22.3.07.35.25s.09.26.15.27c.4,0,.8,0,1.2,0a.85.85,0,0,1,.89.35c.35-.34.54.67,1,.1.12-.14.59.42.67.67.19.64,0,1-.66.95-.34,0-.82.13-1-.05C112.51,17.53,111.89,17.92,111.26,17.71Z"/><path class="cls-3" d="M47.84,19.19c1,4.76.87,5.09.69,5.43-.37.67-.37.67-1.57,1.21-.19.09-.45.11-.57.25-.83.92-1.61.31-2.39,0-.25-.1-.48-.32-.72-.33-.65,0-.45-.19-.19-.54.07-.1-.19-.45-.31-.69-.31-.65-.59-1.31,0-1.95.26-.29,0-.78.11-.85.32-.27,1.07.07,1-.75,1,.07,1.94-.83,2.88-.29.53.31.69-.1.72-.24a2.2,2.2,0,0,0,0-1.14c-.07-.24-.49-.39-.56-.63s.27-.46.29-.7c0-.42-.71-1.11-1.19-1.19-.61.84-1.55-.64-2.2.32-.1.16-.66.07-1,0s-.73-.4-1.11,0c0,0-.31-.17-.3-.21a3.3,3.3,0,0,1,.37-1,1.3,1.3,0,0,1,.69-.38,5.63,5.63,0,0,1,1.72-.39c.49,0,1-.9,1.45-.06.18-.17.42-.3.52-.51a1.17,1.17,0,0,0,0-.67.74.74,0,0,1,.51-.81.79.79,0,0,1,1,.27c.15.23.49.43.49.65,0,.52.16,1,.63,1.06a1.88,1.88,0,0,0,1.28-.21,1.84,1.84,0,0,1,1.89.23c.4.29.53.66.21,1a2.46,2.46,0,0,1-2.18.7c-.76-.1-1.38.54-1.08,1.08a4.77,4.77,0,0,1,.3,2.46A2.33,2.33,0,0,0,50,22.08a18.27,18.27,0,0,1,1.62,2.24c.22.29.09.45,0,.73s-1.07.05-.87.82l-.24.1c0-.88-1.36-1.09-1.14-2.12,0,0-.05-.09-1.5-4.66-1.34-4.39-1.39-4.46-1.45-4.52l-.15.15a1.59,1.59,0,0,0,.21.15A31.07,31.07,0,0,1,47.84,19.19Zm-2.91,5.49c.57-.14,1-.26,1.5-.36A1.5,1.5,0,0,0,47.27,23c-.05-.49-.52-.77-1.11-.74-.23,0-.24.38-.65.2-.58-.25-1,0-1,.56A9.77,9.77,0,0,0,44.93,24.68Z"/><path class="cls-3" d="M100.64,19.1a1,1,0,0,0,.15,1.28c-.54.37-.3.93-.3,1.41s-.16.87.23,1.29c.13.14-.3.92-.23,1,.54.29-.15.72.2,1.05a1.74,1.74,0,0,1,.36,1c0,.35-.5.68,0,1.1.14.11-.7.71-1,.52a2.33,2.33,0,0,1-1-.9,9.54,9.54,0,0,1-.37-2.08c0-.4.16-1,0-1.17-.44-.47.19-.9,0-1.09-.34-.34.08-.71-.11-.88-.44-.41.28-.49.16-.82a2.07,2.07,0,0,1,0-.86c0-.65-.46-1.2-.07-2,.3-.6,0-1.47.08-2.21a6.14,6.14,0,0,0,.3-2.43c-.16-.54-.37-.75.45-.8.49,0,.95-.59,1.45,0,.49-.77,1-.09,1.39.09a9.15,9.15,0,0,0,1.09.31,3.69,3.69,0,0,1,1.49.89,1.94,1.94,0,0,1,.34,1.37,2.48,2.48,0,0,1-1,1.49,16.37,16.37,0,0,1-1.68,1.14c.41.47.35,1.29,1.22,1.3a8.25,8.25,0,0,1,.7,1.77c.15,1.06.6,2.22-.45,3.14-.1.09-.06.42-.14.44-.45.12,0,1-.83.86a1.58,1.58,0,0,1-1.18-1.05.66.66,0,0,1,.11-.62c1.08-1.18,1-1.21.68-2.59C102.42,19.92,101.67,19.51,100.64,19.1Zm2.72-3.91a4.23,4.23,0,0,0-2.88-.83c.14.25.32.43.31.6s-.25.36-.29.55.22.43.17.47c-.26.22-.09.33.06.51s.26.2.5,0C101.88,16.05,102.59,15.67,103.36,15.19Z"/><path class="cls-3" d="M122.94,14.67a4.92,4.92,0,0,0,.74.33c.24.07.65-.12.61.34s.75.52.24,1c-.13.13,0,.52-.07.7s-.22.49,0,.72c0,0,.12.1.11.12-.16.4-.57.87-.47,1.18a1.82,1.82,0,0,1,0,1.41,2,2,0,0,1-.14.25c.6.33-.07.82.07,1.05.4.66.12,1.33.22,2,.74.15.81.94,1.29,1.35.33.27.63.18,1,.22a2.3,2.3,0,0,1,.81.13.88.88,0,0,0,1.19,0c.39-.33.6.08.82.3s.1.5-.12.71c-.68.67-1.3,1.55-2.39.61a5.82,5.82,0,0,1-2.72-.93,3.4,3.4,0,0,1-1.82-3c-.13-1.23-.46-2.57.24-3.82.21-.38-.7-.94,0-1.42C122.35,16.78,123,15.81,122.94,14.67Z"/><path class="cls-3" d="M94.6,14.9c.06.53-.26,1,0,1.61a10.5,10.5,0,0,1,0,1.87c.1.78-.31,1.5,0,2.31s-.29,1.68.37,2.42c-.87.74.13,1.9-.59,2.67,0,0,0,.16.05.24,0,.31.25.73.12.91a7.47,7.47,0,0,1-1.19,1.12c-.22-.34-.42-.23-.61,0a1.87,1.87,0,0,1-.18-.55c0-.36.34-.62,0-1.12a1.82,1.82,0,0,1,.07-1.62c.32-.47-.62-.91.1-1.24.09,0,.13-.42.1-.43-.77-.36.27-1.06-.29-1.53-.13-.12.42-1,.27-1.15-.36-.42,0-.65,0-1a1.75,1.75,0,0,0-.14-1,.58.58,0,0,1,0-.87.64.64,0,0,0,.08-.62,1.54,1.54,0,0,1,0-2l.45-1.38c.23-.14.55-.44.68-.38a1.47,1.47,0,0,1,.58.73A2.66,2.66,0,0,1,94.6,14.9Z"/><path class="cls-3" d="M57.42,17.23c.37.54.65.94.9,1.35s-.64.72,0,1.09A.79.79,0,0,0,58.24,21s.06.11,0,.12c-1.15,1,.08,2.26-.35,3.33,1.05.85,2.23.63,3.36.51.23,0,.45-.28.6,0s.3.75.17.9a1.89,1.89,0,0,1-1.34.9,8.07,8.07,0,0,1-2.92-.28c-1-.27-1.4-.52-1.61-1.56-.16-.76-.48-1.38,0-2.16a2.28,2.28,0,0,0,.05-1.33,11.57,11.57,0,0,1-.3-1.23c0-.35.34-.73.29-1.06C56.1,18.25,56.65,17.84,57.42,17.23Z"/><path class="cls-3" d="M39.39,15.31c-.23,1.08.27,2-.36,2.93.53.37.17.79.08,1.2,0,.11.12.27.07.35-.17.32-.85.61-.45.92s-.31.62.11.91,0,.56-.2.82c-.26.43.79.69.19,1.16s.21.81.06.93c-.58.49.1.78.08,1.15s.25,1-.56,1.14c-.6.12-1,.16-1.15-.33a13.39,13.39,0,0,1-.52-1.85c-.05-.31.18-.66.16-1a3.19,3.19,0,0,0-.17-1.48c-.17-.33.17-.88.17-1.33a4.1,4.1,0,0,1,.34-1.76c.14-.29.28-.74.15-1-.26-.42.15-.6.16-.85C37.65,15.61,37.62,15.61,39.39,15.31Z"/><path class="cls-3" d="M63.51,17.88a1.76,1.76,0,0,0,.61-.22c.4-.35.64-.47.8.2,0,.17.54.22.59.4s-.24.45-.26.69a5.16,5.16,0,0,0,.56,2c.21.72.86,1.25.82,2.07,0,.45.81.08.7.72-.07.37-.13.91.07,1.14.46.54-.08.87-.24,1.06s-.68.18-1-.17a4.54,4.54,0,0,1-1.23-2.41c-.12-.7-.51-1.32-.62-2s-.93-.47-.62-.78c.59-.62-.33-.86-.19-1.35A4.86,4.86,0,0,0,63.51,17.88Z"/><path class="cls-3" d="M90.29,14.39a1.51,1.51,0,0,1,0,2.23c-.39.45.62.91-.13,1.22.42.88-.28,1.69-.14,2.59.08.49-.27,1-.28,1.56,0,.28.46.4-.19.7s-.68-.11-.87-.29c-.46-.46-.5-.9-.36-1.8a1.27,1.27,0,0,0,0-.67c-.48-1.18.28-2.35,0-3.48-.13-.47.7-.85,0-1.27l1.33-.52C89.91,14.58,90.1,14.48,90.29,14.39Z"/><path class="cls-3" d="M79.24,17.11c-.78-.06-1.43.08-1.83-.18A4,4,0,0,1,76,14.83a2,2,0,0,1,.13-2.2,1.58,1.58,0,0,1,.37-.36,4.34,4.34,0,0,1,1.2,1c-.67.82.58,1.09.49,1.74C78.88,15.44,78.69,16.31,79.24,17.11Z"/><path class="cls-3" d="M106.78,27.07a1.1,1.1,0,0,1-1.09-1.37c.21-.53.17-1.08.36-1.55s.47-1.2,1.26-1.35c.23,0,.4-.33.71-.09s.6.83.37,1c-1,.75-.48,2-1,2.87C107.24,26.93,107.18,27.12,106.78,27.07Z"/><path class="cls-3" d="M114.33,23c.58-.12,1.14-.28,1.55.29.63.88,1.5,1.67,1.09,3.06a3.58,3.58,0,0,1-1.22-.13c-.37-.16-1-.26-.78-1s-.54-.49-.61-.74A6.16,6.16,0,0,1,114.33,23Z"/></g></svg>