<svg xmlns="http://www.w3.org/2000/svg" viewBox="0 0 196.08 45.02"><defs><style>.cls-1{fill:none;stroke:#231815;stroke-linecap:round;stroke-linejoin:round;stroke-width:5px;}.cls-2{fill:#fff;}.cls-3{fill:#231815;}</style></defs><g id="レイヤー_1" data-name="レイヤー 1"><path class="cls-1" d="M90.28,13.38c.38-.3-.24-.46,0-.9A3.73,3.73,0,0,0,90.36,10a6.43,6.43,0,0,0-.59-1.43c-.49-.78.35-1.2.27-1.81a2.63,2.63,0,0,0-.15-1,6.59,6.59,0,0,1-.68-3.38A2.66,2.66,0,0,0,86.11.09c-.4.69-.86-.45-1.27.05S83.7.33,83.13.43c-.39.07-1,0-1.14.16-.49.64-.93-.2-1.3,0A1,1,0,0,1,79.28.51a.58.58,0,0,0-.53,0C78.31,1,78,.89,77.61.45c-.32.45-.78.41-1.25.4-.75,0-1.5,0-2.25,0s-1.36,0-2,0l-1.9-.1c-.67-.05-1.42.38-1.88.06A3.52,3.52,0,0,0,66,.45c-4.29,0-8.57,0-12.85,0-.51,0-1.08.27-1.54-.24a.61.61,0,0,0-.53-.13,4,4,0,0,1-3.76,0,1.24,1.24,0,0,0-.78,0,9.74,9.74,0,0,1-5.22,0c-.2,0-.46.18-.69.17A7.59,7.59,0,0,1,39.84,0a1.84,1.84,0,0,0-.81,0c-.48.14-1,.71-1.43.33-.62-.54-1,.26-1.55.1a4.06,4.06,0,0,0-2,0c-.6.16-1-.34-1.58-.25S31.33,0,30.82.43c0,0-.15,0-.18,0C30.09-.2,29.49,0,28.82.2s-1.14,0-1.66.1a5.64,5.64,0,0,0-2,.52c-.58.41-1.22-.63-1.87,0-1-.7-2.08-.26-3.12-.32-.36,0-.62.66-1.19.17-.18-.16-.75.17-1.16.19-.6,0-1.22,0-1.83,0s-1.4.24-1.8,0c-.64-.46-1.07.23-1.53,0a1.68,1.68,0,0,0-1.5,0c-.43-.63-.91.21-1.28,0C8.59.05,7.22.63,5.93.44c-.66.73-1.26.07-1.88-.08A8.39,8.39,0,0,0,2.37.57l-2,3.21a1.61,1.61,0,0,1,.09.29A7.33,7.33,0,0,1,.6,6.6c-.24.9.23,1.66.1,2.52s0,1.89-.06,2.82.44,1.76-.38,2.47c.21.82.85,1.64,0,2.48a3.9,3.9,0,0,1,0,3.55c.8.71,0,1.38,0,2.07,1,.7-.35,1.37,0,2.11.15.36-.61.84,0,1.27.08,1.44-.29,2.91.4,4.29-.65.7.23,1.35,0,2.1S.77,34.05.62,34.9c-.09.49.67.78.14,1.34-.38.4.15,1.14-.42,1.66A1.13,1.13,0,0,0,.29,39c.55.41-.09.92.31,1.42s.08,1.3.06,2a3,3,0,0,0,1.19,2.34c.09.08.37.13.41.07.45-.59,1,.25,1.11.08.58-.68.93.14,1.36.09.76-.09,1.57.32,2.31-.35.32-.28,1,.06,1.51-.28.29-.19,1,.36,1.37.2a9.1,9.1,0,0,1,3.31-.37c.41,0,1-.4,1.18-.24a1.33,1.33,0,0,0,1.32.21c.62-.29,1.38-.64,1.85-.3.71.52,1.15-.44,1.75-.08a2.18,2.18,0,0,0,1.07.34c.34,0,.69-.31,1-.3s1,.43,1,.35c.56-.78,1.32,0,2-.29a2.61,2.61,0,0,1,2.5.23c.2.16.75,0,1.07-.16a1,1,0,0,1,1.26.09c.13.11.46.21.53.15.81-.81,1.81-.25,2.7-.37a1.87,1.87,0,0,1,1.34.22c.29.19.91-.23,1.38-.22s1.22.43,1.6.24c.65-.33,1.07-.38,1.58.12.08.07.43,0,.53-.13.45-.5,1.15,0,1.5-.3.6-.54,1,.26,1.53.06s1.1-.47,1.4-.29c1.4.84,3.09-.39,4.42.67.5-.68,1.26-.45,1.86-.35s1.24-.65,1.88-.11c.21-.74.64.26,1.06-.15s1-.19,1.52-.18,1,.35,1.16.2c.63-.62.92.29,1.39.2a11.39,11.39,0,0,1,1.14-.21c.64-.06,1.28-.09,1.92-.1.14,0,.39.21.42.18.51-.57,1.16-.18,1.73-.27a2.37,2.37,0,0,1,1.67.39c.48.29.89-.56,1.53,0,.36.29,1.12,0,1.65.43s1-.69,1.48,0c.29-.63.89-.14,1.36-.33S71,44,71.68,44c.44,0,.85.23,1.32,0a2.58,2.58,0,0,1,1.36-.14c.42,0,1,.45,1.2.3a1.8,1.8,0,0,1,1.32-.31,11.36,11.36,0,0,1,1.43,0c.16,0,.29.29.46.33.49.11,1,.65,1.48.06a38.61,38.61,0,0,0,7.53-.5c.38-.61.79-1.25,1.2-1.88.06-.1.21-.27.2-.28-.84-.73-.19-1.76-.5-2.63-.22-.63-.63-1.57-.22-2.15s.27-1.27.35-1.9a6.59,6.59,0,0,1,0-1,11.29,11.29,0,0,0,.53-1.39,8.4,8.4,0,0,0-.15-1.56c0-.6,0-1.21,0-1.82s-.22-1.25,0-1.58c.49-.62-.27-1,0-1.53.1-.23,0-.58.16-.73.37-.39.19-.61,0-1a3,3,0,0,1,0-1.48c0-.31.19-.61.21-.92,0-.71-.18-1.5.64-2,.06,0,.1-.24.06-.27a1.36,1.36,0,0,1-.23-1.67c.48-.69-.23-1.16-.07-1.73.12-.42-.17-.94.33-1.3a.53.53,0,0,0,0-.52C90.07,14,89.83,13.73,90.28,13.38Z"/><path class="cls-1" d="M75.75,13.38c-.51-.3.31-.46,0-.9A2.88,2.88,0,0,1,75.64,10a5.58,5.58,0,0,1,.79-1.43c.66-.78-.46-1.2-.37-1.81.06-.32,0-.69.21-1a5.29,5.29,0,0,0,.91-3.38C77.22,1,79.35-.18,81.3.09c.53.69,1.16-.45,1.7.05s1.52.19,2.28.29c.51.07,1.29,0,1.51.16.66.64,1.24-.2,1.73,0A1.65,1.65,0,0,0,90.41.51a1,1,0,0,1,.7,0A1,1,0,0,0,92.63.45a2.09,2.09,0,0,0,1.67.4c1,0,2,0,3,0s1.82,0,2.72,0l2.53-.1c.89-.05,1.9.38,2.51.06a6.08,6.08,0,0,1,3.08-.35c5.71,0,11.42,0,17.13,0,.67,0,1.43.27,2-.24A1,1,0,0,1,128,.05a6.88,6.88,0,0,0,5,0,2.23,2.23,0,0,1,1,0,17.13,17.13,0,0,0,7,0c.27,0,.61.18.92.17s.69-.18,1-.22a3.25,3.25,0,0,1,1.08,0c.65.14,1.32.71,1.91.33.83-.54,1.31.26,2.06.1a7.16,7.16,0,0,1,2.69,0c.81.16,1.32-.34,2.11-.25S154.32,0,155,.43a.36.36,0,0,0,.25,0C156-.2,156.78,0,157.66.2c.7.15,1.52,0,2.23.1a9.57,9.57,0,0,1,2.7.52c.76.41,1.63-.63,2.49,0,1.3-.7,2.77-.26,4.16-.32.47,0,.82.66,1.58.17.25-.16,1,.17,1.55.19.81,0,1.63,0,2.44,0s1.86.24,2.4,0c.86-.46,1.42.23,2,0a3,3,0,0,1,2,0c.57-.63,1.21.21,1.71,0,1.67-.77,3.5-.19,5.23-.38.87.73,1.67.07,2.49-.08a14.67,14.67,0,0,1,2.24.21l2.69,3.21a1.78,1.78,0,0,0-.12.29c-.1.85-.5,1.76-.21,2.53s-.3,1.66-.12,2.52,0,1.89.07,2.82-.58,1.76.51,2.47c-.28.82-1.13,1.64-.06,2.48a3,3,0,0,0,0,3.55c-1.08.71-.05,1.38.06,2.07-1.33.7.46,1.37,0,2.11-.21.36.81.84,0,1.27-.11,1.44.38,2.91-.54,4.29.88.7-.3,1.35-.06,2.1s-.09,1.77.12,2.62c.11.49-.9.78-.19,1.34.5.4-.19,1.14.57,1.66.28.18.3,1,.06,1.11-.73.41.12.92-.41,1.42s-.11,1.3-.09,2a2.83,2.83,0,0,1-1.58,2.34.8.8,0,0,1-.55.07c-.6-.59-1.28.25-1.47.08-.77-.68-1.25.14-1.82.09-1-.09-2.09.32-3.08-.35-.42-.28-1.3.06-2-.28-.38-.19-1.35.36-1.82.2a16.06,16.06,0,0,0-4.42-.37c-.55,0-1.3-.4-1.58-.24a2.24,2.24,0,0,1-1.75.21c-.83-.29-1.85-.64-2.46-.3-1,.52-1.54-.44-2.34-.08a3.66,3.66,0,0,1-1.43.34c-.46,0-.92-.31-1.37-.3s-1.28.43-1.36.35c-.75-.78-1.76,0-2.68-.29a4.49,4.49,0,0,0-3.33.23,2.3,2.3,0,0,1-1.42-.16A1.72,1.72,0,0,0,157,44a1.16,1.16,0,0,1-.7.15c-1.09-.81-2.41-.25-3.61-.37A3.18,3.18,0,0,0,151,44c-.39.19-1.22-.23-1.85-.22s-1.62.43-2.13.24a1.93,1.93,0,0,0-2.11.12,1,1,0,0,1-.7-.13c-.6-.5-1.53,0-2-.3-.8-.54-1.34.26-2,.06s-1.45-.47-1.85-.29c-1.88.84-4.13-.39-5.89.67-.67-.68-1.69-.45-2.48-.35s-1.66-.65-2.52-.11c-.27-.74-.85.26-1.4-.15a4.44,4.44,0,0,0-2-.18c-.53,0-1.32.35-1.54.2-.84-.62-1.23.29-1.86.2s-1-.17-1.51-.21c-.85-.06-1.71-.09-2.56-.1-.19,0-.52.21-.56.18-.68-.57-1.54-.18-2.31-.27a4,4,0,0,0-2.22.39c-.64.29-1.19-.56-2,0-.49.29-1.5,0-2.2.43-.55.37-1.3-.69-2,0-.39-.63-1.19-.14-1.81-.33-.78-.24-1.89.17-2.83.1-.58,0-1.12.23-1.75,0A4.52,4.52,0,0,0,97,43.8c-.56,0-1.36.45-1.6.3a3,3,0,0,0-1.75-.31c-.64,0-1.28,0-1.9,0-.22,0-.4.29-.63.33-.64.11-1.28.65-2,.06a68.29,68.29,0,0,1-10-.5c-.51-.61-1-1.25-1.6-1.88-.08-.1-.28-.27-.27-.28,1.12-.73.25-1.76.66-2.63.3-.63.84-1.57.3-2.15s-.36-1.27-.47-1.9a5.51,5.51,0,0,0,0-1c-.18-.48-.63-.91-.71-1.39a7.07,7.07,0,0,1,.19-1.56c0-.6,0-1.21,0-1.82s.29-1.25-.06-1.58c-.65-.62.36-1,.07-1.53-.13-.23,0-.58-.21-.73-.49-.39-.25-.61,0-1s0-1,0-1.48c-.05-.31-.25-.61-.28-.92-.07-.71.23-1.5-.86-2-.08,0-.13-.24-.08-.27a1.11,1.11,0,0,0,.3-1.67c-.63-.69.32-1.16.1-1.73-.16-.42.23-.94-.44-1.3-.12-.06-.14-.42,0-.52C76,14,76.35,13.73,75.75,13.38Z"/><path class="cls-2" d="M90.28,13.38c.38-.3-.24-.46,0-.9A3.73,3.73,0,0,0,90.36,10a6.43,6.43,0,0,0-.59-1.43c-.49-.78.35-1.2.27-1.81a2.63,2.63,0,0,0-.15-1,6.59,6.59,0,0,1-.68-3.38A2.66,2.66,0,0,0,86.11.09c-.4.69-.86-.45-1.27.05S83.7.33,83.13.43c-.39.07-1,0-1.14.16-.49.64-.93-.2-1.3,0A1,1,0,0,1,79.28.51a.58.58,0,0,0-.53,0C78.31,1,78,.89,77.61.45c-.32.45-.78.41-1.25.4-.75,0-1.5,0-2.25,0s-1.36,0-2,0l-1.9-.1c-.67-.05-1.42.38-1.88.06A3.52,3.52,0,0,0,66,.45c-4.29,0-8.57,0-12.85,0-.51,0-1.08.27-1.54-.24a.61.61,0,0,0-.53-.13,4,4,0,0,1-3.76,0,1.24,1.24,0,0,0-.78,0,9.74,9.74,0,0,1-5.22,0c-.2,0-.46.18-.69.17A7.59,7.59,0,0,1,39.84,0a1.84,1.84,0,0,0-.81,0c-.48.14-1,.71-1.43.33-.62-.54-1,.26-1.55.1a4.06,4.06,0,0,0-2,0c-.6.16-1-.34-1.58-.25S31.33,0,30.82.43c0,0-.15,0-.18,0C30.09-.2,29.49,0,28.82.2s-1.14,0-1.66.1a5.64,5.64,0,0,0-2,.52c-.58.41-1.22-.63-1.87,0-1-.7-2.08-.26-3.12-.32-.36,0-.62.66-1.19.17-.18-.16-.75.17-1.16.19-.6,0-1.22,0-1.83,0s-1.4.24-1.8,0c-.64-.46-1.07.23-1.53,0a1.68,1.68,0,0,0-1.5,0c-.43-.63-.91.21-1.28,0C8.59.05,7.22.63,5.93.44c-.66.73-1.26.07-1.88-.08A8.39,8.39,0,0,0,2.37.57l-2,3.21a1.61,1.61,0,0,1,.09.29A7.33,7.33,0,0,1,.6,6.6c-.24.9.23,1.66.1,2.52s0,1.89-.06,2.82.44,1.76-.38,2.47c.21.82.85,1.64,0,2.48a3.9,3.9,0,0,1,0,3.55c.8.71,0,1.38,0,2.07,1,.7-.35,1.37,0,2.11.15.36-.61.84,0,1.27.08,1.44-.29,2.91.4,4.29-.65.7.23,1.35,0,2.1S.77,34.05.62,34.9c-.09.49.67.78.14,1.34-.38.4.15,1.14-.42,1.66A1.13,1.13,0,0,0,.29,39c.55.41-.09.92.31,1.42s.08,1.3.06,2a3,3,0,0,0,1.19,2.34c.09.08.37.13.41.07.45-.59,1,.25,1.11.08.58-.68.93.14,1.36.09.76-.09,1.57.32,2.31-.35.32-.28,1,.06,1.51-.28.29-.19,1,.36,1.37.2a9.1,9.1,0,0,1,3.31-.37c.41,0,1-.4,1.18-.24a1.33,1.33,0,0,0,1.32.21c.62-.29,1.38-.64,1.85-.3.71.52,1.15-.44,1.75-.08a2.18,2.18,0,0,0,1.07.34c.34,0,.69-.31,1-.3s1,.43,1,.35c.56-.78,1.32,0,2-.29a2.61,2.61,0,0,1,2.5.23c.2.16.75,0,1.07-.16a1,1,0,0,1,1.26.09c.13.11.46.21.53.15.81-.81,1.81-.25,2.7-.37a1.87,1.87,0,0,1,1.34.22c.29.19.91-.23,1.38-.22s1.22.43,1.6.24c.65-.33,1.07-.38,1.58.12.08.07.43,0,.53-.13.45-.5,1.15,0,1.5-.3.6-.54,1,.26,1.53.06s1.1-.47,1.4-.29c1.4.84,3.09-.39,4.42.67.5-.68,1.26-.45,1.86-.35s1.24-.65,1.88-.11c.21-.74.64.26,1.06-.15s1-.19,1.52-.18,1,.35,1.16.2c.63-.62.92.29,1.39.2a11.39,11.39,0,0,1,1.14-.21c.64-.06,1.28-.09,1.92-.1.14,0,.39.21.42.18.51-.57,1.16-.18,1.73-.27a2.37,2.37,0,0,1,1.67.39c.48.29.89-.56,1.53,0,.36.29,1.12,0,1.65.43s1-.69,1.48,0c.29-.63.89-.14,1.36-.33S71,44,71.68,44c.44,0,.85.23,1.32,0a2.58,2.58,0,0,1,1.36-.14c.42,0,1,.45,1.2.3a1.8,1.8,0,0,1,1.32-.31,11.36,11.36,0,0,1,1.43,0c.16,0,.29.29.46.33.49.11,1,.65,1.48.06a38.61,38.61,0,0,0,7.53-.5c.38-.61.79-1.25,1.2-1.88.06-.1.21-.27.2-.28-.84-.73-.19-1.76-.5-2.63-.22-.63-.63-1.57-.22-2.15s.27-1.27.35-1.9a6.59,6.59,0,0,1,0-1,11.29,11.29,0,0,0,.53-1.39,8.4,8.4,0,0,0-.15-1.56c0-.6,0-1.21,0-1.82s-.22-1.25,0-1.58c.49-.62-.27-1,0-1.53.1-.23,0-.58.16-.73.37-.39.19-.61,0-1a3,3,0,0,1,0-1.48c0-.31.19-.61.21-.92,0-.71-.18-1.5.64-2,.06,0,.1-.24.06-.27a1.36,1.36,0,0,1-.23-1.67c.48-.69-.23-1.16-.07-1.73.12-.42-.17-.94.33-1.3a.53.53,0,0,0,0-.52C90.07,14,89.83,13.73,90.28,13.38Z"/><path class="cls-2" d="M75.75,13.38c-.51-.3.31-.46,0-.9A2.88,2.88,0,0,1,75.64,10a5.58,5.58,0,0,1,.79-1.43c.66-.78-.46-1.2-.37-1.81.06-.32,0-.69.21-1a5.29,5.29,0,0,0,.91-3.38C77.22,1,79.35-.18,81.3.09c.53.69,1.16-.45,1.7.05s1.52.19,2.28.29c.51.07,1.29,0,1.51.16.66.64,1.24-.2,1.73,0A1.65,1.65,0,0,0,90.41.51a1,1,0,0,1,.7,0A1,1,0,0,0,92.63.45a2.09,2.09,0,0,0,1.67.4c1,0,2,0,3,0s1.82,0,2.72,0l2.53-.1c.89-.05,1.9.38,2.51.06a6.08,6.08,0,0,1,3.08-.35c5.71,0,11.42,0,17.13,0,.67,0,1.43.27,2-.24A1,1,0,0,1,128,.05a6.88,6.88,0,0,0,5,0,2.23,2.23,0,0,1,1,0,17.13,17.13,0,0,0,7,0c.27,0,.61.18.92.17s.69-.18,1-.22a3.25,3.25,0,0,1,1.08,0c.65.14,1.32.71,1.91.33.83-.54,1.31.26,2.06.1a7.16,7.16,0,0,1,2.69,0c.81.16,1.32-.34,2.11-.25S154.32,0,155,.43a.36.36,0,0,0,.25,0C156-.2,156.78,0,157.66.2c.7.15,1.52,0,2.23.1a9.57,9.57,0,0,1,2.7.52c.76.41,1.63-.63,2.49,0,1.3-.7,2.77-.26,4.16-.32.47,0,.82.66,1.58.17.25-.16,1,.17,1.55.19.81,0,1.63,0,2.44,0s1.86.24,2.4,0c.86-.46,1.42.23,2,0a3,3,0,0,1,2,0c.57-.63,1.21.21,1.71,0,1.67-.77,3.5-.19,5.23-.38.87.73,1.67.07,2.49-.08a14.67,14.67,0,0,1,2.24.21l2.69,3.21a1.78,1.78,0,0,0-.12.29c-.1.85-.5,1.76-.21,2.53s-.3,1.66-.12,2.52,0,1.89.07,2.82-.58,1.76.51,2.47c-.28.82-1.13,1.64-.06,2.48a3,3,0,0,0,0,3.55c-1.08.71-.05,1.38.06,2.07-1.33.7.46,1.37,0,2.11-.21.36.81.84,0,1.27-.11,1.44.38,2.91-.54,4.29.88.7-.3,1.35-.06,2.1s-.09,1.77.12,2.62c.11.49-.9.78-.19,1.34.5.4-.19,1.14.57,1.66.28.18.3,1,.06,1.11-.73.41.12.92-.41,1.42s-.11,1.3-.09,2a2.83,2.83,0,0,1-1.58,2.34.8.8,0,0,1-.55.07c-.6-.59-1.28.25-1.47.08-.77-.68-1.25.14-1.82.09-1-.09-2.09.32-3.08-.35-.42-.28-1.3.06-2-.28-.38-.19-1.35.36-1.82.2a16.06,16.06,0,0,0-4.42-.37c-.55,0-1.3-.4-1.58-.24a2.24,2.24,0,0,1-1.75.21c-.83-.29-1.85-.64-2.46-.3-1,.52-1.54-.44-2.34-.08a3.66,3.66,0,0,1-1.43.34c-.46,0-.92-.31-1.37-.3s-1.28.43-1.36.35c-.75-.78-1.76,0-2.68-.29a4.49,4.49,0,0,0-3.33.23,2.3,2.3,0,0,1-1.42-.16A1.72,1.72,0,0,0,157,44a1.16,1.16,0,0,1-.7.15c-1.09-.81-2.41-.25-3.61-.37A3.18,3.18,0,0,0,151,44c-.39.19-1.22-.23-1.85-.22s-1.62.43-2.13.24a1.93,1.93,0,0,0-2.11.12,1,1,0,0,1-.7-.13c-.6-.5-1.53,0-2-.3-.8-.54-1.34.26-2,.06s-1.45-.47-1.85-.29c-1.88.84-4.13-.39-5.89.67-.67-.68-1.69-.45-2.48-.35s-1.66-.65-2.52-.11c-.27-.74-.85.26-1.4-.15a4.44,4.44,0,0,0-2-.18c-.53,0-1.32.35-1.54.2-.84-.62-1.23.29-1.86.2s-1-.17-1.51-.21c-.85-.06-1.71-.09-2.56-.1-.19,0-.52.21-.56.18-.68-.57-1.54-.18-2.31-.27a4,4,0,0,0-2.22.39c-.64.29-1.19-.56-2,0-.49.29-1.5,0-2.2.43-.55.37-1.3-.69-2,0-.39-.63-1.19-.14-1.81-.33-.78-.24-1.89.17-2.83.1-.58,0-1.12.23-1.75,0A4.52,4.52,0,0,0,97,43.8c-.56,0-1.36.45-1.6.3a3,3,0,0,0-1.75-.31c-.64,0-1.28,0-1.9,0-.22,0-.4.29-.63.33-.64.11-1.28.65-2,.06a68.29,68.29,0,0,1-10-.5c-.51-.61-1-1.25-1.6-1.88-.08-.1-.28-.27-.27-.28,1.12-.73.25-1.76.66-2.63.3-.63.84-1.57.3-2.15s-.36-1.27-.47-1.9a5.51,5.51,0,0,0,0-1c-.18-.48-.63-.91-.71-1.39a7.07,7.07,0,0,1,.19-1.56c0-.6,0-1.21,0-1.82s.29-1.25-.06-1.58c-.65-.62.36-1,.07-1.53-.13-.23,0-.58-.21-.73-.49-.39-.25-.61,0-1s0-1,0-1.48c-.05-.31-.25-.61-.28-.92-.07-.71.23-1.5-.86-2-.08,0-.13-.24-.08-.27a1.11,1.11,0,0,0,.3-1.67c-.63-.69.32-1.16.1-1.73-.16-.42.23-.94-.44-1.3-.12-.06-.14-.42,0-.52C76,14,76.35,13.73,75.75,13.38Z"/></g><g id="レイヤー_2" data-name="レイヤー 2"><g id="eZZng7"><path class="cls-3" d="M110,21.69c-.53,0-1,0-1.54,0a5.15,5.15,0,0,0-.93.26s-.35.67-.39.72c-.31.36.54.78-.13,1.23-.36.23.11.77.27,1.16a.31.31,0,0,1-.1.28c-.59.2.5.69-.16.85,0,.8-.65.63-1.1.57a.77.77,0,0,1-.69-1c0-.23.28-.54.2-.65-.34-.45.36-.72.14-1.14s-.64-.67-.07-1.12c.13-.11-.58-.87-.86-.87s-.8,0-1.21,0c-.25,0-.48-.57-.76,0-.25-.22-.46-.54-.74-.61s-.61-.11-.49-.47.46-.59.55-.55c.74.32,1.34-.7,2.18-.08.51.37.94-.19.89-1a6.1,6.1,0,0,1,.21-1.26c-.29,0-.55-.08-.81-.09-.67,0-1.43-.88-2-.12-.39.58-1.08.67-1.41,1.25-.18.33-.45.67-1,.27-.28-.2-.79.45-.69.85.51,2.06.33,2.55-1.31,3.95-.23.2-.19,1-.69.47s-.51.26-.78,0-.72-.39-.71.27a3.19,3.19,0,0,0,.28,1.42,5.44,5.44,0,0,1,.06,2.12c-.26,0-.61.15-.78,0a5.88,5.88,0,0,1-1-.92c.42-.64-.82-1.28,0-1.94a.74.74,0,0,0-.1-.11c-.43-.26.14-.5.07-.59-.67-.74,0-1.69-.39-2.39a2.3,2.3,0,0,1-.26-1.09,13.09,13.09,0,0,0-.29-3.62,2.13,2.13,0,0,1,.24-2.08c.23-.28.06-.87,0-1.33s.33-.76.81-.86H96.4c.54.22,1.08.44,1.61.68a2.89,2.89,0,0,1,1,.54,1.39,1.39,0,0,1,.26.9c0,.39-.06.93-.31,1.13-1.2,1-.35,1.71.21,2.55.37-.43,1-.65.9-1.32,0-.1,0-.27.08-.3.81-.4,1-1.36,1.6-1.84a7.43,7.43,0,0,0,1.76-2.52,5.16,5.16,0,0,1,2.17-1.76c.36-.21.68-.06,1.07.14a17.7,17.7,0,0,1,3.44,2.41,6.73,6.73,0,0,0,1.93,1.58c.44.16.42.61.39,1s0,.54,0,.79a3.32,3.32,0,0,1-1-.28c-.39-.28-.91-.2-1.23-.84s-1.27-.93-1.61-1.7c-1.12-.08-1.65-1.17-2.63-1.48-.44.44-1,.81-1.3,1.34s-.94.63-1,1.26c0,.16-.3.52,0,.37.94-.46,1.49.83,2.35.39.39.55,1-.28,1.53.29.27.3,1.09,0,1.67.27a2.3,2.3,0,0,1,1.22.72c.21.23.38.42.12.71s-.39.47-.76.08-.62.4-1.1,0c-.28-.23-.9-.11-1.34,0s-.79.33-.78.49a3.31,3.31,0,0,0,.46,1.15.34.34,0,0,0,.31,0c.39-.47.93-.33,1.42-.33,1,0,1.15.17,1.21,1.14A3.35,3.35,0,0,1,110,21.69ZM95.54,19a6.1,6.1,0,0,1,0,1.62c-.14.46.57.79.06,1.26s.47.79.11,1.28c-.05.07.19.43.37.56s.49-.09.5-.18c.06-.45.4-.57.7-.82s1-.88.88-1.25A2,2,0,0,0,97,19.64C96.51,19.48,96.1,19.23,95.54,19Zm-.35-.68c.52-.47.8-.69,1-.94s.37-.7.57-.72c.73,0,.5-.56.44-.85s-1.09-.86-1.37-.66-.72,0-.69.52C95.23,16.4,95.19,17.17,95.19,18.28Z"/><path class="cls-3" d="M126.29,20.61c.28-1,1.15-1.08,1.88-1.29a2.29,2.29,0,0,1,1.19,0c.45.13.83-.62,1.26,0a1.84,1.84,0,0,0-.06-1.72c-.24-.4-.41-.85-.63-1.32-.57.11-1.17-.19-1.75.3-.32.28-.64-.17-.79-.42a5,5,0,0,1-.3-1.15c.87,0,1.72-.55,2.72-.44.24,0,.49-.2.74-.27s.62-.1.64,0c.35.9,1.12.61,1.78.68.25,0,.47.28.72.31a11.37,11.37,0,0,0,1.44,0l.43,1.9-3.41-.48a10.84,10.84,0,0,0,0,1.14,1.45,1.45,0,0,0,1.71,1.51,4.64,4.64,0,0,0,2.46-.31c.37-.21.9.18,1,.63s0,.7-.56.78a4,4,0,0,0-1.08.52c-.33-.61-.73.08-1.07-.05-.55-.19-.94.25-1.52.22.82.67.19,1.48.57,2.22.91.2,1.67,1.11,2.82,1.14.17,0,.44.39.47.62s.06.65.36.89a2.68,2.68,0,0,1-1.07.27,6,6,0,0,0-3-.78,1.48,1.48,0,0,0-.08.46,1.79,1.79,0,0,1-1.29,2,4.13,4.13,0,0,1-2.32.16,2.41,2.41,0,0,1-1.42-1,1.72,1.72,0,0,1,.05-1.71,2.68,2.68,0,0,1,2.23-1.63c.31,0,.6-.31.9-.31.58,0,.45-.37.46-.69s-.54-.59,0-.91c0,0,0-.31,0-.31-.67-.05-1.08-1.08-1.93-.5a.88.88,0,0,1-.51,0c-.53-.1-1.05-.25-1.58-.32A14.6,14.6,0,0,0,126.29,20.61ZM131,26.79a6.53,6.53,0,0,0,.81-.95.52.52,0,0,0-.67-.74c-.48.21-.94.49-1.52.8Z"/><path class="cls-3" d="M80.56,25.49c-.76,0-1.46-.21-1.8.05s-.57-.24-.81-.1a7.29,7.29,0,0,0-.8.57s-.1.08-.12.06c-1.77-1.18-1.72,1.14-2.84,1.34-.3-2-1.14-3.95-1.12-6.09A4.6,4.6,0,0,1,74,17.89c.11-.17.13-.41.26-.57s.29-.33-.1-.4a.59.59,0,0,1-.37-.23c-.33-.8-.63-1.61-.94-2.42.52-.37-.43-.57-.12-.95s.54-.79.79-1.16a1.78,1.78,0,0,1,1,1.89,1.37,1.37,0,0,0,.81,1.54c.24.12.37.5.5.78a.69.69,0,0,1,0,.44c-1,.18-.56.86-.57,1.39.14,0,.3.12.34.08.77-.64,1.55-1.1,2.53-.37a.49.49,0,0,0,.46-.07c.83-.72,1.55.22,2.34.16.15,0,.45.38.48.62a4.84,4.84,0,0,0,.33,1.74c.21.44-.11,1.08.35,1.53-.59.33,0,1-.08,1-.58.44.27.58.14,1-.33,1.06-.48,2.18-.73,3.27-.05.24-.89.43-1.18.3a1.56,1.56,0,0,1-.34-1Zm-.87-3.28c-.22.2-.42.4-.64.57s-.28.19-.36.15c-1-.48-2-.15-3-.21-.66,0-.86.39-.51,1a1.86,1.86,0,0,0,.57.59c1-.64,2.26.19,3.23-.56.12-.08.42.06.63.11.54.12.63,0,.51-.53-.06-.26-.19-.68-.08-.77.54-.42,0-.8,0-1.09.09-.48-.65-.83-.11-1.29.07-.05,0-.33-.06-.44a8.15,8.15,0,0,0-.72-.72c-.33.74-.87-.17-1.34.17a2.88,2.88,0,0,1-1.87.49c-1,0-1.1.2-1,1.3.56.19,1.24-.23,1.76.34a.68.68,0,0,0,.65,0c.46-.68.89.05,1.28,0C79.47,21.16,79.21,22,79.69,22.21Z"/><path class="cls-3" d="M141.83,16.25a3.55,3.55,0,0,0-.82,0c-.75.21-.93-.42-1.18-.82s0-.68.72-.61c.23,0,.3-.44.62-.1s.67.22,1.06,0-.06-.52,0-.73a6.37,6.37,0,0,1,1.84-2.12c.28-.24.77.1.85.45.14.61-.31,1-.48,1.51a10.78,10.78,0,0,1-.56,1.13s.17.19.26.18.16-.14.24-.22c.36.54,1.16.11,1.36.39.49.66,1.15-.35,1.52.29.14-.13.28-.25.41-.39.47-.5.31-1.13.35-1.72s.37-1,.71-1a1.08,1.08,0,0,1,1,1.17,4,4,0,0,1-.11.47c-.42,1.36-.17,1.71,1.29,1.76a5.3,5.3,0,0,0,.69,0c.55-.05,1.08,0,1.21.62a1.16,1.16,0,0,1-.34.86.8.8,0,0,1-.72.2c-.51-.19-.76.72-1.36.21-.28-.23-.82-.16-1.36-.24,0,.8.78,1.41.19,2.1-.17.2-.21.58-.4.65a3.87,3.87,0,0,1-1.16,0c0-.79,0-1.57,0-2.34s-.25-1-1.12-1.06c-.57,0-1.27.19-1.69-.06s-.92.27-1.16-.28c-.17.09-.47.16-.49.27-.08.44.07,1-.13,1.31a1,1,0,0,0,0,1.19c.17.31-.56.72.06,1.05-.61,1,.08,1.61.62,2.37.4.57.78,1,1.49.93.49-.07.88.46,1.47.06.35-.24,1-.07,1.53,0a3.87,3.87,0,0,0,2.13-.28c0,.05.1.09.1.13.06,1.77,0,1.8-1.71,1.85-.45,0-1,.32-1.33.16a4.54,4.54,0,0,0-1.49-.16c-.81-.12-1.64-.18-2.44-.37-.22-.06-.3-.54-.54-.71-.42-.3-.9-.61-1-1.08a9.09,9.09,0,0,1-.7-3.25,8,8,0,0,1,.61-3.13C141.89,16.76,141.83,16.56,141.83,16.25Z"/><path class="cls-3" d="M155.5,22.72c.5-.78,1.33-1.21,1.95-1.9s2.37,0,2.76.78a3.43,3.43,0,0,1,.26.74,4.47,4.47,0,0,0,1.48,1.9,1.19,1.19,0,0,0,1.67-.09c.53-.73,1.48-.08,2-.75a1.19,1.19,0,0,1,.54.29,6.49,6.49,0,0,1,.49.85c-1.09,1.12-2.69.94-4,1.54a1.3,1.3,0,0,1-1.38-.38c-.84-.75-1.82-1.34-1.92-2.6,0-.09-.16-.16-.21-.25-.29-.55-1.06-.74-1.35-.24s-1,.6-1.3,1.11c-.06.1-.43.13-.42.15.22,1.08-.56.81-1.15.89-1.15.16-1.93-.58-1.59-1.6s.74-1.85,1.09-2.78c.11-.3.12-.63.23-.93.24-.6,0-1.37.78-1.79.3-.17.77-.46.29-.94l1.18-.49c.55-.23.93,0,.84.53a5.22,5.22,0,0,1-.49,1.49,3.08,3.08,0,0,1-1,1.27c-.58.32.49.67-.14.89s-.41.72-.5,1.15a7.47,7.47,0,0,1-.38,1Z"/><path class="cls-3" d="M59.67,26.38,58.26,25c.87-1.09,1.86-2.25,2.76-3.48a5.51,5.51,0,0,0,.66-1.6c.13-.42,0-.47-.66-.43a12.65,12.65,0,0,1-1.5-.13c-.51,0-1,0-1.5,0-.27-.61-.16-.92.47-1.13s1.21-.9,1.6-.51,1.1-.63,1.38.23c.67,0,1.35,0,1.77.72.16.27.35.53.52.8-.53.22.06.64-.22,1-.48.62-.71,1.43-1.19,2-.35.45-.16.81.16.83.78.06,1,.59,1.47,1.05a2.07,2.07,0,0,0,2.51.55c.55-.32.73,0,1,.27s-.09.58-.29.81a1,1,0,0,1-1,.47,1.81,1.81,0,0,0-.52,0,3.83,3.83,0,0,0-1.14.15c-.78.37-.1-.72-.62-.55-.07-.45-.68-.11-.85-.65s-.86-.59-1.36-.31C61,25.5,60.3,26,59.67,26.38Z"/><path class="cls-3" d="M117.3,19.8a9.36,9.36,0,0,1,.35-3.17A2.07,2.07,0,0,1,119.06,15c.22-.07.7.33.57.43-.59.43.11,1.28-.59,1.64.79.6,0,1.05-.21,1.51-.12.31.09.33.14.5a1,1,0,0,1,0,.65c-.52.94.19,1.85,0,2.78-.07.39.5,1,.93,1.29a7.15,7.15,0,0,1,1.07.72c.35.32.54.16.86,0s.55.18.85.23.58,0,.86,0,.49.9.31,1.12a1.45,1.45,0,0,1-1.32.58,6,6,0,0,1-4.73-2.39,5,5,0,0,1-.56-2.14A16.22,16.22,0,0,1,117.3,19.8Z"/><path class="cls-3" d="M88.43,14.18l1.14.37.24.65c.25.46-.35.82-.16,1.31s.42,1,.24,1.32c-.5.76.42,1.29.15,2s.28,1.44-.35,2.05a2.58,2.58,0,0,1,0,2.46c-.25.74,0,1.62-.39,2.39a1,1,0,0,1-1.23.34c-.26-.17-.78-.38-.39-.92.14-.21.3-.64.21-.73-.54-.52.16-1,0-1.44s.67-.94.19-1.68c-.26-.41.1-1.19.14-1.81s0-1.24,0-1.86c0-.21,0-.5-.13-.62-.71-.63.29-1.36-.15-2C88.59,15.54,88.09,14.84,88.43,14.18Z"/><path class="cls-3" d="M30.15,27.13a3.92,3.92,0,0,1-2.66-2.32c-.3-1.08-.16-2.25-.68-3.28.63-.73.57-1.69.82-2.54a4.36,4.36,0,0,1,.22-.75,3.37,3.37,0,0,1,.51-.62c.32.62.61-.11.93,0a.71.71,0,0,1,.48,1c-.34.77-.69,1.53-1,2.29a2.06,2.06,0,0,0,.11,1.82c.11.32.8.67.12,1.1A6.31,6.31,0,0,0,30,25.29c.25.2.85,0,1.29-.05a5.77,5.77,0,0,1,1.48-.12.7.7,0,0,1,.56.88c-.1.29-.33.73-.54.75C31.88,26.85,30.91,26.62,30.15,27.13Z"/><path class="cls-3" d="M43.1,17.87a5.05,5.05,0,0,1,.9.89c.19.32-.09.68-.19,1a4.94,4.94,0,0,0,.27,3,1.8,1.8,0,0,0,2.09.7q.66-.29,1.29-.6a.86.86,0,0,0,.25-.22,1.4,1.4,0,0,1-.33,1.9c-.52.41-1.13,1.09-2,.83-.26-.08-.64.09-.84,0-.41-.25-1.18-.06-1.16-.86-.88-1-.74-2.4-1.33-3.52a.56.56,0,0,1,0-.49C42.69,19.79,42,18.57,43.1,17.87Z"/><path class="cls-3" d="M39.93,25.42a.77.77,0,0,1-.89.65c-.3-.12-.7-.25-.81-.48-.47-1-.94-2-1.38-3s-.43-2-.75-2.92c-.15-.44-.27-.68.16-1.05a.9.9,0,0,1,1.62.64A18,18,0,0,0,38.22,22c.06.29.38.52.57.78l.79,1.85Z"/><path class="cls-3" d="M51.58,17.36a18.43,18.43,0,0,1,.93,2.3c.15.57-.06,1.38.45,1.7.75.48.34,1.22.63,1.8a5.85,5.85,0,0,1,.17,2.24c-1.72,0-1.54-1.45-2.09-2.3.28-1.25-.78-2.19-.85-3.38a6.58,6.58,0,0,0-.19-1.09C50.45,17.9,50.79,17.52,51.58,17.36Z"/><path class="cls-3" d="M56.85,14.21c1.67,0,3.22,0,4.76,0a5.37,5.37,0,0,1,1.92.37c.29.13.38.69.86.75-.08.12-.14.3-.25.34a3.07,3.07,0,0,1-.94.22c-1.38,0-2.76,0-4.14,0a9.76,9.76,0,0,1-1.93-.34c-.13,0-.23-.31-.27-.5A5.45,5.45,0,0,1,56.85,14.21Z"/><path class="cls-3" d="M85.16,22.47c-1.15-.39-1.76-.92-1.72-2,0-.39-.31-.93-.14-1.12.39-.46-.25-.79-.1-.95.4-.41.22-.85.24-1.27.07-1.08.16-1.18,1.3-1.23a3.07,3.07,0,0,1,.44.07,18.48,18.48,0,0,0,0,3.49A20.46,20.46,0,0,1,85.16,22.47Z"/><path class="cls-3" d="M78.87,15.64a3.71,3.71,0,0,0-.57,1.09c0,.46-.2.55-.62.55s-.41-.19-.47-.51a6.79,6.79,0,0,0-.4-1.68c-.28-.53.48-1.09-.21-1.45.57-.5.18-1.16.28-1.73A.92.92,0,0,1,78,11.15c.4.09.82.63.63,1a2.29,2.29,0,0,0,0,2.43C78,15.12,78.62,15.36,78.87,15.64Z"/><path class="cls-3" d="M80,16.83c0-.7-.21-1.4.75-1.62.12,0,.19-.33.26-.51s-.18-.6.28-.86.82-.86,1.45-1c.48-.1.61.16.79.56s.55.63-.15.81c-.12,0-.29.21-.28.31,0,.46-.1.66-.58.79-.23.06-.31.54-.51.78A1.6,1.6,0,0,1,80,16.83Z"/><path class="cls-3" d="M103.48,22.75c0,.53.07.77,0,.93a4.93,4.93,0,0,0-.7,2.76c0,.39-.32.65-.77.69s-.45-.32-.64-.48c-.59-.49.06-1.27-.56-1.66.18-.12.53-.24.52-.35C101.22,23.12,102.66,23.57,103.48,22.75Z"/><path class="cls-3" d="M109.7,22.92a4.11,4.11,0,0,1,.71.33c.22.17.55.36.58.59.13.87,1,1.23,1.34,1.94a.8.8,0,0,1-.07,1c-.35.37-.68.35-1.18.18s-.54-.8-.83-1.16C109.55,25,109.73,24,109.7,22.92Z"/></g></g></svg>