<svg xmlns="http://www.w3.org/2000/svg" viewBox="0 0 196.32 46.21"><defs><style>.cls-1{fill:none;stroke:#231815;stroke-linecap:round;stroke-linejoin:round;stroke-width:5px;}.cls-2{fill:#fff;}.cls-3{fill:#231815;}</style></defs><g id="レイヤー_1" data-name="レイヤー 1"><path class="cls-1" d="M113.87,13.92c.48-.29-.3-.45-.05-.9a3,3,0,0,0,.14-2.51,5.56,5.56,0,0,0-.74-1.43c-.62-.78.44-1.2.35-1.81a2.13,2.13,0,0,0-.19-.95A5.42,5.42,0,0,1,112.52,3c0-1.44-2.06-2.59-3.91-2.32-.5.7-1.09-.45-1.61.05s-1.43.19-2.15.29c-.49.07-1.22,0-1.43.16-.63.64-1.18-.2-1.64,0A1.5,1.5,0,0,1,100,1.06a.84.84,0,0,0-.66,0A.9.9,0,0,1,97.89,1a1.89,1.89,0,0,1-1.58.4c-.94,0-1.89,0-2.83,0s-1.72,0-2.57,0-1.64,0-2.4-.1-1.79.39-2.37.06A5.35,5.35,0,0,0,83.23,1C77.82,1,72.42,1,67,1c-.63,0-1.36.27-1.93-.24a1,1,0,0,0-.68-.13,6.14,6.14,0,0,1-4.74,0,2.1,2.1,0,0,0-1,0,15.17,15.17,0,0,1-6.57,0c-.26-.05-.59.18-.87.17s-.66-.18-1-.22a3,3,0,0,0-1,0c-.6.14-1.24.72-1.8.33-.78-.54-1.23.27-2,.1a6.26,6.26,0,0,0-2.55,0c-.76.15-1.24-.35-2-.25s-1.41-.2-2.06.2a.31.31,0,0,1-.23,0C38,.34,37.2.56,36.36.74c-.67.15-1.44,0-2.11.1a8.29,8.29,0,0,0-2.55.53c-.73.4-1.55-.64-2.36,0C28.11.64,26.72,1.07,25.4,1c-.45,0-.78.66-1.49.17-.24-.16-1,.17-1.47.19-.76,0-1.54,0-2.31,0s-1.76.24-2.27,0c-.81-.46-1.35.23-1.92,0a2.59,2.59,0,0,0-1.9,0c-.54-.62-1.15.22-1.62,0C10.83.59,9.11,1.17,7.47,1c-.83.73-1.58.07-2.36-.08A13.24,13.24,0,0,0,3,1.11L.45,4.33a1.62,1.62,0,0,1,.11.28,6,6,0,0,1,.2,2.53C.45,8,1.05,8.8.88,9.66s0,1.89-.07,2.83S1.36,14.24.33,15c.26.83,1.07,1.64,0,2.48A3.19,3.19,0,0,1,.39,21c1,.71,0,1.39-.07,2.08,1.26.69-.43,1.36,0,2.1.19.36-.77.85,0,1.27.11,1.44-.35,2.91.52,4.29-.83.7.28,1.36.05,2.1S1,34.59.78,35.44c-.11.5.85.78.18,1.34-.48.4.18,1.14-.54,1.66-.26.19-.29,1-.06,1.12.7.4-.11.91.39,1.41s.11,1.3.08,2a2.89,2.89,0,0,0,1.5,2.34.67.67,0,0,0,.52.07c.57-.58,1.21.25,1.4.08.73-.68,1.17.15,1.71.09,1-.09,2,.32,2.92-.35.4-.28,1.23.06,1.9-.28.36-.19,1.28.37,1.73.21a14,14,0,0,1,4.18-.38c.52,0,1.22-.4,1.49-.24a2,2,0,0,0,1.66.21c.79-.29,1.74-.64,2.33-.3.9.52,1.45-.44,2.21-.08a3.33,3.33,0,0,0,1.35.34c.43,0,.87-.31,1.3-.3s1.21.43,1.28.35c.71-.78,1.67,0,2.54-.29a4,4,0,0,1,3.15.23c.25.16.94,0,1.35-.16a1.55,1.55,0,0,1,1.6.09,1,1,0,0,0,.66.15c1-.8,2.28-.25,3.41-.37a2.88,2.88,0,0,1,1.68.23c.37.18,1.15-.24,1.75-.23s1.53.44,2,.24a1.73,1.73,0,0,1,2,.12.9.9,0,0,0,.66-.12c.57-.51,1.45,0,1.89-.31.77-.54,1.28.27,1.94.06s1.38-.47,1.76-.29c1.77.84,3.9-.39,5.57.68.64-.69,1.6-.46,2.35-.36s1.56-.65,2.38-.11c.26-.74.81.26,1.33-.15.37-.28,1.26-.18,1.92-.17.5,0,1.26.35,1.46.19.8-.62,1.16.3,1.76.2s1-.17,1.43-.21c.81-.06,1.62-.09,2.43-.1.18,0,.48.21.52.18.64-.57,1.46-.17,2.19-.27a3.62,3.62,0,0,1,2.1.39c.61.29,1.13-.56,1.93,0,.46.29,1.42,0,2.08.43s1.24-.69,1.87,0c.36-.63,1.12-.14,1.71-.33.74-.24,1.78.17,2.67.1.55,0,1.06.24,1.67,0a4.17,4.17,0,0,1,1.71-.14c.53,0,1.29.45,1.52.3A2.72,2.72,0,0,1,97,44.33c.6,0,1.2,0,1.8,0,.2,0,.37.29.59.33.6.11,1.21.65,1.86.06a61.09,61.09,0,0,0,9.49-.5l1.51-1.88c.08-.1.27-.27.26-.28-1.06-.73-.23-1.75-.62-2.63-.28-.63-.8-1.57-.28-2.15s.34-1.27.44-1.9a5.54,5.54,0,0,1,0-1c.17-.47.6-.91.67-1.39a7.12,7.12,0,0,0-.18-1.56c0-.6,0-1.21,0-1.82s-.27-1.24.06-1.58c.61-.62-.34-1-.07-1.53.12-.23,0-.58.2-.73.46-.39.24-.61,0-1s0-1,0-1.48c0-.31.24-.61.26-.92.06-.71-.22-1.5.81-2,.08,0,.13-.24.09-.27a1.15,1.15,0,0,1-.3-1.67c.6-.69-.29-1.15-.09-1.73.16-.42-.21-.94.42-1.3a.43.43,0,0,0,0-.51C113.6,14.58,113.3,14.27,113.87,13.92Z"/><path class="cls-1" d="M195.61,32.64c-.11-1.27.4-2.67-.16-3.81a6,6,0,0,1-.35-3.1c0-.43,0-.85,0-1.29a5.28,5.28,0,0,1,.36-3.1c.5-.9.34-2.07.68-3.11-.85-.43-.52-1.08-.55-1.65s.73-1,0-1.49a1.81,1.81,0,0,0,.45-2.42c-.57-.77,1-1.63-.44-2.19-.05,0,.08-.36.19-.53a2,2,0,0,0-.06-2.6.6.6,0,0,1-.06-.54c.11-.39.57-1,.4-1.11-.82-.51.49-1,0-1.27-1-.54.58-.89.07-1.33a7.3,7.3,0,0,0,0-.81c0-.53-.47-.87-1.19-.9-2.16-.09-4.36.22-6.49-.38-.28-.08-.75.29-1.16.36-.89.15-.45-.68-.9-.74-1.31-.18-2.72.14-3.94-.46-.59.61-1.13.42-1.81,0a2,2,0,0,0-1.24.17,1.43,1.43,0,0,1-1.2,0c-.49-.13-1.08-.11-1.65-.21a2.8,2.8,0,0,0-1.82.21c-.4.22-1.17-.64-1.71.08-1.15-.35-2.24.23-3.41.11-1.38-.13-3,.28-4.13-.12s-2.1.72-2.72-.31a17.14,17.14,0,0,1-7.93,0,.72.72,0,0,0-.5.08c-.47.51-1.19.33-1.79.3-1.16-.06-2.33,0-3.51-.15s-2.22.27-3.37-.21c-.36-.15-1.26.3-1.54.13A4.16,4.16,0,0,0,141.3.17c-1.59.21-3.31-.46-4.82.39-.12.07-.48-.09-.73-.14-.42-.09-1-.34-1.23-.22a3.54,3.54,0,0,1-2.8.31c-.88-.49-1.92.59-2.46-.33-.78.76-1.49-.36-2.35,0-.45.16-1.06.65-1.79.06-.47-.38-1.21.55-1.81.12-.9-.66-1.11.46-2,.31A19.5,19.5,0,0,0,118,.57h-3.64a14.16,14.16,0,0,1-3.33,0c-1.17-.31-2.2.43-3.18,0-1.13-.46-2.18,0-3.17.1a4.51,4.51,0,0,1-2.18.11c-.67-.19-1.69.31-2.44.17a10.15,10.15,0,0,0-2.64,0C95,1.09,92.6,1,90.18,1c-.78,0-2.55.63-2.61,1.16C87.34,4,86.21,5.75,86.39,7.67c0,.41.71.75.1,1.31-.37.34.07,1.09-.19,1.55s-.06.46,0,.74a20.24,20.24,0,0,1,.13,3.21c-.89.26.29.86-.39,1.17-.88.41-.43,1-.39,1.57a6.76,6.76,0,0,1,.2,1.15c0,.44-.29.87-.32,1.31s.44.79.26.95c-.64.56-.71,1,0,1.57.22.19.14.64,0,.93-.9,2.15-.44,4.34-.22,6.5,0,.48.27.87,0,1.4s.4,1.09.25,1.57a2.93,2.93,0,0,0,0,2,6.2,6.2,0,0,1,0,2v1.82a13.58,13.58,0,0,0,0,2,9.41,9.41,0,0,0,.53,1.66c-1.42.32.42,1.15-.46,1.55-.13,1.28,1.07,1.87,2.71,1.73a49.5,49.5,0,0,1,7.1-.09c.65,0,1.34.4,1.9,0,.9-.68,1.19.67,1.92.25,1.32-.77,2.84-.27,4.26-.38,1-.08,2.24.22,3-.11a4.93,4.93,0,0,1,2.9-.24,8.27,8.27,0,0,0,2.35-.08c.87-.06,1.83.26,2.61-.35.18-.14.85,0,1.28.09s.85.3.92.24c.93-.82,1.78-.17,2.66,0,.46.11,1.17.41,1.35.29a2.37,2.37,0,0,1,2.28-.14c.84.44,1.14-.38,1.89-.19a10.92,10.92,0,0,0,2.5,0c.84,0,1.68,0,2.52,0a12.51,12.51,0,0,1,2.69.18c.84.21,1.34-.4,2.18-.24.57.12,1.49-.46,1.94-.3a5.4,5.4,0,0,0,2.05.35,10.2,10.2,0,0,1,2.22,0,2.77,2.77,0,0,0,1.82,0c.32-.12.91.45,1.43,0,.33.6,1.31-.41,1.58.34.58-.13,1.14-.29,1.73-.38a2.05,2.05,0,0,1,.74.14c.32.07.91.22.92.2.54-.89,1.39.18,2-.18.84-.5,1.47.06,2.19.21a1.9,1.9,0,0,0,1.09,0c.75-.61,1.4,0,2.08,0,.87,0,1.85-.33,2.63.29a1.12,1.12,0,0,0,.73,0c2.41-.74,4.92-.13,7.36-.33.78.55,1.74-.25,2.3,0,1,.51,1.77,0,2.65,0a13.53,13.53,0,0,1,4,.38,11.84,11.84,0,0,0,2.23,0h2.24c.75,0,1.49,0,2.24,0a12.87,12.87,0,0,1,1.87.18,5.17,5.17,0,0,0,1.68-.16,10.45,10.45,0,0,1,2.5,0,5.68,5.68,0,0,1,1.9.57c.64.33,1.22-.73,1.76,0,.87-.14,2,0,2.46-.66a1.3,1.3,0,0,0,.11-1.45c-.42-.46-.31-.88-.35-1.32a4.83,4.83,0,0,1,0-1.42c.1-.49.46-1,.51-1.45.09-.87-.36-1.9.13-2.59s-1-1.63.45-2.18c0,0,0-.29-.1-.36C195.12,34.12,195.66,33.34,195.61,32.64Z"/><path class="cls-2" d="M113.87,13.92c.48-.29-.3-.45-.05-.9a3,3,0,0,0,.14-2.51,5.56,5.56,0,0,0-.74-1.43c-.62-.78.44-1.2.35-1.81a2.13,2.13,0,0,0-.19-.95A5.42,5.42,0,0,1,112.52,3c0-1.44-2.06-2.59-3.91-2.32-.5.7-1.09-.45-1.61.05s-1.43.19-2.15.29c-.49.07-1.22,0-1.43.16-.63.64-1.18-.2-1.64,0A1.5,1.5,0,0,1,100,1.06a.84.84,0,0,0-.66,0A.9.9,0,0,1,97.89,1a1.89,1.89,0,0,1-1.58.4c-.94,0-1.89,0-2.83,0s-1.72,0-2.57,0-1.64,0-2.4-.1-1.79.39-2.37.06A5.35,5.35,0,0,0,83.23,1C77.82,1,72.42,1,67,1c-.63,0-1.36.27-1.93-.24a1,1,0,0,0-.68-.13,6.14,6.14,0,0,1-4.74,0,2.1,2.1,0,0,0-1,0,15.17,15.17,0,0,1-6.57,0c-.26-.05-.59.18-.87.17s-.66-.18-1-.22a3,3,0,0,0-1,0c-.6.14-1.24.72-1.8.33-.78-.54-1.23.27-2,.1a6.26,6.26,0,0,0-2.55,0c-.76.15-1.24-.35-2-.25s-1.41-.2-2.06.2a.31.31,0,0,1-.23,0C38,.34,37.2.56,36.36.74c-.67.15-1.44,0-2.11.1a8.29,8.29,0,0,0-2.55.53c-.73.4-1.55-.64-2.36,0C28.11.64,26.72,1.07,25.4,1c-.45,0-.78.66-1.49.17-.24-.16-1,.17-1.47.19-.76,0-1.54,0-2.31,0s-1.76.24-2.27,0c-.81-.46-1.35.23-1.92,0a2.59,2.59,0,0,0-1.9,0c-.54-.62-1.15.22-1.62,0C10.83.59,9.11,1.17,7.47,1c-.83.73-1.58.07-2.36-.08A13.24,13.24,0,0,0,3,1.11L.45,4.33a1.62,1.62,0,0,1,.11.28,6,6,0,0,1,.2,2.53C.45,8,1.05,8.8.88,9.66s0,1.89-.07,2.83S1.36,14.24.33,15c.26.83,1.07,1.64,0,2.48A3.19,3.19,0,0,1,.39,21c1,.71,0,1.39-.07,2.08,1.26.69-.43,1.36,0,2.1.19.36-.77.85,0,1.27.11,1.44-.35,2.91.52,4.29-.83.7.28,1.36.05,2.1S1,34.59.78,35.44c-.11.5.85.78.18,1.34-.48.4.18,1.14-.54,1.66-.26.19-.29,1-.06,1.12.7.4-.11.91.39,1.41s.11,1.3.08,2a2.89,2.89,0,0,0,1.5,2.34.67.67,0,0,0,.52.07c.57-.58,1.21.25,1.4.08.73-.68,1.17.15,1.71.09,1-.09,2,.32,2.92-.35.4-.28,1.23.06,1.9-.28.36-.19,1.28.37,1.73.21a14,14,0,0,1,4.18-.38c.52,0,1.22-.4,1.49-.24a2,2,0,0,0,1.66.21c.79-.29,1.74-.64,2.33-.3.9.52,1.45-.44,2.21-.08a3.33,3.33,0,0,0,1.35.34c.43,0,.87-.31,1.3-.3s1.21.43,1.28.35c.71-.78,1.67,0,2.54-.29a4,4,0,0,1,3.15.23c.25.16.94,0,1.35-.16a1.55,1.55,0,0,1,1.6.09,1,1,0,0,0,.66.15c1-.8,2.28-.25,3.41-.37a2.88,2.88,0,0,1,1.68.23c.37.18,1.15-.24,1.75-.23s1.53.44,2,.24a1.73,1.73,0,0,1,2,.12.9.9,0,0,0,.66-.12c.57-.51,1.45,0,1.89-.31.77-.54,1.28.27,1.94.06s1.38-.47,1.76-.29c1.77.84,3.9-.39,5.57.68.64-.69,1.6-.46,2.35-.36s1.56-.65,2.38-.11c.26-.74.81.26,1.33-.15.37-.28,1.26-.18,1.92-.17.5,0,1.26.35,1.46.19.8-.62,1.16.3,1.76.2s1-.17,1.43-.21c.81-.06,1.62-.09,2.43-.1.18,0,.48.21.52.18.64-.57,1.46-.17,2.19-.27a3.62,3.62,0,0,1,2.1.39c.61.29,1.13-.56,1.93,0,.46.29,1.42,0,2.08.43s1.24-.69,1.87,0c.36-.63,1.12-.14,1.71-.33.74-.24,1.78.17,2.67.1.55,0,1.06.24,1.67,0a4.17,4.17,0,0,1,1.71-.14c.53,0,1.29.45,1.52.3A2.72,2.72,0,0,1,97,44.33c.6,0,1.2,0,1.8,0,.2,0,.37.29.59.33.6.11,1.21.65,1.86.06a61.09,61.09,0,0,0,9.49-.5l1.51-1.88c.08-.1.27-.27.26-.28-1.06-.73-.23-1.75-.62-2.63-.28-.63-.8-1.57-.28-2.15s.34-1.27.44-1.9a5.54,5.54,0,0,1,0-1c.17-.47.6-.91.67-1.39a7.12,7.12,0,0,0-.18-1.56c0-.6,0-1.21,0-1.82s-.27-1.24.06-1.58c.61-.62-.34-1-.07-1.53.12-.23,0-.58.2-.73.46-.39.24-.61,0-1s0-1,0-1.48c0-.31.24-.61.26-.92.06-.71-.22-1.5.81-2,.08,0,.13-.24.09-.27a1.15,1.15,0,0,1-.3-1.67c.6-.69-.29-1.15-.09-1.73.16-.42-.21-.94.42-1.3a.43.43,0,0,0,0-.51C113.6,14.58,113.3,14.27,113.87,13.92Z"/><path class="cls-2" d="M195.61,32.64c-.11-1.27.4-2.67-.16-3.81a6,6,0,0,1-.35-3.1c0-.43,0-.85,0-1.29a5.28,5.28,0,0,1,.36-3.1c.5-.9.34-2.07.68-3.11-.85-.43-.52-1.08-.55-1.65s.73-1,0-1.49a1.81,1.81,0,0,0,.45-2.42c-.57-.77,1-1.63-.44-2.19-.05,0,.08-.36.19-.53a2,2,0,0,0-.06-2.6.6.6,0,0,1-.06-.54c.11-.39.57-1,.4-1.11-.82-.51.49-1,0-1.27-1-.54.58-.89.07-1.33a7.3,7.3,0,0,0,0-.81c0-.53-.47-.87-1.19-.9-2.16-.09-4.36.22-6.49-.38-.28-.08-.75.29-1.16.36-.89.15-.45-.68-.9-.74-1.31-.18-2.72.14-3.94-.46-.59.61-1.13.42-1.81,0a2,2,0,0,0-1.24.17,1.43,1.43,0,0,1-1.2,0c-.49-.13-1.08-.11-1.65-.21a2.8,2.8,0,0,0-1.82.21c-.4.22-1.17-.64-1.71.08-1.15-.35-2.24.23-3.41.11-1.38-.13-3,.28-4.13-.12s-2.1.72-2.72-.31a17.14,17.14,0,0,1-7.93,0,.72.72,0,0,0-.5.08c-.47.51-1.19.33-1.79.3-1.16-.06-2.33,0-3.51-.15s-2.22.27-3.37-.21c-.36-.15-1.26.3-1.54.13A4.16,4.16,0,0,0,141.3.17c-1.59.21-3.31-.46-4.82.39-.12.07-.48-.09-.73-.14-.42-.09-1-.34-1.23-.22a3.54,3.54,0,0,1-2.8.31c-.88-.49-1.92.59-2.46-.33-.78.76-1.49-.36-2.35,0-.45.16-1.06.65-1.79.06-.47-.38-1.21.55-1.81.12-.9-.66-1.11.46-2,.31A19.5,19.5,0,0,0,118,.57h-3.64a14.16,14.16,0,0,1-3.33,0c-1.17-.31-2.2.43-3.18,0-1.13-.46-2.18,0-3.17.1a4.51,4.51,0,0,1-2.18.11c-.67-.19-1.69.31-2.44.17a10.15,10.15,0,0,0-2.64,0C95,1.09,92.6,1,90.18,1c-.78,0-2.55.63-2.61,1.16C87.34,4,86.21,5.75,86.39,7.67c0,.41.71.75.1,1.31-.37.34.07,1.09-.19,1.55s-.06.46,0,.74a20.24,20.24,0,0,1,.13,3.21c-.89.26.29.86-.39,1.17-.88.41-.43,1-.39,1.57a6.76,6.76,0,0,1,.2,1.15c0,.44-.29.87-.32,1.31s.44.79.26.95c-.64.56-.71,1,0,1.57.22.19.14.64,0,.93-.9,2.15-.44,4.34-.22,6.5,0,.48.27.87,0,1.4s.4,1.09.25,1.57a2.93,2.93,0,0,0,0,2,6.2,6.2,0,0,1,0,2v1.82a13.58,13.58,0,0,0,0,2,9.41,9.41,0,0,0,.53,1.66c-1.42.32.42,1.15-.46,1.55-.13,1.28,1.07,1.87,2.71,1.73a49.5,49.5,0,0,1,7.1-.09c.65,0,1.34.4,1.9,0,.9-.68,1.19.67,1.92.25,1.32-.77,2.84-.27,4.26-.38,1-.08,2.24.22,3-.11a4.93,4.93,0,0,1,2.9-.24,8.27,8.27,0,0,0,2.35-.08c.87-.06,1.83.26,2.61-.35.18-.14.85,0,1.28.09s.85.3.92.24c.93-.82,1.78-.17,2.66,0,.46.11,1.17.41,1.35.29a2.37,2.37,0,0,1,2.28-.14c.84.44,1.14-.38,1.89-.19a10.92,10.92,0,0,0,2.5,0c.84,0,1.68,0,2.52,0a12.51,12.51,0,0,1,2.69.18c.84.21,1.34-.4,2.18-.24.57.12,1.49-.46,1.94-.3a5.4,5.4,0,0,0,2.05.35,10.2,10.2,0,0,1,2.22,0,2.77,2.77,0,0,0,1.82,0c.32-.12.91.45,1.43,0,.33.6,1.31-.41,1.58.34.58-.13,1.14-.29,1.73-.38a2.05,2.05,0,0,1,.74.14c.32.07.91.22.92.2.54-.89,1.39.18,2-.18.84-.5,1.47.06,2.19.21a1.9,1.9,0,0,0,1.09,0c.75-.61,1.4,0,2.08,0,.87,0,1.85-.33,2.63.29a1.12,1.12,0,0,0,.73,0c2.41-.74,4.92-.13,7.36-.33.78.55,1.74-.25,2.3,0,1,.51,1.77,0,2.65,0a13.53,13.53,0,0,1,4,.38,11.84,11.84,0,0,0,2.23,0h2.24c.75,0,1.49,0,2.24,0a12.87,12.87,0,0,1,1.87.18,5.17,5.17,0,0,0,1.68-.16,10.45,10.45,0,0,1,2.5,0,5.68,5.68,0,0,1,1.9.57c.64.33,1.22-.73,1.76,0,.87-.14,2,0,2.46-.66a1.3,1.3,0,0,0,.11-1.45c-.42-.46-.31-.88-.35-1.32a4.83,4.83,0,0,1,0-1.42c.1-.49.46-1,.51-1.45.09-.87-.36-1.9.13-2.59s-1-1.63.45-2.18c0,0,0-.29-.1-.36C195.12,34.12,195.66,33.34,195.61,32.64Z"/></g><g id="レイヤー_2" data-name="レイヤー 2"><path class="cls-3" d="M107.8,17.82c.34-1.11.64-2.07.94-3a4.4,4.4,0,0,1,1.12-1.44c.32-.12,1,.47.81.83-.36.75-.23,1.58-.54,2.35-.43,1.08-.14,1.39,1.08,1.65a4.25,4.25,0,0,1,1.17.48c.14.07.31.35.27.46-.11.28-.32.72-.5.73a4.87,4.87,0,0,1-2.14-.2c-.86-.43-.56.42-.86.57l-.8-.75v2.08c.26-.11.58-.34.71-.26.4.24.71.54,1.12,0,.3-.4.58.65.95.07.09.08.25.15.25.23,0,.67,0,1.35,0,2.15-.79-.38-1.52-.12-2.24-.38a.84.84,0,0,0-1.13.79c0,.24.31.51-.08.73a1.73,1.73,0,0,0,.61.16c.54-.05,1.11.2,1.62-.27.19-.17.66,0,1-.06.54-.05,1,0,1.25.6.1.3-.66,1.06-1.09,1.12l-3.09.38c.14.19.29.3.29.39,0,.39-.32.92-.15,1.14a1.7,1.7,0,0,1,.24,1.12c0,.44,0,.89,0,1.51-1-.31-1.56-.79-1.71-1.66-.06-.35-.58-.68,0-1.13.11-.09-.25-.66-.31-1-.08-.54-.22-.28-.48-.12s-.43.05-.65.08a1.11,1.11,0,0,1-1.28-.57c-.17-.34.61-1,1.22-1.15,1.17-.22,1.17-.22,1.07-1.72h-2.9a1,1,0,0,1,.56-1.38,8.53,8.53,0,0,1,1.61-.66c.78-.15.85-.45.52-1.07,0-.1.19-.35.39-.68-.81,0-1.55,0-2.27,0a2,2,0,0,1-.9-.24c-.15-.08-.33-.47-.27-.53.3-.34.7-.91,1-.88C105.43,18.3,106.55,17.66,107.8,17.82Z"/><path class="cls-3" d="M69.32,13.39H71a4.87,4.87,0,0,0-.22,1c0,.2.22.4.34.61.41-.82,1.08.21,1.66-.28a.8.8,0,0,1,1.31.68c0,.28,0,.56,0,.86a7.56,7.56,0,0,0-1.4.37.6.6,0,0,1-.73-.09c-.42-.3-.88.06-1.31.09a1,1,0,0,0-.72,1c0,.85-.12,1.71-.17,2.56,0,.43.14.58.54.48a1.52,1.52,0,0,0,.45-.16c.59-.37,1,.71,1.69.17a2.76,2.76,0,0,1,1.64-.15,6.65,6.65,0,0,1,1.39.41,2.21,2.21,0,0,1-2.58,1.3,1,1,0,0,0-.34,0,6.9,6.9,0,0,1-1.07.32,3.63,3.63,0,0,1-.82-.17c-.32-.06-.64-.09-1.06-.14,0,2.06.31,3.94,1.84,5.43.24.23.36.47.77.11.22-.2.77,0,1.17-.06s.29.5.53.71-.13.48-.27.57a4.19,4.19,0,0,1-2.89.39c-.42-.84-1.5-1.08-1.83-2a5.72,5.72,0,0,1-.7-2.28,5.77,5.77,0,0,0-.44-2.78c-.8.07-1.56.16-2.31.2-.92.06-1,0-1.38-.49-.11-.13-.24-.24-.36-.36a3,3,0,0,1,2.84-1,1.72,1.72,0,0,0,1.15-.3,2.4,2.4,0,0,0,.49-1.15c.17-.75-.26-1.57.24-2.32,0-.07-.24-.53-.41-.55a4.09,4.09,0,0,0-1.15.09c-.13,0-.33.11-.36.07-.39-.59-.93.43-1.41-.16-.15-.19-.4-.3-.35-.59s-.24-.7.3-.83a10.86,10.86,0,0,1,1.07-.32c.57-.06,1.15,0,1.72,0C69,14.7,69,14.69,69.32,13.39Z"/><path class="cls-3" d="M85.12,21.41a8,8,0,0,1-2.24-4,1.91,1.91,0,0,1,.32-1.28c.14-.26,1,0,1.14.38s0,.56.14.8a18.5,18.5,0,0,0,1,2c.39.68.75.75,1.27.1s1.47-.47,2-1.18c.19-.28,1.21.37,1.25.8,0,.23,0,.46,0,.68-.83.33-1.9.28-2.15,1.44-.85,0-.92.85-1.31,1.32a3.52,3.52,0,0,0-.65,3A2.08,2.08,0,0,0,88,27c.83,0,1.32,1.1,2.16.44.52.32.53.81.52,1.34s-.35.29-.59.38c-.46.18-.88.34-1.2-.21,0,0-.32.2-.47.17s-.36-.25-.56-.31a6.27,6.27,0,0,1-3.37-2.2,3.38,3.38,0,0,1-.42-2.48c.07-.55.28-1.06.34-1.57S84.81,21.8,85.12,21.41Z"/><path class="cls-3" d="M122.93,22.85a4.27,4.27,0,0,1,2.69,1.74c.54.58,1.22,1,1.73,1.64a8.14,8.14,0,0,0,1.87,1.25.94.94,0,0,1,.37,1.29.83.83,0,0,1-1.3.17,12.37,12.37,0,0,1-3.4-3c-.22-.36-.47-.2-.71-.26a.7.7,0,0,1-.29-.13,6.83,6.83,0,0,1-1.73-1.49c-.3-.5-.75-.82-1-1.27a1.65,1.65,0,0,1,.67-1.71c.64-.21.9-1,1.7-.92a.74.74,0,0,0,.53-.35c.72-1.21,2.25-1.48,3-2.64a7.79,7.79,0,0,1,1.61.09c.45.11.48.56.14.92a2.47,2.47,0,0,1-.49.48c-.42.23-1.06.3-1.25.64s-.43.82-1,.94c-.27.06,0,.76-.57.63s-.68.3-1,.54-.4.5-.83.53C123.45,22,123.26,22.44,122.93,22.85Z"/><path class="cls-3" d="M96.73,24.32c.33-.64.6.17.93,0a1.54,1.54,0,0,1,.84-.24c.35.08.68.58,1,.54,1.3-.23,1.89.55,2.49,1.44.22.33.7.63.44,1s-.08,1.3-.71,1.58a23.53,23.53,0,0,1-2.82,1.46c-.83.25-1.28-.13-2-.76-1.06-.91-.6-2.32-1.35-3.28.32-.36.2-.69.05-1.1-.06-.15.39-.48.58-.75S96.53,24.26,96.73,24.32ZM97.05,26a22,22,0,0,0,.68,2.13,1,1,0,0,0,.65.36c.35-.44.87-.19,1.24-.35s.64-.61,1-.93c-.34-.21-.3-.65-.8-.88C98.92,25.88,98.14,26.24,97.05,26Z"/><path class="cls-3" d="M115.77,17.53c.47.47.76.72,1,1,.1.11.18.38.13.44-.76.75.08,1.9-.68,2.65a8.18,8.18,0,0,0,.75,3,5.66,5.66,0,0,1,.62,1.45c.2.6.5.72,1,.37.08-.06.26,0,.34,0,1-.69,1.72-.1,2.49.53-.66.41-.91,1.35-1.94,1.25-.18,0-.54.38-.89.28a6.69,6.69,0,0,1-1.79-.64c-.6-.37-1.27-.75-1.31-1.65,0-.69-.55-1.24-.73-1.94a13.86,13.86,0,0,1-.29-3.14,3.52,3.52,0,0,1,1-2.7C115.59,18.26,115.61,18,115.77,17.53Z"/><path class="cls-3" d="M98.33,9.61c1.52.35,1.36,1.67,1.46,2.65a4.63,4.63,0,0,0,.5,1.87.74.74,0,0,0,.55.22c.65-.81,1.09.05,1.55.23s.38.38-.1.84a1.81,1.81,0,0,1-2.4.43c-.09,0-.36.22-.47.17-.71-.31-1.45.42-2.11,0s-1.44-.12-2.15-.25c-.26,0-.6-.07-.74-.24s-.37-.8-.28-.86c.35-.26.93-.64,1.2-.5a.8.8,0,0,0,1-.05c.25-.17.75,0,1.13,0,.62.1,1-.18.67-.68a.94.94,0,0,1,0-1.19c.06-.09.15-.25.12-.29C97.48,11.11,98.37,10.37,98.33,9.61Z"/><path class="cls-3" d="M100.33,19.53a2.84,2.84,0,0,0-1-.19,16.64,16.64,0,0,0-2.47.09c-.44.27-1-.16-1.41.35a1.15,1.15,0,0,1-.27-.21,2.12,2.12,0,0,1-.33-.72c0-.29-.14-.58.4-.73a17.26,17.26,0,0,1,2-.46c.73-.11,1.42-.42,2.13.06.11.07.39.11.44.05.41-.51,1-.26,1.44-.29a1.18,1.18,0,0,1,.77.18,1.46,1.46,0,0,1,.36.7c.09.31-.62,1.09-1.05,1.16A7.47,7.47,0,0,1,100.33,19.53Z"/><path class="cls-3" d="M78.87,29.41c0-.75.63-1,1-1.37a1.25,1.25,0,0,0,.38-1.22.68.68,0,0,0-.37-.4c-.65-.36-1.31-.7-2-1a1.8,1.8,0,0,1,.09-.31c.55-1,.56-1,1.78-.72a3.14,3.14,0,0,1,1.54.85,1.67,1.67,0,0,1,.7,1.6c0,.31.25.74.13,1A4.57,4.57,0,0,1,81,29.29c-.35.26-1,.17-1.44.21A3,3,0,0,1,78.87,29.41Z"/><path class="cls-3" d="M101.71,21.83c0,.44-.6,1-.9.71s-.6-.23-1,0-1-.17-1.37.38a9.15,9.15,0,0,0-1.3-.54c-.36-.11-.77-.05-1.14-.14a.66.66,0,0,1-.3-1.05c.3-.3.54-.87,1.13-.33a.73.73,0,0,0,.63-.08,2.53,2.53,0,0,1,2.08-.13c.18,0,.25.19.51,0a.91.91,0,0,1,.88,0A5.09,5.09,0,0,1,101.71,21.83Z"/><path class="cls-3" d="M105.61,13.09a5.73,5.73,0,0,0,.61,1.3c.68.75.34,1.72.67,2.54.25.62-.47.45-.69.7s-.38,0-.53-.18a12.34,12.34,0,0,1-.83-1.21c-.14-.23-.29-.7-.19-.79.51-.44-.21-.86.1-1.42S105.71,14,105.61,13.09Z"/></g></svg>