<svg xmlns="http://www.w3.org/2000/svg" viewBox="0 0 196.51 45.65"><defs><style>.cls-1{fill:none;stroke:#231815;stroke-linecap:round;stroke-linejoin:round;stroke-width:5px;}.cls-2{fill:#fff;}.cls-3{fill:#231815;}</style></defs><g id="レイヤー_1" data-name="レイヤー 1"><path class="cls-1" d="M195.59,40.14c.22-.28,0-.79,0-1.19s.24-.73.3-1.1c.08-.52.32-1.14.1-1.55a7.61,7.61,0,0,1-.45-1.66c-.16-.5.66-.75.16-1.36-.32-.4-.05-1.16-.13-1.76-.06-.37.87-.72,0-1.08.73-.23-.08-.7.2-1s-.73-.95.18-1.45c.4-.22-.7-.95.07-1.43-.19-1,.4-2-.33-2.91a.68.68,0,0,1-.07-.54,6.1,6.1,0,0,0,0-4c.53-.38-.16-.8,0-1,.3-.49-.09-1.08,0-1.27.51-.76.09-1.64.45-2.27.51-.87-.11-1.56-.07-2.32,0-.61-.23-1.34.06-1.8.43-.67-.11-1.15-.07-1.71a8.76,8.76,0,0,0,0-2.23,7,7,0,0,1-.18-1.83c0-.61-.68-1.27.18-1.81-.74-.41-.2-1.14-.5-1.63-.2-.31-.64-.86-1.05-.54-1.14.9-2.45-.26-3.56.37-.33-.62-1.17.28-1.48-.4-.6.72-1.24.4-1.88,0-1.4.74-2.93.19-4.39.34-.6.06-1.43-.21-1.77.05-.64.51-1-.23-1.48,0a3.49,3.49,0,0,1-2.83,0c-.14-.05-.39.11-.59.16s-.66.24-.75.15c-.65-.59-1.43-.27-2.14-.31-1.06-.05-2.13.06-3.19,0a5.77,5.77,0,0,0-3,.19c-.24.09-.63.24-.76.15-.87-.65-1.88-.2-2.82-.31-.58-.07-1.3.1-1.75-.14a1.52,1.52,0,0,0-1.59,0c-.42.19-.92-.63-1.44,0A1.16,1.16,0,0,1,158,1a2,2,0,0,0-2.21,0,1.75,1.75,0,0,1-1.47,0c-.58-.42-1.15-.25-1.71-.27a32.31,32.31,0,0,0-3.41,0c-.41,0-.44-.53-1.09-.21-1.47.75-3.13-.06-4.74,0-1.8.08-1.81-.25-3.53.11-.38.08-1,0-1.19-.21-.48-.65-1.14-.06-1.37-.19-.7-.4-1-.09-1.4.27-.14.13-.51.11-.75.07s-.81-.36-1-.25a3.82,3.82,0,0,1-2.34.36c-.71,0-1.42-.4-2.13,0-1-.59-2.33.57-3.3-.4-.94.92-1.87,0-2.81,0-.43,0-.85.13-1.28.18-.65.08-1.3.13-1.94.23s-1.4.27-2.09.39a.57.57,0,0,1-.41-.09c-.28-.24-.67-.54-.92-.18-.39.58-.61-.23-1,0a4.39,4.39,0,0,1-3,.19c-2-.33-2-.4-3.75.07a4.46,4.46,0,0,1-2.06.35c-.72-.2-1.15.73-2,.12-.44-.32-2,.67-2,1.17a10.35,10.35,0,0,1-.44,2.87,1.75,1.75,0,0,0,.36,1.83c-.64.51-.61,1,0,1.53-1,.38.19,1-.23,1.58s-.16,1.15-.17,1.74a6.8,6.8,0,0,1-.42,1.94c1.16.72-.53,1.38,0,2.08-.54.42-.24,1-.15,1.42s-.57.78.15,1c-.76.51-.32,1.24-.45,1.86s-.35,1.37-.44,2.06a6.17,6.17,0,0,0,0,1.82c.11.58-.67,1.07-.14,1.65-.69.55.31.93.2,1.54a9.52,9.52,0,0,0-.31,2.61c0,.37.22,1,.08,1.07-1,.44.37.95-.14,1.49a1.1,1.1,0,0,0,.18,1.62.47.47,0,0,1,0,.52c-.68.56-.3,1.27-.36,1.9-.18,2,.34,3.93-.34,5.86.75.39-.31.57-.13.93s.27.85.48,1.23c.1.18.41.25.63.37.56-.86,1.11-.15,1.67,0,.29.08.79.26.83.2.47-.74,1.2.67,1.61-.18.67.08,1.45.39,2,.19a4.59,4.59,0,0,1,2-.18c1,0,2.06-.32,3,.33,2.41-.82,4.91-.15,7.35-.34a5.2,5.2,0,0,1,1.93.23c.53.18.35-.12.48-.29s.41-.24.63-.36c.4,1,1.45-.36,1.93.41a16,16,0,0,1,2.55-.38c.92,0,1.91.48,2.74.29.54-.12.84.08,1.24.07s1.17-.32,1.28-.19c.54.69,1-.34,1.47,0a1.08,1.08,0,0,0,1.55-.19c.28.6.76,0,1.13.15,1,.48,2,.17,3.05.18.25-.66.94.37,1.36-.3.15-.23,1.15,0,1.74-.07s.85.57,1.49.07a2.27,2.27,0,0,1,1.76,0,10,10,0,0,0,3.47.38c1.68.1,3.41-.31,5.06.38a2.28,2.28,0,0,0,1.09-.06,7.68,7.68,0,0,1,1.21-.31c2,0,3.95-.1,5.92,0s3.88-.47,5.73.37a.41.41,0,0,0,.38-.12c.47-.71,1,.18,1.43-.05a1.2,1.2,0,0,1,1.58.1.65.65,0,0,0,.58,0c.4-.49,1-.28,1.46-.31,1.81-.12,3.66.27,5.44-.29.5.53,1.27-.62,1.83.26.12.2,1.12.2,1.51,0a5.28,5.28,0,0,1,3.24-.33c1.26.14,2.48-.77,3.72,0,.38-1,1.15.07,1.8-.25a4.86,4.86,0,0,1,2.42-.13,2.44,2.44,0,0,0,2.39-1.11C195.32,42.48,194.53,41.55,195.59,40.14Z"/><path class="cls-1" d="M1.06,40.14c-.25-.28,0-.79-.06-1.19s-.27-.73-.34-1.1C.57,37.33.29,36.71.55,36.3a7.33,7.33,0,0,0,.51-1.66c.18-.5-.76-.75-.19-1.36.38-.4.06-1.16.16-1.76.06-.37-1-.72,0-1.08-.84-.23.09-.7-.22-1S1.61,28.48.56,28c-.46-.22.81-.95-.07-1.43.21-1-.47-2,.38-2.91A.64.64,0,0,0,1,23.1a5.36,5.36,0,0,1,0-4c-.61-.38.19-.8,0-1-.34-.49.11-1.08,0-1.27-.58-.76-.1-1.64-.51-2.27-.58-.87.13-1.56.08-2.32,0-.61.26-1.34-.08-1.8-.49-.67.14-1.15.09-1.71a7.25,7.25,0,0,1,0-2.23A6,6,0,0,0,.73,4.67c0-.61.78-1.27-.21-1.81.85-.41.23-1.14.58-1.63C1.32.92,1.83.37,2.3.69c1.31.9,2.82-.26,4.09.37.38-.62,1.34.28,1.69-.4.7.72,1.43.4,2.16,0,1.61.74,3.36.19,5,.34.69.06,1.64-.21,2,.05.74.51,1.2-.23,1.71,0a4.52,4.52,0,0,0,3.24,0c.17-.05.45.11.68.16s.76.24.86.15c.74-.59,1.64-.27,2.46-.31,1.21-.05,2.45.06,3.65,0a7.6,7.6,0,0,1,3.49.19c.28.09.73.24.87.15,1-.65,2.16-.2,3.23-.31a7.47,7.47,0,0,0,2-.14,2,2,0,0,1,1.83,0c.48.19,1.06-.63,1.66,0A1.51,1.51,0,0,0,44.17,1a2.61,2.61,0,0,1,2.54,0,2.26,2.26,0,0,0,1.68,0,3.38,3.38,0,0,1,2-.27c1.31,0,2.62-.07,3.92,0,.47,0,.5-.53,1.24-.21,1.7.75,3.6-.06,5.45,0C63,.56,63,.23,65,.59A1.94,1.94,0,0,0,66.38.38C66.92-.27,67.69.32,68,.19c.8-.4,1.12-.09,1.6.27a1.45,1.45,0,0,0,.87.07c.4-.05.93-.36,1.13-.25a4.93,4.93,0,0,0,2.68.36c.82,0,1.63-.4,2.44,0,1.18-.59,2.68.57,3.79-.4,1.08.92,2.15,0,3.23,0,.49,0,1,.13,1.47.18.74.08,1.49.13,2.23.23s1.6.27,2.4.39A.71.71,0,0,0,90.25,1c.32-.24.77-.54,1-.18.46.58.71-.23,1.17,0A5.71,5.71,0,0,0,95.94,1c2.33-.33,2.3-.4,4.31.07a5.8,5.8,0,0,0,2.36.35c.83-.2,1.33.73,2.27.12.5-.32,2.26.67,2.24,1.17a8.85,8.85,0,0,0,.51,2.87,1.6,1.6,0,0,1-.42,1.83c.73.51.7,1,0,1.53,1.17.38-.21,1,.27,1.58s.19,1.15.19,1.74a6.57,6.57,0,0,0,.48,1.94c-1.32.72.61,1.38.07,2.08.61.42.27,1,.17,1.42s.65.78-.17,1c.87.51.37,1.24.51,1.86s.41,1.37.5,2.06a5.06,5.06,0,0,1,0,1.82c-.12.58.77,1.07.17,1.65.79.55-.36.93-.24,1.54a8,8,0,0,1,.36,2.61c0,.37-.25,1-.09,1.07,1.11.44-.42.95.16,1.49a1,1,0,0,1-.21,1.62.44.44,0,0,0,0,.52c.79.56.35,1.27.41,1.9.21,2-.38,3.93.4,5.86-.87.39.35.57.15.93s-.31.85-.56,1.23c-.11.18-.47.25-.72.37-.64-.86-1.28-.15-1.92,0a3.68,3.68,0,0,1-1,.2c-.54-.74-1.38.67-1.85-.18a6.54,6.54,0,0,1-2.27.19,6,6,0,0,0-2.25-.18c-1.14,0-2.37-.32-3.41.33-2.77-.82-5.63-.15-8.44-.34a6.85,6.85,0,0,0-2.22.23c-.6.18-.39-.12-.54-.29a2.42,2.42,0,0,0-.72-.36c-.46,1-1.68-.36-2.23.41a20.71,20.71,0,0,0-2.91-.38c-1.07,0-2.2.48-3.16.29a5.74,5.74,0,0,0-1.42.07c-.51,0-1.34-.32-1.47-.19-.62.69-1.14-.34-1.69,0a1.37,1.37,0,0,1-1.78-.19c-.32.6-.87,0-1.29.15-1.13.48-2.33.17-3.5.18-.29-.66-1.08.37-1.57-.3-.17-.23-1.31,0-2-.07s-1,.57-1.71.07a3,3,0,0,0-2,0,13.07,13.07,0,0,1-4,.38c-1.94.1-3.92-.31-5.81.38a3,3,0,0,1-1.25-.06,10.23,10.23,0,0,0-1.39-.31c-2.27,0-4.54-.1-6.79,0s-4.46-.47-6.59.37a.54.54,0,0,1-.44-.12c-.53-.71-1.15.18-1.63-.05a1.53,1.53,0,0,0-1.81.1.86.86,0,0,1-.67,0c-.46-.49-1.1-.28-1.68-.31-2.08-.12-4.2.27-6.25-.29-.57.53-1.46-.62-2.09.26a2.48,2.48,0,0,1-1.73,0,6.94,6.94,0,0,0-3.73-.33c-1.45.14-2.85-.77-4.27,0-.44-1-1.32.07-2.06-.25a6.38,6.38,0,0,0-2.78-.13A3,3,0,0,1,0,43.32C1.37,42.48,2.28,41.55,1.06,40.14Z"/><path class="cls-2" d="M195.59,40.14c.22-.28,0-.79,0-1.19s.24-.73.3-1.1c.08-.52.32-1.14.1-1.55a7.61,7.61,0,0,1-.45-1.66c-.16-.5.66-.75.16-1.36-.32-.4-.05-1.16-.13-1.76-.06-.37.87-.72,0-1.08.73-.23-.08-.7.2-1s-.73-.95.18-1.45c.4-.22-.7-.95.07-1.43-.19-1,.4-2-.33-2.91a.68.68,0,0,1-.07-.54,6.1,6.1,0,0,0,0-4c.53-.38-.16-.8,0-1,.3-.49-.09-1.08,0-1.27.51-.76.09-1.64.45-2.27.51-.87-.11-1.56-.07-2.32,0-.61-.23-1.34.06-1.8.43-.67-.11-1.15-.07-1.71a8.76,8.76,0,0,0,0-2.23,7,7,0,0,1-.18-1.83c0-.61-.68-1.27.18-1.81-.74-.41-.2-1.14-.5-1.63-.2-.31-.64-.86-1.05-.54-1.14.9-2.45-.26-3.56.37-.33-.62-1.17.28-1.48-.4-.6.72-1.24.4-1.88,0-1.4.74-2.93.19-4.39.34-.6.06-1.43-.21-1.77.05-.64.51-1-.23-1.48,0a3.49,3.49,0,0,1-2.83,0c-.14-.05-.39.11-.59.16s-.66.24-.75.15c-.65-.59-1.43-.27-2.14-.31-1.06-.05-2.13.06-3.19,0a5.77,5.77,0,0,0-3,.19c-.24.09-.63.24-.76.15-.87-.65-1.88-.2-2.82-.31-.58-.07-1.3.1-1.75-.14a1.52,1.52,0,0,0-1.59,0c-.42.19-.92-.63-1.44,0A1.16,1.16,0,0,1,158,1a2,2,0,0,0-2.21,0,1.75,1.75,0,0,1-1.47,0c-.58-.42-1.15-.25-1.71-.27a32.31,32.31,0,0,0-3.41,0c-.41,0-.44-.53-1.09-.21-1.47.75-3.13-.06-4.74,0-1.8.08-1.81-.25-3.53.11-.38.08-1,0-1.19-.21-.48-.65-1.14-.06-1.37-.19-.7-.4-1-.09-1.4.27-.14.13-.51.11-.75.07s-.81-.36-1-.25a3.82,3.82,0,0,1-2.34.36c-.71,0-1.42-.4-2.13,0-1-.59-2.33.57-3.3-.4-.94.92-1.87,0-2.81,0-.43,0-.85.13-1.28.18-.65.08-1.3.13-1.94.23s-1.4.27-2.09.39a.57.57,0,0,1-.41-.09c-.28-.24-.67-.54-.92-.18-.39.58-.61-.23-1,0a4.39,4.39,0,0,1-3,.19c-2-.33-2-.4-3.75.07a4.46,4.46,0,0,1-2.06.35c-.72-.2-1.15.73-2,.12-.44-.32-2,.67-2,1.17a10.35,10.35,0,0,1-.44,2.87,1.75,1.75,0,0,0,.36,1.83c-.64.51-.61,1,0,1.53-1,.38.19,1-.23,1.58s-.16,1.15-.17,1.74a6.8,6.8,0,0,1-.42,1.94c1.16.72-.53,1.38,0,2.08-.54.42-.24,1-.15,1.42s-.57.78.15,1c-.76.51-.32,1.24-.45,1.86s-.35,1.37-.44,2.06a6.17,6.17,0,0,0,0,1.82c.11.58-.67,1.07-.14,1.65-.69.55.31.93.2,1.54a9.52,9.52,0,0,0-.31,2.61c0,.37.22,1,.08,1.07-1,.44.37.95-.14,1.49a1.1,1.1,0,0,0,.18,1.62.47.47,0,0,1,0,.52c-.68.56-.3,1.27-.36,1.9-.18,2,.34,3.93-.34,5.86.75.39-.31.57-.13.93s.27.85.48,1.23c.1.18.41.25.63.37.56-.86,1.11-.15,1.67,0,.29.08.79.26.83.2.47-.74,1.2.67,1.61-.18.67.08,1.45.39,2,.19a4.59,4.59,0,0,1,2-.18c1,0,2.06-.32,3,.33,2.41-.82,4.91-.15,7.35-.34a5.2,5.2,0,0,1,1.93.23c.53.18.35-.12.48-.29s.41-.24.63-.36c.4,1,1.45-.36,1.93.41a16,16,0,0,1,2.55-.38c.92,0,1.91.48,2.74.29.54-.12.84.08,1.24.07s1.17-.32,1.28-.19c.54.69,1-.34,1.47,0a1.08,1.08,0,0,0,1.55-.19c.28.6.76,0,1.13.15,1,.48,2,.17,3.05.18.25-.66.94.37,1.36-.3.15-.23,1.15,0,1.74-.07s.85.57,1.49.07a2.27,2.27,0,0,1,1.76,0,10,10,0,0,0,3.47.38c1.68.1,3.41-.31,5.06.38a2.28,2.28,0,0,0,1.09-.06,7.68,7.68,0,0,1,1.21-.31c2,0,3.95-.1,5.92,0s3.88-.47,5.73.37a.41.41,0,0,0,.38-.12c.47-.71,1,.18,1.43-.05a1.2,1.2,0,0,1,1.58.1.65.65,0,0,0,.58,0c.4-.49,1-.28,1.46-.31,1.81-.12,3.66.27,5.44-.29.5.53,1.27-.62,1.83.26.12.2,1.12.2,1.51,0a5.28,5.28,0,0,1,3.24-.33c1.26.14,2.48-.77,3.72,0,.38-1,1.15.07,1.8-.25a4.86,4.86,0,0,1,2.42-.13,2.44,2.44,0,0,0,2.39-1.11C195.32,42.48,194.53,41.55,195.59,40.14Z"/><path class="cls-2" d="M1.06,40.14c-.25-.28,0-.79-.06-1.19s-.27-.73-.34-1.1C.57,37.33.29,36.71.55,36.3a7.33,7.33,0,0,0,.51-1.66c.18-.5-.76-.75-.19-1.36.38-.4.06-1.16.16-1.76.06-.37-1-.72,0-1.08-.84-.23.09-.7-.22-1S1.61,28.48.56,28c-.46-.22.81-.95-.07-1.43.21-1-.47-2,.38-2.91A.64.64,0,0,0,1,23.1a5.36,5.36,0,0,1,0-4c-.61-.38.19-.8,0-1-.34-.49.11-1.08,0-1.27-.58-.76-.1-1.64-.51-2.27-.58-.87.13-1.56.08-2.32,0-.61.26-1.34-.08-1.8-.49-.67.14-1.15.09-1.71a7.25,7.25,0,0,1,0-2.23A6,6,0,0,0,.73,4.67c0-.61.78-1.27-.21-1.81.85-.41.23-1.14.58-1.63C1.32.92,1.83.37,2.3.69c1.31.9,2.82-.26,4.09.37.38-.62,1.34.28,1.69-.4.7.72,1.43.4,2.16,0,1.61.74,3.36.19,5,.34.69.06,1.64-.21,2,.05.74.51,1.2-.23,1.71,0a4.52,4.52,0,0,0,3.24,0c.17-.05.45.11.68.16s.76.24.86.15c.74-.59,1.64-.27,2.46-.31,1.21-.05,2.45.06,3.65,0a7.6,7.6,0,0,1,3.49.19c.28.09.73.24.87.15,1-.65,2.16-.2,3.23-.31a7.47,7.47,0,0,0,2-.14,2,2,0,0,1,1.83,0c.48.19,1.06-.63,1.66,0A1.51,1.51,0,0,0,44.17,1a2.61,2.61,0,0,1,2.54,0,2.26,2.26,0,0,0,1.68,0,3.38,3.38,0,0,1,2-.27c1.31,0,2.62-.07,3.92,0,.47,0,.5-.53,1.24-.21,1.7.75,3.6-.06,5.45,0C63,.56,63,.23,65,.59A1.94,1.94,0,0,0,66.38.38C66.92-.27,67.69.32,68,.19c.8-.4,1.12-.09,1.6.27a1.45,1.45,0,0,0,.87.07c.4-.05.93-.36,1.13-.25a4.93,4.93,0,0,0,2.68.36c.82,0,1.63-.4,2.44,0,1.18-.59,2.68.57,3.79-.4,1.08.92,2.15,0,3.23,0,.49,0,1,.13,1.47.18.74.08,1.49.13,2.23.23s1.6.27,2.4.39A.71.71,0,0,0,90.25,1c.32-.24.77-.54,1-.18.46.58.71-.23,1.17,0A5.71,5.71,0,0,0,95.94,1c2.33-.33,2.3-.4,4.31.07a5.8,5.8,0,0,0,2.36.35c.83-.2,1.33.73,2.27.12.5-.32,2.26.67,2.24,1.17a8.85,8.85,0,0,0,.51,2.87,1.6,1.6,0,0,1-.42,1.83c.73.51.7,1,0,1.53,1.17.38-.21,1,.27,1.58s.19,1.15.19,1.74a6.57,6.57,0,0,0,.48,1.94c-1.32.72.61,1.38.07,2.08.61.42.27,1,.17,1.42s.65.78-.17,1c.87.51.37,1.24.51,1.86s.41,1.37.5,2.06a5.06,5.06,0,0,1,0,1.82c-.12.58.77,1.07.17,1.65.79.55-.36.93-.24,1.54a8,8,0,0,1,.36,2.61c0,.37-.25,1-.09,1.07,1.11.44-.42.95.16,1.49a1,1,0,0,1-.21,1.62.44.44,0,0,0,0,.52c.79.56.35,1.27.41,1.9.21,2-.38,3.93.4,5.86-.87.39.35.57.15.93s-.31.85-.56,1.23c-.11.18-.47.25-.72.37-.64-.86-1.28-.15-1.92,0a3.68,3.68,0,0,1-1,.2c-.54-.74-1.38.67-1.85-.18a6.54,6.54,0,0,1-2.27.19,6,6,0,0,0-2.25-.18c-1.14,0-2.37-.32-3.41.33-2.77-.82-5.63-.15-8.44-.34a6.85,6.85,0,0,0-2.22.23c-.6.18-.39-.12-.54-.29a2.42,2.42,0,0,0-.72-.36c-.46,1-1.68-.36-2.23.41a20.71,20.71,0,0,0-2.91-.38c-1.07,0-2.2.48-3.16.29a5.74,5.74,0,0,0-1.42.07c-.51,0-1.34-.32-1.47-.19-.62.69-1.14-.34-1.69,0a1.37,1.37,0,0,1-1.78-.19c-.32.6-.87,0-1.29.15-1.13.48-2.33.17-3.5.18-.29-.66-1.08.37-1.57-.3-.17-.23-1.31,0-2-.07s-1,.57-1.71.07a3,3,0,0,0-2,0,13.07,13.07,0,0,1-4,.38c-1.94.1-3.92-.31-5.81.38a3,3,0,0,1-1.25-.06,10.23,10.23,0,0,0-1.39-.31c-2.27,0-4.54-.1-6.79,0s-4.46-.47-6.59.37a.54.54,0,0,1-.44-.12c-.53-.71-1.15.18-1.63-.05a1.53,1.53,0,0,0-1.81.1.86.86,0,0,1-.67,0c-.46-.49-1.1-.28-1.68-.31-2.08-.12-4.2.27-6.25-.29-.57.53-1.46-.62-2.09.26a2.48,2.48,0,0,1-1.73,0,6.94,6.94,0,0,0-3.73-.33c-1.45.14-2.85-.77-4.27,0-.44-1-1.32.07-2.06-.25a6.38,6.38,0,0,0-2.78-.13A3,3,0,0,1,0,43.32C1.37,42.48,2.28,41.55,1.06,40.14Z"/></g><g id="レイヤー_2" data-name="レイヤー 2"><path class="cls-3" d="M102,18c-.89-.13-1.62-.26-2.36-.34-.51-.06-1.08-.45-1.08-.82a.41.41,0,0,1,.12-.29,8.24,8.24,0,0,1,1.25-.72c.33-.14.63.05.9.31a1.08,1.08,0,0,0,.69.3c.25,0,.49-.25.74-.27.4,0,.4-.22.46-.53s.35-.81.46-.79a3.58,3.58,0,0,1,1.23.55.94.94,0,0,1,.25.67c0,.13-.42.28,0,.42a1.36,1.36,0,0,0,.35,0l2.43.23c0-.06.09-.16.08-.26a2.32,2.32,0,0,1,.77-2.24,4,4,0,0,1,3.1-.82,9.51,9.51,0,0,1,1.21.4,2.9,2.9,0,0,1,2.12,2.66,20.61,20.61,0,0,1,.44,4.16c0,.39-.65.83-.05,1.27,0,0,0,.39-.14.42a1.29,1.29,0,0,0-.81,1.83c.14.39-.27.84.26,1.17a2.7,2.7,0,0,0,1.18.53,6.3,6.3,0,0,1,1.7.71,4.48,4.48,0,0,1-1.4,1,1.92,1.92,0,0,1-1.44-.1A5.57,5.57,0,0,1,113,26.35c-.26-.24-.21-.27-.43-1.3,0-.15-.51-.21-1-.37a4.41,4.41,0,0,0,0,1.28c.32.92-.55,1.4-.73,2.12,0,.09-.4.19-.41.17-.22-.38-1-.1-.94-.74.08-.8-.37-1.71.5-2.38a.64.64,0,0,0,0-1,.59.59,0,0,0-.47-.14c-.83.47-1.32-.18-1.9-.52a.47.47,0,0,1-.17-.43c.24-.52,0-1.06.11-1.56,0-.24.39-.46.08-.7-.1-.08-.4,0-.57.12-1.15.67-2.51.58-3.85,1,.48.77,0,1.88,1.31,2.38.71.26,1.19,1.09,2,1.31.21.05.3.53.48.87l-1,.8c-.45-.43-1.16-.21-1.62-.7A9.77,9.77,0,0,0,103,25.48a7.53,7.53,0,0,0,0,1.44c.17.78-1,.63-.88,1.34-.18-.17-.35-.5-.61-.08-.09-.14-.26-.29-.24-.42.18-1.26-.44-2.6.33-3.81-.61-.48-.37-.93,0-1.46.11-.15-.08-.51-.14-.77-.19.07-.4.24-.58.21a6.77,6.77,0,0,1-1.64-.39.81.81,0,0,1,0-1.43c.47-.18.89-.76,1.6-.17.42.36,1-.18,1.08-.86C102,18.75,102,18.4,102,18Zm11.41.55c-1.54.15-2.73-.87-4.16-.63.2.39.62.65.15,1.05-.1.09,0,.37,0,.57.65-.09,1.21.73,1.83.32s.89-.41,1.31.05c.25-.27.5-.34.72,0a5.1,5.1,0,0,0,.17-.61A6.48,6.48,0,0,0,113.39,18.59Zm-9.89,1a10.3,10.3,0,0,0,2.48-.05c.4-.11.63-.36,1,0,.06.08.35.06.44,0a.53.53,0,0,0,.08-.45c0-.24-.33-.59-.26-.69.69-.85-.29-.52-.38-.48a1.86,1.86,0,0,1-1.71.21,4.17,4.17,0,0,0-1-.24C104,18.52,104.28,19.1,103.5,19.6Zm8.84-3.06c0-.94-.62-.89-1-1.18a1.71,1.71,0,0,0-1.47-.15c-.25,0-.48.51-.61.83,0,.07.38.46.61.48C110.68,16.58,111.48,16.54,112.34,16.54Zm.61,5.17a6.68,6.68,0,0,1-1,0c-.25,0-.49-.24-.74-.25s-.69.27-.81.17c-.6-.57-.83-.09-1.11.28.29.17.71.52.81.45C111,21.66,112.1,22.38,113,21.71Z"/><path class="cls-3" d="M82.07,19.23c-.86.18-1.53-.21-2,.41-.31-.63-.65.15-.92,0a9,9,0,0,1-1-.87,5.39,5.39,0,0,1,.41-.9.67.67,0,0,1,.51-.27c.87.07.9.09.85-.52,0-.36-.41-.87-.28-1a1.5,1.5,0,0,0,.29-1.1c0-.22,0-.45,0-.78a6.52,6.52,0,0,0-2.49.56c-.36.1-1.21-.34-1.27-.79a1,1,0,0,1,.48-.79A4.41,4.41,0,0,1,78,12.76c.48-.08,1,.12,1.43-.33.07-.07.45.16.74.27V11.08L81.52,11c.23,0,.16.05.52.78a1.79,1.79,0,0,0,1,.9,10.46,10.46,0,0,0,2.24,0c.15,0,.4-.07.43-.17.29-.88,1.11.19,1.46-.4a5.64,5.64,0,0,1,1,.94c.13.22.11.56-.41.72s-.87.78-1.63.68c-.49-.06-1,.76-1,1.32,0,.4,0,.8,0,1.32l1.36.14c0,.69.21,1.27-.77,1.73a1.71,1.71,0,0,1-1.89-.23v2.5c.33,0,.53-.49,1-.14A1,1,0,0,0,86,21a1.12,1.12,0,0,1,.72-.32c.14,0,.43.19.43.3a1.71,1.71,0,0,0,.35.91c.21.32-.13.57-.72.62-.28,0-.56.19-.84.2s-.39.19-.53.47-.3.33-1.3-.08c0,.48-.38,1,.59,1a5.16,5.16,0,0,1,1.4.36,6.05,6.05,0,0,1,1.51,1.15c-.71.15-1.23,1-2,.21-.13-.14-1.19.51-1.13.54.61.36-.1.77,0,1.09.36.74-.54.66-.69,1.08a1.5,1.5,0,0,1-.77-.13c-.42-.2-.45-.62-.39-1a2.21,2.21,0,0,0-.51-2.3,3.47,3.47,0,0,0-.94,1.42,2.58,2.58,0,0,1-1.51,1.35c-.34.15-1-.51-.82-.8.38-.56.23-1.39.72-1.75s.36-1.24,1.17-1.26c.06,0,.19-.31.14-.43-.16-.4-.28,0-.43,0-.52.08-1.5-.41-1.6-.85,0-.25-.2-.6.3-.83a3.91,3.91,0,0,1,1.6-.32c.71,0,.71,0,1-1C81.84,20.3,81.92,19.88,82.07,19.23ZM81.6,14.5c0,.76,0,1.38,0,2s.73.35.93.73c.27-.18.7-.3.77-.54a18.13,18.13,0,0,0,.39-2.19Z"/><path class="cls-3" d="M96.31,17.64c0,.53,1,1,.27,1.69A2.23,2.23,0,0,1,95,20a1.28,1.28,0,0,0-.82.45c-.09.09.08.47.2.68.3.53-.48,1.07,0,1.59-.66.93.36,1.87,0,2.81.57.42,0,.84,0,1.26s-.42.68-.88.83c-.31.1-.64.13-.74-.14,0,0-.09-.08-.09-.13a5.28,5.28,0,0,1,0-1.54c.12-.43-.43-.62-.15-1.15s-.19-1.12-.22-1.7c0-.85,0-1.7,0-2.68a19,19,0,0,0-2.28.47,1,1,0,0,0-.31.9,3.61,3.61,0,0,1,.53,1.86c0,.08.11.17.17.27.18.29.84.49.39.93a2.48,2.48,0,0,1-1.41.69c-.28,0-.79-.54-.84-.89C88.47,24,88.49,23.4,88,23c0,0,0-.17,0-.23a1.1,1.1,0,0,0,0-1.52c.43-.55.18-1-.27-1.33,0,0,.09-.25.05-.35-.22-.63.89-1.09.22-1.77.23-.4.43-.82.69-1.19A6.22,6.22,0,0,1,91.94,14c.66-.29,1.21-.16,1.41.34s-.12,1-.85,1.18-1.3.21-1.26,1.15c0,.18-.33.51-.55.56-1,.21-.79.93-.79,1.56.44,0,1-.21,1.28,0,.56.32.82-.4,1.35-.19.32.13.81-.26,1.22-.27s.74-.35,1.25-.16C95.33,18.24,95.86,17.82,96.31,17.64Z"/><path class="cls-3" d="M98.72,20.33l-.16-.2c.07,0,.19-.08.21-.06a.74.74,0,0,1,.1.26Z"/></g></svg>