<svg xmlns="http://www.w3.org/2000/svg" viewBox="0 0 195.91 45.02"><defs><style>.cls-1{fill:none;stroke:#231815;stroke-linecap:round;stroke-linejoin:round;stroke-width:5px;}.cls-2{fill:#fff;}.cls-3{fill:#231815;}</style></defs><g id="レイヤー_1" data-name="レイヤー 1"><path class="cls-1" d="M105.63,31.64c-.38.3.24.46,0,.9a3.76,3.76,0,0,0-.11,2.52,6.84,6.84,0,0,0,.59,1.43c.49.77-.35,1.19-.27,1.81a2.35,2.35,0,0,0,.15.94,6.69,6.69,0,0,1,.68,3.38,2.66,2.66,0,0,0,3.1,2.32c.39-.7.86.44,1.27,0s1.14-.2,1.71-.3c.38-.07,1,.06,1.13-.16.5-.63.93.2,1.3,0a1,1,0,0,1,1.42.11.51.51,0,0,0,.52,0c.44-.5.8-.36,1.15.08.31-.45.78-.4,1.25-.39h2.24c.68,0,1.36,0,2,0s1.3.05,1.9.09,1.42-.38,1.88-.05a3.57,3.57,0,0,0,2.31.34c4.28,0,8.57,0,12.85,0,.5,0,1.08-.26,1.53.24a.58.58,0,0,0,.54.13,4,4,0,0,1,3.75,0,1.2,1.2,0,0,0,.79,0,9.7,9.7,0,0,1,5.21,0c.21,0,.47-.18.7-.16s.51.17.78.21a2,2,0,0,0,.81,0c.48-.15,1-.72,1.43-.34.62.54,1-.26,1.55-.1a3.91,3.91,0,0,0,2,0c.61-.15,1,.34,1.59.25s1.11.2,1.63-.21a.17.17,0,0,1,.18,0c.55.6,1.15.39,1.81.2s1.14,0,1.67-.1a5.64,5.64,0,0,0,2-.52c.57-.41,1.22.63,1.87,0,1,.7,2.08.27,3.12.32.35,0,.62-.65,1.18-.16.19.16.76-.17,1.16-.2.61,0,1.23,0,1.84,0s1.39-.23,1.79,0c.65.47,1.07-.23,1.53,0a1.7,1.7,0,0,0,1.51,0c.42.63.9-.21,1.28,0,1.26.78,2.62.19,3.92.39.66-.74,1.26-.08,1.87.08a9.3,9.3,0,0,0,1.69-.21l2-3.22a1.61,1.61,0,0,1-.09-.29,7.77,7.77,0,0,1-.16-2.52c.25-.91-.22-1.67-.09-2.52s0-1.89,0-2.83-.43-1.76.39-2.47c-.21-.82-.85-1.64,0-2.48a3.9,3.9,0,0,1,0-3.55c-.81-.71,0-1.38.05-2.07-1-.7.35-1.37,0-2.11-.16-.36.6-.84,0-1.27-.09-1.43.28-2.91-.41-4.28.66-.7-.22-1.36,0-2.11s-.07-1.76.09-2.61c.08-.5-.68-.78-.14-1.35.37-.4-.15-1.14.42-1.65A1.15,1.15,0,0,0,195.62,6c-.55-.4.09-.92-.31-1.42s-.08-1.29-.06-2A3,3,0,0,0,194.06.28c-.09-.08-.37-.12-.41-.07-.45.59-1-.25-1.11-.07-.58.68-.93-.15-1.36-.1-.76.09-1.57-.32-2.31.35-.32.29-1-.06-1.51.29-.29.18-1-.37-1.37-.21a8.91,8.91,0,0,1-3.31.37c-.41,0-1,.4-1.19.25a1.32,1.32,0,0,0-1.31-.22c-.63.3-1.39.64-1.85.3-.72-.52-1.15.44-1.75.08a2.2,2.2,0,0,0-1.07-.33c-.35,0-.69.3-1,.29s-1-.43-1-.35c-.56.78-1.32,0-2,.29A2.56,2.56,0,0,1,169,.92c-.2-.15-.75,0-1.07.16A1,1,0,0,1,166.61,1c-.12-.11-.45-.21-.52-.14-.81.8-1.81.24-2.71.37A1.86,1.86,0,0,1,162.05,1c-.29-.18-.91.23-1.38.23S159.45.78,159.06,1a1.17,1.17,0,0,1-1.58-.12c-.07-.07-.42,0-.52.12-.45.51-1.15,0-1.5.3-.6.54-1-.26-1.54-.06s-1.09.47-1.39.29c-1.41-.84-3.09.4-4.42-.67-.5.69-1.26.45-1.86.36s-1.24.64-1.88.1c-.21.75-.65-.25-1.06.15s-1,.19-1.52.18-1-.35-1.16-.19c-.63.61-.92-.3-1.4-.2a10.68,10.68,0,0,1-1.13.2c-.64.06-1.28.09-1.92.1-.15,0-.39-.21-.42-.17-.51.56-1.16.17-1.73.27a2.38,2.38,0,0,1-1.67-.4c-.48-.29-.89.57-1.53.05-.36-.3-1.12,0-1.65-.44s-1,.69-1.48,0c-.29.62-.89.13-1.36.32s-1.41-.17-2.12-.1c-.43,0-.84-.23-1.32,0a2.56,2.56,0,0,1-1.36.13c-.42,0-1-.45-1.2-.29a1.8,1.8,0,0,1-1.31.3,9.74,9.74,0,0,1-1.43,0c-.16,0-.29-.29-.47-.33-.48-.11-1-.65-1.47-.06a38.56,38.56,0,0,0-7.53.51l-1.2,1.88c-.06.1-.21.27-.2.27.84.74.18,1.76.49,2.64.22.63.63,1.56.22,2.15s-.27,1.26-.35,1.89a6.6,6.6,0,0,1,0,1,11.94,11.94,0,0,0-.53,1.39,9.23,9.23,0,0,0,.14,1.56c0,.61,0,1.22,0,1.82s.22,1.25-.05,1.59c-.48.62.27,1,.06,1.52-.1.23,0,.58-.16.74-.37.38-.19.6,0,1a3.25,3.25,0,0,1,0,1.48c0,.31-.19.61-.21.92,0,.72.18,1.5-.64,2a.32.32,0,0,0-.07.27,1.33,1.33,0,0,1,.23,1.67c-.47.7.24,1.16.08,1.73s.17.94-.33,1.3a.53.53,0,0,0,0,.52C105.84,31,106.08,31.29,105.63,31.64Z"/><path class="cls-1" d="M113.45,31.64c.48.3-.3.46,0,.9a3,3,0,0,1,.14,2.52,5.69,5.69,0,0,1-.73,1.43c-.62.77.43,1.19.34,1.81-.05.32,0,.69-.19.94a5.43,5.43,0,0,0-.86,3.38c0,1.44-2,2.58-3.89,2.32-.5-.7-1.09.44-1.6,0s-1.43-.2-2.15-.3c-.48-.07-1.22.06-1.43-.16-.62-.63-1.16.2-1.63,0a1.47,1.47,0,0,0-1.78.11.8.8,0,0,1-.66,0,.9.9,0,0,0-1.43.08c-.4-.45-1-.4-1.58-.39H93.13c-.85,0-1.71,0-2.56,0s-1.63.05-2.38.09-1.79-.38-2.37-.05a5.51,5.51,0,0,1-2.9.34c-5.38,0-10.77,0-16.15,0-.63,0-1.35-.26-1.92.24a.85.85,0,0,1-.67.13,6.2,6.2,0,0,0-4.73,0,1.84,1.84,0,0,1-1,0,15.23,15.23,0,0,0-6.55,0c-.26,0-.59-.18-.87-.16s-.65.17-1,.21a3.17,3.17,0,0,1-1,0c-.6-.14-1.24-.72-1.79-.34-.78.54-1.23-.26-2-.1a6.16,6.16,0,0,1-2.53,0c-.76-.15-1.25.34-2,.25s-1.4.2-2.05-.21a.27.27,0,0,0-.23,0c-.69.6-1.44.39-2.28.2-.66-.14-1.43,0-2.09-.1a8.51,8.51,0,0,1-2.55-.52c-.72-.41-1.54.63-2.35,0-1.22.7-2.61.27-3.92.32-.45,0-.78-.65-1.49-.16-.24.16-1-.17-1.46-.2-.76,0-1.54,0-2.31,0s-1.75-.23-2.25,0c-.81.47-1.35-.23-1.92,0a2.65,2.65,0,0,1-1.9,0c-.53.63-1.13-.21-1.61,0-1.58.78-3.29.19-4.92.39-.83-.74-1.58-.08-2.36.08A14.36,14.36,0,0,1,3,44.46L.44,41.24A1.19,1.19,0,0,0,.56,41a6.09,6.09,0,0,0,.2-2.52c-.31-.91.28-1.67.11-2.52S.92,34,.81,33.08s.54-1.76-.49-2.47c.27-.82,1.07-1.64.06-2.48a3.21,3.21,0,0,0,0-3.55c1-.71,0-1.38-.06-2.07,1.26-.7-.43-1.37,0-2.11.19-.36-.76-.84,0-1.27C.43,17.7,0,16.22.83,14.85c-.82-.7.28-1.36.06-2.11S1,11,.78,10.13c-.11-.5.85-.78.18-1.35-.48-.4.18-1.14-.54-1.65C.16,6.94.13,6.14.36,6c.69-.4-.11-.92.39-1.42s.1-1.29.08-2A2.89,2.89,0,0,1,2.32.28.77.77,0,0,1,2.84.21C3.41.8,4.05,0,4.23.14,5,.82,5.4,0,5.94,0c1,.09,2-.32,2.91.35.39.29,1.22-.06,1.89.29C11.1.86,12,.31,12.46.47a14,14,0,0,0,4.17.37c.51,0,1.22.4,1.48.25A2,2,0,0,1,19.77.87c.78.3,1.73.64,2.32.3.9-.52,1.45.44,2.2.08A3.28,3.28,0,0,1,25.64.92c.43,0,.86.3,1.29.29S28.14.79,28.21.86c.71.78,1.66,0,2.53.29A3.9,3.9,0,0,0,33.87.92a2.22,2.22,0,0,1,1.35.16A1.49,1.49,0,0,0,36.81,1c.16-.11.58-.21.66-.14,1,.8,2.27.24,3.4.37A2.85,2.85,0,0,0,42.54,1c.37-.18,1.15.23,1.74.23s1.53-.44,2-.24a1.74,1.74,0,0,0,2-.12.85.85,0,0,1,.66.12c.57.51,1.45,0,1.89.3.76.54,1.26-.26,1.93-.06s1.37.47,1.75.29c1.77-.84,3.88.4,5.55-.67.63.69,1.59.45,2.34.36s1.56.64,2.37.1c.26.75.8-.25,1.32.15.37.28,1.26.19,1.92.18.5,0,1.25-.35,1.45-.19.8.61,1.16-.3,1.76-.2s1,.17,1.43.2c.8.06,1.6.09,2.41.1.18,0,.48-.21.52-.17.64.56,1.46.17,2.18.27a3.63,3.63,0,0,0,2.1-.4c.6-.29,1.12.57,1.92.05.46-.3,1.41,0,2.07-.44s1.23.69,1.86,0c.37.62,1.12.13,1.71.32s1.77-.17,2.66-.1c.55,0,1.06-.23,1.66,0a4,4,0,0,0,1.71.13C94,1.18,94.73.77,95,.93a2.83,2.83,0,0,0,1.65.31,17.78,17.78,0,0,0,1.79,0c.21,0,.37-.29.59-.33.61-.11,1.21-.65,1.85-.06a60.57,60.57,0,0,1,9.46.51c.49.6,1,1.24,1.51,1.88.08.1.27.27.26.27-1.06.74-.24,1.76-.63,2.64-.28.63-.79,1.56-.27,2.15s.34,1.26.43,1.89c.06.33-.06.69.05,1,.17.48.59.92.67,1.39a7,7,0,0,1-.19,1.56c0,.61,0,1.22,0,1.82s-.27,1.25.06,1.59c.62.62-.34,1-.07,1.52.13.23,0,.58.2.74.47.38.24.6,0,1s0,1,0,1.48c0,.31.24.61.27.92.06.72-.23,1.5.8,2,.08,0,.13.24.09.27a1.15,1.15,0,0,0-.29,1.67c.59.7-.3,1.16-.09,1.73s-.22.94.41,1.3a.45.45,0,0,1,0,.52C113.18,31,112.88,31.29,113.45,31.64Z"/><path class="cls-2" d="M105.63,31.64c-.38.3.24.46,0,.9a3.76,3.76,0,0,0-.11,2.52,6.84,6.84,0,0,0,.59,1.43c.49.77-.35,1.19-.27,1.81a2.35,2.35,0,0,0,.15.94,6.69,6.69,0,0,1,.68,3.38,2.66,2.66,0,0,0,3.1,2.32c.39-.7.86.44,1.27,0s1.14-.2,1.71-.3c.38-.07,1,.06,1.13-.16.5-.63.93.2,1.3,0a1,1,0,0,1,1.42.11.51.51,0,0,0,.52,0c.44-.5.8-.36,1.15.08.31-.45.78-.4,1.25-.39h2.24c.68,0,1.36,0,2,0s1.3.05,1.9.09,1.42-.38,1.88-.05a3.57,3.57,0,0,0,2.31.34c4.28,0,8.57,0,12.85,0,.5,0,1.08-.26,1.53.24a.58.58,0,0,0,.54.13,4,4,0,0,1,3.75,0,1.2,1.2,0,0,0,.79,0,9.7,9.7,0,0,1,5.21,0c.21,0,.47-.18.7-.16s.51.17.78.21a2,2,0,0,0,.81,0c.48-.15,1-.72,1.43-.34.62.54,1-.26,1.55-.1a3.91,3.91,0,0,0,2,0c.61-.15,1,.34,1.59.25s1.11.2,1.63-.21a.17.17,0,0,1,.18,0c.55.6,1.15.39,1.81.2s1.14,0,1.67-.1a5.64,5.64,0,0,0,2-.52c.57-.41,1.22.63,1.87,0,1,.7,2.08.27,3.12.32.35,0,.62-.65,1.18-.16.19.16.76-.17,1.16-.2.61,0,1.23,0,1.84,0s1.39-.23,1.79,0c.65.47,1.07-.23,1.53,0a1.7,1.7,0,0,0,1.51,0c.42.63.9-.21,1.28,0,1.26.78,2.62.19,3.92.39.66-.74,1.26-.08,1.87.08a9.3,9.3,0,0,0,1.69-.21l2-3.22a1.61,1.61,0,0,1-.09-.29,7.77,7.77,0,0,1-.16-2.52c.25-.91-.22-1.67-.09-2.52s0-1.89,0-2.83-.43-1.76.39-2.47c-.21-.82-.85-1.64,0-2.48a3.9,3.9,0,0,1,0-3.55c-.81-.71,0-1.38.05-2.07-1-.7.35-1.37,0-2.11-.16-.36.6-.84,0-1.27-.09-1.43.28-2.91-.41-4.28.66-.7-.22-1.36,0-2.11s-.07-1.76.09-2.61c.08-.5-.68-.78-.14-1.35.37-.4-.15-1.14.42-1.65A1.15,1.15,0,0,0,195.62,6c-.55-.4.09-.92-.31-1.42s-.08-1.29-.06-2A3,3,0,0,0,194.06.28c-.09-.08-.37-.12-.41-.07-.45.59-1-.25-1.11-.07-.58.68-.93-.15-1.36-.1-.76.09-1.57-.32-2.31.35-.32.29-1-.06-1.51.29-.29.18-1-.37-1.37-.21a8.91,8.91,0,0,1-3.31.37c-.41,0-1,.4-1.19.25a1.32,1.32,0,0,0-1.31-.22c-.63.3-1.39.64-1.85.3-.72-.52-1.15.44-1.75.08a2.2,2.2,0,0,0-1.07-.33c-.35,0-.69.3-1,.29s-1-.43-1-.35c-.56.78-1.32,0-2,.29A2.56,2.56,0,0,1,169,.92c-.2-.15-.75,0-1.07.16A1,1,0,0,1,166.61,1c-.12-.11-.45-.21-.52-.14-.81.8-1.81.24-2.71.37A1.86,1.86,0,0,1,162.05,1c-.29-.18-.91.23-1.38.23S159.45.78,159.06,1a1.17,1.17,0,0,1-1.58-.12c-.07-.07-.42,0-.52.12-.45.51-1.15,0-1.5.3-.6.54-1-.26-1.54-.06s-1.09.47-1.39.29c-1.41-.84-3.09.4-4.42-.67-.5.69-1.26.45-1.86.36s-1.24.64-1.88.1c-.21.75-.65-.25-1.06.15s-1,.19-1.52.18-1-.35-1.16-.19c-.63.61-.92-.3-1.4-.2a10.68,10.68,0,0,1-1.13.2c-.64.06-1.28.09-1.92.1-.15,0-.39-.21-.42-.17-.51.56-1.16.17-1.73.27a2.38,2.38,0,0,1-1.67-.4c-.48-.29-.89.57-1.53.05-.36-.3-1.12,0-1.65-.44s-1,.69-1.48,0c-.29.62-.89.13-1.36.32s-1.41-.17-2.12-.1c-.43,0-.84-.23-1.32,0a2.56,2.56,0,0,1-1.36.13c-.42,0-1-.45-1.2-.29a1.8,1.8,0,0,1-1.31.3,9.74,9.74,0,0,1-1.43,0c-.16,0-.29-.29-.47-.33-.48-.11-1-.65-1.47-.06a38.56,38.56,0,0,0-7.53.51l-1.2,1.88c-.06.1-.21.27-.2.27.84.74.18,1.76.49,2.64.22.63.63,1.56.22,2.15s-.27,1.26-.35,1.89a6.6,6.6,0,0,1,0,1,11.94,11.94,0,0,0-.53,1.39,9.23,9.23,0,0,0,.14,1.56c0,.61,0,1.22,0,1.82s.22,1.25-.05,1.59c-.48.62.27,1,.06,1.52-.1.23,0,.58-.16.74-.37.38-.19.6,0,1a3.25,3.25,0,0,1,0,1.48c0,.31-.19.61-.21.92,0,.72.18,1.5-.64,2a.32.32,0,0,0-.07.27,1.33,1.33,0,0,1,.23,1.67c-.47.7.24,1.16.08,1.73s.17.94-.33,1.3a.53.53,0,0,0,0,.52C105.84,31,106.08,31.29,105.63,31.64Z"/><path class="cls-2" d="M113.45,31.64c.48.3-.3.46,0,.9a3,3,0,0,1,.14,2.52,5.69,5.69,0,0,1-.73,1.43c-.62.77.43,1.19.34,1.81-.05.32,0,.69-.19.94a5.43,5.43,0,0,0-.86,3.38c0,1.44-2,2.58-3.89,2.32-.5-.7-1.09.44-1.6,0s-1.43-.2-2.15-.3c-.48-.07-1.22.06-1.43-.16-.62-.63-1.16.2-1.63,0a1.47,1.47,0,0,0-1.78.11.8.8,0,0,1-.66,0,.9.9,0,0,0-1.43.08c-.4-.45-1-.4-1.58-.39H93.13c-.85,0-1.71,0-2.56,0s-1.63.05-2.38.09-1.79-.38-2.37-.05a5.51,5.51,0,0,1-2.9.34c-5.38,0-10.77,0-16.15,0-.63,0-1.35-.26-1.92.24a.85.85,0,0,1-.67.13,6.2,6.2,0,0,0-4.73,0,1.84,1.84,0,0,1-1,0,15.23,15.23,0,0,0-6.55,0c-.26,0-.59-.18-.87-.16s-.65.17-1,.21a3.17,3.17,0,0,1-1,0c-.6-.14-1.24-.72-1.79-.34-.78.54-1.23-.26-2-.1a6.16,6.16,0,0,1-2.53,0c-.76-.15-1.25.34-2,.25s-1.4.2-2.05-.21a.27.27,0,0,0-.23,0c-.69.6-1.44.39-2.28.2-.66-.14-1.43,0-2.09-.1a8.51,8.51,0,0,1-2.55-.52c-.72-.41-1.54.63-2.35,0-1.22.7-2.61.27-3.92.32-.45,0-.78-.65-1.49-.16-.24.16-1-.17-1.46-.2-.76,0-1.54,0-2.31,0s-1.75-.23-2.25,0c-.81.47-1.35-.23-1.92,0a2.65,2.65,0,0,1-1.9,0c-.53.63-1.13-.21-1.61,0-1.58.78-3.29.19-4.92.39-.83-.74-1.58-.08-2.36.08A14.36,14.36,0,0,1,3,44.46L.44,41.24A1.19,1.19,0,0,0,.56,41a6.09,6.09,0,0,0,.2-2.52c-.31-.91.28-1.67.11-2.52S.92,34,.81,33.08s.54-1.76-.49-2.47c.27-.82,1.07-1.64.06-2.48a3.21,3.21,0,0,0,0-3.55c1-.71,0-1.38-.06-2.07,1.26-.7-.43-1.37,0-2.11.19-.36-.76-.84,0-1.27C.43,17.7,0,16.22.83,14.85c-.82-.7.28-1.36.06-2.11S1,11,.78,10.13c-.11-.5.85-.78.18-1.35-.48-.4.18-1.14-.54-1.65C.16,6.94.13,6.14.36,6c.69-.4-.11-.92.39-1.42s.1-1.29.08-2A2.89,2.89,0,0,1,2.32.28.77.77,0,0,1,2.84.21C3.41.8,4.05,0,4.23.14,5,.82,5.4,0,5.94,0c1,.09,2-.32,2.91.35.39.29,1.22-.06,1.89.29C11.1.86,12,.31,12.46.47a14,14,0,0,0,4.17.37c.51,0,1.22.4,1.48.25A2,2,0,0,1,19.77.87c.78.3,1.73.64,2.32.3.9-.52,1.45.44,2.2.08A3.28,3.28,0,0,1,25.64.92c.43,0,.86.3,1.29.29S28.14.79,28.21.86c.71.78,1.66,0,2.53.29A3.9,3.9,0,0,0,33.87.92a2.22,2.22,0,0,1,1.35.16A1.49,1.49,0,0,0,36.81,1c.16-.11.58-.21.66-.14,1,.8,2.27.24,3.4.37A2.85,2.85,0,0,0,42.54,1c.37-.18,1.15.23,1.74.23s1.53-.44,2-.24a1.74,1.74,0,0,0,2-.12.85.85,0,0,1,.66.12c.57.51,1.45,0,1.89.3.76.54,1.26-.26,1.93-.06s1.37.47,1.75.29c1.77-.84,3.88.4,5.55-.67.63.69,1.59.45,2.34.36s1.56.64,2.37.1c.26.75.8-.25,1.32.15.37.28,1.26.19,1.92.18.5,0,1.25-.35,1.45-.19.8.61,1.16-.3,1.76-.2s1,.17,1.43.2c.8.06,1.6.09,2.41.1.18,0,.48-.21.52-.17.64.56,1.46.17,2.18.27a3.63,3.63,0,0,0,2.1-.4c.6-.29,1.12.57,1.92.05.46-.3,1.41,0,2.07-.44s1.23.69,1.86,0c.37.62,1.12.13,1.71.32s1.77-.17,2.66-.1c.55,0,1.06-.23,1.66,0a4,4,0,0,0,1.71.13C94,1.18,94.73.77,95,.93a2.83,2.83,0,0,0,1.65.31,17.78,17.78,0,0,0,1.79,0c.21,0,.37-.29.59-.33.61-.11,1.21-.65,1.85-.06a60.57,60.57,0,0,1,9.46.51c.49.6,1,1.24,1.51,1.88.08.1.27.27.26.27-1.06.74-.24,1.76-.63,2.64-.28.63-.79,1.56-.27,2.15s.34,1.26.43,1.89c.06.33-.06.69.05,1,.17.48.59.92.67,1.39a7,7,0,0,1-.19,1.56c0,.61,0,1.22,0,1.82s-.27,1.25.06,1.59c.62.62-.34,1-.07,1.52.13.23,0,.58.2.74.47.38.24.6,0,1s0,1,0,1.48c0,.31.24.61.27.92.06.72-.23,1.5.8,2,.08,0,.13.24.09.27a1.15,1.15,0,0,0-.29,1.67c.59.7-.3,1.16-.09,1.73s-.22.94.41,1.3a.45.45,0,0,1,0,.52C113.18,31,112.88,31.29,113.45,31.64Z"/></g><g id="レイヤー_2" data-name="レイヤー 2"><path class="cls-3" d="M87.31,18.14a5.43,5.43,0,0,1-3,.66,7.1,7.1,0,0,0-1.91.37c-.1,0-.19.41-.14.6a12.38,12.38,0,0,0,.47,1.42h1.49a5.27,5.27,0,0,1,.69,0c.73.1,1.54.71,1.47,1.1s-1,.92-1.61,1-1.19-.48-1.75.13c-.07.57,1.12,1,.29,1.73.12.07.25.2.37.19.48,0,.91.28,1.45.05a4.17,4.17,0,0,1,1.54,0c.22,0,.52,0,.64.09a1.53,1.53,0,0,1,.42.84.79.79,0,0,1-.39.66,10.77,10.77,0,0,1-1.88.47c-.53.09-1-.26-1.62,0a6.07,6.07,0,0,1-1.71,0c-.32,0-.63.15-1,.19s-.41-.09-.6-.06-.74.05-.92.25c-.58.65-.83.07-1.22-.21-.57-.41-.29-.74,0-1.11a1.33,1.33,0,0,0,.14-.44c.62,0,1.2,0,1.77,0,.37,0,.7-.5,1.08-.05.28-.46,0-.77-.18-1.2-.52-1.2-.56-1.45-1.36-1.12s-1-.09-1.3-.45-.16-.74.29-1c.14-.08.25-.23.4-.3,1-.54,1.07-.54,1.07-.73A1.69,1.69,0,0,1,80.84,20c.06-.08-.08-.45-.22-.55s-.57-.29-.68-.2c-.42.35-.75.22-1.21.05s-.77.15-1.17.17a.62.62,0,0,1-.48-.29c-.19-.38-.3-.79-.51-1.34a10.07,10.07,0,0,1,1.1-.07,1,1,0,0,0,1-.43c.28-.41.41-.06.63.06s.31,0,.45-.11a.33.33,0,0,0,0-.31,1.62,1.62,0,0,0-.34-.71,2.16,2.16,0,0,1-.64-2.3h1.28c.21,0,.17.05.47.81a12.39,12.39,0,0,0,.73,1.2A8.49,8.49,0,0,1,81.7,17a12.84,12.84,0,0,0,1.63-.1,8,8,0,0,1,2.88.18C86.58,17.17,86.85,17.68,87.31,18.14Z"/><path class="cls-3" d="M100.29,20a3.64,3.64,0,0,1-2.4-.18c-.26-.06-.5-.09-.25.42a1.77,1.77,0,0,1-.3,2c-.42.53-.58,1.25-1.13,1.77s-.13,1,.43,1.38a8,8,0,0,0,2.9,1.35c.38.06.69.52,1.09.85-.27.09-.56.1-.66.24-.71,1-1.57.63-2.36.22a26.33,26.33,0,0,1-2.26-1.42c-.51.66-.95,1.21-1.35,1.78a5.5,5.5,0,0,1-.7.88c-.4.19-1,0-1-.4s-.18-1,0-1.18c.6-.66.56-1.68,1.33-2.2-.62-.81-1.66-1.2-2.13-2.16-1-.17-.57-.85-.55-1.38a1.67,1.67,0,0,1,2,.47c.46.56,1.53.18,1.6,1.42.31-1.63,1.75-2.44,2-4.11-1.16.21-2.22-.23-3.24.29-.89-.4-1.83-.14-2.74-.27-.2,0-.4-.44-.51-.71a.58.58,0,0,1,.23-.47,2.5,2.5,0,0,1,1.68-.52,2.76,2.76,0,0,0,.86,0c.33,0,.68-.76.45-.91-.71-.47-.61-1.15-.6-1.83a1.74,1.74,0,0,0,0-.51c-.08-.25-.37-.57-.29-.7a2.92,2.92,0,0,1,.84-.84s.32.46.59.05c.08.08.2.15.25.25.4.81.1,1.87.94,2.56.18.14.07.64.1,1,.07.79.26.9,1.12.72a1.74,1.74,0,0,1,.59.06c.31,0,.72.24.91.1s.41-.17.64.05a1.84,1.84,0,0,0,.7.38c.26.08.7,0,.78.13A8.36,8.36,0,0,1,100.29,20Z"/><path class="cls-3" d="M119,16.49c-1.24-.18-2.21-.32-3.18-.48a1.38,1.38,0,0,1-.57-.28c-.35-.26-.31-.54.06-.75l1.71-.94c.71.66.71.66,2-.07.55.33.78,1.1,1.63,1.06.19,0,.41.54.62.83-.55.35-.1,1.18-.39,1.34-.46.25-.45.53-.49.89-.67-.26-.29.8-.89.71-.15,0-.34.25-.52.38l-.54.39c.51.5.94.89,1.32,1.32s1,.3,1,.95c1.17.3.89,1.47,1.2,2.22a3.7,3.7,0,0,1,0,2.21,2.69,2.69,0,0,1-1.27,1.82c-.71.34-1.46.62-2.2.92L117,28.84c-.59-.31-1.37-.32-1.63-1.16-.15-.5-1-.78-.65-1.43s.53-1.71,1.62-2.09a2.92,2.92,0,0,1,2.29-.26,8.13,8.13,0,0,0,1.29.07c-.6-1.06-1-2-2.34-2.17-.33,0-.65-.37-.94-.61a1.31,1.31,0,0,1-.13-2,13.51,13.51,0,0,1,.89-1.11c.35-.35.78-.61,1.15-.94A3.68,3.68,0,0,0,119,16.49Zm.8,9.64c-1.45-1-2-1-2.84-.12a.94.94,0,0,0-.15.88,1,1,0,0,0,.89.37C118.48,27,119.46,27.16,119.84,26.13Z"/><path class="cls-3" d="M112.37,17.73c-.61-.16-1,.3-1.55.15-.38-.11-.87.18-1.3.28.66,1,.23,1.95.34,2.88-1,1.12.26,1.74.57,2.57.07.19,1.22,2,1.16,2.07-.53.42,0,1-.27,1.5a.5.5,0,0,0,0,.45c.54.57,0,.45-.29.46-.47,0-.69-.28-.82-.68a7.68,7.68,0,0,0-.5-1.34c-.17-.32-.7-.51-.27-1-.44-.08,0-.86-.68-.8-.23,0-.67-.74-.63.2-.54.37-1.31.4-1.59,1.17a1.65,1.65,0,0,1-1.09-.12,8.71,8.71,0,0,1-1.78-1.47,1.85,1.85,0,0,1-.34-1.21,8.55,8.55,0,0,1,.38-1.55c.73.05.88-1,1.74-.84.68.13,1.41-.82,2.14,0,0,0,.18-.1.2-.18a9.54,9.54,0,0,0,.33-1.57c.05-.73-.58-1.25-1.19-.91s-.85.45-1.33,0c-.09-.08-.38,0-.57.1s-.41.18-.43.15c-.27-.4-.73,0-.86-.13s-1-.08-.74-.65S103.27,16,104.1,16h2.41a1.59,1.59,0,0,0,1.22-.41c.62-.55,1-.46,1.42.35.22.43.38.57.68.25.61-.65,1.3.3,1.9-.14a1.67,1.67,0,0,1,.21.33C112.07,16.75,112.17,17.11,112.37,17.73Zm-6.94,6.08c.63-.36,1.06-.58,1.45-.85s.37-.45.08-.69-.23-.56-.62-.17c-.19.19-.61.16-.91.24Z"/><path class="cls-3" d="M70.22,16.9c.15-.3.29-.81.45-.82a3.15,3.15,0,0,1,2,.14,3.2,3.2,0,0,0,1.85.52,5.16,5.16,0,0,1,1.47.43v1.51c-.83.37-1.59-.13-2.37-.25-.52-.09-1.3.41-1.45-.6,0,0-.19-.06-.29-.08A2.16,2.16,0,0,1,70.22,16.9Z"/><path class="cls-3" d="M73,21.54c.66.08,1.7.2,2.74.35.39.06.5.48.25.93-.44.83-.48.94-1.33.61-.48-.19-.58.45-1,.19a2.27,2.27,0,0,0-1-.33c-.29,0-.59.28-.89.3s-.5-.32-.71-.29c-.74.12-.41-.73-.84-.85a4.49,4.49,0,0,1,1.09-.88A6.21,6.21,0,0,1,73,21.54Z"/><path class="cls-3" d="M70.94,28.69c-.54-.93.48-1.44.67-2.19,0-.07.28-.1.44-.13a3.78,3.78,0,0,0,2.62-1.51.89.89,0,0,1,.73-.19,8.17,8.17,0,0,1,1.28.47c-.05.07-.17.16-.19.27-.24,1.33-1.46,1.47-2.37,2-.09.05-.27,0-.33,0A6,6,0,0,1,70.94,28.69Z"/></g></svg>