<svg xmlns="http://www.w3.org/2000/svg" viewBox="0 0 197.52 46.88"><defs><style>.cls-1{fill:none;stroke:#231815;stroke-linecap:round;stroke-linejoin:round;stroke-width:5px;}.cls-2{fill:#fff;}.cls-3{fill:#231815;}</style></defs><g id="レイヤー_1" data-name="レイヤー 1"><path class="cls-1" d="M100.6,2.49c-.13-.21-.39-.43-.37-.62.12-.74-.51-1.05-.94-1.49-.59-.61-.87.23-1.32.21-.13,0-.33,0-.39-.12-.46-.62-1.2.75-1.59-.18a1.63,1.63,0,0,1-.48.23A31.46,31.46,0,0,0,92.1,1c-.63.17-1.13-.82-1.68,0-.64-.73-1.22.31-1.92,0A5.65,5.65,0,0,0,86.56.82,15.85,15.85,0,0,1,85,.62c-.75-.08-1.52,0-2.27,0S81.34.82,80.85.2c-.64,1-1.26-.18-1.91,0-1.25.34-2.62-.75-3.84.24-.07,0-.31-.08-.47-.1-.51,0-1.12-.27-1.51-.09a6.65,6.65,0,0,1-4.29.14c-.39-.08-.54,0-.65.16-.38.63-.79.16-1.2.06s-.71.89-1.33.25a.64.64,0,0,0-1-.08,1.81,1.81,0,0,1-1.84,0,1.46,1.46,0,0,0-.81-.19c-.87.22-1.72.85-2.59,0-1.53.86-3.22.19-4.82.39-.71.08-1.5-.18-2.08.41-1.09-.41-2.18,1.08-3.28,0a.47.47,0,0,0-.43,0c-1,.84-1.89,0-2.82,0s-2,.27-2.69-.09-1.52.61-2-.25a11.35,11.35,0,0,0-2.15.6c-.42.21-.64-.58-1,0-.1.15-.91-.19-1.18,0-.53.31-.77.11-1.15-.15-.13-.09-.51.18-.75.15-.44-.06-.92.07-1.28,0a3.82,3.82,0,0,0-3,.11c-.16.09-.52,0-.76-.13-.48-.2-.86.59-1.47,0-.3-.28-1.12-.13-1.71-.18a2.84,2.84,0,0,1-1.49-.25c-.25-.15-.86.2-1.32.24-2.13.19-4.32-.37-6.42.39-.2.08-.54-.1-.8-.2a2,2,0,0,0-1.85,0c-.34.21-.86-.42-1.14.17-.25-.1-.62-.36-.75-.29-.68.39-1.3-.38-1.85-.08s-1.15.62-1.37.34c-.44-.55-.91.05-1.38-.24-.68-.41-1.7.1-2.44-.46-.44.57-1.13.19-1.66.35a9.74,9.74,0,0,0-1.29.65c-1.72.83-2,1.39-1.42,3.06.09.3.24.8.08.93-.9.7.08,1.83-.77,2.5.72.82.35,1.65.05,2.48,1,.52-.18,1.17.15,1.84a2.86,2.86,0,0,1,.1,2.34A4.89,4.89,0,0,0,1,17.92C1,19.15.6,20.4,1.32,21.63c.23.39-.75,1-.17,1.77.28.38-.25,1.24-.42,1.88-.06.23-.25.63-.18.67.76.43-.11,1.05.09,1.25.5.53.25.81-.16,1.16.65.36.42.94.44,1.45a4.62,4.62,0,0,1,0,1.62A12.43,12.43,0,0,0,.49,36.2C.54,37.43.1,38.7.9,39.89c.17.26-.65.67,0,1.11.1.06-.5.77-.37,1a1,1,0,0,1,0,1.12C.3,43.5.4,44,.16,44.39c-.44.66.16,1.08.3,1.61s.71.27,1.08.38a6.08,6.08,0,0,1,1.39.42c.53.32.64-.5,1.32-.21a3.7,3.7,0,0,0,2.41-.3c.82-.35,1.77.64,2.47-.3.06-.07.64.16,1,.25s.53.18.6.12c.75-.75,1.72-.35,2.56-.35a6.37,6.37,0,0,0,2.09,0c.77,1,1.38-.5,2.18-.1.48.24,1.16-.2,1.7.27.21.18.89.26,1,.12.78-.79,1.46-.18,2.16,0,.24.08.64.33.66.3.58-.72,1.1.21,1.49.06a2.62,2.62,0,0,1,1.47,0,6.6,6.6,0,0,0,3.25-.31c.29-.11.84.63,1.48,0,.2-.19,1.2.35,1.46.15.62-.46,1.21.16,1.26.11.43-.45,1-.3,1.47-.34a12.65,12.65,0,0,0,1.95-.22c.53-.12,1.18.72,1.58-.17.26.66.75,0,1.14.15s.95-.2,1.23,0c1,.59,2,.16,3.06.26.3,0,.87-.41.91-.35.54.61,1,.07,1.49,0,1-.06,2.06-.4,3,.24.3.19.87,0,1.31.1s1-.58,1.72-.06c.24.18,1-.78,1.61,0a1.82,1.82,0,0,1,2.37,0,4.78,4.78,0,0,1,2.77-.4c.29,0,.7,0,.84.11.42.43.59.09.83-.12s.42-.53.83-.11a1,1,0,0,0,.81.09c.53-.74,1.22,0,1.83-.19a9.28,9.28,0,0,1,2.42-.17,6.32,6.32,0,0,1,2.18.18c.6.23,1.47-.15,2.22-.19s1.67,0,2.5,0,1.55-.46,2.38,0c.22.11.67-.13,1-.19s.84-.29,1-.16c1,.72,2.18.22,3.25.38.78.11,1.67-.32,2.34.39a.76.76,0,0,0,.58-.15c.49-.53.65.35,1.08.17a3.53,3.53,0,0,1,1.39-.38c.42,0,.75.72,1.3.13s.89.43,1.57.29a7.23,7.23,0,0,1,2.93,0A1.76,1.76,0,0,0,93.92,46a4.06,4.06,0,0,1,3-.29c.22,0,.36.39.66.06.52-.57,1-1.17.81-1.91-.08-.34-.52-.54,0-.91s-.92-.66-.09-1.1c-.44-.77.28-1.47.14-2.26a14.42,14.42,0,0,1,0-2.63V33.07c0-.34-.16-.83,0-1,1-.83-.23-2.16.88-2.93-.79-.54-.5-1.11-.06-1.67-.78-.6-.3-1.39-.37-2.09a1.58,1.58,0,0,1,.35-1.49c.51-.53-.39-1-.38-1.61,0-.07,0-.15,0-.2.9-1.65.26-3.41.44-5.1,0-.4-.18-1,0-1.19.82-.78.43-1.69.36-2.49s.35-1.62.14-2.52-.54-1.86.33-2.67c-.8-.87-.25-1.9-.4-2.85,0-.08.25-.18.28-.29.09-.34-.23-.65.12-1.06S100,2.87,100.6,2.49Z"/><path class="cls-1" d="M88.53,2.49c.14-.21.42-.43.39-.62-.12-.74.56-1.05,1-1.49.64-.61.93.23,1.43.21A.62.62,0,0,0,91.8.47c.49-.62,1.3.75,1.72-.18a1.9,1.9,0,0,0,.53.23A37.23,37.23,0,0,1,97.74,1c.68.17,1.22-.82,1.82,0,.69-.73,1.32.31,2.08,0a6.58,6.58,0,0,1,2.1-.22c.59,0,1.14-.14,1.71-.2.81-.08,1.64,0,2.46,0s1.49.23,2-.39c.69,1,1.36-.18,2.06,0,1.36.34,2.84-.75,4.16.24.08,0,.34-.08.52-.1A4,4,0,0,1,118.3.24,7.78,7.78,0,0,0,123,.38c.42-.08.58,0,.7.16.42.63.86.16,1.3.06s.77.89,1.44.25a.73.73,0,0,1,1-.08,2.11,2.11,0,0,0,2,0,1.64,1.64,0,0,1,.87-.19c1,.22,1.87.85,2.81,0,1.66.86,3.49.19,5.22.39.77.08,1.63-.18,2.26.41,1.18-.41,2.35,1.08,3.55,0a.55.55,0,0,1,.47,0c1,.84,2,0,3.05,0s2.19.27,2.91-.09,1.65.61,2.19-.25a12.82,12.82,0,0,1,2.33.6c.45.21.69-.58,1.12,0,.11.15,1-.19,1.29,0,.57.31.83.11,1.24-.15.14-.09.55.18.82.15.47-.06,1,.07,1.38,0a4.44,4.44,0,0,1,3.19.11,1.36,1.36,0,0,0,.83-.13c.52-.2.94.59,1.6,0,.32-.28,1.21-.13,1.84-.18A3.3,3.3,0,0,0,170,1.16c.27-.15.93.2,1.43.24,2.31.19,4.68-.37,7,.39.22.08.59-.1.86-.2a2.29,2.29,0,0,1,2,0c.36.21.93-.42,1.23.17.28-.1.67-.36.81-.29.74.39,1.41-.38,2-.08s1.24.62,1.48.34c.49-.55,1,.05,1.5-.24.73-.41,1.85.1,2.64-.46.48.57,1.22.19,1.8.35a11.06,11.06,0,0,1,1.4.65c1.86.83,2.14,1.39,1.54,3.06-.1.3-.26.8-.09.93,1,.7-.09,1.83.84,2.5-.79.82-.39,1.65-.06,2.48-1.06.52.19,1.17-.17,1.84a2.68,2.68,0,0,0-.1,2.34,4.66,4.66,0,0,1,.39,2.69c-.07,1.23.38,2.48-.4,3.71-.24.39.81,1,.18,1.77-.3.38.28,1.24.46,1.88.06.23.27.63.19.67-.82.43.12,1.05-.09,1.25-.55.53-.27.81.17,1.16-.7.36-.45.94-.48,1.45a4.19,4.19,0,0,0,0,1.62A11.54,11.54,0,0,1,197,36.2c0,1.23.43,2.5-.43,3.69-.19.26.7.67,0,1.11-.1.06.55.77.41,1a.93.93,0,0,0,0,1.12c.2.4.09.93.35,1.29.49.66-.16,1.08-.32,1.61s-.77.27-1.17.38a6.88,6.88,0,0,0-1.5.42c-.58.32-.7-.5-1.44-.21a4.28,4.28,0,0,1-2.6-.3c-.89-.35-1.92.64-2.68-.3a4.24,4.24,0,0,0-1.06.25c-.22,0-.58.18-.65.12-.82-.75-1.86-.35-2.78-.35a7.44,7.44,0,0,1-2.26,0c-.83,1-1.5-.5-2.36-.1-.52.24-1.26-.2-1.85.27a1.37,1.37,0,0,1-1.1.12c-.85-.79-1.58-.18-2.34,0-.26.08-.7.33-.72.3-.63-.72-1.19.21-1.61.06a3.06,3.06,0,0,0-1.59,0,7.71,7.71,0,0,1-3.52-.31c-.32-.11-.91.63-1.61,0-.21-.19-1.3.35-1.58.15-.67-.46-1.31.16-1.36.11-.47-.45-1.05-.3-1.59-.34a14.64,14.64,0,0,1-2.11-.22c-.58-.12-1.29.72-1.72-.17-.28.66-.82,0-1.24.15s-1-.2-1.33,0c-1.08.59-2.22.16-3.32.26-.32,0-.94-.41-1-.35-.58.61-1.05.07-1.6,0-1.07-.06-2.24-.4-3.31.24-.33.19-.94,0-1.42.1s-1.11-.58-1.86-.06c-.26.18-1.13-.78-1.75,0a2.09,2.09,0,0,0-2.56,0,5.57,5.57,0,0,0-3-.4c-.32,0-.77,0-.92.11-.45.43-.64.09-.89-.12s-.46-.53-.9-.11a1.12,1.12,0,0,1-.88.09c-.58-.74-1.33,0-2-.19a10.87,10.87,0,0,0-2.62-.17,7.44,7.44,0,0,0-2.37.18c-.65.23-1.59-.15-2.4-.19s-1.81,0-2.72,0-1.67-.46-2.57,0c-.24.11-.72-.13-1.1-.19s-.92-.29-1.11-.16c-1.11.72-2.36.22-3.52.38-.85.11-1.81-.32-2.53.39a.88.88,0,0,1-.63-.15c-.54-.53-.7.35-1.17.17a4.15,4.15,0,0,0-1.51-.38c-.46,0-.82.72-1.41.13s-1,.43-1.7.29a8.45,8.45,0,0,0-3.17,0A2.08,2.08,0,0,1,95.76,46a4.73,4.73,0,0,0-3.21-.29c-.23,0-.38.39-.71.06-.56-.57-1.09-1.17-.88-1.91.1-.34.57-.54,0-.91s1-.66.09-1.1c.48-.77-.3-1.47-.15-2.26a13.57,13.57,0,0,0,0-2.63V33.07c0-.34.18-.83,0-1-1.12-.83.24-2.16-1-2.93.86-.54.54-1.11.06-1.67.84-.6.33-1.39.4-2.09A1.48,1.48,0,0,0,90,23.91c-.55-.53.43-1,.41-1.61,0-.07,0-.15,0-.2-1-1.65-.28-3.41-.49-5.1,0-.4.2-1,0-1.19-.88-.78-.47-1.69-.39-2.49s-.38-1.62-.15-2.52.58-1.86-.35-2.67c.86-.87.27-1.9.43-2.85,0-.08-.27-.18-.3-.29-.1-.34.25-.65-.13-1.06S89.23,2.87,88.53,2.49Z"/><path class="cls-2" d="M100.6,2.49c-.13-.21-.39-.43-.37-.62.12-.74-.51-1.05-.94-1.49-.59-.61-.87.23-1.32.21-.13,0-.33,0-.39-.12-.46-.62-1.2.75-1.59-.18a1.63,1.63,0,0,1-.48.23A31.46,31.46,0,0,0,92.1,1c-.63.17-1.13-.82-1.68,0-.64-.73-1.22.31-1.92,0A5.65,5.65,0,0,0,86.56.82,15.85,15.85,0,0,1,85,.62c-.75-.08-1.52,0-2.27,0S81.34.82,80.85.2c-.64,1-1.26-.18-1.91,0-1.25.34-2.62-.75-3.84.24-.07,0-.31-.08-.47-.1-.51,0-1.12-.27-1.51-.09a6.65,6.65,0,0,1-4.29.14c-.39-.08-.54,0-.65.16-.38.63-.79.16-1.2.06s-.71.89-1.33.25a.64.64,0,0,0-1-.08,1.81,1.81,0,0,1-1.84,0,1.46,1.46,0,0,0-.81-.19c-.87.22-1.72.85-2.59,0-1.53.86-3.22.19-4.82.39-.71.08-1.5-.18-2.08.41-1.09-.41-2.18,1.08-3.28,0a.47.47,0,0,0-.43,0c-1,.84-1.89,0-2.82,0s-2,.27-2.69-.09-1.52.61-2-.25a11.35,11.35,0,0,0-2.15.6c-.42.21-.64-.58-1,0-.1.15-.91-.19-1.18,0-.53.31-.77.11-1.15-.15-.13-.09-.51.18-.75.15-.44-.06-.92.07-1.28,0a3.82,3.82,0,0,0-3,.11c-.16.09-.52,0-.76-.13-.48-.2-.86.59-1.47,0-.3-.28-1.12-.13-1.71-.18a2.84,2.84,0,0,1-1.49-.25c-.25-.15-.86.2-1.32.24-2.13.19-4.32-.37-6.42.39-.2.08-.54-.1-.8-.2a2,2,0,0,0-1.85,0c-.34.21-.86-.42-1.14.17-.25-.1-.62-.36-.75-.29-.68.39-1.3-.38-1.85-.08s-1.15.62-1.37.34c-.44-.55-.91.05-1.38-.24-.68-.41-1.7.1-2.44-.46-.44.57-1.13.19-1.66.35a9.74,9.74,0,0,0-1.29.65c-1.72.83-2,1.39-1.42,3.06.09.3.24.8.08.93-.9.7.08,1.83-.77,2.5.72.82.35,1.65.05,2.48,1,.52-.18,1.17.15,1.84a2.86,2.86,0,0,1,.1,2.34A4.89,4.89,0,0,0,1,17.92C1,19.15.6,20.4,1.32,21.63c.23.39-.75,1-.17,1.77.28.38-.25,1.24-.42,1.88-.06.23-.25.63-.18.67.76.43-.11,1.05.09,1.25.5.53.25.81-.16,1.16.65.36.42.94.44,1.45a4.62,4.62,0,0,1,0,1.62A12.43,12.43,0,0,0,.49,36.2C.54,37.43.1,38.7.9,39.89c.17.26-.65.67,0,1.11.1.06-.5.77-.37,1a1,1,0,0,1,0,1.12C.3,43.5.4,44,.16,44.39c-.44.66.16,1.08.3,1.61s.71.27,1.08.38a6.08,6.08,0,0,1,1.39.42c.53.32.64-.5,1.32-.21a3.7,3.7,0,0,0,2.41-.3c.82-.35,1.77.64,2.47-.3.06-.07.64.16,1,.25s.53.18.6.12c.75-.75,1.72-.35,2.56-.35a6.37,6.37,0,0,0,2.09,0c.77,1,1.38-.5,2.18-.1.48.24,1.16-.2,1.7.27.21.18.89.26,1,.12.78-.79,1.46-.18,2.16,0,.24.08.64.33.66.3.58-.72,1.1.21,1.49.06a2.62,2.62,0,0,1,1.47,0,6.6,6.6,0,0,0,3.25-.31c.29-.11.84.63,1.48,0,.2-.19,1.2.35,1.46.15.62-.46,1.21.16,1.26.11.43-.45,1-.3,1.47-.34a12.65,12.65,0,0,0,1.95-.22c.53-.12,1.18.72,1.58-.17.26.66.75,0,1.14.15s.95-.2,1.23,0c1,.59,2,.16,3.06.26.3,0,.87-.41.91-.35.54.61,1,.07,1.49,0,1-.06,2.06-.4,3,.24.3.19.87,0,1.31.1s1-.58,1.72-.06c.24.18,1-.78,1.61,0a1.82,1.82,0,0,1,2.37,0,4.78,4.78,0,0,1,2.77-.4c.29,0,.7,0,.84.11.42.43.59.09.83-.12s.42-.53.83-.11a1,1,0,0,0,.81.09c.53-.74,1.22,0,1.83-.19a9.28,9.28,0,0,1,2.42-.17,6.32,6.32,0,0,1,2.18.18c.6.23,1.47-.15,2.22-.19s1.67,0,2.5,0,1.55-.46,2.38,0c.22.11.67-.13,1-.19s.84-.29,1-.16c1,.72,2.18.22,3.25.38.78.11,1.67-.32,2.34.39a.76.76,0,0,0,.58-.15c.49-.53.65.35,1.08.17a3.53,3.53,0,0,1,1.39-.38c.42,0,.75.72,1.3.13s.89.43,1.57.29a7.23,7.23,0,0,1,2.93,0A1.76,1.76,0,0,0,93.92,46a4.06,4.06,0,0,1,3-.29c.22,0,.36.39.66.06.52-.57,1-1.17.81-1.91-.08-.34-.52-.54,0-.91s-.92-.66-.09-1.1c-.44-.77.28-1.47.14-2.26a14.42,14.42,0,0,1,0-2.63V33.07c0-.34-.16-.83,0-1,1-.83-.23-2.16.88-2.93-.79-.54-.5-1.11-.06-1.67-.78-.6-.3-1.39-.37-2.09a1.58,1.58,0,0,1,.35-1.49c.51-.53-.39-1-.38-1.61,0-.07,0-.15,0-.2.9-1.65.26-3.41.44-5.1,0-.4-.18-1,0-1.19.82-.78.43-1.69.36-2.49s.35-1.62.14-2.52-.54-1.86.33-2.67c-.8-.87-.25-1.9-.4-2.85,0-.08.25-.18.28-.29.09-.34-.23-.65.12-1.06S100,2.87,100.6,2.49Z"/><path class="cls-2" d="M88.53,2.49c.14-.21.42-.43.39-.62-.12-.74.56-1.05,1-1.49.64-.61.93.23,1.43.21A.62.62,0,0,0,91.8.47c.49-.62,1.3.75,1.72-.18a1.9,1.9,0,0,0,.53.23A37.23,37.23,0,0,1,97.74,1c.68.17,1.22-.82,1.82,0,.69-.73,1.32.31,2.08,0a6.58,6.58,0,0,1,2.1-.22c.59,0,1.14-.14,1.71-.2.81-.08,1.64,0,2.46,0s1.49.23,2-.39c.69,1,1.36-.18,2.06,0,1.36.34,2.84-.75,4.16.24.08,0,.34-.08.52-.1A4,4,0,0,1,118.3.24,7.78,7.78,0,0,0,123,.38c.42-.08.58,0,.7.16.42.63.86.16,1.3.06s.77.89,1.44.25a.73.73,0,0,1,1-.08,2.11,2.11,0,0,0,2,0,1.64,1.64,0,0,1,.87-.19c1,.22,1.87.85,2.81,0,1.66.86,3.49.19,5.22.39.77.08,1.63-.18,2.26.41,1.18-.41,2.35,1.08,3.55,0a.55.55,0,0,1,.47,0c1,.84,2,0,3.05,0s2.19.27,2.91-.09,1.65.61,2.19-.25a12.82,12.82,0,0,1,2.33.6c.45.21.69-.58,1.12,0,.11.15,1-.19,1.29,0,.57.31.83.11,1.24-.15.14-.09.55.18.82.15.47-.06,1,.07,1.38,0a4.44,4.44,0,0,1,3.19.11,1.36,1.36,0,0,0,.83-.13c.52-.2.94.59,1.6,0,.32-.28,1.21-.13,1.84-.18A3.3,3.3,0,0,0,170,1.16c.27-.15.93.2,1.43.24,2.31.19,4.68-.37,7,.39.22.08.59-.1.86-.2a2.29,2.29,0,0,1,2,0c.36.21.93-.42,1.23.17.28-.1.67-.36.81-.29.74.39,1.41-.38,2-.08s1.24.62,1.48.34c.49-.55,1,.05,1.5-.24.73-.41,1.85.1,2.64-.46.48.57,1.22.19,1.8.35a11.06,11.06,0,0,1,1.4.65c1.86.83,2.14,1.39,1.54,3.06-.1.3-.26.8-.09.93,1,.7-.09,1.83.84,2.5-.79.82-.39,1.65-.06,2.48-1.06.52.19,1.17-.17,1.84a2.68,2.68,0,0,0-.1,2.34,4.66,4.66,0,0,1,.39,2.69c-.07,1.23.38,2.48-.4,3.71-.24.39.81,1,.18,1.77-.3.38.28,1.24.46,1.88.06.23.27.63.19.67-.82.43.12,1.05-.09,1.25-.55.53-.27.81.17,1.16-.7.36-.45.94-.48,1.45a4.19,4.19,0,0,0,0,1.62A11.54,11.54,0,0,1,197,36.2c0,1.23.43,2.5-.43,3.69-.19.26.7.67,0,1.11-.1.06.55.77.41,1a.93.93,0,0,0,0,1.12c.2.4.09.93.35,1.29.49.66-.16,1.08-.32,1.61s-.77.27-1.17.38a6.88,6.88,0,0,0-1.5.42c-.58.32-.7-.5-1.44-.21a4.28,4.28,0,0,1-2.6-.3c-.89-.35-1.92.64-2.68-.3a4.24,4.24,0,0,0-1.06.25c-.22,0-.58.18-.65.12-.82-.75-1.86-.35-2.78-.35a7.44,7.44,0,0,1-2.26,0c-.83,1-1.5-.5-2.36-.1-.52.24-1.26-.2-1.85.27a1.37,1.37,0,0,1-1.1.12c-.85-.79-1.58-.18-2.34,0-.26.08-.7.33-.72.3-.63-.72-1.19.21-1.61.06a3.06,3.06,0,0,0-1.59,0,7.71,7.71,0,0,1-3.52-.31c-.32-.11-.91.63-1.61,0-.21-.19-1.3.35-1.58.15-.67-.46-1.31.16-1.36.11-.47-.45-1.05-.3-1.59-.34a14.64,14.64,0,0,1-2.11-.22c-.58-.12-1.29.72-1.72-.17-.28.66-.82,0-1.24.15s-1-.2-1.33,0c-1.08.59-2.22.16-3.32.26-.32,0-.94-.41-1-.35-.58.61-1.05.07-1.6,0-1.07-.06-2.24-.4-3.31.24-.33.19-.94,0-1.42.1s-1.11-.58-1.86-.06c-.26.18-1.13-.78-1.75,0a2.09,2.09,0,0,0-2.56,0,5.57,5.57,0,0,0-3-.4c-.32,0-.77,0-.92.11-.45.43-.64.09-.89-.12s-.46-.53-.9-.11a1.12,1.12,0,0,1-.88.09c-.58-.74-1.33,0-2-.19a10.87,10.87,0,0,0-2.62-.17,7.44,7.44,0,0,0-2.37.18c-.65.23-1.59-.15-2.4-.19s-1.81,0-2.72,0-1.67-.46-2.57,0c-.24.11-.72-.13-1.1-.19s-.92-.29-1.11-.16c-1.11.72-2.36.22-3.52.38-.85.11-1.81-.32-2.53.39a.88.88,0,0,1-.63-.15c-.54-.53-.7.35-1.17.17a4.15,4.15,0,0,0-1.51-.38c-.46,0-.82.72-1.41.13s-1,.43-1.7.29a8.45,8.45,0,0,0-3.17,0A2.08,2.08,0,0,1,95.76,46a4.73,4.73,0,0,0-3.21-.29c-.23,0-.38.39-.71.06-.56-.57-1.09-1.17-.88-1.91.1-.34.57-.54,0-.91s1-.66.09-1.1c.48-.77-.3-1.47-.15-2.26a13.57,13.57,0,0,0,0-2.63V33.07c0-.34.18-.83,0-1-1.12-.83.24-2.16-1-2.93.86-.54.54-1.11.06-1.67.84-.6.33-1.39.4-2.09A1.48,1.48,0,0,0,90,23.91c-.55-.53.43-1,.41-1.61,0-.07,0-.15,0-.2-1-1.65-.28-3.41-.49-5.1,0-.4.2-1,0-1.19-.88-.78-.47-1.69-.39-2.49s-.38-1.62-.15-2.52.58-1.86-.35-2.67c.86-.87.27-1.9.43-2.85,0-.08-.27-.18-.3-.29-.1-.34.25-.65-.13-1.06S89.23,2.87,88.53,2.49Z"/></g><g id="レイヤー_2" data-name="レイヤー 2"><path class="cls-3" d="M127.48,14.67c-.09-.87,0-1.66.6-2,.83-.48,1.74-1.15,2.75-.58.39.21.44-.12.63-.1s.51.31.73.28a3.44,3.44,0,0,1,1.73.43,15.68,15.68,0,0,0,2,.6,1.23,1.23,0,0,1,.89.64,10.14,10.14,0,0,1,.68,1.24,4.84,4.84,0,0,1-.85,3.59c-.35.48,0,.66.12,1a3,3,0,0,1-2.23-.3,13.85,13.85,0,0,0-1.31-.59,1.89,1.89,0,0,1-1.28-1.18c-.15-.41-.48-.37-.66,0s-.38,1-.59,1.48c-.09.23-.22.56-.4.61a1.76,1.76,0,0,1-1-.06c-.48-.18-.59-.68-.27-1.28a16,16,0,0,1,1.88-3.35c.42-.47.36-.51.71,0a6.53,6.53,0,0,1,.54.64c.06.11-.08.33-.15.59.66.12,1.66-.14,2,.66.18.46.48.38.71.53a.65.65,0,0,0,1.06-.44,12.34,12.34,0,0,0,0-1.72c0-.12-.17-.35-.25-.34-.72.07-1.18-.62-1.79-.67a6.12,6.12,0,0,1-1.84-.6c-.26-.1-.67.22-1,.2a7.62,7.62,0,0,1-1.07-.32c-.4-.09-.56.07-.64.52s-.54.72-.61,1.11.17.65,0,1.1a4.16,4.16,0,0,0-.43,2.08c.08.42-.35.47-.83.38s-.68-.59-1-.95c-.46-.56.55-.86.11-1.32.76-.68,0-.6-.29-.49a1.31,1.31,0,0,1-1.13,0c-.26-.1-.68.23-1,.3-.8.16-1,.3-1,1.05s0,1.26,0,1.89a2.51,2.51,0,0,1-.27.73c1,.56,1.89-.42,3-.2,0,.29.15.65,0,.92a1.43,1.43,0,0,1-.72.75,9,9,0,0,1-1.92.36c-.41,0-.39.23-.46.53-.09.46.76.76.14,1.34-.19.18.17.87.22,1.34s0,1,0,1.54c0,.31.24.6.28.91a.91.91,0,0,1-.17.58c-.3.49-.84.35-1.24.27a.74.74,0,0,1-.61-.87c.14-1-.45-2,0-3.05.31-.72-.42-1.35-.34-2.08-.43.18-.95-.31-1.17-.12-.69.6-1.44.16-2.14.31s-.36-.59-.7-.74a2.36,2.36,0,0,1,.37-.59,11.46,11.46,0,0,1,2.49-.69c1.11,0,1.08,0,1.17-.79.12-1.09.3-2.17.43-3.15a2.91,2.91,0,0,0-2.21-.58,8.15,8.15,0,0,1-1.21,0,.88.88,0,0,1-.84-.86c-.07-.55.33-.48.61-.58a2.1,2.1,0,0,1,.75-.26c.46,0,1,.33,1.35.17a1.11,1.11,0,0,1,1.35.14c.06.06.42-.11.42-.14-.15-.94.63-1,1.27-1.28.07.22.11.42.17.6s.73.44.89.51a1.89,1.89,0,0,0,1.4.18c.64-.47,1,0,1.52.14A2.82,2.82,0,0,0,127.48,14.67Z"/><path class="cls-3" d="M146.47,16.25c0,.77,0,1.68,0,2.58,0,.4.23.59.38.88.61,1.18,1.62,2.16,1.85,3.53,0,.15.23.35.18.42-.37.61.11,1.2,0,1.79a6,6,0,0,1-.43,1.18,1.89,1.89,0,0,1-.38.7,9.06,9.06,0,0,1-1,.71c-1-.81-.46-1.9-.14-2.65.46-1.08-.19-1.86-.21-2.78-.52-.18.16-.9-.53-1.08s-.65.59-1,.84a1.27,1.27,0,0,0-.37.36c-1.13,1.69-1.75,1.9-3.67,1.23a2.2,2.2,0,0,0-.68,0,15.35,15.35,0,0,1-.49-2.19c0-.51.3-1.05.3-1.57,0-.72.46-.85.94-1.16.79-.51.74-.55,1.35-.59s1.15-.7,1.81,0c.15.15.58,0,.17-.41a.47.47,0,0,1-.07-.44,1.12,1.12,0,0,0,0-1.64,1.43,1.43,0,0,0-1.72-.08c-.39.22-.54.12-.87-.06s-.62.06-.93,0a1.74,1.74,0,0,1-.92-.26,1.28,1.28,0,0,1-.42-.83.68.68,0,0,1,.71-.76,12.65,12.65,0,0,1,2.39.21c.41.09.7.21,1.07-.07.19-.15.62-.34.65-.43a7.77,7.77,0,0,1,.46-1.36c.11-.2.52-.45.65-.39a1.18,1.18,0,0,1,.59.71,8.66,8.66,0,0,1,0,1.53,15.17,15.17,0,0,0,1.79.34,2,2,0,0,0,1.16-.25c.41-.29.73-.47,1.2-.14s.36.66.35,1.06c0,.23,0,.45,0,.76-.5-.05-.87.36-1.44.24-.37-.09-.83.44-1.2-.12C147.53,16.68,147,15.64,146.47,16.25Zm-2.15,3.64a2.42,2.42,0,0,0-1.55.24c-1.18.52-1.24.48-1.14,1.59a.88.88,0,0,0,1.29.78C144,22.1,144.26,21.53,144.32,19.89Z"/><path class="cls-3" d="M75.22,25.54c.89.38,1.8-.19,2.55.37.06,0,.26-.08.36-.16,1-.82,1.75.13,2.59.39a1.26,1.26,0,0,1-.1.54c-.4,0-.79,0-1.05.39a.86.86,0,0,1-1.3.32c-.6-.37-1.19.6-1.79,0-.32.8-1.09-.27-1.46.34-.35-.42-.88,0-1.33-.29a1.36,1.36,0,0,0-1.27.14c-.75.46-1.47,0-2.07-.48a1.12,1.12,0,0,1-.25-.74c0-.47.35-.31.59-.36a10.07,10.07,0,0,1,2.45-.36.71.71,0,0,0,.73-.9c-.62-1.47-.26-3-.3-4.49a1.71,1.71,0,0,0-1-1.44c-.16-.1-.72-.26-.77.31s-.39.47-.58.27c-.51-.56-.81-.15-1.08.2s-.43-.1-.63-.11a.82.82,0,0,1-.82-.69.44.44,0,0,1,.11-.29,2.58,2.58,0,0,1,1.61-1.06,6.94,6.94,0,0,0,1.92-.36c.6.53,1.16-.29,1.8,0,.49.2,1.12-.21,1.6.31a.46.46,0,0,0,.44,0c.42-.5,1-.24,1.45-.25,1,0,1.44.79.9,1.7-.13.23-.35.48-.6.08-.71.22-1.39-.13-2.1-.08A.91.91,0,0,0,75,20.05a2.55,2.55,0,0,0,.39,1c.46.47-.3.72-.11,1.14.11.25.57.59,0,.93-.08,0-.09.4,0,.48C76,24.27,75.42,24.92,75.22,25.54Z"/><path class="cls-3" d="M55.86,24.29a10,10,0,0,1,.2-1.66,14.07,14.07,0,0,1,.71-1.76c1.24-.33,2.15-1.46,3.57-1.4a3.66,3.66,0,0,0,2.12-.29c.27-.15,1.09-.4,1.1.51,1.08.06,1.62.92,2.26,1.59a16.36,16.36,0,0,1,1.81,2.18c.13.2.53.67.06,1.09-.1.09,0,.53.15.76.24.43-.35.6-.25,1l-.94-.05c.11-.65-1-1-.38-1.81a.32.32,0,0,0,0-.31c-.39-.53-.79-1.06-1.22-1.56s-1.35-.23-1.66-1c-.12.11-.3.2-.35.34a2.1,2.1,0,0,0-.17.78c0,.46,0,.92-.45,1.2-.1.05-.25.17-.23.24.22,1.32-1,1.42-1.66,2-1.12,1-2.35.6-3.51.38-1-.18-1.06-.49-1.08-1.54v-.69Zm3.21,1.1c1.35-1.12,2.5-2.23,1.91-4.14a2.85,2.85,0,0,0-3.35,1.95c-.57,1.28-.56,1.34.79,1.79A3.54,3.54,0,0,1,59.07,25.39Z"/><path class="cls-3" d="M130,23.82a7.64,7.64,0,0,0-1.75.1,5.3,5.3,0,0,1-1.69,0,.8.8,0,0,1,.2-1.2c.86-.56,1.7-1.22,2.83-.64a.86.86,0,0,0,.63.11c.43-.21.82-.57,1.25,0-.08-.43,1.22,0,.54-.88-.07-.09.28-.54.46-.8.32-.44.54-.45,1-.07a1.29,1.29,0,0,1,.55,1.45h1.37c1.68-.06,1.78,0,1.69,1.78-.83-.49-1.57.49-2.47,0-.21-.1-.58.36-.56.83s.17.45.52.47a2.69,2.69,0,0,1,1.56.81,1.1,1.1,0,0,1,.36,1.06c-.51-.06-.66.69-1.31.46-1-.36-1-.29-1.46.14a.87.87,0,0,1-.35.26,1,1,0,0,1-1.14-1.39c.2-.46,0-.61-.24-.85s-.47-.19-.72,0-.62.26-.63.39c0,.75-.59.46-.88.42s-.65-.75-.53-1.12a4.25,4.25,0,0,1,.35-.71c.11-.18.26-.34.47-.68,0-.13-.06-.07-.13,0L130,24a1,1,0,0,0,.16-.2S130.12,23.68,130,23.82Z"/><path class="cls-3" d="M108.13,19.48H105a1.07,1.07,0,0,1-.61-.16,1.14,1.14,0,0,1-.36-.7,1.11,1.11,0,0,1,.36-.69c.13-.13.4-.12.61-.17a7.28,7.28,0,0,1,1.12-.19,4.24,4.24,0,0,1,.84.19c.17,0,.4.08.51,0,1.06-.85,1.81.17,2.65.46.54.18.59.65.28,1.26a6.32,6.32,0,0,1-.6,1,29.19,29.19,0,0,1-1.37,2.67c-.48.35.41.86-.26,1a8.2,8.2,0,0,0,.46.82c.16.23.52.42.53.63,0,.76.57.39.89.44.1,0,.24-.3.37-.31a1.38,1.38,0,0,1,.79.14c.11.08.11.44,0,.65-.4,1.29-1.22,1.56-2.55.95a2.18,2.18,0,0,1-1.6-2.25c0-.4-.28-.81-.32-1.23A7,7,0,0,1,108.06,20C108.12,20,108.09,19.82,108.13,19.48Z"/><path class="cls-3" d="M92.92,18.11a5.46,5.46,0,0,1,0-1.22c.19-.75.55-.88,1.4-.62.16,0,.4.16.46.1.68-.68,1.52-.27,2.28-.3a11.72,11.72,0,0,1,2.26.32,2.29,2.29,0,0,1,1.52,1.76,4.76,4.76,0,0,1-.64,2.83,2.45,2.45,0,0,0-.24.58,3.7,3.7,0,0,1-.27,1.25c-.23.31-.88,0-1.16.5s-.57.08-.7-.14-.17-.68,0-.77c1-.8.55-2.18,1.29-3.09.14-.17,0-.55,0-.83s-.28-.43-.57-.32-.27.43-.48.1c-.38-.59-1-.45-1.52-.52-.37,0-.67.58-1.12.05-.2-.25-.69.58-1.09,0,0,0-.44.25-.69.32A3.43,3.43,0,0,1,92.92,18.11Z"/><path class="cls-3" d="M52.2,20.79c-.49-.59-1.12-.78-1.11-1.43S50.85,19,50.5,19s-.72-.4-1.11-.58a1.44,1.44,0,0,0-.51,0,7.38,7.38,0,0,0-2.21.06c-.42.14-.79,0-1.19.14a.93.93,0,0,1-1.29-.34,1,1,0,0,1,.57-1.23c1.1-.58,2.28-.33,3.44-.29.4.53.69-.23,1.12-.09s.67.79,1.12.15c.58.37,1.29.16,1.93.51.39.2.35.48.54.68a.84.84,0,0,1,0,1.18A10.14,10.14,0,0,0,52.2,20.79Z"/><path class="cls-3" d="M88.73,17.33c0,.08.34.43.27.52-.49.7,0,1.58-.36,2.2a2.46,2.46,0,0,0-.23,1.28c-.11.87.17,1.75-.32,2.62a1.73,1.73,0,0,0,0,1.49c.77,1.13,0,1.83-.5,2.64a3.43,3.43,0,0,1-1.06-1.61c-.26-.54.42-.71.16-1.16-.15-.26,0-.75-.16-.94-.44-.46.43-.57.17-1-.15-.25,0-.67,0-1s-.17-1.11.06-1.32c.52-.46-.3-.7,0-1s.21-.84.36-1.22C87.32,18.12,87.45,17.18,88.73,17.33Z"/><path class="cls-3" d="M53.84,27.61c-.54.15-1,.46-1.29.32a2.39,2.39,0,0,0-1.13-.19c-.44,0-.87.06-1.27-.31-.14-.13-.81.36-1,.23-.41-.29-.65-.36-1,0a.48.48,0,0,1-.48,0c-.61-.43-1.21.24-1.78,0a1.35,1.35,0,0,1-.67-.64.82.82,0,0,1,.2-.74c.31-.28.83-.72,1.08-.62,1,.41,2.11-.41,3,0s1.9.12,2.82.28a1,1,0,0,0,.34,0c1-.23,1.13-.16,1.19.72C53.85,27,53.84,27.29,53.84,27.61Z"/><path class="cls-3" d="M94.48,20.1c1.4.55,1.24,1.81,1.5,2.8s-.32,2.24.37,3.28c-.54.36-.23.94-.37,1.39a.85.85,0,0,1-1.39.28c-.37-.54-.89-1-.5-1.89a3.84,3.84,0,0,0,0-2.28A4.47,4.47,0,0,1,94.48,20.1Z"/><path class="cls-3" d="M82.53,24.34c.16-.79-1-1.15-.36-1.92-.63-.55-.22-1.27-.33-1.9a2.6,2.6,0,0,0-.13-.64,1.81,1.81,0,0,1,.21-2c.17-.14.53-.07.8-.1,0,.71.94.91.86,1.71a20.19,20.19,0,0,0,0,2.91A1.86,1.86,0,0,1,82.53,24.34Z"/><path class="cls-3" d="M113.33,19.76c-1.48,0-1.6,0-2-1.05-.18-.44-.51-1-.39-1.33s.68-.86,1-1.28l.85.35Z"/><path class="cls-3" d="M114.41,16.05a2.66,2.66,0,0,1,1.26,2.26c.13.77-.87.92-1.11,1.54-.83-.76-.34-1.84-.86-2.65C113.6,17.05,114.12,16.5,114.41,16.05Z"/></g></svg>