<svg xmlns="http://www.w3.org/2000/svg" viewBox="0 0 196.32 46.24"><defs><style>.cls-1{fill:none;stroke:#231815;stroke-linecap:round;stroke-linejoin:round;stroke-width:5px;}.cls-2{fill:#fff;}.cls-3{fill:#231815;}</style></defs><g id="レイヤー_1" data-name="レイヤー 1"><path class="cls-1" d="M90.28,14c.38-.3-.24-.46,0-.9a3.76,3.76,0,0,0,.11-2.52,6.84,6.84,0,0,0-.59-1.43c-.49-.77.35-1.19.27-1.81a2.54,2.54,0,0,0-.15-.94A6.59,6.59,0,0,1,89.21,3,2.66,2.66,0,0,0,86.11.65c-.4.7-.86-.44-1.27,0S83.7.9,83.13,1c-.39.07-1-.06-1.14.16-.49.63-.93-.2-1.3,0a1,1,0,0,1-1.41-.11.53.53,0,0,0-.53,0c-.44.51-.79.36-1.14-.08-.32.45-.78.4-1.25.39-.75,0-1.5,0-2.25,0s-1.36,0-2,0-1.3,0-1.9-.09-1.42.38-1.88.05A3.58,3.58,0,0,0,66,1C61.7,1,57.42,1,53.14,1c-.51,0-1.08.26-1.54-.24a.55.55,0,0,0-.53-.13,4,4,0,0,1-3.76,0,1.18,1.18,0,0,0-.78,0,9.74,9.74,0,0,1-5.22,0c-.2-.05-.46.18-.69.16a7.51,7.51,0,0,1-.78-.21,2,2,0,0,0-.81,0c-.48.15-1,.72-1.43.34-.62-.54-1,.26-1.55.1a4,4,0,0,0-2,0c-.6.15-1-.34-1.58-.25S31.33.59,30.82,1a.17.17,0,0,1-.18,0c-.55-.6-1.15-.39-1.82-.2s-1.14,0-1.66.1a5.64,5.64,0,0,0-2,.52c-.58.41-1.22-.63-1.87,0-1-.7-2.08-.27-3.12-.32-.36,0-.62.65-1.19.16-.18-.16-.75.17-1.16.2-.6,0-1.22,0-1.83,0s-1.4.23-1.8,0c-.64-.47-1.07.23-1.53,0a1.68,1.68,0,0,0-1.5,0c-.43-.63-.91.21-1.28,0C8.59.61,7.22,1.2,5.93,1c-.66.74-1.26.08-1.88-.08a9.19,9.19,0,0,0-1.68.21l-2,3.22a1.61,1.61,0,0,1,.09.29A7.27,7.27,0,0,1,.6,7.16c-.24.91.23,1.67.1,2.52s0,1.89-.06,2.83S1.08,14.27.26,15c.21.82.85,1.64,0,2.48A3.9,3.9,0,0,1,.31,21c.8.71,0,1.38,0,2.07,1,.7-.35,1.37,0,2.11.15.36-.61.84,0,1.27.08,1.43-.29,2.91.4,4.29-.65.69.23,1.35,0,2.1s.06,1.76-.09,2.61c-.09.5.67.78.14,1.35-.38.4.15,1.14-.42,1.65a1.15,1.15,0,0,0-.05,1.12C.84,40,.2,40.5.6,41s.08,1.29.06,2a3,3,0,0,0,1.19,2.34c.09.08.37.12.41.07.45-.59,1,.25,1.11.07.58-.68.93.15,1.36.1.76-.09,1.57.32,2.31-.35.32-.28,1,.06,1.51-.29.29-.18,1,.37,1.37.21a8.89,8.89,0,0,1,3.31-.37c.41,0,1-.4,1.18-.24a1.35,1.35,0,0,0,1.32.21c.62-.3,1.38-.64,1.85-.3.71.52,1.15-.44,1.75-.08a2.17,2.17,0,0,0,1.07.33c.34,0,.69-.3,1-.29s1,.43,1,.35c.56-.78,1.32,0,2-.29a2.56,2.56,0,0,1,2.5.23c.2.16.75,0,1.07-.16a1,1,0,0,1,1.26.09c.13.11.46.21.53.14.81-.8,1.81-.24,2.7-.37a1.88,1.88,0,0,1,1.34.23c.29.18.91-.23,1.38-.23s1.22.44,1.6.24c.65-.33,1.07-.37,1.58.12.08.08.43,0,.53-.12.45-.5,1.15,0,1.5-.3.6-.54,1,.26,1.53.06s1.1-.47,1.4-.29c1.4.84,3.09-.4,4.42.67.5-.69,1.26-.45,1.86-.36s1.24-.64,1.88-.1c.21-.75.64.25,1.06-.15s1-.19,1.52-.18,1,.35,1.16.19c.63-.61.92.3,1.39.2a11.34,11.34,0,0,1,1.14-.2c.64-.06,1.28-.09,1.92-.1.14,0,.39.21.42.17.51-.56,1.16-.17,1.73-.27a2.38,2.38,0,0,1,1.67.4c.48.29.89-.57,1.53-.05.36.3,1.12,0,1.65.44s1-.69,1.48,0c.29-.62.89-.13,1.36-.32s1.41.17,2.11.1c.44,0,.85.23,1.32,0a2.58,2.58,0,0,1,1.36-.13c.42,0,1,.45,1.2.29a1.84,1.84,0,0,1,1.32-.3,9.74,9.74,0,0,1,1.43,0c.16,0,.29.29.46.33.49.11,1,.65,1.48.06a38.61,38.61,0,0,0,7.53-.51L89,42.37c.06-.1.21-.27.2-.27-.84-.74-.19-1.76-.5-2.63-.22-.63-.63-1.57-.22-2.16s.27-1.26.35-1.89a6.59,6.59,0,0,1,0-1A11.94,11.94,0,0,0,89.38,33a8.32,8.32,0,0,0-.15-1.56c0-.61,0-1.21,0-1.82s-.22-1.25,0-1.59c.49-.62-.27-1,0-1.52.1-.23,0-.58.16-.74.37-.38.19-.6,0-1a3,3,0,0,1,0-1.48c0-.31.19-.61.21-.92,0-.72-.18-1.5.64-2,.06,0,.1-.24.06-.27a1.36,1.36,0,0,1-.23-1.67c.48-.7-.23-1.16-.07-1.73s-.17-.94.33-1.3a.53.53,0,0,0,0-.52C90.07,14.61,89.83,14.3,90.28,14Z"/><path class="cls-1" d="M53.35,31.64c-.39.3.23.46,0,.9a3.76,3.76,0,0,0-.11,2.52,6.34,6.34,0,0,0,.59,1.43c.49.77-.35,1.19-.28,1.81a2.35,2.35,0,0,0,.16.94,6.69,6.69,0,0,1,.68,3.38,2.66,2.66,0,0,0,3.09,2.32c.4-.7.87.44,1.28,0s1.14-.2,1.71-.3c.38-.07,1,.06,1.13-.16.5-.63.93.2,1.3,0a1,1,0,0,1,1.42.11.51.51,0,0,0,.52,0c.44-.5.79-.36,1.15.08.31-.45.78-.4,1.25-.39h2.24c.68,0,1.36,0,2,0s1.3.05,1.9.09,1.42-.38,1.88-.05a3.57,3.57,0,0,0,2.31.34c4.28,0,8.57,0,12.85,0,.5,0,1.08-.26,1.53.24a.57.57,0,0,0,.53.13,4,4,0,0,1,3.76,0,1.2,1.2,0,0,0,.79,0,9.7,9.7,0,0,1,5.21,0c.2,0,.47-.18.69-.16a7.69,7.69,0,0,1,.79.21,2,2,0,0,0,.81,0c.48-.15,1-.72,1.43-.34.62.54,1-.26,1.55-.1a3.91,3.91,0,0,0,2,0c.61-.15,1,.34,1.59.25s1.11.2,1.63-.21a.17.17,0,0,1,.18,0c.55.6,1.15.39,1.81.2s1.14,0,1.67-.1a5.64,5.64,0,0,0,2-.52c.57-.41,1.22.63,1.87,0,1,.7,2.07.27,3.11.32.36,0,.62-.65,1.19-.16.19.16.76-.17,1.16-.2.61,0,1.22,0,1.84,0s1.39-.23,1.79,0c.65.47,1.07-.23,1.53,0a1.7,1.7,0,0,0,1.51,0c.42.63.9-.21,1.28,0,1.26.78,2.62.19,3.92.39.66-.74,1.25-.08,1.87.08a9.19,9.19,0,0,0,1.68-.21l2-3.22a1.61,1.61,0,0,1-.09-.29,7.51,7.51,0,0,1-.16-2.52c.25-.91-.22-1.67-.09-2.52s0-1.89,0-2.83-.43-1.76.39-2.47c-.21-.82-.85-1.64-.05-2.48a3.9,3.9,0,0,1,0-3.55c-.81-.71,0-1.38.05-2.07-1-.7.35-1.37,0-2.11-.16-.36.6-.84,0-1.27-.09-1.43.28-2.91-.41-4.28.66-.7-.22-1.36,0-2.11s-.07-1.76.08-2.61c.09-.5-.67-.78-.14-1.35.38-.4-.14-1.14.43-1.65A1.15,1.15,0,0,0,143.34,6c-.55-.4.08-.92-.31-1.42s-.08-1.29-.06-2A3.07,3.07,0,0,0,141.78.28c-.09-.08-.37-.12-.41-.07-.46.59-1-.25-1.11-.07-.58.68-.93-.15-1.36-.1-.77.09-1.57-.32-2.32.35-.31.29-1-.06-1.5.29-.29.18-1-.37-1.37-.21a8.94,8.94,0,0,1-3.32.37c-.41,0-1,.4-1.18.25a1.33,1.33,0,0,0-1.32-.22c-.62.3-1.38.64-1.84.3-.72-.52-1.15.44-1.75.08a2.2,2.2,0,0,0-1.07-.33c-.35,0-.7.3-1,.29s-1-.43-1-.35c-.57.78-1.33,0-2,.29a2.56,2.56,0,0,1-2.5-.23c-.2-.15-.75,0-1.07.16A1,1,0,0,1,114.33,1c-.12-.11-.46-.21-.52-.14-.82.8-1.81.24-2.71.37A1.86,1.86,0,0,1,109.77,1c-.29-.18-.91.23-1.39.23s-1.21-.44-1.6-.24A1.17,1.17,0,0,1,105.2.86c-.07-.07-.42,0-.52.12-.45.51-1.15,0-1.5.3-.61.54-1-.26-1.54-.06s-1.09.47-1.39.29c-1.41-.84-3.09.4-4.42-.67-.5.69-1.27.45-1.86.36s-1.24.64-1.89.1c-.2.75-.64-.25-1,.15s-1,.19-1.53.18-1-.35-1.15-.19c-.63.61-.92-.3-1.4-.2a11.15,11.15,0,0,1-1.13.2c-.64.06-1.28.09-1.92.1-.15,0-.39-.21-.42-.17-.51.56-1.16.17-1.73.27a2.38,2.38,0,0,1-1.67-.4c-.48-.29-.89.57-1.54.05-.36-.3-1.11,0-1.64-.44s-1,.69-1.48,0c-.29.62-.89.13-1.36.32s-1.41-.17-2.12-.1c-.44,0-.84-.23-1.32,0a2.56,2.56,0,0,1-1.36.13c-.42,0-1-.45-1.2-.29a1.82,1.82,0,0,1-1.32.3,9.62,9.62,0,0,1-1.42,0c-.17,0-.3-.29-.47-.33-.48-.11-1-.65-1.47-.06a38.5,38.5,0,0,0-7.53.51c-.39.6-.79,1.24-1.2,1.88-.07.1-.21.27-.2.27.83.74.18,1.76.49,2.64.22.63.63,1.56.22,2.15s-.27,1.26-.35,1.89a8.23,8.23,0,0,1,0,1,12,12,0,0,0-.54,1.39,10.42,10.42,0,0,0,.15,1.56c0,.61,0,1.22,0,1.82s.22,1.25,0,1.59c-.49.62.27,1,.06,1.52-.1.23,0,.58-.16.74-.37.38-.19.6,0,1a3.25,3.25,0,0,1,0,1.48c0,.31-.19.61-.21.92,0,.72.18,1.5-.64,2a.32.32,0,0,0-.07.27,1.36,1.36,0,0,1,.23,1.67c-.47.7.24,1.16.07,1.73s.18.94-.32,1.3a.53.53,0,0,0,0,.52C53.56,31,53.8,31.29,53.35,31.64Z"/><path class="cls-1" d="M195.8,32.67c-.08-1.28.29-2.67-.11-3.81a8.13,8.13,0,0,1-.26-3.11c0-.43,0-.84,0-1.28a7.25,7.25,0,0,1,.26-3.11,23.63,23.63,0,0,0,.5-3.1c-.62-.44-.38-1.08-.41-1.66s.54-1,0-1.48a2.31,2.31,0,0,0,.33-2.42c-.42-.77.75-1.64-.32-2.19,0,0,.06-.36.14-.53a2.67,2.67,0,0,0,0-2.61.82.82,0,0,1-.06-.54c.09-.38.42-1,.3-1.1-.6-.51.35-1,0-1.28-.72-.54.42-.88.05-1.32,0-.27,0-.54,0-.81a.87.87,0,0,0-.86-.9c-1.58-.09-3.19.21-4.74-.39-.2-.07-.54.3-.84.37-.65.15-.34-.68-.66-.75-1-.17-2,.14-2.88-.46-.43.61-.82.43-1.31,0-.17-.13-.66,0-.91.17a.81.81,0,0,1-.87,0c-.36-.13-.79-.11-1.2-.21a1.49,1.49,0,0,0-1.33.21c-.29.21-.85-.65-1.25.08-.84-.36-1.63.22-2.49.11s-2.18.27-3-.12-1.52.72-2-.32a9.14,9.14,0,0,1-5.78,0,.4.4,0,0,0-.36.09c-.35.5-.87.32-1.31.29-.85,0-1.7,0-2.56-.14s-1.62.26-2.46-.21c-.26-.15-.92.29-1.12.13-.69-.55-1.36-.29-2.06-.16-1.15.2-2.41-.47-3.51.38-.09.07-.35-.09-.53-.14s-.74-.33-.9-.22a2,2,0,0,1-2,.31c-.64-.49-1.4.6-1.79-.33-.57.77-1.09-.35-1.72,0-.32.15-.77.65-1.3.06-.34-.38-.88.54-1.32.11-.66-.65-.81.47-1.42.32A9.91,9.91,0,0,0,139.23.6h-2.65a7.56,7.56,0,0,1-2.43,0c-.85-.31-1.61.43-2.32,0s-1.59,0-2.31.1c-.54.08-.93.36-1.59.11-.49-.2-1.23.3-1.78.17a5.17,5.17,0,0,0-1.92,0,46.82,46.82,0,0,1-5.3,0c-.56,0-1.85.64-1.9,1.17-.17,1.86-1,3.62-.86,5.53,0,.42.52.76.07,1.32-.27.33.05,1.08-.14,1.54a1.1,1.1,0,0,0,0,.74,28.72,28.72,0,0,1,.09,3.22c-.65.25.21.86-.28,1.17-.65.41-.32,1-.28,1.57a11.08,11.08,0,0,1,.14,1.14c0,.44-.22.87-.23,1.31s.32.8.19.95a1,1,0,0,0,0,1.58c.16.18.1.63,0,.92-.66,2.16-.32,4.35-.16,6.51a3.45,3.45,0,0,1,0,1.4c-.14.46.29,1.08.18,1.57a4,4,0,0,0,0,2,8.41,8.41,0,0,1,0,2v1.83a19.44,19.44,0,0,0,0,2,13.62,13.62,0,0,0,.39,1.65c-1,.32.31,1.15-.33,1.56-.1,1.27.78,1.87,2,1.72a26.37,26.37,0,0,1,5.18-.08c.47,0,1,.4,1.38,0,.66-.67.87.67,1.41.25,1-.76,2.06-.27,3.1-.37.74-.08,1.63.21,2.19-.12a2.72,2.72,0,0,1,2.11-.24,4.68,4.68,0,0,0,1.72-.07c.63-.06,1.33.25,1.9-.36.13-.14.62,0,.93.1s.62.3.67.24c.68-.82,1.3-.17,1.94,0,.34.11.85.41,1,.28a1.3,1.3,0,0,1,1.65-.13c.62.44.84-.38,1.39-.19a6.12,6.12,0,0,0,1.82,0c.61,0,1.22,0,1.83,0a7.53,7.53,0,0,1,2,.18c.61.21,1-.39,1.58-.23.42.11,1.09-.47,1.42-.3a3.23,3.23,0,0,0,1.5.35,5.47,5.47,0,0,1,1.62,0,1.49,1.49,0,0,0,1.32,0c.23-.12.66.45,1,0,.25.6,1-.41,1.16.33.42-.13.83-.29,1.26-.38.16,0,.36.09.54.14a4.63,4.63,0,0,0,.67.2c.39-.88,1,.18,1.44-.18.62-.5,1.07.07,1.6.22.25.07.67.13.79,0,.55-.6,1,0,1.52,0s1.35-.33,1.92.28c.08.1.38.09.53,0,1.75-.74,3.59-.14,5.37-.34.57.55,1.26-.24,1.67,0,.74.51,1.3.06,1.94,0a7.14,7.14,0,0,1,2.89.37,6.32,6.32,0,0,0,1.63,0h1.63c.54,0,1.09,0,1.63,0a7.68,7.68,0,0,1,1.36.19,2.81,2.81,0,0,0,1.23-.17,5.85,5.85,0,0,1,1.82,0,3.47,3.47,0,0,1,1.39.57c.46.33.89-.72,1.28,0,.64-.14,1.44,0,1.79-.67a1.67,1.67,0,0,0,.08-1.44,2.31,2.31,0,0,1-.25-1.33,7.38,7.38,0,0,1,0-1.41c.08-.49.34-1,.38-1.46.06-.87-.26-1.89.09-2.59s-.7-1.62.33-2.18a.49.49,0,0,0-.07-.35C195.44,34.15,195.84,33.37,195.8,32.67Z"/><path class="cls-2" d="M90.28,14c.38-.3-.24-.46,0-.9a3.76,3.76,0,0,0,.11-2.52,6.84,6.84,0,0,0-.59-1.43c-.49-.77.35-1.19.27-1.81a2.54,2.54,0,0,0-.15-.94A6.59,6.59,0,0,1,89.21,3,2.66,2.66,0,0,0,86.11.65c-.4.7-.86-.44-1.27,0S83.7.9,83.13,1c-.39.07-1-.06-1.14.16-.49.63-.93-.2-1.3,0a1,1,0,0,1-1.41-.11.53.53,0,0,0-.53,0c-.44.51-.79.36-1.14-.08-.32.45-.78.4-1.25.39-.75,0-1.5,0-2.25,0s-1.36,0-2,0-1.3,0-1.9-.09-1.42.38-1.88.05A3.58,3.58,0,0,0,66,1C61.7,1,57.42,1,53.14,1c-.51,0-1.08.26-1.54-.24a.55.55,0,0,0-.53-.13,4,4,0,0,1-3.76,0,1.18,1.18,0,0,0-.78,0,9.74,9.74,0,0,1-5.22,0c-.2-.05-.46.18-.69.16a7.51,7.51,0,0,1-.78-.21,2,2,0,0,0-.81,0c-.48.15-1,.72-1.43.34-.62-.54-1,.26-1.55.1a4,4,0,0,0-2,0c-.6.15-1-.34-1.58-.25S31.33.59,30.82,1a.17.17,0,0,1-.18,0c-.55-.6-1.15-.39-1.82-.2s-1.14,0-1.66.1a5.64,5.64,0,0,0-2,.52c-.58.41-1.22-.63-1.87,0-1-.7-2.08-.27-3.12-.32-.36,0-.62.65-1.19.16-.18-.16-.75.17-1.16.2-.6,0-1.22,0-1.83,0s-1.4.23-1.8,0c-.64-.47-1.07.23-1.53,0a1.68,1.68,0,0,0-1.5,0c-.43-.63-.91.21-1.28,0C8.59.61,7.22,1.2,5.93,1c-.66.74-1.26.08-1.88-.08a9.19,9.19,0,0,0-1.68.21l-2,3.22a1.61,1.61,0,0,1,.09.29A7.27,7.27,0,0,1,.6,7.16c-.24.91.23,1.67.1,2.52s0,1.89-.06,2.83S1.08,14.27.26,15c.21.82.85,1.64,0,2.48A3.9,3.9,0,0,1,.31,21c.8.71,0,1.38,0,2.07,1,.7-.35,1.37,0,2.11.15.36-.61.84,0,1.27.08,1.43-.29,2.91.4,4.29-.65.69.23,1.35,0,2.1s.06,1.76-.09,2.61c-.09.5.67.78.14,1.35-.38.4.15,1.14-.42,1.65a1.15,1.15,0,0,0-.05,1.12C.84,40,.2,40.5.6,41s.08,1.29.06,2a3,3,0,0,0,1.19,2.34c.09.08.37.12.41.07.45-.59,1,.25,1.11.07.58-.68.93.15,1.36.1.76-.09,1.57.32,2.31-.35.32-.28,1,.06,1.51-.29.29-.18,1,.37,1.37.21a8.89,8.89,0,0,1,3.31-.37c.41,0,1-.4,1.18-.24a1.35,1.35,0,0,0,1.32.21c.62-.3,1.38-.64,1.85-.3.71.52,1.15-.44,1.75-.08a2.17,2.17,0,0,0,1.07.33c.34,0,.69-.3,1-.29s1,.43,1,.35c.56-.78,1.32,0,2-.29a2.56,2.56,0,0,1,2.5.23c.2.16.75,0,1.07-.16a1,1,0,0,1,1.26.09c.13.11.46.21.53.14.81-.8,1.81-.24,2.7-.37a1.88,1.88,0,0,1,1.34.23c.29.18.91-.23,1.38-.23s1.22.44,1.6.24c.65-.33,1.07-.37,1.58.12.08.08.43,0,.53-.12.45-.5,1.15,0,1.5-.3.6-.54,1,.26,1.53.06s1.1-.47,1.4-.29c1.4.84,3.09-.4,4.42.67.5-.69,1.26-.45,1.86-.36s1.24-.64,1.88-.1c.21-.75.64.25,1.06-.15s1-.19,1.52-.18,1,.35,1.16.19c.63-.61.92.3,1.39.2a11.34,11.34,0,0,1,1.14-.2c.64-.06,1.28-.09,1.92-.1.14,0,.39.21.42.17.51-.56,1.16-.17,1.73-.27a2.38,2.38,0,0,1,1.67.4c.48.29.89-.57,1.53-.05.36.3,1.12,0,1.65.44s1-.69,1.48,0c.29-.62.89-.13,1.36-.32s1.41.17,2.11.1c.44,0,.85.23,1.32,0a2.58,2.58,0,0,1,1.36-.13c.42,0,1,.45,1.2.29a1.84,1.84,0,0,1,1.32-.3,9.74,9.74,0,0,1,1.43,0c.16,0,.29.29.46.33.49.11,1,.65,1.48.06a38.61,38.61,0,0,0,7.53-.51L89,42.37c.06-.1.21-.27.2-.27-.84-.74-.19-1.76-.5-2.63-.22-.63-.63-1.57-.22-2.16s.27-1.26.35-1.89a6.59,6.59,0,0,1,0-1A11.94,11.94,0,0,0,89.38,33a8.32,8.32,0,0,0-.15-1.56c0-.61,0-1.21,0-1.82s-.22-1.25,0-1.59c.49-.62-.27-1,0-1.52.1-.23,0-.58.16-.74.37-.38.19-.6,0-1a3,3,0,0,1,0-1.48c0-.31.19-.61.21-.92,0-.72-.18-1.5.64-2,.06,0,.1-.24.06-.27a1.36,1.36,0,0,1-.23-1.67c.48-.7-.23-1.16-.07-1.73s-.17-.94.33-1.3a.53.53,0,0,0,0-.52C90.07,14.61,89.83,14.3,90.28,14Z"/><path class="cls-2" d="M53.35,31.64c-.39.3.23.46,0,.9a3.76,3.76,0,0,0-.11,2.52,6.34,6.34,0,0,0,.59,1.43c.49.77-.35,1.19-.28,1.81a2.35,2.35,0,0,0,.16.94,6.69,6.69,0,0,1,.68,3.38,2.66,2.66,0,0,0,3.09,2.32c.4-.7.87.44,1.28,0s1.14-.2,1.71-.3c.38-.07,1,.06,1.13-.16.5-.63.93.2,1.3,0a1,1,0,0,1,1.42.11.51.51,0,0,0,.52,0c.44-.5.79-.36,1.15.08.31-.45.78-.4,1.25-.39h2.24c.68,0,1.36,0,2,0s1.3.05,1.9.09,1.42-.38,1.88-.05a3.57,3.57,0,0,0,2.31.34c4.28,0,8.57,0,12.85,0,.5,0,1.08-.26,1.53.24a.57.57,0,0,0,.53.13,4,4,0,0,1,3.76,0,1.2,1.2,0,0,0,.79,0,9.7,9.7,0,0,1,5.21,0c.2,0,.47-.18.69-.16a7.69,7.69,0,0,1,.79.21,2,2,0,0,0,.81,0c.48-.15,1-.72,1.43-.34.62.54,1-.26,1.55-.1a3.91,3.91,0,0,0,2,0c.61-.15,1,.34,1.59.25s1.11.2,1.63-.21a.17.17,0,0,1,.18,0c.55.6,1.15.39,1.81.2s1.14,0,1.67-.1a5.64,5.64,0,0,0,2-.52c.57-.41,1.22.63,1.87,0,1,.7,2.07.27,3.11.32.36,0,.62-.65,1.19-.16.19.16.76-.17,1.16-.2.61,0,1.22,0,1.84,0s1.39-.23,1.79,0c.65.47,1.07-.23,1.53,0a1.7,1.7,0,0,0,1.51,0c.42.63.9-.21,1.28,0,1.26.78,2.62.19,3.92.39.66-.74,1.25-.08,1.87.08a9.19,9.19,0,0,0,1.68-.21l2-3.22a1.61,1.61,0,0,1-.09-.29,7.51,7.51,0,0,1-.16-2.52c.25-.91-.22-1.67-.09-2.52s0-1.89,0-2.83-.43-1.76.39-2.47c-.21-.82-.85-1.64-.05-2.48a3.9,3.9,0,0,1,0-3.55c-.81-.71,0-1.38.05-2.07-1-.7.35-1.37,0-2.11-.16-.36.6-.84,0-1.27-.09-1.43.28-2.91-.41-4.28.66-.7-.22-1.36,0-2.11s-.07-1.76.08-2.61c.09-.5-.67-.78-.14-1.35.38-.4-.14-1.14.43-1.65A1.15,1.15,0,0,0,143.34,6c-.55-.4.08-.92-.31-1.42s-.08-1.29-.06-2A3.07,3.07,0,0,0,141.78.28c-.09-.08-.37-.12-.41-.07-.46.59-1-.25-1.11-.07-.58.68-.93-.15-1.36-.1-.77.09-1.57-.32-2.32.35-.31.29-1-.06-1.5.29-.29.18-1-.37-1.37-.21a8.94,8.94,0,0,1-3.32.37c-.41,0-1,.4-1.18.25a1.33,1.33,0,0,0-1.32-.22c-.62.3-1.38.64-1.84.3-.72-.52-1.15.44-1.75.08a2.2,2.2,0,0,0-1.07-.33c-.35,0-.7.3-1,.29s-1-.43-1-.35c-.57.78-1.33,0-2,.29a2.56,2.56,0,0,1-2.5-.23c-.2-.15-.75,0-1.07.16A1,1,0,0,1,114.33,1c-.12-.11-.46-.21-.52-.14-.82.8-1.81.24-2.71.37A1.86,1.86,0,0,1,109.77,1c-.29-.18-.91.23-1.39.23s-1.21-.44-1.6-.24A1.17,1.17,0,0,1,105.2.86c-.07-.07-.42,0-.52.12-.45.51-1.15,0-1.5.3-.61.54-1-.26-1.54-.06s-1.09.47-1.39.29c-1.41-.84-3.09.4-4.42-.67-.5.69-1.27.45-1.86.36s-1.24.64-1.89.1c-.2.75-.64-.25-1,.15s-1,.19-1.53.18-1-.35-1.15-.19c-.63.61-.92-.3-1.4-.2a11.15,11.15,0,0,1-1.13.2c-.64.06-1.28.09-1.92.1-.15,0-.39-.21-.42-.17-.51.56-1.16.17-1.73.27a2.38,2.38,0,0,1-1.67-.4c-.48-.29-.89.57-1.54.05-.36-.3-1.11,0-1.64-.44s-1,.69-1.48,0c-.29.62-.89.13-1.36.32s-1.41-.17-2.12-.1c-.44,0-.84-.23-1.32,0a2.56,2.56,0,0,1-1.36.13c-.42,0-1-.45-1.2-.29a1.82,1.82,0,0,1-1.32.3,9.62,9.62,0,0,1-1.42,0c-.17,0-.3-.29-.47-.33-.48-.11-1-.65-1.47-.06a38.5,38.5,0,0,0-7.53.51c-.39.6-.79,1.24-1.2,1.88-.07.1-.21.27-.2.27.83.74.18,1.76.49,2.64.22.63.63,1.56.22,2.15s-.27,1.26-.35,1.89a8.23,8.23,0,0,1,0,1,12,12,0,0,0-.54,1.39,10.42,10.42,0,0,0,.15,1.56c0,.61,0,1.22,0,1.82s.22,1.25,0,1.59c-.49.62.27,1,.06,1.52-.1.23,0,.58-.16.74-.37.38-.19.6,0,1a3.25,3.25,0,0,1,0,1.48c0,.31-.19.61-.21.92,0,.72.18,1.5-.64,2a.32.32,0,0,0-.07.27,1.36,1.36,0,0,1,.23,1.67c-.47.7.24,1.16.07,1.73s.18.94-.32,1.3a.53.53,0,0,0,0,.52C53.56,31,53.8,31.29,53.35,31.64Z"/><path class="cls-2" d="M195.8,32.67c-.08-1.28.29-2.67-.11-3.81a8.13,8.13,0,0,1-.26-3.11c0-.43,0-.84,0-1.28a7.25,7.25,0,0,1,.26-3.11,23.63,23.63,0,0,0,.5-3.1c-.62-.44-.38-1.08-.41-1.66s.54-1,0-1.48a2.31,2.31,0,0,0,.33-2.42c-.42-.77.75-1.64-.32-2.19,0,0,.06-.36.14-.53a2.67,2.67,0,0,0,0-2.61.82.82,0,0,1-.06-.54c.09-.38.42-1,.3-1.1-.6-.51.35-1,0-1.28-.72-.54.42-.88.05-1.32,0-.27,0-.54,0-.81a.87.87,0,0,0-.86-.9c-1.58-.09-3.19.21-4.74-.39-.2-.07-.54.3-.84.37-.65.15-.34-.68-.66-.75-1-.17-2,.14-2.88-.46-.43.61-.82.43-1.31,0-.17-.13-.66,0-.91.17a.81.81,0,0,1-.87,0c-.36-.13-.79-.11-1.2-.21a1.49,1.49,0,0,0-1.33.21c-.29.21-.85-.65-1.25.08-.84-.36-1.63.22-2.49.11s-2.18.27-3-.12-1.52.72-2-.32a9.14,9.14,0,0,1-5.78,0,.4.4,0,0,0-.36.09c-.35.5-.87.32-1.31.29-.85,0-1.7,0-2.56-.14s-1.62.26-2.46-.21c-.26-.15-.92.29-1.12.13-.69-.55-1.36-.29-2.06-.16-1.15.2-2.41-.47-3.51.38-.09.07-.35-.09-.53-.14s-.74-.33-.9-.22a2,2,0,0,1-2,.31c-.64-.49-1.4.6-1.79-.33-.57.77-1.09-.35-1.72,0-.32.15-.77.65-1.3.06-.34-.38-.88.54-1.32.11-.66-.65-.81.47-1.42.32A9.91,9.91,0,0,0,139.23.6h-2.65a7.56,7.56,0,0,1-2.43,0c-.85-.31-1.61.43-2.32,0s-1.59,0-2.31.1c-.54.08-.93.36-1.59.11-.49-.2-1.23.3-1.78.17a5.17,5.17,0,0,0-1.92,0,46.82,46.82,0,0,1-5.3,0c-.56,0-1.85.64-1.9,1.17-.17,1.86-1,3.62-.86,5.53,0,.42.52.76.07,1.32-.27.33.05,1.08-.14,1.54a1.1,1.1,0,0,0,0,.74,28.72,28.72,0,0,1,.09,3.22c-.65.25.21.86-.28,1.17-.65.41-.32,1-.28,1.57a11.08,11.08,0,0,1,.14,1.14c0,.44-.22.87-.23,1.31s.32.8.19.95a1,1,0,0,0,0,1.58c.16.18.1.63,0,.92-.66,2.16-.32,4.35-.16,6.51a3.45,3.45,0,0,1,0,1.4c-.14.46.29,1.08.18,1.57a4,4,0,0,0,0,2,8.41,8.41,0,0,1,0,2v1.83a19.44,19.44,0,0,0,0,2,13.62,13.62,0,0,0,.39,1.65c-1,.32.31,1.15-.33,1.56-.1,1.27.78,1.87,2,1.72a26.37,26.37,0,0,1,5.18-.08c.47,0,1,.4,1.38,0,.66-.67.87.67,1.41.25,1-.76,2.06-.27,3.1-.37.74-.08,1.63.21,2.19-.12a2.72,2.72,0,0,1,2.11-.24,4.68,4.68,0,0,0,1.72-.07c.63-.06,1.33.25,1.9-.36.13-.14.62,0,.93.1s.62.3.67.24c.68-.82,1.3-.17,1.94,0,.34.11.85.41,1,.28a1.3,1.3,0,0,1,1.65-.13c.62.44.84-.38,1.39-.19a6.12,6.12,0,0,0,1.82,0c.61,0,1.22,0,1.83,0a7.53,7.53,0,0,1,2,.18c.61.21,1-.39,1.58-.23.42.11,1.09-.47,1.42-.3a3.23,3.23,0,0,0,1.5.35,5.47,5.47,0,0,1,1.62,0,1.49,1.49,0,0,0,1.32,0c.23-.12.66.45,1,0,.25.6,1-.41,1.16.33.42-.13.83-.29,1.26-.38.16,0,.36.09.54.14a4.63,4.63,0,0,0,.67.2c.39-.88,1,.18,1.44-.18.62-.5,1.07.07,1.6.22.25.07.67.13.79,0,.55-.6,1,0,1.52,0s1.35-.33,1.92.28c.08.1.38.09.53,0,1.75-.74,3.59-.14,5.37-.34.57.55,1.26-.24,1.67,0,.74.51,1.3.06,1.94,0a7.14,7.14,0,0,1,2.89.37,6.32,6.32,0,0,0,1.63,0h1.63c.54,0,1.09,0,1.63,0a7.68,7.68,0,0,1,1.36.19,2.81,2.81,0,0,0,1.23-.17,5.85,5.85,0,0,1,1.82,0,3.47,3.47,0,0,1,1.39.57c.46.33.89-.72,1.28,0,.64-.14,1.44,0,1.79-.67a1.67,1.67,0,0,0,.08-1.44,2.31,2.31,0,0,1-.25-1.33,7.38,7.38,0,0,1,0-1.41c.08-.49.34-1,.38-1.46.06-.87-.26-1.89.09-2.59s-.7-1.62.33-2.18a.49.49,0,0,0-.07-.35C195.44,34.15,195.84,33.37,195.8,32.67Z"/></g><g id="レイヤー_2" data-name="レイヤー 2"><g id="_9EZMFD" data-name="9EZMFD"><path class="cls-3" d="M82.61,24.53a.45.45,0,0,1,.08.34c-.1.41-.44,1-.28,1.19.36.43.2.85.29,1.28A6.39,6.39,0,0,1,82.57,30c-.89-.25-1.44-.73-1.27-1.75.07-.37,0-.68-.52-.63,0,0-.2-.35-.15-.41.72-.92.25-1.75-.13-2.6l-2.6,2.89c-.51-.59-.82-1.09-.38-1.67S78,24.28,78.89,24c.14,0,.34-.26.32-.36-.15-.79.49-1.1.92-1.52a1.36,1.36,0,0,0,.5-1.18c-.06-.72,0-1.46,0-2.12-.64-.38-1.13.3-1.67,0,0,0-.15.15-.23.23-.6-.68-1.44-.11-2.08-.38a.79.79,0,0,1-.4-1.22,5.66,5.66,0,0,1,1.61-.25c.49,0,1-.5,1.48,0,.1.09.62-.2.92-.37s.12-.43.07-.74a1,1,0,0,1,1.15-1.17.83.83,0,0,1,.86.81,10.29,10.29,0,0,1,0,1.25c.32-.14.56-.35.76-.31.72.13,1.39.51,2.16,0,.2-.13.72.14,1,.32a5.64,5.64,0,0,1,.88.76,47.78,47.78,0,0,1,3-4.28c.2-.21-.46-.51,0-.73a5.34,5.34,0,0,0,.71-.37,1.13,1.13,0,0,1,1.44,0,8.22,8.22,0,0,0,.74.71c.55.36.59,1.36,1.54,1.21a2.4,2.4,0,0,0,.9,1.05,13.48,13.48,0,0,0,2.25,1.25c.56.22.42.7.75,1s-.54,1-.78.78c-.51-.48-1.07-.24-4.84-.74-2.83-.6-2.57.39-2-.22a1.35,1.35,0,0,1,1.29,0c.6.46,1.21.22,1.79.23a5.09,5.09,0,0,1,1.86.24c.08,0,.19,0,.29,0a1.64,1.64,0,0,0-.13-.46c0-.06-.22,0-.31-.07a5.78,5.78,0,0,1-1-.55,1.52,1.52,0,0,0-1-.51c-.25,0-.48-.42-.72-.65s-.58-.4-.65-.66c-.17-.65-.69-.44-.91-.3a3.44,3.44,0,0,0-.84,1c-.33.49-.62,1,2.3,1.94,3.23.83,3.23,1.23,3.23,1.75H93.29c.41.6.62,1.15,1,1.39a2.42,2.42,0,0,0,1.49.19c.27,0,.23,0,.39.17.49.59.07,1.45.67,2-.18.62-.39,1.22-.52,1.85-.24,1.11-1.26,1-2,1.34a2.45,2.45,0,0,1-.86,0c-.78,0,0,.43-.12.55-.59.65-.15,1.4-.33,2.15H95l.57,1.7c-.79,0-1.5.33-2.27-.19-.3-.21-.84-.31-1,.45,0,.22-.72.42-1.13.45-.15,0-.44-.47-.5-.76-.09-.47.14-1-.76-1-.31,0-.73-.5-1-.85s.11-.87.73-.95c.44-.06.76-.28,1.26.09s.3-.42.53-.6c.44-.33,0-.53-.17-.59a8.23,8.23,0,0,0-1.53-.48,1.64,1.64,0,0,1-1.52-1.56,15.93,15.93,0,0,0-.29-1.94,6.47,6.47,0,0,1,.34-2.26c.92-.37,1.89.17,2.83-.33.72-.38.81-.22.87-1.16-.75.13-1.53-.25-2.22.35-1.1-.84-1.67.15-2.38.67-.35.26-.72.47-1.2.78,0-.83-.25-1.59.3-2.35-1.39-.54-2.67.58-4.19.15.09.71.39,1.37.18,1.76-.36.67.2,1,.22,1.53a.55.55,0,0,0,.38.6C84,23,84.51,24,85.64,24.22c.07,0,.17.2.15.26a3,3,0,0,1-.47,1,.82.82,0,0,1-.76,0c-.45-.71-1.31-.53-2-1h.08a.76.76,0,0,0-.11-.26s-.13,0-.2.06A.59.59,0,0,0,82.61,24.53ZM91,21.78a2,2,0,0,0-.29.14,2.09,2.09,0,0,0-.36,2.8.63.63,0,0,0,1-.24c.21-.54.35-1.1.52-1.66,0-.19.17-.52.11-.56A7.52,7.52,0,0,0,91,21.78ZM95.09,23a.88.88,0,0,0-.19-.21c-.34-.2-.45-.87-1.06-.55s-.44.85-.42,1.34c0,.14.16.28.26.39s-.68.52.09.58c.31,0,.64.12.7-.44A3.65,3.65,0,0,1,95.09,23Z"/><path class="cls-3" d="M116.6,15.25c.12.74.2,1.38.31,2s-.26,1.32.3,1.95a.68.68,0,0,1-.32,1,4.46,4.46,0,0,1-1.27.1c0-.2.13-.43.06-.6s-.52-.5-.47-.64c.19-.56-.51-1-.07-1.64.25-.35-.3-.86-.62-.78-.68.17-1.29-.56-2-.07-.14.1-.57-.29-.87-.29a2.58,2.58,0,0,0-.89.32,1.33,1.33,0,0,0-.56.32c-.59.89-1.12,1.83-1.73,2.71-.18.26-.14.33,0,.5s.43.41.72.14a6.29,6.29,0,0,0,.73-.73c.44-.58,1-.63,1.81-.43a3.46,3.46,0,0,0-.3,1c0,.69-.8.85-.86,1.57a2,2,0,0,1-1.12,1.33c-.66.27-.64,1-1.17,1.27-.21.11-.33.4-.56.68.64.19,1.2.57,1.62.44a8.75,8.75,0,0,1,1.57-.23.81.81,0,0,0,.68-1.21,2.54,2.54,0,0,1-.24-1.62c0-.38.48-.47.92-.26a2.17,2.17,0,0,1,1.07,1.29,13.91,13.91,0,0,0,1.57,2.8c.46.72.27,1.24-.51,1.65-.34.18-.54.12-.72-.13s-.32-.56-.49-.83-.52,0-.59,0c-.75-.29-1.43.26-2.26,0,0,.66-.26,1.24.14,1.82-.48,1,.14,2.14-.53,3.09-.26.39-.47.47-.72.12a2.72,2.72,0,0,1-.61-2.29c.11-.39,0-.62,0-.93s.24-.58.31-.89a5,5,0,0,0,0-.87c-.46.23-.84.81-1-.05-.11-.44-.28,0-.42,0a4.15,4.15,0,0,1-1.36-.25,1.35,1.35,0,0,1-.62-.69c-.14-.36.43-1.38.82-1.7.18-.14.46-.29.48-.47.07-.64.15-1.21,1-1.33a5.67,5.67,0,0,0,0-.89c-.62.07-.51-.59-.83-.83s-.71-.63-.14-1.08c.07,0,.07-.22,0-.32-.26-.94.34-1.47.93-2a1.64,1.64,0,0,0,.44-.51c0-.1,0-.33-.15-.43s-.41-.27-.47-.22c-.46.38-1,.12-1.48.19s-.88.11-1.32.16c0,.69-.84.93-.77,1.77s-.34,1.82-.33,2.78c0,.4-.51.8-.75,1.16-.23,0-.36,0-.44-.05-1-.6-.86-.57-.66-1.77.09-.55,1-1.09.22-1.75a5.93,5.93,0,0,0,.66-1.75,2.48,2.48,0,0,1,2.59-2.23c.56,0,1.07-.35,1.65-.13.12,0,.49-.26.55-.46a3.7,3.7,0,0,0,0-1.06c-1.39-.4-3.2.53-4.22-1.21a3.59,3.59,0,0,1,2.81-.59c.3,0,.38-.62.81-.15s.61.14.61-.34a8.22,8.22,0,0,1,0-.86c0-.22,0-.52.1-.63a1.62,1.62,0,0,1,.84-.43.69.69,0,0,1,.77.71c0,.45,0,.92,0,1.37,0,.11.19.21.3.31.41-.54.94.21,1.23,0,.58-.49,1.19-.2,1.91-.32,0,.39,0,.71,0,1-.05.82-.05.81-1,.71-.23,0-.46,0-.69,0-1.34,0-1.34,0-2.07,1.18a2.31,2.31,0,0,0,1.8.94,14.86,14.86,0,0,1,3.2.58A8.18,8.18,0,0,0,116.6,15.25Z"/><path class="cls-3" d="M111.87,28c.07,0,.29,0,.38-.08.32-.35.58-.44,1-.05a3.8,3.8,0,0,1,1.34,2.37c.06.64-.28,1.37-.87,1.42a.35.35,0,0,1-.24-.11c-.09-.06-.25-.19-.23-.23.3-.81-.82-.83-.84-1.53A7.24,7.24,0,0,0,111.87,28Z"/><path class="cls-3" d="M107.42,28.66c-.47.86-.86,2.16-2.58,2.05-.2-1.48.78-2.27,1.7-3.27Z"/></g></g></svg>