<svg xmlns="http://www.w3.org/2000/svg" viewBox="0 0 196.08 45.02"><defs><style>.cls-1{fill:none;stroke:#231815;stroke-linecap:round;stroke-linejoin:round;stroke-width:5px;}.cls-2{fill:#fff;}.cls-3{fill:#231815;}</style></defs><g id="レイヤー_1" data-name="レイヤー 1"><path class="cls-1" d="M90.28,13.38c.38-.3-.24-.46,0-.9A3.73,3.73,0,0,0,90.36,10a6.43,6.43,0,0,0-.59-1.43c-.49-.78.35-1.2.27-1.81a2.63,2.63,0,0,0-.15-1,6.59,6.59,0,0,1-.68-3.38A2.66,2.66,0,0,0,86.11.09c-.4.69-.86-.45-1.27.05S83.7.33,83.13.43c-.39.07-1,0-1.14.16-.49.64-.93-.2-1.3,0A1,1,0,0,1,79.28.51a.58.58,0,0,0-.53,0C78.31,1,78,.89,77.61.45c-.32.45-.78.41-1.25.4-.75,0-1.5,0-2.25,0s-1.36,0-2,0l-1.9-.1c-.67-.05-1.42.38-1.88.06A3.52,3.52,0,0,0,66,.45c-4.29,0-8.57,0-12.85,0-.51,0-1.08.27-1.54-.24a.61.61,0,0,0-.53-.13,4,4,0,0,1-3.76,0,1.24,1.24,0,0,0-.78,0,9.74,9.74,0,0,1-5.22,0c-.2,0-.46.18-.69.17A7.59,7.59,0,0,1,39.84,0a1.84,1.84,0,0,0-.81,0c-.48.14-1,.71-1.43.33-.62-.54-1,.26-1.55.1a4.06,4.06,0,0,0-2,0c-.6.16-1-.34-1.58-.25S31.33,0,30.82.43c0,0-.15,0-.18,0C30.09-.2,29.49,0,28.82.2s-1.14,0-1.66.1a5.64,5.64,0,0,0-2,.52c-.58.41-1.22-.63-1.87,0-1-.7-2.08-.26-3.12-.32-.36,0-.62.66-1.19.17-.18-.16-.75.17-1.16.19-.6,0-1.22,0-1.83,0s-1.4.24-1.8,0c-.64-.46-1.07.23-1.53,0a1.68,1.68,0,0,0-1.5,0c-.43-.63-.91.21-1.28,0C8.59.05,7.22.63,5.93.44c-.66.73-1.26.07-1.88-.08A8.39,8.39,0,0,0,2.37.57l-2,3.21a1.61,1.61,0,0,1,.09.29A7.33,7.33,0,0,1,.6,6.6c-.24.9.23,1.66.1,2.52s0,1.89-.06,2.82.44,1.76-.38,2.47c.21.82.85,1.64,0,2.48a3.9,3.9,0,0,1,0,3.55c.8.71,0,1.38,0,2.07,1,.7-.35,1.37,0,2.11.15.36-.61.84,0,1.27.08,1.44-.29,2.91.4,4.29-.65.7.23,1.35,0,2.1S.77,34.05.62,34.9c-.09.49.67.78.14,1.34-.38.4.15,1.14-.42,1.66A1.13,1.13,0,0,0,.29,39c.55.41-.09.92.31,1.42s.08,1.3.06,2a3,3,0,0,0,1.19,2.34c.09.08.37.13.41.07.45-.59,1,.25,1.11.08.58-.68.93.14,1.36.09.76-.09,1.57.32,2.31-.35.32-.28,1,.06,1.51-.28.29-.19,1,.36,1.37.2a9.1,9.1,0,0,1,3.31-.37c.41,0,1-.4,1.18-.24a1.33,1.33,0,0,0,1.32.21c.62-.29,1.38-.64,1.85-.3.71.52,1.15-.44,1.75-.08a2.18,2.18,0,0,0,1.07.34c.34,0,.69-.31,1-.3s1,.43,1,.35c.56-.78,1.32,0,2-.29a2.61,2.61,0,0,1,2.5.23c.2.16.75,0,1.07-.16a1,1,0,0,1,1.26.09c.13.11.46.21.53.15.81-.81,1.81-.25,2.7-.37a1.87,1.87,0,0,1,1.34.22c.29.19.91-.23,1.38-.22s1.22.43,1.6.24c.65-.33,1.07-.38,1.58.12.08.07.43,0,.53-.13.45-.5,1.15,0,1.5-.3.6-.54,1,.26,1.53.06s1.1-.47,1.4-.29c1.4.84,3.09-.39,4.42.67.5-.68,1.26-.45,1.86-.35s1.24-.65,1.88-.11c.21-.74.64.26,1.06-.15s1-.19,1.52-.18,1,.35,1.16.2c.63-.62.92.29,1.39.2a11.39,11.39,0,0,1,1.14-.21c.64-.06,1.28-.09,1.92-.1.14,0,.39.21.42.18.51-.57,1.16-.18,1.73-.27a2.37,2.37,0,0,1,1.67.39c.48.29.89-.56,1.53,0,.36.29,1.12,0,1.65.43s1-.69,1.48,0c.29-.63.89-.14,1.36-.33S71,44,71.68,44c.44,0,.85.23,1.32,0a2.58,2.58,0,0,1,1.36-.14c.42,0,1,.45,1.2.3a1.8,1.8,0,0,1,1.32-.31,11.36,11.36,0,0,1,1.43,0c.16,0,.29.29.46.33.49.11,1,.65,1.48.06a38.61,38.61,0,0,0,7.53-.5c.38-.61.79-1.25,1.2-1.88.06-.1.21-.27.2-.28-.84-.73-.19-1.76-.5-2.63-.22-.63-.63-1.57-.22-2.15s.27-1.27.35-1.9a6.59,6.59,0,0,1,0-1,11.29,11.29,0,0,0,.53-1.39,8.4,8.4,0,0,0-.15-1.56c0-.6,0-1.21,0-1.82s-.22-1.25,0-1.58c.49-.62-.27-1,0-1.53.1-.23,0-.58.16-.73.37-.39.19-.61,0-1a3,3,0,0,1,0-1.48c0-.31.19-.61.21-.92,0-.71-.18-1.5.64-2,.06,0,.1-.24.06-.27a1.36,1.36,0,0,1-.23-1.67c.48-.69-.23-1.16-.07-1.73.12-.42-.17-.94.33-1.3a.53.53,0,0,0,0-.52C90.07,14,89.83,13.73,90.28,13.38Z"/><path class="cls-1" d="M75.75,13.38c-.51-.3.31-.46,0-.9A2.88,2.88,0,0,1,75.64,10a5.58,5.58,0,0,1,.79-1.43c.66-.78-.46-1.2-.37-1.81.06-.32,0-.69.21-1a5.29,5.29,0,0,0,.91-3.38C77.22,1,79.35-.18,81.3.09c.53.69,1.16-.45,1.7.05s1.52.19,2.28.29c.51.07,1.29,0,1.51.16.66.64,1.24-.2,1.73,0A1.65,1.65,0,0,0,90.41.51a1,1,0,0,1,.7,0A1,1,0,0,0,92.63.45a2.09,2.09,0,0,0,1.67.4c1,0,2,0,3,0s1.82,0,2.72,0l2.53-.1c.89-.05,1.9.38,2.51.06a6.08,6.08,0,0,1,3.08-.35c5.71,0,11.42,0,17.13,0,.67,0,1.43.27,2-.24A1,1,0,0,1,128,.05a6.88,6.88,0,0,0,5,0,2.23,2.23,0,0,1,1,0,17.13,17.13,0,0,0,7,0c.27,0,.61.18.92.17s.69-.18,1-.22a3.25,3.25,0,0,1,1.08,0c.65.14,1.32.71,1.91.33.83-.54,1.31.26,2.06.1a7.16,7.16,0,0,1,2.69,0c.81.16,1.32-.34,2.11-.25S154.32,0,155,.43a.36.36,0,0,0,.25,0C156-.2,156.78,0,157.66.2c.7.15,1.52,0,2.23.1a9.57,9.57,0,0,1,2.7.52c.76.41,1.63-.63,2.49,0,1.3-.7,2.77-.26,4.16-.32.47,0,.82.66,1.58.17.25-.16,1,.17,1.55.19.81,0,1.63,0,2.44,0s1.86.24,2.4,0c.86-.46,1.42.23,2,0a3,3,0,0,1,2,0c.57-.63,1.21.21,1.71,0,1.67-.77,3.5-.19,5.23-.38.87.73,1.67.07,2.49-.08a14.67,14.67,0,0,1,2.24.21l2.69,3.21a1.78,1.78,0,0,0-.12.29c-.1.85-.5,1.76-.21,2.53s-.3,1.66-.12,2.52,0,1.89.07,2.82-.58,1.76.51,2.47c-.28.82-1.13,1.64-.06,2.48a3,3,0,0,0,0,3.55c-1.08.71-.05,1.38.06,2.07-1.33.7.46,1.37,0,2.11-.21.36.81.84,0,1.27-.11,1.44.38,2.91-.54,4.29.88.7-.3,1.35-.06,2.1s-.09,1.77.12,2.62c.11.49-.9.78-.19,1.34.5.4-.19,1.14.57,1.66.28.18.3,1,.06,1.11-.73.41.12.92-.41,1.42s-.11,1.3-.09,2a2.83,2.83,0,0,1-1.58,2.34.8.8,0,0,1-.55.07c-.6-.59-1.28.25-1.47.08-.77-.68-1.25.14-1.82.09-1-.09-2.09.32-3.08-.35-.42-.28-1.3.06-2-.28-.38-.19-1.35.36-1.82.2a16.06,16.06,0,0,0-4.42-.37c-.55,0-1.3-.4-1.58-.24a2.24,2.24,0,0,1-1.75.21c-.83-.29-1.85-.64-2.46-.3-1,.52-1.54-.44-2.34-.08a3.66,3.66,0,0,1-1.43.34c-.46,0-.92-.31-1.37-.3s-1.28.43-1.36.35c-.75-.78-1.76,0-2.68-.29a4.49,4.49,0,0,0-3.33.23,2.3,2.3,0,0,1-1.42-.16A1.72,1.72,0,0,0,157,44a1.16,1.16,0,0,1-.7.15c-1.09-.81-2.41-.25-3.61-.37A3.18,3.18,0,0,0,151,44c-.39.19-1.22-.23-1.85-.22s-1.62.43-2.13.24a1.93,1.93,0,0,0-2.11.12,1,1,0,0,1-.7-.13c-.6-.5-1.53,0-2-.3-.8-.54-1.34.26-2,.06s-1.45-.47-1.85-.29c-1.88.84-4.13-.39-5.89.67-.67-.68-1.69-.45-2.48-.35s-1.66-.65-2.52-.11c-.27-.74-.85.26-1.4-.15a4.44,4.44,0,0,0-2-.18c-.53,0-1.32.35-1.54.2-.84-.62-1.23.29-1.86.2s-1-.17-1.51-.21c-.85-.06-1.71-.09-2.56-.1-.19,0-.52.21-.56.18-.68-.57-1.54-.18-2.31-.27a4,4,0,0,0-2.22.39c-.64.29-1.19-.56-2,0-.49.29-1.5,0-2.2.43-.55.37-1.3-.69-2,0-.39-.63-1.19-.14-1.81-.33-.78-.24-1.89.17-2.83.1-.58,0-1.12.23-1.75,0A4.52,4.52,0,0,0,97,43.8c-.56,0-1.36.45-1.6.3a3,3,0,0,0-1.75-.31c-.64,0-1.28,0-1.9,0-.22,0-.4.29-.63.33-.64.11-1.28.65-2,.06a68.29,68.29,0,0,1-10-.5c-.51-.61-1-1.25-1.6-1.88-.08-.1-.28-.27-.27-.28,1.12-.73.25-1.76.66-2.63.3-.63.84-1.57.3-2.15s-.36-1.27-.47-1.9a5.51,5.51,0,0,0,0-1c-.18-.48-.63-.91-.71-1.39a7.07,7.07,0,0,1,.19-1.56c0-.6,0-1.21,0-1.82s.29-1.25-.06-1.58c-.65-.62.36-1,.07-1.53-.13-.23,0-.58-.21-.73-.49-.39-.25-.61,0-1s0-1,0-1.48c-.05-.31-.25-.61-.28-.92-.07-.71.23-1.5-.86-2-.08,0-.13-.24-.08-.27a1.11,1.11,0,0,0,.3-1.67c-.63-.69.32-1.16.1-1.73-.16-.42.23-.94-.44-1.3-.12-.06-.14-.42,0-.52C76,14,76.35,13.73,75.75,13.38Z"/><path class="cls-2" d="M90.28,13.38c.38-.3-.24-.46,0-.9A3.73,3.73,0,0,0,90.36,10a6.43,6.43,0,0,0-.59-1.43c-.49-.78.35-1.2.27-1.81a2.63,2.63,0,0,0-.15-1,6.59,6.59,0,0,1-.68-3.38A2.66,2.66,0,0,0,86.11.09c-.4.69-.86-.45-1.27.05S83.7.33,83.13.43c-.39.07-1,0-1.14.16-.49.64-.93-.2-1.3,0A1,1,0,0,1,79.28.51a.58.58,0,0,0-.53,0C78.31,1,78,.89,77.61.45c-.32.45-.78.41-1.25.4-.75,0-1.5,0-2.25,0s-1.36,0-2,0l-1.9-.1c-.67-.05-1.42.38-1.88.06A3.52,3.52,0,0,0,66,.45c-4.29,0-8.57,0-12.85,0-.51,0-1.08.27-1.54-.24a.61.61,0,0,0-.53-.13,4,4,0,0,1-3.76,0,1.24,1.24,0,0,0-.78,0,9.74,9.74,0,0,1-5.22,0c-.2,0-.46.18-.69.17A7.59,7.59,0,0,1,39.84,0a1.84,1.84,0,0,0-.81,0c-.48.14-1,.71-1.43.33-.62-.54-1,.26-1.55.1a4.06,4.06,0,0,0-2,0c-.6.16-1-.34-1.58-.25S31.33,0,30.82.43c0,0-.15,0-.18,0C30.09-.2,29.49,0,28.82.2s-1.14,0-1.66.1a5.64,5.64,0,0,0-2,.52c-.58.41-1.22-.63-1.87,0-1-.7-2.08-.26-3.12-.32-.36,0-.62.66-1.19.17-.18-.16-.75.17-1.16.19-.6,0-1.22,0-1.83,0s-1.4.24-1.8,0c-.64-.46-1.07.23-1.53,0a1.68,1.68,0,0,0-1.5,0c-.43-.63-.91.21-1.28,0C8.59.05,7.22.63,5.93.44c-.66.73-1.26.07-1.88-.08A8.39,8.39,0,0,0,2.37.57l-2,3.21a1.61,1.61,0,0,1,.09.29A7.33,7.33,0,0,1,.6,6.6c-.24.9.23,1.66.1,2.52s0,1.89-.06,2.82.44,1.76-.38,2.47c.21.82.85,1.64,0,2.48a3.9,3.9,0,0,1,0,3.55c.8.71,0,1.38,0,2.07,1,.7-.35,1.37,0,2.11.15.36-.61.84,0,1.27.08,1.44-.29,2.91.4,4.29-.65.7.23,1.35,0,2.1S.77,34.05.62,34.9c-.09.49.67.78.14,1.34-.38.4.15,1.14-.42,1.66A1.13,1.13,0,0,0,.29,39c.55.41-.09.92.31,1.42s.08,1.3.06,2a3,3,0,0,0,1.19,2.34c.09.08.37.13.41.07.45-.59,1,.25,1.11.08.58-.68.93.14,1.36.09.76-.09,1.57.32,2.31-.35.32-.28,1,.06,1.51-.28.29-.19,1,.36,1.37.2a9.1,9.1,0,0,1,3.31-.37c.41,0,1-.4,1.18-.24a1.33,1.33,0,0,0,1.32.21c.62-.29,1.38-.64,1.85-.3.71.52,1.15-.44,1.75-.08a2.18,2.18,0,0,0,1.07.34c.34,0,.69-.31,1-.3s1,.43,1,.35c.56-.78,1.32,0,2-.29a2.61,2.61,0,0,1,2.5.23c.2.16.75,0,1.07-.16a1,1,0,0,1,1.26.09c.13.11.46.21.53.15.81-.81,1.81-.25,2.7-.37a1.87,1.87,0,0,1,1.34.22c.29.19.91-.23,1.38-.22s1.22.43,1.6.24c.65-.33,1.07-.38,1.58.12.08.07.43,0,.53-.13.45-.5,1.15,0,1.5-.3.6-.54,1,.26,1.53.06s1.1-.47,1.4-.29c1.4.84,3.09-.39,4.42.67.5-.68,1.26-.45,1.86-.35s1.24-.65,1.88-.11c.21-.74.64.26,1.06-.15s1-.19,1.52-.18,1,.35,1.16.2c.63-.62.92.29,1.39.2a11.39,11.39,0,0,1,1.14-.21c.64-.06,1.28-.09,1.92-.1.14,0,.39.21.42.18.51-.57,1.16-.18,1.73-.27a2.37,2.37,0,0,1,1.67.39c.48.29.89-.56,1.53,0,.36.29,1.12,0,1.65.43s1-.69,1.48,0c.29-.63.89-.14,1.36-.33S71,44,71.68,44c.44,0,.85.23,1.32,0a2.58,2.58,0,0,1,1.36-.14c.42,0,1,.45,1.2.3a1.8,1.8,0,0,1,1.32-.31,11.36,11.36,0,0,1,1.43,0c.16,0,.29.29.46.33.49.11,1,.65,1.48.06a38.61,38.61,0,0,0,7.53-.5c.38-.61.79-1.25,1.2-1.88.06-.1.21-.27.2-.28-.84-.73-.19-1.76-.5-2.63-.22-.63-.63-1.57-.22-2.15s.27-1.27.35-1.9a6.59,6.59,0,0,1,0-1,11.29,11.29,0,0,0,.53-1.39,8.4,8.4,0,0,0-.15-1.56c0-.6,0-1.21,0-1.82s-.22-1.25,0-1.58c.49-.62-.27-1,0-1.53.1-.23,0-.58.16-.73.37-.39.19-.61,0-1a3,3,0,0,1,0-1.48c0-.31.19-.61.21-.92,0-.71-.18-1.5.64-2,.06,0,.1-.24.06-.27a1.36,1.36,0,0,1-.23-1.67c.48-.69-.23-1.16-.07-1.73.12-.42-.17-.94.33-1.3a.53.53,0,0,0,0-.52C90.07,14,89.83,13.73,90.28,13.38Z"/><path class="cls-2" d="M75.75,13.38c-.51-.3.31-.46,0-.9A2.88,2.88,0,0,1,75.64,10a5.58,5.58,0,0,1,.79-1.43c.66-.78-.46-1.2-.37-1.81.06-.32,0-.69.21-1a5.29,5.29,0,0,0,.91-3.38C77.22,1,79.35-.18,81.3.09c.53.69,1.16-.45,1.7.05s1.52.19,2.28.29c.51.07,1.29,0,1.51.16.66.64,1.24-.2,1.73,0A1.65,1.65,0,0,0,90.41.51a1,1,0,0,1,.7,0A1,1,0,0,0,92.63.45a2.09,2.09,0,0,0,1.67.4c1,0,2,0,3,0s1.82,0,2.72,0l2.53-.1c.89-.05,1.9.38,2.51.06a6.08,6.08,0,0,1,3.08-.35c5.71,0,11.42,0,17.13,0,.67,0,1.43.27,2-.24A1,1,0,0,1,128,.05a6.88,6.88,0,0,0,5,0,2.23,2.23,0,0,1,1,0,17.13,17.13,0,0,0,7,0c.27,0,.61.18.92.17s.69-.18,1-.22a3.25,3.25,0,0,1,1.08,0c.65.14,1.32.71,1.91.33.83-.54,1.31.26,2.06.1a7.16,7.16,0,0,1,2.69,0c.81.16,1.32-.34,2.11-.25S154.32,0,155,.43a.36.36,0,0,0,.25,0C156-.2,156.78,0,157.66.2c.7.15,1.52,0,2.23.1a9.57,9.57,0,0,1,2.7.52c.76.41,1.63-.63,2.49,0,1.3-.7,2.77-.26,4.16-.32.47,0,.82.66,1.58.17.25-.16,1,.17,1.55.19.81,0,1.63,0,2.44,0s1.86.24,2.4,0c.86-.46,1.42.23,2,0a3,3,0,0,1,2,0c.57-.63,1.21.21,1.71,0,1.67-.77,3.5-.19,5.23-.38.87.73,1.67.07,2.49-.08a14.67,14.67,0,0,1,2.24.21l2.69,3.21a1.78,1.78,0,0,0-.12.29c-.1.85-.5,1.76-.21,2.53s-.3,1.66-.12,2.52,0,1.89.07,2.82-.58,1.76.51,2.47c-.28.82-1.13,1.64-.06,2.48a3,3,0,0,0,0,3.55c-1.08.71-.05,1.38.06,2.07-1.33.7.46,1.37,0,2.11-.21.36.81.84,0,1.27-.11,1.44.38,2.91-.54,4.29.88.7-.3,1.35-.06,2.1s-.09,1.77.12,2.62c.11.49-.9.78-.19,1.34.5.4-.19,1.14.57,1.66.28.18.3,1,.06,1.11-.73.41.12.92-.41,1.42s-.11,1.3-.09,2a2.83,2.83,0,0,1-1.58,2.34.8.8,0,0,1-.55.07c-.6-.59-1.28.25-1.47.08-.77-.68-1.25.14-1.82.09-1-.09-2.09.32-3.08-.35-.42-.28-1.3.06-2-.28-.38-.19-1.35.36-1.82.2a16.06,16.06,0,0,0-4.42-.37c-.55,0-1.3-.4-1.58-.24a2.24,2.24,0,0,1-1.75.21c-.83-.29-1.85-.64-2.46-.3-1,.52-1.54-.44-2.34-.08a3.66,3.66,0,0,1-1.43.34c-.46,0-.92-.31-1.37-.3s-1.28.43-1.36.35c-.75-.78-1.76,0-2.68-.29a4.49,4.49,0,0,0-3.33.23,2.3,2.3,0,0,1-1.42-.16A1.72,1.72,0,0,0,157,44a1.16,1.16,0,0,1-.7.15c-1.09-.81-2.41-.25-3.61-.37A3.18,3.18,0,0,0,151,44c-.39.19-1.22-.23-1.85-.22s-1.62.43-2.13.24a1.93,1.93,0,0,0-2.11.12,1,1,0,0,1-.7-.13c-.6-.5-1.53,0-2-.3-.8-.54-1.34.26-2,.06s-1.45-.47-1.85-.29c-1.88.84-4.13-.39-5.89.67-.67-.68-1.69-.45-2.48-.35s-1.66-.65-2.52-.11c-.27-.74-.85.26-1.4-.15a4.44,4.44,0,0,0-2-.18c-.53,0-1.32.35-1.54.2-.84-.62-1.23.29-1.86.2s-1-.17-1.51-.21c-.85-.06-1.71-.09-2.56-.1-.19,0-.52.21-.56.18-.68-.57-1.54-.18-2.31-.27a4,4,0,0,0-2.22.39c-.64.29-1.19-.56-2,0-.49.29-1.5,0-2.2.43-.55.37-1.3-.69-2,0-.39-.63-1.19-.14-1.81-.33-.78-.24-1.89.17-2.83.1-.58,0-1.12.23-1.75,0A4.52,4.52,0,0,0,97,43.8c-.56,0-1.36.45-1.6.3a3,3,0,0,0-1.75-.31c-.64,0-1.28,0-1.9,0-.22,0-.4.29-.63.33-.64.11-1.28.65-2,.06a68.29,68.29,0,0,1-10-.5c-.51-.61-1-1.25-1.6-1.88-.08-.1-.28-.27-.27-.28,1.12-.73.25-1.76.66-2.63.3-.63.84-1.57.3-2.15s-.36-1.27-.47-1.9a5.51,5.51,0,0,0,0-1c-.18-.48-.63-.91-.71-1.39a7.07,7.07,0,0,1,.19-1.56c0-.6,0-1.21,0-1.82s.29-1.25-.06-1.58c-.65-.62.36-1,.07-1.53-.13-.23,0-.58-.21-.73-.49-.39-.25-.61,0-1s0-1,0-1.48c-.05-.31-.25-.61-.28-.92-.07-.71.23-1.5-.86-2-.08,0-.13-.24-.08-.27a1.11,1.11,0,0,0,.3-1.67c-.63-.69.32-1.16.1-1.73-.16-.42.23-.94-.44-1.3-.12-.06-.14-.42,0-.52C76,14,76.35,13.73,75.75,13.38Z"/></g><g id="レイヤー_2" data-name="レイヤー 2"><path class="cls-3" d="M21.41,12.17c-.23-.7,0-1.18.5-1.36.81-.27,1.66-.42,2.48-.66a2,2,0,0,1,1.45.55A2.41,2.41,0,0,1,26.48,12c.11.44-.16,1.08.07,1.34.39.44-.07.65,0,1a4.44,4.44,0,0,1,.16,1,1.57,1.57,0,0,1-1.41,1.05c-.73,0-1.46,0-2.25,0,.63,1.35.63,1.32,1.81,1.19a6.91,6.91,0,0,1,1.17.18c.69,0,1.38,0,2.24,0-.07.38-.13.72-.2,1.06,0,.16-.16.43-.13.44.64.36-.4.87.12,1.23a3.92,3.92,0,0,1,.42.41c.25-.34.76-.86.69-1-.66-.9.32-1.37.43-2.05a1.25,1.25,0,0,0-.23-.23c-.35-.25-.72-.49-1.08-.74.67-.48-.4-.94,0-1.43.05-.07,0-.23,0-.34.06-.43-.23-1,.26-1.26a2.78,2.78,0,0,1,1.18-.46c.3,0,.63.22.95.35a1.94,1.94,0,0,1,.24.15c.12-.25.27-.47.37-.72.29-.75,0-1.13-.87-1.19-1.21-.09-1.64-.5-1.78-1.84a25.11,25.11,0,0,1,2.88,0,5.84,5.84,0,0,1,1.78.7c.12.06.13.39.16.6a.8.8,0,0,1-.32.89c.39.26.17.46,0,.76s.08.76-.09,1a2.29,2.29,0,0,0-.31.91.79.79,0,0,1-.86.64,9.77,9.77,0,0,0-1.21,0,.42.42,0,0,0-.3.28c0,.12.1.36.2.38,1,.28,2.09.52,3.2.78-.17.33-.31.65-.49.95a.77.77,0,0,1-.88.35c-1-.13-1-.13-1.63.15.08.25.27.53.22.74-.21.84-.19,1,.42,1.18.05,0,.12,0,.17,0,.28.16.74.29.78.5A1.58,1.58,0,0,1,32,22c-.12.19-.5.21-.67.39a.94.94,0,0,0-.26.69,12.18,12.18,0,0,0,.46,1.53c0,.08.08.17.06.24-.3,1-.34,1,.43,1.43.46.25.48.45.17.71s0,1-.84.6-1-.3-1.56-1.28a3.08,3.08,0,0,0-.26-.58c-.08-.09-.3-.09-.45-.07s-.17.23-.15.26c.47.52,0,.94-.14,1.39a1.67,1.67,0,0,1-.86,1.07h1.52c.52,0,1.19.2,1.51-.05s.85.17,1.21-.22c.18-.2.72,0,.52.26-.52.6.38,1.1-.12,1.7-.68.16-1.58-.18-2.3.37,0,0-.12,0-.17,0-.66.06-1.31-.59-2,0-.39-.46-1-.16-1.39-.39a2.64,2.64,0,0,0-1.61-.29,4.14,4.14,0,0,1-1.93-.35c-.33-.16-.73.55-1.07-.05-.26-.44-.72-.22-1.08-.32A7,7,0,0,1,20,28.57l.39-1.46c.8,0,.63-.62.63-1.09a5.43,5.43,0,0,0-.09-1.34,10.11,10.11,0,0,0-.54-1.36c.29-.09.64-.21,1-.3a.56.56,0,0,1,.36.05c.1.05.25.17.24.24-.07.59.67.48.75.87s0,.68.34.89c-.6.43.24.83,0,1.26-.09.19,0,.49-.16.62s-.08.43.09.48c.43.15.71.73,1.37.3.28-.18.94.13,1.38.31s.79.36.94-.35.4-1.21.65-2a5.7,5.7,0,0,0-.87-.11.87.87,0,0,1-1-.7c-.13-.47.18-1,.49-1,1.26,0-.19-1.06.51-1.24a2.86,2.86,0,0,0-.53-.2c-.54-.09-1.05.37-1.63,0-.19-.13-.56,0-.58-.4,0-.18-.19-.35-.29-.53.28-.15.56-.44.84-.44a2.83,2.83,0,0,0,1.51-.55,1.11,1.11,0,0,0,.36-.69c.07-.57-.1-.54-.51-.23-.1.08-.52-.26-.81-.4a2.39,2.39,0,0,0-.56-.2c-.47.74-.93.11-1.29-.05-1.41-.62-1.45-.66-1.61-2.55,0-.33-.63-.5-.17-1a9.66,9.66,0,0,1,.72-.71c.72-.63.74-.75,1.41-.42s1,.3,1.31-.19a1.92,1.92,0,0,0-.1-1.73.93.93,0,0,0-.35-.2c-.5.73-.85-.22-1.32-.11A7,7,0,0,1,21.41,12.17Zm7.65,11.66c.11-.43.17-.61.21-.79.09-.49-.2-.6-.58-.52-.17,0-.31.21-.46.31Z"/><path class="cls-3" d="M98.81,27.6a5.22,5.22,0,0,1-.54.08c-1.5,0-2-.45-2-2a3,3,0,0,1,.32-2.1c.19-.25-.63-.6,0-.91-.22-1.19.32-2.3.37-3.47a4.93,4.93,0,0,1,.27-2.47c.38-.68-.25-1.66.39-2.41.25-.29-.42-.39-.17-.82.37-.65,1.21-1.27,1.76-.91a2.41,2.41,0,0,0,1.46.24A6.53,6.53,0,0,1,105,14.51c.13.12.24.35.36.35.72,0,.71.56.52.93s-.52.88-1,.29c0,0-.16,0-.24,0a1.66,1.66,0,0,0,.05.46c0,.07.2.1.3.1a.79.79,0,0,1,1,.69c.06.33-.76,1-1.17,1s-.81,0-1.21,0a.45.45,0,0,0-.34.24c0,.13.1.41.16.41.58,0,.57.18.19.52.1.12.27.23.3.36.12.52.7-.69.73.23,0,.53.56.16.82.3s.6.62.93.65c.9.08.86,1,1.45,1.41.22.14.2.71.22,1.08a9.78,9.78,0,0,0,0,1.54c.1.37-.72.6-.08.95-.29.24-.62.38-.76.82s-.57.48-1,.45c-.13,0-.32.3-.38.27-.62-.29-.67,1.14-1.49.44-.37-.32-1,.4-1.59,0s-.88.42-1.31.12-1,.1-1.19-.48c-.88.08-.76-1.14-1.54-1.19.32-.24.34-.48,0-.73a1.22,1.22,0,0,0,.05-1.66c-.08-.11.08-.37.11-.57a1.28,1.28,0,0,0-.06-.33c-.15.05-.44.1-.44.16,0,1.3,0,2.6.08,3.91C98.48,27.35,98.63,27.43,98.81,27.6Zm.8-13.52c-.22.6-.36.94-.47,1.29-.24.74.06,1.25.8,1.27,1.32,0,2.64,0,4,0,.12,0,.23-.27.34-.42-.38-.29-.22-1.21-1.08-.94C102.05,14.69,100.69,15,99.61,14.08Zm-1.29,8.65.38.15a3.84,3.84,0,0,1,.38-1c.29-.41.17-1.23,1.11-1.08s1.07-1.09,1.92-1.13V18.26l-1.51.44c-.28-.84-1,.26-1.32-.27-.19.16-.65.19-.4.61a1.57,1.57,0,0,1,0,1.4C98.65,21.19,98.51,22,98.32,22.73Zm6,1.05c.59.12,1.12.23,1.66.32.09,0,.29-.1.28-.14a2.57,2.57,0,0,0-.18-.73c-.67.05-.46-.95-1.17-.91-.29,0-.49-.78-.92-.39-.21.19-.14.74-.1,1.11S104.19,23.5,104.36,23.78Zm-3.52,0c1.15,0,1.29-.16,1.33-1,0-.42,0-.43-1.33-.63Zm3,1.4c.08,1.11.08,1.09.7.91.36-.1.75-.09,1.1-.2.14-.05.2-.31.29-.47-.11,0-.26-.07-.33,0A1.54,1.54,0,0,1,103.88,25.23Zm-3,.11-.22.2a8.62,8.62,0,0,0,.73.75s.34-.07.39-.17a.42.42,0,0,0-.1-.43A4.41,4.41,0,0,0,100.9,25.34Z"/><path class="cls-3" d="M158.8,18.28c-1.09-.79-2.11-1.22-3.07-.62-.39.24-.82-.1-1-.46a1.1,1.1,0,0,1,.15-.91,5.78,5.78,0,0,1,1-.9c-1.11-.9-.32-2.25-.6-3.51h1.29a2.78,2.78,0,0,1,.49,1.63,2.05,2.05,0,0,0,.7,1.6,1.56,1.56,0,0,0,2.69-.5c.22-1,1-1.8,1.11-2.83,0-.28.72-.52,1.56-.64a2.06,2.06,0,0,1-.22,2.17c-.58.78-.54,1.72-1,2.63h1.94c.33.71,0,1.06-.41,1.43a.87.87,0,0,1-1.32.06,1.19,1.19,0,0,0-1-.06c-.23.09-.88.2-.38.79,0,.05-.34.47-.54.74.27.24.39.71,1,.36a4.66,4.66,0,0,1,1.65-.24v1.63a5.27,5.27,0,0,1-1,.34c-.27,0-.57-.22-.84-.18a3.82,3.82,0,0,0-1,.48c.41.23.68.39,1,.53a4.76,4.76,0,0,1,1.29.59,1.61,1.61,0,0,0,1.21.46.77.77,0,0,1,.84.83c0,.54-.32.86-1,.87a2.05,2.05,0,0,1-1.87-.53c-.28-.32-1-.17-1.15-.84-.16.1-.48.22-.47.29.11.59-.4,1.07-.34,1.58.09.67-.56.41-.77.85.92,0,1.76.28,2.63-.26.37-.22,1.45.47,1.55.94a.84.84,0,0,1-.22.71,2.91,2.91,0,0,1-1.22.35c-.4,0-1-.36-1.18-.21a1.55,1.55,0,0,1-1.12.22c-1.74-.09-3.47-.24-5.21-.32-.37,0-.53-.77-1-.23s-.59-.22-.95-.23a.67.67,0,0,1-.45-.95c.5-.79.25-1.63.32-2.45a3.87,3.87,0,0,1,.05-.84c.1-.3.27-.73.49-.79s.76,0,1-.36c.13.21.41.49.35.6-.47.87-.1,1.79-.19,2.67,0,.51.31.8.83.84s1-.06,1.12.13c.3.55.6-.43.95.11.19.28,1.12-.38,1.23-1a8.93,8.93,0,0,0,.25-3.74c-.51,0-1.07,0-1.63,0s-.93.14-1.23-.36c-.17-.28.18-.51-.1-.9s.18-1.05.75-.78a2.24,2.24,0,0,0,1.07.33c.56,0,1.15.07,1.58-.37s.4-1,.32-.77c-.05.92-.11.85-.16.78l-.15.16a1.49,1.49,0,0,0,.2.15S158.76,19.3,158.8,18.28Z"/><path class="cls-3" d="M125.9,14.21h2.43c.31-.62-.13-1.33.42-1.94.42-.46,1.22-.64,1.57-.09.05.08,0,.24,0,.36,0,.38-.13.76-.14,1.14,0,.79.3,1.16,1.12,1.24a10,10,0,0,0,1.73,0c.84-.08,1.11.1.93.77a4.59,4.59,0,0,1-.49,1c-1-.07-2.11.24-3.3-.5,0,.69-.2,1.39,0,1.65s0,.8.24,1.21.56.51.74.37c.87-.64,1.66.35,2.51.07.12,0,.47.41.59.68a3,3,0,0,1,0,1h-2.65a6.19,6.19,0,0,0,.24,3.22c.14.49,1,.87,1.21.55.81-1.05,1.87-.48,2.79-.65a1.17,1.17,0,0,1-.72,1.73c-.29.14-.54.35-.83.48-.49.21-1,.38-1.5.56-.45-.72-1.52.07-1.92-.78-.23-.48-.53-.94-.72-1.43s-.08-.9-.28-1.26.13-1-.45-1.21c0,0,0-.21,0-.32s.68-.33,0-.49c-.09,0-.31.23-.36.39a5.24,5.24,0,0,1-.38,1.39c-.56.77-.12,1.74-.65,2.5a7.68,7.68,0,0,0-.59,1.41c-.82-.69-1.64-1.16-.81-2.23-.48-.48.11-1,0-1.43s.29-1,.4-1.57a4.56,4.56,0,0,1,.24-.71c-.37,0-.57-.65-1.09-.22a1,1,0,0,1-1,.07c-.74-.67-1.08,0-1.56.41-.1-.13-.2-.27-.31-.39-.36-.36-.86-.69-.17-1.19-.71-.31.37-.83-.15-1.22-.35-.27.59-.72,0-1.08a2.44,2.44,0,0,1,.2-.47c.28-.65,0-1.49.65-2-.79-.88.33-1.4.45-2.12.09-.51,1.1-.7,1.6-.36.31.21.68.5.2.95C126,13.69,126,13.89,125.9,14.21ZM125.46,16c-.08.13-.13.17-.14.22-.12.41-.46,1-.3,1.2.42.56-.07.71-.23,1.05s.08.56.21.81.37.2.42.15c.64-.6,1.41-.26,2.12-.31a.82.82,0,0,0,.87-.81A3,3,0,0,0,128,16c-.6.33-1.15-.23-1.75-.09A3.42,3.42,0,0,1,125.46,16Z"/><path class="cls-3" d="M87.7,27.57c0-.63.11-1.37-.18-1.83s.24-.51,0-.77-.13-.42-.26-.57c-.25-.31-.55-.59-.91-1a4.55,4.55,0,0,1-1.51,3.08c-1.3,1-2,1.06-3.14.46A3.16,3.16,0,0,1,80.79,24c0-.2.31-.39.29-.56-.23-1.39.93-1.61,1.73-2.17a.57.57,0,0,1,.73,0,.74.74,0,0,0,1-.41c.35-1.4-1.15-3.3-2.66-2.82a2,2,0,0,1-2-.75c-.14-.21.32-.95.62-1s.94-.38,1.17-.22c.4.26.77.12,1.13.23.66.19.86-.32.86-.7a1.4,1.4,0,0,1,.84-1.38c1.39,1,1.39,1,1.54,2.39h3.23c.09.24.15.45.23.64.2.45,0,1.13-.24,1-.63-.23-1.12.6-1.82.11-.25-.17-.9.18-1.35.35-.09,0-.17.3-.13.43s.29.36.31.56c.21,1.39.21,1.38,1.33,2.52A8,8,0,0,1,89,23.94a6.77,6.77,0,0,1,.38,1.79c.17.74.28,1-.16,1.52-.31.38.39.62,0,.74a2.06,2.06,0,0,1-.93-.2C88.09,27.73,87.89,27.64,87.7,27.57Zm-3.26-4.73c-1.49.23-2.17.95-2,2.05a1,1,0,0,0,.46.63c.17.08.49-.08.69-.22a1.3,1.3,0,0,0,.58-1.3A4.47,4.47,0,0,1,84.44,22.84Z"/><path class="cls-3" d="M52.76,28c-.72.06-1.28.22-1.58-.61A1.81,1.81,0,0,0,50,26.53c-.85-.23-.85-1.32-1.77-1.5-.73-.14-.89-.17-1,.65,0,.16,0,.38-.06.49-.36.43-.58.77.24.84a3.69,3.69,0,0,0-.18.65c0,.38-.23.93-.37.89a2,2,0,0,0-1,.14c-.25.06-.52-.66-.45-1.06a2.84,2.84,0,0,0,.12-.81c0-.33,0-2.11,0-2.37-.17-.88.66-1.72.07-2.63a.79.79,0,0,1,0-.67,3.64,3.64,0,0,0,.31-2.44c0-.83.28-1.67-.19-2.5-.1-.18.2-.64.39-.92s.55-.58,1-.12c.08.08.46-.14.58-.05a.54.54,0,0,0,.74,0c.12-.09.47.13.58,0,.42-.37,1,.5,1.37-.14a2.14,2.14,0,0,1,1,.36c.2.13.26.45.38.69.26.52.51,1.05.78,1.57.17.32-.59.43-.14.81.17.14.38.5.32.58-.36.49.21.53.35.74a.47.47,0,0,1,0,.72,2.11,2.11,0,0,1-1.63.66c-.57,0-1.15,0-1.72,0s-.84.58-1.26,0c-.25.21-.6.36-.7.62s.24.34.49.45.14.71.72.74c.22,0,.35.66.62.89a20.52,20.52,0,0,0,2.65,1.92c.51.29.76.52.68,1.09A10.53,10.53,0,0,0,52.76,28Zm-5.18-8.57a9.32,9.32,0,0,0,1.6,0c.44-.08.84-.27,1.26,0,0,0,.21-.1.24-.18.12-.35-.53-.71,0-1.08,0,0,0-.27,0-.31-.4-.28-.56-.94-1.18-.82-.32.06-.89-.74-.94.25-.08,0-.18,0-.24-.08-.45-.34-.72-.31-.71.33S47.58,18.73,47.58,19.41Z"/><path class="cls-3" d="M166.76,14.8c.28-.41.45-.88.78-1.1s.72-.68,1.21-.16a.55.55,0,0,0,.5,0,.82.82,0,0,1,1.29,0c.09.08.34,0,.5,0,.42.08.94-.21,1.26.22a6.16,6.16,0,0,1,1,2.16c.07.3-.34.73-.58,1.06-.12.15-.39.18-.55.32-.42.39-.82.81-1.28,1.27a4.59,4.59,0,0,1,.81.49c.55.52,1.2.88,1.36,1.82s.79,1.58.3,2.52a1.63,1.63,0,0,0,0,.85c0,.56.11,1.13.18,1.69-.67-.16-1,.59-1.45.64-.9.11-1.64,1.34-2.68.43-.48.54-1.15-.08-1.15-.16,0-.68-1-.83-.8-1.6.06-.27-.13-.59-.21-.91a2.94,2.94,0,0,1,4.2-1.09,1.83,1.83,0,0,0,.1-1.62c-.13-.36-.26-.92-.9-1a2.44,2.44,0,0,1-1.14-.56c-.32-.24-1-.16-1-.68a2.5,2.5,0,0,1,.48-1.33,15.46,15.46,0,0,1,1.44-1.48c.31-.32.6-.65,1.06-1.13a5.66,5.66,0,0,0-3.29,0,.73.73,0,0,1-1-.21Zm4.43,10.47c-.5-.36-.73-.65-1-.66s-.9-.32-1,.24.53.34.84.41A7.63,7.63,0,0,0,171.19,25.27Z"/><path class="cls-3" d="M69.69,27c-.38,0-.66,0-.94,0-.86,0-1.08-.17-1.09-1.07,0-.42-.53-.74-.09-1.3.26-.31,0-1,.06-1.51.09-1.39-.27-2.81.32-4.17a1.25,1.25,0,0,0-.09-.82c-.06-.16-.31-.25-.47-.38-.46.74-.9,0-1.28-.11s-.45-.25-.77.06-.79.41-1-.07A14.11,14.11,0,0,1,63.64,16c.59,0,1.16.16,1.32,0,.34-.4.62,0,.9-.1.52-.22,1,.24,1.5.15s.94-.21.93-.75a1.27,1.27,0,0,1,.54-1c.24-.24.45-.56.83-.2s1,.16.73.88c-.17.51-.27,1-.41,1.61.71.28,1.51-.1,2.11.46.37.34.66-.5,1.16-.13.18.14.69-.07,1-.23s.66-.34.89.11.22.8-.2,1a3.82,3.82,0,0,1-1.31.57c-.56.08-1.1.21-1.65.32a1.86,1.86,0,0,1-.81-.05c-.42-.09-.84-.22-1.3-.35a4.09,4.09,0,0,1-.38,1.47c-.45.6.34,1.15-.1,1.76-.32.43-.14,1.09-.38,1.62.71,1,0,2.31.69,3.33C69.74,26.53,69.69,26.68,69.69,27Z"/><path class="cls-3" d="M39.63,24.91H37.18a2.84,2.84,0,0,1,.19-1,2.45,2.45,0,0,1,1.92-1.13V20a1.13,1.13,0,0,0-1-1.24.65.65,0,0,0-.34,0c-.76.29-.77-.45-1-.79a.73.73,0,0,1,.16-1c.36-.31.74.08,1.11-.05.14-.06.36.12.69.25a10.21,10.21,0,0,1,0-1.49.78.78,0,0,1,.82-.68.82.82,0,0,1,.87.63,6.88,6.88,0,0,1,0,1.45,10.93,10.93,0,0,1,1.41,0,.88.88,0,0,1,.55,1.3,2.69,2.69,0,0,1-1.67.88c.08.63.16,1.28.22,1.94a1.72,1.72,0,0,1-.13.48c-.16.77-.06.84.77.63.26-.07.63-.17.81,0s.77-.93.85.17a1.16,1.16,0,0,1-.41,1.18c-.52.28-1,.53-1.71.86.12.64-.24,1.39.32,2.13.17.21,0,.67,0,1,0,.56-.35.8-1,.83-.43,0-1.14-.62-1-.78.76-.7-.42-1.2-.09-1.81C39.72,25.6,39.63,25.33,39.63,24.91Z"/><path class="cls-3" d="M118,27.68c-.47,0-.88,0-1.28,0-.75.06-.81,0-.6-.61a2.73,2.73,0,0,0,.24-.75c0-.34-.31-.81-.17-1,.33-.44.12-.88.17-1.31a6.86,6.86,0,0,0,0-1.2c0-.72-.27-1-1-1-.53.05-.93-.35-1.49-.2-.22.06-.64-.56-.93-.9,0,0,.12-.31.24-.39a5.12,5.12,0,0,1,1.13-.6c.26-.08.52.14.9.08,1.12-.16,1.1-.06,1.18-.82.09-.91.26-1.82.42-2.88.35.23.63.32.76.52s.73.24.33.74c-.08.1.18.42.19.64,0,.57,0,1.15,0,1.72s.6.8.94.54a1.62,1.62,0,0,1,1.12-.2c.74,0,1,.28,1,1s-.2,1.05-.94,1.08c-.57,0-1.13,0-1.68,0-.25.73-.94,1.37-.23,2.16.06.07.12.24.08.29C117.7,25.56,118.32,26.71,118,27.68Z"/><path class="cls-3" d="M64.11,25.51c-.17.07-.48.08-.56.22-.48.89-1.62.45-2.19,1.12,0,0-.18,0-.24,0l-2-.92c-1.18-.56-1.17-.56-1.53-2.2a1.37,1.37,0,0,0-.31-.69,1,1,0,0,1-.33-.9c.24-1.57.43-3.14.77-4.69a1.44,1.44,0,0,1,.89-1c.51-.19.61.45,1,.23a2.91,2.91,0,0,1,0,.59,6.49,6.49,0,0,1-.38,1.39.93.93,0,0,0,.07,1.2c.07.09-.2.44-.25.68-.28,1.31.45,2.45.69,3.67.07.35,1,.82,1.26.58.49-.52,1.31.13,1.68-.57.25.51,1.05-.23,1.21.53A4.83,4.83,0,0,0,64.11,25.51Z"/><path class="cls-3" d="M141.64,16.31c-.23,1.26-.44,2.38-.66,3.49,0,.29.29.58-.1.89s.61.51.05.95c-.24.2-.13.73.25,1s-.59.54-.08,1a1.52,1.52,0,0,1,.44.84,3.84,3.84,0,0,1-.06,1.35c0,.12-.27.75-.7.23-.06-.07-.21-.05-.3-.1-.34-.16-.67-.34-1-.51.65-.31,0-.61,0-.92a2.19,2.19,0,0,0-.26-.74,4.12,4.12,0,0,1,0-3.64,4.86,4.86,0,0,0,.3-2.11c-.1-1.45.06-1.69,1.41-1.72Z"/><path class="cls-3" d="M111.84,26.9c-1.21,0-1.28-.19-1.76-1.1a2.86,2.86,0,0,1-.32-2.17c.13-.54-.56-1.24.34-1.66.07,0-.06-.51-.1-.78s-.06-.25-.09-.37c.86-.16.83-.84.92-1.49,0-.11.34-.27.5-.25a5.22,5.22,0,0,1,1,.36s.07.22.06.22c-.76.32.55,1.2-.4,1.45a9.21,9.21,0,0,0-.51,2,4.49,4.49,0,0,0,.29,2.79C112,26.16,111.84,26.58,111.84,26.9Z"/><path class="cls-3" d="M149.16,24.44a5,5,0,0,0-.34.82c-.07.25,0,.33-.37.19a1.65,1.65,0,0,0-1.87.13c-.3.26-.71-.56-1.07,0-.19-.24-.31-.3-.63-.06s-.76-.19-.87-.49-.26-.72.45-.85a8.68,8.68,0,0,0,2-.91c.09,0,.28-.1.29-.07.38.63.92.09,1.38.16C149.14,23.53,149.16,23.47,149.16,24.44Z"/><path class="cls-3" d="M73.71,21.73a9.72,9.72,0,0,1-1.77-.29.87.87,0,0,1-.53-1c0-.44.32-.37.59-.37h.17c.5-.07.74-.79,1.49-.42.51.25,1.25,0,1.85.1a4.72,4.72,0,0,1,1.38.8.49.49,0,0,1,0,.44c-.49.48-1,1.07-1.77.51-.08-.05-.28-.09-.31-.05-.27.36-.59.09-.88.11C73.78,21.6,73.66,21.77,73.71,21.73Z"/><path class="cls-3" d="M143.45,16.87c1.13.31,2-.24,2.76.46.94-1,1.29,1,2.13.41a4.42,4.42,0,0,1,0,1.26c-.08.29-.41.56-.7.08-1,.1-1.93-.78-2.75-.3s-.84.1-1.24-.21C143,18.05,144,17.62,143.45,16.87Z"/><path class="cls-3" d="M74.77,27a4.79,4.79,0,0,1-1.34,0,1.15,1.15,0,0,1-.6-.69,1.12,1.12,0,0,1,.24-.74,2.22,2.22,0,0,1,1.53-.35,2.05,2.05,0,0,0,1.85-.31c.58-.28.54-.34.85.08.08.11.18.29.29.3.52.06.36.24.12.47C76.85,26.55,75.94,27.27,74.77,27Z"/><path class="cls-3" d="M92.65,17.88c.2.4.57.76.5,1-.28,1.15-.51,2.31-.72,3.48-.08.46-.69.55-1.05.22-.53-.48-1-1-.29-1.66-.5-.61.29-1.16.1-1.77,0-.09.24-.25.26-.39C91.52,18.08,92.27,18.39,92.65,17.88Z"/><path class="cls-3" d="M151.22,16.46l1.05,1.19c-.54.6.09.87.33,1.29s0,.78-.64.83c-1.09.07-1.38-.86-2-1.44-.05,0,.05-.23.07-.35C150.2,17.32,150.75,17,151.22,16.46Z"/><path class="cls-3" d="M21.57,19.17,22,21.78c-.35,0-.85.15-1.16,0s-1.11-.35-.86-1.13a1.24,1.24,0,0,0,0-.51c-.08-.77,0-.8.27-1.15.49-.64.75.15,1.14.12C21.44,19.07,21.54,19.16,21.57,19.17Z"/></g></svg>