<svg xmlns="http://www.w3.org/2000/svg" viewBox="0 0 196.32 46.21"><defs><style>.cls-1{fill:none;stroke:#231815;stroke-linecap:round;stroke-linejoin:round;stroke-width:5px;}.cls-2{fill:#fff;}.cls-3{fill:#231815;}</style></defs><g id="レイヤー_1" data-name="レイヤー 1"><path class="cls-1" d="M113.87,13.92c.48-.29-.3-.45-.05-.9a3,3,0,0,0,.14-2.51,5.56,5.56,0,0,0-.74-1.43c-.62-.78.44-1.2.35-1.81a2.13,2.13,0,0,0-.19-.95A5.42,5.42,0,0,1,112.52,3c0-1.44-2.06-2.59-3.91-2.32-.5.7-1.09-.45-1.61.05s-1.43.19-2.15.29c-.49.07-1.22,0-1.43.16-.63.64-1.18-.2-1.64,0A1.5,1.5,0,0,1,100,1.06a.84.84,0,0,0-.66,0A.9.9,0,0,1,97.89,1a1.89,1.89,0,0,1-1.58.4c-.94,0-1.89,0-2.83,0s-1.72,0-2.57,0-1.64,0-2.4-.1-1.79.39-2.37.06A5.35,5.35,0,0,0,83.23,1C77.82,1,72.42,1,67,1c-.63,0-1.36.27-1.93-.24a1,1,0,0,0-.68-.13,6.14,6.14,0,0,1-4.74,0,2.1,2.1,0,0,0-1,0,15.17,15.17,0,0,1-6.57,0c-.26-.05-.59.18-.87.17s-.66-.18-1-.22a3,3,0,0,0-1,0c-.6.14-1.24.72-1.8.33-.78-.54-1.23.27-2,.1a6.26,6.26,0,0,0-2.55,0c-.76.15-1.24-.35-2-.25s-1.41-.2-2.06.2a.31.31,0,0,1-.23,0C38,.34,37.2.56,36.36.74c-.67.15-1.44,0-2.11.1a8.29,8.29,0,0,0-2.55.53c-.73.4-1.55-.64-2.36,0C28.11.64,26.72,1.07,25.4,1c-.45,0-.78.66-1.49.17-.24-.16-1,.17-1.47.19-.76,0-1.54,0-2.31,0s-1.76.24-2.27,0c-.81-.46-1.35.23-1.92,0a2.59,2.59,0,0,0-1.9,0c-.54-.62-1.15.22-1.62,0C10.83.59,9.11,1.17,7.47,1c-.83.73-1.58.07-2.36-.08A13.24,13.24,0,0,0,3,1.11L.45,4.33a1.62,1.62,0,0,1,.11.28,6,6,0,0,1,.2,2.53C.45,8,1.05,8.8.88,9.66s0,1.89-.07,2.83S1.36,14.24.33,15c.26.83,1.07,1.64,0,2.48A3.19,3.19,0,0,1,.39,21c1,.71,0,1.39-.07,2.08,1.26.69-.43,1.36,0,2.1.19.36-.77.85,0,1.27.11,1.44-.35,2.91.52,4.29-.83.7.28,1.36.05,2.1S1,34.59.78,35.44c-.11.5.85.78.18,1.34-.48.4.18,1.14-.54,1.66-.26.19-.29,1-.06,1.12.7.4-.11.91.39,1.41s.11,1.3.08,2a2.89,2.89,0,0,0,1.5,2.34.67.67,0,0,0,.52.07c.57-.58,1.21.25,1.4.08.73-.68,1.17.15,1.71.09,1-.09,2,.32,2.92-.35.4-.28,1.23.06,1.9-.28.36-.19,1.28.37,1.73.21a14,14,0,0,1,4.18-.38c.52,0,1.22-.4,1.49-.24a2,2,0,0,0,1.66.21c.79-.29,1.74-.64,2.33-.3.9.52,1.45-.44,2.21-.08a3.33,3.33,0,0,0,1.35.34c.43,0,.87-.31,1.3-.3s1.21.43,1.28.35c.71-.78,1.67,0,2.54-.29a4,4,0,0,1,3.15.23c.25.16.94,0,1.35-.16a1.55,1.55,0,0,1,1.6.09,1,1,0,0,0,.66.15c1-.8,2.28-.25,3.41-.37a2.88,2.88,0,0,1,1.68.23c.37.18,1.15-.24,1.75-.23s1.53.44,2,.24a1.73,1.73,0,0,1,2,.12.9.9,0,0,0,.66-.12c.57-.51,1.45,0,1.89-.31.77-.54,1.28.27,1.94.06s1.38-.47,1.76-.29c1.77.84,3.9-.39,5.57.68.64-.69,1.6-.46,2.35-.36s1.56-.65,2.38-.11c.26-.74.81.26,1.33-.15.37-.28,1.26-.18,1.92-.17.5,0,1.26.35,1.46.19.8-.62,1.16.3,1.76.2s1-.17,1.43-.21c.81-.06,1.62-.09,2.43-.1.18,0,.48.21.52.18.64-.57,1.46-.17,2.19-.27a3.62,3.62,0,0,1,2.1.39c.61.29,1.13-.56,1.93,0,.46.29,1.42,0,2.08.43s1.24-.69,1.87,0c.36-.63,1.12-.14,1.71-.33.74-.24,1.78.17,2.67.1.55,0,1.06.24,1.67,0a4.17,4.17,0,0,1,1.71-.14c.53,0,1.29.45,1.52.3A2.72,2.72,0,0,1,97,44.33c.6,0,1.2,0,1.8,0,.2,0,.37.29.59.33.6.11,1.21.65,1.86.06a61.09,61.09,0,0,0,9.49-.5l1.51-1.88c.08-.1.27-.27.26-.28-1.06-.73-.23-1.75-.62-2.63-.28-.63-.8-1.57-.28-2.15s.34-1.27.44-1.9a5.54,5.54,0,0,1,0-1c.17-.47.6-.91.67-1.39a7.12,7.12,0,0,0-.18-1.56c0-.6,0-1.21,0-1.82s-.27-1.24.06-1.58c.61-.62-.34-1-.07-1.53.12-.23,0-.58.2-.73.46-.39.24-.61,0-1s0-1,0-1.48c0-.31.24-.61.26-.92.06-.71-.22-1.5.81-2,.08,0,.13-.24.09-.27a1.15,1.15,0,0,1-.3-1.67c.6-.69-.29-1.15-.09-1.73.16-.42-.21-.94.42-1.3a.43.43,0,0,0,0-.51C113.6,14.58,113.3,14.27,113.87,13.92Z"/><path class="cls-1" d="M195.61,32.64c-.11-1.27.4-2.67-.16-3.81a6,6,0,0,1-.35-3.1c0-.43,0-.85,0-1.29a5.28,5.28,0,0,1,.36-3.1c.5-.9.34-2.07.68-3.11-.85-.43-.52-1.08-.55-1.65s.73-1,0-1.49a1.81,1.81,0,0,0,.45-2.42c-.57-.77,1-1.63-.44-2.19-.05,0,.08-.36.19-.53a2,2,0,0,0-.06-2.6.6.6,0,0,1-.06-.54c.11-.39.57-1,.4-1.11-.82-.51.49-1,0-1.27-1-.54.58-.89.07-1.33a7.3,7.3,0,0,0,0-.81c0-.53-.47-.87-1.19-.9-2.16-.09-4.36.22-6.49-.38-.28-.08-.75.29-1.16.36-.89.15-.45-.68-.9-.74-1.31-.18-2.72.14-3.94-.46-.59.61-1.13.42-1.81,0a2,2,0,0,0-1.24.17,1.43,1.43,0,0,1-1.2,0c-.49-.13-1.08-.11-1.65-.21a2.8,2.8,0,0,0-1.82.21c-.4.22-1.17-.64-1.71.08-1.15-.35-2.24.23-3.41.11-1.38-.13-3,.28-4.13-.12s-2.1.72-2.72-.31a17.14,17.14,0,0,1-7.93,0,.72.72,0,0,0-.5.08c-.47.51-1.19.33-1.79.3-1.16-.06-2.33,0-3.51-.15s-2.22.27-3.37-.21c-.36-.15-1.26.3-1.54.13A4.16,4.16,0,0,0,141.3.17c-1.59.21-3.31-.46-4.82.39-.12.07-.48-.09-.73-.14-.42-.09-1-.34-1.23-.22a3.54,3.54,0,0,1-2.8.31c-.88-.49-1.92.59-2.46-.33-.78.76-1.49-.36-2.35,0-.45.16-1.06.65-1.79.06-.47-.38-1.21.55-1.81.12-.9-.66-1.11.46-2,.31A19.5,19.5,0,0,0,118,.57h-3.64a14.16,14.16,0,0,1-3.33,0c-1.17-.31-2.2.43-3.18,0-1.13-.46-2.18,0-3.17.1a4.51,4.51,0,0,1-2.18.11c-.67-.19-1.69.31-2.44.17a10.15,10.15,0,0,0-2.64,0C95,1.09,92.6,1,90.18,1c-.78,0-2.55.63-2.61,1.16C87.34,4,86.21,5.75,86.39,7.67c0,.41.71.75.1,1.31-.37.34.07,1.09-.19,1.55s-.06.46,0,.74a20.24,20.24,0,0,1,.13,3.21c-.89.26.29.86-.39,1.17-.88.41-.43,1-.39,1.57a6.76,6.76,0,0,1,.2,1.15c0,.44-.29.87-.32,1.31s.44.79.26.95c-.64.56-.71,1,0,1.57.22.19.14.64,0,.93-.9,2.15-.44,4.34-.22,6.5,0,.48.27.87,0,1.4s.4,1.09.25,1.57a2.93,2.93,0,0,0,0,2,6.2,6.2,0,0,1,0,2v1.82a13.58,13.58,0,0,0,0,2,9.41,9.41,0,0,0,.53,1.66c-1.42.32.42,1.15-.46,1.55-.13,1.28,1.07,1.87,2.71,1.73a49.5,49.5,0,0,1,7.1-.09c.65,0,1.34.4,1.9,0,.9-.68,1.19.67,1.92.25,1.32-.77,2.84-.27,4.26-.38,1-.08,2.24.22,3-.11a4.93,4.93,0,0,1,2.9-.24,8.27,8.27,0,0,0,2.35-.08c.87-.06,1.83.26,2.61-.35.18-.14.85,0,1.28.09s.85.3.92.24c.93-.82,1.78-.17,2.66,0,.46.11,1.17.41,1.35.29a2.37,2.37,0,0,1,2.28-.14c.84.44,1.14-.38,1.89-.19a10.92,10.92,0,0,0,2.5,0c.84,0,1.68,0,2.52,0a12.51,12.51,0,0,1,2.69.18c.84.21,1.34-.4,2.18-.24.57.12,1.49-.46,1.94-.3a5.4,5.4,0,0,0,2.05.35,10.2,10.2,0,0,1,2.22,0,2.77,2.77,0,0,0,1.82,0c.32-.12.91.45,1.43,0,.33.6,1.31-.41,1.58.34.58-.13,1.14-.29,1.73-.38a2.05,2.05,0,0,1,.74.14c.32.07.91.22.92.2.54-.89,1.39.18,2-.18.84-.5,1.47.06,2.19.21a1.9,1.9,0,0,0,1.09,0c.75-.61,1.4,0,2.08,0,.87,0,1.85-.33,2.63.29a1.12,1.12,0,0,0,.73,0c2.41-.74,4.92-.13,7.36-.33.78.55,1.74-.25,2.3,0,1,.51,1.77,0,2.65,0a13.53,13.53,0,0,1,4,.38,11.84,11.84,0,0,0,2.23,0h2.24c.75,0,1.49,0,2.24,0a12.87,12.87,0,0,1,1.87.18,5.17,5.17,0,0,0,1.68-.16,10.45,10.45,0,0,1,2.5,0,5.68,5.68,0,0,1,1.9.57c.64.33,1.22-.73,1.76,0,.87-.14,2,0,2.46-.66a1.3,1.3,0,0,0,.11-1.45c-.42-.46-.31-.88-.35-1.32a4.83,4.83,0,0,1,0-1.42c.1-.49.46-1,.51-1.45.09-.87-.36-1.9.13-2.59s-1-1.63.45-2.18c0,0,0-.29-.1-.36C195.12,34.12,195.66,33.34,195.61,32.64Z"/><path class="cls-2" d="M113.87,13.92c.48-.29-.3-.45-.05-.9a3,3,0,0,0,.14-2.51,5.56,5.56,0,0,0-.74-1.43c-.62-.78.44-1.2.35-1.81a2.13,2.13,0,0,0-.19-.95A5.42,5.42,0,0,1,112.52,3c0-1.44-2.06-2.59-3.91-2.32-.5.7-1.09-.45-1.61.05s-1.43.19-2.15.29c-.49.07-1.22,0-1.43.16-.63.64-1.18-.2-1.64,0A1.5,1.5,0,0,1,100,1.06a.84.84,0,0,0-.66,0A.9.9,0,0,1,97.89,1a1.89,1.89,0,0,1-1.58.4c-.94,0-1.89,0-2.83,0s-1.72,0-2.57,0-1.64,0-2.4-.1-1.79.39-2.37.06A5.35,5.35,0,0,0,83.23,1C77.82,1,72.42,1,67,1c-.63,0-1.36.27-1.93-.24a1,1,0,0,0-.68-.13,6.14,6.14,0,0,1-4.74,0,2.1,2.1,0,0,0-1,0,15.17,15.17,0,0,1-6.57,0c-.26-.05-.59.18-.87.17s-.66-.18-1-.22a3,3,0,0,0-1,0c-.6.14-1.24.72-1.8.33-.78-.54-1.23.27-2,.1a6.26,6.26,0,0,0-2.55,0c-.76.15-1.24-.35-2-.25s-1.41-.2-2.06.2a.31.31,0,0,1-.23,0C38,.34,37.2.56,36.36.74c-.67.15-1.44,0-2.11.1a8.29,8.29,0,0,0-2.55.53c-.73.4-1.55-.64-2.36,0C28.11.64,26.72,1.07,25.4,1c-.45,0-.78.66-1.49.17-.24-.16-1,.17-1.47.19-.76,0-1.54,0-2.31,0s-1.76.24-2.27,0c-.81-.46-1.35.23-1.92,0a2.59,2.59,0,0,0-1.9,0c-.54-.62-1.15.22-1.62,0C10.83.59,9.11,1.17,7.47,1c-.83.73-1.58.07-2.36-.08A13.24,13.24,0,0,0,3,1.11L.45,4.33a1.62,1.62,0,0,1,.11.28,6,6,0,0,1,.2,2.53C.45,8,1.05,8.8.88,9.66s0,1.89-.07,2.83S1.36,14.24.33,15c.26.83,1.07,1.64,0,2.48A3.19,3.19,0,0,1,.39,21c1,.71,0,1.39-.07,2.08,1.26.69-.43,1.36,0,2.1.19.36-.77.85,0,1.27.11,1.44-.35,2.91.52,4.29-.83.7.28,1.36.05,2.1S1,34.59.78,35.44c-.11.5.85.78.18,1.34-.48.4.18,1.14-.54,1.66-.26.19-.29,1-.06,1.12.7.4-.11.91.39,1.41s.11,1.3.08,2a2.89,2.89,0,0,0,1.5,2.34.67.67,0,0,0,.52.07c.57-.58,1.21.25,1.4.08.73-.68,1.17.15,1.71.09,1-.09,2,.32,2.92-.35.4-.28,1.23.06,1.9-.28.36-.19,1.28.37,1.73.21a14,14,0,0,1,4.18-.38c.52,0,1.22-.4,1.49-.24a2,2,0,0,0,1.66.21c.79-.29,1.74-.64,2.33-.3.9.52,1.45-.44,2.21-.08a3.33,3.33,0,0,0,1.35.34c.43,0,.87-.31,1.3-.3s1.21.43,1.28.35c.71-.78,1.67,0,2.54-.29a4,4,0,0,1,3.15.23c.25.16.94,0,1.35-.16a1.55,1.55,0,0,1,1.6.09,1,1,0,0,0,.66.15c1-.8,2.28-.25,3.41-.37a2.88,2.88,0,0,1,1.68.23c.37.18,1.15-.24,1.75-.23s1.53.44,2,.24a1.73,1.73,0,0,1,2,.12.9.9,0,0,0,.66-.12c.57-.51,1.45,0,1.89-.31.77-.54,1.28.27,1.94.06s1.38-.47,1.76-.29c1.77.84,3.9-.39,5.57.68.64-.69,1.6-.46,2.35-.36s1.56-.65,2.38-.11c.26-.74.81.26,1.33-.15.37-.28,1.26-.18,1.92-.17.5,0,1.26.35,1.46.19.8-.62,1.16.3,1.76.2s1-.17,1.43-.21c.81-.06,1.62-.09,2.43-.1.18,0,.48.21.52.18.64-.57,1.46-.17,2.19-.27a3.62,3.62,0,0,1,2.1.39c.61.29,1.13-.56,1.93,0,.46.29,1.42,0,2.08.43s1.24-.69,1.87,0c.36-.63,1.12-.14,1.71-.33.74-.24,1.78.17,2.67.1.55,0,1.06.24,1.67,0a4.17,4.17,0,0,1,1.71-.14c.53,0,1.29.45,1.52.3A2.72,2.72,0,0,1,97,44.33c.6,0,1.2,0,1.8,0,.2,0,.37.29.59.33.6.11,1.21.65,1.86.06a61.09,61.09,0,0,0,9.49-.5l1.51-1.88c.08-.1.27-.27.26-.28-1.06-.73-.23-1.75-.62-2.63-.28-.63-.8-1.57-.28-2.15s.34-1.27.44-1.9a5.54,5.54,0,0,1,0-1c.17-.47.6-.91.67-1.39a7.12,7.12,0,0,0-.18-1.56c0-.6,0-1.21,0-1.82s-.27-1.24.06-1.58c.61-.62-.34-1-.07-1.53.12-.23,0-.58.2-.73.46-.39.24-.61,0-1s0-1,0-1.48c0-.31.24-.61.26-.92.06-.71-.22-1.5.81-2,.08,0,.13-.24.09-.27a1.15,1.15,0,0,1-.3-1.67c.6-.69-.29-1.15-.09-1.73.16-.42-.21-.94.42-1.3a.43.43,0,0,0,0-.51C113.6,14.58,113.3,14.27,113.87,13.92Z"/><path class="cls-2" d="M195.61,32.64c-.11-1.27.4-2.67-.16-3.81a6,6,0,0,1-.35-3.1c0-.43,0-.85,0-1.29a5.28,5.28,0,0,1,.36-3.1c.5-.9.34-2.07.68-3.11-.85-.43-.52-1.08-.55-1.65s.73-1,0-1.49a1.81,1.81,0,0,0,.45-2.42c-.57-.77,1-1.63-.44-2.19-.05,0,.08-.36.19-.53a2,2,0,0,0-.06-2.6.6.6,0,0,1-.06-.54c.11-.39.57-1,.4-1.11-.82-.51.49-1,0-1.27-1-.54.58-.89.07-1.33a7.3,7.3,0,0,0,0-.81c0-.53-.47-.87-1.19-.9-2.16-.09-4.36.22-6.49-.38-.28-.08-.75.29-1.16.36-.89.15-.45-.68-.9-.74-1.31-.18-2.72.14-3.94-.46-.59.61-1.13.42-1.81,0a2,2,0,0,0-1.24.17,1.43,1.43,0,0,1-1.2,0c-.49-.13-1.08-.11-1.65-.21a2.8,2.8,0,0,0-1.82.21c-.4.22-1.17-.64-1.71.08-1.15-.35-2.24.23-3.41.11-1.38-.13-3,.28-4.13-.12s-2.1.72-2.72-.31a17.14,17.14,0,0,1-7.93,0,.72.72,0,0,0-.5.08c-.47.51-1.19.33-1.79.3-1.16-.06-2.33,0-3.51-.15s-2.22.27-3.37-.21c-.36-.15-1.26.3-1.54.13A4.16,4.16,0,0,0,141.3.17c-1.59.21-3.31-.46-4.82.39-.12.07-.48-.09-.73-.14-.42-.09-1-.34-1.23-.22a3.54,3.54,0,0,1-2.8.31c-.88-.49-1.92.59-2.46-.33-.78.76-1.49-.36-2.35,0-.45.16-1.06.65-1.79.06-.47-.38-1.21.55-1.81.12-.9-.66-1.11.46-2,.31A19.5,19.5,0,0,0,118,.57h-3.64a14.16,14.16,0,0,1-3.33,0c-1.17-.31-2.2.43-3.18,0-1.13-.46-2.18,0-3.17.1a4.51,4.51,0,0,1-2.18.11c-.67-.19-1.69.31-2.44.17a10.15,10.15,0,0,0-2.64,0C95,1.09,92.6,1,90.18,1c-.78,0-2.55.63-2.61,1.16C87.34,4,86.21,5.75,86.39,7.67c0,.41.71.75.1,1.31-.37.34.07,1.09-.19,1.55s-.06.46,0,.74a20.24,20.24,0,0,1,.13,3.21c-.89.26.29.86-.39,1.17-.88.41-.43,1-.39,1.57a6.76,6.76,0,0,1,.2,1.15c0,.44-.29.87-.32,1.31s.44.79.26.95c-.64.56-.71,1,0,1.57.22.19.14.64,0,.93-.9,2.15-.44,4.34-.22,6.5,0,.48.27.87,0,1.4s.4,1.09.25,1.57a2.93,2.93,0,0,0,0,2,6.2,6.2,0,0,1,0,2v1.82a13.58,13.58,0,0,0,0,2,9.41,9.41,0,0,0,.53,1.66c-1.42.32.42,1.15-.46,1.55-.13,1.28,1.07,1.87,2.71,1.73a49.5,49.5,0,0,1,7.1-.09c.65,0,1.34.4,1.9,0,.9-.68,1.19.67,1.92.25,1.32-.77,2.84-.27,4.26-.38,1-.08,2.24.22,3-.11a4.93,4.93,0,0,1,2.9-.24,8.27,8.27,0,0,0,2.35-.08c.87-.06,1.83.26,2.61-.35.18-.14.85,0,1.28.09s.85.3.92.24c.93-.82,1.78-.17,2.66,0,.46.11,1.17.41,1.35.29a2.37,2.37,0,0,1,2.28-.14c.84.44,1.14-.38,1.89-.19a10.92,10.92,0,0,0,2.5,0c.84,0,1.68,0,2.52,0a12.51,12.51,0,0,1,2.69.18c.84.21,1.34-.4,2.18-.24.57.12,1.49-.46,1.94-.3a5.4,5.4,0,0,0,2.05.35,10.2,10.2,0,0,1,2.22,0,2.77,2.77,0,0,0,1.82,0c.32-.12.91.45,1.43,0,.33.6,1.31-.41,1.58.34.58-.13,1.14-.29,1.73-.38a2.05,2.05,0,0,1,.74.14c.32.07.91.22.92.2.54-.89,1.39.18,2-.18.84-.5,1.47.06,2.19.21a1.9,1.9,0,0,0,1.09,0c.75-.61,1.4,0,2.08,0,.87,0,1.85-.33,2.63.29a1.12,1.12,0,0,0,.73,0c2.41-.74,4.92-.13,7.36-.33.78.55,1.74-.25,2.3,0,1,.51,1.77,0,2.65,0a13.53,13.53,0,0,1,4,.38,11.84,11.84,0,0,0,2.23,0h2.24c.75,0,1.49,0,2.24,0a12.87,12.87,0,0,1,1.87.18,5.17,5.17,0,0,0,1.68-.16,10.45,10.45,0,0,1,2.5,0,5.68,5.68,0,0,1,1.9.57c.64.33,1.22-.73,1.76,0,.87-.14,2,0,2.46-.66a1.3,1.3,0,0,0,.11-1.45c-.42-.46-.31-.88-.35-1.32a4.83,4.83,0,0,1,0-1.42c.1-.49.46-1,.51-1.45.09-.87-.36-1.9.13-2.59s-1-1.63.45-2.18c0,0,0-.29-.1-.36C195.12,34.12,195.66,33.34,195.61,32.64Z"/></g><g id="レイヤー_2" data-name="レイヤー 2"><g id="qlbaqe"><path class="cls-3" d="M118.73,24.64l-1.3.59c.09.25.19.52.3.79s.56-.65.64.07.46.38.74.38a5.28,5.28,0,0,0,1-.14c.21,0,.4-.14.61-.18a1.17,1.17,0,0,1,.32,0s.12.08.12.12c.08,1.9-.62,2.36-2.67,1.79-.39-.6-1.31.12-1.63-.6s-1.16-.43-1.22-1.17c0,0-.3,0-.32,0a4.06,4.06,0,0,0-.35.87c-.3,1.27-.3,1.27-1.68,1.32,0-.37-.19-1,0-1.08.46-.34-.09-.7.17-1.05s.14-.73.19-1.08a9.57,9.57,0,0,1-2-.66,8.92,8.92,0,0,1-1.45-1.36,2.9,2.9,0,0,0,.15-2.56c-.08-.27-.25-.44,0-.72a1.58,1.58,0,0,0,.34-1.3c0-.4.4-.84.52-1.28s.15-.83,0-1c-.53-.45-.08-.73,0-1.12s0-1.06.59-1.46c1.37-1,1.35-1,2.47-1,.83,0,1.62-.13,2.35.62.47.47,1.28.62,1.62,1.33.23.48,1.23.73.85,1.27s.63,1.07-.23,1.34c.5.31,0,.6,0,.89a1.36,1.36,0,0,0,.32.9c.1.17-.08.5-.12.77a.71.71,0,0,0,0,.35,6,6,0,0,1,.17,1.92c0,.22-.08.53,0,.65.35.38.31.38-.19.54S118.34,24,118.73,24.64ZM117,15.71c-.71-.27-1.38-.57-2.08-.79-1.84-.56-2.14-.32-2,1.52a.83.83,0,0,0,1,.64c.31-.12.53-.18.7.09.34.51.84.45,1.34.48a6.43,6.43,0,0,1,1,.22Zm-4.64,5.91a2.38,2.38,0,0,0-.15.54c0,1.13.11,1.21,1.25,1.28.53,0,1.14-.29,1.6.25.46-.37,1-.22,1.54-.28.15,0,.29-.22.43-.34-.15-.11-.29-.23-.45-.33a5.31,5.31,0,0,0-1.27-.66C114.33,21.87,113.34,21.77,112.33,21.62Zm4.62-.54c-.32-1.35-.32-1.34-1.32-1.4-.25,0-.64.16-.68-.25s-.21-.45-.54-.44c-.51,0-1,0-1.53,0-.13,0-.24.16-.36.24.12.14.28.43.34.41.54-.2,1,.86,1.59.05C115,20.58,116.19,20.34,117,21.08Z"/><path class="cls-3" d="M69.07,13.9a8.85,8.85,0,0,0,1.48,0c.83-.13,1.68-.34,2-1.24.2-.6.64-.84,1.22-1.39.11.76.9,1.12.22,1.86-.12.12.17.68.37,1,.08.12.4.1.61.14.38,0,.79-.14,1.12.22s.39-.34.76,0,.89-.07,1.36-.13c.38,1.25-.05,1.92-1.34,2H74.76c-.19.35.54.67,0,1.09-.35.27-.19.55.3.62.82.12,1.63.76,2.49,0,.08-.07.4.07.56.19a2,2,0,0,1,.6.6,1.18,1.18,0,0,1,.25.8.74.74,0,0,1-.84.42c-.45-.05-.92,0-1.37,0a6.1,6.1,0,0,1-1.09-.41,1,1,0,0,0,1.23.76A5.81,5.81,0,0,1,80,21a1.79,1.79,0,0,1,1.16,1.61,6.65,6.65,0,0,1,0,2.27,1.5,1.5,0,0,1-1.46.9c-.25-.07-.56-1-.48-1.33a5.56,5.56,0,0,0,.18-1.27.82.82,0,0,0-.39-.66,4.47,4.47,0,0,0-1.86-.43c-.55.05-1.06.31-1.62,0-.16-.1-.45,0-.68,0s-.43,0-.47.07c-.25.49-.52-.14-.74,0s-.87.29-.8,1c.11,1.14,0,1.15.47,1.85l1.43-1.65c.24.23.43.44.64.63a1,1,0,0,1,.11,1.34c-.64.55-.51,1.19-.55,1.84a1.44,1.44,0,0,1-1,1.45c-.54.2-1,.07-1.08-.44s-.12-.88.32-1.24c.16-.13-.1-.33-.59-.59a15.33,15.33,0,0,1-1.33-.95c-.5-.34.39-.64,0-1.09a1.39,1.39,0,0,1-.1-1.27c.39-.65-.36-1.32.26-2,.36-.41.59-.76,1.15-.68a3.93,3.93,0,0,0,2.07-.49c-.18-.1-.3-.21-.36-.19A2.08,2.08,0,0,1,72,19.36a.66.66,0,0,0-.64,0c-.25.19-.38.34-.63,0s-.56-.56-.91-.91c.36-.18.75-.53,1-.47s.73-.62,1.13-.1c.16-.12.44-.22.46-.37a4,4,0,0,0,0-1.47.7.7,0,0,0-.8-.49,3.21,3.21,0,0,1-1.75-.33C69.23,15,69.22,15.06,69.07,13.9Zm6.18,6-.12-.22s-.12.08-.11.11a1.2,1.2,0,0,0,.11.23Z"/><path class="cls-3" d="M61.52,28.76a8.18,8.18,0,0,1,.29-2.32c.47-1.37.76-1.8,2.16-2,.25,0,.64.15.64-.31s-.47-.33-.76-.36a3,3,0,0,1-1.59-.32c-.82-.54-1-1-.46-1.84a4.7,4.7,0,0,1,1-1.27c.59-.38.27-1.05.69-1.46.09-.09-.14-.46-.55-.44A2,2,0,0,1,61.39,18a1.51,1.51,0,0,1,.22-2.33c.21-.18.74,0,.59-.58,1-.56,1.54-1.72,2.73-2A2.76,2.76,0,0,1,66,12.91a1.12,1.12,0,0,1,.62.67c.1.27.15.72-.43.66-.39.9-1.57.78-2.07,1.6-.39.64-.3,1.11.47,1.29a.5.5,0,0,0,.36,0,5.85,5.85,0,0,0,1-.6c.86-.71.85-.71,1.79,0a6.39,6.39,0,0,0,.74.31l-1.13.87c-.09.06-.28.11-.27.14.25,1.1-.89,1.1-1.33,1.65-.3.37-.87.57-.8,1.21,0,.12-.22.28-.36.4-.33.28-.68.55-1.06.86,1,.54,1.75-.43,2.64-.21.12,0,.39-.36.51-.6s0-.44.1-.63c.41-1,.61-1,1.43-.17a6.19,6.19,0,0,0,2.15,1.84c.6.21.5.83.45,1.32,0,.12-.29.23-.46.31s-.49.18-.82.29a3.46,3.46,0,0,0-.26-.3c-.25-.23-.64-.68-.73-.63-.53.31-1-.1-1.46,0s-1.08.11-.43.79a.59.59,0,0,1-.16.23c-.69.65-.3,1.38-.11,2a7.41,7.41,0,0,0,.18,1c.13.29-.32.55.09.9.23.19.1.87,0,1.31a1.41,1.41,0,0,1-.49.79c-.1.08-.48-.14-.68-.29C65,29.51,64,29.27,65,28.37c-.8-1,0-2.18-.46-3.2a6.49,6.49,0,0,0-1.37,2.93c0,.19-.27.31,0,.48-.17.18-.35.5-.51.5A4.85,4.85,0,0,1,61.52,28.76Zm1.84-11.85.22-.12s-.08-.11-.11-.11a1,1,0,0,0-.23.11Z"/><path class="cls-3" d="M124.58,27.39c0-.35,0-1,0-1.6a1.94,1.94,0,0,1,1.44-1.9c1.51-.27,3.18-1,4.15.9,1.07-.85.3-1.82.23-2.71s-1-1-1.53-1.35c-.72-.44-1.55-.68-2.31-1.06s-.82-.61-.42-1.31c.3-.54-.16-1.24.55-1.66a6.44,6.44,0,0,0,1.35-1.31c.15-.18.31-.51.24-.68a.89.89,0,0,0-.64-.45c-.62-.06-1.26,0-1.89,0a1.28,1.28,0,0,1-.79-.5c-.07-.09.15-.48.32-.67a3.17,3.17,0,0,1,2.22-.84c.15,0,.43.05.45.12.2.92.67.68,1.2.3a.3.3,0,0,1,.23.08c.35.75,1.12,1,1.84,1.39-.26.66-1,1-.88,1.77-1,.07-.91,1.15-1.56,1.54-.14.09-.33.23-.35.36,0,.33-.36.81.31.9.83.11,1.2,1.17,2.15,1a13.44,13.44,0,0,1,1.21,1.52c.15.25,0,.66.07,1s.3.47.31.71a5.28,5.28,0,0,1-.21.92c0,.2.09.41.07.6a5.93,5.93,0,0,1-.24.92,1.88,1.88,0,0,1-.37.7c-.69.66-1,1.66-2,2.07a2.7,2.7,0,0,1-1.21.42C127.2,28.48,125.81,28.8,124.58,27.39Zm4.13-1.47s0-.31-.15-.41a1.22,1.22,0,0,0-.8-.26,2.82,2.82,0,0,0-1.1.5c-.16.11-.32.55-.25.62a1.66,1.66,0,0,0,.83.43c.2,0,.57-.31.66-.23C128.63,27.15,128.75,26.78,128.71,25.92Z"/><path class="cls-3" d="M89.77,23c-.47-.15-.13-.73-.72-.93a9.86,9.86,0,0,0-4-.62l-.67-1.78c1.26.18,2.31-.2,3.32.38.09.05,1.08.35.37-.48-.15-.17-.09-.55,0-.82a1.06,1.06,0,0,0-.72-1.2c-1-.24-1.79-1.11-2.91-.87-.17-1.12,0-1.36.92-1.36.63,0,1.27.07,2,.12a3.63,3.63,0,0,1,0-.65c.08-.6.49-1,1-.82s1.05.31.55,1a.39.39,0,0,0-.07.24.91.91,0,0,0,.24.24c.4.28.72,1.07,1.15.81s.75.12,1.12.07a17,17,0,0,1,1.75,0,2.25,2.25,0,0,0,.22.58c.14.18.33.31,0,.49a5.47,5.47,0,0,1-1.11.61c-.41.13-.85-.06-1.27.31-.21.19-.74,0-1.09,0-.05.22-.13.35-.09.42.6,1.14.81,1.2,2,.61.42-.22.83-.48,1.31-.76.17.71,1,1.22.13,2-.68.66-.59.76-2,.8a2.11,2.11,0,0,0,.13,1.39c.33.59-.46,1.17-.22,1.83a8.31,8.31,0,0,1-1.35.47,3.87,3.87,0,0,0-1.78.67,2.09,2.09,0,0,0,1.69,1.11,2.08,2.08,0,0,1,1.88,1.17c.09.24.45.36-.1.49-.33.08-.64.59-.89.55a5.89,5.89,0,0,1-2.43-.72,3.6,3.6,0,0,1-1.85-2.62c0-.32-.31-.54.08-.89A7.13,7.13,0,0,1,89.77,23Z"/><path class="cls-3" d="M99.84,13.36c.4.75.8,1.25.3,1.92a.41.41,0,0,0,.42.66c1-.06,2.09.93,3.18,0,.08-.07.45.26.69.3,1,.16,1,.15.86,1.2a1.59,1.59,0,0,0,0,.39,7.51,7.51,0,0,1-2.08.26,6,6,0,0,1-1.92-.43.84.84,0,0,0-1.13,1.09,3.93,3.93,0,0,1,.32,1.06.85.85,0,0,0,1.28.77c.25-.1.47-.25.71-.35.91-.41,1.3-.35,1.88.38a1.42,1.42,0,0,1,.24.74c0,.46-.36.27-.6.35-.39.14-.76.33-1.25.55l.54.69.54.72c-.57.33.3.52.09.77s-.48.35-.68.56-.08.29-.11.41c-1.13-.42-.77-2-1.92-2.35-1.27.65-1.29.64-1.61,1.74a5.55,5.55,0,0,0-.15,1.29c-.05.85.55-.28.9.3a3.11,3.11,0,0,0,2.07,1c.76.08,1.07.52,1.6,1l-.85,1-3-.94c-.25-.08-.52-.11-.77-.2-1-.36-1.85-.87-1.71-2.13-.67-.92.31-1.85,0-2.78,0-.07.27-.23.42-.34.85-.6.88-.75.6-1.81-.13-.52-.58-1.06,0-1.59-.46-.47-.19-1.16-.49-1.66-.2-.32-.14-.88-.87-.76-.48.08-.76-.41-.7-.92s.41-.85.92-.72c.75.18.86-.4,1-.78A4.09,4.09,0,0,1,99.84,13.36Z"/><path class="cls-3" d="M76.82,24.05c.9.18.89,1,1.24,1.46a3.39,3.39,0,0,0,.7.95c.42.3.88.64,1.47.13.39-.34.88-.12,1.15.3a.75.75,0,0,1-.12,1c-.29.28-.52.87-.79.88a3.74,3.74,0,0,1-2-.23c-1.45-.69-1.76-2-2.15-3.23C76.27,25,76.66,24.49,76.82,24.05Z"/><path class="cls-3" d="M67.41,25.16c1.72-.26,2.46,1,3.4,1.85,0,0,0,.31-.11.44a1,1,0,0,1-1,.4C68.29,27.75,67.56,26.92,67.41,25.16Z"/><path class="cls-3" d="M61.51,29l-.2.15c0-.07-.08-.19-.06-.2a.93.93,0,0,1,.26-.1Z"/></g></g></svg>