<svg xmlns="http://www.w3.org/2000/svg" viewBox="0 0 195.31 46.21"><defs><style>.cls-1{fill:none;stroke:#231815;stroke-linecap:round;stroke-linejoin:round;stroke-width:5px;}.cls-2{fill:#fff;}.cls-3{fill:#231815;}</style></defs><g id="レイヤー_1" data-name="レイヤー 1"><path class="cls-1" d="M194.69,32.64c-.09-1.27.36-2.67-.14-3.81a6.8,6.8,0,0,1-.31-3.1c0-.43,0-.85,0-1.29a5.88,5.88,0,0,1,.32-3.1c.44-.9.3-2.07.6-3.11-.75-.43-.46-1.08-.49-1.65s.65-1,0-1.49a2,2,0,0,0,.4-2.42c-.5-.77.91-1.63-.38-2.19-.05,0,.07-.36.16-.53a2.22,2.22,0,0,0-.05-2.6.72.72,0,0,1-.06-.54c.1-.39.51-1,.36-1.11-.73-.51.43-1,0-1.27-.87-.54.51-.89.06-1.33a7.3,7.3,0,0,0,0-.81,1,1,0,0,0-1.05-.9c-1.91-.09-3.85.22-5.73-.38-.24-.08-.65.29-1,.36-.79.15-.41-.68-.8-.74-1.16-.18-2.4.14-3.48-.46-.52.61-1,.42-1.59,0a1.56,1.56,0,0,0-1.1.17,1.11,1.11,0,0,1-1,0c-.43-.13-1-.11-1.46-.21a2.2,2.2,0,0,0-1.6.21c-.35.22-1-.64-1.51.08-1-.35-2,.23-3,.11-1.21-.13-2.64.28-3.64-.12s-1.85.72-2.4-.31a13.4,13.4,0,0,1-7,0,.55.55,0,0,0-.43.08c-.42.51-1,.33-1.58.3-1-.06-2.06,0-3.1-.15s-2,.27-3-.21c-.32-.15-1.11.3-1.36.13a3.27,3.27,0,0,0-2.49-.16c-1.4.21-2.92-.46-4.25.39-.11.07-.42-.09-.65-.14S141,.08,140.81.2a2.8,2.8,0,0,1-2.47.31c-.78-.49-1.69.59-2.17-.33-.69.76-1.31-.36-2.07,0-.4.16-.93.65-1.58.06-.41-.38-1.07.55-1.59.12-.8-.66-1,.46-1.72.31a15.23,15.23,0,0,0-3-.05h-3.21a11,11,0,0,1-2.93,0c-1-.31-2,.43-2.81,0s-1.93,0-2.8.1a3.51,3.51,0,0,1-1.92.11c-.59-.19-1.49.31-2.15.17a7.91,7.91,0,0,0-2.33,0c-2.12.17-4.27.08-6.41,0-.68,0-2.24.63-2.3,1.16-.2,1.86-1.2,3.62-1,5.54,0,.41.62.75.08,1.31-.32.34.06,1.09-.17,1.55s0,.46,0,.74a24.54,24.54,0,0,1,.11,3.21c-.78.26.26.86-.34,1.17-.78.41-.39,1-.34,1.57a9.39,9.39,0,0,1,.17,1.15c0,.44-.26.87-.28,1.31s.38.79.23.95c-.57.56-.63,1,0,1.57.18.19.11.64,0,.93-.79,2.15-.39,4.34-.19,6.5a2.87,2.87,0,0,1,0,1.4c-.17.47.35,1.09.21,1.57a3.34,3.34,0,0,0,0,2,7.17,7.17,0,0,1,0,2v1.82a17,17,0,0,0,0,2,11.12,11.12,0,0,0,.47,1.66c-1.26.32.37,1.15-.41,1.55-.11,1.28,1,1.87,2.4,1.73a38.36,38.36,0,0,1,6.25-.09c.58,0,1.19.4,1.68,0,.79-.68,1,.67,1.7.25,1.16-.77,2.5-.27,3.75-.38.89-.08,2,.22,2.65-.11A3.85,3.85,0,0,1,119,44.8a6.49,6.49,0,0,0,2.08-.08c.77-.06,1.61.26,2.3-.35.16-.14.75,0,1.13.09s.75.3.81.24c.82-.82,1.58-.17,2.34,0,.41.11,1,.41,1.2.29a1.88,1.88,0,0,1,2-.14c.74.44,1-.38,1.67-.19a8.46,8.46,0,0,0,2.2,0c.74,0,1.48,0,2.22,0a9.82,9.82,0,0,1,2.38.18c.74.21,1.18-.4,1.91-.24.51.12,1.32-.46,1.72-.3a4.23,4.23,0,0,0,1.81.35,8,8,0,0,1,2,0,2.16,2.16,0,0,0,1.6,0c.28-.12.8.45,1.26,0,.29.6,1.16-.41,1.4.34.5-.13,1-.29,1.52-.38a1.63,1.63,0,0,1,.66.14c.28.07.79.22.81.2.47-.89,1.22.18,1.74-.18.74-.5,1.3.06,1.93.21.31.08.81.13,1,0,.66-.61,1.24,0,1.84,0,.77,0,1.63-.33,2.32.29a.87.87,0,0,0,.64,0c2.12-.74,4.34-.13,6.5-.33.68.55,1.52-.25,2,0,.89.51,1.57,0,2.34,0a10.58,10.58,0,0,1,3.5.38,9.24,9.24,0,0,0,2,0h2c.66,0,1.32,0,2,0a10.16,10.16,0,0,1,1.65.18,4,4,0,0,0,1.48-.16,8.18,8.18,0,0,1,2.21,0,4.54,4.54,0,0,1,1.67.57c.56.33,1.08-.73,1.55,0,.77-.14,1.74,0,2.17-.66a1.44,1.44,0,0,0,.1-1.45,1.88,1.88,0,0,1-.31-1.32,5.62,5.62,0,0,1,0-1.42c.08-.49.41-1,.45-1.45.08-.87-.32-1.9.11-2.59s-.85-1.63.4-2.18c0,0,0-.29-.09-.36C194.26,34.12,194.74,33.34,194.69,32.64Z"/><path class="cls-1" d="M.67,32.64c.1-1.27-.38-2.67.15-3.81a6.31,6.31,0,0,0,.33-3.1c0-.43,0-.85,0-1.29a5.52,5.52,0,0,0-.34-3.1c-.48-.9-.32-2.07-.64-3.11.8-.43.49-1.08.52-1.65s-.69-1,0-1.49a1.89,1.89,0,0,1-.43-2.42c.54-.77-1-1.63.41-2.19,0,0-.07-.36-.17-.53a2.1,2.1,0,0,1,.05-2.6.68.68,0,0,0,.07-.54C.52,6.42.08,5.81.24,5.7c.78-.51-.46-1,0-1.27.94-.54-.55-.89-.06-1.33,0-.27,0-.54,0-.81,0-.53.45-.87,1.13-.9C3.35,1.3,5.44,1.61,7.45,1c.26-.08.71.29,1.1.36.84.15.43-.68.86-.74C10.64.45,12,.77,13.14.17c.56.61,1.06.42,1.71,0A1.78,1.78,0,0,1,16,.37a1.28,1.28,0,0,0,1.13,0c.46-.13,1-.11,1.56-.21a2.54,2.54,0,0,1,1.73.21c.37.22,1.1-.64,1.62.08C23.16.14,24.19.72,25.3.6c1.3-.13,2.84.28,3.91-.12s2,.72,2.58-.31a15.39,15.39,0,0,0,7.51,0,.65.65,0,0,1,.47.08c.45.51,1.13.33,1.69.3,1.11-.06,2.21,0,3.33-.15S46.9.68,48,.2c.35-.15,1.2.3,1.47.13A3.72,3.72,0,0,1,52.11.17c1.51.21,3.14-.46,4.57.39.11.07.46-.09.69-.14.4-.09,1-.34,1.17-.22a3.19,3.19,0,0,0,2.65.31C62,0,63,1.1,63.52.18c.74.76,1.41-.36,2.23,0,.42.16,1,.65,1.69.06.44-.38,1.15.55,1.71.12C70-.35,70.21.77,71,.62A17.58,17.58,0,0,1,74.17.57h3.44a12.66,12.66,0,0,0,3.15,0c1.11-.31,2.1.43,3,0s2.07,0,3,.1a4,4,0,0,0,2.06.11c.64-.19,1.61.31,2.32.17a9.1,9.1,0,0,1,2.5,0c2.27.17,4.58.08,6.88,0,.73,0,2.41.63,2.47,1.16.22,1.86,1.29,3.62,1.11,5.54,0,.41-.66.75-.08,1.31.34.34-.07,1.09.18,1.55s0,.46,0,.74a21.49,21.49,0,0,0-.12,3.21c.84.26-.28.86.37,1.17.84.41.41,1,.36,1.57a7.83,7.83,0,0,0-.18,1.15c0,.44.28.87.3,1.31s-.42.79-.25.95c.61.56.68,1,0,1.57-.2.19-.13.64,0,.93.86,2.15.42,4.34.21,6.5a2.55,2.55,0,0,0,0,1.4c.18.47-.38,1.09-.23,1.57a3.12,3.12,0,0,1,0,2,6.49,6.49,0,0,0,0,2v1.82a17,17,0,0,1,0,2,11.31,11.31,0,0,1-.51,1.66c1.35.32-.4,1.15.44,1.55.12,1.28-1,1.87-2.57,1.73a44.46,44.46,0,0,0-6.73-.09c-.62,0-1.27.4-1.79,0-.86-.68-1.14.67-1.83.25-1.25-.77-2.69-.27-4-.38-1-.08-2.13.22-2.85-.11A4.41,4.41,0,0,0,82,44.8a7.46,7.46,0,0,1-2.23-.08C79,44.66,78,45,77.3,44.37c-.17-.14-.8,0-1.21.09s-.81.3-.88.24c-.88-.82-1.68-.17-2.51,0-.44.11-1.11.41-1.28.29a2.15,2.15,0,0,0-2.16-.14c-.79.44-1.08-.38-1.79-.19a9.81,9.81,0,0,1-2.37,0c-.79,0-1.59,0-2.38,0a11.19,11.19,0,0,0-2.55.18c-.8.21-1.27-.4-2.07-.24-.54.12-1.41-.46-1.84-.3a4.83,4.83,0,0,1-1.94.35,9.14,9.14,0,0,0-2.1,0,2.48,2.48,0,0,1-1.72,0c-.31-.12-.87.45-1.36,0-.31.6-1.24-.41-1.5.34-.54-.13-1.08-.29-1.63-.38a1.87,1.87,0,0,0-.71.14c-.3.07-.85.22-.87.2-.51-.89-1.31.18-1.88-.18-.79-.5-1.39.06-2.07.21a1.7,1.7,0,0,1-1,0c-.71-.61-1.33,0-2,0-.83,0-1.75-.33-2.49.29a1,1,0,0,1-.7,0c-2.27-.74-4.65-.13-7-.33-.74.55-1.64-.25-2.17,0-1,.51-1.68,0-2.52,0a12.19,12.19,0,0,0-3.76.38,10.59,10.59,0,0,1-2.11,0H14.64c-.71,0-1.41,0-2.12,0a11.54,11.54,0,0,0-1.77.18,4.69,4.69,0,0,1-1.6-.16,9.32,9.32,0,0,0-2.36,0,5.13,5.13,0,0,0-1.8.57c-.61.33-1.16-.73-1.67,0-.83-.14-1.87,0-2.33-.66a1.35,1.35,0,0,1-.1-1.45c.4-.46.29-.88.33-1.32a5.2,5.2,0,0,0,0-1.42c-.09-.49-.44-1-.49-1.45C.64,39,1.07,38,.6,37.28s.92-1.63-.42-2.18c0,0,0-.29.09-.36C1.14,34.12.62,33.34.67,32.64Z"/><path class="cls-2" d="M194.69,32.64c-.09-1.27.36-2.67-.14-3.81a6.8,6.8,0,0,1-.31-3.1c0-.43,0-.85,0-1.29a5.88,5.88,0,0,1,.32-3.1c.44-.9.3-2.07.6-3.11-.75-.43-.46-1.08-.49-1.65s.65-1,0-1.49a2,2,0,0,0,.4-2.42c-.5-.77.91-1.63-.38-2.19-.05,0,.07-.36.16-.53a2.22,2.22,0,0,0-.05-2.6.72.72,0,0,1-.06-.54c.1-.39.51-1,.36-1.11-.73-.51.43-1,0-1.27-.87-.54.51-.89.06-1.33a7.3,7.3,0,0,0,0-.81,1,1,0,0,0-1.05-.9c-1.91-.09-3.85.22-5.73-.38-.24-.08-.65.29-1,.36-.79.15-.41-.68-.8-.74-1.16-.18-2.4.14-3.48-.46-.52.61-1,.42-1.59,0a1.56,1.56,0,0,0-1.1.17,1.11,1.11,0,0,1-1,0c-.43-.13-1-.11-1.46-.21a2.2,2.2,0,0,0-1.6.21c-.35.22-1-.64-1.51.08-1-.35-2,.23-3,.11-1.21-.13-2.64.28-3.64-.12s-1.85.72-2.4-.31a13.4,13.4,0,0,1-7,0,.55.55,0,0,0-.43.08c-.42.51-1,.33-1.58.3-1-.06-2.06,0-3.1-.15s-2,.27-3-.21c-.32-.15-1.11.3-1.36.13a3.27,3.27,0,0,0-2.49-.16c-1.4.21-2.92-.46-4.25.39-.11.07-.42-.09-.65-.14S141,.08,140.81.2a2.8,2.8,0,0,1-2.47.31c-.78-.49-1.69.59-2.17-.33-.69.76-1.31-.36-2.07,0-.4.16-.93.65-1.58.06-.41-.38-1.07.55-1.59.12-.8-.66-1,.46-1.72.31a15.23,15.23,0,0,0-3-.05h-3.21a11,11,0,0,1-2.93,0c-1-.31-2,.43-2.81,0s-1.93,0-2.8.1a3.51,3.51,0,0,1-1.92.11c-.59-.19-1.49.31-2.15.17a7.91,7.91,0,0,0-2.33,0c-2.12.17-4.27.08-6.41,0-.68,0-2.24.63-2.3,1.16-.2,1.86-1.2,3.62-1,5.54,0,.41.62.75.08,1.31-.32.34.06,1.09-.17,1.55s0,.46,0,.74a24.54,24.54,0,0,1,.11,3.21c-.78.26.26.86-.34,1.17-.78.41-.39,1-.34,1.57a9.39,9.39,0,0,1,.17,1.15c0,.44-.26.87-.28,1.31s.38.79.23.95c-.57.56-.63,1,0,1.57.18.19.11.64,0,.93-.79,2.15-.39,4.34-.19,6.5a2.87,2.87,0,0,1,0,1.4c-.17.47.35,1.09.21,1.57a3.34,3.34,0,0,0,0,2,7.17,7.17,0,0,1,0,2v1.82a17,17,0,0,0,0,2,11.12,11.12,0,0,0,.47,1.66c-1.26.32.37,1.15-.41,1.55-.11,1.28,1,1.87,2.4,1.73a38.36,38.36,0,0,1,6.25-.09c.58,0,1.19.4,1.68,0,.79-.68,1,.67,1.7.25,1.16-.77,2.5-.27,3.75-.38.89-.08,2,.22,2.65-.11A3.85,3.85,0,0,1,119,44.8a6.49,6.49,0,0,0,2.08-.08c.77-.06,1.61.26,2.3-.35.16-.14.75,0,1.13.09s.75.3.81.24c.82-.82,1.58-.17,2.34,0,.41.11,1,.41,1.2.29a1.88,1.88,0,0,1,2-.14c.74.44,1-.38,1.67-.19a8.46,8.46,0,0,0,2.2,0c.74,0,1.48,0,2.22,0a9.82,9.82,0,0,1,2.38.18c.74.21,1.18-.4,1.91-.24.51.12,1.32-.46,1.72-.3a4.23,4.23,0,0,0,1.81.35,8,8,0,0,1,2,0,2.16,2.16,0,0,0,1.6,0c.28-.12.8.45,1.26,0,.29.6,1.16-.41,1.4.34.5-.13,1-.29,1.52-.38a1.63,1.63,0,0,1,.66.14c.28.07.79.22.81.2.47-.89,1.22.18,1.74-.18.74-.5,1.3.06,1.93.21.31.08.81.13,1,0,.66-.61,1.24,0,1.84,0,.77,0,1.63-.33,2.32.29a.87.87,0,0,0,.64,0c2.12-.74,4.34-.13,6.5-.33.68.55,1.52-.25,2,0,.89.51,1.57,0,2.34,0a10.58,10.58,0,0,1,3.5.38,9.24,9.24,0,0,0,2,0h2c.66,0,1.32,0,2,0a10.16,10.16,0,0,1,1.65.18,4,4,0,0,0,1.48-.16,8.18,8.18,0,0,1,2.21,0,4.54,4.54,0,0,1,1.67.57c.56.33,1.08-.73,1.55,0,.77-.14,1.74,0,2.17-.66a1.44,1.44,0,0,0,.1-1.45,1.88,1.88,0,0,1-.31-1.32,5.62,5.62,0,0,1,0-1.42c.08-.49.41-1,.45-1.45.08-.87-.32-1.9.11-2.59s-.85-1.63.4-2.18c0,0,0-.29-.09-.36C194.26,34.12,194.74,33.34,194.69,32.64Z"/><path class="cls-2" d="M.67,32.64c.1-1.27-.38-2.67.15-3.81a6.31,6.31,0,0,0,.33-3.1c0-.43,0-.85,0-1.29a5.52,5.52,0,0,0-.34-3.1c-.48-.9-.32-2.07-.64-3.11.8-.43.49-1.08.52-1.65s-.69-1,0-1.49a1.89,1.89,0,0,1-.43-2.42c.54-.77-1-1.63.41-2.19,0,0-.07-.36-.17-.53a2.1,2.1,0,0,1,.05-2.6.68.68,0,0,0,.07-.54C.52,6.42.08,5.81.24,5.7c.78-.51-.46-1,0-1.27.94-.54-.55-.89-.06-1.33,0-.27,0-.54,0-.81,0-.53.45-.87,1.13-.9C3.35,1.3,5.44,1.61,7.45,1c.26-.08.71.29,1.1.36.84.15.43-.68.86-.74C10.64.45,12,.77,13.14.17c.56.61,1.06.42,1.71,0A1.78,1.78,0,0,1,16,.37a1.28,1.28,0,0,0,1.13,0c.46-.13,1-.11,1.56-.21a2.54,2.54,0,0,1,1.73.21c.37.22,1.1-.64,1.62.08C23.16.14,24.19.72,25.3.6c1.3-.13,2.84.28,3.91-.12s2,.72,2.58-.31a15.39,15.39,0,0,0,7.51,0,.65.65,0,0,1,.47.08c.45.51,1.13.33,1.69.3,1.11-.06,2.21,0,3.33-.15S46.9.68,48,.2c.35-.15,1.2.3,1.47.13A3.72,3.72,0,0,1,52.11.17c1.51.21,3.14-.46,4.57.39.11.07.46-.09.69-.14.4-.09,1-.34,1.17-.22a3.19,3.19,0,0,0,2.65.31C62,0,63,1.1,63.52.18c.74.76,1.41-.36,2.23,0,.42.16,1,.65,1.69.06.44-.38,1.15.55,1.71.12C70-.35,70.21.77,71,.62A17.58,17.58,0,0,1,74.17.57h3.44a12.66,12.66,0,0,0,3.15,0c1.11-.31,2.1.43,3,0s2.07,0,3,.1a4,4,0,0,0,2.06.11c.64-.19,1.61.31,2.32.17a9.1,9.1,0,0,1,2.5,0c2.27.17,4.58.08,6.88,0,.73,0,2.41.63,2.47,1.16.22,1.86,1.29,3.62,1.11,5.54,0,.41-.66.75-.08,1.31.34.34-.07,1.09.18,1.55s0,.46,0,.74a21.49,21.49,0,0,0-.12,3.21c.84.26-.28.86.37,1.17.84.41.41,1,.36,1.57a7.83,7.83,0,0,0-.18,1.15c0,.44.28.87.3,1.31s-.42.79-.25.95c.61.56.68,1,0,1.57-.2.19-.13.64,0,.93.86,2.15.42,4.34.21,6.5a2.55,2.55,0,0,0,0,1.4c.18.47-.38,1.09-.23,1.57a3.12,3.12,0,0,1,0,2,6.49,6.49,0,0,0,0,2v1.82a17,17,0,0,1,0,2,11.31,11.31,0,0,1-.51,1.66c1.35.32-.4,1.15.44,1.55.12,1.28-1,1.87-2.57,1.73a44.46,44.46,0,0,0-6.73-.09c-.62,0-1.27.4-1.79,0-.86-.68-1.14.67-1.83.25-1.25-.77-2.69-.27-4-.38-1-.08-2.13.22-2.85-.11A4.41,4.41,0,0,0,82,44.8a7.46,7.46,0,0,1-2.23-.08C79,44.66,78,45,77.3,44.37c-.17-.14-.8,0-1.21.09s-.81.3-.88.24c-.88-.82-1.68-.17-2.51,0-.44.11-1.11.41-1.28.29a2.15,2.15,0,0,0-2.16-.14c-.79.44-1.08-.38-1.79-.19a9.81,9.81,0,0,1-2.37,0c-.79,0-1.59,0-2.38,0a11.19,11.19,0,0,0-2.55.18c-.8.21-1.27-.4-2.07-.24-.54.12-1.41-.46-1.84-.3a4.83,4.83,0,0,1-1.94.35,9.14,9.14,0,0,0-2.1,0,2.48,2.48,0,0,1-1.72,0c-.31-.12-.87.45-1.36,0-.31.6-1.24-.41-1.5.34-.54-.13-1.08-.29-1.63-.38a1.87,1.87,0,0,0-.71.14c-.3.07-.85.22-.87.2-.51-.89-1.31.18-1.88-.18-.79-.5-1.39.06-2.07.21a1.7,1.7,0,0,1-1,0c-.71-.61-1.33,0-2,0-.83,0-1.75-.33-2.49.29a1,1,0,0,1-.7,0c-2.27-.74-4.65-.13-7-.33-.74.55-1.64-.25-2.17,0-1,.51-1.68,0-2.52,0a12.19,12.19,0,0,0-3.76.38,10.59,10.59,0,0,1-2.11,0H14.64c-.71,0-1.41,0-2.12,0a11.54,11.54,0,0,0-1.77.18,4.69,4.69,0,0,1-1.6-.16,9.32,9.32,0,0,0-2.36,0,5.13,5.13,0,0,0-1.8.57c-.61.33-1.16-.73-1.67,0-.83-.14-1.87,0-2.33-.66a1.35,1.35,0,0,1-.1-1.45c.4-.46.29-.88.33-1.32a5.2,5.2,0,0,0,0-1.42c-.09-.49-.44-1-.49-1.45C.64,39,1.07,38,.6,37.28s.92-1.63-.42-2.18c0,0,0-.29.09-.36C1.14,34.12.62,33.34.67,32.64Z"/></g><g id="レイヤー_2" data-name="レイヤー 2"><path class="cls-3" d="M106.5,15.36c.2-.14.41-.27.6-.43s.24-.31.4-.38a3.82,3.82,0,0,1,2.74.18,9.54,9.54,0,0,0,1.35.19,5,5,0,0,1-.31-2.88.77.77,0,0,1,.88-.61c.38,0,.36.37.5.47.58.45.18,1.08.42,1.58a7.61,7.61,0,0,1,.35,1.65,11.65,11.65,0,0,0,2.13.41,11.69,11.69,0,0,0,2.17-.31v1.69a2.72,2.72,0,0,0-2.86,1.74c-.35.83-.15,1.23.75,1.38.7.11,1.34.45,2,.59s.4.74.86.79c.7.07.31.61.36.93.1.63.41,1.28-.18,1.88a1.1,1.1,0,0,0-.13.78c0,.19.28.36.31.55a.77.77,0,0,1-.13.62c-.25.25,0,.33,0,.51s-.19.32-.24.51,0,.46-.09.65a5.46,5.46,0,0,0-.63,2.32,2.92,2.92,0,0,1-.34,1.06.55.55,0,0,1-.28.16c-.3.09-.61-.63-.92,0-.17-.22-.43-.41-.49-.66a1.46,1.46,0,0,1,.1-1c.35-.56.36-1.29.74-1.74.7-.83.26-1.63.14-2.41a1.4,1.4,0,0,0-.78-1c-1.22-.27-1.78-1.45-3-1.83l.67-1.28c-.16,0-.42-.13-.46-.07-.65.86-1.27,1.74-1.89,2.61.49.43.18.46-.22.51-.07,0-.2.31-.15.42.16.41.28,0,.43,0a3.57,3.57,0,0,1,1.06-.35,3.72,3.72,0,0,1,1,.28c1.61.45,2,.86,1.93,2.44,0,.54.16,1.11-.38,1.57a2.71,2.71,0,0,1-1.92.81,3.74,3.74,0,0,0-1.14.16,1.49,1.49,0,0,1-2-1.3c0-.08.08-.16.09-.24.13-.63.25-1.26.39-2,0,.05,0-.07-.09-.07-.58,0-1.3.09-1.46-.55a2.07,2.07,0,0,1,.61-1.93c.74-.61.58-1.71,1.42-2.19a2.48,2.48,0,0,0-.3-.49.38.38,0,0,0-.33,0c-.62.49-1.38.27-2,.36-.15,1.4-.32,2.72-.42,4,0,.42-.2.92.3,1.24-.32.28-.29.66-.33,1.05a3.36,3.36,0,0,0,.38,1.74,5,5,0,0,0,.48.83c.29.41-.34.59-.23.95a2.58,2.58,0,0,1-.93-.06c-.8-.38-.78-1.28-1-2a7.7,7.7,0,0,1-.37-2.31c-.06-1.08.08-2.18-.06-3.26-.06-.49.78-.65.28-1.19s.37-.54.38-.85-.26-.62-.16-.81a7.17,7.17,0,0,1,1-1.32c0-.05.23,0,.35,0s.48.11.58,0,.32-.16.52,0c0,0,.31-.18.49-.23a4.45,4.45,0,0,0,.66-.07c.26-.1.19-.84-.15-.94-.49-.15-.53-.32-.27-.68a1.25,1.25,0,0,0,0-1.4c-.19.57-.74-.17-1,.27C108,16.06,106.89,16.51,106.5,15.36Zm6,4.35c.17-.43.29-.84.48-1.21s.49-.71.68-1.09-.07-.49-.52-.48-1,.19-1.42-.31c0-.05-.29.08-.44.13.49.36-.23.76,0,1.05s.71.36.9.64-.06.61,0,.93C112.15,19.48,112.36,19.58,112.5,19.71Zm.82,7.53c0-.53-.13-.74-.72-.85-.41-.07-.65.18-.67.63a1.88,1.88,0,0,1-.18.6c-.19.45.22.6.44.65C112.7,28.38,113.32,27.75,113.32,27.24Zm3.73-5-2.33-.45c1,.68,1.35,1.55,2.33,1.79Zm-2.4-.32-.12-.12a1.2,1.2,0,0,0-.11.23s.07.08.11.12Zm-4.22,3.71-.22.13s.09.11.12.1a1.15,1.15,0,0,0,.23-.1Z"/><path class="cls-3" d="M63.39,26.33a2.8,2.8,0,0,0-.53-.28c-.71-.21-.53-.75-.46-1.22.11-.68-.22-1.1-.8-.93l-1.48.44c0,1.11,0,2.3,0,3.49a2.19,2.19,0,0,0,.77,1.74,17.15,17.15,0,0,0,1.45,1.09s.17-.17.23-.16a4.08,4.08,0,0,0,2.67.05,5.36,5.36,0,0,1,2.17-.16c.17,0,.39.44.51.71a.53.53,0,0,1-.22.46c-1.47.51-2.9,1.4-4.55.62-3.07-.33-3-1-4.06-2.5-.06-.09-.06-.21-.12-.29-.34-.46-.53-.48-1.08-.08-.13.1-.22.29-.37.35a1.09,1.09,0,0,1-.51,0c-.94-.14-1.84.29-2.78.16-.19,0-.48-.15-.57-.06-.31.28-.52.33-.86,0a1.13,1.13,0,0,0-.8-.13c-1.1.21-1.16.18-1.21-.86,0-.23,0-.45,0-.81h2.43l-.85-4.76a23,23,0,0,1-2.23-.62c-.27-.1-.46-.28-.72,0s-.4.11-.34-.17c.1-.46.27-.91.43-1.41.93.21,1.85-.24,2.71.26.39.21.29-.16.29-.31,0-.53.25-1,.73-.88.33.1,1,.06,1,.81s.69.78,1.16.83a4.5,4.5,0,0,1,2.39.64.84.84,0,0,0,1.24-.65,4.37,4.37,0,0,1,.71-1.95c.25-.52.86-.59,1.19-1,0-.06.6.27,1,.45-.34.65-.62,1.28-1,1.87-.19.3-.21.51.06.71s0,.74.56.67,1.17.18,1.54-.43.54-1,.88-1.52c.17-.25.41-.66.8-.42s.6.38.51.82c0,.16.06.39,0,.5-.48.63-.28,1.06.29,1.51a1.86,1.86,0,0,1,.82,1.57c0,.53.56,1.07-.06,1.6.17.64-.37,1.18-.31,1.74.08.81-.43,1.07-.88,1.54s-.74-.31-1.11-.09c0-.31-.12-.8,0-.9.65-.45.54-1.08.55-1.69s0-1.13,0-1.7c0-.15.47-.29.1-.46s-.54,0-.49.44C64.35,25.7,63.59,25.79,63.39,26.33ZM58.15,28c.7-.71-.2-1.21.18-1.92s.06-1.43.06-2.21a13,13,0,0,0-1.86-.32c-.59,0-1.18-.85-1.78,0-.28-.31-.52-.51-.51.16a10.83,10.83,0,0,0,0,1.71A14.57,14.57,0,0,0,54.83,27c.28.93.26,1,.81,1C56.51,28,57.37,28,58.15,28Zm.54.47-.13-.12a.8.8,0,0,0-.1.23s.07.07.1.11Z"/><path class="cls-3" d="M161.25,28.63c.23.7,0,1.13-.49,1.37a13.41,13.41,0,0,1-1.5.54c-.08,0-.23.09-.24.07-.47-.75-1.62-.49-2-1.32-.34-.67-.69-1.32-1-2a2.65,2.65,0,0,0-.83,2.15c0,.53-1.12,1.28-1.63,1.16a1.7,1.7,0,0,1-.33-1.22c.27-.52.87-1.09.78-1.52-.14-.63.21-.8.57-1.22-.51.21-.72-.73-1.25-.12l-1-.9c-.38-.36-.77-.7-.62-1.3a.56.56,0,0,0,0-.34c-.46-1.24-.43-1.24-.06-3.06.07-.32-.37-.82-.24-1a1.87,1.87,0,0,0,.32-1.08,3.35,3.35,0,0,1,.74-1.79c.11-.11.29-.28.27-.39-.12-.6.73-.23.77-.89s.59.17,1,0,.88,0,1.38-.14c.31-.1.83.4,1.25.63a7.78,7.78,0,0,1,1.38.8,9.48,9.48,0,0,1,.89,1.17c.12.14.38.17.57.25-.06.16-.19.33-.18.49a2.27,2.27,0,0,0,.21.76c.08.2.27.36.32.56a1.42,1.42,0,0,1,0,.68c0,.2-.21.37-.27.57a1.48,1.48,0,0,0-.05.66,6.12,6.12,0,0,1-.59,3.43,3.3,3.3,0,0,1-1,1.28c-.58.47-.67.88-.14,1.19s1.21.23,1.54.86C160.14,28.47,160.68,28.68,161.25,28.63Zm-2.88-9.41a4.08,4.08,0,0,0-.51-.2,1.13,1.13,0,0,0-.32,0c.08.12.14.29.24.33s.29-.05-.31-.32c0-.91-.86-1.11-1.38-1.6s-1.13.14-1.51-.45c-.26.41-.9.56-.82,1.35C155.14,17.92,156.16,19.25,158.37,19.22Zm.23,1.85a5.94,5.94,0,0,1-1.36,0c-.4-.1-.75-.4-1.15-.54s-.54.16-.89-.1a2.35,2.35,0,0,0-1.73-.37c-.25,0-.27,0-.28.31s-.11.82.08,1a1.78,1.78,0,0,0,1,.36c.81.15,1.63.22,2.44.36.42.08,1,.44,1.21.29S158.35,21.63,158.6,21.07Zm-.71,4.11c0-.28,0-.5,0-.71s-.08-.26-.15-.27c-1.32-.25-2.59-.67-3.88-1a.62.62,0,0,0-.76.67c0,.37.4.69.62,1,.53-.6,1.19.36,1.73-.14.08-.06.32-.09.35,0C156.33,25.44,157.09,25.17,157.89,25.18Z"/><path class="cls-3" d="M139.78,19.27a6,6,0,0,0-1.46.52c-.33.23-.4,0-.63,0-.5-.13-.88-.34-.86-.84a1.46,1.46,0,0,1,1.28-1.27c.29,0,.58,0,.87,0,.72,0,.72,0,.76-1,0,0-.08-.08-.12-.12.89-.53.44-1.63,1-2.3.08-.09.18-.16.26-.24.49.59,1.22,0,1.83.42-.47.4-.88.84-.71,1.52,0,.17.08.41,0,.51-.39.43-.52.85-.09,1.31a3.42,3.42,0,0,0,1.89.4c.3-.05.74-.13.91,0,.79.73,1.68.29,2.36.06s.87.2,1.14.42a.67.67,0,0,1,0,1.06c-.14.12-.29.37-.41.35-1.68-.16-3.39.39-5.05-.3a4.79,4.79,0,0,0-1.54,0,4.77,4.77,0,0,0,.36.77,1.91,1.91,0,0,1,.61,1.32,2.43,2.43,0,0,0,.53,1.19c.37.58.9.72,1.4.24a1.85,1.85,0,0,1,1.21-.45,1.36,1.36,0,0,1,1.18.53,2.84,2.84,0,0,0,.72.38l-1.44,1a5.17,5.17,0,0,1,1,4c0,.26-.22.5-.25.75,0,.47-.51.49-.67.74s.15.66.24,1-.34.66-.57,1-.58.27-1,0-1,.16-1.38-.39c-.19.16-.3.44-.63.09A7.28,7.28,0,0,0,141.4,31c.26-.74-.87-.38-.8-1,.09-.83-.43-1.68,0-2.51a2.93,2.93,0,0,1,.38-.7c.23-.24.34-.41,0-.62.13-.16.23-.42.39-.47.43-.11.64-.27.62-.77s-.31-.54-.56-.8A5.93,5.93,0,0,1,140.29,22,20,20,0,0,1,139.78,19.27Zm2.55,9.36c0,1,.28,1.42,1.19,1.69.37.11.87-.05,1.13.15s.48.08.61-.12.16-.53.11-.55c-1.06-.53-.08-1.5-.48-2.15.64-.82-.1-1.2-.55-1.64a.64.64,0,0,0-.57,0A2.77,2.77,0,0,0,142.33,28.63Z"/><path class="cls-3" d="M86.2,20H88a1.92,1.92,0,0,0,.21.58c.18.23.43.43.17.71a1.35,1.35,0,0,1-.68.41,7.23,7.23,0,0,1-1.24,0c.24.47.6.88.6,1.28,0,.57.38.64.63.95s.11,1,.14,1.55l2-1.55,1.08.77c-.33.89-1.3,1.17-1.54,2-.09.32-.27.48,0,.86a7.54,7.54,0,0,0,1.23,1.9,4.22,4.22,0,0,1,.61,1c-.41.77-1.21-.06-1.73.36,0,0-.29-.09-.29-.11.16-.63-.33-.92-.68-1.27-.73-.72-.73-.7-1.67-.11-.41.25-.88.39-1.3.61a4.19,4.19,0,0,1-2.45.69c-.53,0-1,.26-1.59.32a11.44,11.44,0,0,1-1.55,0c-.22,0-.53.06-.65-.06a2,2,0,0,1-.47-.83c-.11-.34.09-.48.46-.5.19,0,.38-.33.54-.3,1.32.21,2.55-.41,3.84-.36a5.35,5.35,0,0,0,1.76-.31c.47-.15,1-.25,1-.73s.84-1.07.14-1.84a5.85,5.85,0,0,1-1.32-3c-.19-1.15-.6-1.57-1.8-1.82a33.85,33.85,0,0,0-6.31-.92c-.16,0-.73,1-.66-.07,0-.48-.82-.75-.17-1.33.43-.38.85-.2,1.28-.27a3.14,3.14,0,0,1,1.82,0c.4.33.76.5,1.19.11.26-.24.46-.19.71,0a1.9,1.9,0,0,0,2.71,0,.77.77,0,0,1,1.18.07C85.46,19.32,85.83,19.68,86.2,20Z"/><path class="cls-3" d="M42.65,31.69a9,9,0,0,0-.52-.83c-.42-.54-.45-.83,0-1.3.19-.21.4-.4.6-.61.51-.53.48-1.15.63-2.11a4.31,4.31,0,0,0-.47-2.3c-.24-.69-.66-.83-1.35-.63a4.31,4.31,0,0,1-1.64,3.42C39,28,38.38,29,37.12,29.05c-.21,0-.34.24-.63,0-.53-.45-1.44-.21-1.86-.87a4.27,4.27,0,0,1-.51-1.86c0-.31-.31-.84-.23-.88.65-.42-.55-1.19.32-1.5-.09-.67.62-.47.9-.79A5,5,0,0,1,38.29,21l1.57.06a5.92,5.92,0,0,0,.84.05,1.11,1.11,0,0,1,1,.43,4.39,4.39,0,0,0,1,.93c.41.23,1,.2,1.36.44s-.09.88.49,1.16c.81.4.73,1.21.67,1.94,0,.29-.61.54-.23.84s-.14.51-.12.8C45,29.26,44.12,30.4,42.65,31.69Zm-5.9-4.32c2.25-1.12,3.37-2.58,2.88-4.93-1.08.07-1.79.82-2.72,1.08-.78.21-1.07,1-1.3,1.75s.16,1.06.62,1.44A4.2,4.2,0,0,1,36.75,27.37Z"/><path class="cls-3" d="M165.47,22.31c.83.71,2,1,2.67,1.89a3.29,3.29,0,0,1,1,1.67l.34,2.45c-.34.6-.09,1.44-1.06,1.8-.61.23-1,1.08-1.8,1L164.24,31a5.38,5.38,0,0,1-.8-1.38,4.21,4.21,0,0,1,.36-2.75c.24-.48,1-.53,1.53-.62a13.6,13.6,0,0,1,2.18,0c-.77-.7-.64-1.65-1.76-1.77-.64-.06-1.21-.64-1.82-1-1-.51-.93-.49-.42-1.32.22-.35.28-.81.52-1.15s.67-.63.94-1c.14-.19.24-.68.15-.75s-.75-.3-.85-.19c-.4.44-.61.09-.75-.14a1,1,0,0,1,.2-1.29c.71-.43,1.76-.53,2.16-.1a8.85,8.85,0,0,1,1.3,1.69c.11.19-.21.59-.22.9C167,21.2,166,21.6,165.47,22.31Zm-.68,7.22a8.91,8.91,0,0,1,1.5-.19.81.81,0,0,0,.89-.6c.12-.42-.25-.68-.67-.79a1.26,1.26,0,0,0-.93-.05C164.66,28.22,164.81,28.85,164.79,29.53Z"/><path class="cls-3" d="M100,31.38a2.45,2.45,0,0,1,.21-2.19,3.37,3.37,0,0,0,.34-2,2.12,2.12,0,0,0-1.14-2c-.49-.27-.78-.2-.93.26a3.21,3.21,0,0,0-.32,1.23,1.81,1.81,0,0,1-1.24,1.85c-.75.34-1.69.84-2.62.12-.44-.34-1.05-.49-1.22-1.11a1.26,1.26,0,0,1,0-.58,4.65,4.65,0,0,0,.2-.94,2.43,2.43,0,0,1,1.63-2.51c1.2-.53,2.48-1.25,3.87-.38,2-.33,2.39,1.51,3.41,2.5a9.63,9.63,0,0,1,.13,1.76,2,2,0,0,0,0,.49c.19,1.7-.84,2.66-2.09,3.5C100.14,31.41,100.07,31.38,100,31.38Zm-3-6.75c.05.12,0,0,0-.06a.36.36,0,0,0-.31-.05,14,14,0,0,0-1.21.79c-.27.21-.6.44-.69.73s.23.55.26.85c.06.57.52.43.75.35.41-.14.39-.85,1-.84Z"/><path class="cls-3" d="M69.73,27.77a3.82,3.82,0,0,1,1.82-.52c.17,0,.62.23.54-.24,0-.18,0-.41,0-.48a11.36,11.36,0,0,1-.21-2.39c0-.36-.29-.94-.85-.33-.37-.55-.95-.35-1.42-.31A3.23,3.23,0,0,1,67.72,23a1.42,1.42,0,0,0,.12-.13c.77-1.27.85-1.3,2.36-.84,1,.29,1.44.05,1.66-.9,0-.16,0-.34,0-.51.11-.66.41-.95,1-.89s.83.34.49.93c0,.06.22.24.26.39.1.35,0,.9.25,1.05a3,3,0,0,0,1.39.37c.68,0,1.36,0,2.11,0v1.32c-.88.13-1.85.27-2.82.39-.21,0-.29-.54-.64-.12s-.37.47-.1.85a1.22,1.22,0,0,1,0,1.39.66.66,0,0,0,.49,1,15.25,15.25,0,0,0,2-.08c.45,0,1.08.34,1,.7,0,0-.11.08-.12.12-.09.47-.52.59-.8.86s-.66.18-1.06.18c-1.1,0-2.26-.4-3.31.29a.35.35,0,0,1-.33,0C71,28.81,70.41,28.31,69.73,27.77Z"/><path class="cls-3" d="M122.56,20.06a7.33,7.33,0,0,0,.28-1.44,7.65,7.65,0,0,0,0-1,1.46,1.46,0,0,1,.48-1.19c-.49-.47,0-.95.19-1.16a5.66,5.66,0,0,1,1.56-.76c.14-.06.44-.08.49,0,.55.78,1.61-.12,2.14.68a1.25,1.25,0,0,0,.54.34,3.45,3.45,0,0,1,2,3.51,5.71,5.71,0,0,0,0,1.94c.19.63-.68,1.42-1.45,1.79a2.89,2.89,0,0,1-2.28-.07c-.93-.32-1.91-.3-2.83-.61-.76-.25-1-.32-1-1,0-.34,0-.68,0-1Zm3.71-3.45c-1.44,0-1.45,0-1.34,1.07a.42.42,0,0,1-.12.29c-.13.14-.39.23-.41.36a6.76,6.76,0,0,0,0,1.19c0,1,.67,1.72,1.67,1.49a2,2,0,0,1,1.39.2c.47.21.72-.19,1.07-.3-.27-.76.59-1.45.05-2.3-.25-.4-.22-1-.71-1.3A13.29,13.29,0,0,0,126.27,16.61Z"/><path class="cls-3" d="M131.74,31.05a5.27,5.27,0,0,1-2.6-.34,1.13,1.13,0,0,1-.64-1.06,7.84,7.84,0,0,0-.26-2.79c-.2-.53.24-1.32.46-2a.67.67,0,0,1,.51-.35,1.52,1.52,0,0,0,1.48-.61c.35-.43.69.47,1.23,0,.29-.24,1.35.26,1.81.58a.68.68,0,0,1,.3.46c0,.49.3.68.61.91s.43.24.42.34c-.1,1,.72,1.84.13,3S134.42,31,133.46,31C132.89,31.08,132.32,31.05,131.74,31.05Zm-1.49-4.7c0,.79,0,1.53,0,2.27,0,.43.47.89.76.67.67-.5,1,.12,1.36.3s.51,0,.73-.18a.72.72,0,0,0,.12-1c-.28-.35-.28-.56,0-.85a.59.59,0,0,0,.06-.46,1.49,1.49,0,0,0-1.89-1.16A6.51,6.51,0,0,0,130.25,26.35Z"/><path class="cls-3" d="M124.11,31.39a4.44,4.44,0,0,1-2.84-.66c-.46-.26-.18-.44-.22-.72-.08-.63.53-1.22-.08-2-.39-.47.33-1.34,0-2a8.73,8.73,0,0,1,1.8-1.79.27.27,0,0,1,.15,0,15,15,0,0,1,2.6.39c.38.12.62.71.93,1.08.1.13.22.25.31.39.21.31.42.62.61.95s-.55.53-.11,1c.2.19.1.64.24.92s-.7.6-.06.94c-.66.27-.78,1.09-1.36,1.41a2.49,2.49,0,0,1-1,.17C124.84,31.41,124.55,31.39,124.11,31.39Zm1.26-1.75a11.51,11.51,0,0,0,.12-2.28c-.12-.89-.67-1.08-1.21-1.37a.82.82,0,0,0-1.26.59c-.08.32-.06.65-.36.87.41.22.22.47,0,.72.33.22.26.42,0,.61a7.88,7.88,0,0,1,.74.55C124,29.86,124.66,29.65,125.37,29.64Z"/><path class="cls-3" d="M83.68,25.08A1.64,1.64,0,0,1,82.37,27a4.9,4.9,0,0,0-.83.47,1.2,1.2,0,0,1-1.65-.25,7.19,7.19,0,0,0-.73-.73c-.62-.56-1.12-1.11-.52-2,.1-.16-.18-.54-.2-.83,0-.78.08-.92.84-1.16.3-.1.72-.41.87-.31.51.35,1.1.17,1.57.37s.78.64,1.34.33c0,0,.18.1.2.17C83.41,23.7,83.54,24.39,83.68,25.08Zm-3.18-.93c0,.4,0,.72,0,1a.43.43,0,0,0,.1.28c.15.14.35.36.47.33.28-.08.76-.31.75-.44a2.37,2.37,0,0,0-.45-1.13C81.28,24.09,80.88,24.18,80.5,24.15Z"/><path class="cls-3" d="M27.65,24.11c0-.48,0-.88,0-1.27a2,2,0,0,0-2-2.1,1.11,1.11,0,0,1-.9-.34c-.31-.38-.54.66-1,.09-.06-.08-.53.17-.83.23a1.1,1.1,0,0,1-.51,0c-.28,0-.53-.92-.33-1.12s.32-.33.48-.49c.76-.75.76-.76,1.91-.36.15.06.29.26.41.25a5,5,0,0,1,3.33,1.13c.27.16.88,0,.9.79s.54,1.46.06,2.34C28.8,23.87,28.56,24.31,27.65,24.11Z"/><path class="cls-3" d="M22.4,28.93a1.7,1.7,0,0,1,2.15-.57c.7.2,1.37,0,2.07.22a10.33,10.33,0,0,0,2.73.06c.46,0,.92,0,1.37,0a.76.76,0,0,1,.73.77c0,.39-.14.48-.51.66a3,3,0,0,1-1.09.28A28.66,28.66,0,0,1,24.62,30,7.25,7.25,0,0,1,22.4,28.93Z"/><path class="cls-3" d="M91.39,22.45c-.46,0-.91.07-.93-.58-1-.63-.81-1.83-1.28-2.72-.16-.32.18-.91.34-1.36,0-.09.38-.19.42-.14.33.35.62.74.93,1.12.66.84.8,2,1.63,2.75.2.18-.12.86-.43.92A3.85,3.85,0,0,1,91.39,22.45Z"/></g></svg>