<svg xmlns="http://www.w3.org/2000/svg" viewBox="0 0 195.91 45.02"><defs><style>.cls-1{fill:none;stroke:#231815;stroke-linecap:round;stroke-linejoin:round;stroke-width:5px;}.cls-2{fill:#fff;}.cls-3{fill:#231815;}</style></defs><g id="レイヤー_1" data-name="レイヤー 1"><path class="cls-1" d="M105.63,31.64c-.38.3.24.46,0,.9a3.76,3.76,0,0,0-.11,2.52,6.84,6.84,0,0,0,.59,1.43c.49.77-.35,1.19-.27,1.81a2.35,2.35,0,0,0,.15.94,6.69,6.69,0,0,1,.68,3.38,2.66,2.66,0,0,0,3.1,2.32c.39-.7.86.44,1.27,0s1.14-.2,1.71-.3c.38-.07,1,.06,1.13-.16.5-.63.93.2,1.3,0a1,1,0,0,1,1.42.11.51.51,0,0,0,.52,0c.44-.5.8-.36,1.15.08.31-.45.78-.4,1.25-.39h2.24c.68,0,1.36,0,2,0s1.3.05,1.9.09,1.42-.38,1.88-.05a3.57,3.57,0,0,0,2.31.34c4.28,0,8.57,0,12.85,0,.5,0,1.08-.26,1.53.24a.58.58,0,0,0,.54.13,4,4,0,0,1,3.75,0,1.2,1.2,0,0,0,.79,0,9.7,9.7,0,0,1,5.21,0c.21,0,.47-.18.7-.16s.51.17.78.21a2,2,0,0,0,.81,0c.48-.15,1-.72,1.43-.34.62.54,1-.26,1.55-.1a3.91,3.91,0,0,0,2,0c.61-.15,1,.34,1.59.25s1.11.2,1.63-.21a.17.17,0,0,1,.18,0c.55.6,1.15.39,1.81.2s1.14,0,1.67-.1a5.64,5.64,0,0,0,2-.52c.57-.41,1.22.63,1.87,0,1,.7,2.08.27,3.12.32.35,0,.62-.65,1.18-.16.19.16.76-.17,1.16-.2.61,0,1.23,0,1.84,0s1.39-.23,1.79,0c.65.47,1.07-.23,1.53,0a1.7,1.7,0,0,0,1.51,0c.42.63.9-.21,1.28,0,1.26.78,2.62.19,3.92.39.66-.74,1.26-.08,1.87.08a9.3,9.3,0,0,0,1.69-.21l2-3.22a1.61,1.61,0,0,1-.09-.29,7.77,7.77,0,0,1-.16-2.52c.25-.91-.22-1.67-.09-2.52s0-1.89,0-2.83-.43-1.76.39-2.47c-.21-.82-.85-1.64,0-2.48a3.9,3.9,0,0,1,0-3.55c-.81-.71,0-1.38.05-2.07-1-.7.35-1.37,0-2.11-.16-.36.6-.84,0-1.27-.09-1.43.28-2.91-.41-4.28.66-.7-.22-1.36,0-2.11s-.07-1.76.09-2.61c.08-.5-.68-.78-.14-1.35.37-.4-.15-1.14.42-1.65A1.15,1.15,0,0,0,195.62,6c-.55-.4.09-.92-.31-1.42s-.08-1.29-.06-2A3,3,0,0,0,194.06.28c-.09-.08-.37-.12-.41-.07-.45.59-1-.25-1.11-.07-.58.68-.93-.15-1.36-.1-.76.09-1.57-.32-2.31.35-.32.29-1-.06-1.51.29-.29.18-1-.37-1.37-.21a8.91,8.91,0,0,1-3.31.37c-.41,0-1,.4-1.19.25a1.32,1.32,0,0,0-1.31-.22c-.63.3-1.39.64-1.85.3-.72-.52-1.15.44-1.75.08a2.2,2.2,0,0,0-1.07-.33c-.35,0-.69.3-1,.29s-1-.43-1-.35c-.56.78-1.32,0-2,.29A2.56,2.56,0,0,1,169,.92c-.2-.15-.75,0-1.07.16A1,1,0,0,1,166.61,1c-.12-.11-.45-.21-.52-.14-.81.8-1.81.24-2.71.37A1.86,1.86,0,0,1,162.05,1c-.29-.18-.91.23-1.38.23S159.45.78,159.06,1a1.17,1.17,0,0,1-1.58-.12c-.07-.07-.42,0-.52.12-.45.51-1.15,0-1.5.3-.6.54-1-.26-1.54-.06s-1.09.47-1.39.29c-1.41-.84-3.09.4-4.42-.67-.5.69-1.26.45-1.86.36s-1.24.64-1.88.1c-.21.75-.65-.25-1.06.15s-1,.19-1.52.18-1-.35-1.16-.19c-.63.61-.92-.3-1.4-.2a10.68,10.68,0,0,1-1.13.2c-.64.06-1.28.09-1.92.1-.15,0-.39-.21-.42-.17-.51.56-1.16.17-1.73.27a2.38,2.38,0,0,1-1.67-.4c-.48-.29-.89.57-1.53.05-.36-.3-1.12,0-1.65-.44s-1,.69-1.48,0c-.29.62-.89.13-1.36.32s-1.41-.17-2.12-.1c-.43,0-.84-.23-1.32,0a2.56,2.56,0,0,1-1.36.13c-.42,0-1-.45-1.2-.29a1.8,1.8,0,0,1-1.31.3,9.74,9.74,0,0,1-1.43,0c-.16,0-.29-.29-.47-.33-.48-.11-1-.65-1.47-.06a38.56,38.56,0,0,0-7.53.51l-1.2,1.88c-.06.1-.21.27-.2.27.84.74.18,1.76.49,2.64.22.63.63,1.56.22,2.15s-.27,1.26-.35,1.89a6.6,6.6,0,0,1,0,1,11.94,11.94,0,0,0-.53,1.39,9.23,9.23,0,0,0,.14,1.56c0,.61,0,1.22,0,1.82s.22,1.25-.05,1.59c-.48.62.27,1,.06,1.52-.1.23,0,.58-.16.74-.37.38-.19.6,0,1a3.25,3.25,0,0,1,0,1.48c0,.31-.19.61-.21.92,0,.72.18,1.5-.64,2a.32.32,0,0,0-.07.27,1.33,1.33,0,0,1,.23,1.67c-.47.7.24,1.16.08,1.73s.17.94-.33,1.3a.53.53,0,0,0,0,.52C105.84,31,106.08,31.29,105.63,31.64Z"/><path class="cls-1" d="M113.45,31.64c.48.3-.3.46,0,.9a3,3,0,0,1,.14,2.52,5.69,5.69,0,0,1-.73,1.43c-.62.77.43,1.19.34,1.81-.05.32,0,.69-.19.94a5.43,5.43,0,0,0-.86,3.38c0,1.44-2,2.58-3.89,2.32-.5-.7-1.09.44-1.6,0s-1.43-.2-2.15-.3c-.48-.07-1.22.06-1.43-.16-.62-.63-1.16.2-1.63,0a1.47,1.47,0,0,0-1.78.11.8.8,0,0,1-.66,0,.9.9,0,0,0-1.43.08c-.4-.45-1-.4-1.58-.39H93.13c-.85,0-1.71,0-2.56,0s-1.63.05-2.38.09-1.79-.38-2.37-.05a5.51,5.51,0,0,1-2.9.34c-5.38,0-10.77,0-16.15,0-.63,0-1.35-.26-1.92.24a.85.85,0,0,1-.67.13,6.2,6.2,0,0,0-4.73,0,1.84,1.84,0,0,1-1,0,15.23,15.23,0,0,0-6.55,0c-.26,0-.59-.18-.87-.16s-.65.17-1,.21a3.17,3.17,0,0,1-1,0c-.6-.14-1.24-.72-1.79-.34-.78.54-1.23-.26-2-.1a6.16,6.16,0,0,1-2.53,0c-.76-.15-1.25.34-2,.25s-1.4.2-2.05-.21a.27.27,0,0,0-.23,0c-.69.6-1.44.39-2.28.2-.66-.14-1.43,0-2.09-.1a8.51,8.51,0,0,1-2.55-.52c-.72-.41-1.54.63-2.35,0-1.22.7-2.61.27-3.92.32-.45,0-.78-.65-1.49-.16-.24.16-1-.17-1.46-.2-.76,0-1.54,0-2.31,0s-1.75-.23-2.25,0c-.81.47-1.35-.23-1.92,0a2.65,2.65,0,0,1-1.9,0c-.53.63-1.13-.21-1.61,0-1.58.78-3.29.19-4.92.39-.83-.74-1.58-.08-2.36.08A14.36,14.36,0,0,1,3,44.46L.44,41.24A1.19,1.19,0,0,0,.56,41a6.09,6.09,0,0,0,.2-2.52c-.31-.91.28-1.67.11-2.52S.92,34,.81,33.08s.54-1.76-.49-2.47c.27-.82,1.07-1.64.06-2.48a3.21,3.21,0,0,0,0-3.55c1-.71,0-1.38-.06-2.07,1.26-.7-.43-1.37,0-2.11.19-.36-.76-.84,0-1.27C.43,17.7,0,16.22.83,14.85c-.82-.7.28-1.36.06-2.11S1,11,.78,10.13c-.11-.5.85-.78.18-1.35-.48-.4.18-1.14-.54-1.65C.16,6.94.13,6.14.36,6c.69-.4-.11-.92.39-1.42s.1-1.29.08-2A2.89,2.89,0,0,1,2.32.28.77.77,0,0,1,2.84.21C3.41.8,4.05,0,4.23.14,5,.82,5.4,0,5.94,0c1,.09,2-.32,2.91.35.39.29,1.22-.06,1.89.29C11.1.86,12,.31,12.46.47a14,14,0,0,0,4.17.37c.51,0,1.22.4,1.48.25A2,2,0,0,1,19.77.87c.78.3,1.73.64,2.32.3.9-.52,1.45.44,2.2.08A3.28,3.28,0,0,1,25.64.92c.43,0,.86.3,1.29.29S28.14.79,28.21.86c.71.78,1.66,0,2.53.29A3.9,3.9,0,0,0,33.87.92a2.22,2.22,0,0,1,1.35.16A1.49,1.49,0,0,0,36.81,1c.16-.11.58-.21.66-.14,1,.8,2.27.24,3.4.37A2.85,2.85,0,0,0,42.54,1c.37-.18,1.15.23,1.74.23s1.53-.44,2-.24a1.74,1.74,0,0,0,2-.12.85.85,0,0,1,.66.12c.57.51,1.45,0,1.89.3.76.54,1.26-.26,1.93-.06s1.37.47,1.75.29c1.77-.84,3.88.4,5.55-.67.63.69,1.59.45,2.34.36s1.56.64,2.37.1c.26.75.8-.25,1.32.15.37.28,1.26.19,1.92.18.5,0,1.25-.35,1.45-.19.8.61,1.16-.3,1.76-.2s1,.17,1.43.2c.8.06,1.6.09,2.41.1.18,0,.48-.21.52-.17.64.56,1.46.17,2.18.27a3.63,3.63,0,0,0,2.1-.4c.6-.29,1.12.57,1.92.05.46-.3,1.41,0,2.07-.44s1.23.69,1.86,0c.37.62,1.12.13,1.71.32s1.77-.17,2.66-.1c.55,0,1.06-.23,1.66,0a4,4,0,0,0,1.71.13C94,1.18,94.73.77,95,.93a2.83,2.83,0,0,0,1.65.31,17.78,17.78,0,0,0,1.79,0c.21,0,.37-.29.59-.33.61-.11,1.21-.65,1.85-.06a60.57,60.57,0,0,1,9.46.51c.49.6,1,1.24,1.51,1.88.08.1.27.27.26.27-1.06.74-.24,1.76-.63,2.64-.28.63-.79,1.56-.27,2.15s.34,1.26.43,1.89c.06.33-.06.69.05,1,.17.48.59.92.67,1.39a7,7,0,0,1-.19,1.56c0,.61,0,1.22,0,1.82s-.27,1.25.06,1.59c.62.62-.34,1-.07,1.52.13.23,0,.58.2.74.47.38.24.6,0,1s0,1,0,1.48c0,.31.24.61.27.92.06.72-.23,1.5.8,2,.08,0,.13.24.09.27a1.15,1.15,0,0,0-.29,1.67c.59.7-.3,1.16-.09,1.73s-.22.94.41,1.3a.45.45,0,0,1,0,.52C113.18,31,112.88,31.29,113.45,31.64Z"/><path class="cls-2" d="M105.63,31.64c-.38.3.24.46,0,.9a3.76,3.76,0,0,0-.11,2.52,6.84,6.84,0,0,0,.59,1.43c.49.77-.35,1.19-.27,1.81a2.35,2.35,0,0,0,.15.94,6.69,6.69,0,0,1,.68,3.38,2.66,2.66,0,0,0,3.1,2.32c.39-.7.86.44,1.27,0s1.14-.2,1.71-.3c.38-.07,1,.06,1.13-.16.5-.63.93.2,1.3,0a1,1,0,0,1,1.42.11.51.51,0,0,0,.52,0c.44-.5.8-.36,1.15.08.31-.45.78-.4,1.25-.39h2.24c.68,0,1.36,0,2,0s1.3.05,1.9.09,1.42-.38,1.88-.05a3.57,3.57,0,0,0,2.31.34c4.28,0,8.57,0,12.85,0,.5,0,1.08-.26,1.53.24a.58.58,0,0,0,.54.13,4,4,0,0,1,3.75,0,1.2,1.2,0,0,0,.79,0,9.7,9.7,0,0,1,5.21,0c.21,0,.47-.18.7-.16s.51.17.78.21a2,2,0,0,0,.81,0c.48-.15,1-.72,1.43-.34.62.54,1-.26,1.55-.1a3.91,3.91,0,0,0,2,0c.61-.15,1,.34,1.59.25s1.11.2,1.63-.21a.17.17,0,0,1,.18,0c.55.6,1.15.39,1.81.2s1.14,0,1.67-.1a5.64,5.64,0,0,0,2-.52c.57-.41,1.22.63,1.87,0,1,.7,2.08.27,3.12.32.35,0,.62-.65,1.18-.16.19.16.76-.17,1.16-.2.61,0,1.23,0,1.84,0s1.39-.23,1.79,0c.65.47,1.07-.23,1.53,0a1.7,1.7,0,0,0,1.51,0c.42.63.9-.21,1.28,0,1.26.78,2.62.19,3.92.39.66-.74,1.26-.08,1.87.08a9.3,9.3,0,0,0,1.69-.21l2-3.22a1.61,1.61,0,0,1-.09-.29,7.77,7.77,0,0,1-.16-2.52c.25-.91-.22-1.67-.09-2.52s0-1.89,0-2.83-.43-1.76.39-2.47c-.21-.82-.85-1.64,0-2.48a3.9,3.9,0,0,1,0-3.55c-.81-.71,0-1.38.05-2.07-1-.7.35-1.37,0-2.11-.16-.36.6-.84,0-1.27-.09-1.43.28-2.91-.41-4.28.66-.7-.22-1.36,0-2.11s-.07-1.76.09-2.61c.08-.5-.68-.78-.14-1.35.37-.4-.15-1.14.42-1.65A1.15,1.15,0,0,0,195.62,6c-.55-.4.09-.92-.31-1.42s-.08-1.29-.06-2A3,3,0,0,0,194.06.28c-.09-.08-.37-.12-.41-.07-.45.59-1-.25-1.11-.07-.58.68-.93-.15-1.36-.1-.76.09-1.57-.32-2.31.35-.32.29-1-.06-1.51.29-.29.18-1-.37-1.37-.21a8.91,8.91,0,0,1-3.31.37c-.41,0-1,.4-1.19.25a1.32,1.32,0,0,0-1.31-.22c-.63.3-1.39.64-1.85.3-.72-.52-1.15.44-1.75.08a2.2,2.2,0,0,0-1.07-.33c-.35,0-.69.3-1,.29s-1-.43-1-.35c-.56.78-1.32,0-2,.29A2.56,2.56,0,0,1,169,.92c-.2-.15-.75,0-1.07.16A1,1,0,0,1,166.61,1c-.12-.11-.45-.21-.52-.14-.81.8-1.81.24-2.71.37A1.86,1.86,0,0,1,162.05,1c-.29-.18-.91.23-1.38.23S159.45.78,159.06,1a1.17,1.17,0,0,1-1.58-.12c-.07-.07-.42,0-.52.12-.45.51-1.15,0-1.5.3-.6.54-1-.26-1.54-.06s-1.09.47-1.39.29c-1.41-.84-3.09.4-4.42-.67-.5.69-1.26.45-1.86.36s-1.24.64-1.88.1c-.21.75-.65-.25-1.06.15s-1,.19-1.52.18-1-.35-1.16-.19c-.63.61-.92-.3-1.4-.2a10.68,10.68,0,0,1-1.13.2c-.64.06-1.28.09-1.92.1-.15,0-.39-.21-.42-.17-.51.56-1.16.17-1.73.27a2.38,2.38,0,0,1-1.67-.4c-.48-.29-.89.57-1.53.05-.36-.3-1.12,0-1.65-.44s-1,.69-1.48,0c-.29.62-.89.13-1.36.32s-1.41-.17-2.12-.1c-.43,0-.84-.23-1.32,0a2.56,2.56,0,0,1-1.36.13c-.42,0-1-.45-1.2-.29a1.8,1.8,0,0,1-1.31.3,9.74,9.74,0,0,1-1.43,0c-.16,0-.29-.29-.47-.33-.48-.11-1-.65-1.47-.06a38.56,38.56,0,0,0-7.53.51l-1.2,1.88c-.06.1-.21.27-.2.27.84.74.18,1.76.49,2.64.22.63.63,1.56.22,2.15s-.27,1.26-.35,1.89a6.6,6.6,0,0,1,0,1,11.94,11.94,0,0,0-.53,1.39,9.23,9.23,0,0,0,.14,1.56c0,.61,0,1.22,0,1.82s.22,1.25-.05,1.59c-.48.62.27,1,.06,1.52-.1.23,0,.58-.16.74-.37.38-.19.6,0,1a3.25,3.25,0,0,1,0,1.48c0,.31-.19.61-.21.92,0,.72.18,1.5-.64,2a.32.32,0,0,0-.07.27,1.33,1.33,0,0,1,.23,1.67c-.47.7.24,1.16.08,1.73s.17.94-.33,1.3a.53.53,0,0,0,0,.52C105.84,31,106.08,31.29,105.63,31.64Z"/><path class="cls-2" d="M113.45,31.64c.48.3-.3.46,0,.9a3,3,0,0,1,.14,2.52,5.69,5.69,0,0,1-.73,1.43c-.62.77.43,1.19.34,1.81-.05.32,0,.69-.19.94a5.43,5.43,0,0,0-.86,3.38c0,1.44-2,2.58-3.89,2.32-.5-.7-1.09.44-1.6,0s-1.43-.2-2.15-.3c-.48-.07-1.22.06-1.43-.16-.62-.63-1.16.2-1.63,0a1.47,1.47,0,0,0-1.78.11.8.8,0,0,1-.66,0,.9.9,0,0,0-1.43.08c-.4-.45-1-.4-1.58-.39H93.13c-.85,0-1.71,0-2.56,0s-1.63.05-2.38.09-1.79-.38-2.37-.05a5.51,5.51,0,0,1-2.9.34c-5.38,0-10.77,0-16.15,0-.63,0-1.35-.26-1.92.24a.85.85,0,0,1-.67.13,6.2,6.2,0,0,0-4.73,0,1.84,1.84,0,0,1-1,0,15.23,15.23,0,0,0-6.55,0c-.26,0-.59-.18-.87-.16s-.65.17-1,.21a3.17,3.17,0,0,1-1,0c-.6-.14-1.24-.72-1.79-.34-.78.54-1.23-.26-2-.1a6.16,6.16,0,0,1-2.53,0c-.76-.15-1.25.34-2,.25s-1.4.2-2.05-.21a.27.27,0,0,0-.23,0c-.69.6-1.44.39-2.28.2-.66-.14-1.43,0-2.09-.1a8.51,8.51,0,0,1-2.55-.52c-.72-.41-1.54.63-2.35,0-1.22.7-2.61.27-3.92.32-.45,0-.78-.65-1.49-.16-.24.16-1-.17-1.46-.2-.76,0-1.54,0-2.31,0s-1.75-.23-2.25,0c-.81.47-1.35-.23-1.92,0a2.65,2.65,0,0,1-1.9,0c-.53.63-1.13-.21-1.61,0-1.58.78-3.29.19-4.92.39-.83-.74-1.58-.08-2.36.08A14.36,14.36,0,0,1,3,44.46L.44,41.24A1.19,1.19,0,0,0,.56,41a6.09,6.09,0,0,0,.2-2.52c-.31-.91.28-1.67.11-2.52S.92,34,.81,33.08s.54-1.76-.49-2.47c.27-.82,1.07-1.64.06-2.48a3.21,3.21,0,0,0,0-3.55c1-.71,0-1.38-.06-2.07,1.26-.7-.43-1.37,0-2.11.19-.36-.76-.84,0-1.27C.43,17.7,0,16.22.83,14.85c-.82-.7.28-1.36.06-2.11S1,11,.78,10.13c-.11-.5.85-.78.18-1.35-.48-.4.18-1.14-.54-1.65C.16,6.94.13,6.14.36,6c.69-.4-.11-.92.39-1.42s.1-1.29.08-2A2.89,2.89,0,0,1,2.32.28.77.77,0,0,1,2.84.21C3.41.8,4.05,0,4.23.14,5,.82,5.4,0,5.94,0c1,.09,2-.32,2.91.35.39.29,1.22-.06,1.89.29C11.1.86,12,.31,12.46.47a14,14,0,0,0,4.17.37c.51,0,1.22.4,1.48.25A2,2,0,0,1,19.77.87c.78.3,1.73.64,2.32.3.9-.52,1.45.44,2.2.08A3.28,3.28,0,0,1,25.64.92c.43,0,.86.3,1.29.29S28.14.79,28.21.86c.71.78,1.66,0,2.53.29A3.9,3.9,0,0,0,33.87.92a2.22,2.22,0,0,1,1.35.16A1.49,1.49,0,0,0,36.81,1c.16-.11.58-.21.66-.14,1,.8,2.27.24,3.4.37A2.85,2.85,0,0,0,42.54,1c.37-.18,1.15.23,1.74.23s1.53-.44,2-.24a1.74,1.74,0,0,0,2-.12.85.85,0,0,1,.66.12c.57.51,1.45,0,1.89.3.76.54,1.26-.26,1.93-.06s1.37.47,1.75.29c1.77-.84,3.88.4,5.55-.67.63.69,1.59.45,2.34.36s1.56.64,2.37.1c.26.75.8-.25,1.32.15.37.28,1.26.19,1.92.18.5,0,1.25-.35,1.45-.19.8.61,1.16-.3,1.76-.2s1,.17,1.43.2c.8.06,1.6.09,2.41.1.18,0,.48-.21.52-.17.64.56,1.46.17,2.18.27a3.63,3.63,0,0,0,2.1-.4c.6-.29,1.12.57,1.92.05.46-.3,1.41,0,2.07-.44s1.23.69,1.86,0c.37.62,1.12.13,1.71.32s1.77-.17,2.66-.1c.55,0,1.06-.23,1.66,0a4,4,0,0,0,1.71.13C94,1.18,94.73.77,95,.93a2.83,2.83,0,0,0,1.65.31,17.78,17.78,0,0,0,1.79,0c.21,0,.37-.29.59-.33.61-.11,1.21-.65,1.85-.06a60.57,60.57,0,0,1,9.46.51c.49.6,1,1.24,1.51,1.88.08.1.27.27.26.27-1.06.74-.24,1.76-.63,2.64-.28.63-.79,1.56-.27,2.15s.34,1.26.43,1.89c.06.33-.06.69.05,1,.17.48.59.92.67,1.39a7,7,0,0,1-.19,1.56c0,.61,0,1.22,0,1.82s-.27,1.25.06,1.59c.62.62-.34,1-.07,1.52.13.23,0,.58.2.74.47.38.24.6,0,1s0,1,0,1.48c0,.31.24.61.27.92.06.72-.23,1.5.8,2,.08,0,.13.24.09.27a1.15,1.15,0,0,0-.29,1.67c.59.7-.3,1.16-.09,1.73s-.22.94.41,1.3a.45.45,0,0,1,0,.52C113.18,31,112.88,31.29,113.45,31.64Z"/></g><g id="レイヤー_2" data-name="レイヤー 2"><g id="I47oLW"><path class="cls-3" d="M144.07,23.36c-.19,0-.41,0-.62,0-1,0-1.45-.3-1.71-1.19-.11-.36,0-.89-.16-1.12-.43-.47.33-.58.18-1s.41-1,.25-1.18c-.42-.48.08-.77,0-1.13a5.75,5.75,0,0,1,.56-2.35,2.9,2.9,0,0,0,0-.93c0-.12-.1-.33-.06-.35.71-.48.5-1.2.54-1.86s.59-1.22,1.22-.88,1.76.2,2.38.94c.33.4.57-.59,1-.08.2.27.63.74.7.7.62-.38.81.18,1.12.45a5.24,5.24,0,0,1,1,1,2.39,2.39,0,0,1,.61,1.65c-.06.45.14,1-.05,1.35-.27.52.59.78.12,1.34-.23.28-.1.88-.07,1.33,0,.25.31.51.27.72s-.37.39-.5.62-.07.43-.13.64c-.15.45-.2,1.08-.53,1.3a11,11,0,0,1-2.23.95,8.26,8.26,0,0,0,0,1.31,1.94,1.94,0,0,0,1.83,1.25c1-.17,1.1-.14,2,.58-.24.18-.46.34-.67.52-.39.32-.75.86-1.16.92a3.44,3.44,0,0,1-1.89-.37c-.29-.15-.3-.76-.94-.66-.16,0-.41-.54-.61-.84a7,7,0,0,1-.62-.95,5.81,5.81,0,0,1-.21-1c-.23.32-.53.54-.53.76a3.2,3.2,0,0,1-1.4,2.69c-.11.07-.11.29-.17.44l-.12-.1a3.15,3.15,0,0,1-.73-.54.82.82,0,0,1,0-.67c.49-1.23.52-2.64,1.36-3.74C144.17,23.75,144.1,23.6,144.07,23.36Zm-.73-1.69a9.21,9.21,0,0,1,4.21.63,1,1,0,0,0,1.23-.31c.08-.13.22-.36.17-.42-.42-.52-.76-1.13-1.47-1.3-.42-.1-.88-.1-1.3-.21s-.77-.36-1.18-.48a10.36,10.36,0,0,0-1.12-.21Zm.38-4.66,1.2.84c.64-.68.87.51,1.28.32,1-.46,1.49.39,2.2.68.2.07.34.29.54.36s.36-.2.35-.21c-.2-.4-.12-1.07-.69-1.12a1.81,1.81,0,0,1-1-.51c-.34-.24-1-.62-1.1-.52-.75.74-1.23,0-1.71-.28S144.12,16.77,143.72,17Zm5.36-1.28a5.45,5.45,0,0,0-3.42-2c-.33-.63-.61.06-.92.05s-.28.42-.24.65.25.31.41.34a5,5,0,0,0,1.89.32c.81-.16,1,.5,1.57.72C148.51,15.83,148.69,15.76,149.08,15.73Z"/><path class="cls-3" d="M40,24.77c-.38.45-.68,1.13-1.15,1.29s-.17.93-.88.79c-.35-.07-.79.27-1.18.44s-1.1-.46-1.46-.1-.83,0-1.11-.07a2.21,2.21,0,0,1-1.14-1,9.6,9.6,0,0,1-1.31-2.39c0-.15-.23-.38-.18-.42.68-.77.53-1.86,1-2.69.07-.13.19-.36.24-.35.64.15.87-.53,1.3-.63A2.39,2.39,0,0,0,35.4,19s.32.2.49.21a11.26,11.26,0,0,1,2.63.28c.5.15-.17-.31-.06-.46.52-.78-.47-1.16-.48-1.79a2.24,2.24,0,0,0-.46-.09c-.42-.08-.94.36-1,.3-1.38-.86-2.71.35-4.06.05a1,1,0,0,0-1.18.45c-.33.71-.87-.36-1.21.16,0,0-.23-.07-.23-.1a12.47,12.47,0,0,1,.13-1.5,1,1,0,0,1,.37-.69c.34-.17.94-.4,1.13-.24.47.39.66,0,1-.09s.6.24.9.26a4.76,4.76,0,0,0,1-.15c.68-.11,1.31-.58,2.07-.2.17.09.51-.1.75-.22s.19-.41,0-.6c.36-.27.21-.73.36-1,.32-.67,1-.61,1.69-.44a4.75,4.75,0,0,0,0,1c.2.83.51,1,1.39,1,.43,0,.79-.53,1.3-.07.13.11.82-.24,1.1-.52.57-.55.75.49,1.2.22,0,.3.21.69.09.9-.24.42-.42.91-1.16.86a8.43,8.43,0,0,0-2.42.38c-.14,0-.56.2-.26.73a3.29,3.29,0,0,1,.11,1.83c-.06.5.49.92.06,1.47-.13.17.12.73.32,1,1,1.51.81,3.43,1.67,5-.73.66.21,1.26.08,1.94a1.83,1.83,0,0,1-1.12,1.58.71.71,0,0,1-.57,0c-.25-.18-.67-.45-.32-.8.52-.52-.44-.79-.13-1.33.22-.38-.14-1,.36-1.38l-.63-.36C41,26,39.87,25.44,40,24.77Zm-3.8.67c.63.27,1-.31,1.46-.73.21-.19,0-.75.54-.66,0,0,.64-1.87.62-1.9a1.81,1.81,0,0,0-.24-.24,8.45,8.45,0,0,0-1.84-.9,2.82,2.82,0,0,0-2.39.76c-.72.58-.95,1.17-.37,2,.08.11,0,.34,0,.51,0,.35.13.41.45.52A7.55,7.55,0,0,0,36.15,25.44Z"/><path class="cls-3" d="M137.72,16.85l-1,1c-.27-.86-.9.18-1.35-.25-.26-.25-.82-.24-1.25-.26s-.76.27-1,.14a4.77,4.77,0,0,0-2.44-.31,3,3,0,0,1,.32.66,2.21,2.21,0,0,1,0,.85,1.68,1.68,0,0,0,.37,1.23,1.13,1.13,0,0,0,.41.34c.41-.44.95-.23,1.42-.35a8.2,8.2,0,0,0,1.45-.66c.35.56.93.25,1.47.38v1.71c-1-.53-1.78.14-2.66.44.62.77,1.25,1.52,1.85,2.28a1.32,1.32,0,0,1-.37,1.72.76.76,0,0,1-1-.38c-.39-1-1.36-1.48-1.92-2.29-1.12.1-1.07,1.19-1.6,1.77-.08.09,0,.4.11.57.32.73.71.9,2,1.08a3.11,3.11,0,0,1,.84.41,2.67,2.67,0,0,0,.59.23c.73.07,1.23.34,1.2.69a1.61,1.61,0,0,1-1.53,1c-.31-.05-.59-.26-.9-.33-.69-.14-1.4-.22-2.1-.36-.94-.18-1.15-1.31-2-1.62-.07,0-.08-.47,0-.65.53-1.05.29-2.37,1.21-3.31.21-.22.11-.84,0-1.24a5.71,5.71,0,0,0-.56-1.49,2.44,2.44,0,0,1-.05-2.5c.21-.4,0-.64-.48-.53-.1,0-.17.16-.25.24-.65-.89-2.13-.24-2.58-1.5.93-.78,2.13-.39,3.28-.51.15-.64.26-1.27.45-1.88a1,1,0,0,1,1.15-.5.9.9,0,0,1,.58.85c0,1.84,0,1.78,1.83,1.92a17,17,0,0,1,2.7.53C137.11,16.28,137.21,16.24,137.72,16.85Z"/><path class="cls-3" d="M160.65,23.88c0-.88.32-1.65-.16-2.25a4.65,4.65,0,0,0-3.09-2.05c-.57,0-1.15,0-1.7,0-.58-.75.06-1.41.23-2a2.09,2.09,0,0,1,1.17-1.35c.69-.18.5-.92,1.06-1.12a9.57,9.57,0,0,0,1.55-1,5.73,5.73,0,0,0-1.37,0c-.88.31-1.25-.61-2-.74-.28-.05-.24-.75,0-1a1.72,1.72,0,0,1,2.48-.23,3.69,3.69,0,0,0,.75.26c.8.28,1.55.6,1.51,1.65,0,.12.16.29.11.35-.46.76-.77,1.63-1.66,2-.34.16-.94.47-.91.59.15.71-.9.34-.74.9s.75.21,1.13.33a13.19,13.19,0,0,1,2.5,1.42,6.94,6.94,0,0,1,.26.92c.17.44.38.87.57,1.3-.58.49.15.93.07,1.45a8.54,8.54,0,0,1-.46,2.06,3.76,3.76,0,0,1-5.16,2.13,3.18,3.18,0,0,1-1.82-2.07,2.7,2.7,0,0,1,.51-1.68,1.45,1.45,0,0,1,1-.67,12.64,12.64,0,0,1,2.75,0C159.71,23.11,160.09,23.53,160.65,23.88Zm-1,1.74a1.84,1.84,0,0,0-2.49-.69c.23.44.34,1,.65,1.15C158.45,26.36,159.07,25.94,159.65,25.62Z"/><path class="cls-3" d="M74.85,19.31c.65.49,1.24,1,1.88,1.41s1.27.52,1.09,1.43c-.06.29,1.13,0,.4.76-.12.13.11.76.35,1,.41.4.19.85.28,1.27s.28.7.33,1.07-.06.92,0,1.37c.12.63-.47.48-.69.72s-.59.18-.83-.1-.68-.47-.27-1c.15-.21-.21-.78-.3-1.2-.13-.58.26-1.26-.32-1.76.15-.9-.74-1.29-1-2,0-.08-.29-.19-.34-.15a2.91,2.91,0,0,0-.36.47c.64.41,0,.75-.07,1.12-.14.57-1,.85-.71,1.59a7.12,7.12,0,0,1-3.59,2.15c-.29.11-.83-.16-1.14-.4a4,4,0,0,1-1.1-1.26,3.63,3.63,0,0,1,.34-3.5c.2-.28.61-.4.86-.66.41-.42.68-1,1.16-1.31a3.68,3.68,0,0,1,1.73-.36c.38,0,.57-.8,1-.25s.5-.28.81-.14C74.49,19.59,74.68,19.41,74.85,19.31Zm-4.59,6.06a2,2,0,0,0,2.42-1.22c.49-.87,1.34-1.69.78-3-.66.38-1.06,1.05-1.8.94C70.7,22.94,69.93,23.87,70.26,25.37Z"/><path class="cls-3" d="M98.93,21.49c-.05,1-.23,1.74.5,2.29.16.12.09.52.14.79a1.4,1.4,0,0,0,1.2,1.18,1.55,1.55,0,0,1,1.19.49,1.33,1.33,0,0,0,1.58.15c.62-.42,1.2-.12,1.74-.3a1.33,1.33,0,0,1-.59,1.94c-.49.3-1.07.92-1.75.25a7.2,7.2,0,0,1-4.11-1.47c-.09-.06-.26-.1-.27-.15-.08-1.35-1.13-2.29-1.44-3.55a6.94,6.94,0,0,0-.3-1.48c-.26-.56.4-1,.32-1.57-.19-1.35.73-2.35,1-3.54.1-.41.29-.38.58-.4a1,1,0,0,1,1,.4.33.33,0,0,1,0,.24c-.28.86-.57,1.72-.85,2.58-.1.3,0,.71.29.54.7-.35,1.3.16,2,.07a15.87,15.87,0,0,1,2.17.12,1.26,1.26,0,0,0,.93-.27c.56-.7.87.32,1.33.13.05.32.23.69.12.95s-.53.76-.72.72c-.68-.17-1.29.79-2,.06-.09-.09-.49.12-.75.19s-.39.18-.45.12C101,21.22,100,21.94,98.93,21.49Z"/><path class="cls-3" d="M87.93,26.76c1.06.26,2-.3,3-.48,1.69-.3,3.33-1,5.13-.83-.34,1.32-1.37,1.79-2.4,2.25-.35.15-.59-.27-1.11,0a16.54,16.54,0,0,1-3.25.87,5.63,5.63,0,0,0-.89.34,1.47,1.47,0,0,1-1.69-.57,4.68,4.68,0,0,1-1-3.38c-.76-1.24,0-2.74-.67-4-.29-.51.12-1.12.4-1.52a1.81,1.81,0,0,0,.26-1.27c0-.29-.28-.81-.24-.83a8.61,8.61,0,0,1,1.35-.47c.14,0,.56.76.5,1-.49,1.85-.08,3.73-.22,5.58C87.74,24.42,87.52,25.64,87.93,26.76Z"/><path class="cls-3" d="M64.3,20.76c-1-.37-1.86-.72-2.76-1-.25-.09-.66-.24-.78-.13-.59.57-.76.05-.9-.33a.84.84,0,0,1,.59-1.05,4.9,4.9,0,0,1,2,.09c.54.23.89.36,1.33-.07.07-.07.43,0,.43.06.1,1,1.13.69,1.58,1.19.26.3.88.54.88.79a2.27,2.27,0,0,1-.59,1.44c-.49.47-.77,1.11-1.39,1.51-.38.25-.5.91-.73,1.39-.1.23-.18.47-.29.73.66.47,1.06,1.26,1.91,1.58.34.13.55.36.86,0,0,0,.29,0,.35.12.25.4.47.83.7,1.25a3,3,0,0,1-4.08-.48,5.76,5.76,0,0,0-.92-.68c-.08-.06-.21-.1-.25-.19a7.1,7.1,0,0,1,.34-4.44.46.46,0,0,1,.26-.18c.56-.11.92-.31.48-.92Z"/><path class="cls-3" d="M45.61,26.23a9.86,9.86,0,0,0,1.12-2.5.78.78,0,0,1,.22-.42c.43-.44.9-.82.87-1.54,0-.32.94-.41.3-1,0,0,.05-.11.09-.11.63-.15,1.26-.3,1.9-.41.12,0,.38.11.39.2.14,1,.9,1.59,1.34,2.38A11,11,0,0,0,53.72,25a2.83,2.83,0,0,1,.82,2.95c-.57-.28-1.1-.52-1.61-.78-.13-.06-.33-.19-.32-.28.09-.83-.83-1-1.07-1.6s-.75-.84-.92-1.34-.42-.54-.74-.7.12-.7-.35-.38c-.25.17-.85,0-.76.68.13.92-.81,1.49-.93,2.35-.06.42-1.23.37-.44,1.09-.25.06-.58.25-.75.16A6.09,6.09,0,0,1,45.61,26.23Z"/><path class="cls-3" d="M109.2,27.39c.16-.18.35-.29.37-.43.1-.73.58-.87,1.2-.84a1.75,1.75,0,0,0,1.68-.57c.34-.44.18-.86.25-1.28-.12,0-.26-.09-.33-.05-.39.23-.9-.6-1.21.16-.64-.71-.7.35-1.11.36a.91.91,0,0,0-.33.05c-.32.14-.79,0-.81-.26,0-.46,0-.91,0-1.42a5,5,0,0,0,1.86-.48,2.25,2.25,0,0,1,1.61-.28,2.43,2.43,0,0,1,2,2.08,3,3,0,0,0,0,.85c.13.36.07,1.24.86.49.47-.44.83.68,1.3.08.08.09.2.17.23.27.26.83-.37,1.24-.84,1.71-.31-.6-.67.16-.9,0a1.39,1.39,0,0,0-1.65,0,2.13,2.13,0,0,1-1.44-.17.6.6,0,0,0-.73.07c-.24.2-.59.5-.82.45A5.27,5.27,0,0,1,109.2,27.39Z"/><path class="cls-3" d="M118,23.25c-.06.07,0-.15.18-.22.54-.26,1.15-.66,1.69-.25s1.11.11,1.63.25.64-.53,1.13-.05c.24.23.88.05,1.34,0a.78.78,0,0,1,.83.67c.11.42,0,.78-.55.77,0,.78-.64.74-1.07.6s-1-.15-1.49-.27a1.4,1.4,0,0,0-1.56.29c-.36-.69-1.12-.15-1.68-.55S117.8,24,118,23.25Z"/><path class="cls-3" d="M109.26,18.89c-.05-.82.29-1.23.16-1.72,0-.18.17-.41.15-.6s-.28-.5-.23-.68.48-.22.57-.41c.21-.41.39-.9.92-.67a1.23,1.23,0,0,1,.68,1.63c-.14.4-.35.77-.47,1.18-.07.25-.13.68,0,.77.81.62-.42,1.07-.11,1.66.09.16-.73.35-1,.05A9.34,9.34,0,0,1,109.26,18.89Z"/><path class="cls-3" d="M107,20.59c-.91-2-.91-2-.8-4.69,1-.06,1.61.35,1.68,1.24a2.19,2.19,0,0,0,.3,1.27c.23.33-.06,1,.36,1.36l-1.3.62A1.11,1.11,0,0,0,107,20.59Z"/><path class="cls-3" d="M54.89,22.09c-.63-.52-1.15-.91-1.63-1.35A1.08,1.08,0,0,1,53,20a1.74,1.74,0,0,0-.64-1.64c-.14-.1-.06-.5-.09-.78.61,0,1.25-.16,1.66.07s.19.93.45,1.29A3.64,3.64,0,0,1,54.89,22.09Z"/><path class="cls-3" d="M57.46,21.29c-.45,0-.79.09-.88,0-.61-.74-1.38-1.43-1.23-2.54,0-.11,0-.26,0-.34a6.87,6.87,0,0,1,1-1.21c.22-.19.5.66.83,1.46A11,11,0,0,1,57.46,21.29Z"/><path class="cls-3" d="M131.55,12.71l.11.1a1.06,1.06,0,0,1-.16.21l-.15-.15Z"/></g></g></svg>