<svg xmlns="http://www.w3.org/2000/svg" viewBox="0 0 196.32 46.24"><defs><style>.cls-1{fill:none;stroke:#231815;stroke-linecap:round;stroke-linejoin:round;stroke-width:5px;}.cls-2{fill:#fff;}.cls-3{fill:#231815;}</style></defs><g id="レイヤー_1" data-name="レイヤー 1"><path class="cls-1" d="M90.28,14c.38-.3-.24-.46,0-.9a3.76,3.76,0,0,0,.11-2.52,6.84,6.84,0,0,0-.59-1.43c-.49-.77.35-1.19.27-1.81a2.54,2.54,0,0,0-.15-.94A6.59,6.59,0,0,1,89.21,3,2.66,2.66,0,0,0,86.11.65c-.4.7-.86-.44-1.27,0S83.7.9,83.13,1c-.39.07-1-.06-1.14.16-.49.63-.93-.2-1.3,0a1,1,0,0,1-1.41-.11.53.53,0,0,0-.53,0c-.44.51-.79.36-1.14-.08-.32.45-.78.4-1.25.39-.75,0-1.5,0-2.25,0s-1.36,0-2,0-1.3,0-1.9-.09-1.42.38-1.88.05A3.58,3.58,0,0,0,66,1C61.7,1,57.42,1,53.14,1c-.51,0-1.08.26-1.54-.24a.55.55,0,0,0-.53-.13,4,4,0,0,1-3.76,0,1.18,1.18,0,0,0-.78,0,9.74,9.74,0,0,1-5.22,0c-.2-.05-.46.18-.69.16a7.51,7.51,0,0,1-.78-.21,2,2,0,0,0-.81,0c-.48.15-1,.72-1.43.34-.62-.54-1,.26-1.55.1a4,4,0,0,0-2,0c-.6.15-1-.34-1.58-.25S31.33.59,30.82,1a.17.17,0,0,1-.18,0c-.55-.6-1.15-.39-1.82-.2s-1.14,0-1.66.1a5.64,5.64,0,0,0-2,.52c-.58.41-1.22-.63-1.87,0-1-.7-2.08-.27-3.12-.32-.36,0-.62.65-1.19.16-.18-.16-.75.17-1.16.2-.6,0-1.22,0-1.83,0s-1.4.23-1.8,0c-.64-.47-1.07.23-1.53,0a1.68,1.68,0,0,0-1.5,0c-.43-.63-.91.21-1.28,0C8.59.61,7.22,1.2,5.93,1c-.66.74-1.26.08-1.88-.08a9.19,9.19,0,0,0-1.68.21l-2,3.22a1.61,1.61,0,0,1,.09.29A7.27,7.27,0,0,1,.6,7.16c-.24.91.23,1.67.1,2.52s0,1.89-.06,2.83S1.08,14.27.26,15c.21.82.85,1.64,0,2.48A3.9,3.9,0,0,1,.31,21c.8.71,0,1.38,0,2.07,1,.7-.35,1.37,0,2.11.15.36-.61.84,0,1.27.08,1.43-.29,2.91.4,4.29-.65.69.23,1.35,0,2.1s.06,1.76-.09,2.61c-.09.5.67.78.14,1.35-.38.4.15,1.14-.42,1.65a1.15,1.15,0,0,0-.05,1.12C.84,40,.2,40.5.6,41s.08,1.29.06,2a3,3,0,0,0,1.19,2.34c.09.08.37.12.41.07.45-.59,1,.25,1.11.07.58-.68.93.15,1.36.1.76-.09,1.57.32,2.31-.35.32-.28,1,.06,1.51-.29.29-.18,1,.37,1.37.21a8.89,8.89,0,0,1,3.31-.37c.41,0,1-.4,1.18-.24a1.35,1.35,0,0,0,1.32.21c.62-.3,1.38-.64,1.85-.3.71.52,1.15-.44,1.75-.08a2.17,2.17,0,0,0,1.07.33c.34,0,.69-.3,1-.29s1,.43,1,.35c.56-.78,1.32,0,2-.29a2.56,2.56,0,0,1,2.5.23c.2.16.75,0,1.07-.16a1,1,0,0,1,1.26.09c.13.11.46.21.53.14.81-.8,1.81-.24,2.7-.37a1.88,1.88,0,0,1,1.34.23c.29.18.91-.23,1.38-.23s1.22.44,1.6.24c.65-.33,1.07-.37,1.58.12.08.08.43,0,.53-.12.45-.5,1.15,0,1.5-.3.6-.54,1,.26,1.53.06s1.1-.47,1.4-.29c1.4.84,3.09-.4,4.42.67.5-.69,1.26-.45,1.86-.36s1.24-.64,1.88-.1c.21-.75.64.25,1.06-.15s1-.19,1.52-.18,1,.35,1.16.19c.63-.61.92.3,1.39.2a11.34,11.34,0,0,1,1.14-.2c.64-.06,1.28-.09,1.92-.1.14,0,.39.21.42.17.51-.56,1.16-.17,1.73-.27a2.38,2.38,0,0,1,1.67.4c.48.29.89-.57,1.53-.05.36.3,1.12,0,1.65.44s1-.69,1.48,0c.29-.62.89-.13,1.36-.32s1.41.17,2.11.1c.44,0,.85.23,1.32,0a2.58,2.58,0,0,1,1.36-.13c.42,0,1,.45,1.2.29a1.84,1.84,0,0,1,1.32-.3,9.74,9.74,0,0,1,1.43,0c.16,0,.29.29.46.33.49.11,1,.65,1.48.06a38.61,38.61,0,0,0,7.53-.51L89,42.37c.06-.1.21-.27.2-.27-.84-.74-.19-1.76-.5-2.63-.22-.63-.63-1.57-.22-2.16s.27-1.26.35-1.89a6.59,6.59,0,0,1,0-1A11.94,11.94,0,0,0,89.38,33a8.32,8.32,0,0,0-.15-1.56c0-.61,0-1.21,0-1.82s-.22-1.25,0-1.59c.49-.62-.27-1,0-1.52.1-.23,0-.58.16-.74.37-.38.19-.6,0-1a3,3,0,0,1,0-1.48c0-.31.19-.61.21-.92,0-.72-.18-1.5.64-2,.06,0,.1-.24.06-.27a1.36,1.36,0,0,1-.23-1.67c.48-.7-.23-1.16-.07-1.73s-.17-.94.33-1.3a.53.53,0,0,0,0-.52C90.07,14.61,89.83,14.3,90.28,14Z"/><path class="cls-1" d="M53.35,31.64c-.39.3.23.46,0,.9a3.76,3.76,0,0,0-.11,2.52,6.34,6.34,0,0,0,.59,1.43c.49.77-.35,1.19-.28,1.81a2.35,2.35,0,0,0,.16.94,6.69,6.69,0,0,1,.68,3.38,2.66,2.66,0,0,0,3.09,2.32c.4-.7.87.44,1.28,0s1.14-.2,1.71-.3c.38-.07,1,.06,1.13-.16.5-.63.93.2,1.3,0a1,1,0,0,1,1.42.11.51.51,0,0,0,.52,0c.44-.5.79-.36,1.15.08.31-.45.78-.4,1.25-.39h2.24c.68,0,1.36,0,2,0s1.3.05,1.9.09,1.42-.38,1.88-.05a3.57,3.57,0,0,0,2.31.34c4.28,0,8.57,0,12.85,0,.5,0,1.08-.26,1.53.24a.57.57,0,0,0,.53.13,4,4,0,0,1,3.76,0,1.2,1.2,0,0,0,.79,0,9.7,9.7,0,0,1,5.21,0c.2,0,.47-.18.69-.16a7.69,7.69,0,0,1,.79.21,2,2,0,0,0,.81,0c.48-.15,1-.72,1.43-.34.62.54,1-.26,1.55-.1a3.91,3.91,0,0,0,2,0c.61-.15,1,.34,1.59.25s1.11.2,1.63-.21a.17.17,0,0,1,.18,0c.55.6,1.15.39,1.81.2s1.14,0,1.67-.1a5.64,5.64,0,0,0,2-.52c.57-.41,1.22.63,1.87,0,1,.7,2.07.27,3.11.32.36,0,.62-.65,1.19-.16.19.16.76-.17,1.16-.2.61,0,1.22,0,1.84,0s1.39-.23,1.79,0c.65.47,1.07-.23,1.53,0a1.7,1.7,0,0,0,1.51,0c.42.63.9-.21,1.28,0,1.26.78,2.62.19,3.92.39.66-.74,1.25-.08,1.87.08a9.19,9.19,0,0,0,1.68-.21l2-3.22a1.61,1.61,0,0,1-.09-.29,7.51,7.51,0,0,1-.16-2.52c.25-.91-.22-1.67-.09-2.52s0-1.89,0-2.83-.43-1.76.39-2.47c-.21-.82-.85-1.64-.05-2.48a3.9,3.9,0,0,1,0-3.55c-.81-.71,0-1.38.05-2.07-1-.7.35-1.37,0-2.11-.16-.36.6-.84,0-1.27-.09-1.43.28-2.91-.41-4.28.66-.7-.22-1.36,0-2.11s-.07-1.76.08-2.61c.09-.5-.67-.78-.14-1.35.38-.4-.14-1.14.43-1.65A1.15,1.15,0,0,0,143.34,6c-.55-.4.08-.92-.31-1.42s-.08-1.29-.06-2A3.07,3.07,0,0,0,141.78.28c-.09-.08-.37-.12-.41-.07-.46.59-1-.25-1.11-.07-.58.68-.93-.15-1.36-.1-.77.09-1.57-.32-2.32.35-.31.29-1-.06-1.5.29-.29.18-1-.37-1.37-.21a8.94,8.94,0,0,1-3.32.37c-.41,0-1,.4-1.18.25a1.33,1.33,0,0,0-1.32-.22c-.62.3-1.38.64-1.84.3-.72-.52-1.15.44-1.75.08a2.2,2.2,0,0,0-1.07-.33c-.35,0-.7.3-1,.29s-1-.43-1-.35c-.57.78-1.33,0-2,.29a2.56,2.56,0,0,1-2.5-.23c-.2-.15-.75,0-1.07.16A1,1,0,0,1,114.33,1c-.12-.11-.46-.21-.52-.14-.82.8-1.81.24-2.71.37A1.86,1.86,0,0,1,109.77,1c-.29-.18-.91.23-1.39.23s-1.21-.44-1.6-.24A1.17,1.17,0,0,1,105.2.86c-.07-.07-.42,0-.52.12-.45.51-1.15,0-1.5.3-.61.54-1-.26-1.54-.06s-1.09.47-1.39.29c-1.41-.84-3.09.4-4.42-.67-.5.69-1.27.45-1.86.36s-1.24.64-1.89.1c-.2.75-.64-.25-1,.15s-1,.19-1.53.18-1-.35-1.15-.19c-.63.61-.92-.3-1.4-.2a11.15,11.15,0,0,1-1.13.2c-.64.06-1.28.09-1.92.1-.15,0-.39-.21-.42-.17-.51.56-1.16.17-1.73.27a2.38,2.38,0,0,1-1.67-.4c-.48-.29-.89.57-1.54.05-.36-.3-1.11,0-1.64-.44s-1,.69-1.48,0c-.29.62-.89.13-1.36.32s-1.41-.17-2.12-.1c-.44,0-.84-.23-1.32,0a2.56,2.56,0,0,1-1.36.13c-.42,0-1-.45-1.2-.29a1.82,1.82,0,0,1-1.32.3,9.62,9.62,0,0,1-1.42,0c-.17,0-.3-.29-.47-.33-.48-.11-1-.65-1.47-.06a38.5,38.5,0,0,0-7.53.51c-.39.6-.79,1.24-1.2,1.88-.07.1-.21.27-.2.27.83.74.18,1.76.49,2.64.22.63.63,1.56.22,2.15s-.27,1.26-.35,1.89a8.23,8.23,0,0,1,0,1,12,12,0,0,0-.54,1.39,10.42,10.42,0,0,0,.15,1.56c0,.61,0,1.22,0,1.82s.22,1.25,0,1.59c-.49.62.27,1,.06,1.52-.1.23,0,.58-.16.74-.37.38-.19.6,0,1a3.25,3.25,0,0,1,0,1.48c0,.31-.19.61-.21.92,0,.72.18,1.5-.64,2a.32.32,0,0,0-.07.27,1.36,1.36,0,0,1,.23,1.67c-.47.7.24,1.16.07,1.73s.18.94-.32,1.3a.53.53,0,0,0,0,.52C53.56,31,53.8,31.29,53.35,31.64Z"/><path class="cls-1" d="M195.8,32.67c-.08-1.28.29-2.67-.11-3.81a8.13,8.13,0,0,1-.26-3.11c0-.43,0-.84,0-1.28a7.25,7.25,0,0,1,.26-3.11,23.63,23.63,0,0,0,.5-3.1c-.62-.44-.38-1.08-.41-1.66s.54-1,0-1.48a2.31,2.31,0,0,0,.33-2.42c-.42-.77.75-1.64-.32-2.19,0,0,.06-.36.14-.53a2.67,2.67,0,0,0,0-2.61.82.82,0,0,1-.06-.54c.09-.38.42-1,.3-1.1-.6-.51.35-1,0-1.28-.72-.54.42-.88.05-1.32,0-.27,0-.54,0-.81a.87.87,0,0,0-.86-.9c-1.58-.09-3.19.21-4.74-.39-.2-.07-.54.3-.84.37-.65.15-.34-.68-.66-.75-1-.17-2,.14-2.88-.46-.43.61-.82.43-1.31,0-.17-.13-.66,0-.91.17a.81.81,0,0,1-.87,0c-.36-.13-.79-.11-1.2-.21a1.49,1.49,0,0,0-1.33.21c-.29.21-.85-.65-1.25.08-.84-.36-1.63.22-2.49.11s-2.18.27-3-.12-1.52.72-2-.32a9.14,9.14,0,0,1-5.78,0,.4.4,0,0,0-.36.09c-.35.5-.87.32-1.31.29-.85,0-1.7,0-2.56-.14s-1.62.26-2.46-.21c-.26-.15-.92.29-1.12.13-.69-.55-1.36-.29-2.06-.16-1.15.2-2.41-.47-3.51.38-.09.07-.35-.09-.53-.14s-.74-.33-.9-.22a2,2,0,0,1-2,.31c-.64-.49-1.4.6-1.79-.33-.57.77-1.09-.35-1.72,0-.32.15-.77.65-1.3.06-.34-.38-.88.54-1.32.11-.66-.65-.81.47-1.42.32A9.91,9.91,0,0,0,139.23.6h-2.65a7.56,7.56,0,0,1-2.43,0c-.85-.31-1.61.43-2.32,0s-1.59,0-2.31.1c-.54.08-.93.36-1.59.11-.49-.2-1.23.3-1.78.17a5.17,5.17,0,0,0-1.92,0,46.82,46.82,0,0,1-5.3,0c-.56,0-1.85.64-1.9,1.17-.17,1.86-1,3.62-.86,5.53,0,.42.52.76.07,1.32-.27.33.05,1.08-.14,1.54a1.1,1.1,0,0,0,0,.74,28.72,28.72,0,0,1,.09,3.22c-.65.25.21.86-.28,1.17-.65.41-.32,1-.28,1.57a11.08,11.08,0,0,1,.14,1.14c0,.44-.22.87-.23,1.31s.32.8.19.95a1,1,0,0,0,0,1.58c.16.18.1.63,0,.92-.66,2.16-.32,4.35-.16,6.51a3.45,3.45,0,0,1,0,1.4c-.14.46.29,1.08.18,1.57a4,4,0,0,0,0,2,8.41,8.41,0,0,1,0,2v1.83a19.44,19.44,0,0,0,0,2,13.62,13.62,0,0,0,.39,1.65c-1,.32.31,1.15-.33,1.56-.1,1.27.78,1.87,2,1.72a26.37,26.37,0,0,1,5.18-.08c.47,0,1,.4,1.38,0,.66-.67.87.67,1.41.25,1-.76,2.06-.27,3.1-.37.74-.08,1.63.21,2.19-.12a2.72,2.72,0,0,1,2.11-.24,4.68,4.68,0,0,0,1.72-.07c.63-.06,1.33.25,1.9-.36.13-.14.62,0,.93.1s.62.3.67.24c.68-.82,1.3-.17,1.94,0,.34.11.85.41,1,.28a1.3,1.3,0,0,1,1.65-.13c.62.44.84-.38,1.39-.19a6.12,6.12,0,0,0,1.82,0c.61,0,1.22,0,1.83,0a7.53,7.53,0,0,1,2,.18c.61.21,1-.39,1.58-.23.42.11,1.09-.47,1.42-.3a3.23,3.23,0,0,0,1.5.35,5.47,5.47,0,0,1,1.62,0,1.49,1.49,0,0,0,1.32,0c.23-.12.66.45,1,0,.25.6,1-.41,1.16.33.42-.13.83-.29,1.26-.38.16,0,.36.09.54.14a4.63,4.63,0,0,0,.67.2c.39-.88,1,.18,1.44-.18.62-.5,1.07.07,1.6.22.25.07.67.13.79,0,.55-.6,1,0,1.52,0s1.35-.33,1.92.28c.08.1.38.09.53,0,1.75-.74,3.59-.14,5.37-.34.57.55,1.26-.24,1.67,0,.74.51,1.3.06,1.94,0a7.14,7.14,0,0,1,2.89.37,6.32,6.32,0,0,0,1.63,0h1.63c.54,0,1.09,0,1.63,0a7.68,7.68,0,0,1,1.36.19,2.81,2.81,0,0,0,1.23-.17,5.85,5.85,0,0,1,1.82,0,3.47,3.47,0,0,1,1.39.57c.46.33.89-.72,1.28,0,.64-.14,1.44,0,1.79-.67a1.67,1.67,0,0,0,.08-1.44,2.31,2.31,0,0,1-.25-1.33,7.38,7.38,0,0,1,0-1.41c.08-.49.34-1,.38-1.46.06-.87-.26-1.89.09-2.59s-.7-1.62.33-2.18a.49.49,0,0,0-.07-.35C195.44,34.15,195.84,33.37,195.8,32.67Z"/><path class="cls-2" d="M90.28,14c.38-.3-.24-.46,0-.9a3.76,3.76,0,0,0,.11-2.52,6.84,6.84,0,0,0-.59-1.43c-.49-.77.35-1.19.27-1.81a2.54,2.54,0,0,0-.15-.94A6.59,6.59,0,0,1,89.21,3,2.66,2.66,0,0,0,86.11.65c-.4.7-.86-.44-1.27,0S83.7.9,83.13,1c-.39.07-1-.06-1.14.16-.49.63-.93-.2-1.3,0a1,1,0,0,1-1.41-.11.53.53,0,0,0-.53,0c-.44.51-.79.36-1.14-.08-.32.45-.78.4-1.25.39-.75,0-1.5,0-2.25,0s-1.36,0-2,0-1.3,0-1.9-.09-1.42.38-1.88.05A3.58,3.58,0,0,0,66,1C61.7,1,57.42,1,53.14,1c-.51,0-1.08.26-1.54-.24a.55.55,0,0,0-.53-.13,4,4,0,0,1-3.76,0,1.18,1.18,0,0,0-.78,0,9.74,9.74,0,0,1-5.22,0c-.2-.05-.46.18-.69.16a7.51,7.51,0,0,1-.78-.21,2,2,0,0,0-.81,0c-.48.15-1,.72-1.43.34-.62-.54-1,.26-1.55.1a4,4,0,0,0-2,0c-.6.15-1-.34-1.58-.25S31.33.59,30.82,1a.17.17,0,0,1-.18,0c-.55-.6-1.15-.39-1.82-.2s-1.14,0-1.66.1a5.64,5.64,0,0,0-2,.52c-.58.41-1.22-.63-1.87,0-1-.7-2.08-.27-3.12-.32-.36,0-.62.65-1.19.16-.18-.16-.75.17-1.16.2-.6,0-1.22,0-1.83,0s-1.4.23-1.8,0c-.64-.47-1.07.23-1.53,0a1.68,1.68,0,0,0-1.5,0c-.43-.63-.91.21-1.28,0C8.59.61,7.22,1.2,5.93,1c-.66.74-1.26.08-1.88-.08a9.19,9.19,0,0,0-1.68.21l-2,3.22a1.61,1.61,0,0,1,.09.29A7.27,7.27,0,0,1,.6,7.16c-.24.91.23,1.67.1,2.52s0,1.89-.06,2.83S1.08,14.27.26,15c.21.82.85,1.64,0,2.48A3.9,3.9,0,0,1,.31,21c.8.71,0,1.38,0,2.07,1,.7-.35,1.37,0,2.11.15.36-.61.84,0,1.27.08,1.43-.29,2.91.4,4.29-.65.69.23,1.35,0,2.1s.06,1.76-.09,2.61c-.09.5.67.78.14,1.35-.38.4.15,1.14-.42,1.65a1.15,1.15,0,0,0-.05,1.12C.84,40,.2,40.5.6,41s.08,1.29.06,2a3,3,0,0,0,1.19,2.34c.09.08.37.12.41.07.45-.59,1,.25,1.11.07.58-.68.93.15,1.36.1.76-.09,1.57.32,2.31-.35.32-.28,1,.06,1.51-.29.29-.18,1,.37,1.37.21a8.89,8.89,0,0,1,3.31-.37c.41,0,1-.4,1.18-.24a1.35,1.35,0,0,0,1.32.21c.62-.3,1.38-.64,1.85-.3.71.52,1.15-.44,1.75-.08a2.17,2.17,0,0,0,1.07.33c.34,0,.69-.3,1-.29s1,.43,1,.35c.56-.78,1.32,0,2-.29a2.56,2.56,0,0,1,2.5.23c.2.16.75,0,1.07-.16a1,1,0,0,1,1.26.09c.13.11.46.21.53.14.81-.8,1.81-.24,2.7-.37a1.88,1.88,0,0,1,1.34.23c.29.18.91-.23,1.38-.23s1.22.44,1.6.24c.65-.33,1.07-.37,1.58.12.08.08.43,0,.53-.12.45-.5,1.15,0,1.5-.3.6-.54,1,.26,1.53.06s1.1-.47,1.4-.29c1.4.84,3.09-.4,4.42.67.5-.69,1.26-.45,1.86-.36s1.24-.64,1.88-.1c.21-.75.64.25,1.06-.15s1-.19,1.52-.18,1,.35,1.16.19c.63-.61.92.3,1.39.2a11.34,11.34,0,0,1,1.14-.2c.64-.06,1.28-.09,1.92-.1.14,0,.39.21.42.17.51-.56,1.16-.17,1.73-.27a2.38,2.38,0,0,1,1.67.4c.48.29.89-.57,1.53-.05.36.3,1.12,0,1.65.44s1-.69,1.48,0c.29-.62.89-.13,1.36-.32s1.41.17,2.11.1c.44,0,.85.23,1.32,0a2.58,2.58,0,0,1,1.36-.13c.42,0,1,.45,1.2.29a1.84,1.84,0,0,1,1.32-.3,9.74,9.74,0,0,1,1.43,0c.16,0,.29.29.46.33.49.11,1,.65,1.48.06a38.61,38.61,0,0,0,7.53-.51L89,42.37c.06-.1.21-.27.2-.27-.84-.74-.19-1.76-.5-2.63-.22-.63-.63-1.57-.22-2.16s.27-1.26.35-1.89a6.59,6.59,0,0,1,0-1A11.94,11.94,0,0,0,89.38,33a8.32,8.32,0,0,0-.15-1.56c0-.61,0-1.21,0-1.82s-.22-1.25,0-1.59c.49-.62-.27-1,0-1.52.1-.23,0-.58.16-.74.37-.38.19-.6,0-1a3,3,0,0,1,0-1.48c0-.31.19-.61.21-.92,0-.72-.18-1.5.64-2,.06,0,.1-.24.06-.27a1.36,1.36,0,0,1-.23-1.67c.48-.7-.23-1.16-.07-1.73s-.17-.94.33-1.3a.53.53,0,0,0,0-.52C90.07,14.61,89.83,14.3,90.28,14Z"/><path class="cls-2" d="M53.35,31.64c-.39.3.23.46,0,.9a3.76,3.76,0,0,0-.11,2.52,6.34,6.34,0,0,0,.59,1.43c.49.77-.35,1.19-.28,1.81a2.35,2.35,0,0,0,.16.94,6.69,6.69,0,0,1,.68,3.38,2.66,2.66,0,0,0,3.09,2.32c.4-.7.87.44,1.28,0s1.14-.2,1.71-.3c.38-.07,1,.06,1.13-.16.5-.63.93.2,1.3,0a1,1,0,0,1,1.42.11.51.51,0,0,0,.52,0c.44-.5.79-.36,1.15.08.31-.45.78-.4,1.25-.39h2.24c.68,0,1.36,0,2,0s1.3.05,1.9.09,1.42-.38,1.88-.05a3.57,3.57,0,0,0,2.31.34c4.28,0,8.57,0,12.85,0,.5,0,1.08-.26,1.53.24a.57.57,0,0,0,.53.13,4,4,0,0,1,3.76,0,1.2,1.2,0,0,0,.79,0,9.7,9.7,0,0,1,5.21,0c.2,0,.47-.18.69-.16a7.69,7.69,0,0,1,.79.21,2,2,0,0,0,.81,0c.48-.15,1-.72,1.43-.34.62.54,1-.26,1.55-.1a3.91,3.91,0,0,0,2,0c.61-.15,1,.34,1.59.25s1.11.2,1.63-.21a.17.17,0,0,1,.18,0c.55.6,1.15.39,1.81.2s1.14,0,1.67-.1a5.64,5.64,0,0,0,2-.52c.57-.41,1.22.63,1.87,0,1,.7,2.07.27,3.11.32.36,0,.62-.65,1.19-.16.19.16.76-.17,1.16-.2.61,0,1.22,0,1.84,0s1.39-.23,1.79,0c.65.47,1.07-.23,1.53,0a1.7,1.7,0,0,0,1.51,0c.42.63.9-.21,1.28,0,1.26.78,2.62.19,3.92.39.66-.74,1.25-.08,1.87.08a9.19,9.19,0,0,0,1.68-.21l2-3.22a1.61,1.61,0,0,1-.09-.29,7.51,7.51,0,0,1-.16-2.52c.25-.91-.22-1.67-.09-2.52s0-1.89,0-2.83-.43-1.76.39-2.47c-.21-.82-.85-1.64-.05-2.48a3.9,3.9,0,0,1,0-3.55c-.81-.71,0-1.38.05-2.07-1-.7.35-1.37,0-2.11-.16-.36.6-.84,0-1.27-.09-1.43.28-2.91-.41-4.28.66-.7-.22-1.36,0-2.11s-.07-1.76.08-2.61c.09-.5-.67-.78-.14-1.35.38-.4-.14-1.14.43-1.65A1.15,1.15,0,0,0,143.34,6c-.55-.4.08-.92-.31-1.42s-.08-1.29-.06-2A3.07,3.07,0,0,0,141.78.28c-.09-.08-.37-.12-.41-.07-.46.59-1-.25-1.11-.07-.58.68-.93-.15-1.36-.1-.77.09-1.57-.32-2.32.35-.31.29-1-.06-1.5.29-.29.18-1-.37-1.37-.21a8.94,8.94,0,0,1-3.32.37c-.41,0-1,.4-1.18.25a1.33,1.33,0,0,0-1.32-.22c-.62.3-1.38.64-1.84.3-.72-.52-1.15.44-1.75.08a2.2,2.2,0,0,0-1.07-.33c-.35,0-.7.3-1,.29s-1-.43-1-.35c-.57.78-1.33,0-2,.29a2.56,2.56,0,0,1-2.5-.23c-.2-.15-.75,0-1.07.16A1,1,0,0,1,114.33,1c-.12-.11-.46-.21-.52-.14-.82.8-1.81.24-2.71.37A1.86,1.86,0,0,1,109.77,1c-.29-.18-.91.23-1.39.23s-1.21-.44-1.6-.24A1.17,1.17,0,0,1,105.2.86c-.07-.07-.42,0-.52.12-.45.51-1.15,0-1.5.3-.61.54-1-.26-1.54-.06s-1.09.47-1.39.29c-1.41-.84-3.09.4-4.42-.67-.5.69-1.27.45-1.86.36s-1.24.64-1.89.1c-.2.75-.64-.25-1,.15s-1,.19-1.53.18-1-.35-1.15-.19c-.63.61-.92-.3-1.4-.2a11.15,11.15,0,0,1-1.13.2c-.64.06-1.28.09-1.92.1-.15,0-.39-.21-.42-.17-.51.56-1.16.17-1.73.27a2.38,2.38,0,0,1-1.67-.4c-.48-.29-.89.57-1.54.05-.36-.3-1.11,0-1.64-.44s-1,.69-1.48,0c-.29.62-.89.13-1.36.32s-1.41-.17-2.12-.1c-.44,0-.84-.23-1.32,0a2.56,2.56,0,0,1-1.36.13c-.42,0-1-.45-1.2-.29a1.82,1.82,0,0,1-1.32.3,9.62,9.62,0,0,1-1.42,0c-.17,0-.3-.29-.47-.33-.48-.11-1-.65-1.47-.06a38.5,38.5,0,0,0-7.53.51c-.39.6-.79,1.24-1.2,1.88-.07.1-.21.27-.2.27.83.74.18,1.76.49,2.64.22.63.63,1.56.22,2.15s-.27,1.26-.35,1.89a8.23,8.23,0,0,1,0,1,12,12,0,0,0-.54,1.39,10.42,10.42,0,0,0,.15,1.56c0,.61,0,1.22,0,1.82s.22,1.25,0,1.59c-.49.62.27,1,.06,1.52-.1.23,0,.58-.16.74-.37.38-.19.6,0,1a3.25,3.25,0,0,1,0,1.48c0,.31-.19.61-.21.92,0,.72.18,1.5-.64,2a.32.32,0,0,0-.07.27,1.36,1.36,0,0,1,.23,1.67c-.47.7.24,1.16.07,1.73s.18.94-.32,1.3a.53.53,0,0,0,0,.52C53.56,31,53.8,31.29,53.35,31.64Z"/><path class="cls-2" d="M195.8,32.67c-.08-1.28.29-2.67-.11-3.81a8.13,8.13,0,0,1-.26-3.11c0-.43,0-.84,0-1.28a7.25,7.25,0,0,1,.26-3.11,23.63,23.63,0,0,0,.5-3.1c-.62-.44-.38-1.08-.41-1.66s.54-1,0-1.48a2.31,2.31,0,0,0,.33-2.42c-.42-.77.75-1.64-.32-2.19,0,0,.06-.36.14-.53a2.67,2.67,0,0,0,0-2.61.82.82,0,0,1-.06-.54c.09-.38.42-1,.3-1.1-.6-.51.35-1,0-1.28-.72-.54.42-.88.05-1.32,0-.27,0-.54,0-.81a.87.87,0,0,0-.86-.9c-1.58-.09-3.19.21-4.74-.39-.2-.07-.54.3-.84.37-.65.15-.34-.68-.66-.75-1-.17-2,.14-2.88-.46-.43.61-.82.43-1.31,0-.17-.13-.66,0-.91.17a.81.81,0,0,1-.87,0c-.36-.13-.79-.11-1.2-.21a1.49,1.49,0,0,0-1.33.21c-.29.21-.85-.65-1.25.08-.84-.36-1.63.22-2.49.11s-2.18.27-3-.12-1.52.72-2-.32a9.14,9.14,0,0,1-5.78,0,.4.4,0,0,0-.36.09c-.35.5-.87.32-1.31.29-.85,0-1.7,0-2.56-.14s-1.62.26-2.46-.21c-.26-.15-.92.29-1.12.13-.69-.55-1.36-.29-2.06-.16-1.15.2-2.41-.47-3.51.38-.09.07-.35-.09-.53-.14s-.74-.33-.9-.22a2,2,0,0,1-2,.31c-.64-.49-1.4.6-1.79-.33-.57.77-1.09-.35-1.72,0-.32.15-.77.65-1.3.06-.34-.38-.88.54-1.32.11-.66-.65-.81.47-1.42.32A9.91,9.91,0,0,0,139.23.6h-2.65a7.56,7.56,0,0,1-2.43,0c-.85-.31-1.61.43-2.32,0s-1.59,0-2.31.1c-.54.08-.93.36-1.59.11-.49-.2-1.23.3-1.78.17a5.17,5.17,0,0,0-1.92,0,46.82,46.82,0,0,1-5.3,0c-.56,0-1.85.64-1.9,1.17-.17,1.86-1,3.62-.86,5.53,0,.42.52.76.07,1.32-.27.33.05,1.08-.14,1.54a1.1,1.1,0,0,0,0,.74,28.72,28.72,0,0,1,.09,3.22c-.65.25.21.86-.28,1.17-.65.41-.32,1-.28,1.57a11.08,11.08,0,0,1,.14,1.14c0,.44-.22.87-.23,1.31s.32.8.19.95a1,1,0,0,0,0,1.58c.16.18.1.63,0,.92-.66,2.16-.32,4.35-.16,6.51a3.45,3.45,0,0,1,0,1.4c-.14.46.29,1.08.18,1.57a4,4,0,0,0,0,2,8.41,8.41,0,0,1,0,2v1.83a19.44,19.44,0,0,0,0,2,13.62,13.62,0,0,0,.39,1.65c-1,.32.31,1.15-.33,1.56-.1,1.27.78,1.87,2,1.72a26.37,26.37,0,0,1,5.18-.08c.47,0,1,.4,1.38,0,.66-.67.87.67,1.41.25,1-.76,2.06-.27,3.1-.37.74-.08,1.63.21,2.19-.12a2.72,2.72,0,0,1,2.11-.24,4.68,4.68,0,0,0,1.72-.07c.63-.06,1.33.25,1.9-.36.13-.14.62,0,.93.1s.62.3.67.24c.68-.82,1.3-.17,1.94,0,.34.11.85.41,1,.28a1.3,1.3,0,0,1,1.65-.13c.62.44.84-.38,1.39-.19a6.12,6.12,0,0,0,1.82,0c.61,0,1.22,0,1.83,0a7.53,7.53,0,0,1,2,.18c.61.21,1-.39,1.58-.23.42.11,1.09-.47,1.42-.3a3.23,3.23,0,0,0,1.5.35,5.47,5.47,0,0,1,1.62,0,1.49,1.49,0,0,0,1.32,0c.23-.12.66.45,1,0,.25.6,1-.41,1.16.33.42-.13.83-.29,1.26-.38.16,0,.36.09.54.14a4.63,4.63,0,0,0,.67.2c.39-.88,1,.18,1.44-.18.62-.5,1.07.07,1.6.22.25.07.67.13.79,0,.55-.6,1,0,1.52,0s1.35-.33,1.92.28c.08.1.38.09.53,0,1.75-.74,3.59-.14,5.37-.34.57.55,1.26-.24,1.67,0,.74.51,1.3.06,1.94,0a7.14,7.14,0,0,1,2.89.37,6.32,6.32,0,0,0,1.63,0h1.63c.54,0,1.09,0,1.63,0a7.68,7.68,0,0,1,1.36.19,2.81,2.81,0,0,0,1.23-.17,5.85,5.85,0,0,1,1.82,0,3.47,3.47,0,0,1,1.39.57c.46.33.89-.72,1.28,0,.64-.14,1.44,0,1.79-.67a1.67,1.67,0,0,0,.08-1.44,2.31,2.31,0,0,1-.25-1.33,7.38,7.38,0,0,1,0-1.41c.08-.49.34-1,.38-1.46.06-.87-.26-1.89.09-2.59s-.7-1.62.33-2.18a.49.49,0,0,0-.07-.35C195.44,34.15,195.84,33.37,195.8,32.67Z"/></g><g id="レイヤー_2" data-name="レイヤー 2"><g id="Ek4BEV"><path class="cls-3" d="M121.43,27.5,121.07,26c.73-.3-.54-1,.26-1.37.19-.1.11-.86.06-1.3A1.43,1.43,0,0,1,122,22c.43-.37.7-.57.88.22.06.23.61.41,1,.49s.66.18.73-.4c0-.28.4-.52.7-.87-.18-.15-.4-.33-.62-.49a1.62,1.62,0,0,0-.35-.18c-.42.64-1.12-.4-1.52.24-.48-.57-1,.15-1.45,0s-.46.17-.64.51a8.23,8.23,0,0,0-1,3.2,19.86,19.86,0,0,0-.33,2.79,1.57,1.57,0,0,1-.35.87c0,.08-.44-.13-.57,0s-.15.37-.31.82a4.24,4.24,0,0,1-.45-1.22c0-.93-.25-1.89.29-2.8.2-.35,0-.9,0-1.36,0-.26.07-.66.23-.74.8-.4.13-1.34.72-1.79-.09-.08-.18-.24-.26-.23a.92.92,0,0,1-.89-.37c-.34-.47-.21-.83.41-1,.15-.05.42-.08.43-.16.07-.36,0-.68.54-.26.24.19.75.07,1.27.09-.16-.84-.29-1.57-.44-2.29a3.62,3.62,0,0,0-1.42-.22c-.22.17-.28.45-.76.19s-.56-.41-.53-.83,0-.56,0-.84c.46-.39,1.2.16,1.55-.49.31.74.8.06,1.2.14s1.07.18,1.88.3c-.24-.49-.37-.74-.48-1s-.36-.77-.52-1.16c-.4-.94-.18-1.43.74-1.72.26-.09.47.13.6.64a7.21,7.21,0,0,0,1.2,2.61,2.06,2.06,0,0,0,2.15,1c.4-.06.83.51,1.24-.1.05-.08.7,1.2.44,1.47a2.16,2.16,0,0,1-1,.52c-.15.05-.37-.16-.64-.29l-.56,1.66h3.23a8.83,8.83,0,0,1,0,1,.76.76,0,0,1-.78.72c-.41,0-.81,0-1.21,0-.61.05-.71.36-.37.91a2.14,2.14,0,0,1,.28.74c.09.52.36.54.67.24s.49.34.83.17a2.49,2.49,0,0,1,.89-.34c.68-.07,1,.21,1.08.76s-.29.86-.91.95c-.86.13-1.71.29-2.79.47.41.47.68.8,1,1.11,0,0,.25,0,.35-.1.61-.44,1,.22,1.52.29.07,0,.1.29.14.44l-.3.88a2.46,2.46,0,0,1-1.59.37s-.15.26-.17.41.12.24.19.24c.74,0,1.49,0,2.24,0a1.67,1.67,0,0,1,.75.25c.26.16.43.42.16.7s-.7.82-1.41.78a4,4,0,0,0-2.63.3c-.13.09-.42-.05-.63-.1s-.52-.25-.58-.19c-.8.87-1.55-.09-2.33-.06-.08,0-.24-.33-.24-.5a.63.63,0,0,1,.27-.49,7.57,7.57,0,0,0,1.22-.39c.32-.21.46-.26.79,0,.11.09.55-.25.8-.37-.46-1.17-1.61-.92-2.42-1.27C122.56,26.65,122.07,27.28,121.43,27.5Zm1.17-8.2c.52-.49,1.12-.9.88-1.72a.85.85,0,0,0-.81-.7c-.44,0-.44.27-.64.52-.41.5-.27.74.11,1.1A3.13,3.13,0,0,1,122.6,19.3Zm.25,6.59a14.1,14.1,0,0,0,1.84-.46c.14-.05.16-.5.14-.76,0-.07-.45-.22-.51-.16-.25.26-.37.22-.65,0s-.51-.09-.55.33A5.79,5.79,0,0,1,122.85,25.89Z"/><path class="cls-3" d="M136.61,22.39a4,4,0,0,0,1.36,0c.45-.2.68.61,1.17.14.15-.15.61,0,.93.05a2.46,2.46,0,0,1,2,1.84c0,.12-.14.28-.09.36a3.17,3.17,0,0,1,.2,3.41c.21,1.12-.52,1.59-1.39,2-.19.08-.51.23-.6.15-.51-.43-1,.06-1.45,0s-1,0-1.56,0a1.82,1.82,0,0,1-1.08-.32c-.84-.53-1.06-.77-.69-1.66a1.21,1.21,0,0,0,0-.86,4.58,4.58,0,0,1,0-2.27c.2-.59-.36-.45-.38-.7-.36.57-.75,1.15-1.08,1.76-.08.15.12.44,0,.59a1.91,1.91,0,0,1-.59.61.89.89,0,0,1-1.29-.59c0-.28-.12-.67,0-.84a4.16,4.16,0,0,0,.71-1.61c.11-.41.8-.6.71-1.22.74-.06.7-.87,1.18-1.22.33-.24-.21-1-.42-.82-.39.37-.52-.26-.79,0-.58.53-1,.14-1.42-.3s-.43-1,.34-1.17c.45-.09.9-.43,1.46-.06.27.18.77,0,1.32,0-.13-.78-.2-1.52-.38-2.23a.89.89,0,0,0-.62-.5,2.32,2.32,0,0,0-1.36,0c-.84.45-1.32-.36-2-.43a1.36,1.36,0,0,1,0-.56.33.33,0,0,1,.24-.23c.9-.06,1.74-.87,2.65-.41.37.19.8-.33,1,.21a.65.65,0,0,0,.42-.15c.08-.12,0-.33,0-.49a.76.76,0,0,1,.78-.72.78.78,0,0,1,.94.73c0,.17,0,.34,0,.64.36,0,.69,0,1,0a1.13,1.13,0,0,0,1.29-.67,1.65,1.65,0,0,1,2.19-.95c0,.17.09.49,0,.58-.82.74-.7,1.7-.67,2.71-1.68-.07-1.87,1.49-2.93,2.45a8.42,8.42,0,0,0,2.22,0c.78-.24,1.43.72,2.17.12a3.87,3.87,0,0,1,.91.84c.07.14-.25.6-.49.78a2.52,2.52,0,0,1-1.91.34c-.45-.06-.78-.5-1.37-.2-.33.17-.88,0-1.31-.13C137.23,21.15,136.89,21.62,136.61,22.39Zm.51-5.29c-.27.17-.51.28-.5.32a8.6,8.6,0,0,0,.33.84c.12-.08.33-.16.33-.24,0-.28-.09-.55-.33.4v-.16a.76.76,0,0,0-.26.11s0,.13.06.2S136.88,18.47,137.12,17.1Zm3.18,9.76h-2.64c-.5,0-.59.1-.56.72a1.69,1.69,0,0,0,.4.89c.41-.4.7-.27,1,.1.29-.3.59-.58.95-.08a7.1,7.1,0,0,0,1.17-.7C140.7,27.72,140.45,27.27,140.3,26.86Zm-.25-1.72c0-.69-.3-1-.76-1a1.76,1.76,0,0,0-1.52.28c-.43-.47-.47-.19-.48.23s.05.52.44.51C138.5,25.13,139.28,25.14,140.05,25.14Z"/><path class="cls-3" d="M109.27,26.07V23.85a2.7,2.7,0,0,0-1.4.08c-.39.11-.94-.25-1.4-.43-.09,0-.19-.29-.15-.35.35-.49.72-1,1.09-1.44.28.86.93-.24,1.34.25.17.2.73,0,.52-.23-.43-.53,0-.89.07-1.29.1-.65-.33-.92-.68-1.28s-.66-.23-1.07-.08a2,2,0,0,1-1.09,0c-1.22-.31-1.09-.18-1.72.81a7,7,0,0,0-.7,3,9.43,9.43,0,0,0-.28,2.19,3.81,3.81,0,0,1-.66.05c-.92-.07-1.33-.46-1-1.26.44-1.29.34-2.67.85-3.94.14-.34-.44-.79.13-1.23a1.44,1.44,0,0,0,.51-1.12,3.68,3.68,0,0,1,.59-1.9,6.66,6.66,0,0,0,.32-2.1,2.3,2.3,0,0,1,1.77-1.51c.57,0,.78.85.38,1.46l-1.13,3.2v.9a3.43,3.43,0,0,1,2.82-.2c.1.05.4-.1.47-.23a1.88,1.88,0,0,0,.16-.78c0-1.57.07-1.8,1.22-2.27a2.56,2.56,0,0,1,.8,0c0,.58.23,1.13-.11,1.74-.2.34.57.87-.17,1.18.2.14.55.43.59.4.51-.46.81.41,1.34.15a3.75,3.75,0,0,1,1.44,0v1.72c-.85,0-1.7,0-2.55,0-.58,0-1,.53-.79,1a1.23,1.23,0,0,1-.23,1.61c.66.1,1.21,0,1.49.27.46.39.71-.11,1-.07a2.2,2.2,0,0,1,1.07.69c.32.31,0,1.26-.39,1.26-.69,0-1.48.36-2.08-.3a1.8,1.8,0,0,0,0,2.41c.92-.15,1.94.27,2.9-.33a.47.47,0,0,1,.75.36c.06.34.38.63-.1.89-.66.37-1.2,1.28-2.13.49-.8.79-2-.2-2.82.62-.12.12-.57,0-.79-.11a1.68,1.68,0,0,0-1.74-.05c-.42.24-.91-.63-1.21.14a6.4,6.4,0,0,1-.73-.65c-.36-.45-.25-.75.36-1,.24-.12.48-.23.73-.33.41-.16.62.69,1.18.19C108.25,26.12,108.79,26.17,109.27,26.07Z"/></g><path class="cls-3" d="M60.49,23.88a4.58,4.58,0,0,0-.52-.29c-.72-.2-.54-.75-.46-1.21.1-.69-.22-1.1-.8-.94l-1.49.44c0,1.12,0,2.31,0,3.5A2.18,2.18,0,0,0,58,27.12c.45.39,1,.74,1.44,1.09,0,0,.17-.17.23-.16a4.11,4.11,0,0,0,2.68.05,5.31,5.31,0,0,1,2.16-.16c.17,0,.4.44.51.71a.51.51,0,0,1-.22.46c-1.47.51-2.89,1.4-4.54.61-3.07-.32-3-1-4.07-2.49-.06-.09-.06-.21-.12-.29-.34-.47-.53-.48-1.07-.08-.14.1-.23.29-.38.35a1.09,1.09,0,0,1-.51,0c-.94-.14-1.84.29-2.77.16-.2,0-.48-.15-.58-.06-.3.28-.51.33-.86,0a1.13,1.13,0,0,0-.8-.13c-1.09.21-1.16.18-1.2-.86,0-.23,0-.46,0-.81h2.44l-.86-4.76a22.85,22.85,0,0,1-2.22-.62c-.28-.1-.46-.28-.72,0s-.41.11-.35-.17c.1-.46.28-.91.44-1.41.92.21,1.84-.24,2.7.25.39.22.29-.15.29-.3,0-.53.26-1,.73-.88s1,.06,1,.81.68.78,1.15.83a4.48,4.48,0,0,1,2.39.64.85.85,0,0,0,1.25-.65,4.29,4.29,0,0,1,.71-2c.25-.51.86-.58,1.18-1,.05-.06.6.27,1,.45-.34.65-.62,1.28-1,1.87-.19.3-.2.51.06.71s0,.74.56.66,1.17.19,1.55-.42.54-1,.87-1.53c.17-.25.41-.65.81-.41s.59.38.5.81c0,.17.07.4,0,.51-.48.63-.27,1.06.29,1.51A1.82,1.82,0,0,1,63.5,22c0,.54.56,1.07-.06,1.61.18.64-.37,1.18-.31,1.74.08.81-.43,1.07-.88,1.54s-.73-.31-1.11-.1c0-.31-.12-.79,0-.9.64-.45.53-1.07.54-1.68s0-1.14,0-1.7c0-.16.47-.29.1-.46s-.54.05-.49.44C61.46,23.25,60.69,23.33,60.49,23.88ZM55.25,25.5c.7-.71-.2-1.22.18-1.93.31-.56.06-1.42.06-2.2a13.09,13.09,0,0,0-1.85-.32c-.59,0-1.18-.86-1.78,0-.28-.31-.52-.52-.51.15a11,11,0,0,0,0,1.72c.1.56.4,1.09.56,1.65.28.93.26.95.82,1C53.61,25.51,54.47,25.5,55.25,25.5Zm.54.47-.12-.13a1.2,1.2,0,0,0-.11.23s.07.08.11.12Z"/><path class="cls-3" d="M166.15,27.27c.23.7,0,1.13-.49,1.37a15.75,15.75,0,0,1-1.5.54c-.08,0-.23.09-.24.07-.47-.76-1.62-.49-2-1.33-.34-.66-.69-1.31-1-2A2.65,2.65,0,0,0,160,28.1c0,.53-1.11,1.28-1.63,1.16a1.72,1.72,0,0,1-.33-1.22c.27-.52.87-1.09.78-1.52-.14-.63.21-.8.57-1.22-.51.21-.72-.73-1.24-.12-.33-.3-.66-.6-1-.91s-.77-.69-.61-1.29a.65.65,0,0,0,0-.34c-.45-1.24-.43-1.24-.05-3.06.06-.32-.37-.82-.24-1a1.93,1.93,0,0,0,.31-1.08,3.35,3.35,0,0,1,.74-1.79c.11-.11.29-.28.27-.39-.12-.6.73-.23.77-.89s.59.17,1,0,.88,0,1.38-.14c.31-.1.82.4,1.24.63a8.24,8.24,0,0,1,1.39.8,10.51,10.51,0,0,1,.88,1.17c.12.14.38.17.58.25-.07.16-.2.33-.19.49a2.53,2.53,0,0,0,.21.76c.08.2.27.36.32.55a1.61,1.61,0,0,1,0,.69c0,.2-.22.37-.28.57a1.83,1.83,0,0,0,0,.66,6.2,6.2,0,0,1-.58,3.43,3.41,3.41,0,0,1-1,1.28c-.58.47-.67.88-.14,1.19s1.22.23,1.54.86C165,27.11,165.59,27.32,166.15,27.27Zm-2.88-9.41a4,4,0,0,0-.51-.21,1.71,1.71,0,0,0-.32,0c.08.11.14.29.25.33s.28-.05-.32-.32c0-.92-.86-1.12-1.38-1.6s-1.13.14-1.51-.45c-.26.41-.9.56-.82,1.35C160,16.56,161.06,17.89,163.27,17.86Zm.23,1.85a5.94,5.94,0,0,1-1.36,0c-.4-.1-.75-.4-1.15-.54s-.54.16-.89-.1a2.34,2.34,0,0,0-1.73-.37c-.25,0-.27,0-.27.31s-.11.82.07,1a1.79,1.79,0,0,0,1,.36c.81.14,1.63.22,2.43.36.42.07,1,.44,1.21.29S163.25,20.26,163.5,19.71Zm-.71,4.11c0-.28,0-.5,0-.71s-.08-.26-.15-.27c-1.32-.25-2.59-.68-3.88-1a.61.61,0,0,0-.76.67c0,.37.4.69.62,1,.53-.6,1.19.36,1.74-.14.07-.07.31-.09.34,0C161.23,24.08,162,23.81,162.79,23.82Z"/><path class="cls-3" d="M83.3,17.59h1.77a1.93,1.93,0,0,0,.22.58c.17.23.42.43.16.71a1.38,1.38,0,0,1-.68.41,7.11,7.11,0,0,1-1.23,0c.23.47.6.88.59,1.28,0,.57.39.64.63.95s.11.95.14,1.55l2-1.55L88,22.3c-.33.9-1.29,1.18-1.54,2.06-.08.32-.26.48,0,.86a7.28,7.28,0,0,0,1.23,1.9,3.88,3.88,0,0,1,.6,1c-.4.77-1.21-.06-1.73.36,0,0-.29-.09-.29-.11.16-.63-.33-.92-.68-1.27-.73-.72-.72-.7-1.67-.11-.41.25-.88.39-1.3.61a4.27,4.27,0,0,1-2.45.69c-.53,0-1.05.26-1.58.32a11.6,11.6,0,0,1-1.56,0c-.22,0-.53.05-.65-.06a2,2,0,0,1-.47-.83c-.1-.34.09-.48.46-.5.19,0,.39-.33.55-.31,1.31.21,2.54-.4,3.83-.36a5.39,5.39,0,0,0,1.77-.3c.46-.15,1-.25.94-.73s.85-1.07.15-1.84a5.78,5.78,0,0,1-1.33-3c-.19-1.15-.6-1.57-1.8-1.82a33.75,33.75,0,0,0-6.3-.92c-.17,0-.73,1-.66-.07,0-.48-.83-.76-.18-1.34.43-.37.86-.19,1.28-.27a3.21,3.21,0,0,1,1.82.06c.4.33.76.5,1.19.11.27-.25.46-.19.72,0a1.88,1.88,0,0,0,2.7,0,.78.78,0,0,1,1.18.07C82.56,16.87,82.94,17.23,83.3,17.59Z"/><path class="cls-3" d="M39.75,29.24a7.27,7.27,0,0,0-.52-.83c-.42-.54-.44-.83,0-1.3.19-.21.41-.4.61-.61.51-.53.47-1.15.62-2.11A4.35,4.35,0,0,0,40,22.08c-.24-.68-.66-.83-1.35-.62A4.29,4.29,0,0,1,37,24.88c-.84.7-1.49,1.64-2.75,1.72-.21,0-.34.24-.63,0-.53-.46-1.44-.21-1.86-.88a4.2,4.2,0,0,1-.51-1.85c0-.31-.31-.84-.23-.89.66-.41-.54-1.18.32-1.49-.08-.68.62-.47.9-.8a5,5,0,0,1,3.19-2.18l1.56.06a4.77,4.77,0,0,0,.84,0,1.16,1.16,0,0,1,1,.44,4.35,4.35,0,0,0,1,.93c.41.22,1,.2,1.37.44s-.1.88.49,1.16c.81.4.72,1.21.67,1.94,0,.29-.62.54-.24.84s-.14.51-.12.8C42.14,26.81,41.22,27.94,39.75,29.24Zm-5.9-4.32c2.26-1.12,3.38-2.58,2.88-4.93-1.08.06-1.79.82-2.72,1.08-.77.21-1.07,1-1.3,1.75s.16,1.06.62,1.44A4.2,4.2,0,0,1,33.85,24.92Z"/><path class="cls-3" d="M170.37,21c.83.7,2,1,2.68,1.89a3.27,3.27,0,0,1,.95,1.67l.34,2.44c-.33.6-.08,1.45-1.06,1.81-.61.23-1,1.08-1.8,1l-2.33-.15a5,5,0,0,1-.8-1.38,4.15,4.15,0,0,1,.35-2.75c.25-.48,1-.53,1.53-.62a13.62,13.62,0,0,1,2.18,0c-.77-.7-.64-1.65-1.76-1.77-.63-.07-1.21-.65-1.82-1-.94-.51-.93-.49-.41-1.32.22-.35.27-.81.51-1.15s.67-.63.94-1c.15-.2.24-.68.15-.75s-.74-.3-.85-.19c-.4.44-.61.09-.74-.14a1,1,0,0,1,.19-1.3c.71-.42,1.76-.52,2.16-.1a9.23,9.23,0,0,1,1.3,1.7c.12.19-.21.59-.21.9C171.86,19.83,170.94,20.24,170.37,21Zm-.67,7.22a8.8,8.8,0,0,1,1.49-.19.83.83,0,0,0,.9-.6c.11-.43-.26-.68-.67-.79a1.29,1.29,0,0,0-.94-.05C169.56,26.86,169.72,27.49,169.7,28.17Z"/><path class="cls-3" d="M97.09,28.93a2.49,2.49,0,0,1,.21-2.19,3.4,3.4,0,0,0,.34-2,2.1,2.1,0,0,0-1.14-2c-.49-.27-.78-.2-.93.26a3.17,3.17,0,0,0-.32,1.23A1.81,1.81,0,0,1,94,26.09c-.75.34-1.68.84-2.62.12-.44-.35-1-.49-1.22-1.11a1.42,1.42,0,0,1,0-.58,4.05,4.05,0,0,0,.2-.94A2.46,2.46,0,0,1,92,21.06c1.21-.52,2.49-1.25,3.87-.37,2-.33,2.39,1.51,3.41,2.5a8.77,8.77,0,0,1,.13,1.75,2.15,2.15,0,0,0,0,.5c.19,1.7-.84,2.66-2.09,3.49C97.24,29,97.17,28.93,97.09,28.93Zm-3-6.75c0,.12,0,0,0-.06a.35.35,0,0,0-.31-.05c-.41.25-.82.5-1.21.79a1.82,1.82,0,0,0-.69.72c-.07.24.23.56.26.86.07.57.52.42.75.35.41-.14.4-.85,1-.84Z"/><path class="cls-3" d="M66.84,25.32a3.83,3.83,0,0,1,1.81-.53c.17,0,.62.24.55-.23,0-.18,0-.41,0-.48a10.8,10.8,0,0,1-.22-2.39c0-.36-.29-.94-.85-.33-.37-.55-.94-.35-1.41-.31a3.24,3.24,0,0,1-1.86-.53.8.8,0,0,0,.13-.13c.76-1.27.85-1.3,2.35-.85,1,.3,1.44.05,1.66-.89,0-.16,0-.35,0-.51.11-.66.42-.95,1-.89s.83.34.5.93c0,.06.22.24.26.39.1.35,0,.89.25,1.05a3,3,0,0,0,1.38.36c.68.06,1.37,0,2.11,0v1.32c-.88.12-1.85.27-2.82.39-.2,0-.29-.54-.63-.12s-.38.47-.11.85a1.22,1.22,0,0,1,0,1.39.66.66,0,0,0,.49,1,17.39,17.39,0,0,0,2-.08c.45,0,1.07.34,1,.7,0,0-.1.07-.11.12-.1.47-.53.59-.81.86s-.66.18-1.06.18c-1.1,0-2.26-.4-3.31.29a.35.35,0,0,1-.33,0C68.14,26.36,67.51,25.86,66.84,25.32Z"/><path class="cls-3" d="M80.78,22.63a1.63,1.63,0,0,1-1.3,1.88,5,5,0,0,0-.84.47A1.2,1.2,0,0,1,77,24.73a10.05,10.05,0,0,0-.73-.73c-.62-.56-1.12-1.11-.53-2,.1-.16-.18-.53-.2-.82-.05-.78.08-.92.84-1.16.31-.1.72-.41.87-.31.51.34,1.1.17,1.58.37s.77.63,1.33.33c0,0,.18.1.2.17Q80.59,21.6,80.78,22.63ZM77.6,21.7c0,.4,0,.72,0,1a.39.39,0,0,0,.11.28c.14.14.34.36.46.33.28-.08.76-.31.75-.44a2.27,2.27,0,0,0-.45-1.13C78.38,21.64,78,21.73,77.6,21.7Z"/><path class="cls-3" d="M24.75,21.66V20.39a2,2,0,0,0-2-2.1,1.09,1.09,0,0,1-.91-.35c-.31-.37-.54.67-1,.1-.06-.08-.54.17-.83.23a1.14,1.14,0,0,1-.52,0c-.27-.05-.52-.92-.33-1.12s.32-.33.49-.49c.76-.75.76-.76,1.91-.36.14.05.28.26.4.25a5,5,0,0,1,3.33,1.12c.27.17.88,0,.9.79s.55,1.47.06,2.35C25.9,21.42,25.66,21.85,24.75,21.66Z"/><path class="cls-3" d="M19.5,26.48a1.7,1.7,0,0,1,2.16-.57c.69.2,1.37,0,2.06.22a10.35,10.35,0,0,0,2.73.06,12.71,12.71,0,0,1,1.38,0,.76.76,0,0,1,.72.77c0,.39-.13.48-.5.66a3.37,3.37,0,0,1-1.09.28,28.78,28.78,0,0,1-5.24-.4A7.08,7.08,0,0,1,19.5,26.48Z"/><path class="cls-3" d="M88.49,20c-.45,0-.91.07-.93-.58-1-.63-.81-1.83-1.27-2.72-.17-.32.17-.91.33-1.36,0-.09.38-.19.42-.14.33.35.63.74.93,1.12.66.84.81,2,1.63,2.74.2.19-.12.87-.43.93A3.85,3.85,0,0,1,88.49,20Z"/><path class="cls-3" d="M154.37,17.05l-1,1c-.27-.87-.9.17-1.35-.26-.26-.25-.82-.24-1.25-.26s-.76.28-1,.15a4.67,4.67,0,0,0-2.44-.31,3,3,0,0,1,.32.65,2.26,2.26,0,0,1,0,.86,1.59,1.59,0,0,0,.37,1.23,1.16,1.16,0,0,0,.41.34c.4-.44.95-.23,1.42-.35a8.45,8.45,0,0,0,1.44-.66c.36.55.94.25,1.48.38v1.71c-1-.54-1.78.14-2.67.43.63.77,1.25,1.52,1.86,2.28a1.32,1.32,0,0,1-.37,1.72.77.77,0,0,1-1-.37c-.4-1-1.37-1.49-1.92-2.3-1.12.1-1.08,1.19-1.6,1.78-.08.09,0,.39.1.57.32.72.71.9,2,1.08a3.33,3.33,0,0,1,.83.4,2,2,0,0,0,.6.23c.72.08,1.23.35,1.2.69a1.62,1.62,0,0,1-1.54,1c-.3,0-.58-.26-.89-.32-.7-.15-1.4-.23-2.1-.36-.95-.18-1.15-1.31-2-1.62a.87.87,0,0,1,0-.66c.53-1.05.29-2.36,1.2-3.31.22-.22.12-.83,0-1.24a5.67,5.67,0,0,0-.57-1.48,2.48,2.48,0,0,1,0-2.5c.22-.41,0-.64-.47-.53-.1,0-.17.15-.25.23-.65-.88-2.14-.23-2.59-1.49.94-.79,2.14-.4,3.28-.52.15-.63.27-1.26.46-1.88a1,1,0,0,1,1.15-.49.88.88,0,0,1,.58.84c0,1.85,0,1.78,1.83,1.93a18.36,18.36,0,0,1,2.7.52C153.77,16.49,153.87,16.45,154.37,17.05Z"/><path class="cls-3" d="M148.21,12.91s.11.1.1.11-.1.14-.15.21l-.15-.16Z"/></g></svg>