<svg xmlns="http://www.w3.org/2000/svg" viewBox="0 0 196.32 46.24"><defs><style>.cls-1{fill:#fff;}</style></defs><g id="レイヤー_1" data-name="レイヤー 1"><path d="M90.28,14c.38-.3-.24-.46,0-.9a3.76,3.76,0,0,0,.11-2.52,6.84,6.84,0,0,0-.59-1.43c-.49-.77.35-1.19.27-1.81a2.54,2.54,0,0,0-.15-.94A6.59,6.59,0,0,1,89.21,3,2.66,2.66,0,0,0,86.11.65c-.4.7-.86-.44-1.27,0S83.7.9,83.13,1c-.39.07-1-.06-1.14.16-.49.63-.93-.2-1.3,0a1,1,0,0,1-1.41-.11.53.53,0,0,0-.53,0c-.44.51-.79.36-1.14-.08-.32.45-.78.4-1.25.39-.75,0-1.5,0-2.25,0s-1.36,0-2,0-1.3,0-1.9-.09-1.42.38-1.88.05A3.58,3.58,0,0,0,66,1C61.7,1,57.42,1,53.14,1c-.51,0-1.08.26-1.54-.24a.55.55,0,0,0-.53-.13,4,4,0,0,1-3.76,0,1.18,1.18,0,0,0-.78,0,9.74,9.74,0,0,1-5.22,0c-.2-.05-.46.18-.69.16a7.51,7.51,0,0,1-.78-.21,2,2,0,0,0-.81,0c-.48.15-1,.72-1.43.34-.62-.54-1,.26-1.55.1a4,4,0,0,0-2,0c-.6.15-1-.34-1.58-.25S31.33.59,30.82,1a.17.17,0,0,1-.18,0c-.55-.6-1.15-.39-1.82-.2s-1.14,0-1.66.1a5.64,5.64,0,0,0-2,.52c-.58.41-1.22-.63-1.87,0-1-.7-2.08-.27-3.12-.32-.36,0-.62.65-1.19.16-.18-.16-.75.17-1.16.2-.6,0-1.22,0-1.83,0s-1.4.23-1.8,0c-.64-.47-1.07.23-1.53,0a1.68,1.68,0,0,0-1.5,0c-.43-.63-.91.21-1.28,0C8.59.61,7.22,1.2,5.93,1c-.66.74-1.26.08-1.88-.08a9.19,9.19,0,0,0-1.68.21l-2,3.22a1.61,1.61,0,0,1,.09.29A7.27,7.27,0,0,1,.6,7.16c-.24.91.23,1.67.1,2.52s0,1.89-.06,2.83S1.08,14.27.26,15c.21.82.85,1.64,0,2.48A3.9,3.9,0,0,1,.31,21c.8.71,0,1.38,0,2.07,1,.7-.35,1.37,0,2.11.15.36-.61.84,0,1.27.08,1.43-.29,2.91.4,4.29-.65.69.23,1.35,0,2.1s.06,1.76-.09,2.61c-.09.5.67.78.14,1.35-.38.4.15,1.14-.42,1.65a1.15,1.15,0,0,0-.05,1.12C.84,40,.2,40.5.6,41s.08,1.29.06,2a3,3,0,0,0,1.19,2.34c.09.08.37.12.41.07.45-.59,1,.25,1.11.07.58-.68.93.15,1.36.1.76-.09,1.57.32,2.31-.35.32-.28,1,.06,1.51-.29.29-.18,1,.37,1.37.21a8.89,8.89,0,0,1,3.31-.37c.41,0,1-.4,1.18-.24a1.35,1.35,0,0,0,1.32.21c.62-.3,1.38-.64,1.85-.3.71.52,1.15-.44,1.75-.08a2.17,2.17,0,0,0,1.07.33c.34,0,.69-.3,1-.29s1,.43,1,.35c.56-.78,1.32,0,2-.29a2.56,2.56,0,0,1,2.5.23c.2.16.75,0,1.07-.16a1,1,0,0,1,1.26.09c.13.11.46.21.53.14.81-.8,1.81-.24,2.7-.37a1.88,1.88,0,0,1,1.34.23c.29.18.91-.23,1.38-.23s1.22.44,1.6.24c.65-.33,1.07-.37,1.58.12.08.08.43,0,.53-.12.45-.5,1.15,0,1.5-.3.6-.54,1,.26,1.53.06s1.1-.47,1.4-.29c1.4.84,3.09-.4,4.42.67.5-.69,1.26-.45,1.86-.36s1.24-.64,1.88-.1c.21-.75.64.25,1.06-.15s1-.19,1.52-.18,1,.35,1.16.19c.63-.61.92.3,1.39.2a11.34,11.34,0,0,1,1.14-.2c.64-.06,1.28-.09,1.92-.1.14,0,.39.21.42.17.51-.56,1.16-.17,1.73-.27a2.38,2.38,0,0,1,1.67.4c.48.29.89-.57,1.53-.05.36.3,1.12,0,1.65.44s1-.69,1.48,0c.29-.62.89-.13,1.36-.32s1.41.17,2.11.1c.44,0,.85.23,1.32,0a2.58,2.58,0,0,1,1.36-.13c.42,0,1,.45,1.2.29a1.84,1.84,0,0,1,1.32-.3,9.74,9.74,0,0,1,1.43,0c.16,0,.29.29.46.33.49.11,1,.65,1.48.06a38.61,38.61,0,0,0,7.53-.51L89,42.37c.06-.1.21-.27.2-.27-.84-.74-.19-1.76-.5-2.63-.22-.63-.63-1.57-.22-2.16s.27-1.26.35-1.89a6.59,6.59,0,0,1,0-1A11.94,11.94,0,0,0,89.38,33a8.32,8.32,0,0,0-.15-1.56c0-.61,0-1.21,0-1.82s-.22-1.25,0-1.59c.49-.62-.27-1,0-1.52.1-.23,0-.58.16-.74.37-.38.19-.6,0-1a3,3,0,0,1,0-1.48c0-.31.19-.61.21-.92,0-.72-.18-1.5.64-2,.06,0,.1-.24.06-.27a1.36,1.36,0,0,1-.23-1.67c.48-.7-.23-1.16-.07-1.73s-.17-.94.33-1.3a.53.53,0,0,0,0-.52C90.07,14.61,89.83,14.3,90.28,14Z"/><path d="M53.35,31.64c-.39.3.23.46,0,.9a3.76,3.76,0,0,0-.11,2.52,6.34,6.34,0,0,0,.59,1.43c.49.77-.35,1.19-.28,1.81a2.35,2.35,0,0,0,.16.94,6.69,6.69,0,0,1,.68,3.38,2.66,2.66,0,0,0,3.09,2.32c.4-.7.87.44,1.28,0s1.14-.2,1.71-.3c.38-.07,1,.06,1.13-.16.5-.63.93.2,1.3,0a1,1,0,0,1,1.42.11.51.51,0,0,0,.52,0c.44-.5.79-.36,1.15.08.31-.45.78-.4,1.25-.39h2.24c.68,0,1.36,0,2,0s1.3.05,1.9.09,1.42-.38,1.88-.05a3.57,3.57,0,0,0,2.31.34c4.28,0,8.57,0,12.85,0,.5,0,1.08-.26,1.53.24a.57.57,0,0,0,.53.13,4,4,0,0,1,3.76,0,1.2,1.2,0,0,0,.79,0,9.7,9.7,0,0,1,5.21,0c.2,0,.47-.18.69-.16a7.69,7.69,0,0,1,.79.21,2,2,0,0,0,.81,0c.48-.15,1-.72,1.43-.34.62.54,1-.26,1.55-.1a3.91,3.91,0,0,0,2,0c.61-.15,1,.34,1.59.25s1.11.2,1.63-.21a.17.17,0,0,1,.18,0c.55.6,1.15.39,1.81.2s1.14,0,1.67-.1a5.64,5.64,0,0,0,2-.52c.57-.41,1.22.63,1.87,0,1,.7,2.07.27,3.11.32.36,0,.62-.65,1.19-.16.19.16.76-.17,1.16-.2.61,0,1.22,0,1.84,0s1.39-.23,1.79,0c.65.47,1.07-.23,1.53,0a1.7,1.7,0,0,0,1.51,0c.42.63.9-.21,1.28,0,1.26.78,2.62.19,3.92.39.66-.74,1.25-.08,1.87.08a9.19,9.19,0,0,0,1.68-.21l2-3.22a1.61,1.61,0,0,1-.09-.29,7.51,7.51,0,0,1-.16-2.52c.25-.91-.22-1.67-.09-2.52s0-1.89,0-2.83-.43-1.76.39-2.47c-.21-.82-.85-1.64-.05-2.48a3.9,3.9,0,0,1,0-3.55c-.81-.71,0-1.38.05-2.07-1-.7.35-1.37,0-2.11-.16-.36.6-.84,0-1.27-.09-1.43.28-2.91-.41-4.28.66-.7-.22-1.36,0-2.11s-.07-1.76.08-2.61c.09-.5-.67-.78-.14-1.35.38-.4-.14-1.14.43-1.65A1.15,1.15,0,0,0,143.34,6c-.55-.4.08-.92-.31-1.42s-.08-1.29-.06-2A3.07,3.07,0,0,0,141.78.28c-.09-.08-.37-.12-.41-.07-.46.59-1-.25-1.11-.07-.58.68-.93-.15-1.36-.1-.77.09-1.57-.32-2.32.35-.31.29-1-.06-1.5.29-.29.18-1-.37-1.37-.21a8.94,8.94,0,0,1-3.32.37c-.41,0-1,.4-1.18.25a1.33,1.33,0,0,0-1.32-.22c-.62.3-1.38.64-1.84.3-.72-.52-1.15.44-1.75.08a2.2,2.2,0,0,0-1.07-.33c-.35,0-.7.3-1,.29s-1-.43-1-.35c-.57.78-1.33,0-2,.29a2.56,2.56,0,0,1-2.5-.23c-.2-.15-.75,0-1.07.16A1,1,0,0,1,114.33,1c-.12-.11-.46-.21-.52-.14-.82.8-1.81.24-2.71.37A1.86,1.86,0,0,1,109.77,1c-.29-.18-.91.23-1.39.23s-1.21-.44-1.6-.24A1.17,1.17,0,0,1,105.2.86c-.07-.07-.42,0-.52.12-.45.51-1.15,0-1.5.3-.61.54-1-.26-1.54-.06s-1.09.47-1.39.29c-1.41-.84-3.09.4-4.42-.67-.5.69-1.27.45-1.86.36s-1.24.64-1.89.1c-.2.75-.64-.25-1,.15s-1,.19-1.53.18-1-.35-1.15-.19c-.63.61-.92-.3-1.4-.2a11.15,11.15,0,0,1-1.13.2c-.64.06-1.28.09-1.92.1-.15,0-.39-.21-.42-.17-.51.56-1.16.17-1.73.27a2.38,2.38,0,0,1-1.67-.4c-.48-.29-.89.57-1.54.05-.36-.3-1.11,0-1.64-.44s-1,.69-1.48,0c-.29.62-.89.13-1.36.32s-1.41-.17-2.12-.1c-.44,0-.84-.23-1.32,0a2.56,2.56,0,0,1-1.36.13c-.42,0-1-.45-1.2-.29a1.82,1.82,0,0,1-1.32.3,9.62,9.62,0,0,1-1.42,0c-.17,0-.3-.29-.47-.33-.48-.11-1-.65-1.47-.06a38.5,38.5,0,0,0-7.53.51c-.39.6-.79,1.24-1.2,1.88-.07.1-.21.27-.2.27.83.74.18,1.76.49,2.64.22.63.63,1.56.22,2.15s-.27,1.26-.35,1.89a8.23,8.23,0,0,1,0,1,12,12,0,0,0-.54,1.39,10.42,10.42,0,0,0,.15,1.56c0,.61,0,1.22,0,1.82s.22,1.25,0,1.59c-.49.62.27,1,.06,1.52-.1.23,0,.58-.16.74-.37.38-.19.6,0,1a3.25,3.25,0,0,1,0,1.48c0,.31-.19.61-.21.92,0,.72.18,1.5-.64,2a.32.32,0,0,0-.07.27,1.36,1.36,0,0,1,.23,1.67c-.47.7.24,1.16.07,1.73s.18.94-.32,1.3a.53.53,0,0,0,0,.52C53.56,31,53.8,31.29,53.35,31.64Z"/><path d="M195.8,32.67c-.08-1.28.29-2.67-.11-3.81a8.13,8.13,0,0,1-.26-3.11c0-.43,0-.84,0-1.28a7.25,7.25,0,0,1,.26-3.11,23.63,23.63,0,0,0,.5-3.1c-.62-.44-.38-1.08-.41-1.66s.54-1,0-1.48a2.31,2.31,0,0,0,.33-2.42c-.42-.77.75-1.64-.32-2.19,0,0,.06-.36.14-.53a2.67,2.67,0,0,0,0-2.61.82.82,0,0,1-.06-.54c.09-.38.42-1,.3-1.1-.6-.51.35-1,0-1.28-.72-.54.42-.88.05-1.32,0-.27,0-.54,0-.81a.87.87,0,0,0-.86-.9c-1.58-.09-3.19.21-4.74-.39-.2-.07-.54.3-.84.37-.65.15-.34-.68-.66-.75-1-.17-2,.14-2.88-.46-.43.61-.82.43-1.31,0-.17-.13-.66,0-.91.17a.81.81,0,0,1-.87,0c-.36-.13-.79-.11-1.2-.21a1.49,1.49,0,0,0-1.33.21c-.29.21-.85-.65-1.25.08-.84-.36-1.63.22-2.49.11s-2.18.27-3-.12-1.52.72-2-.32a9.14,9.14,0,0,1-5.78,0,.4.4,0,0,0-.36.09c-.35.5-.87.32-1.31.29-.85,0-1.7,0-2.56-.14s-1.62.26-2.46-.21c-.26-.15-.92.29-1.12.13-.69-.55-1.36-.29-2.06-.16-1.15.2-2.41-.47-3.51.38-.09.07-.35-.09-.53-.14s-.74-.33-.9-.22a2,2,0,0,1-2,.31c-.64-.49-1.4.6-1.79-.33-.57.77-1.09-.35-1.72,0-.32.15-.77.65-1.3.06-.34-.38-.88.54-1.32.11-.66-.65-.81.47-1.42.32A9.91,9.91,0,0,0,139.23.6h-2.65a7.56,7.56,0,0,1-2.43,0c-.85-.31-1.61.43-2.32,0s-1.59,0-2.31.1c-.54.08-.93.36-1.59.11-.49-.2-1.23.3-1.78.17a5.17,5.17,0,0,0-1.92,0,46.82,46.82,0,0,1-5.3,0c-.56,0-1.85.64-1.9,1.17-.17,1.86-1,3.62-.86,5.53,0,.42.52.76.07,1.32-.27.33.05,1.08-.14,1.54a1.1,1.1,0,0,0,0,.74,28.72,28.72,0,0,1,.09,3.22c-.65.25.21.86-.28,1.17-.65.41-.32,1-.28,1.57a11.08,11.08,0,0,1,.14,1.14c0,.44-.22.87-.23,1.31s.32.8.19.95a1,1,0,0,0,0,1.58c.16.18.1.63,0,.92-.66,2.16-.32,4.35-.16,6.51a3.45,3.45,0,0,1,0,1.4c-.14.46.29,1.08.18,1.57a4,4,0,0,0,0,2,8.41,8.41,0,0,1,0,2v1.83a19.44,19.44,0,0,0,0,2,13.62,13.62,0,0,0,.39,1.65c-1,.32.31,1.15-.33,1.56-.1,1.27.78,1.87,2,1.72a26.37,26.37,0,0,1,5.18-.08c.47,0,1,.4,1.38,0,.66-.67.87.67,1.41.25,1-.76,2.06-.27,3.1-.37.74-.08,1.63.21,2.19-.12a2.72,2.72,0,0,1,2.11-.24,4.68,4.68,0,0,0,1.72-.07c.63-.06,1.33.25,1.9-.36.13-.14.62,0,.93.1s.62.3.67.24c.68-.82,1.3-.17,1.94,0,.34.11.85.41,1,.28a1.3,1.3,0,0,1,1.65-.13c.62.44.84-.38,1.39-.19a6.12,6.12,0,0,0,1.82,0c.61,0,1.22,0,1.83,0a7.53,7.53,0,0,1,2,.18c.61.21,1-.39,1.58-.23.42.11,1.09-.47,1.42-.3a3.23,3.23,0,0,0,1.5.35,5.47,5.47,0,0,1,1.62,0,1.49,1.49,0,0,0,1.32,0c.23-.12.66.45,1,0,.25.6,1-.41,1.16.33.42-.13.83-.29,1.26-.38.16,0,.36.09.54.14a4.63,4.63,0,0,0,.67.2c.39-.88,1,.18,1.44-.18.62-.5,1.07.07,1.6.22.25.07.67.13.79,0,.55-.6,1,0,1.52,0s1.35-.33,1.92.28c.08.1.38.09.53,0,1.75-.74,3.59-.14,5.37-.34.57.55,1.26-.24,1.67,0,.74.51,1.3.06,1.94,0a7.14,7.14,0,0,1,2.89.37,6.32,6.32,0,0,0,1.63,0h1.63c.54,0,1.09,0,1.63,0a7.68,7.68,0,0,1,1.36.19,2.81,2.81,0,0,0,1.23-.17,5.85,5.85,0,0,1,1.82,0,3.47,3.47,0,0,1,1.39.57c.46.33.89-.72,1.28,0,.64-.14,1.44,0,1.79-.67a1.67,1.67,0,0,0,.08-1.44,2.31,2.31,0,0,1-.25-1.33,7.38,7.38,0,0,1,0-1.41c.08-.49.34-1,.38-1.46.06-.87-.26-1.89.09-2.59s-.7-1.62.33-2.18a.49.49,0,0,0-.07-.35C195.44,34.15,195.84,33.37,195.8,32.67Z"/></g><g id="レイヤー_2" data-name="レイヤー 2"><g id="ItO8KY"><path class="cls-1" d="M113.51,32a4.17,4.17,0,0,0,1.39-.17c.56-.28.86.4,1.41.19s1,.11,1.41-.07c.57-.25,1,.06,1.53,0s1.08,0,1.62,0c.8,0,1.22.63,1.27,1.76-.83.14-1.75-.16-2.51.4-.77-.8-1.63.46-2.38-.08s-1.61-.16-2.42-.27a8.58,8.58,0,0,1-1.61,0c-.49-.17-.89.74-1.33,0-.29.46-.79.12-1.2.31-.85.38-1.65-.34-2.52-.41-.26-.76.23-1.64-.41-2.36-.11-.13.11-.53.17-.81s.16-.52.07-.59c-.46-.42-.26-.7.09-1s.56-.7.92-.86.66.07.95.21.22.41,0,.63c-.4.35.6.56.11,1a1.24,1.24,0,0,0-.36,1.06c.15.33,0,.91.6,1a2.39,2.39,0,0,1,.79.27c.35.2.51,0,.76-.19.47-.33,0-.45-.11-.65a14.29,14.29,0,0,1-.34-2.27,18,18,0,0,1-.78-5.28c0-.55-.38-1.06,0-1.7.22-.39-.36-1,0-1.5.08-.11,0-.35,0-.53-.08-1.09.09-1.37,1-1.5a3.42,3.42,0,0,0,1-.31c.49-.2.69-.21.39-.8s-.71-1-.23-1.62c.07-.09-.13-.4-.23-.59s-.49-.63-.44-.89a6.8,6.8,0,0,1,.66-1.7c.15-.29.44-.35.73-.08a3.33,3.33,0,0,1,.75,1.91l.72,2.83c.08.77.59.91,1.25.88.42,0,.84,0,1.26,0s.81,0,.76.62.9.87.75,1.69c-.1.58-.32,1.32.32,1.83a7.52,7.52,0,0,1-.78,1.46,1,1,0,0,1-.93,0c-.37-.26-.54-.18-.91,0a3.67,3.67,0,0,1-1.56.11c-.2,0-.47-.36-.56-.3a1.26,1.26,0,0,1-.95.09,1.78,1.78,0,0,0-1,.26c-.4.2.07.32.08.48.07,1.3.07,1.33,1.06,1.3.56,0,1.14.19,1.7-.27a1.17,1.17,0,0,1,1.16,0c.47.38.66,0,1-.08.75-.22,1.92.85,2,1.66,0,.35.1.81-.08,1-.34.42-.16.61,0,1,.4,1,0,1.32-1.09,1.67a11.84,11.84,0,0,1-3.83.32A1.08,1.08,0,0,0,113.51,32Zm3.15-10.18c.11-.26.38-.6.37-.93,0-.56-1.21-1.31-1.77-1.17s-1.16.38-1.74.53c-.2.05-.47-.14-.63-.06-.61.29-.51.9-.42,1.4a.81.81,0,0,0,.89.66c.35,0,.86.14,1,0C115.09,21.58,115.89,22.1,116.66,21.86Zm.85,5.87c-.67-.1-1.26.17-1.63-.4-.44.64-1.1.23-1.64.38a3,3,0,0,0-1,.52s.2.46.29.71-.71.5-.06.51c1,0,2.12.39,3.1-.26.86.56.9-.08,1-.66C117.52,28.3,117.51,28.06,117.51,27.73Z"/><path class="cls-1" d="M63.62,16.85c0,.52.12,1.08-.09,1.29a1.1,1.1,0,0,0-.29,1.41c-.55.38-.3,1-.37,1.47s-.2,1.22-.32,2c.27,0,.55,0,.83,0a4.06,4.06,0,0,1,2.63.68c.26.17.83.87,1.32.11a3.76,3.76,0,0,1,.25.31,3.23,3.23,0,0,0,.4.55c.31.24.66.43,1,.65,0,0-.07.2-.15.24-.55.37.55.91-.13,1.3-.08,0,.21.57.15.83s-.4.43-.52.68A2.24,2.24,0,0,0,68,29.46c0,.32-.72.47-.15.83a22.59,22.59,0,0,0-1.07,2.35c-.05.09-.32.12-.48.1a1.58,1.58,0,0,1-1.08-2.12,13.71,13.71,0,0,0,1.3-3.8c0-.29.3-.78.21-.84a5.82,5.82,0,0,0-1.47-.8c-.39-.14-1-.37-1.2-.19-.58.52-.82-.21-1.24-.2s-1.23.82-.93,1.27c.43.62-.63,1.19.12,1.65-.14.5-.31,1-.43,1.49a4.53,4.53,0,0,0-.12,1c0,1,0,2.05,0,3.19-.56,0-1.1.25-1.61-.28-.33-.35-.68-.66-.56-1.22a3.8,3.8,0,0,0,.22-1.6c-.15-.59.39-1,.14-1.56.81-.86-.06-2.08.64-3,.13-.18-.49-.68-.85-.59-.54.13-1.06.34-1.59.52-1,.33-1,.31-1.36-.62-.28-.73-.06-1.07.82-1.36.58-.19,1.18-.66,1.71-.58s1.08-.28,1.68-.21c0-.54-.15-1.25.12-1.55.46-.5,0-.81,0-1.16a5.89,5.89,0,0,1,.6-1.37c0-.1,0-.24,0-.36,0-.4.08-.81.14-1.21,0,0,.26,0,.32-.06C62.37,16.71,63,16.91,63.62,16.85Z"/><path class="cls-1" d="M133.53,21.56c.39-.32.76.74,1.15,0,.31.3.61.61,1,.09,0,0,.1-.08.12-.07a17.88,17.88,0,0,0,1.65,1.25c.63.39.62,1.07.87,1.63a1.19,1.19,0,0,1,.15.65c-.09.51-.66.9-.15,1.58.31.4.21,1.1.29,1.66l0,1.87A14.68,14.68,0,0,1,137,32.55c-.29.28-1,.79-1.58.2-1.19.6-2.16-.6-3.34-.4-.51.09-.67-.34-.87-1.17a8.8,8.8,0,0,0-.64-1.49c.6-.44.31-1.08.34-1.64a1.93,1.93,0,0,0-.2-1.18c-.2-.32,0-.86,0-1.31,0-.27.22-.55.19-.8s-.31-.63-.31-.94.38-.68.29-.91c-.15-.4-.4-.49.25-.72A6.43,6.43,0,0,1,133.53,21.56Zm-.83,5A10.83,10.83,0,0,0,133,30c.2.59.18,1.19,1,.62.16-.11.54.09.81.17s.9-.6,1.29.14a1.52,1.52,0,0,0,.38-1.33c-.09-.21-.25-.29,0-.53s-.08-.41-.06-.62c0-.39.17-.78.19-1.18s.14-.82-.29-1.14.52-.57.1-1-.6-1.07-1.06-1.32a4.81,4.81,0,0,0-2-.41c-.43,0-.73.32-.74.81C132.69,24.91,132.7,25.63,132.7,26.54Z"/><path class="cls-1" d="M126.6,30.45c.31-.28.66-.48.64-.61,0-.34-.23-.56,0-1a3,3,0,0,0-.57-3.78c-.19.4-.48.73-.46,1a4.9,4.9,0,0,1-.38,1.66c-.38,1.24-1,2.44-.69,3.89h-.83c-1.31,0-1.64-.51-1.26-1.76.22-.71.35-1.46.61-2.15s.64-1.42.87-2.17c.07-.24.23-.27-.12-.43-.66-.31-1.27-.74-2-1.19a5.87,5.87,0,0,0,.66-.55c.31-.37.41-.41,1-.41a2.52,2.52,0,0,0,1.8-.88c-.8-.71.58-.8.4-1.36,0-.05.2-.24.33-.28.68-.18,1,.38,1.29.77.16.22.08.64,0,1,0,.14-.26.24-.36.39-.41.59-.29,1.42.3,1.43,1.61,0,1.31,1.33,1.62,2.2.18.52-.25,1.2.36,1.66.05,0-.06.32-.11.47-.32.83-.65,1.66-1,2.49-.1.28.23.79-.37.81s-1.08.22-1.19-.61C127.13,30.81,126.77,30.62,126.6,30.45Z"/><path class="cls-1" d="M90.58,29.17a2.37,2.37,0,0,0-2.09-.75,4.28,4.28,0,0,1-3.42-1c-.06.55-.11.88-.12,1.2a2.39,2.39,0,0,0,.32,1.5c.22.31-.64.72,0,1.35.37.38-.5,1.08-1.17.91a3.21,3.21,0,0,0-.54,0c-.64-.07-.08-.47-.09-.47-.69-.62.08-1.6-.62-2.26-.32-.31.8-.95,0-1.46.43-.69-.13-1.35-.08-2.06s.38-1.55-.28-2.2c.72-1.22.14-2.54.33-3.81a3,3,0,0,1,1-.65c.13.44,1.13.17.8.67-.43.65.45,1.19-.06,1.67s.63,1.08-.25,1.43a.78.78,0,0,0,0,.66c.6.54.14,1.26.41,2a5.54,5.54,0,0,1,2.9.6c.38.2.93.06,1.39.13a7.09,7.09,0,0,0,1.3.33,1.12,1.12,0,0,1,1.17.6c.22.51-.12.9-.51,1.22A4.55,4.55,0,0,0,90.58,29.17Z"/><path class="cls-1" d="M98.16,29.33,96.5,31c-1.12-.51-.94-1.95-1.75-2.71,1.07-.88-.9-2.09.31-3a.52.52,0,0,0,0-.51c-.62-.56.48-1.24-.16-1.82-.17-.15-.08-.56-.2-.8-.2-.4.72-.76,0-1.18a4.13,4.13,0,0,1,.36-.71,1.52,1.52,0,0,1,.38-.38.66.66,0,0,1,1,.29l.66,1.19c-.84,1-.86,1-.25,1.82.2.27.15.36.06.66a10.38,10.38,0,0,0-.11,1.94,2.62,2.62,0,0,0,.24,1.95c.06.15.17.43.11.47-.59.45,0,.67.2.89S97.81,29.23,98.16,29.33Z"/><path class="cls-1" d="M80.72,27a4.31,4.31,0,0,0-1.56,0A1.19,1.19,0,0,1,78,27a.51.51,0,0,0-.5,0,1.64,1.64,0,0,1-1.84.25,3.49,3.49,0,0,0-2.53.22c-.5.19-.55-.32-.85-.17,0,0,0-.43,0-.67-.14-1.36,1.12-1.13,1.77-1.44s1.42,0,2.1-.14,1.36.21,2.07.11a8.15,8.15,0,0,1,2.15,0c.44.06,0,.31,0,.44A13.27,13.27,0,0,0,80.72,27Z"/><path class="cls-1" d="M98.33,23c0-.42,0-.8.62-.73.14,0,.31-.22.47-.34s.37-.38.45-.34a3.41,3.41,0,0,0,2,0c.74-.1,1.38.49,2.19.38.53-.07,1.32,1.43,1.08,1.91-.06.11-.33.25-.4.21-.41-.25-.75.64-1.17.07-.22-.3-.55-.34-.89-.45-.6-.19-1,.54-1.73.09a1.64,1.64,0,0,0-1.68.17C99,24.17,98.34,23.48,98.33,23Z"/><path class="cls-1" d="M105.28,28.06c.48.11,1,.23,1.57.4a.54.54,0,0,1,.15.44,6.52,6.52,0,0,1-1.2,1c-.68.37-1.59.24-2.12,1-.08.1-.41.16-.47.09-.6-.64-1.36-.23-2-.32s-1-.35-1-.91.35-.89,1-.9c1.21,0,2.44.1,3.5-.71C104.79,28,105,28.06,105.28,28.06Z"/><path class="cls-1" d="M108.92,25.8c-.38-.43-1-.71-.83-1.46.06-.26.89-1,.92-.93.15.47,1.12.05.9.86a.28.28,0,0,0,0,.18C110.13,25.23,109.72,25.62,108.92,25.8Z"/></g></g></svg>