<svg xmlns="http://www.w3.org/2000/svg" viewBox="0 0 251.16 46.88"><defs><style>.cls-1{fill:#fff;}</style></defs><g id="レイヤー_1" data-name="レイヤー 1"><path d="M246.79,22.11s0,0,0,.06A.14.14,0,0,1,246.79,22.11Z"/><path d="M127.92,2.49c-.17-.21-.5-.43-.46-.62.15-.74-.66-1.05-1.2-1.49-.76-.61-1.1.23-1.68.21a.83.83,0,0,1-.5-.12c-.58-.62-1.52.75-2-.18a2.45,2.45,0,0,1-.62.23c-1.44.17-2.94.23-4.33.52-.8.17-1.43-.82-2.14,0-.81-.73-1.54.31-2.44,0a9,9,0,0,0-2.47-.22c-.69,0-1.34-.14-2-.2-1-.08-1.93,0-2.89,0s-1.75.23-2.36-.39c-.82,1-1.61-.18-2.43,0-1.59.34-3.33-.75-4.88.24-.09,0-.39-.08-.6-.1A5.56,5.56,0,0,0,93,.24a10.65,10.65,0,0,1-5.46.14c-.49-.08-.68,0-.82.16-.49.63-1,.16-1.52.06s-.91.89-1.7.25a1,1,0,0,0-1.2-.08,2.87,2.87,0,0,1-2.35,0,2.22,2.22,0,0,0-1-.19c-1.12.22-2.2.85-3.3,0-2,.86-4.09.19-6.13.39-.9.08-1.91-.18-2.65.41-1.38-.41-2.76,1.08-4.17,0a.75.75,0,0,0-.55,0c-1.21.84-2.39,0-3.58,0s-2.56.27-3.41-.09-1.94.61-2.58-.25a17.32,17.32,0,0,0-2.73.6c-.53.21-.81-.58-1.32,0-.13.15-1.16-.19-1.51,0a1.31,1.31,0,0,1-1.45-.15c-.17-.09-.65.18-1,.15-.56-.06-1.17.07-1.63,0a6.08,6.08,0,0,0-3.75.11,1.81,1.81,0,0,1-1-.13c-.61-.2-1.1.59-1.88,0-.37-.28-1.42-.13-2.17-.18a4.5,4.5,0,0,1-1.9-.25c-.31-.15-1.09.2-1.67.24-2.71.19-5.5-.37-8.17.39a2.19,2.19,0,0,1-1-.2,3.11,3.11,0,0,0-2.36,0c-.43.21-1.09-.42-1.45.17-.32-.1-.78-.36-.94-.29-.88.39-1.66-.38-2.36-.08s-1.46.62-1.74.34c-.57-.55-1.16.05-1.76-.24-.86-.41-2.17.1-3.1-.46-.56.57-1.43.19-2.11.35A13.64,13.64,0,0,0,4,2.08c-2.19.83-2.51,1.39-1.81,3.06.12.3.31.8.11.93-1.15.7.1,1.83-1,2.5.92.82.45,1.65.07,2.48,1.25.52-.22,1.17.19,1.84a2.32,2.32,0,0,1,.13,2.34,4,4,0,0,0-.46,2.69c.08,1.23-.45,2.48.47,3.71.28.39-.95,1-.22,1.77.36.38-.32,1.24-.53,1.88-.08.23-.32.63-.23.67,1,.43-.14,1.05.11,1.25.64.53.32.81-.2,1.16.82.36.53.94.56,1.45a3.53,3.53,0,0,1,0,1.62A10,10,0,0,0,.63,36.2c.06,1.23-.5,2.5.51,3.69.22.26-.82.67,0,1.11.12.06-.63.77-.47,1,.34.44.2.72,0,1.12S.51,44,.21,44.39c-.57.66.19,1.08.37,1.61s.91.27,1.37.38a9.18,9.18,0,0,1,1.77.42c.68.32.82-.5,1.69-.21a5.83,5.83,0,0,0,3.05-.3c1-.35,2.25.64,3.15-.3a5.8,5.8,0,0,1,1.24.25c.26,0,.68.18.76.12,1-.75,2.19-.35,3.27-.35a10.2,10.2,0,0,0,2.65,0c1,1,1.76-.5,2.77-.1.61.24,1.48-.2,2.17.27a1.86,1.86,0,0,0,1.29.12c1-.79,1.86-.18,2.75,0,.31.08.81.33.84.3.74-.72,1.4.21,1.89.06a4.21,4.21,0,0,1,1.87,0,10.54,10.54,0,0,0,4.13-.31c.37-.11,1.07.63,1.89,0,.25-.19,1.53.35,1.85.15.79-.46,1.54.16,1.6.11.55-.45,1.23-.3,1.87-.34a20.22,20.22,0,0,0,2.48-.22c.67-.12,1.51.72,2-.17.32.66.95,0,1.45.15s1.2-.2,1.55,0c1.27.59,2.61.16,3.9.26.38,0,1.1-.41,1.16-.35.68.61,1.24.07,1.89,0,1.25-.06,2.62-.4,3.88.24a6.54,6.54,0,0,0,1.66.1c.72.08,1.31-.58,2.19-.06.3.18,1.33-.78,2.05,0a2.8,2.8,0,0,1,3,0,7.57,7.57,0,0,1,3.52-.4c.37,0,.9,0,1.07.11.53.43.75.09,1.06-.12s.53-.53,1-.11a1.54,1.54,0,0,0,1,.09c.67-.74,1.55,0,2.32-.19a14.91,14.91,0,0,1,3.07-.17,10.19,10.19,0,0,1,2.78.18,10.39,10.39,0,0,0,2.82-.19c1.06,0,2.13,0,3.19,0s2-.46,3,0c.28.11.85-.13,1.29-.19s1.08-.29,1.31-.16c1.3.72,2.77.22,4.13.38,1,.11,2.12-.32,3,.39a1.19,1.19,0,0,0,.74-.15c.62-.53.82.35,1.37.17a5.51,5.51,0,0,1,1.77-.38c.54,0,1,.72,1.65.13.85-.73,1.14.43,2,.29a11.67,11.67,0,0,1,3.73,0,2.82,2.82,0,0,0,1.85-.07,6.46,6.46,0,0,1,3.77-.29c.27,0,.44.39.83.06.66-.57,1.29-1.17,1-1.91-.12-.34-.67-.54,0-.91s-1.17-.66-.11-1.1c-.56-.77.36-1.47.18-2.26a11.55,11.55,0,0,1,0-2.63V33.07c0-.34-.2-.83,0-1,1.33-.83-.28-2.16,1.12-2.93-1-.54-.63-1.11-.07-1.67-1-.6-.38-1.39-.47-2.09a1.33,1.33,0,0,1,.45-1.49c.65-.53-.5-1-.48-1.61,0-.07,0-.15,0-.2,1.16-1.65.33-3.41.57-5.1.06-.4-.23-1,.06-1.19,1-.78.55-1.69.46-2.49s.44-1.62.17-2.52-.68-1.86.42-2.67c-1-.87-.32-1.9-.5-2.85,0-.08.31-.18.35-.29.11-.34-.29-.65.15-1.06S127.09,2.87,127.92,2.49Z"/><path d="M112.57,2.49c.18-.21.54-.43.5-.62-.16-.74.72-1.05,1.3-1.49.82-.61,1.2.23,1.82.21a.94.94,0,0,0,.54-.12c.63-.62,1.65.75,2.19-.18a2.66,2.66,0,0,0,.67.23c1.57.17,3.18.23,4.69.52.87.17,1.55-.82,2.32,0,.88-.73,1.68.31,2.64,0a10.6,10.6,0,0,1,2.68-.22c.75,0,1.45-.14,2.17-.2,1-.08,2.09,0,3.13,0s1.89.23,2.56-.39c.88,1,1.74-.18,2.62,0,1.73.34,3.62-.75,5.3.24.09,0,.42-.08.65-.1a6.51,6.51,0,0,1,2.08-.09,12.45,12.45,0,0,0,5.91.14c.53-.08.74,0,.89.16.53.63,1.09.16,1.65.06s1,.89,1.84.25A1.1,1.1,0,0,1,162,.77a3.33,3.33,0,0,0,2.54,0,2.65,2.65,0,0,1,1.12-.19c1.2.22,2.37.85,3.57,0,2.1.86,4.43.19,6.63.39,1,.08,2.07-.18,2.88.41,1.5-.41,3,1.08,4.51,0a.88.88,0,0,1,.6,0c1.31.84,2.59,0,3.89,0s2.77.27,3.69-.09,2.1.61,2.79-.25a20.12,20.12,0,0,1,3,.6c.57.21.88-.58,1.43,0,.14.15,1.25-.19,1.63,0a1.53,1.53,0,0,0,1.58-.15c.18-.09.7.18,1,.15.6-.06,1.27.07,1.76,0a7.1,7.1,0,0,1,4.06.11,2.1,2.1,0,0,0,1-.13c.67-.2,1.2.59,2,0,.41-.28,1.54-.13,2.35-.18a5.28,5.28,0,0,0,2.06-.25c.33-.15,1.18.2,1.81.24,2.94.19,5.95-.37,8.85.39a2.58,2.58,0,0,0,1.1-.2,3.61,3.61,0,0,1,2.55,0c.46.21,1.18-.42,1.57.17.35-.1.85-.36,1-.29.94.39,1.79-.38,2.55-.08s1.58.62,1.89.34c.61-.55,1.25.05,1.91-.24.92-.41,2.34.1,3.35-.46.61.57,1.55.19,2.29.35a15.6,15.6,0,0,1,1.77.65c2.37.83,2.72,1.39,2,3.06-.14.3-.34.8-.12.93,1.24.7-.11,1.83,1.06,2.5-1,.82-.48,1.65-.07,2.48-1.35.52.24,1.17-.21,1.84a2.17,2.17,0,0,0-.13,2.34,3.72,3.72,0,0,1,.49,2.69c-.09,1.23.49,2.48-.5,3.71-.32.39,1,1,.23,1.77-.39.38.35,1.24.58,1.88.08.23.34.63.24.67-1.05.43.15,1.05-.11,1.25-.7.53-.35.81.21,1.16-.89.36-.58.94-.61,1.45a3.4,3.4,0,0,0,0,1.62,9.12,9.12,0,0,1,.56,4.77c-.06,1.23.54,2.5-.55,3.69-.24.26.89.67,0,1.11-.13.06.7.77.52,1-.37.44-.22.72,0,1.12s.12.93.45,1.29c.61.66-.21,1.08-.41,1.61s-1,.27-1.48.38a10.64,10.64,0,0,0-1.92.42c-.73.32-.89-.5-1.83-.21a6.84,6.84,0,0,1-3.31-.3c-1.13-.35-2.44.64-3.41-.3a6.74,6.74,0,0,0-1.34.25,2.75,2.75,0,0,1-.83.12c-1-.75-2.37-.35-3.53-.35a12,12,0,0,1-2.88,0c-1.06,1-1.9-.5-3-.1-.66.24-1.6-.2-2.35.27a2.17,2.17,0,0,1-1.4.12c-1.07-.79-2-.18-3,0-.33.08-.88.33-.9.3-.8-.72-1.52.21-2.05.06a5,5,0,0,0-2,0,12.37,12.37,0,0,1-4.48-.31c-.4-.11-1.15.63-2,0-.27-.19-1.66.35-2,.15-.85-.46-1.66.16-1.73.11a3.43,3.43,0,0,0-2-.34,23.62,23.62,0,0,1-2.68-.22c-.73-.12-1.63.72-2.19-.17-.35.66-1,0-1.57.15s-1.31-.2-1.69,0c-1.37.59-2.82.16-4.22.26-.41,0-1.19-.41-1.25-.35-.74.61-1.35.07-2.05,0-1.36-.06-2.84-.4-4.2.24a7.74,7.74,0,0,1-1.8.1c-.78.08-1.42-.58-2.38-.06-.32.18-1.43-.78-2.22,0a3.25,3.25,0,0,0-3.26,0,8.81,8.81,0,0,0-3.81-.4,2.67,2.67,0,0,0-1.16.11c-.58.43-.82.09-1.14-.12s-.59-.53-1.15-.11a1.78,1.78,0,0,1-1.12.09c-.73-.74-1.68,0-2.51-.19a17.56,17.56,0,0,0-3.34-.17,11.86,11.86,0,0,0-3,.18,12.2,12.2,0,0,1-3.06-.19c-1.15,0-2.3,0-3.45,0s-2.13-.46-3.27,0c-.31.11-.93-.13-1.4-.19s-1.17-.29-1.42-.16c-1.41.72-3,.22-4.48.38-1.07.11-2.29-.32-3.22.39a1.35,1.35,0,0,1-.79-.15c-.68-.53-.9.35-1.49.17a6.42,6.42,0,0,0-1.92-.38c-.58,0-1,.72-1.79.13-.92-.73-1.23.43-2.16.29a13.68,13.68,0,0,0-4,0,3.27,3.27,0,0,1-2-.07,7.53,7.53,0,0,0-4.08-.29c-.3,0-.48.39-.9.06-.72-.57-1.4-1.17-1.13-1.91.13-.34.73-.54,0-.91s1.27-.66.13-1.1c.6-.77-.39-1.47-.19-2.26a11,11,0,0,0,.05-2.63V33.07c0-.34.22-.83,0-1-1.43-.83.31-2.16-1.21-2.93,1.08-.54.68-1.11.07-1.67,1.07-.6.42-1.39.52-2.09a1.28,1.28,0,0,0-.49-1.49c-.7-.53.54-1,.52-1.61,0-.07,0-.15,0-.2-1.25-1.65-.35-3.41-.61-5.1-.06-.4.25-1-.07-1.19-1.12-.78-.59-1.69-.49-2.49s-.48-1.62-.19-2.52.74-1.86-.45-2.67c1.1-.87.34-1.9.54-2.85,0-.08-.34-.18-.38-.29-.12-.34.32-.65-.16-1.06S113.47,2.87,112.57,2.49Z"/></g><g id="レイヤー_2" data-name="レイヤー 2"><g id="Ec6QiD"><path class="cls-1" d="M82.69,22.89c-.3.34-.79.46-.42,1.1.18.3-.07.87-.15,1.32-.12.64.32,1.38-.34,1.92l.49,1.89h-1a1.23,1.23,0,0,1-1.24-1,1.93,1.93,0,0,1,0-.34c0-.63-.22-1.4,0-1.86s-.46-1.12,0-1.44c.63-.48,0-1.23.55-1.71.19-.16.13-.63.11-1a9.76,9.76,0,0,1,.65-3.7c.11-.3.53-.75.17-1.12s.3-.64.23-1a2.71,2.71,0,0,1,.61-2.16c.06-.07.11-.26.07-.3-.51-.46-.07-1,.14-1.19a1.63,1.63,0,0,1,1.33-.42c.54.15.9-.57,1.48-.1.33.27,1-.12,1.41.37.09.11.51,0,.78-.1S87.89,12,88,12a2.81,2.81,0,0,0,2.27.49l1.11,2.41L90,16l1.41.07c0,.33,0,.61,0,.88s-.15.46-.5.49a1.22,1.22,0,0,0-.7.34c-.34.32-.54.41-1,.1-.27-.19-.83,0-1.25.06-.21,0-.45.2-.61.15-.5-.16-.94-.44-1.48,0-.12.1-.56-.26-.86-.29a18.06,18.06,0,0,0-1.82,0c0,1.14-.73,2.19-.33,3.38l1.74-.28a.37.37,0,0,0,.24-.2c.27-.73.87-.85,1.55-.83.32,0,.56,0,.53-.43,0-.64.28-.95.91-.95s.78.31.8,1a.67.67,0,0,0,.6.77c.46.13.85.48,1.31.59a3.3,3.3,0,0,1,2.26,1.94A6.17,6.17,0,0,1,93,26.35c-.06.3.16.69,0,.94-.29.63-1.17.75-1.42,1.46-.38-.54-1,0-1,.07-.4.58-.65-.1-1-.07a8.24,8.24,0,0,1-1.72,0,19.12,19.12,0,0,1-3.13-.38c-.35-.09-1.21-.19-1-1.06a.76.76,0,0,0,0-.49,4.65,4.65,0,0,1-.66-2.72A4.34,4.34,0,0,0,82.69,22.89Zm.86-7.32a5.28,5.28,0,0,0,1.13.43,1.75,1.75,0,0,0,1.57-.33A2.52,2.52,0,0,0,88,16a.44.44,0,0,0,.29-.11c.43-.44.36,0,.42.23,0,.05.23.11.3.08a2.09,2.09,0,0,0,.37-.36c-.64-.35-.08-1.08-.47-1.5-.17-.18-.59-.43-.66-.37-.82.67-1.5-.28-2.26-.14-.18-.6-.64.48-.88-.14,0-.08-.79,0-.85.08-.14.33,0,.75-.39,1.05C83.69,15,83.66,15.29,83.55,15.57ZM85,24.68c0,.38.16.71,0,.92s-.33.46,0,.72.48.39.51.36c.55-.56,1.2.39,1.72-.11V24.68Zm6.52,1.09a5.3,5.3,0,0,1-1.75-.26c-.44-.26-.5.06-.62.21s.35.63-.14.85c0,0,0,.11,0,.17a.9.9,0,0,0,0,.16.23.23,0,0,0,.12.12,4.77,4.77,0,0,0,1.69,0C91.18,26.87,91.3,26.24,91.55,25.77Zm-4.34-3.14a5,5,0,0,0-.77-1.06c-.28-.22-1.81.57-1.88.95,0,.11.24.26.38.39.47-.59,1-.08,1.43,0A2.83,2.83,0,0,0,87.21,22.63Zm1.49-.73c-.07.77.07,1.24.79,1.36.2,0,.39.16.6.18s.4-.07.6-.07a1.24,1.24,0,0,1,.36.11c0-.11.09-.27,0-.31a3.1,3.1,0,0,0-.73-.59C89.87,22.33,89.33,22.15,88.7,21.9Zm-6-.3h-.3l.12.92h.18Z"/><path class="cls-1" d="M141,21.86c.4.16-.23-1.07.64-.43a2,2,0,0,0,1.49.07c.48-.16.76.48,1.33.12.29-.19,1,.15,1.47.4a2.57,2.57,0,0,1,1.09,1.6c.12.4-.08.89.33,1.22a4,4,0,0,0-1.1,1.78s-.11.05-.11,0c-.35-.64-.6.16-1,.07a1.89,1.89,0,0,0-1.35,0c-.48.38-.75-.12-1.12,0s-.63,0-1,.21a1.36,1.36,0,0,1-1.12.08c-.24-.08-.28-.62-.53-.77-.7-.43-.54-1.3-1-1.83.51-1-.52-2.09.33-3a.4.4,0,0,0,0-.32c-.59-.14-.62-.4-.37-.95.17-.38-.07-.93.05-1.36.18-.63-.33-1.16-.1-1.81a7,7,0,0,0,.12-1.85c.63-.26,1.38.17,2-.41.1-.1.56,0,.75.16s.4,0,.49-.15.24-.47.17-.57a1.53,1.53,0,0,1-.41-1.46,6.38,6.38,0,0,1,.62-1.78c.33-.22,1.16.18,1.22.62s0,.81,0,1.2a7.18,7.18,0,0,0,.36,1.74,1.14,1.14,0,0,0,.77.54,10.37,10.37,0,0,0,1.37,0c.77,0,1,.46,1,1.32a4.82,4.82,0,0,0,.16,2.16c.2.43-.61,1.85-1,2-.32-.72-.93.08-1.18-.17-.47-.47-.89.34-1.43-.11-.34-.29-1.11-.06-1.68-.05C140.83,20.17,140.76,20.28,141,21.86ZM141,18.48a14.47,14.47,0,0,1,1.61-.21c.5,0,1,.13,1.51.15.19,0,.39-.17.6-.19s.45.13.6.05c.51-.24.4-.75.39-1.19s-.47-.32-.75-.38-.39-.49-.8-.08c-.19.19-.82-.12-1.24-.11s-.78.14-1.18.18c-.16,0-.19-.45-.4-.28C141,17.06,141.53,17.78,141,18.48Zm.7,6.54c.93-.22,1.92.31,2.78-.36.51.53.78.05.85-.31s-.29-.6-.54-.73a4.59,4.59,0,0,0-3.22.16c-.2.12-.48.3-.1.61C141.59,24.5,141.6,24.77,141.68,25Z"/><path class="cls-1" d="M69.66,24.66c-.4,1.12-.92,2.23-1.44,3.33-.89.35-1.59,1.15-2.63,1.13a5.27,5.27,0,0,1-.69,0c-.37-.07-.85.26-1.08-.22s-1.17-.91-1-1.78-.32-1.76.22-2.48a6,6,0,0,1,2.72-1.72c.65-.25,1.28-.54,1.89-.8-.18-.79-.39-1.53-.52-2.28-.09-.57-.33-.89-.68-.66s-.6.42-1,0-1,.54-1.42-.05c-.73.67-1.64.09-2.44.42-.3-.78-.27-1.39.39-1.85a4.71,4.71,0,0,1,.73-.31c.42-.19.74.39,1.15.14s.68-.08,1.08,0a4.82,4.82,0,0,0,1.67-.28,16.91,16.91,0,0,1,0-1.73.67.67,0,0,1,.43-.48c.22-.05.51.38.73-.07.06.07.17.13.19.21.16.68.3,1.37.45,2.1l1.24.21a4.36,4.36,0,0,0,.59.17c.16,0,.33-.12.49-.12s.4.1.59.08.26-.22.41-.25a1.05,1.05,0,0,1,1.36.79,1.42,1.42,0,0,1-1.22,1.25A16.14,16.14,0,0,1,70,19.29c-.39,0-1.09.3-1,.57.29,1.11-.08,2.55,1.49,3.06.41.13.54.68,1.09.73.19,0,.36.5.51.78s0,.41.11.46c1.18.7.92,1.84.93,2.9v.91H71.53c0-.06-.14-.23-.11-.34.19-.55-.15-1-.17-1.57a2.48,2.48,0,0,0-1.59-2.13c-.08,0,0,0,0,0a1.25,1.25,0,0,0-.1-.27s-.14,0-.21.06A.68.68,0,0,0,69.66,24.66Zm-5.51,1.88c.24.11.47.25.71.34a1.72,1.72,0,0,0,2.32-.63,6,6,0,0,0,.42-1.53c.08-.38-.18-.5-.5-.42s-.37.33-.55.32c-1.23-.09-1.82.6-2.16,1.67C64.36,26.38,64.24,26.45,64.15,26.54Z"/><path class="cls-1" d="M176.1,30l-1,.24c-.36.1-.83-.18-.71-.47.24-.62.56-1.12.1-1.84A6.19,6.19,0,0,1,174,26.1c0-.15-.09-.3-.2-.64-.46.42-1,.69-1.13,1.09-.21.86-.75.87-1.39.84a1.85,1.85,0,0,1-1.76-1c-.26-.53-.66-1.05,0-1.64.1-.09-.2-.54-.15-.8s.41-.54.44-.84c.07-.62.21-1.05,1-.93.25-.75.63-1,1.32-.41.1.09.5-.08.68-.23a1.08,1.08,0,0,0,.17-1.25c-.12-.36-.51-.51-1-.53a5.25,5.25,0,0,1-2.3-.25c-.58-.27-.4-.55-.46-.88a.73.73,0,0,1,.61-.88,2.51,2.51,0,0,1,1.76.29c.76.46,1.36.08,1.43-.77,0-.16,0-.32,0-.6.66.15,1.19.27,1.47,1,.13.32.57.51.87.76l1.48.1.59,0c-.47.22.11.67-.12.83a6.81,6.81,0,0,1-1.42.73c-.24.11-.69,0-.77.16-.2.34-.44,1-.29,1.12.43.44-.61.86.1,1.29.22.13,0,.86.13,1.29.06.24.33.44.51.64s.33.33.48.5c0,0,0,.08-.07.11s-.13.1-.12.12c.18.58.63,1.23.49,1.72a5.32,5.32,0,0,0-.27,1.42C176.09,29,176.1,29.53,176.1,30Zm-5.25-6a8,8,0,0,0,.48,1.11.62.62,0,0,0,.55,0c.27-.48.47-1,.8-1.75Z"/><path class="cls-1" d="M123.31,16a10.26,10.26,0,0,1,1.36,0,.82.82,0,0,0,1-.54c.23-1.12,1-.85,1.71-.81,0,.21,0,.38,0,.54.11,1,.41,1.26,1.4,1.14.22,0,.54-.25.64-.17a8,8,0,0,1,1.06,1.11c.05.06-.08.3-.16.43a.91.91,0,0,1-1.21.32c-.65-.32-1.2.13-1.8.07-.43,0-.53.42-.23.87a2.13,2.13,0,0,1,.29.56c.07.25-.09.64.37.59.19,0,.36-.23.54-.36l1.34-1s.13,0,.16,0a3.82,3.82,0,0,1,1,.86c.12.19,0,.64-.18.9s-.53.65-.75.61c-.85-.15-.74.59-1,1,.32.08.78.05.92.25a6.34,6.34,0,0,1,.74,1.58c0,.12-.18.41-.35.52-.48.33-.77.25-1.38-.39-.27-.28-.52.5-.75,0a1.86,1.86,0,0,0-.38-.69c-.09-.08-.51,0-.54.08-.16.4.17.91-.26,1.28a.46.46,0,0,0,.15.35c.54.33,1.11.9,1.66.88s1.08.12,1.62.07c.31,0,.92.35.94.6a1.21,1.21,0,0,1-1.64,1.13c-.29-.13-.62-.37-.88-.31s-.51.42-.76,0c-1.32,0-1.35,0-1.66-.29-.63-.61-1.39-1.15-1.47-2.14,0-.12,0-.34.07-.35.71-.22,0-.91.44-1.28.2-.17-.17-.86.55-.76a4.62,4.62,0,0,0,.08-1.27,20.28,20.28,0,0,0-.71-2.12c-.06-.14-.23-.28-.22-.41a7.14,7.14,0,0,1,.18-1,4.72,4.72,0,0,1-1.07-.31C123.3,17.2,123.14,16.8,123.31,16Z"/><path class="cls-1" d="M182.64,19.8c-.5-1.28-1.7-.87-2.47-1.37-.36.59-.72,0-1.09,0s-.53,0-.58-.4.3-1,.54-.93c.88.12,1.63-.52,2.44-.37a7.27,7.27,0,0,1,2.09.76c.34.19.44.77.77,1s.18.58.07.91a.91.91,0,0,0,.09.64c.07.17.41.29,0,.43a1.36,1.36,0,0,0-.55.31,10.79,10.79,0,0,1-.63.93,5.12,5.12,0,0,1-1,.57,6.71,6.71,0,0,1,1.78,2.74c.15.34.49.59.66.93s-.55.95,0,1.43a2.74,2.74,0,0,1-.93,1.17c-.39.25-1.05.36-1.16,1,0,.1-.25.17-.39.22-.65.25-1.24-.22-1.93-.14-.47.06-.9-.61-1.12-1.16a.33.33,0,0,1,0-.17c.06-.66-.12-1.56.24-1.93a2.57,2.57,0,0,1,2.45-1.08,5.38,5.38,0,0,0,.92,0,8.19,8.19,0,0,0-2.68-1.65c-.21-.11-.52-.25-.56-.42a1.13,1.13,0,0,1,.23-.75A16.46,16.46,0,0,0,181.07,21C181.35,20.45,182.1,20.18,182.64,19.8Zm-1,7.57-.35.21c.05.05.12.16.16.15s.33-.13.5-.19c-.09-.05-.17-.1-.66.35v-.15a1,1,0,0,0-.26.1s0,.14.06.21A3.85,3.85,0,0,0,181.63,27.37Z"/><path class="cls-1" d="M152.78,28.77l-.5-.49c-.94-1-.71-1-.28-2.28a26,26,0,0,0,1.11-3.4c.11-.59,0-1-.52-1.06a3,3,0,0,0-.52,0c-.23,0-.46,0-.69,0-.62-.06-1.21-.48-1.19-.83s.83-1.36,1.15-1.16c.71.46,1.42.15,2.12.27a.64.64,0,0,0,.77-.62c.06-.8.27-1,1-.76,1,.29,1.06.46.5,1.19a6.05,6.05,0,0,1-.53.56,10.81,10.81,0,0,0,1.22,1,3.17,3.17,0,0,1,1.73,3.15,7.07,7.07,0,0,0,0,1.38c.12,1.25-.74,1.94-1.53,2.63-.15.14-.64,0-.9-.12a.51.51,0,0,1-.21-.82,4.17,4.17,0,0,0,.71-1.76,6.71,6.71,0,0,0,.2-1.54c0-.22.06-.5,0-.68a2.62,2.62,0,0,0-.59-.61c-.34-.32-1.05-.18-1.05.25,0,1.61-1.2,2.93-1.09,4.56,0,.38-.16.43-.49.5C153,28.15,152.9,28.54,152.78,28.77Z"/><path class="cls-1" d="M160.62,21.76c-.08-.22-.09-.41-.2-.51-.33-.32-.32-.69.05-.82.69-.23.07-1.23.78-1.28a5.62,5.62,0,0,1,1.58.32,6.6,6.6,0,0,1,4,2.72c.53.74-.23,1.55.29,2.24-.7.55.12,1.57-.66,2.1.18.18.49.33.09.61a5.67,5.67,0,0,0-.61.59c-.34-.67-.8.31-1.06-.05-.57-.75-1.24.21-1.8-.18a2.36,2.36,0,0,1-2.13.08c-.7-.2-.7-.2-.7-.57s0-.81,0-1.2.15-.88-.24-1.29c-.16-.18.47-.49.11-1-.18-.23.12-.83.25-1.25A2.39,2.39,0,0,1,160.62,21.76Zm4.54,4c-.15-.81-.48-1.49-.28-1.77.52-.72-.54-1.1-.2-1.7,0-.08-.09-.41-.15-.41-.78,0-1.3-1.07-2.13-.67l-.47,2.48c.7.63.08,1.58.49,2.32.31-.26.18-1.07.75-.64S164.35,25.51,165.16,25.79Z"/><path class="cls-1" d="M104,21.74c1.06,1,.11,1.81.36,2.33.37.8.13,1.54.27,2.29s.27,1.5.42,2.32c-.63.1-1.13.23-1.63-.23a1.64,1.64,0,0,1-.53-1.34c0-.76.28-1.61-.55-2.18,0,0,0-.17,0-.24.49-1,.07-2,.25-3-.38-.15-.63-.49-1.12-.33a1.87,1.87,0,0,1-1-.2c-.72-.24-.83-.69-.31-1.2a6.65,6.65,0,0,1,.65-.51c.4.6.91-.2,1.39.11s.73-.13.55-.39c-.34-.49.22-.64.27-1s.89.12,1.11-.46c.17.21.46.41.49.65a14.12,14.12,0,0,1,0,1.73h3c0,.21,0,.44.09.51.38.29.51.81.28,1a1.4,1.4,0,0,1-1.24.39C106,21.69,105.17,22,104,21.74Z"/><path class="cls-1" d="M137.75,27.41a5.38,5.38,0,0,0,.91-.08c.17,0,.26-.4.49-.09.5.68,1.45.44,2,1,.26.25.33,0,.51,0a.82.82,0,0,1,.64-.07c1.25.77,2.49.3,3.63-.15a5.69,5.69,0,0,1,1.81-.18.81.81,0,0,1,.63.44.89.89,0,0,1-.23.69c-.51.61-.62.68-1.92.88a4.69,4.69,0,0,0-1.59.35c-.42.22-1-.23-1.43.27-1-.57-2.27.09-3.28-.64a2.55,2.55,0,0,0-1.45-.59c-.52,0-.92-.36-1.49-.2s-.9-.37-1-.86c-.08-.65-.22-1.28-.33-1.92s.18-1.33-.21-2c-.1-.17.23-.61.36-.93.41.2,1,.3,1.19.63a5,5,0,0,1,.73,2.27Z"/><path class="cls-1" d="M97.67,19.73v2.93c.79.47-.28,1.14.12,1.54s-.13,1.28.56,1.66c-.7.51-.1.8.17,1.2a1,1,0,0,1-.59,1.61.72.72,0,0,1-.58-.06,2.65,2.65,0,0,1-1.07-1.79c0-.46-.42-1.08-.24-1.34.38-.51-.25-.73-.13-1.15a5,5,0,0,0,0-1.54,4.2,4.2,0,0,1,.22-1.68C96.33,20.33,97,20.2,97.67,19.73Z"/><path class="cls-1" d="M74.52,24.53c-1.11-1.61-.71-3-.17-4.37a5.35,5.35,0,0,0,.49-1c.07-.41.31-.47.58-.38a1.93,1.93,0,0,1,.8.51c.11.13.06.44,0,.66a33,33,0,0,1-.71,3.28C75.4,23.67,75,24,74.52,24.53Z"/><path class="cls-1" d="M136.65,21.53H135.1c-.15-.37-.31-.76-.46-1.15-.08-.19-.13-.52-.23-.54-1.2-.16.56-.68-.12-.88.27-.25,1.65-.27,1.69,0,.09.6.59.8.9,1.16s-.07.34-.11.5A6.37,6.37,0,0,0,136.65,21.53Z"/></g><path class="cls-1" d="M112.93,15.63h2.42c.31-.62-.13-1.33.42-1.93s1.23-.65,1.58-.1c.05.08,0,.24,0,.36,0,.38-.13.76-.14,1.14,0,.79.3,1.16,1.12,1.24a10,10,0,0,0,1.73,0c.83-.08,1.1.1.93.77a5.5,5.5,0,0,1-.49,1c-1-.08-2.12.23-3.3-.51,0,.7-.2,1.4,0,1.66s0,.79.24,1.2.56.51.74.38c.87-.64,1.66.34,2.51.06.12,0,.47.41.59.69a3,3,0,0,1,0,1h-2.65a6.08,6.08,0,0,0,.24,3.22c.14.49,1,.87,1.2.55.82-1.05,1.88-.48,2.8-.65a1.18,1.18,0,0,1-.72,1.74c-.29.13-.54.35-.84.47-.49.21-1,.38-1.49.56-.45-.72-1.52.07-1.92-.78-.23-.48-.53-.93-.72-1.43a12.2,12.2,0,0,0-.28-1.26c-.21-.39.13-1-.45-1.2,0,0,0-.22,0-.33s.68-.33,0-.49c-.09,0-.31.24-.36.4a5.17,5.17,0,0,1-.38,1.38c-.56.77-.12,1.74-.66,2.5a7.71,7.71,0,0,0-.58,1.41c-.82-.69-1.64-1.15-.81-2.23-.49-.47.1-1,0-1.43s.29-1,.4-1.57a5,5,0,0,1,.24-.71c-.37,0-.57-.65-1.1-.22a1,1,0,0,1-1,.08c-.74-.68-1.07,0-1.55.4-.1-.12-.2-.26-.31-.38-.37-.36-.86-.7-.17-1.2-.71-.31.37-.83-.15-1.22-.36-.26.59-.72,0-1.08a3,3,0,0,1,.19-.46c.29-.66,0-1.5.66-2-.79-.89.33-1.41.45-2.13.09-.51,1.1-.69,1.6-.36.31.21.68.5.2.95C113.07,15.12,113.05,15.31,112.93,15.63Zm-.44,1.75c-.08.13-.13.17-.14.22-.12.41-.46,1-.31,1.2.42.56-.06.71-.22,1.05s.08.56.21.81.37.21.42.16c.64-.61,1.41-.27,2.11-.32a.82.82,0,0,0,.88-.81,3,3,0,0,0-.42-2.23c-.6.33-1.15-.23-1.76-.09A3.33,3.33,0,0,1,112.49,17.38Z"/><g id="bkLv7Z"><path class="cls-1" d="M33.9,16.16c.33.42-.39,1.11.51,1.19a.36.36,0,0,1,.06.28c-.41.49-.15.84.21,1.2a1.39,1.39,0,0,1,.25.5c-.74.38.27,1.11-.31,1.51.35.7-.1,1.4,0,2.1.06.39-.16.85.29,1.14-.45.2.13.6-.18.91a1.41,1.41,0,0,0-.34.94c0,.35.51.81.14,1s.41.61-.11.85c-.12.05.19.47,0,.76-.08.11.23.48.15.62-.2.38-.46.93-.79,1a4.92,4.92,0,0,0-2.49,1.66c-.27.27-.42.7-.73.87s-.83-.12-1.14.31c0,.05-.32,0-.41-.07a1.3,1.3,0,0,0-1.47-.17c-.88.62-2-.13-2.78.58-.39-.48-.92-.11-1.14,0-.58.4-1.11-.33-1.63.07s-1,0-1.53,0a6.49,6.49,0,0,0-2.76.13,6.94,6.94,0,0,1-2.94,0,4.7,4.7,0,0,1-1-.22c-.36-.14-.65-.47-1-.6-.76-.28.15-.43.05-.77a19.05,19.05,0,0,1-.08-2c-.12-.62.47-1.2,0-1.79A2.16,2.16,0,0,0,13,26.44a6.15,6.15,0,0,1,.06-2.1c0-.69-.34-1.46.25-2.09-.77-.42.48-1.08-.18-1.52a.32.32,0,0,1,0-.22c.34-.53,1.14-.6,1.33-1.29.95.22,1.2-.82,1.94-1.07a5.61,5.61,0,0,0,1.67-1.29,1.35,1.35,0,0,1,1.08-.49c.67.05,1-.78,1.75-.75a3.09,3.09,0,0,0,1-.3c.11,0,.31-.06.32,0,.3.63.74.18,1.12.14s.77-.25,1.07-.15.74.28,1.11-.07c0,0,.3.16.46.23a2.08,2.08,0,0,0,1.72.17,2.14,2.14,0,0,1,1.67.19c.77.45,1.53.18,2.28.25.35,0,.72-.14,1.07-.13A8.89,8.89,0,0,1,33.9,16.16ZM25.76,31.5c.37,0,.74,0,1.11,0s.71-.12,1.07-.15c.52-.06.81-.32.59-.65s-.43-.67-.11-1.09-.45-.58,0-1c.3-.27.16-.79,0-1.26s.28-1,.1-1.35a1,1,0,0,1,0-1.23c.17-.25,0-.78-.12-1.13s0-.43.05-.66a1.65,1.65,0,0,0-.2-1.06c-.12-.22-.48-.31-.74-.45-.41.89-1.24-.6-1.68.28,0,.07-.31.05-.45,0a2.25,2.25,0,0,0-1.46-.17c-.68.31-1.4,0-2,.21a7.25,7.25,0,0,1-3.06.26c-.35,0-.72-.2-1.09-.13a12.8,12.8,0,0,1-1.32.34,10.55,10.55,0,0,1-1.24-.17c-.12,0-.27.13-.37.23s-.18.27-.14.32a.79.79,0,0,1-.11,1.2c-.41.41.6.76.05,1.17.27.65-.24,1.32,0,1.91a1.11,1.11,0,0,1,0,.7c-.15,1.36-.78,2.73-.11,4.12,0,.07-.42.29,0,.38a3.55,3.55,0,0,0,1.26,0c.33,0,.81-.34.93-.22a1.05,1.05,0,0,0,1.17.2,3,3,0,0,1,1.79-.27c.43,0,.85,0,1.27,0s.95.1,1.21-.11c.48-.37.67.36,1.08.13a2.89,2.89,0,0,1,1.13-.32A13.62,13.62,0,0,1,25.76,31.5Zm5-13.44a.55.55,0,0,0-.67-.54c-.45.06-1.05.28-1.34.09a2.69,2.69,0,0,0-1.33-.28c-.43-.07-.86-.22-1.29-.3-.21,0-.5-.08-.62,0-.35.31-.68.45-1.1.14s-.74.5-1.13-.12c-.17-.28-.75.48-1.12-.05a11.21,11.21,0,0,1-2.08.74c-.61.21-1,1.11-1.87.85-.08,0-.3.19-.32.31-.09.61-.51.62-1,.67-.17,0-.32.26-.44.43s0,.2,0,.31a2,2,0,0,0,.34,0c.14,0,.32-.17.41-.12.29.18.49.51.92.11.19-.17.66.51,1-.06.37.46,1-.45,1.36.22.08.13.69,0,1-.08.67-.19,1.3-.68,2-.21a.37.37,0,0,0,.31,0c1.13-.55,2.29-.2,3.45-.2.6,0,1.66.31,1.89-.83.55-.12.59-1,1.33-.86C30.63,18.28,30.75,18.11,30.81,18.06Zm-1,12.27c.44-.21.76.11,1-.34s.62-.92,1-1c.73-.09.79-.7.83-1,.2-1.52.26-3.05.37-4.58,0-.49-.28-.94,0-1.48.16-.35-.09-.88.07-1.23s-.54-.48-.18-.93c.21-.25.11-.74.18-1.34-.62.46-1.31.72-1.42,1.12-.21.76-.95.44-1.25.86-.09.12-.15.25-.23.38s-.24.29-.21.37a1.64,1.64,0,0,1-.05,1.73c.62.45.1,1.15.4,1.73s-.1,1.11-.13,1.68,0,1.15,0,1.73-.33,1,0,1.48C30.22,29.64,30,29.93,29.84,30.33Z"/></g></g></svg>