<svg xmlns="http://www.w3.org/2000/svg" viewBox="0 0 248.36 46.21"><defs><style>.cls-1{fill:#fff;}</style></defs><g id="レイヤー_1" data-name="レイヤー 1"><path d="M247.56,32.64c-.11-1.27.46-2.67-.17-3.81a5.39,5.39,0,0,1-.4-3.1c0-.43,0-.85,0-1.29a4.82,4.82,0,0,1,.41-3.1c.56-.9.38-2.07.76-3.11-.95-.43-.58-1.08-.62-1.65s.82-1,0-1.49a1.69,1.69,0,0,0,.51-2.42c-.64-.77,1.15-1.63-.49-2.19-.06,0,.09-.36.21-.53a1.86,1.86,0,0,0-.06-2.6.55.55,0,0,1-.08-.54c.13-.39.64-1,.45-1.11-.92-.51.55-1,0-1.27-1.11-.54.65-.89.07-1.33a7.3,7.3,0,0,0,0-.81c-.05-.53-.52-.87-1.33-.9-2.43-.09-4.9.22-7.28-.38-.31-.08-.84.29-1.3.36-1,.15-.51-.68-1-.74-1.46-.18-3.05.14-4.42-.46-.66.61-1.26.42-2,0a2.47,2.47,0,0,0-1.4.17,1.75,1.75,0,0,1-1.33,0C227.5.28,226.83.3,226.2.2a3.52,3.52,0,0,0-2,.21c-.45.22-1.31-.64-1.92.08-1.29-.35-2.51.23-3.82.11-1.55-.13-3.36.28-4.63-.12-1.12-.34-2.36.72-3.06-.31a21.48,21.48,0,0,1-8.89,0,.89.89,0,0,0-.56.08c-.53.51-1.33.33-2,.3-1.31-.06-2.62,0-3.94-.15s-2.49.27-3.78-.21c-.41-.15-1.41.3-1.73.13a5.19,5.19,0,0,0-3.16-.16c-1.78.21-3.72-.46-5.41.39-.13.07-.54-.09-.82-.14C180,.33,179.3.08,179.06.2a4.43,4.43,0,0,1-3.15.31c-1-.49-2.14.59-2.76-.33-.87.76-1.66-.36-2.63,0-.5.16-1.19.65-2,.06-.52-.38-1.35.55-2,.12-1-.66-1.25.46-2.19.31a24.57,24.57,0,0,0-3.75-.05h-4.08a17.75,17.75,0,0,1-3.73,0c-1.31-.31-2.48.43-3.57,0-1.27-.46-2.45,0-3.56.1a5.61,5.61,0,0,1-2.44.11c-.75-.19-1.89.31-2.74.17a12.74,12.74,0,0,0-3,0c-2.69.17-5.43.08-8.14,0-.87,0-2.86.63-2.93,1.16-.26,1.86-1.53,3.62-1.32,5.54,0,.41.79.75.11,1.31-.42.34.08,1.09-.22,1.55s-.06.46,0,.74a18.12,18.12,0,0,1,.14,3.21c-1,.26.33.86-.43,1.17-1,.41-.49,1-.44,1.57a6.84,6.84,0,0,1,.22,1.15c0,.44-.33.87-.35,1.31s.49.79.29.95c-.72.56-.81,1-.06,1.57.24.19.15.64,0,.93-1,2.15-.49,4.34-.24,6.5,0,.48.29.87,0,1.4s.45,1.09.28,1.57a2.66,2.66,0,0,0,0,2,5.47,5.47,0,0,1,.06,2v1.82a13.59,13.59,0,0,0,0,2,9.74,9.74,0,0,0,.6,1.66c-1.6.32.48,1.15-.52,1.55-.14,1.28,1.21,1.87,3,1.73a62.17,62.17,0,0,1,8-.09c.73,0,1.5.4,2.12,0,1-.68,1.35.67,2.16.25,1.48-.77,3.19-.27,4.78-.38,1.13-.08,2.51.22,3.37-.11a6.11,6.11,0,0,1,3.24-.24,10.42,10.42,0,0,0,2.64-.08c1-.06,2.05.26,2.93-.35.2-.14.95,0,1.43.09a7,7,0,0,0,1,.24c1-.82,2-.17,3,0,.53.11,1.32.41,1.53.29a2.93,2.93,0,0,1,2.55-.14c.94.44,1.28-.38,2.12-.19a13.68,13.68,0,0,0,2.8,0c.94,0,1.89,0,2.83,0a15.72,15.72,0,0,1,3,.18c.94.21,1.5-.4,2.44-.24.64.12,1.67-.46,2.18-.3a6.66,6.66,0,0,0,2.3.35,12.86,12.86,0,0,1,2.49,0,3.46,3.46,0,0,0,2,0c.35-.12,1,.45,1.6,0,.37.6,1.47-.41,1.78.34.64-.13,1.27-.29,1.93-.38a2.59,2.59,0,0,1,.84.14c.35.07,1,.22,1,.2.61-.89,1.56.18,2.23-.18.94-.5,1.64.06,2.45.21a2.37,2.37,0,0,0,1.22,0c.84-.61,1.57,0,2.33,0,1,0,2.08-.33,3,.29a1.4,1.4,0,0,0,.82,0c2.69-.74,5.51-.13,8.25-.33.88.55,1.94-.25,2.58,0,1.13.51,2,0,3,0a17.07,17.07,0,0,1,4.46.38,14.84,14.84,0,0,0,2.5,0H231c.83,0,1.67,0,2.5,0a16.07,16.07,0,0,1,2.1.18,6.5,6.5,0,0,0,1.89-.16,13.1,13.1,0,0,1,2.8,0,6.82,6.82,0,0,1,2.13.57c.72.33,1.37-.73,2,0,1-.14,2.21,0,2.75-.66a1.17,1.17,0,0,0,.13-1.45c-.48-.46-.35-.88-.4-1.32a4.51,4.51,0,0,1,0-1.42c.11-.49.52-1,.57-1.45.1-.87-.4-1.9.15-2.59s-1.09-1.63.5-2.18c0,0,0-.29-.11-.36C247,34.12,247.63,33.34,247.56,32.64Z"/><path d="M.85,32.64C1,31.37.37,30,1,28.83a5.1,5.1,0,0,0,.43-3.1c0-.43,0-.85,0-1.29,0-1,.29-2-.44-3.1-.61-.9-.41-2.07-.82-3.11,1-.43.63-1.08.67-1.65s-.89-1,0-1.49a1.61,1.61,0,0,1-.54-2.42C1,11.9-.9,11,.87,10.48c.06,0-.09-.36-.22-.53a1.77,1.77,0,0,1,.06-2.6A.53.53,0,0,0,.8,6.81C.66,6.42.1,5.81.31,5.7c1-.51-.59-1,0-1.27C1.48,3.89-.4,3.54.22,3.1a5.47,5.47,0,0,1,0-.81c.06-.53.57-.87,1.43-.9C4.26,1.3,6.91,1.61,9.48,1c.33-.08.89.29,1.39.36C12,1.52,11.42.69,12,.63c1.57-.18,3.28.14,4.75-.46.71.61,1.35.42,2.17,0a2.82,2.82,0,0,1,1.5.17,2,2,0,0,0,1.44,0c.59-.13,1.31-.11,2-.21A4,4,0,0,1,26,.41c.48.22,1.41-.64,2.06.08,1.39-.35,2.7.23,4.11.11,1.66-.13,3.61.28,5-.12,1.2-.34,2.53.72,3.28-.31A24.8,24.8,0,0,0,50,.18a1,1,0,0,1,.59.08c.57.51,1.43.33,2.15.3C54.13.5,55.53.53,57,.41S59.63.68,61,.2c.44-.15,1.51.3,1.86.13A5.94,5.94,0,0,1,66.27.17c1.91.21,4-.46,5.8.39.15.07.58-.09.89-.14.5-.09,1.21-.34,1.47-.22a5.07,5.07,0,0,0,3.38.31c1.06-.49,2.3.59,3-.33.94.76,1.79-.36,2.84,0,.53.16,1.27.65,2.15.06.56-.38,1.45.55,2.17.12C89-.35,89.27.77,90.28.62a28.38,28.38,0,0,1,4-.05h4.38a20.49,20.49,0,0,0,4,0c1.41-.31,2.66.43,3.83,0,1.36-.46,2.63,0,3.82.1A6.47,6.47,0,0,0,113,.76c.82-.19,2,.31,3,.17a14.61,14.61,0,0,1,3.17,0c2.9.17,5.83.08,8.75,0,.94,0,3.07.63,3.15,1.16.28,1.86,1.64,3.62,1.41,5.54-.05.41-.85.75-.11,1.31.44.34-.08,1.09.23,1.55s.07.46,0,.74a16.42,16.42,0,0,0-.16,3.21c1.07.26-.35.86.47,1.17,1.07.41.52,1,.47,1.57a6,6,0,0,0-.24,1.15c0,.44.35.87.38,1.31s-.52.79-.31.95c.77.56.86,1,.06,1.57-.26.19-.16.64,0,.93,1.08,2.15.53,4.34.26,6.5-.06.48-.32.87,0,1.4s-.48,1.09-.29,1.57a2.48,2.48,0,0,1,0,2,5.07,5.07,0,0,0-.06,2v1.82a12.36,12.36,0,0,1,0,2,9.2,9.2,0,0,1-.65,1.66c1.72.32-.51,1.15.56,1.55.16,1.28-1.3,1.87-3.27,1.73a71.72,71.72,0,0,0-8.55-.09c-.79,0-1.61.4-2.29,0-1.08-.68-1.44.67-2.31.25-1.59-.77-3.42-.27-5.13-.38-1.22-.08-2.7.22-3.62-.11a7.07,7.07,0,0,0-3.49-.24,12,12,0,0,1-2.83-.08c-1-.06-2.2.26-3.15-.35-.21-.14-1,0-1.54.09a7.92,7.92,0,0,1-1.11.24c-1.12-.82-2.14-.17-3.19,0-.57.11-1.41.41-1.64.29a3.36,3.36,0,0,0-2.74-.14c-1,.44-1.38-.38-2.28-.19a15.8,15.8,0,0,1-3,0c-1,0-2,0-3,0a18,18,0,0,0-3.24.18c-1,.21-1.62-.4-2.62-.24-.7.12-1.8-.46-2.35-.3a7.61,7.61,0,0,1-2.47.35,14.77,14.77,0,0,0-2.67,0,4,4,0,0,1-2.19,0c-.38-.12-1.1.45-1.73,0-.39.6-1.57-.41-1.9.34-.69-.13-1.37-.29-2.08-.38a3,3,0,0,0-.9.14c-.38.07-1.08.22-1.1.2-.65-.89-1.67.18-2.39-.18-1-.5-1.77.06-2.64.21a2.68,2.68,0,0,1-1.3,0c-.91-.61-1.69,0-2.51,0-1,0-2.23-.33-3.17.29a1.61,1.61,0,0,1-.88,0c-2.9-.74-5.93-.13-8.87-.33-.94.55-2.09-.25-2.76,0-1.22.51-2.14,0-3.2,0a19.55,19.55,0,0,0-4.78.38,17.2,17.2,0,0,1-2.69,0H18.62c-.9,0-1.8,0-2.7,0a18.62,18.62,0,0,0-2.25.18,7.47,7.47,0,0,1-2-.16,15.14,15.14,0,0,0-3,0,7.71,7.71,0,0,0-2.28.57c-.78.33-1.48-.73-2.13,0-1-.14-2.37,0-3-.66-.36-.4-.5-1.12-.13-1.45s.37-.88.42-1.32a4.23,4.23,0,0,0,0-1.42c-.12-.49-.56-1-.62-1.45C.81,39,1.36,38,.76,37.28S1.93,35.65.23,35.1c-.06,0,0-.29.12-.36C1.44,34.12.79,33.34.85,32.64Z"/></g><g id="レイヤー_2" data-name="レイヤー 2"><path class="cls-1" d="M127.61,25a2.61,2.61,0,0,1,.89-2.66c.18-.18.05-.27-.36-.33a2.66,2.66,0,0,1-1-.27,1.52,1.52,0,0,1-.51-.74c0-.12.13-.37.27-.48.68-.49,1.3-1.28,2.29-.5.15.12.52,0,.87-.05a7.26,7.26,0,0,0-.48-1.15.92.92,0,0,0-1-.51,8.19,8.19,0,0,1-.86,0c-1,.05-1,.05-1.53-.49a5.92,5.92,0,0,1,.59-1c.35-.42.68-1,1.35-.29.17.16.78,0,1.11-.14.59-.29.32-.9.37-1.41.69-.33,1.06-.1,1.4.6.64,1.31,1.05,1.43,2.5,1.06a.67.67,0,0,1,.58.11,7.18,7.18,0,0,1,.69,1.09c0,.07,0,.29,0,.3a1.12,1.12,0,0,0-.83.82c-.22-.41-.65,0-.7-.07-.57-.52-1.2-.11-1.8-.3.23,1.23.27,1.23,1.29,1.44a3,3,0,0,0,1,.16,1.86,1.86,0,0,1,.78.17,1.11,1.11,0,0,1,.27.17,1.36,1.36,0,0,1,.12.12l.52.52a1.65,1.65,0,0,1-1.9.91c-.71-.09-1.48.25-2.1-.34-.54.44-1.08-.14-1.61,0a1.82,1.82,0,0,0-.82.47c-.07.08.1.54.28.65a1.54,1.54,0,0,0,.88.19c.19,0,.38-.28.56-.27.46,0,1-.54,1.37.19a.66.66,0,0,0,.61.12,1.16,1.16,0,0,1,1.45,0c.48-.55,1,.14,1.44,0s.53.13.63.53.71,1.08.58,1.44c-.24.66-.14,1.33-.33,1.93-.13.37-.72.62-1.13.86-.09.05-.34-.25-.52-.26-.45,0-.41-.34-.36-.6a3.24,3.24,0,0,1,.26-.55c-.59-.4.46-1-.05-1.18s-1.13-1.06-1.86-.66c-.37.21-.68-.2-1.05.17s-.88,0-1.34,0c-.95,0-1.21.31-1.16,1.22.08,1.38.08,1.38-1.38,1.93,0-.61,0-1.17,0-1.72s-.59-.92-.89-.65c-.73.64-1.11-.07-1.5-.36a1.44,1.44,0,0,0-1.8-.17c-.15.13-.33.47-.27.55.67.94.18,2,.33,3,.12.82-.25,1.68.21,2.5.13.22-.42.92-.7,1l-1.14.2a3.22,3.22,0,0,1-.16-2.1,2.15,2.15,0,0,0-.15-2c-.05-.07.17-.31.2-.49a1.18,1.18,0,0,0-.08-.4c-.93,0-.27,1.07-1,1.32s0,1.14-.44,1.66c-.71.23-1.21-.23-1.74-.6-.08-.05-.13-.16-.2-.24.75-.53-.1-1.58.72-2.14.25-.17.28-.67.43-1.08h1.78l.42-1.34a3.52,3.52,0,0,1-.54-.08c-.4-.12-.85.28-1.2-.5s-.67-.81-.24-1.47a5.54,5.54,0,0,0,.92-1.46c0-.15.29-.22.45-.33a3.7,3.7,0,0,1-.42-.37c-.44-.49-1.2-1-1.22-1.48a2.59,2.59,0,0,1,.87-2c1.21-.83,2.29-2.22,4.09-1.64.08,1-.11,1.26-1,1.65a5.3,5.3,0,0,0-2.15,2.26c1-.67,1.87.18,2.48-.32s.81,0,1.15.14.48,1,.16,1c-.66,0-.38.86-1.05.84-.32,0-.62.81-1,.87-.68.11-.21.44-.3.64s-.33.52.16.44a5.72,5.72,0,0,0,1.23-.46c0-.19-.14-.47-.08-.51a11.89,11.89,0,0,1,1.08-.65c.24.94.53,1.28,1.64,2.35.26.25.29.72.65,1.15.18,0,.13-.06.07-.13l-.15.15a1,1,0,0,0,.2.16S127.8,25.13,127.61,25Z"/><path class="cls-1" d="M168.59,12.47c-.23.56-.52,1-.05,1.53a4.57,4.57,0,0,1,.74,1.75c0,.16-.63.48.15.53.25,0,.47.25.73.29s.32-.11.48-.18c.19.53,1-.15,1.08.52s.49.67.92.82c.1,0,.18.46.1.61a2.68,2.68,0,0,0-.13,1.4c0,.12,0,.29-.07.35a3.27,3.27,0,0,1-.94.64c-.54.19.16,1.31-.69,1a4,4,0,0,0-1.25-.29c-.22,0-.43,0-.87,0,.28.44.45.69.61.95a.94.94,0,0,1,.14.37c0,1.1,0,1.15,1,1.08.24,0,.48-.3.72-.3s.47.22.72.31.82-.22.8.3.6,1,0,1.44c-.14.12-.32.33-.45.31-.36,0-.7-.27-1.07-.3s-.56.19-.84.19-.45-.14-.73,0L173.78,29c-.07.5-1,.11-1,.82,0,.06-.25.18-.26.16-.63-.72-1.74-.69-2.32-1.55-.27-.4-.88-.56-1.45-.89-.17.83-.3,1.51-.45,2.19a.87.87,0,0,1-.79.73c-.61.13-.54-.4-.72-.67s-.27-.5-.19-.59c.5-.64.2-1.4.38-2.08.4-1.51.3-1.72-1.19-2.18-.25-.08-.63.08-.58-.38,0-.25.09-.63.26-.73.43-.23,1.06-.6,1.38-.44.73.35.77.09.77-.49,0-.22,0-.52.11-.63s.79-.1.54-.59c-.09-.18-.62-.1-.92-.21-.55-.21-1.07.51-1.63,0a.82.82,0,0,0-.34.32,4.77,4.77,0,0,0-.49,1.85c.18,1.71-.54,3.3-.35,5.18-.63-.2-1.09-.32-1.52-.49a.5.5,0,0,1-.23-.37c.12-.82-.29-1.67.23-2.49a1.34,1.34,0,0,0,.07-1.14c-.27-.54,0-1,.05-1.45s.29-.71.3-1.07-.28-.59-.3-.89a1.73,1.73,0,0,1,.29-1.44c.13-.14.66-.69,0-1.06a1.87,1.87,0,0,1,2-1.75c.71.13,1.31-.89,2-.07.06-.14.2-.3.17-.41-.1-.3-.19-.69-.42-.84-.72-.48-.62-1.16-.6-1.84s.25-1,1-1C167.86,12.45,168.2,12.47,168.59,12.47Zm2.41,6.8c-.25-1-1.15-1-1.85-1.28-.76.72-1.49.24-2.29,0s-1.31.18-1.35,1.16c0,.27,0,.54,0,1,.24-.19.35-.35.46-.35.5,0,1.14-.21,1.46,0s.84-.39,1,.23a.85.85,0,0,1,1.3-.1.62.62,0,0,0,.57-.05A4.79,4.79,0,0,0,171,19.27Z"/><path class="cls-1" d="M116.62,16.92,116.11,19a15.41,15.41,0,0,1-2.27,0c-.27,0-.61-.51-.78-.05s-.65.85-.33,1.37a.91.91,0,0,0,1,.5,2.11,2.11,0,0,1,1,0c.43.19.68-.6,1.14-.11s.18.86.24,1.29a7.21,7.21,0,0,1,0,.81c-.63,0-1.26.29-1.88-.22-.09-.08-.5.12-.68.28a.67.67,0,0,0-.13.57c.17.63.7.91,1.65,1,.39,0,.77.13,1.16.16s.79,0,1.31,0c-.08.52,0,1.13-.23,1.32a3.34,3.34,0,0,1-1.74.69c-1.44,0-1.44,0-1.91,1.29-.17.45-.56.87-.57,1.31,0,.66-.45.87-.86,1.18s-.29,1.05-1,.77c0,0-.1,0-.15.05-1.36.74-1.36.75-2.15-.55l1.48-.85c1-.58.89-1.84,1.57-2.63.19-.22-.25-.86-.61-.84a8.82,8.82,0,0,0-2.85.17c-.84.33-1.09.18-1.34-.63,0-.11,0-.24,0-.35-.21-.72-.13-.91.43-.93.92,0,1.84,0,2.76,0h1.24V22.93a3,3,0,0,0-2.9-.18c-.44.22-1.21-.25-2-.45a6.36,6.36,0,0,0,.68-.92c.19-.38,1-.12.86-.83,0,0,.37-.18.43-.13.75.69,1.66.09,2.57.47l.07-1.72a4.2,4.2,0,0,0-1.46-.36c-.46.09-.85.33-1.25-.11,0,0-.35.22-.55.29s-.56.05-.54-.37,0-.72-.5-.63v-.34c.66.12,1-1.26,1.79-.42.3-.8.77.21,1.23-.12s1-.15,1.47-.14.86-.12,1.3.2c.21.15.71-.52,1.07.07a.49.49,0,0,0,.44,0c.48-.44.87-.35,1.33,0C115.72,17.35,116.09,17.11,116.62,16.92Z"/><path class="cls-1" d="M82.35,20.92a1.72,1.72,0,0,1,1.87-.87A1,1,0,0,0,85,19.9c.46-.45.68.05,1,.14.11,0,.3-.08.41-.18a.31.31,0,0,0,0-.32,7.36,7.36,0,0,1-1-1c-.41-.67-1.41-1.05-1.11-2.09-.54-.57-.07-1,.33-1.2.55-.27,1.35.07,1.36.58,0,.84.61,1.29,1,1.83.68,1,.77.92.8,2,.85-.09,1.69.23,2.58-.27.34-.18,1,.2,1.53.32-.26.51-.45.93-.69,1.33-.09.15-.35.38-.42.34-.9-.45-1.74.11-2.64.07v2.88a3.68,3.68,0,0,0,.85.51c1.4.34,1.45.35,2.22,1.23-.43.41-1.16-.14-1.54.47,0,.05-.3,0-.45-.06-.84-.11-1.23.18-1.11.9s.3,1.25.46,1.92a2.14,2.14,0,0,1,.5-.3,3.83,3.83,0,0,1,.68,0,1.79,1.79,0,0,0,.66-.08c.17-.09.28-.35.5-.06a.24.24,0,0,0,.23,0c.46-.56,1,.17,1.45-.07.2.44.41.87.59,1.31,0,0-.13.21-.23.24a4.1,4.1,0,0,1-1.06.34c-.45.06-.92,0-1.37,0s-1,.36-1.41.29-.72.63-1.13.11c0,0-.16.07-.23.11a4.27,4.27,0,0,1-1.33.7,6.09,6.09,0,0,1-1.68-.3l-.51-1.06a4.36,4.36,0,0,0,2.17-1.46c.62-.89,0-1.65-.12-2.54H85a3.8,3.8,0,0,1-1-1.22,2.08,2.08,0,0,1,1.37-.84c1,.07,1.06,0,1-.86,0-.42-.23-.77-.06-1.29.24-.74-.2-1-1-.69-.58.22-1.27-.25-1.76.34a.45.45,0,0,1-.23-.08C83.43,21.23,82.53,21.5,82.35,20.92Z"/><path class="cls-1" d="M93.94,21.28c.57-1.35,1.57-1.27,2.53-1.21a2,2,0,0,0,1.36-.18c-.28-.17-.57-.31-.83-.5-.06-.05,0-.24,0-.36-.2-1-.82-1.91-.47-2.89.17-.47.81-.77,1.26-1.17a2.53,2.53,0,0,1,.74,2A3,3,0,0,0,99.34,19c.16.16.1.56-.13,1.07.84,0,1.63,0,2.41,0a3,3,0,0,1,2.42.85,2.59,2.59,0,0,0,.7.37c-.61,1.1-.61,1.09-1.8,1a.57.57,0,0,0-.46.27,1.53,1.53,0,0,0-.15.79,2.86,2.86,0,0,1-1,2.37c-.72.75-.64,1.14.3,1.62a5.21,5.21,0,0,1,2,1.63c0,.12,0,.27-.06.32-.34.29-.72.8-1,.76a4.52,4.52,0,0,1-1.58-.73,7.37,7.37,0,0,1-.79-.59c-.4-.33-.75-.33-1,.16,0,0,0,.12,0,.17s-.08.29-.11.28c-1.15-.1-1.43,1.22-2.34,1.42-.29.07-.77.33-1.07-.41s-.24-.86.19-1.24a2.4,2.4,0,0,1,.86-.43,1.72,1.72,0,0,0,1-.92,1.54,1.54,0,0,0-.4-1.33,25.76,25.76,0,0,0-2.56-1.69c.3-.92,1.25-.76,2-1a.62.62,0,0,1,.33,0c.14,1.1,1.37,1.06,1.9,1.89.57-.59,1.21-1.07,1.24-2,0-.31.25-.59.32-.9s.55-.28.15-.64-.36-.17-.64,0a1.13,1.13,0,0,1-1,0c-.42-.25-.71-.51-1.13,0-.09.11-.61,0-.77-.12-.42-.39-.88-.18-1.31-.18s-.74.33-1,.24S94.26,21.56,93.94,21.28Z"/><path class="cls-1" d="M180.28,26.2c0-1.23-.49-2.06-1.73-2.29-1-.19-.89-1.22-1.58-1.55a2.82,2.82,0,0,0,.24-.36,7.35,7.35,0,0,1,2.17-2.87,3.25,3.25,0,0,0,.42-.59c-.68-.38-1.31-.14-1.9-.2-.83-.07-1-.31-.66-1.24a2.21,2.21,0,0,0,0-.68,5.18,5.18,0,0,1,3.3.53,2.25,2.25,0,0,0,.89.33c.53,0,.7.16.66.68,0,.18.19.38.3.59-.45.45-1,.93-1.43,1.42-.31.32-.74.56-.63,1.13,0,.09-.14.27-.26.33-.89.45-.83.38-.1,1.06a7.75,7.75,0,0,1,2,2.11,3.11,3.11,0,0,1-.29,3.49c-.31.43-.12,1-.46,1.18s-.66.31-.57.8c0,.09,0,.26-.12.28-1,.32-1.87,1.26-3.05.52a.75.75,0,0,0-.46-.11c-1.07.14-1.11-.87-1.51-1.41-.21-.29.09-.88-.36-1.2.5-.31.23-.83.35-1.24.07-.24.3-.57.51-.61.85-.18,1.66-.47,2.48-.66C179.05,25.52,179.69,26,180.28,26.2Zm-3.13,1.45c.15.47.26.8.38,1.14a3.74,3.74,0,0,0,.72.38.78.78,0,0,0,1.06-.49.81.81,0,0,0-.8-1C178.12,27.62,177.73,27.65,177.15,27.65Z"/><path class="cls-1" d="M141.68,19.37c0-.4,0-.68,0-1-.08-.63.69-.26.78-.68.28.11.56.21.83.33,0,0-.09.23-.12.35-.22.9,0,1.31.92,1.29a2.8,2.8,0,0,1,2.39.84c-.36,1-1.34.81-2.07,1.1a.92.92,0,0,0-.58.79h2.55c-.48,1.75-.48,1.75-2.34,1.85.12.37.2.71.33,1s.43.59.39.85c-.07.43.41.75.18,1.15s-.83.38-1.23.3a.8.8,0,0,1-.64-1c.1-.48-.19-.74-.5-1s-.13-.65.37-1.06c-.78,0-1.29,0-1.79,0s-.81-.36-1.28,0c-.11.08-.51-.12-.71-.27a1.13,1.13,0,0,1-.5-1.41h3.42c-.09-.44-.11-1-.22-1-.71-.12-1.12-1.14-1.94-.72a1.11,1.11,0,0,1-1.47-.34.88.88,0,0,1-.19-.75c.11-.26.42-.6.67-.62C139.79,19.32,140.65,19.37,141.68,19.37Z"/><path class="cls-1" d="M131.19,29.07a2.43,2.43,0,0,1-1.06,3,.83.83,0,0,1-.2-.13c-.39-.4-1-.74-.41-1.43-.58-.34.4-.68,0-1.09s.32-.52.37-.83,0-.56.08-.83a5.61,5.61,0,0,1,.35-1.23c.32-.67.54-.67,1.25-.22.22.14.52.17.73.32s.72.47.73.73c0,.9.76,1.42,1.12,2.12s1.17.39,1.51.15.54.08.79.08c.59,0,.46.45.4.72a1.65,1.65,0,0,1-1.37,1,3.29,3.29,0,0,1-3.11-1.21C132.1,29.93,131.79,29.67,131.19,29.07Zm.31-.38s-.12.08-.11.11a1.2,1.2,0,0,0,.11.23s.11-.08.11-.11A1,1,0,0,0,131.5,28.69Z"/><path class="cls-1" d="M151.75,18.81c.52.89.87,1.51.32,2.31-.18.27,0,.78,0,1.18-.12,1.23.28,2.49-.23,3.7,0,.08.11.24.15.36.15.46.27.92.43,1.37.09.25.39.56.31.71a2.87,2.87,0,0,1-.79.88c-.3.24-.71,0-.91-.48s-.56-.63-.59-1-.94-.89-.12-1.43a.53.53,0,0,0-.08-.44c-.33-.31-.31-.54,0-.86s.21-.51-.2-.6c-.19,0-.46,0-.23-.34.59-1,.42-2.11.73-3.15.11-.38-.55-.84.16-1.21A6,6,0,0,0,151.75,18.81Z"/><path class="cls-1" d="M63.3,20.41a3.83,3.83,0,0,0,1.36,0c.46-.17.62.41,1.17.19s1,.42.94,1.06c0,.49-.41.65-.63.95-.38.51-.62.1-1-.07a7.21,7.21,0,0,0-1.4-.37c-.37-.1-.67.6-1.06.07-.3.8-.79-.27-1.22.14a4.14,4.14,0,0,1-1.28.63.5.5,0,0,1-.36,0c-.55-.35-.3-.92-.35-1.4a.71.71,0,0,1,.67-.82c.67,0,1.21-.57,1.93-.38A4.8,4.8,0,0,0,63.3,20.41Z"/><path class="cls-1" d="M68.41,27.28a3.79,3.79,0,0,1-.17,1.1,1.57,1.57,0,0,1-.76.63,6.49,6.49,0,0,1-1.57.35,2.6,2.6,0,0,1-1.36,0c-.53-.25-.79.52-1.34.17a1.6,1.6,0,0,0-1.3-.1,1.25,1.25,0,0,1-1.5-.34.45.45,0,0,1,.06-.82,2.76,2.76,0,0,1,1.29-.56c.83,0,1.63-.39,2.48-.06a3.65,3.65,0,0,0,2.07-.15C67.05,27.32,67.71,27.42,68.41,27.28Z"/><path class="cls-1" d="M142.86,30.53c-1.25-.68-3-.6-3.6-2.35-.11-.31,0-1.18.16-1.18.41,0,1.07-.28,1.18.21.16.66.66.67,1,.92s.69-.14,1,.19c.15.14.55,0,.84,0s.67.12.83,0c.39-.34.81,0,1.2-.18.65-.24.71,0,.69.7s-.35.85-1,1A18.44,18.44,0,0,0,142.86,30.53Z"/><path class="cls-1" d="M82,27.5a2.77,2.77,0,0,1-1.69,1.9c-1.89,1-2.26,1.06-3.66,1a.85.85,0,0,1-.88-.8c0-.24-.11-.61.35-.59s1-.36,1.46-.61a2.22,2.22,0,0,1,1-.4c.83.1,1.24-.4,1.65-.94s.62-.62,1.08-.24C81.56,27.05,81.77,27.31,82,27.5Z"/><path class="cls-1" d="M154.4,21a9.32,9.32,0,0,1,1-.95,1.6,1.6,0,0,1,.89-.29c.3,0,.59.26.9.3s.46-.23.67-.2.92.13,1,.36c.3.72,1.15.79,1.47,1.43a.64.64,0,0,1-.46.85c-.32.05-.63.13-1,.2l-.24,0c.07-.86-.71-.47-1.07-.7a4.67,4.67,0,0,0-1.17-.49c-.31-.08-.55.55-1,.09A4.5,4.5,0,0,0,154.4,21Z"/><path class="cls-1" d="M79.67,22.3A3.14,3.14,0,0,0,77.82,20c-.59-.28-1-.94-1.58-1.52.48-.25.81-.42,1.14-.61a1.81,1.81,0,0,0,.24-.24c.29.7,1.09.57,1.58,1,.66.56.87,1.53,1.85,1.81.39.11.35.71,0,1A10.74,10.74,0,0,1,79.67,22.3Z"/><path class="cls-1" d="M161.15,27c-.19.57-.31,1-.49,1.45,0,.11-.24.2-.38.22-.81.13-1.62.23-2.42.35a6.25,6.25,0,0,0-.62.16,1.34,1.34,0,0,1-1.4-.53c-.11-.17-.33-.45-.29-.51a7.4,7.4,0,0,1,.84-.84s.11,0,.17,0C158,27.57,159.4,26.79,161.15,27Z"/><path class="cls-1" d="M70.55,17.3c.4,0,.68,0,1,0s.39.1.4.19c.24,1.28,1.16,2.43.61,3.83-1.35,0-1.94-.47-2-1.79C70.54,18.85,70.55,18.16,70.55,17.3Z"/><path class="cls-1" d="M80.24,25.57c-2.73.07-2,.31-4.23-.89.14-.28.26-.57.42-.85,0-.09.22-.24.24-.22.66.5,1.43.11,2.12.26a2.86,2.86,0,0,1,1.33.47C80.32,24.52,80.2,25.07,80.24,25.57Z"/><path class="cls-1" d="M70.2,21.75H68.58c-.08-.77-.59-1.41-.48-2.22,0-.22-.33-.56-.25-.69a2.66,2.66,0,0,1,.84-.83c.09-.06.39.12.56.24.46.33.11.88.29,1.25s.88.21.68.9A5.88,5.88,0,0,0,70.2,21.75Z"/><path class="cls-1" d="M127.47,29.16a1.79,1.79,0,0,1-1.67,1.42.62.62,0,0,1-.36,0c-.38-.25-.29-1-1-.94.13-.38-.65-.64-.13-1.1.06-.06-.58-.55-.16-.76a1.51,1.51,0,0,1,1.24.09c.46.26.74.81,1.33.95A2.91,2.91,0,0,1,127.47,29.16Z"/></g></svg>