<svg xmlns="http://www.w3.org/2000/svg" viewBox="0 0 249.34 45.02"><defs><style>.cls-1{fill:#fff;}</style></defs><g id="レイヤー_1" data-name="レイヤー 1"><path d="M114.8,13.38c.48-.3-.3-.46,0-.9A3,3,0,0,0,114.9,10a5.75,5.75,0,0,0-.75-1.43c-.63-.78.44-1.2.35-1.81,0-.32,0-.69-.2-1a5.43,5.43,0,0,1-.86-3.38c0-1.43-2.08-2.58-3.94-2.31-.51.69-1.1-.45-1.62.05s-1.45.19-2.18.29c-.49.07-1.23,0-1.44.16-.63.64-1.18-.2-1.65,0a1.51,1.51,0,0,1-1.8-.12.91.91,0,0,0-.67,0A.91.91,0,0,1,98.69.45a1.91,1.91,0,0,1-1.59.4c-.95,0-1.91,0-2.86,0s-1.73,0-2.59,0L89.24.74c-.85-.05-1.81.38-2.4.06A5.52,5.52,0,0,0,83.91.45c-5.45,0-10.9,0-16.34,0-.64,0-1.37.27-1.95-.24a1,1,0,0,0-.68-.13,6.28,6.28,0,0,1-4.78,0,2,2,0,0,0-1,0,15.6,15.6,0,0,1-6.63,0c-.25,0-.59.18-.88.17S51,.08,50.66,0a3,3,0,0,0-1,0c-.62.14-1.26.71-1.82.33-.79-.54-1.25.26-2,.1a6.49,6.49,0,0,0-2.56,0c-.77.16-1.26-.34-2-.25S39.84,0,39.19.43a.31.31,0,0,1-.23,0C38.26-.2,37.5,0,36.65.2c-.66.15-1.45,0-2.12.1A8.84,8.84,0,0,0,32,.82c-.73.41-1.55-.63-2.37,0-1.24-.7-2.65-.26-4-.32-.45,0-.79.66-1.51.17-.23-.16-1,.17-1.47.19-.78,0-1.56,0-2.34,0s-1.77.24-2.28,0c-.82-.46-1.36.23-1.94,0a2.7,2.7,0,0,0-1.92,0c-.54-.63-1.15.21-1.63,0-1.6-.77-3.33-.19-5-.38C6.7,1.17,5.94.51,5.15.36A13.37,13.37,0,0,0,3,.57L.45,3.78a1.15,1.15,0,0,1,.11.29A6,6,0,0,1,.77,6.6c-.32.9.29,1.66.12,2.52s0,1.89-.07,2.82.55,1.76-.49,2.47c.26.82,1.08,1.64,0,2.48a3.15,3.15,0,0,1,0,3.55c1,.71,0,1.38-.07,2.07,1.28.7-.43,1.37,0,2.11.2.36-.77.84,0,1.27C.44,27.33,0,28.8.84,30.18c-.83.7.29,1.35.06,2.1S1,34.05.79,34.9c-.11.49.86.78.18,1.34-.48.4.18,1.14-.54,1.66-.27.18-.3,1-.07,1.11.71.41-.1.92.4,1.42s.1,1.3.08,2a2.88,2.88,0,0,0,1.51,2.34c.11.08.47.13.52.07.58-.59,1.23.25,1.41.08C5,44.21,5.47,45,6,45c1-.09,2,.32,2.94-.35.4-.28,1.24.06,1.92-.28.37-.19,1.29.36,1.74.2a14.66,14.66,0,0,1,4.22-.37c.52,0,1.23-.4,1.5-.24a2,2,0,0,0,1.67.21c.8-.29,1.76-.64,2.35-.3.91.52,1.47-.44,2.23-.08a3.33,3.33,0,0,0,1.36.34c.44,0,.88-.31,1.31-.3s1.22.43,1.29.35c.72-.78,1.69,0,2.56-.29a4.11,4.11,0,0,1,3.18.23c.25.16.95,0,1.36-.16a1.57,1.57,0,0,1,1.61.09,1.06,1.06,0,0,0,.67.15c1-.81,2.3-.25,3.44-.37a2.9,2.9,0,0,1,1.69.22c.37.19,1.16-.23,1.76-.22s1.55.43,2,.24a1.77,1.77,0,0,1,2,.12.9.9,0,0,0,.67-.13c.57-.5,1.46,0,1.9-.3.77-.54,1.28.26,2,.06s1.38-.47,1.77-.29c1.79.84,3.93-.39,5.62.67.64-.68,1.61-.45,2.36-.35s1.58-.65,2.4-.11c.26-.74.81.26,1.34-.15.37-.28,1.28-.19,1.94-.18s1.26.35,1.47.2c.8-.62,1.17.29,1.78.2s1-.17,1.44-.21c.81-.06,1.63-.09,2.44-.1.18,0,.49.21.53.18.65-.57,1.48-.18,2.2-.27a3.71,3.71,0,0,1,2.13.39c.61.29,1.13-.56,2,0,.46.29,1.42,0,2.09.43s1.24-.69,1.88,0c.37-.63,1.14-.14,1.73-.33.74-.24,1.8.17,2.69.1.56,0,1.07.23,1.68,0a4.09,4.09,0,0,1,1.73-.14c.53,0,1.3.45,1.53.3a2.76,2.76,0,0,1,1.67-.31c.61,0,1.22,0,1.81,0,.21,0,.38.29.6.33.61.11,1.22.65,1.87.06a62.18,62.18,0,0,0,9.58-.5c.49-.61,1-1.25,1.52-1.88.08-.1.27-.27.26-.28-1.07-.73-.24-1.76-.63-2.63-.28-.63-.8-1.57-.28-2.15s.34-1.27.44-1.9c.06-.33-.06-.69,0-1,.17-.48.6-.91.68-1.39a7.73,7.73,0,0,0-.19-1.56c0-.6,0-1.21,0-1.82s-.28-1.25.06-1.58c.62-.62-.34-1-.07-1.53.12-.23,0-.58.2-.73.47-.39.24-.61,0-1s0-1,0-1.48c0-.31.24-.61.27-.92.06-.71-.23-1.5.82-2,.07,0,.12-.24.08-.27a1.15,1.15,0,0,1-.3-1.67c.61-.69-.3-1.16-.09-1.73.16-.42-.22-.94.42-1.3.11-.06.13-.42,0-.52C114.53,14,114.22,13.73,114.8,13.38Z"/><path d="M96.32,13.38c-.65-.3.4-.46.06-.9A2.32,2.32,0,0,1,96.19,10a5.33,5.33,0,0,1,1-1.43c.84-.78-.58-1.2-.46-1.81.07-.32,0-.69.26-1A4.46,4.46,0,0,0,98.14,2.4c0-1.43,2.76-2.58,5.24-2.31.68.69,1.47-.45,2.16.05s1.94.19,2.9.29c.65.07,1.64,0,1.92.16.85.64,1.58-.2,2.21,0A2.57,2.57,0,0,0,115,.51a1.55,1.55,0,0,1,.88,0,1.49,1.49,0,0,0,1.94-.08,3.21,3.21,0,0,0,2.13.4c1.26,0,2.53,0,3.8,0s2.31,0,3.46,0l3.21-.1c1.13-.05,2.41.38,3.19.06A9.71,9.71,0,0,1,137.5.45c7.26,0,14.52,0,21.78,0,.85,0,1.82.27,2.59-.24a1.65,1.65,0,0,1,.91-.13,11,11,0,0,0,6.37,0,3.55,3.55,0,0,1,1.33,0,27.53,27.53,0,0,0,8.83,0c.35,0,.79.18,1.18.17s.87-.18,1.33-.22a5.23,5.23,0,0,1,1.37,0c.82.14,1.68.71,2.42.33,1-.54,1.66.26,2.62.1a11.6,11.6,0,0,1,3.43,0c1,.16,1.67-.34,2.68-.25a8,8,0,0,1,2.76.21.55.55,0,0,0,.31,0c.93-.61,1.94-.39,3.07-.21.89.15,1.94,0,2.83.1a15,15,0,0,1,3.43.52c1,.41,2.08-.63,3.17,0,1.65-.7,3.53-.26,5.29-.32.6,0,1.05.66,2,.17.32-.16,1.29.17,2,.19,1,0,2.07,0,3.11,0a10.39,10.39,0,0,0,3,0c1.1-.46,1.82.23,2.59,0a4.73,4.73,0,0,1,2.56,0c.72-.63,1.53.21,2.17,0,2.13-.77,4.44-.19,6.65-.38,1.11.73,2.12.07,3.17-.08a23.87,23.87,0,0,1,2.85.21l3.42,3.21c-.05.1-.14.19-.15.29-.13.85-.64,1.76-.28,2.53s-.38,1.66-.15,2.52-.06,1.89.09,2.82-.74,1.76.65,2.47c-.35.82-1.44,1.64-.07,2.48a2.53,2.53,0,0,0,0,3.55c-1.37.71-.06,1.38.09,2.07-1.7.7.58,1.37,0,2.11-.26.36,1,.84,0,1.27-.16,1.44.47,2.91-.7,4.29,1.12.7-.37,1.35-.07,2.1s-.11,1.77.14,2.62c.15.49-1.14.78-.23,1.34.64.4-.25,1.14.72,1.66.35.18.39,1,.08,1.11-.93.41.15.92-.52,1.42s-.14,1.3-.11,2c0,1-.85,1.71-2,2.34a1.27,1.27,0,0,1-.7.07c-.77-.59-1.63.25-1.88.08-1-.68-1.58.14-2.31.09-1.29-.09-2.66.32-3.92-.35-.53-.28-1.65.06-2.55-.28-.49-.19-1.72.36-2.32.2a25.8,25.8,0,0,0-5.62-.37c-.69,0-1.64-.4-2-.24a3.56,3.56,0,0,1-2.23.21c-1.06-.29-2.35-.64-3.13-.3-1.22.52-2-.44-3-.08a5.76,5.76,0,0,1-1.82.34c-.58,0-1.17-.31-1.74-.3s-1.63.43-1.73.35c-.95-.78-2.24,0-3.41-.29a7.13,7.13,0,0,0-4.23.23,3.73,3.73,0,0,1-1.82-.16,2.69,2.69,0,0,0-2.14.09,1.82,1.82,0,0,1-.89.15c-1.38-.81-3.07-.25-4.59-.37A5,5,0,0,0,192,44c-.5.19-1.55-.23-2.35-.22s-2.06.43-2.72.24a3,3,0,0,0-2.68.12,1.53,1.53,0,0,1-.89-.13c-.76-.5-1.95,0-2.54-.3-1-.54-1.71.26-2.6.06a6,6,0,0,0-2.36-.29c-2.39.84-5.24-.39-7.49.67-.85-.68-2.15-.45-3.16-.35s-2.1-.65-3.19-.11c-.35-.74-1.09.26-1.79-.15a7,7,0,0,0-2.58-.18c-.68,0-1.69.35-2,.2-1.07-.62-1.57.29-2.37.2-.64-.08-1.28-.17-1.93-.21-1.08-.06-2.16-.09-3.25-.1-.24,0-.66.21-.71.18-.86-.57-2-.18-2.93-.27a6.33,6.33,0,0,0-2.83.39c-.81.29-1.51-.56-2.6,0-.61.29-1.9,0-2.79.43-.7.37-1.66-.69-2.51,0-.49-.63-1.51-.14-2.3-.33-1-.24-2.4.17-3.59.1a8,8,0,0,1-2.24,0,7.19,7.19,0,0,0-2.3-.14c-.71,0-1.73.45-2,.3a4.75,4.75,0,0,0-2.23-.31c-.81,0-1.62,0-2.42,0-.28,0-.5.29-.79.33-.82.11-1.63.65-2.5.06a110,110,0,0,1-12.76-.5l-2-1.88c-.11-.1-.36-.27-.35-.28,1.43-.73.32-1.76.84-2.63.38-.63,1.07-1.57.38-2.15s-.46-1.27-.59-1.9c-.07-.33.08-.69-.06-1-.23-.48-.8-.91-.91-1.39s.21-1,.25-1.56,0-1.21,0-1.82.37-1.25-.08-1.58c-.82-.62.46-1,.1-1.53-.17-.23,0-.58-.27-.73-.63-.39-.32-.61,0-1s0-1-.07-1.48c-.06-.31-.32-.61-.35-.92-.08-.71.3-1.5-1.09-2-.1,0-.17-.24-.11-.27a1,1,0,0,0,.39-1.67c-.8-.69.4-1.16.12-1.73-.21-.42.29-.94-.55-1.3-.16-.06-.18-.42,0-.52C96.68,14,97.09,13.73,96.32,13.38Z"/></g><g id="レイヤー_2" data-name="レイヤー 2"><g id="eZZng7"><path class="cls-1" d="M135.51,21.69c-.54,0-1,0-1.55,0A5.29,5.29,0,0,0,133,22s-.35.67-.39.72c-.31.36.54.78-.13,1.23-.36.23.11.77.27,1.16a.31.31,0,0,1-.1.28c-.6.2.49.69-.16.85-.05.8-.66.63-1.11.57a.77.77,0,0,1-.69-1c0-.23.29-.54.21-.65-.35-.45.36-.72.14-1.14s-.65-.67-.08-1.12c.13-.11-.58-.87-.85-.87s-.81,0-1.21,0c-.25,0-.48-.57-.77,0-.24-.22-.45-.54-.74-.61s-.6-.11-.48-.47.46-.59.55-.55c.73.32,1.33-.7,2.18-.08.5.37.93-.19.88-1a6.19,6.19,0,0,1,.22-1.26c-.3,0-.55-.08-.81-.09-.67,0-1.44-.88-2-.12-.39.58-1.08.67-1.41,1.25-.18.33-.44.67-1,.27-.28-.2-.79.45-.69.85.5,2.06.33,2.55-1.32,3.95-.23.2-.19,1-.69.47s-.5.26-.77,0-.73-.39-.71.27a3.17,3.17,0,0,0,.27,1.42,5.42,5.42,0,0,1,.07,2.12c-.27,0-.61.15-.79,0a5.82,5.82,0,0,1-.94-.92c.41-.64-.83-1.28,0-1.94a.53.53,0,0,0-.09-.11c-.43-.26.14-.5.06-.59-.67-.74,0-1.69-.38-2.39a2.19,2.19,0,0,1-.26-1.09A13.91,13.91,0,0,0,119,17.8a2.1,2.1,0,0,1,.24-2.08c.23-.28,0-.87,0-1.33s.32-.76.8-.86h1.79c.54.22,1.08.44,1.61.68a3,3,0,0,1,1,.54,1.33,1.33,0,0,1,.25.9c0,.39,0,.93-.3,1.13-1.21,1-.35,1.71.21,2.55.37-.43.95-.65.9-1.32,0-.1,0-.27.08-.3.81-.4,1-1.36,1.6-1.84A7.72,7.72,0,0,0,129,13.35a5.1,5.1,0,0,1,2.17-1.76c.36-.21.68-.06,1.06.14a18.08,18.08,0,0,1,3.45,2.41,6.59,6.59,0,0,0,1.93,1.58c.43.16.41.61.38,1s0,.54,0,.79a3.24,3.24,0,0,1-1-.28c-.39-.28-.92-.2-1.24-.84s-1.27-.93-1.61-1.7c-1.11-.08-1.64-1.17-2.62-1.48-.45.44-1.05.81-1.3,1.34s-.94.63-1,1.26c0,.16-.29.52,0,.37.95-.46,1.5.83,2.36.39.38.55,1-.28,1.52.29.28.3,1.1,0,1.68.27a2.24,2.24,0,0,1,1.21.72c.22.23.39.42.12.71s-.38.47-.75.08-.63.4-1.11,0c-.27-.23-.9-.11-1.34,0s-.78.33-.77.49a3.28,3.28,0,0,0,.45,1.15c0,.05.27.08.31,0,.4-.47.93-.33,1.42-.33,1,0,1.16.17,1.22,1.14A4.93,4.93,0,0,1,135.51,21.69ZM121.06,19a5.67,5.67,0,0,1,0,1.62c-.14.46.58.79.07,1.26s.47.79.1,1.28c0,.07.19.43.37.56s.5-.09.51-.18c.05-.45.4-.57.69-.82s.95-.88.89-1.25a2,2,0,0,0-1.18-1.79C122,19.48,121.62,19.23,121.06,19Zm-.35-.68c.52-.47.8-.69,1-.94s.37-.7.58-.72c.73,0,.49-.56.44-.85s-1.09-.86-1.38-.66-.71,0-.68.52C120.74,16.4,120.71,17.17,120.71,18.28Z"/><path class="cls-1" d="M151.8,20.61c.29-1,1.15-1.08,1.88-1.29a2.32,2.32,0,0,1,1.2,0c.45.13.83-.62,1.26,0a1.84,1.84,0,0,0-.06-1.72c-.24-.4-.41-.85-.64-1.32-.56.11-1.17-.19-1.74.3-.32.28-.64-.17-.79-.42a4.56,4.56,0,0,1-.3-1.15c.86,0,1.71-.55,2.72-.44.23,0,.48-.2.74-.27s.62-.1.64,0c.34.9,1.12.61,1.78.68.25,0,.47.28.72.31a11.21,11.21,0,0,0,1.43,0l.44,1.9-3.41-.48a10.84,10.84,0,0,0,0,1.14,1.45,1.45,0,0,0,1.71,1.51,4.66,4.66,0,0,0,2.46-.31c.37-.21.89.18,1,.63s0,.7-.55.78a3.83,3.83,0,0,0-1.08.52c-.34-.61-.73.08-1.08-.05-.54-.19-.93.25-1.52.22.82.67.19,1.48.58,2.22.9.2,1.66,1.11,2.82,1.14.17,0,.44.39.47.62s.05.65.35.89a2.67,2.67,0,0,1-1.06.27,6,6,0,0,0-3-.78,1.87,1.87,0,0,0-.09.46,1.79,1.79,0,0,1-1.29,2,4.1,4.1,0,0,1-2.31.16,2.41,2.41,0,0,1-1.42-1,1.72,1.72,0,0,1,0-1.71A2.68,2.68,0,0,1,156,23.72c.31,0,.6-.31.89-.31.58,0,.46-.37.46-.69s-.54-.59,0-.91c0,0,0-.31,0-.31-.68-.05-1.08-1.08-1.93-.5a.88.88,0,0,1-.51,0c-.53-.1-1.05-.25-1.58-.32A14.8,14.8,0,0,0,151.8,20.61Zm4.7,6.18a7.22,7.22,0,0,0,.81-.95.68.68,0,0,0-.06-.62.66.66,0,0,0-.61-.12c-.49.21-.94.49-1.53.8Z"/><path class="cls-1" d="M106.08,25.49c-.76,0-1.47-.21-1.8.05s-.57-.24-.82-.1a7.17,7.17,0,0,0-.79.57s-.1.08-.12.06c-1.77-1.18-1.72,1.14-2.85,1.34-.3-2-1.14-3.95-1.12-6.09a4.69,4.69,0,0,1,.93-3.43c.12-.17.14-.41.26-.57s.29-.33-.09-.4c-.14,0-.33-.12-.37-.23-.34-.8-.64-1.61-1-2.42.53-.37-.42-.57-.11-.95A13.09,13.09,0,0,0,99,12.16a1.78,1.78,0,0,1,1,1.89,1.37,1.37,0,0,0,.8,1.54c.24.12.37.5.5.78a.63.63,0,0,1,0,.44c-1,.18-.56.86-.56,1.39.14,0,.29.12.34.08.77-.64,1.55-1.1,2.53-.37a.47.47,0,0,0,.45-.07c.83-.72,1.56.22,2.35.16.15,0,.44.38.47.62a5.06,5.06,0,0,0,.33,1.74c.22.44-.11,1.08.35,1.53-.58.33,0,1-.07,1-.58.44.26.58.14,1-.33,1.06-.49,2.18-.73,3.27-.06.24-.89.43-1.18.3a1.56,1.56,0,0,1-.34-1C105.55,26.17,105.75,25.92,106.08,25.49Zm-.87-3.28c-.23.2-.43.4-.65.57s-.28.19-.35.15c-1-.48-2-.15-3-.21-.66,0-.86.39-.5,1a1.86,1.86,0,0,0,.57.59c1-.64,2.25.19,3.23-.56.11-.08.41.06.62.11.55.12.64,0,.52-.53-.06-.26-.2-.68-.09-.77.55-.42,0-.8,0-1.09.09-.48-.66-.83-.11-1.29.06-.05,0-.33-.06-.44a9.78,9.78,0,0,0-.72-.72c-.34.74-.88-.17-1.34.17a2.9,2.9,0,0,1-1.87.49c-1,0-1.11.2-1,1.3.57.19,1.25-.23,1.77.34a.66.66,0,0,0,.64,0c.47-.68.9.05,1.28,0C105,21.16,104.73,22,105.21,22.21Z"/><path class="cls-1" d="M167.34,16.25a3.55,3.55,0,0,0-.82,0c-.74.21-.92-.42-1.17-.82s0-.68.71-.61c.23,0,.3-.44.63-.1s.67.22,1.05,0-.06-.52,0-.73a6.15,6.15,0,0,1,1.84-2.12c.28-.24.76.1.84.45.14.61-.31,1-.48,1.51s-.38.75-.55,1.13c0,0,.17.19.25.18s.17-.14.25-.22c.36.54,1.15.11,1.36.39.48.66,1.15-.35,1.52.29.13-.13.28-.25.4-.39.48-.5.32-1.13.35-1.72s.37-1,.72-1a1.07,1.07,0,0,1,1,1.17,2.66,2.66,0,0,1-.11.47c-.41,1.36-.16,1.71,1.3,1.76a5.3,5.3,0,0,0,.69,0c.55-.05,1.08,0,1.21.62a1.2,1.2,0,0,1-.34.86.81.81,0,0,1-.72.2c-.51-.19-.77.72-1.37.21-.28-.23-.82-.16-1.36-.24,0,.8.78,1.41.19,2.1-.16.2-.21.58-.39.65a3.93,3.93,0,0,1-1.17,0c0-.79,0-1.57,0-2.34s-.25-1-1.12-1.06c-.58,0-1.27.19-1.69-.06s-.92.27-1.16-.28c-.17.09-.47.16-.49.27-.09.44.07,1-.14,1.31a1,1,0,0,0,0,1.19c.17.31-.56.72.06,1.05-.61,1,.08,1.61.61,2.37.41.57.79,1,1.49.93.5-.07.89.46,1.48.06.35-.24,1-.07,1.52,0a3.84,3.84,0,0,0,2.13-.28c0,.05.1.09.1.13.06,1.77,0,1.8-1.7,1.85-.46,0-1,.32-1.34.16a4.51,4.51,0,0,0-1.48-.16c-.82-.12-1.65-.18-2.44-.37-.22-.06-.31-.54-.54-.71-.43-.3-.9-.61-1-1.08a8.88,8.88,0,0,1-.7-3.25,7.78,7.78,0,0,1,.6-3.13C167.4,16.76,167.34,16.56,167.34,16.25Z"/><path class="cls-1" d="M181,22.72c.5-.78,1.33-1.21,1.94-1.9s2.37,0,2.77.78a4.07,4.07,0,0,1,.26.74,4.53,4.53,0,0,0,1.47,1.9,1.19,1.19,0,0,0,1.67-.09c.53-.73,1.48-.08,2-.75a1.17,1.17,0,0,1,.53.29,5.52,5.52,0,0,1,.49.85c-1.08,1.12-2.68.94-4,1.54a1.31,1.31,0,0,1-1.38-.38c-.83-.75-1.82-1.34-1.91-2.6,0-.09-.16-.16-.21-.25-.29-.55-1.06-.74-1.36-.24s-1,.6-1.29,1.11c-.07.1-.43.13-.43.15.23,1.08-.56.81-1.14.89-1.15.16-1.94-.58-1.59-1.6s.73-1.85,1.08-2.78c.11-.3.12-.63.24-.93.24-.6,0-1.37.77-1.79.31-.17.78-.46.3-.94l1.18-.49c.54-.23.93,0,.83.53a4.9,4.9,0,0,1-.48,1.49,3.08,3.08,0,0,1-1,1.27c-.58.32.49.67-.14.89s-.41.72-.51,1.15a6.3,6.3,0,0,1-.38,1Z"/><path class="cls-1" d="M85.19,26.38,83.78,25c.87-1.09,1.85-2.25,2.75-3.48a5.51,5.51,0,0,0,.66-1.6c.14-.42,0-.47-.66-.43a13,13,0,0,1-1.5-.13c-.5,0-1,0-1.49,0-.27-.61-.17-.92.46-1.13s1.21-.9,1.6-.51S86.71,17,87,17.9c.68,0,1.36,0,1.77.72.17.27.35.53.53.8-.53.22,0,.64-.22,1-.48.62-.71,1.43-1.19,2-.36.45-.17.81.16.83.77.06,1,.59,1.47,1.05A2.07,2.07,0,0,0,92,24.9c.55-.32.73,0,1,.27s-.09.58-.29.81a1,1,0,0,1-1,.47,1.81,1.81,0,0,0-.52,0A3.83,3.83,0,0,0,90,26.6c-.78.37-.1-.72-.62-.55-.07-.45-.68-.11-.86-.65s-.86-.59-1.35-.31C86.48,25.5,85.82,26,85.19,26.38Z"/><path class="cls-1" d="M142.82,19.8a9.11,9.11,0,0,1,.35-3.17,2.06,2.06,0,0,1,1.4-1.61c.23-.07.71.33.58.43-.59.43.1,1.28-.6,1.64.8.6,0,1.05-.2,1.51-.12.31.09.33.14.5a1,1,0,0,1,0,.65c-.53.94.19,1.85,0,2.78-.06.39.51,1,.93,1.29a7.25,7.25,0,0,1,1.08.72c.34.32.53.16.86,0,.17-.1.55.18.84.23s.58,0,.86,0,.49.9.31,1.12a1.43,1.43,0,0,1-1.32.58,6,6,0,0,1-4.73-2.39,5.34,5.34,0,0,1-.56-2.14A18.46,18.46,0,0,1,142.82,19.8Z"/><path class="cls-1" d="M113.94,14.18l1.14.37.25.65c.24.46-.36.82-.16,1.31s.42,1,.23,1.32c-.49.76.42,1.29.15,2s.29,1.44-.35,2.05a2.56,2.56,0,0,1,0,2.46c-.24.74,0,1.62-.38,2.39a1,1,0,0,1-1.24.34c-.25-.17-.78-.38-.39-.92.15-.21.3-.64.21-.73-.54-.52.17-1,0-1.44s.66-.94.19-1.68c-.27-.41.1-1.19.13-1.81s0-1.24,0-1.86c0-.21,0-.5-.13-.62-.71-.63.29-1.36-.15-2C114.1,15.54,113.61,14.84,113.94,14.18Z"/><path class="cls-1" d="M55.67,27.13A3.9,3.9,0,0,1,53,24.81c-.31-1.08-.16-2.25-.68-3.28.63-.73.56-1.69.82-2.54a4.35,4.35,0,0,1,.21-.75,3.42,3.42,0,0,1,.52-.62c.31.62.61-.11.92,0a.73.73,0,0,1,.49,1c-.34.77-.7,1.53-1,2.29a2.06,2.06,0,0,0,.1,1.82c.12.32.81.67.13,1.1a6,6,0,0,0,1,1.49c.25.2.85,0,1.28-.05a5.8,5.8,0,0,1,1.48-.12.69.69,0,0,1,.56.88c-.09.29-.32.73-.53.75C57.4,26.85,56.43,26.62,55.67,27.13Z"/><path class="cls-1" d="M68.61,17.87a4.74,4.74,0,0,1,.9.89c.2.32-.09.68-.18,1a4.87,4.87,0,0,0,.27,3,1.8,1.8,0,0,0,2.09.7q.65-.29,1.29-.6a1.23,1.23,0,0,0,.25-.22,1.42,1.42,0,0,1-.33,1.9c-.52.41-1.13,1.09-2,.83-.27-.08-.64.09-.84,0-.41-.25-1.18-.06-1.16-.86-.89-1-.74-2.4-1.34-3.52a.53.53,0,0,1,0-.49C68.2,19.79,67.53,18.57,68.61,17.87Z"/><path class="cls-1" d="M65.45,25.42a.78.78,0,0,1-.9.65c-.29-.12-.7-.25-.81-.48-.46-1-.94-2-1.37-3s-.44-2-.75-2.92c-.15-.44-.28-.68.16-1.05a1,1,0,0,1,1.06-.31,1,1,0,0,1,.55,1A18,18,0,0,0,63.74,22c0,.29.37.52.57.78l.79,1.85Z"/><path class="cls-1" d="M77.09,17.36a18.48,18.48,0,0,1,.94,2.3c.15.57-.06,1.38.45,1.7.75.48.34,1.22.63,1.8a5.86,5.86,0,0,1,.16,2.24c-1.71,0-1.54-1.45-2.08-2.3.28-1.25-.78-2.19-.86-3.38a5.68,5.68,0,0,0-.19-1.09C76,17.9,76.31,17.52,77.09,17.36Z"/><path class="cls-1" d="M82.37,14.21c1.67,0,3.22,0,4.76,0a5.32,5.32,0,0,1,1.91.37c.29.13.38.69.87.75-.08.12-.14.3-.25.34a3.13,3.13,0,0,1-1,.22c-1.38,0-2.76,0-4.14,0a9.79,9.79,0,0,1-1.92-.34c-.13,0-.23-.31-.27-.5A4.41,4.41,0,0,1,82.37,14.21Z"/><path class="cls-1" d="M110.68,22.47c-1.15-.39-1.76-.92-1.73-2,0-.39-.3-.93-.14-1.12.4-.46-.24-.79-.09-.95.4-.41.21-.85.24-1.27.06-1.08.15-1.18,1.3-1.23a3,3,0,0,1,.43.07,19.35,19.35,0,0,0,0,3.49A21.88,21.88,0,0,1,110.68,22.47Z"/><path class="cls-1" d="M104.39,15.64a3.54,3.54,0,0,0-.58,1.09c0,.46-.2.55-.61.55s-.41-.19-.47-.51a7.26,7.26,0,0,0-.4-1.68c-.28-.53.47-1.09-.22-1.45.58-.5.18-1.16.29-1.73a.91.91,0,0,1,1.08-.76c.39.09.82.63.63,1a2.29,2.29,0,0,0,0,2.43C103.53,15.12,104.13,15.36,104.39,15.64Z"/><path class="cls-1" d="M105.54,16.83c0-.7-.22-1.4.74-1.62.13,0,.2-.33.26-.51s-.17-.6.28-.86.82-.86,1.46-1c.48-.1.61.16.79.56s.54.63-.16.81c-.12,0-.28.21-.27.31,0,.46-.11.66-.59.79-.22.06-.3.54-.5.78A1.6,1.6,0,0,1,105.54,16.83Z"/><path class="cls-1" d="M129,22.75c0,.53.07.77,0,.93a4.94,4.94,0,0,0-.71,2.76c.05.39-.31.65-.77.69s-.44-.32-.64-.48c-.58-.49.06-1.27-.56-1.66.19-.12.54-.24.53-.35C126.73,23.12,128.17,23.57,129,22.75Z"/><path class="cls-1" d="M135.21,22.92a4.3,4.3,0,0,1,.72.33c.22.17.55.36.58.59.13.87,1,1.23,1.33,1.94a.81.81,0,0,1-.06,1c-.35.37-.68.35-1.18.18-.65-.23-.54-.8-.83-1.16C135.06,25,135.25,24,135.21,22.92Z"/></g></g></svg>