<svg xmlns="http://www.w3.org/2000/svg" viewBox="0 0 249.88 45.65"><defs><style>.cls-1{fill:#fff;}</style></defs><g id="レイヤー_1" data-name="レイヤー 1"><path d="M248.71,40.14c.27-.28,0-.79.07-1.19s.29-.73.37-1.1c.1-.52.41-1.14.13-1.55a6.29,6.29,0,0,1-.57-1.66c-.2-.5.84-.75.21-1.36-.42-.4-.07-1.16-.18-1.76-.07-.37,1.11-.72,0-1.08.92-.23-.1-.7.24-1s-.92-.95.24-1.45c.51-.22-.89-.95.08-1.43-.23-1,.52-2-.42-2.91a.58.58,0,0,1-.09-.54c.56-1.92.57-1.92,0-4,.68-.38-.21-.8,0-1,.39-.49-.12-1.08,0-1.27.64-.76.11-1.64.57-2.27.65-.87-.14-1.56-.09-2.32,0-.61-.29-1.34.08-1.8.55-.67-.15-1.15-.09-1.71a6.68,6.68,0,0,0,0-2.23,5.67,5.67,0,0,1-.22-1.83c0-.61-.87-1.27.23-1.81-.94-.41-.25-1.14-.64-1.63-.25-.31-.82-.86-1.33-.54-1.45.9-3.12-.26-4.53.37-.42-.62-1.49.28-1.88-.4-.77.72-1.58.4-2.39,0-1.78.74-3.72.19-5.58.34-.76.06-1.82-.21-2.26.05-.82.51-1.32-.23-1.88,0a5.52,5.52,0,0,1-3.59,0c-.19-.05-.5.11-.76.16s-.84.24-.95.15c-.82-.59-1.82-.27-2.72-.31-1.35-.05-2.71.06-4.05,0a9.26,9.26,0,0,0-3.86.19c-.31.09-.81.24-1,.15-1.12-.65-2.4-.2-3.59-.31a9.27,9.27,0,0,1-2.23-.14,2.38,2.38,0,0,0-2,0c-.53.19-1.17-.63-1.84,0A1.82,1.82,0,0,1,201,1a3.16,3.16,0,0,0-2.81,0,2.78,2.78,0,0,1-1.87,0,4.1,4.1,0,0,0-2.17-.27c-1.45,0-2.91-.07-4.34,0-.52,0-.56-.53-1.38-.21-1.88.75-4-.06-6,0-2.29.08-2.31-.25-4.5.11a2.36,2.36,0,0,1-1.51-.21c-.6-.65-1.44-.06-1.74-.19a1.47,1.47,0,0,0-1.77.27,1.75,1.75,0,0,1-1,.07c-.44-.05-1-.36-1.25-.25a6,6,0,0,1-3,.36c-.91,0-1.81-.4-2.71,0-1.31-.59-3,.57-4.2-.4-1.19.92-2.38,0-3.57,0-.54,0-1.08.13-1.63.18-.82.08-1.65.13-2.47.23s-1.77.27-2.66.39a.85.85,0,0,1-.51-.09c-.36-.24-.85-.54-1.17-.18-.5.58-.78-.23-1.28,0A7,7,0,0,1,143.6,1c-2.57-.33-2.54-.4-4.76.07a7.11,7.11,0,0,1-2.63.35c-.91-.2-1.46.73-2.51.12-.55-.32-2.5.67-2.47,1.17a8.19,8.19,0,0,1-.57,2.87,1.49,1.49,0,0,0,.47,1.83c-.81.51-.78,1,0,1.53-1.29.38.24,1-.29,1.58s-.21,1.15-.22,1.74a5.61,5.61,0,0,1-.53,1.94c1.47.72-.68,1.38-.07,2.08-.68.42-.3,1-.19,1.42s-.72.78.19,1c-1,.51-.41,1.24-.57,1.86s-.45,1.37-.56,2.06a5.06,5.06,0,0,0,0,1.82c.14.58-.84,1.07-.18,1.65-.88.55.4.93.26,1.54a7.74,7.74,0,0,0-.4,2.61c.06.37.29,1,.11,1.07-1.23.44.46.95-.18,1.49a1,1,0,0,0,.23,1.62.4.4,0,0,1,0,.52c-.87.56-.39,1.27-.46,1.9-.23,2,.43,3.93-.44,5.86,1,.39-.39.57-.17.93s.35.85.62,1.23c.12.18.53.25.8.37.71-.86,1.42-.15,2.13,0a4.55,4.55,0,0,0,1.05.2c.59-.74,1.53.67,2.05-.18a8,8,0,0,0,2.52.19,7.34,7.34,0,0,1,2.49-.18c1.26,0,2.62-.32,3.78.33,3.06-.82,6.23-.15,9.34-.34a8.4,8.4,0,0,1,2.46.23c.66.18.43-.12.6-.29a2.71,2.71,0,0,1,.8-.36c.51,1,1.85-.36,2.46.41a25.54,25.54,0,0,1,3.24-.38c1.17,0,2.43.48,3.49.29a7,7,0,0,1,1.57.07c.57,0,1.49-.32,1.63-.19.69.69,1.26-.34,1.87,0a1.63,1.63,0,0,0,2-.19c.36.6,1,0,1.44.15,1.24.48,2.58.17,3.88.18.31-.66,1.19.37,1.73-.3.19-.23,1.45,0,2.21-.07s1.08.57,1.89.07a3.62,3.62,0,0,1,2.24,0,16,16,0,0,0,4.41.38c2.14.1,4.34-.31,6.43.38a3.69,3.69,0,0,0,1.39-.06,12,12,0,0,1,1.54-.31c2.51,0,5-.1,7.52,0s4.94-.47,7.3.37a.62.62,0,0,0,.48-.12c.59-.71,1.28.18,1.81-.05a1.85,1.85,0,0,1,2,.1,1,1,0,0,0,.74,0c.51-.49,1.22-.28,1.85-.31,2.31-.12,4.66.27,6.93-.29.63.53,1.62-.62,2.32.26a3,3,0,0,0,1.92,0,8.41,8.41,0,0,1,4.12-.33c1.61.14,3.16-.77,4.74,0,.48-1,1.45.07,2.28-.25a7.77,7.77,0,0,1,3.07-.13,3.47,3.47,0,0,0,3-1.11C248.37,42.48,247.36,41.55,248.71,40.14Z"/><path d="M1.34,40.14c-.31-.28,0-.79-.07-1.19s-.34-.73-.43-1.1C.72,37.33.37,36.71.7,36.3s.39-1.12.65-1.66-1-.75-.24-1.36c.48-.4.08-1.16.2-1.76.08-.37-1.27-.72,0-1.08-1.06-.23.12-.7-.28-1C.44,29,2,28.48.71,28c-.58-.22,1-.95-.09-1.43.27-1-.59-2,.48-2.91a.49.49,0,0,0,.1-.54c-.64-1.92-.64-1.92,0-4-.78-.38.24-.8,0-1-.44-.49.14-1.08,0-1.27-.74-.76-.13-1.64-.66-2.27-.74-.87.16-1.56.1-2.32-.05-.61.34-1.34-.09-1.8-.63-.67.17-1.15.1-1.71a5.77,5.77,0,0,1,0-2.23A5.2,5.2,0,0,0,.93,4.67c-.06-.61,1-1.27-.27-1.81,1.08-.41.29-1.14.74-1.63C1.68.92,2.33.37,2.92.69c1.66.9,3.59-.26,5.2.37.49-.62,1.71.28,2.16-.4.88.72,1.81.4,2.74,0,2.05.74,4.28.19,6.41.34.87.06,2.09-.21,2.59.05.94.51,1.52-.23,2.16,0a7.22,7.22,0,0,0,4.12,0,3.1,3.1,0,0,1,.87.16c.37.07,1,.24,1.1.15.94-.59,2.08-.27,3.12-.31C34.94,1,36.5,1.13,38,1a12.15,12.15,0,0,1,4.43.19,2.63,2.63,0,0,0,1.1.15c1.28-.65,2.75-.2,4.12-.31A12,12,0,0,0,50.24.93a3.13,3.13,0,0,1,2.33,0c.61.19,1.34-.63,2.11,0A2.37,2.37,0,0,0,56.16,1a4.12,4.12,0,0,1,3.23,0,3.61,3.61,0,0,0,2.14,0A5.39,5.39,0,0,1,64,.66c1.66,0,3.33-.07,5,0,.6,0,.64-.53,1.58-.21,2.16.75,4.58-.06,6.92,0,2.63.08,2.65-.25,5.16.11A3.09,3.09,0,0,0,84.41.38c.69-.65,1.66-.06,2-.19a1.88,1.88,0,0,1,2,.27,2.33,2.33,0,0,0,1.11.07C90.05.48,90.73.17,91,.28a7.85,7.85,0,0,0,3.41.36c1,0,2.07-.4,3.1,0,1.51-.59,3.41.57,4.83-.4,1.36.92,2.73,0,4.1,0,.62,0,1.24.13,1.87.18.94.08,1.89.13,2.83.23s2,.27,3,.39a1.1,1.1,0,0,0,.59-.09c.41-.24,1-.54,1.34-.18.58.58.9-.23,1.48,0A9.17,9.17,0,0,0,122,1c3-.33,2.93-.4,5.47.07a9.25,9.25,0,0,0,3,.35c1.06-.2,1.68.73,2.89.12.63-.32,2.87.67,2.84,1.17a7.47,7.47,0,0,0,.64,2.87,1.36,1.36,0,0,1-.52,1.83c.92.51.89,1,0,1.53,1.48.38-.28,1,.33,1.58s.25,1.15.25,1.74a5.35,5.35,0,0,0,.61,1.94c-1.68.72.78,1.38.08,2.08.79.42.35,1,.22,1.42s.83.78-.21,1c1.11.51.46,1.24.65,1.86s.51,1.37.64,2.06a4.29,4.29,0,0,1,0,1.82c-.15.58,1,1.07.21,1.65,1,.55-.45.93-.3,1.54a6.72,6.72,0,0,1,.46,2.61c-.06.37-.33,1-.12,1.07,1.41.44-.53.95.21,1.49.52.38.62,1.11-.27,1.62-.15.09-.17.44,0,.52,1,.56.44,1.27.53,1.9.26,2-.5,3.93.5,5.86-1.1.39.45.57.19.93s-.39.85-.71,1.23c-.14.18-.6.25-.91.37-.82-.86-1.63-.15-2.44,0a6.1,6.1,0,0,1-1.21.2c-.69-.74-1.76.67-2.36-.18a10.49,10.49,0,0,1-2.89.19,9.59,9.59,0,0,0-2.85-.18c-1.46,0-3-.32-4.34.33-3.52-.82-7.16-.15-10.73-.34a11,11,0,0,0-2.82.23c-.77.18-.5-.12-.69-.29a3.46,3.46,0,0,0-.92-.36c-.59,1-2.13-.36-2.83.41a33.07,33.07,0,0,0-3.71-.38c-1.35,0-2.8.48-4,.29A9.29,9.29,0,0,0,95,45.2c-.64,0-1.71-.32-1.86-.19-.8.69-1.45-.34-2.15,0a2.09,2.09,0,0,1-2.26-.19c-.41.6-1.11,0-1.65.15-1.43.48-3,.17-4.45.18-.37-.66-1.37.37-2-.3-.22-.23-1.67,0-2.54-.07-.72-.07-1.24.57-2.18.07a4.7,4.7,0,0,0-2.56,0,21,21,0,0,1-5.06.38c-2.46.1-5-.31-7.39.38a4.82,4.82,0,0,1-1.59-.06,16,16,0,0,0-1.77-.31c-2.88,0-5.77-.1-8.64,0s-5.66-.47-8.37.37a.82.82,0,0,1-.56-.12c-.67-.71-1.46.18-2.07-.05a2.39,2.39,0,0,0-2.31.1,1.37,1.37,0,0,1-.85,0c-.58-.49-1.4-.28-2.13-.31-2.64-.12-5.34.27-7.94-.29-.73.53-1.86-.62-2.67.26a4,4,0,0,1-2.2,0,11.06,11.06,0,0,0-4.74-.33c-1.84.14-3.62-.77-5.43,0-.55-1-1.67.07-2.62-.25a10.23,10.23,0,0,0-3.53-.13A4.34,4.34,0,0,1,0,43.32C1.74,42.48,2.9,41.55,1.34,40.14Z"/></g><g id="レイヤー_2" data-name="レイヤー 2"><path class="cls-1" d="M104,24.18a21.34,21.34,0,0,0,2.23-.23c.5-.1,1.32.55,1.47-.53,0,0,.21-.05.23,0,.36.53,1.45.53,1.12,1.58-.1.33,0,.36-.72.56a2.51,2.51,0,0,1-1.74.2c-.31-.12-.8.2-1.21.33-.16.05-.38.19-.47.13-.38-.24-.78-.33-1,.06-.07.12.3.52.47.8.41.69.25,1.24-.46,1.52-.4.16-1.75-.3-1.75-.66a8.19,8.19,0,0,0-.34-2.45c-.14-.41.6-.9,0-1.39.55-.46,0-1.18.31-1.59a2.67,2.67,0,0,0,.3-1.77c0-.56.89-1,.12-1.66,0,0,0-.19,0-.22.36-.26.78-.75,1.07-.68,1.2.28,1.32-1.15,2.23-1.29.15,0,.32-.44.34-.68.14-1.5.27-3,.34-4.51a5,5,0,0,1,.33-1.07c.09-.38.07-.84.47-1,.22-.08.55.14.84.22a3.49,3.49,0,0,0,.46.06c-.16.73.24,1.46-.32,2.22a1.48,1.48,0,0,0,0,1.33c.32.54-.67.81-.15,1.35.11.11-.48.68.06,1.07.06.05-.71.55,0,.85s.86-.4,1-.77c.25-.69.92-1.23.81-2.07.61-.43,1.22-.86,1.84-1.28.36-.24.74-.43,1.18-.69.36,1.11-.35,1.91-.86,2.75-.06.11-.4.11-.41.18-.14,1.05-1,1.51-1.74,2,.73.72.75,1.87,1.65,2.43,0,0-.12.17-.1.23.12.43-.3,1-.14,1.16.68.51,0,.88,0,1.3s.49.79.08,1.23c.78.31-.41,1,.25,1.32-.76.3-.08.8-.11,1.2s-.23.7,0,1.1c.47.77-.24,1.45-.31,2.19a1.78,1.78,0,0,1-1.09.11.77.77,0,0,1-.55-.93,8.16,8.16,0,0,0,.33-.9,3.55,3.55,0,0,0,0-1c0-.28-.29-.73-.19-.81.47-.41-.14-.56-.18-.82-.12-.78.32-1.49.14-2.28-.12-.48,0-.57-.31-.38a1.62,1.62,0,0,1-2,0c-.24-.16-.69-.37-.8-.28-.66.56-1.49-.08-2.11.35-.35.24-1.27.27-.46,1.1C104.33,23.29,104.07,23.88,104,24.18Zm5.55-3a1.58,1.58,0,0,0-.07-2.09,2.92,2.92,0,0,0-3.21-.43,2,2,0,0,1-1.38.47c-.12,0-.23.17-.34.26.12.14.3.42.36.39.44-.18.85.62,1.27,0a10.59,10.59,0,0,0,1.57.39C108.4,20.37,109.34,20.22,109.57,21.21Z"/><path class="cls-1" d="M168.44,25.37a4.59,4.59,0,0,1-.32.75c-.28.38-.5,1-1.15.36-.12-.1-.58.23-.8.15s-.2-.53-.39-.66a5.29,5.29,0,0,0-1.17-.5c-.63-.24-.65-.17-1,.51s-.81,1.49-1.84,1.44c-.23,0-.54-.09-.68,0a1.1,1.1,0,0,1-1.21.22,5.53,5.53,0,0,1-1.68-1.35.42.42,0,0,1-.1-.3,10.33,10.33,0,0,1,.43-2.24c.16-.38.79-.55,1.15-.88s.4-.31.63,0c0,.06.2.05.31.05.41,0,.48-1.08,1.12-.36,0,0,.11-.08.12-.13s0-.33,0-.5V20.2a2.09,2.09,0,0,1-.65.31,6.19,6.19,0,0,1-1.72,0c-.46-.1-.84.65-1.27,0-.67.45-1-.12-1.44-.44s.54-.74,0-1.08c.17-.07.35-.22.5-.2.72.08,1.39-.23,2.15-.08a5.51,5.51,0,0,0,2.09-.45,1.62,1.62,0,0,0-.39-1.74,1.9,1.9,0,0,0-1.67-.51,1.12,1.12,0,0,1-.68,0,2.71,2.71,0,0,1-.55-.61c.53-.05-.51-.71.38-.8.7-.07.67-.35,1.65-.27.5,0,.7-.3,1-.55.89-.8,1.31-.69,1.7.48a3.19,3.19,0,0,1,0,.85c.93-.54,1.69.5,2.54-.06.31.3.62.59.91.91,0,0,0,.22-.06.31a1.9,1.9,0,0,1-1.79.52,1.86,1.86,0,0,0-.92.15c-.1,0-.17.31-.15.47a2,2,0,0,0,.25.92c.2.26.4.68,1,.34.26-.16.77.16,1.13.09a3.61,3.61,0,0,0,1-.53.29.29,0,0,1,.24,0,.87.87,0,0,1,.39,1c-.08.3-.32.82-.44.81-1-.1-1.89.7-2.91.36-.09,0-.16-.16-.35-.35a6.77,6.77,0,0,0-.08,1c0,.37.45.72,0,1.12,0,0,.26.33.3.53s-.2.24-.3.36l.62.16s.14,0,.17,0C165.61,24.26,167.11,24.65,168.44,25.37ZM162.5,25a6.38,6.38,0,0,0-.91-.69c-.27-.13-.59.62-.89,0-.18.21-.36.41-.52.63s0,.23-.08.3-.36.31,0,.48.52.31.69.24C161.27,25.75,161.75,25.43,162.5,25Z"/><path class="cls-1" d="M176.66,22.42c-.68,1-1.66,1.39-2,2.38,0,.12-.37.16-.57.2s-.88-.2-.81.52c0,.05-.19.19-.25.17a13.22,13.22,0,0,1-2.76-1.22c-.36-.25-.4-1.1-.38-1.67,0-.25.32-.46,0-.77-.07-.06.18-.46.3-.7s.22-.61.41-.67a3.75,3.75,0,0,0,1.55-1.25c.31-.34.44-.13.62.07.08-.19.15-.38.25-.57a.36.36,0,0,1,.24,0,1.31,1.31,0,0,0,1.4.06.45.45,0,0,1,.36,0c.51.26.45.26.54-.18.19-.94-.5-1.77-.12-2.66-.8-.22-1.54.11-2.08-.45-.79.73-1.75-.54-2.58.21-.11.1-.67-.17-.9-.4s0-.54.08-.78c.45-1,1.51-.62,2.25-1,.55.59,1.48-.16,2,.56,0,0,.34-.05.42-.16s.12-.45.27-.56c.33-.25-.19-1,.35-.87a3,3,0,0,1,1.78.87c.7.91.69,1.06,1.66,1.07h1.55a3.09,3.09,0,0,1,2,.5,6.9,6.9,0,0,1-.45.85.85.85,0,0,1-.53.35c-.63.05-1.36-.18-1.88.07-.67.31-1.05-.14-1.56-.22s-.63.13-.55.49a4.31,4.31,0,0,1-.11,2.9.93.93,0,0,0,.4,1.17c1,.65.95,1.8,1.26,2.76.14.41-.12,1.05.12,1.31s-.38.84.24,1a4.63,4.63,0,0,1-1.09,2.81c-.28.31-.68.06-1-.31-.78-.94,0-1.76.16-2.6.05-.25.28-.41.07-.72A7.14,7.14,0,0,1,176.66,22.42Zm-5.08.33a.76.76,0,0,0,.26.18c.55.21,1.1.61,1.7.28a2.28,2.28,0,0,0,1.17-1.35c.19-.64,0-1.15-.55-1C173.13,21.24,171.77,21.23,171.58,22.75Z"/><path class="cls-1" d="M136.78,17.71l.81,2.46c.2-.05.55-.11.88-.22,1-.32,1.72.13,1.68,1.05,0,.29,0,.54-.41.58a9.24,9.24,0,0,0-1.07.32c-.88.18-1.08.38-.75,1.35.15.44-.4.51-.19.82s.45.45,0,.78c-.14.11,0,.55,0,.83a1.2,1.2,0,0,1-.33.91c-.28.35-.78.67-1.16.47s-.7-.44-.58-.92a6.34,6.34,0,0,0,.32-.89c.05-.38.14-.81-.3-1.08.32-.25.25-.45,0-.75a2.49,2.49,0,0,1-.27-.91c-.11-.4-.25-.6-.44-.61a5,5,0,0,1-2.28-.32c-.51-.26-.72-.74-.25-1.07a6.35,6.35,0,0,1,1.41-.59c.33.53.89-.59,1.19.16l.28-.37c-.53-.31,0-.63,0-.92s-.31-.55,0-.95-.28-.58-.46-.39c-.37.38-.49.17-.77-.06-.49-.39-.48-.33-1.18.2a3.4,3.4,0,0,1-1.17.5.61.61,0,0,1-.52-.23,1.37,1.37,0,0,1-.27-.9c.05-.23.42-.38.66-.57a16.61,16.61,0,0,0,1.15-2.07l0-.34c.66.11.75-.19.9-.81s.82-.86,1.29-1.25a4,4,0,0,1,.72-.36c.6-.34,1.2-.94,1.81-1s1.11.6,1.64,1a1.9,1.9,0,0,1,.67.65c.28.66,1,.84,1.36,1.32s.52,1.19,1.05,1.61c.26.2.54.37.81.55.66.44.8.87.44,1.36a1.15,1.15,0,0,1-1.62.1,8.34,8.34,0,0,0-1.76-1.5,10.55,10.55,0,0,1-1.4-1.95,1.74,1.74,0,0,0-2.58-.3,16.44,16.44,0,0,1-1.32,1.32c-.15.12-.16.53-.11.78,0,.1.38.18.58.18a1.76,1.76,0,0,0,.78-.19c.38-.22.29.07.34.25s.09.26.15.27c.4,0,.8,0,1.2,0a.85.85,0,0,1,.89.35c.35-.34.54.67,1,.1.12-.14.59.42.67.67.2.64,0,1-.66.95-.34,0-.81.13-1-.05C138,17.53,137.4,17.92,136.78,17.71Z"/><path class="cls-1" d="M73.36,19.19c1,4.76.86,5.09.68,5.43-.36.67-.36.67-1.56,1.21-.2.09-.45.11-.58.25-.83.92-1.6.31-2.39,0-.24-.1-.48-.32-.72-.33-.65,0-.45-.19-.19-.54.07-.1-.19-.45-.3-.69-.32-.65-.6-1.31,0-1.95.27-.29,0-.78.12-.85.31-.27,1.06.07,1-.75,1,.07,1.94-.83,2.88-.29.54.31.69-.1.73-.24a2.31,2.31,0,0,0,0-1.14c-.07-.24-.49-.39-.55-.63s.26-.46.28-.7c0-.42-.71-1.11-1.19-1.19-.6.84-1.55-.64-2.19.32-.11.16-.67.07-1,0s-.73-.4-1.11,0c0,0-.31-.17-.3-.21a3.3,3.3,0,0,1,.37-1,1.3,1.3,0,0,1,.69-.38,5.69,5.69,0,0,1,1.72-.39c.5,0,1-.9,1.45-.06.18-.17.43-.3.52-.51a1.09,1.09,0,0,0,0-.67.75.75,0,0,1,.51-.81.79.79,0,0,1,1,.27c.16.23.49.43.49.65,0,.52.16,1,.63,1.06a1.88,1.88,0,0,0,1.28-.21,1.84,1.84,0,0,1,1.89.23c.4.29.53.66.22,1a2.49,2.49,0,0,1-2.19.7c-.76-.1-1.37.54-1.07,1.08a5,5,0,0,1,.3,2.46,2.29,2.29,0,0,0,.65,1.81,19.46,19.46,0,0,1,1.63,2.24c.21.29.08.45,0,.73s-1.07.05-.87.82L76,26c0-.88-1.36-1.09-1.13-2.12,0,0-.06-.09-1.5-4.66a43.45,43.45,0,0,0-1.45-4.52l-.16.15A1.59,1.59,0,0,0,72,15,31.1,31.1,0,0,1,73.36,19.19Zm-2.92,5.49c.57-.14,1-.26,1.51-.36A1.5,1.5,0,0,0,72.79,23c-.06-.49-.52-.77-1.11-.74-.24,0-.24.38-.65.2-.59-.25-1,0-1,.56A8.9,8.9,0,0,0,70.44,24.68Z"/><path class="cls-1" d="M126.15,19.1a1,1,0,0,0,.16,1.28c-.55.37-.3.93-.31,1.41s-.16.87.23,1.29c.13.14-.3.92-.22,1,.53.29-.15.72.19,1.05a1.68,1.68,0,0,1,.36,1c0,.35-.5.68,0,1.1.13.11-.7.71-1,.52s-.82-.53-1-.9a9.55,9.55,0,0,1-.38-2.08c0-.4.16-1,0-1.17-.43-.47.19-.9,0-1.09-.33-.34.09-.71-.1-.88-.45-.41.27-.49.15-.82a2.25,2.25,0,0,1,0-.86c0-.65-.46-1.2-.06-2,.3-.6,0-1.47.07-2.21a6.14,6.14,0,0,0,.3-2.43c-.15-.54-.37-.75.45-.8.49,0,1-.59,1.45,0,.5-.77,1-.09,1.4.09A8.52,8.52,0,0,0,129,13a3.69,3.69,0,0,1,1.49.89,2,2,0,0,1,.35,1.37,2.54,2.54,0,0,1-1,1.49,17.35,17.35,0,0,1-1.67,1.14c.4.47.34,1.29,1.21,1.3a8.25,8.25,0,0,1,.7,1.77c.15,1.06.6,2.22-.45,3.14-.1.09-.06.42-.14.44-.45.12,0,1-.83.86a1.6,1.6,0,0,1-1.18-1.05.72.72,0,0,1,.11-.62c1.08-1.18,1-1.21.68-2.59C127.93,19.92,127.18,19.51,126.15,19.1Zm2.72-3.91a4.21,4.21,0,0,0-2.88-.83c.14.25.33.43.32.6s-.26.36-.29.55.21.43.17.47c-.27.22-.1.33,0,.51s.26.2.51,0C127.4,16.05,128.1,15.67,128.87,15.19Z"/><path class="cls-1" d="M148.45,14.67a5.41,5.41,0,0,0,.74.33c.24.07.65-.12.61.34s.75.52.25,1c-.13.13,0,.52-.08.7s-.21.49,0,.72c0,0,.12.1.12.12-.17.4-.58.87-.48,1.18a1.77,1.77,0,0,1,0,1.41,2,2,0,0,1-.14.25c.6.33-.07.82.08,1.05.39.66.12,1.33.22,2,.73.15.8.94,1.29,1.35.32.27.62.18.95.22a2.24,2.24,0,0,1,.8.13.89.89,0,0,0,1.2,0c.38-.33.59.08.82.3s.09.5-.13.71c-.68.67-1.3,1.55-2.39.61a5.86,5.86,0,0,1-2.72-.93,3.42,3.42,0,0,1-1.82-3c-.13-1.23-.46-2.57.24-3.82.21-.38-.7-.94,0-1.42C147.86,16.78,148.5,15.81,148.45,14.67Z"/><path class="cls-1" d="M120.11,14.9c.06.53-.26,1,0,1.61a9.62,9.62,0,0,1,.06,1.87c.1.78-.32,1.5,0,2.31s-.28,1.68.37,2.42c-.87.74.13,1.9-.59,2.67,0,0,0,.16.06.24,0,.31.24.73.11.91a7.47,7.47,0,0,1-1.19,1.12c-.22-.34-.41-.23-.6,0a1.89,1.89,0,0,1-.19-.55c0-.36.34-.62,0-1.12a1.85,1.85,0,0,1,.07-1.62c.32-.47-.61-.91.11-1.24a.59.59,0,0,0,.09-.43c-.77-.36.27-1.06-.28-1.53-.14-.12.41-1,.26-1.15-.36-.42,0-.65,0-1a1.75,1.75,0,0,0-.13-1,.57.57,0,0,1,0-.87.67.67,0,0,0,.09-.62,1.53,1.53,0,0,1,0-2l.46-1.38c.23-.14.55-.44.67-.38a1.47,1.47,0,0,1,.58.73A2.4,2.4,0,0,1,120.11,14.9Z"/><path class="cls-1" d="M82.94,17.23c.36.54.65.94.9,1.35s-.65.72,0,1.09A.79.79,0,0,0,83.75,21s.06.11,0,.12c-1.15,1,.09,2.26-.35,3.33,1,.85,2.23.63,3.36.51.24,0,.46-.28.6,0s.3.75.17.9a1.89,1.89,0,0,1-1.33.9,8.1,8.1,0,0,1-2.93-.28c-1-.27-1.4-.52-1.61-1.56-.16-.76-.48-1.38,0-2.16a2.28,2.28,0,0,0,0-1.33c0-.42-.29-.82-.3-1.23s.34-.73.29-1.06C81.61,18.25,82.17,17.84,82.94,17.23Z"/><path class="cls-1" d="M64.9,15.31c-.22,1.08.27,2-.36,2.93.53.37.17.79.08,1.2,0,.11.12.27.07.35-.16.32-.85.61-.45.92s-.3.62.11.91,0,.56-.19.82c-.26.43.79.69.18,1.16s.21.81.06.93c-.58.49.1.78.09,1.15s.24,1-.56,1.14c-.6.12-1,.16-1.15-.33a11.08,11.08,0,0,1-.52-1.85c-.06-.31.17-.66.15-1a3.19,3.19,0,0,0-.17-1.48c-.17-.33.17-.88.17-1.33a4,4,0,0,1,.35-1.76c.13-.29.27-.74.14-1-.25-.42.15-.6.16-.85C63.16,15.61,63.13,15.61,64.9,15.31Z"/><path class="cls-1" d="M89,17.88a1.69,1.69,0,0,0,.61-.22c.4-.35.65-.47.8.2,0,.17.54.22.59.4s-.23.45-.26.69a5.17,5.17,0,0,0,.57,2c.2.72.85,1.25.81,2.07,0,.45.81.08.7.72-.07.37-.13.91.08,1.14.45.54-.09.87-.24,1.06s-.69.18-1-.17a4.49,4.49,0,0,1-1.24-2.41c-.11-.7-.51-1.32-.62-2s-.92-.47-.62-.78c.59-.62-.33-.86-.18-1.35A5.27,5.27,0,0,0,89,17.88Z"/><path class="cls-1" d="M115.81,14.39a1.52,1.52,0,0,1,0,2.23c-.4.45.61.91-.14,1.22.42.88-.28,1.69-.14,2.59.08.49-.26,1-.28,1.56,0,.28.46.4-.19.7s-.68-.11-.87-.29c-.46-.46-.5-.9-.35-1.8a1.37,1.37,0,0,0,0-.67c-.48-1.18.29-2.35,0-3.48-.13-.47.7-.85,0-1.27l1.33-.52C115.42,14.58,115.61,14.48,115.81,14.39Z"/><path class="cls-1" d="M104.76,17.11c-.79-.06-1.44.08-1.83-.18a4,4,0,0,1-1.46-2.1c-.39-1.09-.34-1.5.13-2.2a1.58,1.58,0,0,1,.37-.36,4.07,4.07,0,0,1,1.2,1c-.66.82.58,1.09.49,1.74C104.39,15.44,104.2,16.31,104.76,17.11Z"/><path class="cls-1" d="M132.29,27.07a1.1,1.1,0,0,1-1.09-1.37c.21-.53.17-1.08.36-1.55s.47-1.2,1.26-1.35c.24,0,.41-.33.71-.09s.6.83.37,1c-1,.75-.48,2-1,2.87C132.75,26.93,132.69,27.12,132.29,27.07Z"/><path class="cls-1" d="M139.84,23c.58-.12,1.14-.28,1.55.29.63.88,1.51,1.67,1.09,3.06a3.6,3.6,0,0,1-1.22-.13c-.37-.16-1-.26-.77-1s-.55-.49-.61-.74A5.69,5.69,0,0,1,139.84,23Z"/></g></svg>