<svg xmlns="http://www.w3.org/2000/svg" viewBox="0 0 249.63 46.24"><defs><style>.cls-1{fill:#fff;}</style></defs><g id="レイヤー_1" data-name="レイヤー 1"><path d="M114.8,14c.48-.3-.3-.46,0-.9a3,3,0,0,0,.15-2.52,6.12,6.12,0,0,0-.75-1.43c-.63-.77.44-1.19.35-1.81,0-.32,0-.69-.2-.94A5.43,5.43,0,0,1,113.44,3c0-1.44-2.08-2.58-3.94-2.32-.51.7-1.1-.44-1.62,0s-1.45.2-2.18.3c-.49.07-1.23-.06-1.44.16-.63.63-1.18-.2-1.65,0a1.5,1.5,0,0,1-1.8-.11.82.82,0,0,0-.67,0A.91.91,0,0,1,98.69,1c-.4.45-1,.4-1.59.39-.95,0-1.91,0-2.86,0s-1.73,0-2.59,0-1.65,0-2.41-.09-1.81.38-2.4.05A5.62,5.62,0,0,0,83.91,1C78.46,1,73,1,67.57,1c-.64,0-1.37.26-1.95-.24a.87.87,0,0,0-.68-.13,6.28,6.28,0,0,1-4.78,0,1.91,1.91,0,0,0-1,0,15.6,15.6,0,0,1-6.63,0c-.25-.05-.59.18-.88.16s-.65-.17-1-.21a3.23,3.23,0,0,0-1,0c-.62.15-1.26.72-1.82.34-.79-.54-1.25.26-2,.1a6.31,6.31,0,0,0-2.56,0c-.77.15-1.26-.34-2-.25S39.84.59,39.19,1A.27.27,0,0,1,39,1c-.7-.6-1.46-.39-2.31-.2-.66.14-1.45,0-2.12.1A8.84,8.84,0,0,0,32,1.39c-.73.41-1.55-.63-2.37,0-1.24-.7-2.65-.27-4-.32-.45,0-.79.65-1.51.16-.23-.16-1,.17-1.47.2-.78,0-1.56,0-2.34,0s-1.77.23-2.28,0c-.82-.47-1.36.23-1.94,0a2.7,2.7,0,0,0-1.92,0c-.54-.63-1.15.21-1.63,0-1.6-.78-3.33-.19-5-.39-.83.74-1.59.08-2.38-.08A14.64,14.64,0,0,0,3,1.13L.45,4.35a1.15,1.15,0,0,1,.11.29A6,6,0,0,1,.77,7.16c-.32.91.29,1.67.12,2.52s0,1.89-.07,2.83S1.37,14.27.33,15c.26.82,1.08,1.64,0,2.48A3.15,3.15,0,0,1,.39,21c1,.71,0,1.38-.07,2.07,1.28.7-.43,1.37,0,2.11.2.36-.77.84,0,1.27.12,1.43-.35,2.91.52,4.29-.83.69.29,1.35.06,2.1S1,34.61.79,35.46c-.11.5.86.78.18,1.35-.48.4.18,1.14-.54,1.65-.27.19-.3,1-.07,1.12.71.4-.1.92.4,1.42s.1,1.29.08,2a2.89,2.89,0,0,0,1.51,2.34.77.77,0,0,0,.52.07c.58-.59,1.23.25,1.41.07.74-.68,1.19.15,1.73.1,1-.09,2,.32,2.94-.35.4-.28,1.24.06,1.92-.29.37-.18,1.29.37,1.74.21a14.32,14.32,0,0,1,4.22-.37c.52,0,1.23-.4,1.5-.24a2.09,2.09,0,0,0,1.67.21c.8-.3,1.76-.64,2.35-.3.91.52,1.47-.44,2.23-.08a3.32,3.32,0,0,0,1.36.33c.44,0,.88-.3,1.31-.29s1.22.43,1.29.35c.72-.78,1.69,0,2.56-.29a4,4,0,0,1,3.18.23c.25.16.95,0,1.36-.16a1.53,1.53,0,0,1,1.61.09c.16.11.58.21.67.14,1-.8,2.3-.24,3.44-.37a2.91,2.91,0,0,1,1.69.23c.37.18,1.16-.23,1.76-.23s1.55.44,2,.24a1.78,1.78,0,0,1,2,.12.84.84,0,0,0,.67-.12c.57-.5,1.46,0,1.9-.3.77-.54,1.28.26,2,.06s1.38-.47,1.77-.29c1.79.84,3.93-.4,5.62.67.64-.69,1.61-.45,2.36-.36s1.58-.64,2.4-.1c.26-.75.81.25,1.34-.15.37-.28,1.28-.19,1.94-.18s1.26.35,1.47.19c.8-.61,1.17.3,1.78.2s1-.17,1.44-.2c.81-.06,1.63-.09,2.44-.1.18,0,.49.21.53.17.65-.56,1.48-.17,2.2-.27a3.71,3.71,0,0,1,2.13.4c.61.29,1.13-.57,2-.05.46.3,1.42,0,2.09.44s1.24-.69,1.88,0c.37-.62,1.14-.13,1.73-.32.74-.24,1.8.17,2.69.1.56,0,1.07.23,1.68,0a4.09,4.09,0,0,1,1.73-.13c.53,0,1.3.45,1.53.29a2.82,2.82,0,0,1,1.67-.3,15.59,15.59,0,0,1,1.81,0c.21,0,.38.29.6.33.61.11,1.22.65,1.87.06a62.18,62.18,0,0,0,9.58-.51l1.52-1.88c.08-.1.27-.27.26-.27-1.07-.74-.24-1.76-.63-2.63-.28-.63-.8-1.57-.28-2.16s.34-1.26.44-1.89c.06-.33-.06-.69,0-1,.17-.48.6-.92.68-1.39a7.64,7.64,0,0,0-.19-1.56c0-.61,0-1.21,0-1.82s-.28-1.25.06-1.59c.62-.62-.34-1-.07-1.52.12-.23,0-.58.2-.74.47-.38.24-.6,0-1s0-1,0-1.48c0-.31.24-.61.27-.92.06-.72-.23-1.5.82-2,.07,0,.12-.24.08-.27a1.15,1.15,0,0,1-.3-1.67c.61-.7-.3-1.16-.09-1.73s-.22-.94.42-1.3a.45.45,0,0,0,0-.52C114.53,14.61,114.22,14.3,114.8,14Z"/><path d="M67.83,31.64c-.48.3.31.46,0,.9a3,3,0,0,0-.14,2.52,6.08,6.08,0,0,0,.74,1.43c.63.77-.44,1.19-.34,1.81a1.93,1.93,0,0,0,.19.94,5.44,5.44,0,0,1,.87,3.38c0,1.44,2.07,2.58,3.93,2.32.51-.7,1.11.44,1.62,0s1.45-.2,2.18-.3c.49-.07,1.23.06,1.44-.16.63-.63,1.18.2,1.65,0a1.5,1.5,0,0,1,1.8.11.82.82,0,0,0,.67,0,.92.92,0,0,1,1.45.08c.41-.45,1-.4,1.6-.39h2.85c.86,0,1.73,0,2.59,0s1.65.05,2.42.09,1.8-.38,2.39-.05a5.65,5.65,0,0,0,2.94.34c5.44,0,10.89,0,16.33,0,.64,0,1.37-.26,2,.24a.87.87,0,0,0,.68.13,6.28,6.28,0,0,1,4.78,0,1.91,1.91,0,0,0,1,0,15.6,15.6,0,0,1,6.63,0c.26,0,.59-.18.88-.16s.66.17,1,.21a3.24,3.24,0,0,0,1,0c.61-.15,1.25-.72,1.81-.34.79.54,1.25-.26,2-.1a6.36,6.36,0,0,0,2.57,0c.77-.15,1.25.34,2,.25s1.42.2,2.07-.21a.29.29,0,0,1,.24,0c.7.6,1.45.39,2.3.2.67-.14,1.45,0,2.12-.1a8.77,8.77,0,0,0,2.58-.52c.73-.41,1.55.63,2.38,0,1.23.7,2.64.27,4,.32.45,0,.79-.65,1.51-.16.24.16,1-.17,1.48-.2.77,0,1.55,0,2.33,0s1.77-.23,2.28,0c.82.47,1.36-.23,1.95,0a2.67,2.67,0,0,0,1.91,0c.54.63,1.15-.21,1.63,0,1.6.78,3.34.19,5,.39.83-.74,1.59-.08,2.38.08a14.78,14.78,0,0,0,2.14-.21l2.56-3.22a1.15,1.15,0,0,1-.11-.29,5.94,5.94,0,0,1-.21-2.52c.32-.91-.28-1.67-.11-2.52s0-1.89.06-2.83-.55-1.76.49-2.47c-.26-.82-1.08-1.64-.05-2.48a3.17,3.17,0,0,1,0-3.55c-1-.71,0-1.38.07-2.07-1.27-.7.44-1.37,0-2.11-.2-.36.77-.84,0-1.27-.12-1.43.36-2.91-.52-4.28.84-.7-.28-1.36-.06-2.11s-.08-1.76.11-2.61c.11-.5-.85-.78-.18-1.35.49-.4-.18-1.14.55-1.65.26-.19.29-1,.06-1.12-.7-.4.11-.92-.4-1.42s-.1-1.29-.08-2A2.85,2.85,0,0,0,180.28.28a.77.77,0,0,0-.52-.07c-.58.59-1.22-.25-1.41-.07-.73.68-1.18-.15-1.73-.1-1,.09-2-.32-2.94.35-.4.29-1.24-.06-1.92.29-.36.18-1.29-.37-1.74-.21a14.25,14.25,0,0,1-4.21.37c-.52,0-1.24.4-1.5.25a2.08,2.08,0,0,0-1.68-.22c-.79.3-1.76.64-2.35.3-.91-.52-1.46.44-2.23.08a3.32,3.32,0,0,0-1.36-.33c-.43,0-.88.3-1.31.29s-1.22-.43-1.29-.35c-.72.78-1.69,0-2.56.29a4,4,0,0,1-3.18-.23,2.27,2.27,0,0,0-1.36.16A1.53,1.53,0,0,1,145.38,1c-.16-.11-.58-.21-.66-.14-1,.8-2.3.24-3.44.37a2.94,2.94,0,0,1-1.7-.23c-.37-.18-1.16.23-1.76.23s-1.54-.44-2-.24a1.79,1.79,0,0,1-2-.12.86.86,0,0,0-.66.12c-.57.51-1.47,0-1.91.3-.77.54-1.28-.26-1.95-.06s-1.39.47-1.78.29c-1.78-.84-3.93.4-5.61-.67-.64.69-1.61.45-2.37.36s-1.58.64-2.4.1c-.26.75-.81-.25-1.34.15-.37.28-1.27.19-1.94.18-.5,0-1.26-.35-1.47-.19-.8.61-1.17-.3-1.77-.2s-1,.17-1.45.2c-.81.06-1.62.09-2.44.1-.18,0-.49-.21-.53-.17-.65.56-1.47.17-2.2.27a3.68,3.68,0,0,1-2.12-.4c-.61-.29-1.14.57-2,.05-.46-.3-1.43,0-2.09-.44s-1.25.69-1.89,0c-.37.62-1.13.13-1.73.32s-1.79-.17-2.69-.1c-.56,0-1.07-.23-1.68,0a4.09,4.09,0,0,1-1.73.13c-.53,0-1.3-.45-1.52-.29a2.85,2.85,0,0,1-1.68.3,15.61,15.61,0,0,1-1.81,0c-.21,0-.38-.29-.6-.33C81.85.78,81.24.24,80.59.83A62.05,62.05,0,0,0,71,1.34L69.49,3.22c-.08.1-.27.27-.26.27,1.07.74.24,1.76.63,2.64.28.63.8,1.56.28,2.15s-.34,1.26-.44,1.89c0,.33.07.69,0,1-.16.48-.6.92-.67,1.39a7,7,0,0,0,.18,1.56c0,.61,0,1.22,0,1.82s.28,1.25-.06,1.59c-.62.62.35,1,.07,1.52-.12.23,0,.58-.2.74-.47.38-.24.6,0,1s0,1,0,1.48c0,.31-.24.61-.27.92-.06.72.23,1.5-.81,2-.08,0-.13.24-.08.27a1.15,1.15,0,0,1,.29,1.67c-.6.7.3,1.16.09,1.73s.22.94-.42,1.3a.45.45,0,0,0,0,.52C68.1,31,68.41,31.29,67.83,31.64Z"/><path d="M249,32.67c-.1-1.28.37-2.67-.15-3.81a6.61,6.61,0,0,1-.33-3.11c0-.43,0-.84,0-1.28a5.64,5.64,0,0,1,.33-3.11c.47-.9.32-2.07.63-3.1-.79-.44-.48-1.08-.51-1.66s.68-1,0-1.48a1.92,1.92,0,0,0,.42-2.42c-.53-.77.95-1.64-.41-2.19,0,0,.08-.36.18-.53a2.16,2.16,0,0,0-.06-2.61.67.67,0,0,1-.06-.54c.11-.38.53-1,.37-1.1-.75-.51.46-1,0-1.28-.92-.54.53-.88.06-1.32a7.3,7.3,0,0,0,0-.81c0-.53-.43-.87-1.1-.9-2-.09-4.05.21-6-.39-.26-.07-.69.3-1.07.37-.83.15-.43-.68-.84-.75-1.21-.17-2.53.14-3.66-.46-.54.61-1,.43-1.67,0A1.69,1.69,0,0,0,234,.39a1.27,1.27,0,0,1-1.11,0c-.45-.13-1-.11-1.53-.21a2.33,2.33,0,0,0-1.69.21c-.37.21-1.08-.65-1.59.08C227,.16,226,.74,224.87.63,223.6.5,222.09.9,221,.51s-1.94.72-2.52-.32a14.64,14.64,0,0,1-7.35,0,.62.62,0,0,0-.46.09c-.44.5-1.1.32-1.66.29-1.08,0-2.16,0-3.25-.14s-2.07.26-3.13-.21c-.34-.15-1.17.29-1.43.13A3.48,3.48,0,0,0,198.63.2c-1.48.2-3.07-.47-4.47.38-.11.07-.45-.09-.68-.14-.39-.08-.94-.33-1.14-.22a3,3,0,0,1-2.6.31c-.81-.49-1.77.6-2.28-.33-.72.77-1.37-.35-2.18,0-.41.15-1,.65-1.65.06-.44-.38-1.13.54-1.68.11-.83-.65-1,.47-1.81.32A16,16,0,0,0,177,.6h-3.37a12.12,12.12,0,0,1-3.08,0c-1.09-.31-2.05.43-3,0s-2,0-2.94.1a4.11,4.11,0,0,1-2,.11c-.63-.2-1.57.3-2.27.17A8.32,8.32,0,0,0,158,1c-2.23.17-4.49.07-6.74,0-.72,0-2.36.64-2.42,1.17-.21,1.86-1.26,3.62-1.09,5.53,0,.42.66.76.09,1.32-.34.33.07,1.08-.18,1.54s0,.46,0,.74a23,23,0,0,1,.12,3.22c-.83.25.27.86-.36,1.17-.82.41-.41,1-.36,1.57a7.5,7.5,0,0,1,.18,1.14c0,.44-.27.87-.29,1.31s.4.8.24.95c-.6.56-.67,1,0,1.58.2.18.12.63,0,.92-.84,2.16-.41,4.35-.2,6.51a2.75,2.75,0,0,1,0,1.4c-.18.46.36,1.08.22,1.57a3.19,3.19,0,0,0,0,2,6.75,6.75,0,0,1,0,2v1.83a15.13,15.13,0,0,0,0,2,10.07,10.07,0,0,0,.5,1.65c-1.32.32.39,1.15-.43,1.56-.12,1.27,1,1.87,2.52,1.72a42.39,42.39,0,0,1,6.57-.08c.61,0,1.25.4,1.76,0,.84-.67,1.11.67,1.79.25,1.22-.76,2.63-.27,3.95-.37.93-.08,2.08.21,2.78-.12a4.31,4.31,0,0,1,2.68-.24,7.54,7.54,0,0,0,2.19-.07c.8-.06,1.69.25,2.42-.36.16-.14.78,0,1.18.1s.79.3.86.24c.86-.82,1.65-.17,2.46,0,.43.11,1.08.41,1.26.28a2,2,0,0,1,2.1-.13c.78.44,1.07-.38,1.76-.19a9.92,9.92,0,0,0,2.32,0c.77,0,1.55,0,2.33,0a12,12,0,0,1,2.5.18c.78.21,1.24-.39,2-.23.54.11,1.39-.47,1.81-.3a5,5,0,0,0,1.9.35,8.82,8.82,0,0,1,2.06,0,2.37,2.37,0,0,0,1.68,0c.3-.12.85.45,1.33,0,.31.6,1.21-.41,1.47.33.53-.13,1.05-.29,1.6-.38a2.29,2.29,0,0,1,.69.14,6.74,6.74,0,0,0,.85.2c.49-.88,1.28.18,1.84-.18.77-.5,1.36.07,2,.22.32.07.85.13,1,0,.7-.6,1.3,0,1.93,0,.81,0,1.72-.33,2.44.28a1,1,0,0,0,.68,0c2.23-.74,4.56-.14,6.82-.34.73.55,1.61-.24,2.13,0,.94.51,1.65.06,2.46,0a11.36,11.36,0,0,1,3.68.37,10.19,10.19,0,0,0,2.07,0h2.07c.7,0,1.39,0,2.08,0a12.37,12.37,0,0,1,1.73.19,4.43,4.43,0,0,0,1.56-.17,9.48,9.48,0,0,1,2.32,0,5.13,5.13,0,0,1,1.76.57c.59.33,1.13-.72,1.64,0,.8-.14,1.82,0,2.27-.67a1.33,1.33,0,0,0,.1-1.44,1.93,1.93,0,0,1-.32-1.33,5.12,5.12,0,0,1,0-1.41c.09-.49.43-1,.48-1.46.08-.87-.34-1.89.12-2.59s-.9-1.62.41-2.18c0,0,0-.28-.09-.35C248.52,34.15,249,33.37,249,32.67Z"/></g><g id="レイヤー_2" data-name="レイヤー 2"><path class="cls-1" d="M24.24,34.25A2.29,2.29,0,0,1,23.5,34c-.29-.24-.5.5-.79,0-.09-.15-.58,0-.79-.16a2.43,2.43,0,0,0-1.81-.53c-.73.21-1-.47-1.54-.46-1.57,0-2.7-1.16-4.12-1.56-.47-.13-.81-.79-1.15-1.25s-.54-1-.87-1.39-.7-.55-.24-1.07c.06-.06-.66-.84-.63-.87.56-.52.37-1,0-1.49.84-.44-.1-1.11.22-1.73.24-.46.24-1.17.45-1.74s.52-1.2.73-1.81a10.6,10.6,0,0,1,1.92-3.23,9.31,9.31,0,0,1,3.68-2.53c.4-.16.9-.42,1.25-.31s.61-.77,1-.12a.12.12,0,0,0,.12,0l.75-.56c.27.44.43.05.62-.08.5.79,1.47,0,2.06.6a1.56,1.56,0,0,0,1.05.37c.32,0,.53-.46,1-.09a7.19,7.19,0,0,0,1.66.66c.31.13.84-.16.91.51,0,.15.45.26.68.41,1.34.85,2.7,1.69,2.71,3.58,0,.17.52.32.58.54s-.19.49-.24.75.11.3.2.44a5.85,5.85,0,0,1,.55,2.31c.2,1.17-.76,2.28-.1,3.42a24.1,24.1,0,0,1-1,2.17,13.69,13.69,0,0,1-1.5,2.19,9.49,9.49,0,0,1-2,1.82,12.41,12.41,0,0,1-2.54,1.07A16.8,16.8,0,0,1,24.24,34.25ZM13.92,23.61c.3,1.62.47,3.18,1.74,4.35.44.41,1.1.71,1.17,1.44a.32.32,0,0,0,.23.21c1-.05,1.42.82,2.16,1.17.15.07.28.22.43.24,1,.13,2,.24,3,.36.44.05.93-.18,1.31.25a.52.52,0,0,0,.46.06,20.84,20.84,0,0,1,3.12-1.41c.33-.1.48-.7.78-1A5.41,5.41,0,0,0,30.25,25c0-.61-.7-1.4.32-1.85-.06-.83.3-1.73-.58-2.39-.29-.22-.41-.65-.64-1a12.76,12.76,0,0,0-1.25-1.58,16.07,16.07,0,0,0-1.58-1.25c-.13-.11-.28-.35-.38-.33a3.18,3.18,0,0,1-1.77-.42c-.57-.19-1.22-.69-1.66-.54s-.85-.2-1.3-.15a4.48,4.48,0,0,0-1.5.64c-.53.28-1.07.54-1.61.8s-1.13.36-1.29,1c-1-.12-.27,1-.73,1-1.2,0-.51,1.61-1.57,1.61C14.45,21.63,14.18,22.64,13.92,23.61Z"/><path class="cls-1" d="M20.06,28.94c-.16-.94.12-1.75-.4-2.49-.33-.45.32-.93.11-1.5a2.77,2.77,0,0,1-.06-1.51,1.51,1.51,0,0,0,0-.64,3.24,3.24,0,0,1,.19-2.49c.12-.18,0-.55,0-.81s-.43-.26,0-.45a4.65,4.65,0,0,1,2.18-.75A5.25,5.25,0,0,1,25,19a2.34,2.34,0,0,0,.81.16c0,.37-.15.71,0,.94A2.88,2.88,0,0,1,26,21.86c-.09.2-.36.41-.33.56.29,1.21-.88,1.4-1.4,2-.38.47-1,.17-1.48.22-.73.08-1.05.29-1,1.05s-.45,1.18-.06,1.84c.16.25.09.62-.47.67C20.87,28.28,20.52,28.66,20.06,28.94Zm1.7-5.56c.48-.19.81-.34,1.15-.45,1.37-.44,1.72-1.35,1-2.55a5.82,5.82,0,0,0-1.38-.48c-.31.38-.83.6-.76,1.26A20.1,20.1,0,0,1,21.76,23.38Z"/><path class="cls-1" d="M163.82,16.14c0,.37-.37.94-.24,1.08.47.5.09,1,.13,1.46a4.26,4.26,0,0,1-.17,1c0,.32.63.64,0,1,.11.17.17.4.32.51a2.87,2.87,0,0,0,2,.36,3.66,3.66,0,0,1,3.3,1.94,2.64,2.64,0,0,1-.09,2.51c-.34.65-.09.71.48.31.1-.07.59.47.94.65s.59-.11.65.37a1,1,0,0,1-.53,1,2.66,2.66,0,0,1-1.27.37,10.25,10.25,0,0,1-1.07-.16c-.34,0-.58-.37-.77.19a2.07,2.07,0,0,1-.5.69c-.13.13-.35.29-.5.27a1.23,1.23,0,0,1-.73-.38,1.83,1.83,0,0,1-.25-1,1,1,0,0,1,.31-.63c.51-.44.18-.78-.17-1a2.62,2.62,0,0,0-1.85-.52h.08a.81.81,0,0,0-.11-.27s-.14,0-.21.06a.64.64,0,0,0,.24.21c.22.86-.22,1.78.33,2.61,0,.06-.07.32-.17.36-.31.13-.75.36-.95.24a3.33,3.33,0,0,1-1.15-1.12,1.31,1.31,0,0,1,.08-1.47c.13-.18-.2-.62.13-.91,0,0,0-.24-.07-.31-.2-.23-.42-.44-.67-.69.55-.31.8-.72.39-1.31a.45.45,0,0,1,0-.36,3.58,3.58,0,0,0,0-2.05,14.63,14.63,0,0,1,0-2.21c-.64,0-1.23.7-1.75,0a.25.25,0,0,0-.17,0c-.21.57-.44,1.13-.6,1.71-.1.4.18.46.54.47a.86.86,0,0,1,.53.28c.25.31.44.67.69,1.05-.07.06-.19.24-.34.29-.69.2-.91.48-.57,1.25.46,1,.32,1.36-.48,2-.18.13-.53,0-.76.07s-.58.47-.87.48c-.53,0-.65.26-.55.66.16.65.38,1.29.56,1.93.08.27.13.55.23,1-.33,0-.6.09-.87.09-1.34,0-1.93-.75-1.69-2,.67-.36,0-.7-.1-1-.12-.5-.52-.23-.78,0-.61-.66-1.57.06-2.25-.58-.24-.22-.59-.22-.54-.68a.8.8,0,0,1,.75-.82c.78-.05,1.56,0,2.32,0,.68-.5-.71-1,.05-1.54.15-.11,0-.62,0-.94-.33.44-.63,0-1,0-.09,0-.2.08-.3.12A3.49,3.49,0,0,1,153,23c-.92,0-1.11-.41-.72-1.28.13-.29.17-.41.49-.55s1-.57.32-1.19a.45.45,0,0,1,0-.46c.29-.3.34-.44-.16-.49s-.85-1-1.54-.37a2.89,2.89,0,0,1-.16-1.14,1.09,1.09,0,0,1,.73-.62,8.62,8.62,0,0,1,1.44,0c.78,0,.9-.18,1.07-1.43-.78,0-1.54,0-2.3,0-.56,0-.91-.21-1-.78s.2-1,.74-1,1.17-.63,1.9-.06c.38.3.78-.14.6-.68s-.62-.86,0-1.31c-.83-.77.32-.36.4-.63s.33-.1.48.06c.32.34.69.6.63,1.19-.1,1,.46,1.43,1.37,1.53a3.24,3.24,0,0,0,1.48-.31c.64-.54.89.36,1.38.27,0,.28.17.69,0,.82-.32.32-.19,1.19-1,.9-.62-.21-1.19.36-1.89,0s-.81.18-.73,1.13c0,.22-.62.78.27.63.57-.09,1.13.16,1.73-.2.32-.19.93.13,1.41.2s.84-.14,1.16.3c0,.07.31,0,.47,0,0-.21,0-.47-.05-.61s-.22-.35.14-.41c.67-.12.79-.62.75-1.19s.26-.84.79-1a5.9,5.9,0,0,1,4.24,0c.12.06.39-.18.71-.34a10.81,10.81,0,0,1,1.23,1.76A3.82,3.82,0,0,1,170,18a8.12,8.12,0,0,1-.36,1.64,1,1,0,0,1-1.05.49c-.36,0-.55,0-.73-.5s-.43-.86-.07-1.41-.31-1,.12-1.45l-1.32-.92c-.73.59-1.47.27-2.22.06-.12,0-.29.16-.52.24h.08a.81.81,0,0,0-.11-.27s-.14,0-.21.06A.64.64,0,0,0,163.82,16.14Zm-7.44,4.7c.48.24.8-.21,1-.62a.78.78,0,0,0-.41-1,1.72,1.72,0,0,0-1.81.11c-.27.23-.43.44.12.48a.37.37,0,0,1,.28.16C156,20.83,156,20.83,156.38,20.84Zm11.14,5.07c0-.51,0-.86,0-1.21,0-.71-.56-1-1-1.31-.1-.08-.55.33-.68.25-.3-.18-.6-.51-.83-.07-.08.15.24.62.47.82C166.1,24.9,166.76,25.35,167.52,25.91ZM157,24.64a7.53,7.53,0,0,1,1.81-.53c1.08,0,.82-.65.57-1.07-.11-.19-.92-.18-1.06,0-.4.53-.66-.07-1,0-.13,0-.32.17-.34.28C157,23.63,157,24,157,24.64Z"/><path class="cls-1" d="M140.87,22.12c-.82-.16-1.22-.31-1.48-.18-.78.38-1.49-.14-2.25-.05-.54.05-.46-.68-.7-1-.05-.08.33-.63.59-.73.53-.19,1.2.23,1.67-.33.29.45.81-.23,1.2.27.17.23.85.09,1-.37a2.81,2.81,0,0,0,.06-1c-.45,0-.27-1.07-1.19-.51-.65.4-1.66.12-2.53.39s-1.22-.22-.89-1.22a3.09,3.09,0,0,0,0-.82c.56,0,1.27.09,1.67-.19.61-.44,1.12.61,1.5,0s1.1.5,1.48-.47c-.18-.19-.44-.45-.71-.71-.08-.07-.27-.16-.29-.13-.52.58-1-.18-1.52,0a1.63,1.63,0,0,1-.54,0c-1,0-1.18-.22-1.22-1.26,0-.24,0-.48,0-.74.45-.32.82-.2,1.26.12.11.08.53-.52,1-.06s1.3-.22,1.81.4a1.55,1.55,0,0,0,.27-.24c.1-.13.12-.35.25-.43.4-.26-.25-.89.4-1s1,.33,1.32.72c.19.23.9.41.23.88a1.47,1.47,0,0,0,.42.2,8.1,8.1,0,0,0,1.39.15,8.26,8.26,0,0,0,1.31-.18,3.26,3.26,0,0,1-.4,2.61c-.55-.86-1.57,0-2.14-.68,0,0-.34.25-.52.26-.62,0-.42.45-.43.76,0,.08.17.23.26.23a8.93,8.93,0,0,1,2,.34c.35.08.58.65,1.15.23.24-.17.77.8.52,1.19a10.83,10.83,0,0,1-.9,1,2.5,2.5,0,0,0-2.67-.78,4.71,4.71,0,0,0,0,1c0,.14.42.36.46.32.29-.25.46-.3.83,0,.18.14.7-.26,1.07-.26a3.26,3.26,0,0,1,1,.3c.21.07.52.05.63.2a1.39,1.39,0,0,1,.35.91c-.08.51-.47.74-1,.72-.35,0-.7.19-1.06.19a9.31,9.31,0,0,1-1.49-.31c1.08.89,2,1.25,2.4,2.25a11.53,11.53,0,0,1,.86,1.79c0,.66,0,1.32,0,2a1.81,1.81,0,0,0,.32,1.14,1.52,1.52,0,0,1,.06,2c-.15.17.12.59-.36.67s-.74.25-1.12.33c-.09,0-.31-.16-.34-.28-.16-.72-.28-1.44-.41-2.15a2.66,2.66,0,0,1-1,.26c-.81-.12-1.58.33-2.43.06-.54-.17-1.33.63-1.23,1.36s-.61.72-.92,1c-.07.08-.62-.08-.69-.25a6.29,6.29,0,0,1-.58-1.91c0-.73.06-.75-.4-1.19a5.68,5.68,0,0,0,.88-.89c.16-.26.23-.89.14-.93-.91-.42-.22-1.07-.28-1.6,0-.17,0-.36,0-.66a8.43,8.43,0,0,0-1-.06,3.07,3.07,0,0,1-2.56-.82c-.17-.18-.52-.18-.78-.27s-.74-.4-.9-.3c-.45.3.09.56.14.85.1.55-.39,1-.35,1.64a9.31,9.31,0,0,1,.1,2.06,2.39,2.39,0,0,1-1.05,1.88c-1.29-.83-1.26-.83-.92-2.27a3.57,3.57,0,0,0,0-1.56,4.12,4.12,0,0,1,0-2.81c.08-.34.18-.85,0-1-.47-.54-.09-1.25-.38-1.65-.42-.62.13-1,.07-1.54a8.42,8.42,0,0,1,.14-1.73c0-.09.16-.22.14-.25-1-1.46.42-1.9,1-2.69.67.12.92.45.89,1a4.5,4.5,0,0,0,0,.9c0,.28.69.69-.22.7a1.14,1.14,0,0,0-.14.62c.08,1-.28,2,.33,2.93.14.21,0,.59,0,.92,2,.55,4.13.89,5.68,2.79a3.84,3.84,0,0,1,.17-1.37c.2-.32.67-.48,1.51-.69.17,0,.11-.11,0-.19l-.53.52c.14.06.32.21.42.17S141.06,22.38,140.87,22.12Zm3.78,3.39c-.24-1.47-1.2-1.54-2.28-1.43-.4,0-.8,0-1.64,0C142,25.6,143.27,25.56,144.65,25.51Zm-4,2.13a11.05,11.05,0,0,0,1.28.41c1.08.2,2.23-.35,3.27.29a.29.29,0,0,0,.24-.11c0-.1,0-.32,0-.34-.51-.19-1-.78-1.52-.52-.37.18-.8,0-.9.09-.43.59-.88-.22-1.12,0C141.44,28,141.26,27,140.65,27.64Zm1.73-5.29.48-.19a1.08,1.08,0,0,0-.31-.23c-.09,0-.2.07-.3.11Zm1.31-.2.13.13a.86.86,0,0,0,.11-.24s-.07-.08-.11-.12Z"/><path class="cls-1" d="M78.13,20.11H76.47a10.76,10.76,0,0,1-1.27,0,5.06,5.06,0,0,1-.91-.29c-.18.66-.56-.18-.93.12s-1-.59-1-1.05.34-.77.82-1,.91.51,1.38.16,1,.13,1.24-.49c.52.64,1.22.25,2,.4a3.1,3.1,0,0,0-.12-1c-.13-.23-.16-.29,0-.54a9,9,0,0,0,.5-1.41c.2-.59.58-.69,1.12-.31A1.92,1.92,0,0,1,80,16.31c-.08.26-.3.49-.34.75a7.79,7.79,0,0,0,0,1.21c.62-.05,1.24.27,1.85-.16.07-.05.25,0,.37.07A2.66,2.66,0,0,0,84,18.05c.45-.3.64.07.88.3s.15.51-.1.74-.69.83-1.35.68c-.19,0-.41.16-.63.2a3.1,3.1,0,0,1-1.82.18c-.63-.21-.76,0-.64.9.07.47-.84.71-.21,1.22s-.28.88-.15,1c.57.54-.27,1.15.27,1.8s-.24,1.61.34,2.36c-.45.73-.21,1.55-.28,2.33a1.74,1.74,0,0,1-1.15,1.18c-.66.12-1.36-.68-1-1.24a1.18,1.18,0,0,0,0-1.52c.52-.5.36-1,.13-1.6a1,1,0,0,1,.19-.84c.3-.42-.68-.59-.12-1,.18-.15-.42-.47,0-.78.15-.1.18-.62.06-.84C78,22.17,78.2,21.16,78.13,20.11Z"/><path class="cls-1" d="M93.81,25.08c.09-.32.17-.62.26-.92.15-.48.3-1,.46-1.44.89.07.43-.79.75-1.09s.83-.59,1.24-.9c.14-.11.37-.26.37-.38,0-1,.71-1.45,1.3-2s1-1.27,1.86-1.58c.64-.23.58-.39,1.49-.22,0,1-1,1.59-1,2.57,0,.09-.25.16-.37.25a1,1,0,0,0-.35,1.47c.46.82.12,2,1,2.62-.71.78.75.91.49,1.71-.13.43.45,1.09.69,1.65a4,4,0,0,1,.32.94c.08.4,0,.59-.54.67-1,.13-.86.14-1.41-.67-.35-.51,0-1.58-1.09-1.55-.06,0-.21-.28-.2-.41a1.56,1.56,0,0,0-.55-1.41c-.17-.15-.17-.54-.17-.81,0-1.1,0-1.1-.6-1.73-.28,1-1.19,1.48-1.62,2.38A1.8,1.8,0,0,1,93.81,25.08Z"/><path class="cls-1" d="M115,16.26l1.68-.6.57,5.05c1.22.12,2.17,1.16,3.47,1.32.16,0,.33.27.44.23,1-.27,1.14.47,1.52,1.18l-.79.83c-.26.27-.48.18-.76,0s-.27-.79-.78-.32c0,0-.47-.37-.75-.49a2.48,2.48,0,0,0-.68-.09,1.73,1.73,0,0,1-.52-.06c-.37-.19-.51-1-1.1-.52-.11.08.22.67.24,1a11,11,0,0,0,.34,3.47c.21.55-.17.91-.94,1.13-.58.17-.85-.13-1-.65s-.74-.75-.29-1.44c.19-.29-.23-.94-.31-1.44-.16-1.08.34-2.24-.37-3.27.81-.71-.6-1.72.34-2.46a1.06,1.06,0,0,0,0-1C114.83,17.54,115.16,16.9,115,16.26Z"/><path class="cls-1" d="M173.36,24.93a3.55,3.55,0,0,0,1.4-3.09c0-.4.07-.55.52-.71s.3-.93.59-1.31,0-1,.77-1.19,1.57-.26,2,.18c.64.72,1.84.85,2.08,2,0,.15.25.37.37.36.73,0,.74.44,1,1A38.88,38.88,0,0,0,184.85,26c-.06.09-.09.21-.16.25-1.2.79-1.14.73-2.14-.33-1.24-1.31-1.94-3.06-3.42-4.17.11-.8-.73-.5-1-.86-.33.44-1.09.32-1.23,1.09a5,5,0,0,1-.87,2.17,18.77,18.77,0,0,0-.91,2.12c-.23.44-.47.48-.76.1S173.71,25.44,173.36,24.93Z"/><path class="cls-1" d="M87.39,14.64a10.38,10.38,0,0,0,3,.46c.94.09,1.58,1,2.12,1.62a2.66,2.66,0,0,1,.29,2.62,10.51,10.51,0,0,1-.66,1.7c-.26.44-.59,1.2-1.08,1.08-.74-.19-1.34.41-2.14,0a5.17,5.17,0,0,1-2.35-2.41c0-.05-.12-.09-.12-.13a5.51,5.51,0,0,0,.18-1,6.51,6.51,0,0,0-.21-1.05c-.08-.38.18-.63.33-.94A13.69,13.69,0,0,0,87.39,14.64Zm1.31,2.63c-.14.49-.51,1.1-.37,1.54A2.13,2.13,0,0,0,90,20.38a.47.47,0,0,0,.16-.14,2.84,2.84,0,0,0,.65-1,2.8,2.8,0,0,0-.08-1.55c-.33-.77-1.12-.42-1.74-.48A.83.83,0,0,0,88.7,17.27Z"/><path class="cls-1" d="M76.09,23.25c0,.64-.07.81-.46,1-1.1.53-1.32,1.64-1.77,2.6.67.36-.21.6-.11,1,0,.18-.25.4,0,.79s-.52,1.53-1,1.59c-.27,0-1.08-.73-1.1-1.11s-.1-.95.35-1.28c-.36-1.24.68-2.12.86-3.25s1.4-1.82,2.23-2.63c.06-.07.48.08.57.22A5.69,5.69,0,0,1,76.09,23.25Z"/><path class="cls-1" d="M105.41,28.07a4.27,4.27,0,0,0-.29-1.05c-.14-.25-.24-.33.13-.42,1.14-.26,2.08-1.09,3.32-1.09a5.88,5.88,0,0,0,2.31-1.05c.17-.14.32-.31.49-.48l1.16,1.15a10.82,10.82,0,0,1-.9,1.43c-.17.2-.69.38-.82.28-.76-.58-.29.36-.53.39,0,0-.12.09-.12.08-1.1-1.08-1.81.67-2.79.38C106.78,28.29,106.06,28,105.41,28.07Z"/><path class="cls-1" d="M82.66,23.31a4.27,4.27,0,0,1,1,.43,2.13,2.13,0,0,1,.57.81,4.49,4.49,0,0,1,.21,1c.72-.29.4.62.9.78A4.41,4.41,0,0,1,87,27.68c.18.22.13.63.19,1-.38,0-.58.49-1.13.27-1.35-.53-2.62-1.09-3.22-2.53-.13-.31-.77-.31-.48-.9.12-.26-.1-.66,0-1A7.44,7.44,0,0,1,82.66,23.31Z"/><path class="cls-1" d="M127.28,27.33l-.65-.27c.23-.47-.68-1,.1-1.47A.72.72,0,0,0,127,25c-.18-1.25.73-2.11,1.13-3.14.09-.24.51-.35.76-.55s.53.51.77,0c0,0,.24.06.23.09,0,.64.15,1.41-.14,1.9a24.84,24.84,0,0,0-1.27,3.25C128.12,27.31,128.18,27.33,127.28,27.33Z"/><path class="cls-1" d="M105.71,16.93c.71.52,1.63.89,2,1.56a10.55,10.55,0,0,0,1.61,1.83.88.88,0,0,1,.21,1.1,4.1,4.1,0,0,1-1.07.85.41.41,0,0,1-.28-.17c-.3-.86-1.18-1.13-1.75-1.72-.33-.33-.75-.5-1-1-.62-1.09-.69-1,.22-2C105.73,17.3,105.69,17.08,105.71,16.93Z"/><path class="cls-1" d="M72,30l-.21.17c0-.08-.08-.2-.06-.22a.81.81,0,0,1,.27-.11Z"/></g></svg>