<svg xmlns="http://www.w3.org/2000/svg" viewBox="0 0 249.34 45.02"><defs><style>.cls-1{fill:#fff;}</style></defs><g id="レイヤー_1" data-name="レイヤー 1"><path d="M114.8,13.38c.48-.3-.3-.46,0-.9A3,3,0,0,0,114.9,10a5.75,5.75,0,0,0-.75-1.43c-.63-.78.44-1.2.35-1.81,0-.32,0-.69-.2-1a5.43,5.43,0,0,1-.86-3.38c0-1.43-2.08-2.58-3.94-2.31-.51.69-1.1-.45-1.62.05s-1.45.19-2.18.29c-.49.07-1.23,0-1.44.16-.63.64-1.18-.2-1.65,0a1.51,1.51,0,0,1-1.8-.12.91.91,0,0,0-.67,0A.91.91,0,0,1,98.69.45a1.91,1.91,0,0,1-1.59.4c-.95,0-1.91,0-2.86,0s-1.73,0-2.59,0L89.24.74c-.85-.05-1.81.38-2.4.06A5.52,5.52,0,0,0,83.91.45c-5.45,0-10.9,0-16.34,0-.64,0-1.37.27-1.95-.24a1,1,0,0,0-.68-.13,6.28,6.28,0,0,1-4.78,0,2,2,0,0,0-1,0,15.6,15.6,0,0,1-6.63,0c-.25,0-.59.18-.88.17S51,.08,50.66,0a3,3,0,0,0-1,0c-.62.14-1.26.71-1.82.33-.79-.54-1.25.26-2,.1a6.49,6.49,0,0,0-2.56,0c-.77.16-1.26-.34-2-.25S39.84,0,39.19.43a.31.31,0,0,1-.23,0C38.26-.2,37.5,0,36.65.2c-.66.15-1.45,0-2.12.1A8.84,8.84,0,0,0,32,.82c-.73.41-1.55-.63-2.37,0-1.24-.7-2.65-.26-4-.32-.45,0-.79.66-1.51.17-.23-.16-1,.17-1.47.19-.78,0-1.56,0-2.34,0s-1.77.24-2.28,0c-.82-.46-1.36.23-1.94,0a2.7,2.7,0,0,0-1.92,0c-.54-.63-1.15.21-1.63,0-1.6-.77-3.33-.19-5-.38C6.7,1.17,5.94.51,5.15.36A13.37,13.37,0,0,0,3,.57L.45,3.78a1.15,1.15,0,0,1,.11.29A6,6,0,0,1,.77,6.6c-.32.9.29,1.66.12,2.52s0,1.89-.07,2.82.55,1.76-.49,2.47c.26.82,1.08,1.64,0,2.48a3.15,3.15,0,0,1,0,3.55c1,.71,0,1.38-.07,2.07,1.28.7-.43,1.37,0,2.11.2.36-.77.84,0,1.27C.44,27.33,0,28.8.84,30.18c-.83.7.29,1.35.06,2.1S1,34.05.79,34.9c-.11.49.86.78.18,1.34-.48.4.18,1.14-.54,1.66-.27.18-.3,1-.07,1.11.71.41-.1.92.4,1.42s.1,1.3.08,2a2.88,2.88,0,0,0,1.51,2.34c.11.08.47.13.52.07.58-.59,1.23.25,1.41.08C5,44.21,5.47,45,6,45c1-.09,2,.32,2.94-.35.4-.28,1.24.06,1.92-.28.37-.19,1.29.36,1.74.2a14.66,14.66,0,0,1,4.22-.37c.52,0,1.23-.4,1.5-.24a2,2,0,0,0,1.67.21c.8-.29,1.76-.64,2.35-.3.91.52,1.47-.44,2.23-.08a3.33,3.33,0,0,0,1.36.34c.44,0,.88-.31,1.31-.3s1.22.43,1.29.35c.72-.78,1.69,0,2.56-.29a4.11,4.11,0,0,1,3.18.23c.25.16.95,0,1.36-.16a1.57,1.57,0,0,1,1.61.09,1.06,1.06,0,0,0,.67.15c1-.81,2.3-.25,3.44-.37a2.9,2.9,0,0,1,1.69.22c.37.19,1.16-.23,1.76-.22s1.55.43,2,.24a1.77,1.77,0,0,1,2,.12.9.9,0,0,0,.67-.13c.57-.5,1.46,0,1.9-.3.77-.54,1.28.26,2,.06s1.38-.47,1.77-.29c1.79.84,3.93-.39,5.62.67.64-.68,1.61-.45,2.36-.35s1.58-.65,2.4-.11c.26-.74.81.26,1.34-.15.37-.28,1.28-.19,1.94-.18s1.26.35,1.47.2c.8-.62,1.17.29,1.78.2s1-.17,1.44-.21c.81-.06,1.63-.09,2.44-.1.18,0,.49.21.53.18.65-.57,1.48-.18,2.2-.27a3.71,3.71,0,0,1,2.13.39c.61.29,1.13-.56,2,0,.46.29,1.42,0,2.09.43s1.24-.69,1.88,0c.37-.63,1.14-.14,1.73-.33.74-.24,1.8.17,2.69.1.56,0,1.07.23,1.68,0a4.09,4.09,0,0,1,1.73-.14c.53,0,1.3.45,1.53.3a2.76,2.76,0,0,1,1.67-.31c.61,0,1.22,0,1.81,0,.21,0,.38.29.6.33.61.11,1.22.65,1.87.06a62.18,62.18,0,0,0,9.58-.5c.49-.61,1-1.25,1.52-1.88.08-.1.27-.27.26-.28-1.07-.73-.24-1.76-.63-2.63-.28-.63-.8-1.57-.28-2.15s.34-1.27.44-1.9c.06-.33-.06-.69,0-1,.17-.48.6-.91.68-1.39a7.73,7.73,0,0,0-.19-1.56c0-.6,0-1.21,0-1.82s-.28-1.25.06-1.58c.62-.62-.34-1-.07-1.53.12-.23,0-.58.2-.73.47-.39.24-.61,0-1s0-1,0-1.48c0-.31.24-.61.27-.92.06-.71-.23-1.5.82-2,.07,0,.12-.24.08-.27a1.15,1.15,0,0,1-.3-1.67c.61-.69-.3-1.16-.09-1.73.16-.42-.22-.94.42-1.3.11-.06.13-.42,0-.52C114.53,14,114.22,13.73,114.8,13.38Z"/><path d="M96.32,13.38c-.65-.3.4-.46.06-.9A2.32,2.32,0,0,1,96.19,10a5.33,5.33,0,0,1,1-1.43c.84-.78-.58-1.2-.46-1.81.07-.32,0-.69.26-1A4.46,4.46,0,0,0,98.14,2.4c0-1.43,2.76-2.58,5.24-2.31.68.69,1.47-.45,2.16.05s1.94.19,2.9.29c.65.07,1.64,0,1.92.16.85.64,1.58-.2,2.21,0A2.57,2.57,0,0,0,115,.51a1.55,1.55,0,0,1,.88,0,1.49,1.49,0,0,0,1.94-.08,3.21,3.21,0,0,0,2.13.4c1.26,0,2.53,0,3.8,0s2.31,0,3.46,0l3.21-.1c1.13-.05,2.41.38,3.19.06A9.71,9.71,0,0,1,137.5.45c7.26,0,14.52,0,21.78,0,.85,0,1.82.27,2.59-.24a1.65,1.65,0,0,1,.91-.13,11,11,0,0,0,6.37,0,3.55,3.55,0,0,1,1.33,0,27.53,27.53,0,0,0,8.83,0c.35,0,.79.18,1.18.17s.87-.18,1.33-.22a5.23,5.23,0,0,1,1.37,0c.82.14,1.68.71,2.42.33,1-.54,1.66.26,2.62.1a11.6,11.6,0,0,1,3.43,0c1,.16,1.67-.34,2.68-.25a8,8,0,0,1,2.76.21.55.55,0,0,0,.31,0c.93-.61,1.94-.39,3.07-.21.89.15,1.94,0,2.83.1a15,15,0,0,1,3.43.52c1,.41,2.08-.63,3.17,0,1.65-.7,3.53-.26,5.29-.32.6,0,1.05.66,2,.17.32-.16,1.29.17,2,.19,1,0,2.07,0,3.11,0a10.39,10.39,0,0,0,3,0c1.1-.46,1.82.23,2.59,0a4.73,4.73,0,0,1,2.56,0c.72-.63,1.53.21,2.17,0,2.13-.77,4.44-.19,6.65-.38,1.11.73,2.12.07,3.17-.08a23.87,23.87,0,0,1,2.85.21l3.42,3.21c-.05.1-.14.19-.15.29-.13.85-.64,1.76-.28,2.53s-.38,1.66-.15,2.52-.06,1.89.09,2.82-.74,1.76.65,2.47c-.35.82-1.44,1.64-.07,2.48a2.53,2.53,0,0,0,0,3.55c-1.37.71-.06,1.38.09,2.07-1.7.7.58,1.37,0,2.11-.26.36,1,.84,0,1.27-.16,1.44.47,2.91-.7,4.29,1.12.7-.37,1.35-.07,2.1s-.11,1.77.14,2.62c.15.49-1.14.78-.23,1.34.64.4-.25,1.14.72,1.66.35.18.39,1,.08,1.11-.93.41.15.92-.52,1.42s-.14,1.3-.11,2c0,1-.85,1.71-2,2.34a1.27,1.27,0,0,1-.7.07c-.77-.59-1.63.25-1.88.08-1-.68-1.58.14-2.31.09-1.29-.09-2.66.32-3.92-.35-.53-.28-1.65.06-2.55-.28-.49-.19-1.72.36-2.32.2a25.8,25.8,0,0,0-5.62-.37c-.69,0-1.64-.4-2-.24a3.56,3.56,0,0,1-2.23.21c-1.06-.29-2.35-.64-3.13-.3-1.22.52-2-.44-3-.08a5.76,5.76,0,0,1-1.82.34c-.58,0-1.17-.31-1.74-.3s-1.63.43-1.73.35c-.95-.78-2.24,0-3.41-.29a7.13,7.13,0,0,0-4.23.23,3.73,3.73,0,0,1-1.82-.16,2.69,2.69,0,0,0-2.14.09,1.82,1.82,0,0,1-.89.15c-1.38-.81-3.07-.25-4.59-.37A5,5,0,0,0,192,44c-.5.19-1.55-.23-2.35-.22s-2.06.43-2.72.24a3,3,0,0,0-2.68.12,1.53,1.53,0,0,1-.89-.13c-.76-.5-1.95,0-2.54-.3-1-.54-1.71.26-2.6.06a6,6,0,0,0-2.36-.29c-2.39.84-5.24-.39-7.49.67-.85-.68-2.15-.45-3.16-.35s-2.1-.65-3.19-.11c-.35-.74-1.09.26-1.79-.15a7,7,0,0,0-2.58-.18c-.68,0-1.69.35-2,.2-1.07-.62-1.57.29-2.37.2-.64-.08-1.28-.17-1.93-.21-1.08-.06-2.16-.09-3.25-.1-.24,0-.66.21-.71.18-.86-.57-2-.18-2.93-.27a6.33,6.33,0,0,0-2.83.39c-.81.29-1.51-.56-2.6,0-.61.29-1.9,0-2.79.43-.7.37-1.66-.69-2.51,0-.49-.63-1.51-.14-2.3-.33-1-.24-2.4.17-3.59.1a8,8,0,0,1-2.24,0,7.19,7.19,0,0,0-2.3-.14c-.71,0-1.73.45-2,.3a4.75,4.75,0,0,0-2.23-.31c-.81,0-1.62,0-2.42,0-.28,0-.5.29-.79.33-.82.11-1.63.65-2.5.06a110,110,0,0,1-12.76-.5l-2-1.88c-.11-.1-.36-.27-.35-.28,1.43-.73.32-1.76.84-2.63.38-.63,1.07-1.57.38-2.15s-.46-1.27-.59-1.9c-.07-.33.08-.69-.06-1-.23-.48-.8-.91-.91-1.39s.21-1,.25-1.56,0-1.21,0-1.82.37-1.25-.08-1.58c-.82-.62.46-1,.1-1.53-.17-.23,0-.58-.27-.73-.63-.39-.32-.61,0-1s0-1-.07-1.48c-.06-.31-.32-.61-.35-.92-.08-.71.3-1.5-1.09-2-.1,0-.17-.24-.11-.27a1,1,0,0,0,.39-1.67c-.8-.69.4-1.16.12-1.73-.21-.42.29-.94-.55-1.3-.16-.06-.18-.42,0-.52C96.68,14,97.09,13.73,96.32,13.38Z"/></g><g id="レイヤー_2" data-name="レイヤー 2"><path class="cls-1" d="M235.69,24.74a2.6,2.6,0,0,1-.21-.83c.05-.3-.46-.51,0-.91.23-.22-.3-.48-.46-.73a2,2,0,0,1-.34-.69A4.28,4.28,0,0,0,233.09,19c-.12-.1-.31-.11-.42-.22-.45-.5-1.09-.95-1.29-1.54-.3-.87-1.14-.51-1.59-.93-.14-.15-.4-.18-.56-.31a1.44,1.44,0,0,0-.7-.34,5.44,5.44,0,0,0-2.27-.39,2.22,2.22,0,0,1-.82-.1c-.34-.08-.75.16-1.13.23a10.91,10.91,0,0,0-2.59,1.14c-.27.13-.35.64-.53,1a.41.41,0,0,1-.2.19c-.85.35-.91,1.29-1.43,1.89a1.94,1.94,0,0,0-.53,1.14c0,.43-.39.82-.12,1.26a9.52,9.52,0,0,0-.74,3.46,1.44,1.44,0,0,1,.18.25,4.26,4.26,0,0,1,.35,1,4.52,4.52,0,0,0,2,3.4c.1.06.26.13.27.22.2,1.17,1.26,1.35,2.1,1.68s1.72.25,2.46.79a.61.61,0,0,0,.52.06c.53-.41,1.14-.2,1.71-.27.29,0,.58-.27.86-.25s.59-.53.88,0c.26-.58.91-.5,1.36-.76.86-.49,1.82-.76,2.33-1.75.25-.49,1-.62,1.06-1.34,0,0,.27,0,.36-.11s.33-.29.31-.41a3.28,3.28,0,0,1,.57-2c.08-.15,0-.44.12-.5C236,25.24,235.18,24.88,235.69,24.74Zm-7.82,1a4.52,4.52,0,0,0-2.44,1.45c-.32.42-.39.37-1.51.38.25-1.27-.32-2.56.4-3.84.22-.38-.67-1,0-1.61-.66-.67.4-.85.19-1.63.84.57,1.4,1,2,1.34A14.73,14.73,0,0,1,228.39,23a9.13,9.13,0,0,1,1.24,1.68A4.13,4.13,0,0,1,227.87,25.72Z"/><g id="_2Yqt0L" data-name="2Yqt0L"><path class="cls-1" d="M97.76,20.52c.59.42,1.3.25,2.1.29l.08,1.61a14.59,14.59,0,0,1-2,.61c-.47.17-.39.27-.31.36.23-.14.46-.28.68-.43a1.53,1.53,0,0,0,.18-.18c-.09-.06-.23-.19-.28-.17-.28.15-.54.33-.27.42a17.16,17.16,0,0,0,2.62.76c-1,1.26-1,1.26-2.49,1.53.78.47,1.39,1.38,2.43.55.12.24.26.48.37.73.32.78.22.9-.65,1.06-.32.06-.62.33-.93.33a3.65,3.65,0,0,1-.94-.33.47.47,0,0,0-.35,0,3.11,3.11,0,0,1-2.25,0,10,10,0,0,0-2.51-.05,1.43,1.43,0,0,1-.36,0,.72.72,0,0,1-.29-1.11c.44-.42.7-.75.13-1.29s0-1-.11-1.46-.43-.9-.62-1.36.54-.71,0-1.15-.85-.66-1.53-.24-.73.23-1.08-.52A5.78,5.78,0,0,1,89.07,18c0-.27-.19-.57-.14-.83.1-.54-.48-1.07.11-1.68.28-.28-.2-1.14.44-1.4A4.4,4.4,0,0,1,91,14c.94,0,1.69-.59,2.58-.77,0,0-.16-.49-.06-.59s.55-.21.71-.41a2,2,0,0,1,2.52-.6,4.86,4.86,0,0,0-.66,1,3,3,0,0,0-.06,1l.61-.1c.09,0,.21-.13.25-.1,1.1.68,2.48.83,3.43,1.74a2.46,2.46,0,0,1,.63,1.28,13,13,0,0,1,0,2.06,13.76,13.76,0,0,1-1.78,1.09,9.79,9.79,0,0,1-1.82.38,4.19,4.19,0,0,1,.35.67v-.08a1.16,1.16,0,0,0-.28.1s0,.15.06.22A.65.65,0,0,0,97.76,20.52ZM91.2,15.77s-.27.08-.27.13c.06.49-.24.86-.37,1.28-.06.19.21.48.33.73.19-.13.44-.21.54-.39a4.77,4.77,0,0,0,.53-1.2c.13-.46-.12-.65-1.11,1.5-.58.39-.22.94-.28,1.38a1.24,1.24,0,0,0,.28.09A23.81,23.81,0,0,1,91.2,15.77Zm7.64,2.37a11.37,11.37,0,0,0,0-1.54c0-.26-.27-.7-.39-.7-.76,0-1.38-1-2.22-.26-.09.09-.31.08-.47.07-1.33-.11-1.32-.11-1.78.76a5.36,5.36,0,0,0-.49.87.88.88,0,0,0,.18.6c.1.14.18.4.52.17s.65-.13,1-.2c.15,0,.3-.11.44-.16V16.64c.05-.05.08-.12.14-.14,1.68-.71,1.7-.68,1.72,1.19a.45.45,0,0,0,.67.41C98.26,18,98.47,18.11,98.84,18.14Zm-3,2.23c-.57-.3-.8-.44-1-.54s-.84-.36-1,.17c0,.2.4.68.7.75S95.23,20.57,95.84,20.37Zm.36,4.85a4.58,4.58,0,0,0-.9-.08c-.29,0-.84-.22-.75.35a1,1,0,0,0,.81.61C95.58,26.11,95.82,25.65,96.2,25.22ZM94,23.32c.48,0,.71,0,.93,0s.62.16.69-.28c0-.11,0-.3-.06-.31a1.85,1.85,0,0,0-.83-.11C94.5,22.67,94.35,22.93,94,23.32Z"/><path class="cls-1" d="M88.51,14.11c-.67,1.29-1.42,2.09-2.82,2s-2,.94-3,1.51c-.09.06-.08.43,0,.59a.92.92,0,0,0,1.08.42c.42-.07.9-.34,1.23-.21.67.26,1.22.84,1.89,1.09,1.11.41.89,1.52,1.38,2.25-.67.83.47,1.59.09,2.44-.07.17.38.62.3.72a4.58,4.58,0,0,1-1,.92,9.73,9.73,0,0,1-3.18.73,10.75,10.75,0,0,1-1.27,0,7.38,7.38,0,0,1-1.69-2.83,2.12,2.12,0,0,0,.32-1.65,5.24,5.24,0,0,0-.9-1.2,2.74,2.74,0,0,0-.45.77c-.12.49,0,1.07-.76,1.1a1.64,1.64,0,0,1-.63,1.37c-.48.55-1,.81-1.48.56a1.26,1.26,0,0,1-.43-1.42c.27-.45.79-.75,1-1.21a1.36,1.36,0,0,0,.2-1.23c.91-.46,1.17-1.4,1.64-2.18a1.65,1.65,0,0,0,.38-1.28c.83,0,.58-.83.88-1.23s.17-.38-.17-.39a5.86,5.86,0,0,0-2.14,0c-.86.37-1.15-.18-1.44-.62a.74.74,0,0,1,.37-1.06,2.84,2.84,0,0,1,1.69-.35,8.08,8.08,0,0,0,1.73.18c.49.1,1,.26,1.47.35.23,0,.58.08.69,0,.44-.52,1-.29,1.51-.29.67,0,1.3.33,2-.2C87.23,13.58,87.87,14,88.51,14.11Zm-4.74,10.3c.69,0,1.29,0,1.88,0s.91-.4.69-1.11a1.46,1.46,0,0,1-.14-.48c.07-1.79-.35-2.29-2-2.37-.28,0-.56,0-1,0Z"/><path class="cls-1" d="M141.83,19.35a3.2,3.2,0,0,1-2.87-2c-.06-.16-.07-.42-.17-.46-.92-.32.22-1.29-.54-1.64.58-.45.31-1.08.33-1.64s1-.65.43-1.32c.25-.13.51-.24.74-.38.38-.23,1.16.14,1.11-.74.67.41,1.43-.57,2.09.11.29.3.54.64,1.05.53a.44.44,0,0,1,.29.1c-.06.72.76,1.15.73,1.65s.64,1.05.12,1.71c-.23.29.09,1-.07,1.39-.24.67-.24,1.44-.84,2s-1.29.37-1.87.72C142.23,19.42,142,19.35,141.83,19.35Zm-1.32-4.91c.15-.19.25-.25.24-.31a2.46,2.46,0,0,0-.08-.46c-.08,0-.23,0-.23.06a17.32,17.32,0,0,1,0,1.93c0,.28,0,.46,0,.64a1.92,1.92,0,0,0,1.08,1.25c.37,0,1.29-.76,1.46-1.23.09-.25.38-.67.32-.72-.6-.55-.21-1.24-.34-1.84a.33.33,0,0,0-.27-.17c-.16,0-.42.12-.42.2,0,.69-.33.66-.79.31-.06,0-.25,0-.37.08C140.39,14.51,140.35,15.12,140.51,14.44Z"/><path class="cls-1" d="M170.83,18.69c.07.95-.81,1.31-1.22,2s-1,1.51-1.53,2.25-1,1.35-1.55,2c-.84-.45-.81-.45-.91-1.52,0-.22-.5-.4.11-.51.13,0,.21-.32.33-.48.41-.55.84-1.09,1.24-1.65a11.17,11.17,0,0,0,.64-1,22.38,22.38,0,0,0,1.56-2.21,2.39,2.39,0,0,1,1.35-1,1.53,1.53,0,0,1,1.2.28c.72.56,1.79.61,2.18,1.72.29.84,1.34,1.11,1.88,1.88,1,1.41,2.17,2.69,3.27,4a1.42,1.42,0,0,1-2.49-.29c-.34-.54-.52-1.27-1.36-1.41-.24,0-.45-.38-.64-.61a10.39,10.39,0,0,0-1.3-1.61c-.53-.42-1.16-.62-1.44-1.37C172,18.94,171.31,18.87,170.83,18.69Z"/><path class="cls-1" d="M135.21,18.15a11.19,11.19,0,0,1-2.78,3.73,2,2,0,0,0-.43.64c-.22.54-.73.77-1.16,1.11a1.38,1.38,0,0,1-.23-.16c-.23-.26-.65-.53-.65-.79a2.37,2.37,0,0,1,.44-1.42c1.4-1.56,2.41-3.47,4.06-4.82a3.12,3.12,0,0,1,.41-.33c.23-.12.5-.32.71-.28.42.09,1.13.31,1.15.51,0,.62,1.23.47.78,1.28.48.95.91,1.93,1.47,2.82.28.44,1.05.65,1.19,1.09.31.95,1.39,1.11,1.71,2,.05.14.39.17.73.31a6.84,6.84,0,0,1-.72.71c-.56.41-.79.18-1.51-.22-1.06-.59-1.47-1.79-2.55-2.33a1.81,1.81,0,0,1-.73-1.12A4.13,4.13,0,0,0,135.21,18.15Z"/><path class="cls-1" d="M112.16,14.6c.3-1.29,1-1.86,2.21-1.74.75.08,1.54-.24,2.25.23,0,0,.22,0,.24,0,.43-.86,1.09-.05,1.6-.22.38.59.86.1,1.27.16s.74.49,1,.71c.16,1,.38,2.07.45,3.1s-.26,2.26.09,3.21-.85,1.3-.5,2.08c-.32,0-.81.12-.94,0a3.37,3.37,0,0,1-.77-1.47,4,4,0,0,1,.13-1.91c.21-.55-.62-1,0-1.5.33-.26-.14-.39-.11-.51.12-.39-.66-.63-.1-1.17.28-.27-.24-.74-.64-.84s-.75.06-1.08,0-.41.63-.86.17c-.2-.21-.64.45-1.15,0-.29-.28-1-.1-1.55-.12Z"/><path class="cls-1" d="M109.78,23.81c0,.06.29.39.56.71a2.39,2.39,0,0,1,.57,2.81l-.4.76c-.21.37-.88.19-.93.86,0,.2-.76.48-1.17.48-.68,0-1.35.65-2.06.05,0-.05-.34.19-.66.38a10.69,10.69,0,0,0-.62-4.1c.46-.59.13-1.33.36-1.94.06-.16.26-.72.75-.24a1.77,1.77,0,0,0,1.09.37C108,24,108.71,23.88,109.78,23.81Zm-2.63,2a6.2,6.2,0,0,0,0,1.08c.14.61.55.77,1.12.5.15-.07.36-.05.48-.15a4.78,4.78,0,0,0,.48-.61c-.38-.19-.16-1-.9-.83A6.59,6.59,0,0,1,107.15,25.85Z"/><path class="cls-1" d="M117.51,22c-.4-.41-.72-.76-1.07-1.09a1.26,1.26,0,0,0-2,0c-.26.22-.5.47-.87.83a11.92,11.92,0,0,1-.65-1.27c-.06-.19,0-.64.09-.64,1.12-.13.18-.71.2-1s-.46-.39-.58-.65-.14-.71,0-.8a4.72,4.72,0,0,1,1.6-.8c.84-.19.86-.11,1.27-1.09h1.74c0,.45,0,.86,0,1.27s.07.63-.5.91-.25,1.51.56,1.7,1,1,1.36,1.52a.43.43,0,0,1-.29.68A5,5,0,0,0,117.51,22Z"/><path class="cls-1" d="M111.07,16.47c-.75,0-1.41,0-2.06,0s-1.28-.23-1.9.19-1.1-.43-1.78-.24a2,2,0,0,1-1.51.09c-.37-.17-.78-.27-1-.62s.85-1.19,1.22-1.23a8.19,8.19,0,0,1,.86,0,4.94,4.94,0,0,1,.39-2.71c.11-.29.17-.72.46-.5s1,.08,1,.74a7,7,0,0,0,.34,1.83c.14.69.18.6.85.47a5.87,5.87,0,0,1,2.51.54C111.1,15.22,111.22,15.73,111.07,16.47Z"/><path class="cls-1" d="M160.9,19.75a2.17,2.17,0,0,1,.1.38c0,.54,1.27.72.49,1.38-.42.36-.46.91-1.05,1.24s-1.58.53-1.72,1.54c0,.13-.66.1-.91.28s-.06.46-.46.59a12,12,0,0,0-1.44.87,3.48,3.48,0,0,1-.95.21c-.24-1.25-.19-2.23,1.18-2.58.52-.95,1.66-1.07,2.35-1.83A25.07,25.07,0,0,1,160.9,19.75Z"/><path class="cls-1" d="M116.57,23.52c.66.66,1.05,1.12,1.51,1.49.75.62,1.5,1.31,2.58.55a1.61,1.61,0,0,1,.86-.07c.42,0,.78.84.53,1.18-.14.19-.31.35-.44.54a1.23,1.23,0,0,1-1.55.53,1.83,1.83,0,0,0-1-.06c-.71.28-1,.14-1.47-.56s-1.16-.9-1.69-1.27Z"/><path class="cls-1" d="M103.89,17.91c.74,0,1.5.23,1.89-.05.64-.46,1,.37,1.55.07.18-.11.48,0,.72,0a5.7,5.7,0,0,1,2.33.18c.25.21.62.43.26.86-.1.13-.24.31-.22.44.16.81-.46.87-.85.66a2.05,2.05,0,0,0-2.11-.09c-.9-.52-2,.06-2.91-.59C104.06,19,104,19.07,103.89,17.91Z"/><path class="cls-1" d="M106.89,22.76a2.13,2.13,0,0,1-.62.16c-.2,0-.26-.37-.66-.12s-1-.66-1-1.1.35-.87,1-.9c.42,0,.84,0,1.26,0s.66-.17,1-.19.88.19,1,0c.32-.49.55.34.81,0,0-.07.26-.07.37,0,.58.22.6.25.87.85a1.15,1.15,0,0,0,.19.26c-.43.28-.59,1-1.26.87C108.88,22.46,108,22.84,106.89,22.76Z"/><path class="cls-1" d="M114.09,23.32c.76.06,1.07.37,1,1.11,0,.5-.46,1.09-.29,1.44a3.25,3.25,0,0,1,.3,1.48c0,.3.09.69-.06.86-.29.33-.72.72-1.09.72s-1-.48-1-.74c0-1.4-.33-2.82.18-4.2C113.33,23.54,113.48,23.11,114.09,23.32Z"/><path class="cls-1" d="M151.38,19.71c-.2.64-.33,1.11-.51,1.56a.64.64,0,0,1-.39.24c-.49.13-1.07-.24-1.49.28-.31-.43-.74.06-1.17-.19s-1,0-1.56-.1a.81.81,0,0,1-.57-.32,14.07,14.07,0,0,1-.64-1.29c.69-.43,1.54.19,2-.53.51.64,1.21.3,1.82.34S150.34,19.71,151.38,19.71Z"/><path class="cls-1" d="M157,17.91c-.49,0-1,.17-1.17-.65-.07-.41-.61-.42-1.05-.45-1.42-.07-1.58-.43-1-1.71.19-.4.54-.94.74-.75.45.41,1.22,0,1.45.67.17.51.53.61,1,.77s1.09.09,1.26.9.15,1.13-.52,1.21A4.33,4.33,0,0,1,157,17.91Z"/><path class="cls-1" d="M164.44,16.9c-.4.37-.67.6-.93.85-.6.58-.77.45-1.45-.28-.87-.94-.9-2.14-1.27-3.23,0-.15.18-.52.36-.61.56-.25,2,.41,2,.94C163,15.66,163.83,16.09,164.44,16.9Z"/><path class="cls-1" d="M165.16,13.14c.18.11.42.17.53.32a10.33,10.33,0,0,0,1,1.57c.44.47-.4.79-.09,1,.49.33.23.85.44,1.16.37.57-.06.78-.35,1-.13.09-.49-.1-.72-.21a4.45,4.45,0,0,1-.87-.52c-.22-.18-.59-.33-.18-.79.14-.16-.15-.85-.4-1.18-.61-.78,0-1.41.16-2.09C164.68,13.28,164.94,13.24,165.16,13.14Z"/><path class="cls-1" d="M158.54,20.33a3.4,3.4,0,0,0-.42.71c-.24.76-.45,1-1.36.56-.65-.3-1.52-.24-2.28-.59a1,1,0,0,1-.74-1.14c0-.16-.19-.45-.14-.49.21-.17.53-.42.72-.36C155.7,19.45,157.23,19.42,158.54,20.33Z"/><path class="cls-1" d="M124.57,21.62l1.15-.52c.44.94.88,1.82,1.26,2.73a1.16,1.16,0,0,1,0,.86,2,2,0,0,1-.76.78.62.62,0,0,1-.86-.4C125.19,23.91,124.11,23,124.57,21.62Z"/><path class="cls-1" d="M123.39,25.49c-.64,0-.87-.61-1.11-1.44a1.52,1.52,0,0,1,.24-1.45c.28-.42.63-.44.83.16.13.37,1.09-.16.57.64-.1.17.14.57.25.85C124.47,25,124.16,25.5,123.39,25.49Z"/></g></g></svg>