<svg xmlns="http://www.w3.org/2000/svg" viewBox="0 0 196.08 45.02"><defs><style>.cls-1{fill:#fff;}</style></defs><g id="レイヤー_1" data-name="レイヤー 1"><path d="M90.28,13.38c.38-.3-.24-.46,0-.9A3.73,3.73,0,0,0,90.36,10a6.43,6.43,0,0,0-.59-1.43c-.49-.78.35-1.2.27-1.81a2.63,2.63,0,0,0-.15-1,6.59,6.59,0,0,1-.68-3.38A2.66,2.66,0,0,0,86.11.09c-.4.69-.86-.45-1.27.05S83.7.33,83.13.43c-.39.07-1,0-1.14.16-.49.64-.93-.2-1.3,0A1,1,0,0,1,79.28.51a.58.58,0,0,0-.53,0C78.31,1,78,.89,77.61.45c-.32.45-.78.41-1.25.4-.75,0-1.5,0-2.25,0s-1.36,0-2,0l-1.9-.1c-.67-.05-1.42.38-1.88.06A3.52,3.52,0,0,0,66,.45c-4.29,0-8.57,0-12.85,0-.51,0-1.08.27-1.54-.24a.61.61,0,0,0-.53-.13,4,4,0,0,1-3.76,0,1.24,1.24,0,0,0-.78,0,9.74,9.74,0,0,1-5.22,0c-.2,0-.46.18-.69.17A7.59,7.59,0,0,1,39.84,0a1.84,1.84,0,0,0-.81,0c-.48.14-1,.71-1.43.33-.62-.54-1,.26-1.55.1a4.06,4.06,0,0,0-2,0c-.6.16-1-.34-1.58-.25S31.33,0,30.82.43c0,0-.15,0-.18,0C30.09-.2,29.49,0,28.82.2s-1.14,0-1.66.1a5.64,5.64,0,0,0-2,.52c-.58.41-1.22-.63-1.87,0-1-.7-2.08-.26-3.12-.32-.36,0-.62.66-1.19.17-.18-.16-.75.17-1.16.19-.6,0-1.22,0-1.83,0s-1.4.24-1.8,0c-.64-.46-1.07.23-1.53,0a1.68,1.68,0,0,0-1.5,0c-.43-.63-.91.21-1.28,0C8.59.05,7.22.63,5.93.44c-.66.73-1.26.07-1.88-.08A8.39,8.39,0,0,0,2.37.57l-2,3.21a1.61,1.61,0,0,1,.09.29A7.33,7.33,0,0,1,.6,6.6c-.24.9.23,1.66.1,2.52s0,1.89-.06,2.82.44,1.76-.38,2.47c.21.82.85,1.64,0,2.48a3.9,3.9,0,0,1,0,3.55c.8.71,0,1.38,0,2.07,1,.7-.35,1.37,0,2.11.15.36-.61.84,0,1.27.08,1.44-.29,2.91.4,4.29-.65.7.23,1.35,0,2.1S.77,34.05.62,34.9c-.09.49.67.78.14,1.34-.38.4.15,1.14-.42,1.66A1.13,1.13,0,0,0,.29,39c.55.41-.09.92.31,1.42s.08,1.3.06,2a3,3,0,0,0,1.19,2.34c.09.08.37.13.41.07.45-.59,1,.25,1.11.08.58-.68.93.14,1.36.09.76-.09,1.57.32,2.31-.35.32-.28,1,.06,1.51-.28.29-.19,1,.36,1.37.2a9.1,9.1,0,0,1,3.31-.37c.41,0,1-.4,1.18-.24a1.33,1.33,0,0,0,1.32.21c.62-.29,1.38-.64,1.85-.3.71.52,1.15-.44,1.75-.08a2.18,2.18,0,0,0,1.07.34c.34,0,.69-.31,1-.3s1,.43,1,.35c.56-.78,1.32,0,2-.29a2.61,2.61,0,0,1,2.5.23c.2.16.75,0,1.07-.16a1,1,0,0,1,1.26.09c.13.11.46.21.53.15.81-.81,1.81-.25,2.7-.37a1.87,1.87,0,0,1,1.34.22c.29.19.91-.23,1.38-.22s1.22.43,1.6.24c.65-.33,1.07-.38,1.58.12.08.07.43,0,.53-.13.45-.5,1.15,0,1.5-.3.6-.54,1,.26,1.53.06s1.1-.47,1.4-.29c1.4.84,3.09-.39,4.42.67.5-.68,1.26-.45,1.86-.35s1.24-.65,1.88-.11c.21-.74.64.26,1.06-.15s1-.19,1.52-.18,1,.35,1.16.2c.63-.62.92.29,1.39.2a11.39,11.39,0,0,1,1.14-.21c.64-.06,1.28-.09,1.92-.1.14,0,.39.21.42.18.51-.57,1.16-.18,1.73-.27a2.37,2.37,0,0,1,1.67.39c.48.29.89-.56,1.53,0,.36.29,1.12,0,1.65.43s1-.69,1.48,0c.29-.63.89-.14,1.36-.33S71,44,71.68,44c.44,0,.85.23,1.32,0a2.58,2.58,0,0,1,1.36-.14c.42,0,1,.45,1.2.3a1.8,1.8,0,0,1,1.32-.31,11.36,11.36,0,0,1,1.43,0c.16,0,.29.29.46.33.49.11,1,.65,1.48.06a38.61,38.61,0,0,0,7.53-.5c.38-.61.79-1.25,1.2-1.88.06-.1.21-.27.2-.28-.84-.73-.19-1.76-.5-2.63-.22-.63-.63-1.57-.22-2.15s.27-1.27.35-1.9a6.59,6.59,0,0,1,0-1,11.29,11.29,0,0,0,.53-1.39,8.4,8.4,0,0,0-.15-1.56c0-.6,0-1.21,0-1.82s-.22-1.25,0-1.58c.49-.62-.27-1,0-1.53.1-.23,0-.58.16-.73.37-.39.19-.61,0-1a3,3,0,0,1,0-1.48c0-.31.19-.61.21-.92,0-.71-.18-1.5.64-2,.06,0,.1-.24.06-.27a1.36,1.36,0,0,1-.23-1.67c.48-.69-.23-1.16-.07-1.73.12-.42-.17-.94.33-1.3a.53.53,0,0,0,0-.52C90.07,14,89.83,13.73,90.28,13.38Z"/><path d="M75.75,13.38c-.51-.3.31-.46,0-.9A2.88,2.88,0,0,1,75.64,10a5.58,5.58,0,0,1,.79-1.43c.66-.78-.46-1.2-.37-1.81.06-.32,0-.69.21-1a5.29,5.29,0,0,0,.91-3.38C77.22,1,79.35-.18,81.3.09c.53.69,1.16-.45,1.7.05s1.52.19,2.28.29c.51.07,1.29,0,1.51.16.66.64,1.24-.2,1.73,0A1.65,1.65,0,0,0,90.41.51a1,1,0,0,1,.7,0A1,1,0,0,0,92.63.45a2.09,2.09,0,0,0,1.67.4c1,0,2,0,3,0s1.82,0,2.72,0l2.53-.1c.89-.05,1.9.38,2.51.06a6.08,6.08,0,0,1,3.08-.35c5.71,0,11.42,0,17.13,0,.67,0,1.43.27,2-.24A1,1,0,0,1,128,.05a6.88,6.88,0,0,0,5,0,2.23,2.23,0,0,1,1,0,17.13,17.13,0,0,0,7,0c.27,0,.61.18.92.17s.69-.18,1-.22a3.25,3.25,0,0,1,1.08,0c.65.14,1.32.71,1.91.33.83-.54,1.31.26,2.06.1a7.16,7.16,0,0,1,2.69,0c.81.16,1.32-.34,2.11-.25S154.32,0,155,.43a.36.36,0,0,0,.25,0C156-.2,156.78,0,157.66.2c.7.15,1.52,0,2.23.1a9.57,9.57,0,0,1,2.7.52c.76.41,1.63-.63,2.49,0,1.3-.7,2.77-.26,4.16-.32.47,0,.82.66,1.58.17.25-.16,1,.17,1.55.19.81,0,1.63,0,2.44,0s1.86.24,2.4,0c.86-.46,1.42.23,2,0a3,3,0,0,1,2,0c.57-.63,1.21.21,1.71,0,1.67-.77,3.5-.19,5.23-.38.87.73,1.67.07,2.49-.08a14.67,14.67,0,0,1,2.24.21l2.69,3.21a1.78,1.78,0,0,0-.12.29c-.1.85-.5,1.76-.21,2.53s-.3,1.66-.12,2.52,0,1.89.07,2.82-.58,1.76.51,2.47c-.28.82-1.13,1.64-.06,2.48a3,3,0,0,0,0,3.55c-1.08.71-.05,1.38.06,2.07-1.33.7.46,1.37,0,2.11-.21.36.81.84,0,1.27-.11,1.44.38,2.91-.54,4.29.88.7-.3,1.35-.06,2.1s-.09,1.77.12,2.62c.11.49-.9.78-.19,1.34.5.4-.19,1.14.57,1.66.28.18.3,1,.06,1.11-.73.41.12.92-.41,1.42s-.11,1.3-.09,2a2.83,2.83,0,0,1-1.58,2.34.8.8,0,0,1-.55.07c-.6-.59-1.28.25-1.47.08-.77-.68-1.25.14-1.82.09-1-.09-2.09.32-3.08-.35-.42-.28-1.3.06-2-.28-.38-.19-1.35.36-1.82.2a16.06,16.06,0,0,0-4.42-.37c-.55,0-1.3-.4-1.58-.24a2.24,2.24,0,0,1-1.75.21c-.83-.29-1.85-.64-2.46-.3-1,.52-1.54-.44-2.34-.08a3.66,3.66,0,0,1-1.43.34c-.46,0-.92-.31-1.37-.3s-1.28.43-1.36.35c-.75-.78-1.76,0-2.68-.29a4.49,4.49,0,0,0-3.33.23,2.3,2.3,0,0,1-1.42-.16A1.72,1.72,0,0,0,157,44a1.16,1.16,0,0,1-.7.15c-1.09-.81-2.41-.25-3.61-.37A3.18,3.18,0,0,0,151,44c-.39.19-1.22-.23-1.85-.22s-1.62.43-2.13.24a1.93,1.93,0,0,0-2.11.12,1,1,0,0,1-.7-.13c-.6-.5-1.53,0-2-.3-.8-.54-1.34.26-2,.06s-1.45-.47-1.85-.29c-1.88.84-4.13-.39-5.89.67-.67-.68-1.69-.45-2.48-.35s-1.66-.65-2.52-.11c-.27-.74-.85.26-1.4-.15a4.44,4.44,0,0,0-2-.18c-.53,0-1.32.35-1.54.2-.84-.62-1.23.29-1.86.2s-1-.17-1.51-.21c-.85-.06-1.71-.09-2.56-.1-.19,0-.52.21-.56.18-.68-.57-1.54-.18-2.31-.27a4,4,0,0,0-2.22.39c-.64.29-1.19-.56-2,0-.49.29-1.5,0-2.2.43-.55.37-1.3-.69-2,0-.39-.63-1.19-.14-1.81-.33-.78-.24-1.89.17-2.83.1-.58,0-1.12.23-1.75,0A4.52,4.52,0,0,0,97,43.8c-.56,0-1.36.45-1.6.3a3,3,0,0,0-1.75-.31c-.64,0-1.28,0-1.9,0-.22,0-.4.29-.63.33-.64.11-1.28.65-2,.06a68.29,68.29,0,0,1-10-.5c-.51-.61-1-1.25-1.6-1.88-.08-.1-.28-.27-.27-.28,1.12-.73.25-1.76.66-2.63.3-.63.84-1.57.3-2.15s-.36-1.27-.47-1.9a5.51,5.51,0,0,0,0-1c-.18-.48-.63-.91-.71-1.39a7.07,7.07,0,0,1,.19-1.56c0-.6,0-1.21,0-1.82s.29-1.25-.06-1.58c-.65-.62.36-1,.07-1.53-.13-.23,0-.58-.21-.73-.49-.39-.25-.61,0-1s0-1,0-1.48c-.05-.31-.25-.61-.28-.92-.07-.71.23-1.5-.86-2-.08,0-.13-.24-.08-.27a1.11,1.11,0,0,0,.3-1.67c-.63-.69.32-1.16.1-1.73-.16-.42.23-.94-.44-1.3-.12-.06-.14-.42,0-.52C76,14,76.35,13.73,75.75,13.38Z"/></g><g id="レイヤー_2" data-name="レイヤー 2"><g id="_2Yqt0L" data-name="2Yqt0L"><path class="cls-1" d="M67,20.52c.59.42,1.3.25,2.1.29l.08,1.61a14.15,14.15,0,0,1-2,.61c-.46.17-.38.27-.31.36.23-.14.46-.28.68-.43a1.53,1.53,0,0,0,.18-.18c-.09-.06-.22-.19-.27-.17-.29.15-.55.33-.28.42a16.91,16.91,0,0,0,2.63.76c-1.06,1.26-1.06,1.26-2.49,1.53.77.47,1.38,1.38,2.42.55.12.24.26.48.37.73.32.78.23.9-.65,1.06-.32.06-.62.33-.93.33a3.65,3.65,0,0,1-.94-.33.47.47,0,0,0-.35,0,3.11,3.11,0,0,1-2.25,0,10,10,0,0,0-2.51-.05,1.43,1.43,0,0,1-.36,0,.72.72,0,0,1-.29-1.11c.44-.42.7-.75.13-1.29s0-1-.11-1.46-.42-.9-.62-1.36.54-.71,0-1.15-.84-.66-1.52-.24-.74.23-1.09-.52A5.93,5.93,0,0,1,58.34,18c0-.27-.18-.57-.14-.83.1-.54-.47-1.07.12-1.68.28-.28-.21-1.14.43-1.4A4.4,4.4,0,0,1,60.3,14c.94,0,1.7-.59,2.58-.77,0,0-.15-.49-.06-.59s.56-.21.71-.41a2,2,0,0,1,2.52-.6,4.86,4.86,0,0,0-.66,1,3,3,0,0,0-.06,1l.61-.1c.09,0,.21-.13.26-.1,1.09.68,2.47.83,3.42,1.74a2.32,2.32,0,0,1,.63,1.28,13,13,0,0,1,0,2.06,14.38,14.38,0,0,1-1.77,1.09,10.07,10.07,0,0,1-1.83.38,4.19,4.19,0,0,1,.35.67v-.08a1.08,1.08,0,0,0-.27.1s0,.15.06.22A.64.64,0,0,0,67,20.52Zm-6.55-4.75s-.28.08-.27.13c.06.49-.25.86-.38,1.28-.06.19.21.48.33.73.19-.13.44-.21.55-.39a4.74,4.74,0,0,0,.52-1.2c.14-.46-.11-.65-1.11,1.5-.58.39-.22.94-.28,1.38a1.24,1.24,0,0,0,.28.09A23.17,23.17,0,0,1,60.48,15.77Zm7.63,2.37a11.37,11.37,0,0,0,0-1.54c0-.26-.27-.7-.39-.7-.76,0-1.38-1-2.21-.26a.75.75,0,0,1-.48.07c-1.32-.11-1.32-.11-1.78.76a5.36,5.36,0,0,0-.49.87.84.84,0,0,0,.19.6c.09.14.18.4.51.17s.65-.13,1-.2c.15,0,.3-.11.44-.16V16.64c0-.05.09-.12.14-.14,1.68-.71,1.7-.68,1.72,1.19a.45.45,0,0,0,.67.41C67.53,18,67.74,18.11,68.11,18.14Zm-3,2.23c-.58-.3-.81-.44-1.06-.54s-.84-.36-1,.17c-.05.2.4.68.7.75S64.5,20.57,65.12,20.37Zm.35,4.85a4.58,4.58,0,0,0-.9-.08c-.29,0-.84-.22-.75.35a1,1,0,0,0,.81.61C64.85,26.11,65.09,25.65,65.47,25.22Zm-2.24-1.9c.49,0,.71,0,.93,0s.62.16.69-.28c0-.11,0-.3-.06-.31a1.85,1.85,0,0,0-.83-.11C63.77,22.67,63.63,22.93,63.23,23.32Z"/><path class="cls-1" d="M57.79,14.11c-.67,1.29-1.43,2.09-2.83,2s-2,.94-3,1.51c-.09.06-.08.43,0,.59a.93.93,0,0,0,1.08.42c.42-.07.9-.34,1.23-.21.67.26,1.22.84,1.9,1.09,1.11.41.89,1.52,1.37,2.25-.67.83.47,1.59.09,2.44-.07.17.38.62.3.72a4.38,4.38,0,0,1-1,.92,9.73,9.73,0,0,1-3.18.73,10.58,10.58,0,0,1-1.26,0,7.4,7.4,0,0,1-1.7-2.83,2.08,2.08,0,0,0,.32-1.65,5,5,0,0,0-.9-1.2,2.74,2.74,0,0,0-.45.77c-.11.49,0,1.07-.76,1.1a1.64,1.64,0,0,1-.63,1.37c-.48.55-1,.81-1.48.56a1.26,1.26,0,0,1-.43-1.42c.27-.45.79-.75,1-1.21a1.39,1.39,0,0,0,.21-1.23c.9-.46,1.17-1.4,1.63-2.18a1.58,1.58,0,0,0,.38-1.28c.83,0,.58-.83.88-1.23s.18-.38-.16-.39a5.91,5.91,0,0,0-2.15,0c-.85.37-1.15-.18-1.44-.62a.74.74,0,0,1,.37-1.06c.54-.21,1.24-.52,1.69-.35a8.14,8.14,0,0,0,1.73.18c.49.1,1,.26,1.48.35.22,0,.57.08.68,0,.45-.52,1-.29,1.51-.29.67,0,1.31.33,2-.2C56.5,13.58,57.14,14,57.79,14.11ZM53,24.41c.69,0,1.29,0,1.88,0s.92-.4.69-1.11a1.74,1.74,0,0,1-.14-.48c.07-1.79-.35-2.29-2-2.37-.29,0-.57,0-1,0Z"/><path class="cls-1" d="M111.1,19.35a3.2,3.2,0,0,1-2.87-2c-.06-.16-.07-.42-.17-.46-.92-.32.23-1.29-.54-1.64.58-.45.31-1.08.34-1.64s1-.65.43-1.32c.24-.13.5-.24.74-.38s1.16.14,1.1-.74c.68.41,1.43-.57,2.09.11.29.3.55.64,1,.53a.5.5,0,0,1,.3.1c-.07.72.75,1.15.73,1.65s.63,1.05.11,1.71c-.23.29.09,1-.07,1.39-.24.67-.24,1.44-.84,2s-1.29.37-1.87.72C111.5,19.42,111.28,19.35,111.1,19.35Zm-1.32-4.91c.15-.19.25-.25.25-.31a3.73,3.73,0,0,0-.09-.46c-.08,0-.22,0-.22.06,0,.19,0,.39,0,1.93a6.25,6.25,0,0,0,0,.64,1.88,1.88,0,0,0,1.07,1.25c.37,0,1.3-.76,1.46-1.23.09-.25.38-.67.32-.72-.6-.55-.21-1.24-.34-1.84a.33.33,0,0,0-.27-.17c-.15,0-.41.12-.42.2,0,.69-.33.66-.79.31-.06,0-.25,0-.37.08C109.66,14.51,109.62,15.12,109.78,14.44Z"/><path class="cls-1" d="M140.1,18.69c.07.95-.81,1.31-1.22,2s-1,1.51-1.52,2.25-1,1.35-1.55,2c-.85-.45-.82-.45-.92-1.52,0-.22-.5-.4.11-.51.13,0,.22-.32.33-.48.42-.55.84-1.09,1.24-1.65a9.3,9.3,0,0,0,.64-1,22.38,22.38,0,0,0,1.56-2.21,2.43,2.43,0,0,1,1.35-1,1.53,1.53,0,0,1,1.2.28c.73.56,1.79.61,2.18,1.72.29.84,1.34,1.11,1.88,1.88,1,1.41,2.17,2.69,3.27,4a1.42,1.42,0,0,1-2.49-.29c-.34-.54-.52-1.27-1.36-1.41-.24,0-.45-.38-.64-.61a9.84,9.84,0,0,0-1.3-1.61c-.53-.42-1.16-.62-1.44-1.37C141.31,18.94,140.59,18.87,140.1,18.69Z"/><path class="cls-1" d="M104.48,18.15a11.06,11.06,0,0,1-2.78,3.73,2.12,2.12,0,0,0-.43.64c-.22.54-.73.77-1.15,1.11a.87.87,0,0,1-.23-.16c-.24-.26-.66-.53-.65-.79a2.3,2.3,0,0,1,.43-1.42c1.41-1.56,2.41-3.47,4.06-4.82a3.12,3.12,0,0,1,.41-.33c.23-.12.5-.32.72-.28.41.09,1.13.31,1.14.51,0,.62,1.23.47.78,1.28.48.95.91,1.93,1.47,2.82.28.44,1,.65,1.2,1.09.3.95,1.38,1.11,1.7,2,0,.14.39.17.73.31a7.92,7.92,0,0,1-.71.71c-.57.41-.8.18-1.52-.22-1.05-.59-1.47-1.79-2.55-2.33a1.85,1.85,0,0,1-.73-1.12A4.13,4.13,0,0,0,104.48,18.15Z"/><path class="cls-1" d="M81.44,14.6c.29-1.29,1-1.86,2.2-1.74.75.08,1.54-.24,2.25.23,0,0,.22,0,.24,0,.43-.86,1.09-.05,1.61-.22.37.59.85.1,1.27.16s.73.49,1,.71c.16,1,.38,2.07.45,3.1s-.26,2.26.1,3.21-.86,1.3-.51,2.08c-.32,0-.81.12-.94,0a3.25,3.25,0,0,1-.76-1.47,3.74,3.74,0,0,1,.13-1.91c.2-.55-.63-1,0-1.5.33-.26-.14-.39-.11-.51.12-.39-.66-.63-.1-1.17.28-.27-.24-.74-.64-.84s-.74.06-1.07,0-.42.63-.87.17c-.2-.21-.64.45-1.14,0-.29-.28-1-.1-1.56-.12Z"/><path class="cls-1" d="M79.05,23.81l.56.71a2.39,2.39,0,0,1,.57,2.81l-.4.76c-.21.37-.87.19-.93.86,0,.2-.76.48-1.17.48-.68,0-1.35.65-2.05.05-.06-.05-.35.19-.67.38a10.69,10.69,0,0,0-.61-4.1c.45-.59.12-1.33.35-1.94.06-.16.26-.72.76-.24a1.74,1.74,0,0,0,1.08.37C77.26,24,78,23.88,79.05,23.81Zm-2.62,2a5.34,5.34,0,0,0,0,1.08c.13.61.55.77,1.11.5.15-.07.37-.05.48-.15a4.78,4.78,0,0,0,.48-.61c-.38-.19-.16-1-.9-.83A6.48,6.48,0,0,1,76.43,25.85Z"/><path class="cls-1" d="M86.79,22c-.41-.41-.73-.76-1.08-1.09a1.26,1.26,0,0,0-2,0c-.26.22-.49.47-.86.83a9.06,9.06,0,0,1-.65-1.27.89.89,0,0,1,.09-.64c1.11-.13.17-.71.19-1s-.46-.39-.58-.65-.13-.71,0-.8a4.81,4.81,0,0,1,1.6-.8c.84-.19.86-.11,1.27-1.09h1.74c0,.45,0,.86,0,1.27s.07.63-.5.91-.25,1.51.57,1.7,1,1,1.36,1.52a.44.44,0,0,1-.3.68A4.92,4.92,0,0,0,86.79,22Z"/><path class="cls-1" d="M80.34,16.47c-.75,0-1.41,0-2.06,0s-1.28-.23-1.9.19-1.1-.43-1.77-.24a2,2,0,0,1-1.52.09c-.37-.17-.78-.27-1-.62s.86-1.19,1.23-1.23a8,8,0,0,1,.85,0A5.13,5.13,0,0,1,74.59,12c.12-.29.17-.72.46-.5s1,.08,1,.74A7,7,0,0,0,76.39,14c.14.69.18.6.85.47a5.94,5.94,0,0,1,2.52.54C80.38,15.22,80.49,15.73,80.34,16.47Z"/><path class="cls-1" d="M130.17,19.75a1.53,1.53,0,0,1,.1.38c0,.54,1.28.72.49,1.38-.42.36-.46.91-1,1.24s-1.58.53-1.72,1.54c0,.13-.66.1-.91.28s0,.46-.46.59a11.14,11.14,0,0,0-1.43.87,3.64,3.64,0,0,1-1,.21C124,25,124,24,125.42,23.66c.51-.95,1.66-1.07,2.35-1.83A23.76,23.76,0,0,1,130.17,19.75Z"/><path class="cls-1" d="M85.84,23.52c.66.66,1,1.12,1.51,1.49.75.62,1.5,1.31,2.59.55.2-.14.57-.08.86-.07s.77.84.52,1.18c-.14.19-.3.35-.44.54a1.23,1.23,0,0,1-1.55.53,1.83,1.83,0,0,0-1-.06c-.71.28-1,.14-1.47-.56s-1.16-.9-1.68-1.27Z"/><path class="cls-1" d="M73.16,17.91c.74,0,1.5.23,1.9-.05.64-.46,1,.37,1.55.07.18-.11.47,0,.71,0a5.7,5.7,0,0,1,2.33.18c.26.21.63.43.27.86-.11.13-.25.31-.23.44.16.81-.46.87-.85.66A2.05,2.05,0,0,0,76.73,20c-.9-.52-2,.06-2.9-.59C73.33,19,73.28,19.07,73.16,17.91Z"/><path class="cls-1" d="M76.16,22.76a2.13,2.13,0,0,1-.62.16c-.2,0-.26-.37-.66-.12s-1-.66-1-1.1.34-.87,1-.9c.41,0,.84,0,1.25,0s.66-.17,1-.19.87.19.95,0c.32-.49.55.34.81,0,0-.07.26-.07.37,0,.58.22.6.25.87.85a1.57,1.57,0,0,0,.19.26c-.43.28-.59,1-1.25.87C78.15,22.46,77.25,22.84,76.16,22.76Z"/><path class="cls-1" d="M83.36,23.32c.76.06,1.08.37,1,1.11,0,.5-.46,1.09-.29,1.44a3.25,3.25,0,0,1,.3,1.48c0,.3.09.69-.06.86-.29.33-.72.72-1.09.72s-1-.48-1-.74c0-1.4-.34-2.82.17-4.2C82.6,23.54,82.75,23.11,83.36,23.32Z"/><path class="cls-1" d="M120.65,19.71c-.2.64-.33,1.11-.51,1.56,0,.11-.24.2-.38.24-.5.13-1.08-.24-1.5.28-.31-.43-.74.06-1.17-.19s-1,0-1.56-.1a.85.85,0,0,1-.57-.32,14.07,14.07,0,0,1-.64-1.29c.7-.43,1.54.19,2-.53.51.64,1.21.3,1.83.34S119.62,19.71,120.65,19.71Z"/><path class="cls-1" d="M126.24,17.91c-.49,0-1,.17-1.17-.65-.07-.41-.61-.42-1-.45-1.42-.07-1.58-.43-1-1.71.19-.4.54-.94.75-.75.44.41,1.21,0,1.44.67.17.51.53.61,1,.77s1.08.09,1.25.9.15,1.13-.52,1.21A4.31,4.31,0,0,1,126.24,17.91Z"/><path class="cls-1" d="M133.71,16.9c-.4.37-.67.6-.92.85-.61.58-.77.45-1.45-.28-.87-.94-.91-2.14-1.28-3.23-.05-.15.18-.52.37-.61.55-.25,2,.41,2,.94C132.24,15.66,133.1,16.09,133.71,16.9Z"/><path class="cls-1" d="M134.44,13.14c.17.11.41.17.52.32a11.19,11.19,0,0,0,1,1.57c.44.47-.4.79-.09,1,.49.33.24.85.44,1.16.37.57-.06.78-.35,1-.13.09-.49-.1-.72-.21a4.77,4.77,0,0,1-.87-.52c-.22-.18-.59-.33-.18-.79.14-.16-.14-.85-.4-1.18-.61-.78,0-1.41.17-2.09C134,13.28,134.21,13.24,134.44,13.14Z"/><path class="cls-1" d="M127.81,20.33a3.4,3.4,0,0,0-.42.71c-.24.76-.45,1-1.35.56-.65-.3-1.53-.24-2.29-.59a1,1,0,0,1-.74-1.14c0-.16-.19-.45-.14-.49.21-.17.53-.42.73-.36C125,19.45,126.5,19.42,127.81,20.33Z"/><path class="cls-1" d="M93.84,21.62,95,21.1c.44.94.88,1.82,1.26,2.73a1.22,1.22,0,0,1,0,.86,2,2,0,0,1-.77.78.62.62,0,0,1-.86-.4C94.46,23.91,93.38,23,93.84,21.62Z"/><path class="cls-1" d="M92.66,25.49c-.64,0-.87-.61-1.11-1.44a1.52,1.52,0,0,1,.24-1.45c.28-.42.63-.44.83.16.13.37,1.1-.16.58.64-.11.17.13.57.25.85C93.74,25,93.43,25.5,92.66,25.49Z"/></g></g></svg>