<svg xmlns="http://www.w3.org/2000/svg" viewBox="0 0 196.32 46.24"><defs><style>.cls-1{fill:#fff;}</style></defs><g id="レイヤー_1" data-name="レイヤー 1"><path d="M90.28,14c.38-.3-.24-.46,0-.9a3.76,3.76,0,0,0,.11-2.52,6.84,6.84,0,0,0-.59-1.43c-.49-.77.35-1.19.27-1.81a2.54,2.54,0,0,0-.15-.94A6.59,6.59,0,0,1,89.21,3,2.66,2.66,0,0,0,86.11.65c-.4.7-.86-.44-1.27,0S83.7.9,83.13,1c-.39.07-1-.06-1.14.16-.49.63-.93-.2-1.3,0a1,1,0,0,1-1.41-.11.53.53,0,0,0-.53,0c-.44.51-.79.36-1.14-.08-.32.45-.78.4-1.25.39-.75,0-1.5,0-2.25,0s-1.36,0-2,0-1.3,0-1.9-.09-1.42.38-1.88.05A3.58,3.58,0,0,0,66,1C61.7,1,57.42,1,53.14,1c-.51,0-1.08.26-1.54-.24a.55.55,0,0,0-.53-.13,4,4,0,0,1-3.76,0,1.18,1.18,0,0,0-.78,0,9.74,9.74,0,0,1-5.22,0c-.2-.05-.46.18-.69.16a7.51,7.51,0,0,1-.78-.21,2,2,0,0,0-.81,0c-.48.15-1,.72-1.43.34-.62-.54-1,.26-1.55.1a4,4,0,0,0-2,0c-.6.15-1-.34-1.58-.25S31.33.59,30.82,1a.17.17,0,0,1-.18,0c-.55-.6-1.15-.39-1.82-.2s-1.14,0-1.66.1a5.64,5.64,0,0,0-2,.52c-.58.41-1.22-.63-1.87,0-1-.7-2.08-.27-3.12-.32-.36,0-.62.65-1.19.16-.18-.16-.75.17-1.16.2-.6,0-1.22,0-1.83,0s-1.4.23-1.8,0c-.64-.47-1.07.23-1.53,0a1.68,1.68,0,0,0-1.5,0c-.43-.63-.91.21-1.28,0C8.59.61,7.22,1.2,5.93,1c-.66.74-1.26.08-1.88-.08a9.19,9.19,0,0,0-1.68.21l-2,3.22a1.61,1.61,0,0,1,.09.29A7.27,7.27,0,0,1,.6,7.16c-.24.91.23,1.67.1,2.52s0,1.89-.06,2.83S1.08,14.27.26,15c.21.82.85,1.64,0,2.48A3.9,3.9,0,0,1,.31,21c.8.71,0,1.38,0,2.07,1,.7-.35,1.37,0,2.11.15.36-.61.84,0,1.27.08,1.43-.29,2.91.4,4.29-.65.69.23,1.35,0,2.1s.06,1.76-.09,2.61c-.09.5.67.78.14,1.35-.38.4.15,1.14-.42,1.65a1.15,1.15,0,0,0-.05,1.12C.84,40,.2,40.5.6,41s.08,1.29.06,2a3,3,0,0,0,1.19,2.34c.09.08.37.12.41.07.45-.59,1,.25,1.11.07.58-.68.93.15,1.36.1.76-.09,1.57.32,2.31-.35.32-.28,1,.06,1.51-.29.29-.18,1,.37,1.37.21a8.89,8.89,0,0,1,3.31-.37c.41,0,1-.4,1.18-.24a1.35,1.35,0,0,0,1.32.21c.62-.3,1.38-.64,1.85-.3.71.52,1.15-.44,1.75-.08a2.17,2.17,0,0,0,1.07.33c.34,0,.69-.3,1-.29s1,.43,1,.35c.56-.78,1.32,0,2-.29a2.56,2.56,0,0,1,2.5.23c.2.16.75,0,1.07-.16a1,1,0,0,1,1.26.09c.13.11.46.21.53.14.81-.8,1.81-.24,2.7-.37a1.88,1.88,0,0,1,1.34.23c.29.18.91-.23,1.38-.23s1.22.44,1.6.24c.65-.33,1.07-.37,1.58.12.08.08.43,0,.53-.12.45-.5,1.15,0,1.5-.3.6-.54,1,.26,1.53.06s1.1-.47,1.4-.29c1.4.84,3.09-.4,4.42.67.5-.69,1.26-.45,1.86-.36s1.24-.64,1.88-.1c.21-.75.64.25,1.06-.15s1-.19,1.52-.18,1,.35,1.16.19c.63-.61.92.3,1.39.2a11.34,11.34,0,0,1,1.14-.2c.64-.06,1.28-.09,1.92-.1.14,0,.39.21.42.17.51-.56,1.16-.17,1.73-.27a2.38,2.38,0,0,1,1.67.4c.48.29.89-.57,1.53-.05.36.3,1.12,0,1.65.44s1-.69,1.48,0c.29-.62.89-.13,1.36-.32s1.41.17,2.11.1c.44,0,.85.23,1.32,0a2.58,2.58,0,0,1,1.36-.13c.42,0,1,.45,1.2.29a1.84,1.84,0,0,1,1.32-.3,9.74,9.74,0,0,1,1.43,0c.16,0,.29.29.46.33.49.11,1,.65,1.48.06a38.61,38.61,0,0,0,7.53-.51L89,42.37c.06-.1.21-.27.2-.27-.84-.74-.19-1.76-.5-2.63-.22-.63-.63-1.57-.22-2.16s.27-1.26.35-1.89a6.59,6.59,0,0,1,0-1A11.94,11.94,0,0,0,89.38,33a8.32,8.32,0,0,0-.15-1.56c0-.61,0-1.21,0-1.82s-.22-1.25,0-1.59c.49-.62-.27-1,0-1.52.1-.23,0-.58.16-.74.37-.38.19-.6,0-1a3,3,0,0,1,0-1.48c0-.31.19-.61.21-.92,0-.72-.18-1.5.64-2,.06,0,.1-.24.06-.27a1.36,1.36,0,0,1-.23-1.67c.48-.7-.23-1.16-.07-1.73s-.17-.94.33-1.3a.53.53,0,0,0,0-.52C90.07,14.61,89.83,14.3,90.28,14Z"/><path d="M53.35,31.64c-.39.3.23.46,0,.9a3.76,3.76,0,0,0-.11,2.52,6.34,6.34,0,0,0,.59,1.43c.49.77-.35,1.19-.28,1.81a2.35,2.35,0,0,0,.16.94,6.69,6.69,0,0,1,.68,3.38,2.66,2.66,0,0,0,3.09,2.32c.4-.7.87.44,1.28,0s1.14-.2,1.71-.3c.38-.07,1,.06,1.13-.16.5-.63.93.2,1.3,0a1,1,0,0,1,1.42.11.51.51,0,0,0,.52,0c.44-.5.79-.36,1.15.08.31-.45.78-.4,1.25-.39h2.24c.68,0,1.36,0,2,0s1.3.05,1.9.09,1.42-.38,1.88-.05a3.57,3.57,0,0,0,2.31.34c4.28,0,8.57,0,12.85,0,.5,0,1.08-.26,1.53.24a.57.57,0,0,0,.53.13,4,4,0,0,1,3.76,0,1.2,1.2,0,0,0,.79,0,9.7,9.7,0,0,1,5.21,0c.2,0,.47-.18.69-.16a7.69,7.69,0,0,1,.79.21,2,2,0,0,0,.81,0c.48-.15,1-.72,1.43-.34.62.54,1-.26,1.55-.1a3.91,3.91,0,0,0,2,0c.61-.15,1,.34,1.59.25s1.11.2,1.63-.21a.17.17,0,0,1,.18,0c.55.6,1.15.39,1.81.2s1.14,0,1.67-.1a5.64,5.64,0,0,0,2-.52c.57-.41,1.22.63,1.87,0,1,.7,2.07.27,3.11.32.36,0,.62-.65,1.19-.16.19.16.76-.17,1.16-.2.61,0,1.22,0,1.84,0s1.39-.23,1.79,0c.65.47,1.07-.23,1.53,0a1.7,1.7,0,0,0,1.51,0c.42.63.9-.21,1.28,0,1.26.78,2.62.19,3.92.39.66-.74,1.25-.08,1.87.08a9.19,9.19,0,0,0,1.68-.21l2-3.22a1.61,1.61,0,0,1-.09-.29,7.51,7.51,0,0,1-.16-2.52c.25-.91-.22-1.67-.09-2.52s0-1.89,0-2.83-.43-1.76.39-2.47c-.21-.82-.85-1.64-.05-2.48a3.9,3.9,0,0,1,0-3.55c-.81-.71,0-1.38.05-2.07-1-.7.35-1.37,0-2.11-.16-.36.6-.84,0-1.27-.09-1.43.28-2.91-.41-4.28.66-.7-.22-1.36,0-2.11s-.07-1.76.08-2.61c.09-.5-.67-.78-.14-1.35.38-.4-.14-1.14.43-1.65A1.15,1.15,0,0,0,143.34,6c-.55-.4.08-.92-.31-1.42s-.08-1.29-.06-2A3.07,3.07,0,0,0,141.78.28c-.09-.08-.37-.12-.41-.07-.46.59-1-.25-1.11-.07-.58.68-.93-.15-1.36-.1-.77.09-1.57-.32-2.32.35-.31.29-1-.06-1.5.29-.29.18-1-.37-1.37-.21a8.94,8.94,0,0,1-3.32.37c-.41,0-1,.4-1.18.25a1.33,1.33,0,0,0-1.32-.22c-.62.3-1.38.64-1.84.3-.72-.52-1.15.44-1.75.08a2.2,2.2,0,0,0-1.07-.33c-.35,0-.7.3-1,.29s-1-.43-1-.35c-.57.78-1.33,0-2,.29a2.56,2.56,0,0,1-2.5-.23c-.2-.15-.75,0-1.07.16A1,1,0,0,1,114.33,1c-.12-.11-.46-.21-.52-.14-.82.8-1.81.24-2.71.37A1.86,1.86,0,0,1,109.77,1c-.29-.18-.91.23-1.39.23s-1.21-.44-1.6-.24A1.17,1.17,0,0,1,105.2.86c-.07-.07-.42,0-.52.12-.45.51-1.15,0-1.5.3-.61.54-1-.26-1.54-.06s-1.09.47-1.39.29c-1.41-.84-3.09.4-4.42-.67-.5.69-1.27.45-1.86.36s-1.24.64-1.89.1c-.2.75-.64-.25-1,.15s-1,.19-1.53.18-1-.35-1.15-.19c-.63.61-.92-.3-1.4-.2a11.15,11.15,0,0,1-1.13.2c-.64.06-1.28.09-1.92.1-.15,0-.39-.21-.42-.17-.51.56-1.16.17-1.73.27a2.38,2.38,0,0,1-1.67-.4c-.48-.29-.89.57-1.54.05-.36-.3-1.11,0-1.64-.44s-1,.69-1.48,0c-.29.62-.89.13-1.36.32s-1.41-.17-2.12-.1c-.44,0-.84-.23-1.32,0a2.56,2.56,0,0,1-1.36.13c-.42,0-1-.45-1.2-.29a1.82,1.82,0,0,1-1.32.3,9.62,9.62,0,0,1-1.42,0c-.17,0-.3-.29-.47-.33-.48-.11-1-.65-1.47-.06a38.5,38.5,0,0,0-7.53.51c-.39.6-.79,1.24-1.2,1.88-.07.1-.21.27-.2.27.83.74.18,1.76.49,2.64.22.63.63,1.56.22,2.15s-.27,1.26-.35,1.89a8.23,8.23,0,0,1,0,1,12,12,0,0,0-.54,1.39,10.42,10.42,0,0,0,.15,1.56c0,.61,0,1.22,0,1.82s.22,1.25,0,1.59c-.49.62.27,1,.06,1.52-.1.23,0,.58-.16.74-.37.38-.19.6,0,1a3.25,3.25,0,0,1,0,1.48c0,.31-.19.61-.21.92,0,.72.18,1.5-.64,2a.32.32,0,0,0-.07.27,1.36,1.36,0,0,1,.23,1.67c-.47.7.24,1.16.07,1.73s.18.94-.32,1.3a.53.53,0,0,0,0,.52C53.56,31,53.8,31.29,53.35,31.64Z"/><path d="M195.8,32.67c-.08-1.28.29-2.67-.11-3.81a8.13,8.13,0,0,1-.26-3.11c0-.43,0-.84,0-1.28a7.25,7.25,0,0,1,.26-3.11,23.63,23.63,0,0,0,.5-3.1c-.62-.44-.38-1.08-.41-1.66s.54-1,0-1.48a2.31,2.31,0,0,0,.33-2.42c-.42-.77.75-1.64-.32-2.19,0,0,.06-.36.14-.53a2.67,2.67,0,0,0,0-2.61.82.82,0,0,1-.06-.54c.09-.38.42-1,.3-1.1-.6-.51.35-1,0-1.28-.72-.54.42-.88.05-1.32,0-.27,0-.54,0-.81a.87.87,0,0,0-.86-.9c-1.58-.09-3.19.21-4.74-.39-.2-.07-.54.3-.84.37-.65.15-.34-.68-.66-.75-1-.17-2,.14-2.88-.46-.43.61-.82.43-1.31,0-.17-.13-.66,0-.91.17a.81.81,0,0,1-.87,0c-.36-.13-.79-.11-1.2-.21a1.49,1.49,0,0,0-1.33.21c-.29.21-.85-.65-1.25.08-.84-.36-1.63.22-2.49.11s-2.18.27-3-.12-1.52.72-2-.32a9.14,9.14,0,0,1-5.78,0,.4.4,0,0,0-.36.09c-.35.5-.87.32-1.31.29-.85,0-1.7,0-2.56-.14s-1.62.26-2.46-.21c-.26-.15-.92.29-1.12.13-.69-.55-1.36-.29-2.06-.16-1.15.2-2.41-.47-3.51.38-.09.07-.35-.09-.53-.14s-.74-.33-.9-.22a2,2,0,0,1-2,.31c-.64-.49-1.4.6-1.79-.33-.57.77-1.09-.35-1.72,0-.32.15-.77.65-1.3.06-.34-.38-.88.54-1.32.11-.66-.65-.81.47-1.42.32A9.91,9.91,0,0,0,139.23.6h-2.65a7.56,7.56,0,0,1-2.43,0c-.85-.31-1.61.43-2.32,0s-1.59,0-2.31.1c-.54.08-.93.36-1.59.11-.49-.2-1.23.3-1.78.17a5.17,5.17,0,0,0-1.92,0,46.82,46.82,0,0,1-5.3,0c-.56,0-1.85.64-1.9,1.17-.17,1.86-1,3.62-.86,5.53,0,.42.52.76.07,1.32-.27.33.05,1.08-.14,1.54a1.1,1.1,0,0,0,0,.74,28.72,28.72,0,0,1,.09,3.22c-.65.25.21.86-.28,1.17-.65.41-.32,1-.28,1.57a11.08,11.08,0,0,1,.14,1.14c0,.44-.22.87-.23,1.31s.32.8.19.95a1,1,0,0,0,0,1.58c.16.18.1.63,0,.92-.66,2.16-.32,4.35-.16,6.51a3.45,3.45,0,0,1,0,1.4c-.14.46.29,1.08.18,1.57a4,4,0,0,0,0,2,8.41,8.41,0,0,1,0,2v1.83a19.44,19.44,0,0,0,0,2,13.62,13.62,0,0,0,.39,1.65c-1,.32.31,1.15-.33,1.56-.1,1.27.78,1.87,2,1.72a26.37,26.37,0,0,1,5.18-.08c.47,0,1,.4,1.38,0,.66-.67.87.67,1.41.25,1-.76,2.06-.27,3.1-.37.74-.08,1.63.21,2.19-.12a2.72,2.72,0,0,1,2.11-.24,4.68,4.68,0,0,0,1.72-.07c.63-.06,1.33.25,1.9-.36.13-.14.62,0,.93.1s.62.3.67.24c.68-.82,1.3-.17,1.94,0,.34.11.85.41,1,.28a1.3,1.3,0,0,1,1.65-.13c.62.44.84-.38,1.39-.19a6.12,6.12,0,0,0,1.82,0c.61,0,1.22,0,1.83,0a7.53,7.53,0,0,1,2,.18c.61.21,1-.39,1.58-.23.42.11,1.09-.47,1.42-.3a3.23,3.23,0,0,0,1.5.35,5.47,5.47,0,0,1,1.62,0,1.49,1.49,0,0,0,1.32,0c.23-.12.66.45,1,0,.25.6,1-.41,1.16.33.42-.13.83-.29,1.26-.38.16,0,.36.09.54.14a4.63,4.63,0,0,0,.67.2c.39-.88,1,.18,1.44-.18.62-.5,1.07.07,1.6.22.25.07.67.13.79,0,.55-.6,1,0,1.52,0s1.35-.33,1.92.28c.08.1.38.09.53,0,1.75-.74,3.59-.14,5.37-.34.57.55,1.26-.24,1.67,0,.74.51,1.3.06,1.94,0a7.14,7.14,0,0,1,2.89.37,6.32,6.32,0,0,0,1.63,0h1.63c.54,0,1.09,0,1.63,0a7.68,7.68,0,0,1,1.36.19,2.81,2.81,0,0,0,1.23-.17,5.85,5.85,0,0,1,1.82,0,3.47,3.47,0,0,1,1.39.57c.46.33.89-.72,1.28,0,.64-.14,1.44,0,1.79-.67a1.67,1.67,0,0,0,.08-1.44,2.31,2.31,0,0,1-.25-1.33,7.38,7.38,0,0,1,0-1.41c.08-.49.34-1,.38-1.46.06-.87-.26-1.89.09-2.59s-.7-1.62.33-2.18a.49.49,0,0,0-.07-.35C195.44,34.15,195.84,33.37,195.8,32.67Z"/></g><g id="レイヤー_2" data-name="レイヤー 2"><path class="cls-1" d="M133.1,16.14c0,.37-.38.94-.25,1.08.48.5.09,1,.14,1.46a5.5,5.5,0,0,1-.17,1c0,.32.62.64,0,1,.11.17.17.4.32.51a2.87,2.87,0,0,0,2,.36,3.66,3.66,0,0,1,3.3,1.94,2.62,2.62,0,0,1-.09,2.51c-.34.65-.08.71.48.31.1-.07.6.47.95.65s.58-.11.65.37a1,1,0,0,1-.54,1,2.63,2.63,0,0,1-1.27.37,10.66,10.66,0,0,1-1.07-.16c-.34,0-.58-.37-.77.19a2.07,2.07,0,0,1-.5.69c-.13.13-.35.29-.5.27a1.18,1.18,0,0,1-.72-.38,1.84,1.84,0,0,1-.26-1,1,1,0,0,1,.32-.63c.5-.44.17-.78-.18-1a2.61,2.61,0,0,0-1.84-.52h.08a1.69,1.69,0,0,0-.11-.27s-.15,0-.22.06a.61.61,0,0,0,.25.21c.21.86-.23,1.78.32,2.61,0,.06-.07.32-.17.36-.31.13-.74.36-.94.24a3.17,3.17,0,0,1-1.15-1.12,1.29,1.29,0,0,1,.07-1.47c.13-.18-.2-.62.13-.91,0,0,0-.24-.07-.31-.19-.23-.42-.44-.67-.69.56-.31.8-.72.39-1.31a.5.5,0,0,1,0-.36,3.58,3.58,0,0,0,0-2.05A14.69,14.69,0,0,1,131,19c-.65,0-1.24.7-1.76,0a.25.25,0,0,0-.17,0c-.21.57-.44,1.13-.6,1.71-.1.4.19.46.54.47a.86.86,0,0,1,.53.28c.25.31.44.67.69,1.05-.07.06-.18.24-.34.29-.69.2-.91.48-.57,1.25.46,1,.33,1.36-.48,2-.18.13-.52,0-.75.07s-.58.47-.88.48c-.52,0-.64.26-.55.66.16.65.38,1.29.56,1.93.08.27.14.55.23,1-.33,0-.6.09-.87.09-1.34,0-1.93-.75-1.69-2,.67-.36,0-.7-.1-1-.12-.5-.52-.23-.78,0-.61-.66-1.56.06-2.25-.58-.23-.22-.59-.22-.54-.68a.8.8,0,0,1,.75-.82c.78-.05,1.57,0,2.32,0,.68-.5-.71-1,0-1.54.15-.11,0-.62,0-.94-.34.44-.64,0-1,0-.1,0-.21.08-.31.12a3.49,3.49,0,0,1-.81.22c-.92,0-1.11-.41-.72-1.28.13-.29.17-.41.5-.55s1-.57.31-1.19a.47.47,0,0,1,0-.46c.29-.3.34-.44-.15-.49s-.86-1-1.55-.37a2.89,2.89,0,0,1-.16-1.14,1.09,1.09,0,0,1,.73-.62,8.62,8.62,0,0,1,1.44,0c.78,0,.9-.18,1.07-1.43-.77,0-1.53,0-2.29,0-.57,0-.92-.21-1-.78s.19-1,.73-1,1.18-.63,1.9-.06c.38.3.79-.14.6-.68s-.62-.86,0-1.31c-.83-.77.32-.36.4-.63s.33-.1.48.06c.32.34.69.6.63,1.19-.1,1,.46,1.43,1.38,1.53a3.23,3.23,0,0,0,1.47-.31c.64-.54.89.36,1.38.27,0,.28.17.69,0,.82-.31.32-.19,1.19-1,.9-.62-.21-1.19.36-1.89,0-.55-.25-.81.18-.72,1.13,0,.22-.63.78.26.63.57-.09,1.14.16,1.74-.2.31-.19.92.13,1.4.2s.84-.14,1.16.3c.05.07.31,0,.47,0,0-.21.06-.47,0-.61s-.23-.35.13-.41c.67-.12.79-.62.75-1.19s.26-.84.79-1a5.9,5.9,0,0,1,4.24,0c.13.06.39-.18.71-.34a11.51,11.51,0,0,1,1.24,1.76,3.89,3.89,0,0,1,.53,2.25,8.12,8.12,0,0,1-.36,1.64,1,1,0,0,1-1,.49c-.36,0-.55,0-.73-.5s-.42-.86-.07-1.41-.3-1,.13-1.45l-1.33-.92c-.73.59-1.47.27-2.22.06-.11,0-.29.16-.51.24h.08a1.69,1.69,0,0,0-.11-.27s-.15,0-.22.06A.61.61,0,0,0,133.1,16.14Zm-7.45,4.7c.49.24.8-.21,1-.62a.78.78,0,0,0-.41-1,1.72,1.72,0,0,0-1.81.11c-.27.23-.43.44.12.48.1,0,.25.07.28.16C125.25,20.83,125.25,20.83,125.65,20.84Zm11.14,5.07c0-.51,0-.86,0-1.21,0-.71-.56-1-1-1.31-.09-.08-.54.33-.68.25-.3-.18-.59-.51-.83-.07-.08.15.24.62.48.82C135.38,24.9,136,25.35,136.79,25.91ZM126.3,24.64a7.53,7.53,0,0,1,1.81-.53c1.09,0,.82-.65.57-1.07-.11-.19-.92-.18-1.05,0-.41.53-.67-.07-1,0-.13,0-.32.17-.33.28A10.76,10.76,0,0,0,126.3,24.64Z"/><path class="cls-1" d="M110.14,22.12c-.82-.16-1.22-.31-1.48-.18-.78.38-1.49-.14-2.25-.05-.54.05-.45-.68-.7-1,0-.08.33-.63.59-.73.53-.19,1.2.23,1.67-.33.29.45.81-.23,1.2.27.18.23.85.09,1-.37a2.81,2.81,0,0,0,.06-1c-.45,0-.26-1.07-1.19-.51-.65.4-1.66.12-2.53.39s-1.22-.22-.89-1.22a2.72,2.72,0,0,0,0-.82c.57,0,1.27.09,1.67-.19.61-.44,1.13.61,1.51,0s1.09.5,1.47-.47c-.18-.19-.44-.45-.71-.71-.08-.07-.27-.16-.29-.13-.52.58-1-.18-1.52,0a1.62,1.62,0,0,1-.54,0c-1,0-1.18-.22-1.22-1.26,0-.24,0-.48,0-.74.45-.32.82-.2,1.26.12.11.08.53-.52,1-.06s1.3-.22,1.81.4a1.25,1.25,0,0,0,.27-.24c.1-.13.13-.35.25-.43.4-.26-.24-.89.4-1s1,.33,1.32.72c.19.23.91.41.23.88a1.47,1.47,0,0,0,.42.2,5.59,5.59,0,0,0,2.7,0,3.26,3.26,0,0,1-.4,2.61c-.55-.86-1.57,0-2.14-.68,0,0-.34.25-.52.26-.62,0-.42.45-.43.76,0,.08.17.23.26.23a8.93,8.93,0,0,1,2,.34c.36.08.59.65,1.16.23.23-.17.76.8.51,1.19a9.58,9.58,0,0,1-.9,1,2.49,2.49,0,0,0-2.67-.78,4.71,4.71,0,0,0,0,1c0,.14.42.36.46.32.29-.25.46-.3.83,0,.18.14.7-.26,1.07-.26a3.17,3.17,0,0,1,.95.3c.21.07.52.05.63.2a1.39,1.39,0,0,1,.35.91c-.08.51-.47.74-1,.72-.35,0-.71.19-1.06.19a9.16,9.16,0,0,1-1.5-.31c1.08.89,2,1.25,2.4,2.25a10.69,10.69,0,0,1,.86,1.79c0,.66,0,1.32,0,2a1.76,1.76,0,0,0,.33,1.14,1.52,1.52,0,0,1,0,2c-.15.17.13.59-.36.67s-.74.25-1.12.33c-.09,0-.31-.16-.33-.28-.16-.72-.29-1.44-.42-2.15a2.61,2.61,0,0,1-1,.26c-.81-.12-1.57.33-2.43.06-.54-.17-1.33.63-1.23,1.36s-.61.72-.91,1c-.08.08-.63-.08-.7-.25a6.27,6.27,0,0,1-.57-1.91c-.06-.73.05-.75-.41-1.19a5.68,5.68,0,0,0,.88-.89c.16-.26.23-.89.14-.93-.91-.42-.21-1.07-.28-1.6,0-.17,0-.36,0-.66a8.39,8.39,0,0,0-1-.06,3.05,3.05,0,0,1-2.56-.82c-.18-.18-.53-.18-.79-.27s-.74-.4-.9-.3c-.45.3.09.56.14.85.1.55-.39,1-.35,1.64a9.31,9.31,0,0,1,.1,2.06,2.36,2.36,0,0,1-1,1.88c-1.29-.83-1.26-.83-.92-2.27a3.57,3.57,0,0,0,0-1.56,4.12,4.12,0,0,1,0-2.81c.08-.34.19-.85,0-1-.46-.54-.09-1.25-.37-1.65-.43-.62.13-1,.07-1.54a7.22,7.22,0,0,1,.14-1.73c0-.09.15-.22.13-.25-1-1.46.43-1.9,1-2.69.67.12.92.45.89,1a4.5,4.5,0,0,0,0,.9c0,.28.69.69-.21.7-.06,0-.17.41-.15.62.08,1-.28,2,.33,2.93.14.21,0,.59,0,.92,2,.55,4.13.89,5.68,2.79a3.82,3.82,0,0,1,.18-1.37c.19-.32.66-.48,1.5-.69.18,0,.11-.11,0-.19l-.53.52c.14.06.31.21.41.17S110.33,22.38,110.14,22.12Zm3.78,3.39c-.24-1.47-1.2-1.54-2.27-1.43-.4,0-.81,0-1.65,0C111.23,25.6,112.55,25.56,113.92,25.51Zm-4,2.13a11.71,11.71,0,0,0,1.28.41c1.08.2,2.23-.35,3.27.29a.29.29,0,0,0,.24-.11c0-.1.05-.32,0-.34-.52-.19-1-.78-1.53-.52-.37.18-.8,0-.9.09-.42.59-.87-.22-1.12,0C110.71,28,110.53,27,109.92,27.64Zm1.74-5.29.47-.19a1.08,1.08,0,0,0-.31-.23c-.08,0-.2.07-.3.11Zm1.3-.2.13.13a1.34,1.34,0,0,0,.12-.24s-.08-.08-.12-.12Z"/><path class="cls-1" d="M47.4,20.11H45.74a10.58,10.58,0,0,1-1.26,0,5.16,5.16,0,0,1-.92-.29c-.18.66-.56-.18-.93.12s-1-.59-1-1.05.34-.77.82-1,.92.51,1.38.16,1,.13,1.24-.49c.52.64,1.22.25,2,.4a3.1,3.1,0,0,0-.12-1c-.13-.23-.16-.29,0-.54a7.37,7.37,0,0,0,.5-1.41c.2-.59.59-.69,1.12-.31a1.92,1.92,0,0,1,.68,1.61c-.08.26-.29.49-.34.75a7.79,7.79,0,0,0,0,1.21c.63-.05,1.24.27,1.85-.16.07-.05.25,0,.38.07a2.63,2.63,0,0,0,2.18-.13c.46-.3.64.07.88.3s.15.51-.1.74-.69.83-1.35.68c-.18,0-.41.16-.63.2a3.09,3.09,0,0,1-1.82.18c-.63-.21-.76,0-.63.9.06.47-.85.71-.22,1.22s-.28.88-.14,1c.56.54-.28,1.15.27,1.8s-.24,1.61.33,2.36c-.44.73-.21,1.55-.28,2.33a1.75,1.75,0,0,1-1.14,1.18c-.67.12-1.36-.68-1-1.24a1.19,1.19,0,0,0,0-1.52c.52-.5.37-1,.13-1.6a1.06,1.06,0,0,1,.2-.84c.29-.42-.69-.59-.13-1,.18-.15-.42-.47,0-.78.15-.1.18-.62.06-.84C47.24,22.17,47.48,21.16,47.4,20.11Z"/><path class="cls-1" d="M63.08,25.08c.09-.32.17-.62.26-.92.15-.48.3-1,.46-1.44.89.07.43-.79.75-1.09s.83-.59,1.24-.9c.14-.11.37-.26.37-.38,0-1,.71-1.45,1.3-2s1-1.27,1.87-1.58c.63-.23.58-.39,1.48-.22,0,1-1,1.59-1,2.57,0,.09-.25.16-.37.25a1,1,0,0,0-.35,1.47c.46.82.13,2,1,2.62-.72.78.74.91.49,1.71-.14.43.45,1.09.69,1.65a4.5,4.5,0,0,1,.31.94c.08.4,0,.59-.54.67-1,.13-.86.14-1.41-.67-.34-.51,0-1.58-1.08-1.55-.07,0-.22-.28-.2-.41a1.57,1.57,0,0,0-.56-1.41c-.17-.15-.17-.54-.17-.81,0-1.1,0-1.1-.6-1.73-.28,1-1.19,1.48-1.62,2.38A1.8,1.8,0,0,1,63.08,25.08Z"/><path class="cls-1" d="M84.31,16.26l1.68-.6.57,5.05c1.22.12,2.17,1.16,3.48,1.32.15,0,.32.27.43.23,1-.27,1.14.47,1.52,1.18l-.79.83c-.26.27-.47.18-.76,0s-.27-.79-.78-.32c0,0-.47-.37-.74-.49a2.56,2.56,0,0,0-.69-.09,1.77,1.77,0,0,1-.52-.06c-.37-.19-.51-1-1.1-.52-.11.08.22.67.24,1a11.05,11.05,0,0,0,.35,3.47c.2.55-.18.91-1,1.13-.58.17-.85-.13-1-.65S84.55,27,85,26.32c.19-.29-.23-.94-.3-1.44-.17-1.08.34-2.24-.37-3.27.81-.71-.61-1.72.33-2.46a1.06,1.06,0,0,0,0-1C84.1,17.54,84.43,16.9,84.31,16.26Z"/><path class="cls-1" d="M142.63,24.93a3.55,3.55,0,0,0,1.4-3.09c0-.4.07-.55.52-.71s.3-.93.59-1.31,0-1,.78-1.19,1.57-.26,2,.18c.65.72,1.84.85,2.08,2,0,.15.25.37.37.36.73,0,.75.44,1,1A38.88,38.88,0,0,0,154.12,26c-.05.09-.08.21-.16.25-1.2.79-1.14.73-2.13-.33-1.24-1.31-2-3.06-3.43-4.17.11-.8-.73-.5-1-.86-.33.44-1.09.32-1.23,1.09a5.1,5.1,0,0,1-.86,2.17,17.13,17.13,0,0,0-.92,2.12c-.23.44-.47.48-.76.1S143,25.44,142.63,24.93Z"/><path class="cls-1" d="M56.66,14.64a10.38,10.38,0,0,0,3.05.46c.94.09,1.58,1,2.12,1.62a2.66,2.66,0,0,1,.29,2.62,10.49,10.49,0,0,1-.65,1.7c-.27.44-.6,1.2-1.09,1.08-.74-.19-1.34.41-2.14,0a5.17,5.17,0,0,1-2.35-2.41c0-.05-.12-.09-.12-.13a5.51,5.51,0,0,0,.18-1,6.51,6.51,0,0,0-.21-1.05c-.07-.38.19-.63.33-.94A12.55,12.55,0,0,0,56.66,14.64ZM58,17.27c-.13.49-.51,1.1-.37,1.54a2.14,2.14,0,0,0,1.65,1.57.83.83,0,0,0,.16-.14c.23-.32.58-.62.64-1A2.8,2.8,0,0,0,60,17.71c-.33-.77-1.13-.42-1.75-.48A.87.87,0,0,0,58,17.27Z"/><path class="cls-1" d="M45.36,23.25c0,.64-.07.81-.46,1-1.1.53-1.32,1.64-1.77,2.6.67.36-.21.6-.11,1,0,.18-.25.4,0,.79s-.52,1.53-1,1.59c-.27,0-1.07-.73-1.1-1.11s-.1-.95.36-1.28c-.37-1.24.67-2.12.85-3.25s1.4-1.82,2.23-2.63c.07-.07.48.08.58.22A6.4,6.4,0,0,1,45.36,23.25Z"/><path class="cls-1" d="M74.68,28.07A4.3,4.3,0,0,0,74.4,27c-.15-.25-.24-.33.12-.42,1.14-.26,2.08-1.09,3.32-1.09a5.82,5.82,0,0,0,2.31-1.05c.17-.14.32-.31.49-.48l1.17,1.15a10.87,10.87,0,0,1-.91,1.43c-.17.2-.69.38-.82.28-.75-.58-.29.36-.53.39,0,0-.12.09-.12.08-1.1-1.08-1.81.67-2.79.38C76.05,28.29,75.33,28,74.68,28.07Z"/><path class="cls-1" d="M51.93,23.31a4.11,4.11,0,0,1,1,.43,2,2,0,0,1,.57.81,4.49,4.49,0,0,1,.21,1c.72-.29.4.62.9.78a4.33,4.33,0,0,1,1.57,1.37c.19.22.14.63.19,1-.38,0-.57.49-1.13.27-1.35-.53-2.62-1.09-3.22-2.53-.13-.31-.76-.31-.48-.9.12-.26-.1-.66-.05-1A8.6,8.6,0,0,1,51.93,23.31Z"/><path class="cls-1" d="M96.55,27.33l-.64-.27c.22-.47-.69-1,.09-1.47a.72.72,0,0,0,.25-.59c-.18-1.25.73-2.11,1.13-3.14.09-.24.51-.35.76-.55s.54.51.77,0c0,0,.24.06.24.09,0,.64.15,1.41-.15,1.9a24.84,24.84,0,0,0-1.27,3.25C97.39,27.31,97.45,27.33,96.55,27.33Z"/><path class="cls-1" d="M75,16.93c.71.52,1.63.89,2,1.56a10.55,10.55,0,0,0,1.61,1.83.88.88,0,0,1,.21,1.1,4.1,4.1,0,0,1-1.07.85.37.37,0,0,1-.27-.17c-.3-.86-1.19-1.13-1.76-1.72-.33-.33-.75-.5-1-1-.63-1.09-.7-1,.21-2C75,17.3,75,17.08,75,16.93Z"/><path class="cls-1" d="M41.27,30l-.22.17C41,30.11,41,30,41,30a.86.86,0,0,1,.28-.11Z"/></g></svg>