<svg xmlns="http://www.w3.org/2000/svg" viewBox="0 0 249.63 46.24"><defs><style>.cls-1{fill:#fff;}</style></defs><g id="レイヤー_1" data-name="レイヤー 1"><path d="M114.8,14c.48-.3-.3-.46,0-.9a3,3,0,0,0,.15-2.52,6.12,6.12,0,0,0-.75-1.43c-.63-.77.44-1.19.35-1.81,0-.32,0-.69-.2-.94A5.43,5.43,0,0,1,113.44,3c0-1.44-2.08-2.58-3.94-2.32-.51.7-1.1-.44-1.62,0s-1.45.2-2.18.3c-.49.07-1.23-.06-1.44.16-.63.63-1.18-.2-1.65,0a1.5,1.5,0,0,1-1.8-.11.82.82,0,0,0-.67,0A.91.91,0,0,1,98.69,1c-.4.45-1,.4-1.59.39-.95,0-1.91,0-2.86,0s-1.73,0-2.59,0-1.65,0-2.41-.09-1.81.38-2.4.05A5.62,5.62,0,0,0,83.91,1C78.46,1,73,1,67.57,1c-.64,0-1.37.26-1.95-.24a.87.87,0,0,0-.68-.13,6.28,6.28,0,0,1-4.78,0,1.91,1.91,0,0,0-1,0,15.6,15.6,0,0,1-6.63,0c-.25-.05-.59.18-.88.16s-.65-.17-1-.21a3.23,3.23,0,0,0-1,0c-.62.15-1.26.72-1.82.34-.79-.54-1.25.26-2,.1a6.31,6.31,0,0,0-2.56,0c-.77.15-1.26-.34-2-.25S39.84.59,39.19,1A.27.27,0,0,1,39,1c-.7-.6-1.46-.39-2.31-.2-.66.14-1.45,0-2.12.1A8.84,8.84,0,0,0,32,1.39c-.73.41-1.55-.63-2.37,0-1.24-.7-2.65-.27-4-.32-.45,0-.79.65-1.51.16-.23-.16-1,.17-1.47.2-.78,0-1.56,0-2.34,0s-1.77.23-2.28,0c-.82-.47-1.36.23-1.94,0a2.7,2.7,0,0,0-1.92,0c-.54-.63-1.15.21-1.63,0-1.6-.78-3.33-.19-5-.39-.83.74-1.59.08-2.38-.08A14.64,14.64,0,0,0,3,1.13L.45,4.35a1.15,1.15,0,0,1,.11.29A6,6,0,0,1,.77,7.16c-.32.91.29,1.67.12,2.52s0,1.89-.07,2.83S1.37,14.27.33,15c.26.82,1.08,1.64,0,2.48A3.15,3.15,0,0,1,.39,21c1,.71,0,1.38-.07,2.07,1.28.7-.43,1.37,0,2.11.2.36-.77.84,0,1.27.12,1.43-.35,2.91.52,4.29-.83.69.29,1.35.06,2.1S1,34.61.79,35.46c-.11.5.86.78.18,1.35-.48.4.18,1.14-.54,1.65-.27.19-.3,1-.07,1.12.71.4-.1.92.4,1.42s.1,1.29.08,2a2.89,2.89,0,0,0,1.51,2.34.77.77,0,0,0,.52.07c.58-.59,1.23.25,1.41.07.74-.68,1.19.15,1.73.1,1-.09,2,.32,2.94-.35.4-.28,1.24.06,1.92-.29.37-.18,1.29.37,1.74.21a14.32,14.32,0,0,1,4.22-.37c.52,0,1.23-.4,1.5-.24a2.09,2.09,0,0,0,1.67.21c.8-.3,1.76-.64,2.35-.3.91.52,1.47-.44,2.23-.08a3.32,3.32,0,0,0,1.36.33c.44,0,.88-.3,1.31-.29s1.22.43,1.29.35c.72-.78,1.69,0,2.56-.29a4,4,0,0,1,3.18.23c.25.16.95,0,1.36-.16a1.53,1.53,0,0,1,1.61.09c.16.11.58.21.67.14,1-.8,2.3-.24,3.44-.37a2.91,2.91,0,0,1,1.69.23c.37.18,1.16-.23,1.76-.23s1.55.44,2,.24a1.78,1.78,0,0,1,2,.12.84.84,0,0,0,.67-.12c.57-.5,1.46,0,1.9-.3.77-.54,1.28.26,2,.06s1.38-.47,1.77-.29c1.79.84,3.93-.4,5.62.67.64-.69,1.61-.45,2.36-.36s1.58-.64,2.4-.1c.26-.75.81.25,1.34-.15.37-.28,1.28-.19,1.94-.18s1.26.35,1.47.19c.8-.61,1.17.3,1.78.2s1-.17,1.44-.2c.81-.06,1.63-.09,2.44-.1.18,0,.49.21.53.17.65-.56,1.48-.17,2.2-.27a3.71,3.71,0,0,1,2.13.4c.61.29,1.13-.57,2-.05.46.3,1.42,0,2.09.44s1.24-.69,1.88,0c.37-.62,1.14-.13,1.73-.32.74-.24,1.8.17,2.69.1.56,0,1.07.23,1.68,0a4.09,4.09,0,0,1,1.73-.13c.53,0,1.3.45,1.53.29a2.82,2.82,0,0,1,1.67-.3,15.59,15.59,0,0,1,1.81,0c.21,0,.38.29.6.33.61.11,1.22.65,1.87.06a62.18,62.18,0,0,0,9.58-.51l1.52-1.88c.08-.1.27-.27.26-.27-1.07-.74-.24-1.76-.63-2.63-.28-.63-.8-1.57-.28-2.16s.34-1.26.44-1.89c.06-.33-.06-.69,0-1,.17-.48.6-.92.68-1.39a7.64,7.64,0,0,0-.19-1.56c0-.61,0-1.21,0-1.82s-.28-1.25.06-1.59c.62-.62-.34-1-.07-1.52.12-.23,0-.58.2-.74.47-.38.24-.6,0-1s0-1,0-1.48c0-.31.24-.61.27-.92.06-.72-.23-1.5.82-2,.07,0,.12-.24.08-.27a1.15,1.15,0,0,1-.3-1.67c.61-.7-.3-1.16-.09-1.73s-.22-.94.42-1.3a.45.45,0,0,0,0-.52C114.53,14.61,114.22,14.3,114.8,14Z"/><path d="M67.83,31.64c-.48.3.31.46,0,.9a3,3,0,0,0-.14,2.52,6.08,6.08,0,0,0,.74,1.43c.63.77-.44,1.19-.34,1.81a1.93,1.93,0,0,0,.19.94,5.44,5.44,0,0,1,.87,3.38c0,1.44,2.07,2.58,3.93,2.32.51-.7,1.11.44,1.62,0s1.45-.2,2.18-.3c.49-.07,1.23.06,1.44-.16.63-.63,1.18.2,1.65,0a1.5,1.5,0,0,1,1.8.11.82.82,0,0,0,.67,0,.92.92,0,0,1,1.45.08c.41-.45,1-.4,1.6-.39h2.85c.86,0,1.73,0,2.59,0s1.65.05,2.42.09,1.8-.38,2.39-.05a5.65,5.65,0,0,0,2.94.34c5.44,0,10.89,0,16.33,0,.64,0,1.37-.26,2,.24a.87.87,0,0,0,.68.13,6.28,6.28,0,0,1,4.78,0,1.91,1.91,0,0,0,1,0,15.6,15.6,0,0,1,6.63,0c.26,0,.59-.18.88-.16s.66.17,1,.21a3.24,3.24,0,0,0,1,0c.61-.15,1.25-.72,1.81-.34.79.54,1.25-.26,2-.1a6.36,6.36,0,0,0,2.57,0c.77-.15,1.25.34,2,.25s1.42.2,2.07-.21a.29.29,0,0,1,.24,0c.7.6,1.45.39,2.3.2.67-.14,1.45,0,2.12-.1a8.77,8.77,0,0,0,2.58-.52c.73-.41,1.55.63,2.38,0,1.23.7,2.64.27,4,.32.45,0,.79-.65,1.51-.16.24.16,1-.17,1.48-.2.77,0,1.55,0,2.33,0s1.77-.23,2.28,0c.82.47,1.36-.23,1.95,0a2.67,2.67,0,0,0,1.91,0c.54.63,1.15-.21,1.63,0,1.6.78,3.34.19,5,.39.83-.74,1.59-.08,2.38.08a14.78,14.78,0,0,0,2.14-.21l2.56-3.22a1.15,1.15,0,0,1-.11-.29,5.94,5.94,0,0,1-.21-2.52c.32-.91-.28-1.67-.11-2.52s0-1.89.06-2.83-.55-1.76.49-2.47c-.26-.82-1.08-1.64-.05-2.48a3.17,3.17,0,0,1,0-3.55c-1-.71,0-1.38.07-2.07-1.27-.7.44-1.37,0-2.11-.2-.36.77-.84,0-1.27-.12-1.43.36-2.91-.52-4.28.84-.7-.28-1.36-.06-2.11s-.08-1.76.11-2.61c.11-.5-.85-.78-.18-1.35.49-.4-.18-1.14.55-1.65.26-.19.29-1,.06-1.12-.7-.4.11-.92-.4-1.42s-.1-1.29-.08-2A2.85,2.85,0,0,0,180.28.28a.77.77,0,0,0-.52-.07c-.58.59-1.22-.25-1.41-.07-.73.68-1.18-.15-1.73-.1-1,.09-2-.32-2.94.35-.4.29-1.24-.06-1.92.29-.36.18-1.29-.37-1.74-.21a14.25,14.25,0,0,1-4.21.37c-.52,0-1.24.4-1.5.25a2.08,2.08,0,0,0-1.68-.22c-.79.3-1.76.64-2.35.3-.91-.52-1.46.44-2.23.08a3.32,3.32,0,0,0-1.36-.33c-.43,0-.88.3-1.31.29s-1.22-.43-1.29-.35c-.72.78-1.69,0-2.56.29a4,4,0,0,1-3.18-.23,2.27,2.27,0,0,0-1.36.16A1.53,1.53,0,0,1,145.38,1c-.16-.11-.58-.21-.66-.14-1,.8-2.3.24-3.44.37a2.94,2.94,0,0,1-1.7-.23c-.37-.18-1.16.23-1.76.23s-1.54-.44-2-.24a1.79,1.79,0,0,1-2-.12.86.86,0,0,0-.66.12c-.57.51-1.47,0-1.91.3-.77.54-1.28-.26-1.95-.06s-1.39.47-1.78.29c-1.78-.84-3.93.4-5.61-.67-.64.69-1.61.45-2.37.36s-1.58.64-2.4.1c-.26.75-.81-.25-1.34.15-.37.28-1.27.19-1.94.18-.5,0-1.26-.35-1.47-.19-.8.61-1.17-.3-1.77-.2s-1,.17-1.45.2c-.81.06-1.62.09-2.44.1-.18,0-.49-.21-.53-.17-.65.56-1.47.17-2.2.27a3.68,3.68,0,0,1-2.12-.4c-.61-.29-1.14.57-2,.05-.46-.3-1.43,0-2.09-.44s-1.25.69-1.89,0c-.37.62-1.13.13-1.73.32s-1.79-.17-2.69-.1c-.56,0-1.07-.23-1.68,0a4.09,4.09,0,0,1-1.73.13c-.53,0-1.3-.45-1.52-.29a2.85,2.85,0,0,1-1.68.3,15.61,15.61,0,0,1-1.81,0c-.21,0-.38-.29-.6-.33C81.85.78,81.24.24,80.59.83A62.05,62.05,0,0,0,71,1.34L69.49,3.22c-.08.1-.27.27-.26.27,1.07.74.24,1.76.63,2.64.28.63.8,1.56.28,2.15s-.34,1.26-.44,1.89c0,.33.07.69,0,1-.16.48-.6.92-.67,1.39a7,7,0,0,0,.18,1.56c0,.61,0,1.22,0,1.82s.28,1.25-.06,1.59c-.62.62.35,1,.07,1.52-.12.23,0,.58-.2.74-.47.38-.24.6,0,1s0,1,0,1.48c0,.31-.24.61-.27.92-.06.72.23,1.5-.81,2-.08,0-.13.24-.08.27a1.15,1.15,0,0,1,.29,1.67c-.6.7.3,1.16.09,1.73s.22.94-.42,1.3a.45.45,0,0,0,0,.52C68.1,31,68.41,31.29,67.83,31.64Z"/><path d="M249,32.67c-.1-1.28.37-2.67-.15-3.81a6.61,6.61,0,0,1-.33-3.11c0-.43,0-.84,0-1.28a5.64,5.64,0,0,1,.33-3.11c.47-.9.32-2.07.63-3.1-.79-.44-.48-1.08-.51-1.66s.68-1,0-1.48a1.92,1.92,0,0,0,.42-2.42c-.53-.77.95-1.64-.41-2.19,0,0,.08-.36.18-.53a2.16,2.16,0,0,0-.06-2.61.67.67,0,0,1-.06-.54c.11-.38.53-1,.37-1.1-.75-.51.46-1,0-1.28-.92-.54.53-.88.06-1.32a7.3,7.3,0,0,0,0-.81c0-.53-.43-.87-1.1-.9-2-.09-4.05.21-6-.39-.26-.07-.69.3-1.07.37-.83.15-.43-.68-.84-.75-1.21-.17-2.53.14-3.66-.46-.54.61-1,.43-1.67,0A1.69,1.69,0,0,0,234,.39a1.27,1.27,0,0,1-1.11,0c-.45-.13-1-.11-1.53-.21a2.33,2.33,0,0,0-1.69.21c-.37.21-1.08-.65-1.59.08C227,.16,226,.74,224.87.63,223.6.5,222.09.9,221,.51s-1.94.72-2.52-.32a14.64,14.64,0,0,1-7.35,0,.62.62,0,0,0-.46.09c-.44.5-1.1.32-1.66.29-1.08,0-2.16,0-3.25-.14s-2.07.26-3.13-.21c-.34-.15-1.17.29-1.43.13A3.48,3.48,0,0,0,198.63.2c-1.48.2-3.07-.47-4.47.38-.11.07-.45-.09-.68-.14-.39-.08-.94-.33-1.14-.22a3,3,0,0,1-2.6.31c-.81-.49-1.77.6-2.28-.33-.72.77-1.37-.35-2.18,0-.41.15-1,.65-1.65.06-.44-.38-1.13.54-1.68.11-.83-.65-1,.47-1.81.32A16,16,0,0,0,177,.6h-3.37a12.12,12.12,0,0,1-3.08,0c-1.09-.31-2.05.43-3,0s-2,0-2.94.1a4.11,4.11,0,0,1-2,.11c-.63-.2-1.57.3-2.27.17A8.32,8.32,0,0,0,158,1c-2.23.17-4.49.07-6.74,0-.72,0-2.36.64-2.42,1.17-.21,1.86-1.26,3.62-1.09,5.53,0,.42.66.76.09,1.32-.34.33.07,1.08-.18,1.54s0,.46,0,.74a23,23,0,0,1,.12,3.22c-.83.25.27.86-.36,1.17-.82.41-.41,1-.36,1.57a7.5,7.5,0,0,1,.18,1.14c0,.44-.27.87-.29,1.31s.4.8.24.95c-.6.56-.67,1,0,1.58.2.18.12.63,0,.92-.84,2.16-.41,4.35-.2,6.51a2.75,2.75,0,0,1,0,1.4c-.18.46.36,1.08.22,1.57a3.19,3.19,0,0,0,0,2,6.75,6.75,0,0,1,0,2v1.83a15.13,15.13,0,0,0,0,2,10.07,10.07,0,0,0,.5,1.65c-1.32.32.39,1.15-.43,1.56-.12,1.27,1,1.87,2.52,1.72a42.39,42.39,0,0,1,6.57-.08c.61,0,1.25.4,1.76,0,.84-.67,1.11.67,1.79.25,1.22-.76,2.63-.27,3.95-.37.93-.08,2.08.21,2.78-.12a4.31,4.31,0,0,1,2.68-.24,7.54,7.54,0,0,0,2.19-.07c.8-.06,1.69.25,2.42-.36.16-.14.78,0,1.18.1s.79.3.86.24c.86-.82,1.65-.17,2.46,0,.43.11,1.08.41,1.26.28a2,2,0,0,1,2.1-.13c.78.44,1.07-.38,1.76-.19a9.92,9.92,0,0,0,2.32,0c.77,0,1.55,0,2.33,0a12,12,0,0,1,2.5.18c.78.21,1.24-.39,2-.23.54.11,1.39-.47,1.81-.3a5,5,0,0,0,1.9.35,8.82,8.82,0,0,1,2.06,0,2.37,2.37,0,0,0,1.68,0c.3-.12.85.45,1.33,0,.31.6,1.21-.41,1.47.33.53-.13,1.05-.29,1.6-.38a2.29,2.29,0,0,1,.69.14,6.74,6.74,0,0,0,.85.2c.49-.88,1.28.18,1.84-.18.77-.5,1.36.07,2,.22.32.07.85.13,1,0,.7-.6,1.3,0,1.93,0,.81,0,1.72-.33,2.44.28a1,1,0,0,0,.68,0c2.23-.74,4.56-.14,6.82-.34.73.55,1.61-.24,2.13,0,.94.51,1.65.06,2.46,0a11.36,11.36,0,0,1,3.68.37,10.19,10.19,0,0,0,2.07,0h2.07c.7,0,1.39,0,2.08,0a12.37,12.37,0,0,1,1.73.19,4.43,4.43,0,0,0,1.56-.17,9.48,9.48,0,0,1,2.32,0,5.13,5.13,0,0,1,1.76.57c.59.33,1.13-.72,1.64,0,.8-.14,1.82,0,2.27-.67a1.33,1.33,0,0,0,.1-1.44,1.93,1.93,0,0,1-.32-1.33,5.12,5.12,0,0,1,0-1.41c.09-.49.43-1,.48-1.46.08-.87-.34-1.89.12-2.59s-.9-1.62.41-2.18c0,0,0-.28-.09-.35C248.52,34.15,249,33.37,249,32.67Z"/></g><g id="レイヤー_2" data-name="レイヤー 2"><g id="ooOt40"><path class="cls-1" d="M140.58,22.35c-2.41-.35-2.4-.63-2.41-.92a.8.8,0,0,1,.82-.86c.51,0,1,0,1.64,0-.15-1.14-1.58-2.08-.18-3.2L139,16.68l.36-1.58c.18.06.45.2.5.15a2.34,2.34,0,0,1,2.5-1.17l-.21,1.23s.06.06.16.07a2.26,2.26,0,0,0,.52,0l1.85-.1c-.47-.88.8-1.44.43-2.3,0-.07.06-.2.07-.23,1.69.16,1.26,1.47,1.31,2.63.53,0,1,0,1.54,0a.86.86,0,0,1,.87,1,1,1,0,0,1-1.19.77,9.52,9.52,0,0,0-1.2,0c0,.45-.33.88.47,1,1.19.25,1.41.86.89,1.87a7.44,7.44,0,0,0,1.34.49c.43.08.42.33.36.6a.73.73,0,0,1-.32.45c-.27.16-.6.22-.88.37s-.8.42-.81.65c0,.69.59.23.89.38s.43.22.43.33c0,.91,1,1.5.74,2.48,0,.16.29.45.5.62a1.23,1.23,0,0,1,.18,1.88c-.22.21-1-.33-.74.58.08.36-.31.83-.23,1.2s.3.45-.05.6-.75.31-.9.18c-.4-.34-1-.63-.87-1.35a4.71,4.71,0,0,0,0-.84c-.68-.57-1.38,0-2,0a4.18,4.18,0,0,1-2.08,0c-.3-.13-.34,0-.51.11a2.27,2.27,0,0,0-.67.49c-.12.33-.26.65-.36.89a8.91,8.91,0,0,1-2.54-1.7l-.79,1.06a8.53,8.53,0,0,1-2.18-1c-.5-.43-.65-1.25-1.49-1.42-.35.81,0,1.67-.43,2.47a5.88,5.88,0,0,1-.65,1.1c-.27.31-.51.37-.84.06s-.8-.17-.64-.75c0-.17,0-.36,0-.52.18-.59,1.13-1,.34-1.81l.8-1.88c-1.27-.07-1.9.77-2.68,1.3-.89-.85-.7-2.14-1.16-3.18-.09-.19.55-.5.16-.81s.23-.49.13-.81,0-.9-.18-1.3.29-.73.19-1.17-.14-1,.07-1.14c.56-.46-.42-.67-.09-1a1.27,1.27,0,0,0,.35-1.07c0-.62.37-.89,1-.87a4.92,4.92,0,0,1,1.54,0c.63.25,1-.78,1.7-.18.41.36,1.15.12,1.69.47.2.13.56,0,.89,0,.07.44,0,1,.22,1.27.51.45-.07.75,0,1.11a7.7,7.7,0,0,0,.24,1.45,3.1,3.1,0,0,1,.34,1.25c0,.38-.22.88,2.73,1.19,1.58-.06,1.08-.07.58-.06s-1.14-.13-1.49.12c-.57.43-.88-.57-1.32-.11A1,1,0,0,0,138,23a2.21,2.21,0,0,1-1.44,2.11c-.17.05-.44.23-.43.33.08.64.29.11.47.06,0,0,.13.22.2.34A3.25,3.25,0,0,0,137.9,27c.72.45,1.18.28,1.7-.43a1.78,1.78,0,0,0,.29-1.27,2.35,2.35,0,0,1,1.37-2.16C141.71,22.92,142.19,22.7,140.58,22.35Zm-4.68-1.58a4.81,4.81,0,0,0-.51-.2,1.74,1.74,0,0,0-.32,0c.07.12.13.3.24.33s.28-.05.16-.33c-.79-.28-1.36-.7-1.66-.56-.54.25-.89.34-1.32-.09-.07-.06-.42,0-.43.06a2.11,2.11,0,0,0-.05.79c0,.07.4.16.41.14.25-.56.77.12,1.17-.29C133.84,20.36,134.56,20.56,135.9,20.77Zm.25,1.86c-.52,0-1,0-1.4,0a11.21,11.21,0,0,1-1.11.19,6.53,6.53,0,0,1-1.16-.19.33.33,0,0,0-.17,0,1.07,1.07,0,0,0-.65,1.13c.06.53.38-.19.5-.05.69.83,1.56.32,2.32.26A1.56,1.56,0,0,0,136.15,22.63Zm-4.52-4.2c.52,0,.84.07.89,0,.41-.7,1.08.33,1.51-.25.06-.08.41,0,.62.09.71.21.71.21.7-.81-.42,0-1-.07-1.23.16-.45.39-.7-.55-1.12,0A5.72,5.72,0,0,1,131.63,18.43Zm13.16,2.05-.18-.9c-.25.19-.41.18-.75,0s-1-.05-1.54-.05C142.85,20.64,143.69,20.69,144.79,20.48Zm-.13,4.05c.52.1.83.61,1.4.21.15-.11.58.18.89.26.05,0,.14-.1.2-.18a.22.22,0,0,0,0-.16,1.52,1.52,0,0,0-1.33-.52Zm-2.29-7.3c0,.08.06.19.12.22.23.13.46.24.69.35.06-.14.18-.3.16-.43-.07-.41-.43-.22-.67-.25C142.58,17.11,142.48,17.19,142.37,17.23ZM143,26.6c-.11-.1-.15-.17-.19-.16l-.79.11a.21.21,0,0,0,0,.11c.26.05.53.08.8.11C142.87,26.77,142.91,26.7,143,26.6Zm1.33-9-.12-.12a1.2,1.2,0,0,0-.11.23s.07.08.11.11Zm3.11,2.52-.13-.23s-.11.09-.1.12a1.15,1.15,0,0,0,.1.23Z"/><path class="cls-1" d="M98.54,23c-1.17,0-2.14,0-3.11,0A1.42,1.42,0,0,0,94,24.44c0,.28-.11.65,0,.84.27.39,0,.8.17,1.2A1.12,1.12,0,0,1,93.59,28a.86.86,0,0,1-.8-.2c-.26-.38-.64-1-.49-1.28.3-.53-.07-.87-.06-1.3s0-.91,0-1.37c.1-1.62.21-3.24.36-4.85a1.5,1.5,0,0,1,.5-.81,2.38,2.38,0,0,1,.72-.32c.91,1.68.91,1.68.49,2.9a10.65,10.65,0,0,1,1.4.37c.42.17.25-.16.33-.28a.34.34,0,0,1,.29-.15c.2,0,.39.19.59.2a15.83,15.83,0,0,1,2.07,0,2.82,2.82,0,0,0,1.63,0c.57-.21,1.13.27,1.54.74.08.1.11.39,0,.44-.39.3-.58.77-1.19.88-.9.16-1,.38-.66,1.27.17.42-.16.43-.17.64a13.33,13.33,0,0,1,0,1.55c-.06.43.53.79.09,1.23.46.46.34.85,0,1.33-.1.12.19.56.3.86s-.63.45-.08.79c.08,0,.08.4,0,.43s-.49.21-.61.12c-.39-.29-.94-.62-1-1a2,2,0,0,0-.64-1.47.56.56,0,0,1-.07-.44c.75-.33-.12-.85.16-1.21a.79.79,0,0,0-.18-1.18C98.82,25.07,98.27,24.07,98.54,23Z"/><path class="cls-1" d="M164.23,29a9.18,9.18,0,0,1-2.94-.52c-.58-.34-1.42-.69-1.66-1.37s-1.19-.44-1.17-1.21c0,0-.36-.15-.43-.08-.43.38-1.12.78-1.15,1.21-.06,1.06-.94,1.37-1.43,2-.28.36-.67.3-1,0a.83.83,0,0,1-.31-1.05,10.57,10.57,0,0,1,1.09-1.79c.48-.67,1-1.29,1.57-1.93s1.05-1.1.44-2c-.16-.23.05-.7-.05-1s-.13-1.1-.81-.41a6.06,6.06,0,0,0-2.08-.35c-.17,0-.42-.47-.52-.77-.16-.47.24-.7.57-.91.12-.07.36,0,.5,0,.55-.23,1,.39,1.64.06a5.16,5.16,0,0,1,2-.05,3.66,3.66,0,0,1,.42,1.43c-.07.52.9.95.09,1.46l.64,1.07c-.53.37-.33.69,0,1.1a2.77,2.77,0,0,1,.51,1.15,1.34,1.34,0,0,0,1.12,1,4.91,4.91,0,0,1,2.57,1.67A4.39,4.39,0,0,1,164.23,29Z"/><path class="cls-1" d="M114,23a2.45,2.45,0,0,1-.83,2.07c-.27.27-.35.45.11.74s.71,1,1.19,1.24a7.38,7.38,0,0,1,1.3,1,.75.75,0,0,1,.22,1c-.17.28-.41.74-.94.33s-1.32-.76-1.88-1.25a1.58,1.58,0,0,0-1.08-.34c-.35,0-.53.08-.51.47,0,.79-.89,1.27-.71,2.13,0,0-.31.2-.41.16a1.59,1.59,0,0,1-.89-1.94,5.68,5.68,0,0,1,.77-2.07c.56-.6.4-1.54,1.17-2,.1-.06,0-.35.14-.45a.77.77,0,0,0,.08-1.18.8.8,0,0,0-1.18-.17,1.58,1.58,0,0,1-1.73,0,.54.54,0,0,0-.73,0c-.13.1-.5.12-.55,0s-.18-.51-.08-.62a3.51,3.51,0,0,1,1.08-1c.47-.21,1.21-.47,1.51-.26.59.41.91-.58,1.32-.1s1.06.24,1.59.34A1.6,1.6,0,0,1,114,23Z"/><path class="cls-1" d="M126.72,26c-.53.38-1.25-.21-1.76.35,0,0-.24-.08-.35-.16-1-.83-2.45-.35-3.52-1.07-.18-.12-.57.64-.46.89s1,.42.29,1c.64.31-.08.6,0,.92a2.39,2.39,0,0,1,0,1,.83.83,0,0,1-.87.63c-.48,0-.86-.32-.81-.67.16-1-.43-1.84-.37-2.78a5.6,5.6,0,0,0-.35-2.44c-.12-.32-.34-.57,0-.94.14-.17.07-.57,0-.84s-.4-.76-.31-.87c.54-.58,0-1.47.66-2-.21-1,.51-.07.76-.35s.44.24.62.45c0,0,0,.11,0,.16a4.15,4.15,0,0,0,0,1.54,2,2,0,0,1,0,1.28.8.8,0,0,0,.69,1.06c.44.11,1,.51,1.28.37.68-.33.65.54,1,.46a2,2,0,0,1,1.28,0c.34.14.7.11,1.09.3C126.54,24.77,126.64,24.77,126.72,26Z"/><path class="cls-1" d="M102.81,16.48a28.43,28.43,0,0,0,.66,3c.17.51.35,1.11,0,1.35s-.92-.11-1.35-.3a.93.93,0,0,1-.51-.61c0-1-.56-1.92-.38-2.95.12-.66.21-.75,1-.56a1.93,1.93,0,0,0,.34,0Z"/><path class="cls-1" d="M103.77,16.15c0-.14,0-.37.11-.4a1.33,1.33,0,0,1,.8-.16A2.59,2.59,0,0,1,106,17.21c.13.35,0,.71.29,1.1s-.35.75-.64,1a.81.81,0,0,1-.76-.16c-.33-.66-1.13-1.09-1-2a5.56,5.56,0,0,0,0-1Z"/></g><path class="cls-1" d="M29.41,16.23c-.16.8-.38,1.59-.46,2.39-.05.56-1.16.25-.82,1.14.08.22-.54.72-.88,1.06a11.24,11.24,0,0,1-1.2,1.09,10.73,10.73,0,0,1-3.49,1.34A6.24,6.24,0,0,1,21.47,23c-.37,0-.67.05-.73-.52,0-.4-.36.12-.46.08a23.36,23.36,0,0,1-2.41-1.18A11.71,11.71,0,0,1,16.07,20a1.74,1.74,0,0,1-.46-.89c-.11-.56.38-1.14,0-1.71a8.9,8.9,0,0,0,.77-2.79,1.92,1.92,0,0,1,.77-1.29c1.1-.5,1.87-1.49,3.15-1.75a6.41,6.41,0,0,1,2.53-.28c.41,0,1,.08,1.21-.14.53-.46.65.51,1.05.19.28.46.79.2,1.14.35A4.28,4.28,0,0,1,28,12.76C28.67,13.77,29.68,14.75,29.41,16.23Z"/><path class="cls-1" d="M28.93,32.61c-.47-.1-.79-.19-1.12-.25a1.12,1.12,0,0,0-.36,0l-1.15.5c-.57-.58-1.13.14-1.73,0a13.69,13.69,0,0,0-2.22,0,8.49,8.49,0,0,1-2,0c-.46-.11-.64.61-1.07.2s-.6.11-.9.18a4.17,4.17,0,0,1-1.65,0,1.16,1.16,0,0,1-.72-.67,1.6,1.6,0,0,1,0-1.24c.48-.62.29-1.26.32-1.89a10.81,10.81,0,0,1,2.09-5A1.11,1.11,0,0,1,20,24.33c.72.58,1.74.26,2.42.88.91-.59,2.2-.17,3-.82s1.05.3,1.61.11.45.46.57.71a9.86,9.86,0,0,1,1.35,5.12C28.88,31.05,28.93,31.77,28.93,32.61Z"/></g></svg>