<svg xmlns="http://www.w3.org/2000/svg" viewBox="0 0 196.32 46.24"><defs><style>.cls-1{fill:#fff;}</style></defs><g id="レイヤー_1" data-name="レイヤー 1"><path d="M90.28,14c.38-.3-.24-.46,0-.9a3.76,3.76,0,0,0,.11-2.52,6.84,6.84,0,0,0-.59-1.43c-.49-.77.35-1.19.27-1.81a2.54,2.54,0,0,0-.15-.94A6.59,6.59,0,0,1,89.21,3,2.66,2.66,0,0,0,86.11.65c-.4.7-.86-.44-1.27,0S83.7.9,83.13,1c-.39.07-1-.06-1.14.16-.49.63-.93-.2-1.3,0a1,1,0,0,1-1.41-.11.53.53,0,0,0-.53,0c-.44.51-.79.36-1.14-.08-.32.45-.78.4-1.25.39-.75,0-1.5,0-2.25,0s-1.36,0-2,0-1.3,0-1.9-.09-1.42.38-1.88.05A3.58,3.58,0,0,0,66,1C61.7,1,57.42,1,53.14,1c-.51,0-1.08.26-1.54-.24a.55.55,0,0,0-.53-.13,4,4,0,0,1-3.76,0,1.18,1.18,0,0,0-.78,0,9.74,9.74,0,0,1-5.22,0c-.2-.05-.46.18-.69.16a7.51,7.51,0,0,1-.78-.21,2,2,0,0,0-.81,0c-.48.15-1,.72-1.43.34-.62-.54-1,.26-1.55.1a4,4,0,0,0-2,0c-.6.15-1-.34-1.58-.25S31.33.59,30.82,1a.17.17,0,0,1-.18,0c-.55-.6-1.15-.39-1.82-.2s-1.14,0-1.66.1a5.64,5.64,0,0,0-2,.52c-.58.41-1.22-.63-1.87,0-1-.7-2.08-.27-3.12-.32-.36,0-.62.65-1.19.16-.18-.16-.75.17-1.16.2-.6,0-1.22,0-1.83,0s-1.4.23-1.8,0c-.64-.47-1.07.23-1.53,0a1.68,1.68,0,0,0-1.5,0c-.43-.63-.91.21-1.28,0C8.59.61,7.22,1.2,5.93,1c-.66.74-1.26.08-1.88-.08a9.19,9.19,0,0,0-1.68.21l-2,3.22a1.61,1.61,0,0,1,.09.29A7.27,7.27,0,0,1,.6,7.16c-.24.91.23,1.67.1,2.52s0,1.89-.06,2.83S1.08,14.27.26,15c.21.82.85,1.64,0,2.48A3.9,3.9,0,0,1,.31,21c.8.71,0,1.38,0,2.07,1,.7-.35,1.37,0,2.11.15.36-.61.84,0,1.27.08,1.43-.29,2.91.4,4.29-.65.69.23,1.35,0,2.1s.06,1.76-.09,2.61c-.09.5.67.78.14,1.35-.38.4.15,1.14-.42,1.65a1.15,1.15,0,0,0-.05,1.12C.84,40,.2,40.5.6,41s.08,1.29.06,2a3,3,0,0,0,1.19,2.34c.09.08.37.12.41.07.45-.59,1,.25,1.11.07.58-.68.93.15,1.36.1.76-.09,1.57.32,2.31-.35.32-.28,1,.06,1.51-.29.29-.18,1,.37,1.37.21a8.89,8.89,0,0,1,3.31-.37c.41,0,1-.4,1.18-.24a1.35,1.35,0,0,0,1.32.21c.62-.3,1.38-.64,1.85-.3.71.52,1.15-.44,1.75-.08a2.17,2.17,0,0,0,1.07.33c.34,0,.69-.3,1-.29s1,.43,1,.35c.56-.78,1.32,0,2-.29a2.56,2.56,0,0,1,2.5.23c.2.16.75,0,1.07-.16a1,1,0,0,1,1.26.09c.13.11.46.21.53.14.81-.8,1.81-.24,2.7-.37a1.88,1.88,0,0,1,1.34.23c.29.18.91-.23,1.38-.23s1.22.44,1.6.24c.65-.33,1.07-.37,1.58.12.08.08.43,0,.53-.12.45-.5,1.15,0,1.5-.3.6-.54,1,.26,1.53.06s1.1-.47,1.4-.29c1.4.84,3.09-.4,4.42.67.5-.69,1.26-.45,1.86-.36s1.24-.64,1.88-.1c.21-.75.64.25,1.06-.15s1-.19,1.52-.18,1,.35,1.16.19c.63-.61.92.3,1.39.2a11.34,11.34,0,0,1,1.14-.2c.64-.06,1.28-.09,1.92-.1.14,0,.39.21.42.17.51-.56,1.16-.17,1.73-.27a2.38,2.38,0,0,1,1.67.4c.48.29.89-.57,1.53-.05.36.3,1.12,0,1.65.44s1-.69,1.48,0c.29-.62.89-.13,1.36-.32s1.41.17,2.11.1c.44,0,.85.23,1.32,0a2.58,2.58,0,0,1,1.36-.13c.42,0,1,.45,1.2.29a1.84,1.84,0,0,1,1.32-.3,9.74,9.74,0,0,1,1.43,0c.16,0,.29.29.46.33.49.11,1,.65,1.48.06a38.61,38.61,0,0,0,7.53-.51L89,42.37c.06-.1.21-.27.2-.27-.84-.74-.19-1.76-.5-2.63-.22-.63-.63-1.57-.22-2.16s.27-1.26.35-1.89a6.59,6.59,0,0,1,0-1A11.94,11.94,0,0,0,89.38,33a8.32,8.32,0,0,0-.15-1.56c0-.61,0-1.21,0-1.82s-.22-1.25,0-1.59c.49-.62-.27-1,0-1.52.1-.23,0-.58.16-.74.37-.38.19-.6,0-1a3,3,0,0,1,0-1.48c0-.31.19-.61.21-.92,0-.72-.18-1.5.64-2,.06,0,.1-.24.06-.27a1.36,1.36,0,0,1-.23-1.67c.48-.7-.23-1.16-.07-1.73s-.17-.94.33-1.3a.53.53,0,0,0,0-.52C90.07,14.61,89.83,14.3,90.28,14Z"/><path d="M53.35,31.64c-.39.3.23.46,0,.9a3.76,3.76,0,0,0-.11,2.52,6.34,6.34,0,0,0,.59,1.43c.49.77-.35,1.19-.28,1.81a2.35,2.35,0,0,0,.16.94,6.69,6.69,0,0,1,.68,3.38,2.66,2.66,0,0,0,3.09,2.32c.4-.7.87.44,1.28,0s1.14-.2,1.71-.3c.38-.07,1,.06,1.13-.16.5-.63.93.2,1.3,0a1,1,0,0,1,1.42.11.51.51,0,0,0,.52,0c.44-.5.79-.36,1.15.08.31-.45.78-.4,1.25-.39h2.24c.68,0,1.36,0,2,0s1.3.05,1.9.09,1.42-.38,1.88-.05a3.57,3.57,0,0,0,2.31.34c4.28,0,8.57,0,12.85,0,.5,0,1.08-.26,1.53.24a.57.57,0,0,0,.53.13,4,4,0,0,1,3.76,0,1.2,1.2,0,0,0,.79,0,9.7,9.7,0,0,1,5.21,0c.2,0,.47-.18.69-.16a7.69,7.69,0,0,1,.79.21,2,2,0,0,0,.81,0c.48-.15,1-.72,1.43-.34.62.54,1-.26,1.55-.1a3.91,3.91,0,0,0,2,0c.61-.15,1,.34,1.59.25s1.11.2,1.63-.21a.17.17,0,0,1,.18,0c.55.6,1.15.39,1.81.2s1.14,0,1.67-.1a5.64,5.64,0,0,0,2-.52c.57-.41,1.22.63,1.87,0,1,.7,2.07.27,3.11.32.36,0,.62-.65,1.19-.16.19.16.76-.17,1.16-.2.61,0,1.22,0,1.84,0s1.39-.23,1.79,0c.65.47,1.07-.23,1.53,0a1.7,1.7,0,0,0,1.51,0c.42.63.9-.21,1.28,0,1.26.78,2.62.19,3.92.39.66-.74,1.25-.08,1.87.08a9.19,9.19,0,0,0,1.68-.21l2-3.22a1.61,1.61,0,0,1-.09-.29,7.51,7.51,0,0,1-.16-2.52c.25-.91-.22-1.67-.09-2.52s0-1.89,0-2.83-.43-1.76.39-2.47c-.21-.82-.85-1.64-.05-2.48a3.9,3.9,0,0,1,0-3.55c-.81-.71,0-1.38.05-2.07-1-.7.35-1.37,0-2.11-.16-.36.6-.84,0-1.27-.09-1.43.28-2.91-.41-4.28.66-.7-.22-1.36,0-2.11s-.07-1.76.08-2.61c.09-.5-.67-.78-.14-1.35.38-.4-.14-1.14.43-1.65A1.15,1.15,0,0,0,143.34,6c-.55-.4.08-.92-.31-1.42s-.08-1.29-.06-2A3.07,3.07,0,0,0,141.78.28c-.09-.08-.37-.12-.41-.07-.46.59-1-.25-1.11-.07-.58.68-.93-.15-1.36-.1-.77.09-1.57-.32-2.32.35-.31.29-1-.06-1.5.29-.29.18-1-.37-1.37-.21a8.94,8.94,0,0,1-3.32.37c-.41,0-1,.4-1.18.25a1.33,1.33,0,0,0-1.32-.22c-.62.3-1.38.64-1.84.3-.72-.52-1.15.44-1.75.08a2.2,2.2,0,0,0-1.07-.33c-.35,0-.7.3-1,.29s-1-.43-1-.35c-.57.78-1.33,0-2,.29a2.56,2.56,0,0,1-2.5-.23c-.2-.15-.75,0-1.07.16A1,1,0,0,1,114.33,1c-.12-.11-.46-.21-.52-.14-.82.8-1.81.24-2.71.37A1.86,1.86,0,0,1,109.77,1c-.29-.18-.91.23-1.39.23s-1.21-.44-1.6-.24A1.17,1.17,0,0,1,105.2.86c-.07-.07-.42,0-.52.12-.45.51-1.15,0-1.5.3-.61.54-1-.26-1.54-.06s-1.09.47-1.39.29c-1.41-.84-3.09.4-4.42-.67-.5.69-1.27.45-1.86.36s-1.24.64-1.89.1c-.2.75-.64-.25-1,.15s-1,.19-1.53.18-1-.35-1.15-.19c-.63.61-.92-.3-1.4-.2a11.15,11.15,0,0,1-1.13.2c-.64.06-1.28.09-1.92.1-.15,0-.39-.21-.42-.17-.51.56-1.16.17-1.73.27a2.38,2.38,0,0,1-1.67-.4c-.48-.29-.89.57-1.54.05-.36-.3-1.11,0-1.64-.44s-1,.69-1.48,0c-.29.62-.89.13-1.36.32s-1.41-.17-2.12-.1c-.44,0-.84-.23-1.32,0a2.56,2.56,0,0,1-1.36.13c-.42,0-1-.45-1.2-.29a1.82,1.82,0,0,1-1.32.3,9.62,9.62,0,0,1-1.42,0c-.17,0-.3-.29-.47-.33-.48-.11-1-.65-1.47-.06a38.5,38.5,0,0,0-7.53.51c-.39.6-.79,1.24-1.2,1.88-.07.1-.21.27-.2.27.83.74.18,1.76.49,2.64.22.63.63,1.56.22,2.15s-.27,1.26-.35,1.89a8.23,8.23,0,0,1,0,1,12,12,0,0,0-.54,1.39,10.42,10.42,0,0,0,.15,1.56c0,.61,0,1.22,0,1.82s.22,1.25,0,1.59c-.49.62.27,1,.06,1.52-.1.23,0,.58-.16.74-.37.38-.19.6,0,1a3.25,3.25,0,0,1,0,1.48c0,.31-.19.61-.21.92,0,.72.18,1.5-.64,2a.32.32,0,0,0-.07.27,1.36,1.36,0,0,1,.23,1.67c-.47.7.24,1.16.07,1.73s.18.94-.32,1.3a.53.53,0,0,0,0,.52C53.56,31,53.8,31.29,53.35,31.64Z"/><path d="M195.8,32.67c-.08-1.28.29-2.67-.11-3.81a8.13,8.13,0,0,1-.26-3.11c0-.43,0-.84,0-1.28a7.25,7.25,0,0,1,.26-3.11,23.63,23.63,0,0,0,.5-3.1c-.62-.44-.38-1.08-.41-1.66s.54-1,0-1.48a2.31,2.31,0,0,0,.33-2.42c-.42-.77.75-1.64-.32-2.19,0,0,.06-.36.14-.53a2.67,2.67,0,0,0,0-2.61.82.82,0,0,1-.06-.54c.09-.38.42-1,.3-1.1-.6-.51.35-1,0-1.28-.72-.54.42-.88.05-1.32,0-.27,0-.54,0-.81a.87.87,0,0,0-.86-.9c-1.58-.09-3.19.21-4.74-.39-.2-.07-.54.3-.84.37-.65.15-.34-.68-.66-.75-1-.17-2,.14-2.88-.46-.43.61-.82.43-1.31,0-.17-.13-.66,0-.91.17a.81.81,0,0,1-.87,0c-.36-.13-.79-.11-1.2-.21a1.49,1.49,0,0,0-1.33.21c-.29.21-.85-.65-1.25.08-.84-.36-1.63.22-2.49.11s-2.18.27-3-.12-1.52.72-2-.32a9.14,9.14,0,0,1-5.78,0,.4.4,0,0,0-.36.09c-.35.5-.87.32-1.31.29-.85,0-1.7,0-2.56-.14s-1.62.26-2.46-.21c-.26-.15-.92.29-1.12.13-.69-.55-1.36-.29-2.06-.16-1.15.2-2.41-.47-3.51.38-.09.07-.35-.09-.53-.14s-.74-.33-.9-.22a2,2,0,0,1-2,.31c-.64-.49-1.4.6-1.79-.33-.57.77-1.09-.35-1.72,0-.32.15-.77.65-1.3.06-.34-.38-.88.54-1.32.11-.66-.65-.81.47-1.42.32A9.91,9.91,0,0,0,139.23.6h-2.65a7.56,7.56,0,0,1-2.43,0c-.85-.31-1.61.43-2.32,0s-1.59,0-2.31.1c-.54.08-.93.36-1.59.11-.49-.2-1.23.3-1.78.17a5.17,5.17,0,0,0-1.92,0,46.82,46.82,0,0,1-5.3,0c-.56,0-1.85.64-1.9,1.17-.17,1.86-1,3.62-.86,5.53,0,.42.52.76.07,1.32-.27.33.05,1.08-.14,1.54a1.1,1.1,0,0,0,0,.74,28.72,28.72,0,0,1,.09,3.22c-.65.25.21.86-.28,1.17-.65.41-.32,1-.28,1.57a11.08,11.08,0,0,1,.14,1.14c0,.44-.22.87-.23,1.31s.32.8.19.95a1,1,0,0,0,0,1.58c.16.18.1.63,0,.92-.66,2.16-.32,4.35-.16,6.51a3.45,3.45,0,0,1,0,1.4c-.14.46.29,1.08.18,1.57a4,4,0,0,0,0,2,8.41,8.41,0,0,1,0,2v1.83a19.44,19.44,0,0,0,0,2,13.62,13.62,0,0,0,.39,1.65c-1,.32.31,1.15-.33,1.56-.1,1.27.78,1.87,2,1.72a26.37,26.37,0,0,1,5.18-.08c.47,0,1,.4,1.38,0,.66-.67.87.67,1.41.25,1-.76,2.06-.27,3.1-.37.74-.08,1.63.21,2.19-.12a2.72,2.72,0,0,1,2.11-.24,4.68,4.68,0,0,0,1.72-.07c.63-.06,1.33.25,1.9-.36.13-.14.62,0,.93.1s.62.3.67.24c.68-.82,1.3-.17,1.94,0,.34.11.85.41,1,.28a1.3,1.3,0,0,1,1.65-.13c.62.44.84-.38,1.39-.19a6.12,6.12,0,0,0,1.82,0c.61,0,1.22,0,1.83,0a7.53,7.53,0,0,1,2,.18c.61.21,1-.39,1.58-.23.42.11,1.09-.47,1.42-.3a3.23,3.23,0,0,0,1.5.35,5.47,5.47,0,0,1,1.62,0,1.49,1.49,0,0,0,1.32,0c.23-.12.66.45,1,0,.25.6,1-.41,1.16.33.42-.13.83-.29,1.26-.38.16,0,.36.09.54.14a4.63,4.63,0,0,0,.67.2c.39-.88,1,.18,1.44-.18.62-.5,1.07.07,1.6.22.25.07.67.13.79,0,.55-.6,1,0,1.52,0s1.35-.33,1.92.28c.08.1.38.09.53,0,1.75-.74,3.59-.14,5.37-.34.57.55,1.26-.24,1.67,0,.74.51,1.3.06,1.94,0a7.14,7.14,0,0,1,2.89.37,6.32,6.32,0,0,0,1.63,0h1.63c.54,0,1.09,0,1.63,0a7.68,7.68,0,0,1,1.36.19,2.81,2.81,0,0,0,1.23-.17,5.85,5.85,0,0,1,1.82,0,3.47,3.47,0,0,1,1.39.57c.46.33.89-.72,1.28,0,.64-.14,1.44,0,1.79-.67a1.67,1.67,0,0,0,.08-1.44,2.31,2.31,0,0,1-.25-1.33,7.38,7.38,0,0,1,0-1.41c.08-.49.34-1,.38-1.46.06-.87-.26-1.89.09-2.59s-.7-1.62.33-2.18a.49.49,0,0,0-.07-.35C195.44,34.15,195.84,33.37,195.8,32.67Z"/></g><g id="レイヤー_2" data-name="レイヤー 2"><g id="ooOt40"><path class="cls-1" d="M109.85,22.35c-2.4-.35-2.4-.63-2.4-.92a.8.8,0,0,1,.81-.86c.51,0,1,0,1.64,0-.15-1.14-1.58-2.08-.18-3.2l-1.47-.68.36-1.58c.18.06.46.2.5.15a2.34,2.34,0,0,1,2.5-1.17l-.21,1.23s.06.06.16.07a2.26,2.26,0,0,0,.52,0l1.86-.1c-.48-.88.79-1.44.42-2.3,0-.07.07-.2.08-.23,1.68.16,1.26,1.47,1.3,2.63.53,0,1,0,1.54,0a.86.86,0,0,1,.87,1,1,1,0,0,1-1.18.77,9.52,9.52,0,0,0-1.2,0c0,.45-.34.88.47,1,1.19.25,1.4.86.88,1.87a7.44,7.44,0,0,0,1.34.49c.43.08.42.33.37.6a.79.79,0,0,1-.33.45c-.27.16-.6.22-.87.37s-.81.42-.82.65c0,.69.59.23.89.38s.43.22.43.33c0,.91,1,1.5.74,2.48,0,.16.3.45.51.62a1.24,1.24,0,0,1,.17,1.88c-.21.21-1-.33-.74.58.09.36-.31.83-.23,1.2s.3.45,0,.6-.76.31-.91.18c-.4-.34-1-.63-.87-1.35a4.71,4.71,0,0,0,0-.84c-.68-.57-1.38,0-2,0a4.18,4.18,0,0,1-2.08,0c-.3-.13-.34,0-.51.11a2.27,2.27,0,0,0-.67.49c-.12.33-.26.65-.36.89a9,9,0,0,1-2.54-1.7l-.79,1.06a8.69,8.69,0,0,1-2.18-1c-.5-.43-.65-1.25-1.49-1.42-.35.81,0,1.67-.42,2.47a6.54,6.54,0,0,1-.66,1.1c-.27.31-.5.37-.84.06s-.8-.17-.64-.75c0-.17,0-.36,0-.52.19-.59,1.13-1,.35-1.81l.8-1.88c-1.28-.07-1.9.77-2.68,1.3-.89-.85-.7-2.14-1.17-3.18-.09-.19.55-.5.16-.81s.23-.49.14-.81,0-.9-.19-1.3.29-.73.19-1.17-.14-1,.07-1.14c.56-.46-.42-.67-.08-1a1.29,1.29,0,0,0,.34-1.07c0-.62.37-.89,1-.87a4.92,4.92,0,0,1,1.54,0c.64.25,1-.78,1.7-.18.42.36,1.15.12,1.69.47.2.13.56,0,.9,0,.06.44,0,1,.22,1.27.5.45-.07.75,0,1.11a7.7,7.7,0,0,0,.24,1.45,3,3,0,0,1,.34,1.25c0,.38-.22.88,2.73,1.19,1.58-.06,1.08-.07.59-.06s-1.15-.13-1.49.12c-.58.43-.88-.57-1.32-.11a1.09,1.09,0,0,0-.37.65,2.21,2.21,0,0,1-1.44,2.11c-.16.05-.44.23-.42.33.07.64.29.11.47.06a2.38,2.38,0,0,1,.19.34A3.25,3.25,0,0,0,107.17,27c.72.45,1.18.28,1.71-.43a1.82,1.82,0,0,0,.28-1.27,2.37,2.37,0,0,1,1.37-2.16C111,22.92,111.46,22.7,109.85,22.35Zm-4.68-1.58a4.81,4.81,0,0,0-.51-.2,1.71,1.71,0,0,0-.32,0c.08.12.14.3.24.33s.28-.05.16-.33c-.79-.28-1.35-.7-1.66-.56-.53.25-.88.34-1.32-.09a.52.52,0,0,0-.43.06,2.34,2.34,0,0,0,0,.79c0,.07.41.16.41.14.25-.56.77.12,1.17-.29C103.11,20.36,103.83,20.56,105.17,20.77Zm.25,1.86c-.52,0-1,0-1.4,0a10.73,10.73,0,0,1-1.11.19,6.68,6.68,0,0,1-1.16-.19.33.33,0,0,0-.17,0,1.07,1.07,0,0,0-.65,1.13c.07.53.38-.19.5-.05.69.83,1.56.32,2.32.26A1.56,1.56,0,0,0,105.42,22.63Zm-4.52-4.2c.52,0,.84.07.89,0,.41-.7,1.08.33,1.52-.25,0-.08.41,0,.61.09.71.21.71.21.71-.81-.42,0-1-.07-1.24.16-.45.39-.7-.55-1.12,0A5.72,5.72,0,0,1,100.9,18.43Zm13.16,2.05-.18-.9c-.25.19-.41.18-.75,0s-1-.05-1.54-.05C112.12,20.64,113,20.69,114.06,20.48Zm-.13,4.05c.53.1.84.61,1.41.21.15-.11.57.18.88.26,0,0,.15-.1.2-.18s0-.12,0-.16a1.51,1.51,0,0,0-1.32-.52C114.74,24.25,114.39,24.38,113.93,24.53Zm-2.29-7.3c0,.08.06.19.13.22a7.43,7.43,0,0,0,.69.35c.05-.14.18-.3.15-.43-.07-.41-.42-.22-.67-.25C111.85,17.11,111.75,17.19,111.64,17.23Zm.64,9.37c-.11-.1-.15-.17-.19-.16l-.79.11s0,.11,0,.11c.27.05.53.08.8.11C112.14,26.77,112.19,26.7,112.28,26.6Zm1.33-9-.12-.12a1.2,1.2,0,0,0-.11.23s.07.08.11.11Zm3.11,2.52-.12-.23s-.12.09-.11.12a1.2,1.2,0,0,0,.11.23Z"/><path class="cls-1" d="M67.81,23c-1.17,0-2.14,0-3.1,0a1.42,1.42,0,0,0-1.46,1.46c0,.28-.12.65,0,.84.27.39.06.8.18,1.2A1.12,1.12,0,0,1,62.86,28a.83.83,0,0,1-.79-.2c-.26-.38-.64-1-.5-1.28.3-.53-.06-.87,0-1.3s0-.91,0-1.37c.11-1.62.21-3.24.36-4.85a1.56,1.56,0,0,1,.5-.81,2.56,2.56,0,0,1,.73-.32c.91,1.68.91,1.68.49,2.9a11.09,11.09,0,0,1,1.4.37c.42.17.24-.16.33-.28a.31.31,0,0,1,.28-.15,4.69,4.69,0,0,0,.6.2,15.71,15.71,0,0,1,2.06,0,2.82,2.82,0,0,0,1.63,0c.57-.21,1.13.27,1.54.74.09.1.11.39,0,.44-.39.3-.58.77-1.19.88-.9.16-1,.38-.66,1.27.17.42-.16.43-.17.64a13.33,13.33,0,0,1,0,1.55c0,.43.53.79.1,1.23.45.46.33.85,0,1.33-.1.12.19.56.31.86s-.64.45-.08.79c.07,0,.07.4,0,.43s-.5.21-.62.12c-.38-.29-.94-.62-1-1a2,2,0,0,0-.64-1.47.61.61,0,0,1-.07-.44c.76-.33-.12-.85.16-1.21a.79.79,0,0,0-.17-1.18C68.1,25.07,67.54,24.07,67.81,23Z"/><path class="cls-1" d="M133.5,29a9.18,9.18,0,0,1-2.94-.52c-.57-.34-1.42-.69-1.66-1.37s-1.19-.44-1.17-1.21c0,0-.36-.15-.43-.08-.42.38-1.12.78-1.15,1.21-.06,1.06-.93,1.37-1.43,2-.28.36-.67.3-1,0a.82.82,0,0,1-.31-1.05,10.51,10.51,0,0,1,1.08-1.79c.49-.67,1-1.29,1.57-1.93s1-1.1.44-2c-.16-.23.06-.7,0-1s-.14-1.1-.81-.41a6.16,6.16,0,0,0-2.09-.35c-.17,0-.42-.47-.52-.77-.16-.47.24-.7.57-.91.12-.07.36,0,.5,0,.55-.23,1,.39,1.64.06a5.16,5.16,0,0,1,2-.05,3.66,3.66,0,0,1,.42,1.43c-.07.52.9.95.09,1.46l.64,1.07c-.53.37-.33.69,0,1.1a2.92,2.92,0,0,1,.52,1.15,1.32,1.32,0,0,0,1.11,1,5,5,0,0,1,2.58,1.67A4.43,4.43,0,0,1,133.5,29Z"/><path class="cls-1" d="M83.27,23A2.45,2.45,0,0,1,82.44,25c-.27.27-.35.45.11.74s.71,1,1.19,1.24A7,7,0,0,1,85,28a.75.75,0,0,1,.22,1c-.17.28-.4.74-.94.33s-1.32-.76-1.88-1.25a1.57,1.57,0,0,0-1.08-.34c-.35,0-.53.08-.51.47.05.79-.88,1.27-.7,2.13,0,0-.32.2-.42.16a1.57,1.57,0,0,1-.88-1.94,5.34,5.34,0,0,1,.77-2.07c.55-.6.39-1.54,1.16-2,.1-.06,0-.35.14-.45A.77.77,0,0,0,81,23a.8.8,0,0,0-1.18-.17,1.58,1.58,0,0,1-1.73,0,.54.54,0,0,0-.73,0c-.13.1-.5.12-.55,0s-.18-.51-.08-.62a3.44,3.44,0,0,1,1.09-1c.46-.21,1.2-.47,1.5-.26.59.41.91-.58,1.32-.1s1.06.24,1.59.34A1.6,1.6,0,0,1,83.27,23Z"/><path class="cls-1" d="M96,26c-.52.38-1.25-.21-1.75.35,0,0-.25-.08-.35-.16-1-.83-2.46-.35-3.53-1.07-.17-.12-.57.64-.46.89s1,.42.29,1c.64.31-.08.6,0,.92a2.55,2.55,0,0,1,0,1,.83.83,0,0,1-.86.63c-.49,0-.87-.32-.81-.67.16-1-.44-1.84-.38-2.78a5.6,5.6,0,0,0-.35-2.44c-.12-.32-.34-.57,0-.94.14-.17.07-.57,0-.84s-.4-.76-.3-.87c.53-.58,0-1.47.65-2-.2-1,.51-.07.77-.35s.43.24.62.45c0,0,0,.11,0,.16a4.15,4.15,0,0,0,0,1.54,1.87,1.87,0,0,1,0,1.28.8.8,0,0,0,.69,1.06c.44.11,1,.51,1.28.37.68-.33.65.54,1,.46a2,2,0,0,1,1.27,0c.34.14.71.11,1.09.3C95.81,24.77,95.91,24.77,96,26Z"/><path class="cls-1" d="M72.08,16.48a28.43,28.43,0,0,0,.66,3c.17.51.35,1.11,0,1.35s-.91-.11-1.35-.3a.89.89,0,0,1-.5-.61c0-1-.57-1.92-.39-2.95.12-.66.21-.75,1-.56a2,2,0,0,0,.35,0Z"/><path class="cls-1" d="M73,16.15c0-.14,0-.37.11-.4a1.35,1.35,0,0,1,.8-.16,2.59,2.59,0,0,1,1.36,1.62c.13.35,0,.71.29,1.1s-.34.75-.64,1a.81.81,0,0,1-.76-.16c-.32-.66-1.12-1.09-1-2a5.56,5.56,0,0,0,0-1Z"/></g></g></svg>