<svg xmlns="http://www.w3.org/2000/svg" viewBox="0 0 196.51 45.65"><defs><style>.cls-1{fill:#fff;}</style></defs><g id="レイヤー_1" data-name="レイヤー 1"><path d="M195.59,40.14c.22-.28,0-.79,0-1.19s.24-.73.3-1.1c.08-.52.32-1.14.1-1.55a7.61,7.61,0,0,1-.45-1.66c-.16-.5.66-.75.16-1.36-.32-.4-.05-1.16-.13-1.76-.06-.37.87-.72,0-1.08.73-.23-.08-.7.2-1s-.73-.95.18-1.45c.4-.22-.7-.95.07-1.43-.19-1,.4-2-.33-2.91a.68.68,0,0,1-.07-.54,6.1,6.1,0,0,0,0-4c.53-.38-.16-.8,0-1,.3-.49-.09-1.08,0-1.27.51-.76.09-1.64.45-2.27.51-.87-.11-1.56-.07-2.32,0-.61-.23-1.34.06-1.8.43-.67-.11-1.15-.07-1.71a8.76,8.76,0,0,0,0-2.23,7,7,0,0,1-.18-1.83c0-.61-.68-1.27.18-1.81-.74-.41-.2-1.14-.5-1.63-.2-.31-.64-.86-1.05-.54-1.14.9-2.45-.26-3.56.37-.33-.62-1.17.28-1.48-.4-.6.72-1.24.4-1.88,0-1.4.74-2.93.19-4.39.34-.6.06-1.43-.21-1.77.05-.64.51-1-.23-1.48,0a3.49,3.49,0,0,1-2.83,0c-.14-.05-.39.11-.59.16s-.66.24-.75.15c-.65-.59-1.43-.27-2.14-.31-1.06-.05-2.13.06-3.19,0a5.77,5.77,0,0,0-3,.19c-.24.09-.63.24-.76.15-.87-.65-1.88-.2-2.82-.31-.58-.07-1.3.1-1.75-.14a1.52,1.52,0,0,0-1.59,0c-.42.19-.92-.63-1.44,0A1.16,1.16,0,0,1,158,1a2,2,0,0,0-2.21,0,1.75,1.75,0,0,1-1.47,0c-.58-.42-1.15-.25-1.71-.27a32.31,32.31,0,0,0-3.41,0c-.41,0-.44-.53-1.09-.21-1.47.75-3.13-.06-4.74,0-1.8.08-1.81-.25-3.53.11-.38.08-1,0-1.19-.21-.48-.65-1.14-.06-1.37-.19-.7-.4-1-.09-1.4.27-.14.13-.51.11-.75.07s-.81-.36-1-.25a3.82,3.82,0,0,1-2.34.36c-.71,0-1.42-.4-2.13,0-1-.59-2.33.57-3.3-.4-.94.92-1.87,0-2.81,0-.43,0-.85.13-1.28.18-.65.08-1.3.13-1.94.23s-1.4.27-2.09.39a.57.57,0,0,1-.41-.09c-.28-.24-.67-.54-.92-.18-.39.58-.61-.23-1,0a4.39,4.39,0,0,1-3,.19c-2-.33-2-.4-3.75.07a4.46,4.46,0,0,1-2.06.35c-.72-.2-1.15.73-2,.12-.44-.32-2,.67-2,1.17a10.35,10.35,0,0,1-.44,2.87,1.75,1.75,0,0,0,.36,1.83c-.64.51-.61,1,0,1.53-1,.38.19,1-.23,1.58s-.16,1.15-.17,1.74a6.8,6.8,0,0,1-.42,1.94c1.16.72-.53,1.38,0,2.08-.54.42-.24,1-.15,1.42s-.57.78.15,1c-.76.51-.32,1.24-.45,1.86s-.35,1.37-.44,2.06a6.17,6.17,0,0,0,0,1.82c.11.58-.67,1.07-.14,1.65-.69.55.31.93.2,1.54a9.52,9.52,0,0,0-.31,2.61c0,.37.22,1,.08,1.07-1,.44.37.95-.14,1.49a1.1,1.1,0,0,0,.18,1.62.47.47,0,0,1,0,.52c-.68.56-.3,1.27-.36,1.9-.18,2,.34,3.93-.34,5.86.75.39-.31.57-.13.93s.27.85.48,1.23c.1.18.41.25.63.37.56-.86,1.11-.15,1.67,0,.29.08.79.26.83.2.47-.74,1.2.67,1.61-.18.67.08,1.45.39,2,.19a4.59,4.59,0,0,1,2-.18c1,0,2.06-.32,3,.33,2.41-.82,4.91-.15,7.35-.34a5.2,5.2,0,0,1,1.93.23c.53.18.35-.12.48-.29s.41-.24.63-.36c.4,1,1.45-.36,1.93.41a16,16,0,0,1,2.55-.38c.92,0,1.91.48,2.74.29.54-.12.84.08,1.24.07s1.17-.32,1.28-.19c.54.69,1-.34,1.47,0a1.08,1.08,0,0,0,1.55-.19c.28.6.76,0,1.13.15,1,.48,2,.17,3.05.18.25-.66.94.37,1.36-.3.15-.23,1.15,0,1.74-.07s.85.57,1.49.07a2.27,2.27,0,0,1,1.76,0,10,10,0,0,0,3.47.38c1.68.1,3.41-.31,5.06.38a2.28,2.28,0,0,0,1.09-.06,7.68,7.68,0,0,1,1.21-.31c2,0,3.95-.1,5.92,0s3.88-.47,5.73.37a.41.41,0,0,0,.38-.12c.47-.71,1,.18,1.43-.05a1.2,1.2,0,0,1,1.58.1.65.65,0,0,0,.58,0c.4-.49,1-.28,1.46-.31,1.81-.12,3.66.27,5.44-.29.5.53,1.27-.62,1.83.26.12.2,1.12.2,1.51,0a5.28,5.28,0,0,1,3.24-.33c1.26.14,2.48-.77,3.72,0,.38-1,1.15.07,1.8-.25a4.86,4.86,0,0,1,2.42-.13,2.44,2.44,0,0,0,2.39-1.11C195.32,42.48,194.53,41.55,195.59,40.14Z"/><path d="M1.06,40.14c-.25-.28,0-.79-.06-1.19s-.27-.73-.34-1.1C.57,37.33.29,36.71.55,36.3a7.33,7.33,0,0,0,.51-1.66c.18-.5-.76-.75-.19-1.36.38-.4.06-1.16.16-1.76.06-.37-1-.72,0-1.08-.84-.23.09-.7-.22-1S1.61,28.48.56,28c-.46-.22.81-.95-.07-1.43.21-1-.47-2,.38-2.91A.64.64,0,0,0,1,23.1a5.36,5.36,0,0,1,0-4c-.61-.38.19-.8,0-1-.34-.49.11-1.08,0-1.27-.58-.76-.1-1.64-.51-2.27-.58-.87.13-1.56.08-2.32,0-.61.26-1.34-.08-1.8-.49-.67.14-1.15.09-1.71a7.25,7.25,0,0,1,0-2.23A6,6,0,0,0,.73,4.67c0-.61.78-1.27-.21-1.81.85-.41.23-1.14.58-1.63C1.32.92,1.83.37,2.3.69c1.31.9,2.82-.26,4.09.37.38-.62,1.34.28,1.69-.4.7.72,1.43.4,2.16,0,1.61.74,3.36.19,5,.34.69.06,1.64-.21,2,.05.74.51,1.2-.23,1.71,0a4.52,4.52,0,0,0,3.24,0c.17-.05.45.11.68.16s.76.24.86.15c.74-.59,1.64-.27,2.46-.31,1.21-.05,2.45.06,3.65,0a7.6,7.6,0,0,1,3.49.19c.28.09.73.24.87.15,1-.65,2.16-.2,3.23-.31a7.47,7.47,0,0,0,2-.14,2,2,0,0,1,1.83,0c.48.19,1.06-.63,1.66,0A1.51,1.51,0,0,0,44.17,1a2.61,2.61,0,0,1,2.54,0,2.26,2.26,0,0,0,1.68,0,3.38,3.38,0,0,1,2-.27c1.31,0,2.62-.07,3.92,0,.47,0,.5-.53,1.24-.21,1.7.75,3.6-.06,5.45,0C63,.56,63,.23,65,.59A1.94,1.94,0,0,0,66.38.38C66.92-.27,67.69.32,68,.19c.8-.4,1.12-.09,1.6.27a1.45,1.45,0,0,0,.87.07c.4-.05.93-.36,1.13-.25a4.93,4.93,0,0,0,2.68.36c.82,0,1.63-.4,2.44,0,1.18-.59,2.68.57,3.79-.4,1.08.92,2.15,0,3.23,0,.49,0,1,.13,1.47.18.74.08,1.49.13,2.23.23s1.6.27,2.4.39A.71.71,0,0,0,90.25,1c.32-.24.77-.54,1-.18.46.58.71-.23,1.17,0A5.71,5.71,0,0,0,95.94,1c2.33-.33,2.3-.4,4.31.07a5.8,5.8,0,0,0,2.36.35c.83-.2,1.33.73,2.27.12.5-.32,2.26.67,2.24,1.17a8.85,8.85,0,0,0,.51,2.87,1.6,1.6,0,0,1-.42,1.83c.73.51.7,1,0,1.53,1.17.38-.21,1,.27,1.58s.19,1.15.19,1.74a6.57,6.57,0,0,0,.48,1.94c-1.32.72.61,1.38.07,2.08.61.42.27,1,.17,1.42s.65.78-.17,1c.87.51.37,1.24.51,1.86s.41,1.37.5,2.06a5.06,5.06,0,0,1,0,1.82c-.12.58.77,1.07.17,1.65.79.55-.36.93-.24,1.54a8,8,0,0,1,.36,2.61c0,.37-.25,1-.09,1.07,1.11.44-.42.95.16,1.49a1,1,0,0,1-.21,1.62.44.44,0,0,0,0,.52c.79.56.35,1.27.41,1.9.21,2-.38,3.93.4,5.86-.87.39.35.57.15.93s-.31.85-.56,1.23c-.11.18-.47.25-.72.37-.64-.86-1.28-.15-1.92,0a3.68,3.68,0,0,1-1,.2c-.54-.74-1.38.67-1.85-.18a6.54,6.54,0,0,1-2.27.19,6,6,0,0,0-2.25-.18c-1.14,0-2.37-.32-3.41.33-2.77-.82-5.63-.15-8.44-.34a6.85,6.85,0,0,0-2.22.23c-.6.18-.39-.12-.54-.29a2.42,2.42,0,0,0-.72-.36c-.46,1-1.68-.36-2.23.41a20.71,20.71,0,0,0-2.91-.38c-1.07,0-2.2.48-3.16.29a5.74,5.74,0,0,0-1.42.07c-.51,0-1.34-.32-1.47-.19-.62.69-1.14-.34-1.69,0a1.37,1.37,0,0,1-1.78-.19c-.32.6-.87,0-1.29.15-1.13.48-2.33.17-3.5.18-.29-.66-1.08.37-1.57-.3-.17-.23-1.31,0-2-.07s-1,.57-1.71.07a3,3,0,0,0-2,0,13.07,13.07,0,0,1-4,.38c-1.94.1-3.92-.31-5.81.38a3,3,0,0,1-1.25-.06,10.23,10.23,0,0,0-1.39-.31c-2.27,0-4.54-.1-6.79,0s-4.46-.47-6.59.37a.54.54,0,0,1-.44-.12c-.53-.71-1.15.18-1.63-.05a1.53,1.53,0,0,0-1.81.1.86.86,0,0,1-.67,0c-.46-.49-1.1-.28-1.68-.31-2.08-.12-4.2.27-6.25-.29-.57.53-1.46-.62-2.09.26a2.48,2.48,0,0,1-1.73,0,6.94,6.94,0,0,0-3.73-.33c-1.45.14-2.85-.77-4.27,0-.44-1-1.32.07-2.06-.25a6.38,6.38,0,0,0-2.78-.13A3,3,0,0,1,0,43.32C1.37,42.48,2.28,41.55,1.06,40.14Z"/></g><g id="レイヤー_2" data-name="レイヤー 2"><path class="cls-1" d="M73.17,25c-.08-.35-.16-.74-.26-1.13a2.9,2.9,0,0,1-.16-.47c0-.54,0-1.08,0-1.62s-.8-.88,0-1.33c-.7-.56-.19-1.11,0-1.69s-.28-1.31.3-1.86c.07-.07.11-.28.06-.32-.51-.49-.07-1,.15-1.25a2.6,2.6,0,0,1,1.41-.46,5.44,5.44,0,0,1,1.8,0c.59.12,1.06-.49,1.72-.07.43.28,1.18-.21,1.63.39.86-.61,1.71.21,2.6.07.44-.07,1.07.4,1.43.79s.65.79.11,1.26c.77,1,0,2.31.59,3.37,0,.08-.12.25-.12.37,0,.81,0,1.62,0,2.42,0,.21.2.57.15.6-.73.42.1,1-.23,1.62-.23.39-1.09.16-.8.89a7.19,7.19,0,0,1-1.73.39,6,6,0,0,1-1.59-.47c-.05,0-.11-.12-.14-.11-.92.31-1.85.72-2.8.06-.82.3-1.65.57-2.46.91-.32.13-.48.19-.69-.17a6.61,6.61,0,0,0-1-1.22C72.9,25.7,72.71,25.45,73.17,25ZM75,24.62a17.81,17.81,0,0,1,2.93,0c2.33.4,2.31.4,4,0,.51-.12.47-.31.56-.67s-.48-.79-.16-1.2-.25-1.11,0-1.33c.53-.58-.2-.82-.18-1.23a16.6,16.6,0,0,0,0-2.34c0-.44-.2-1.07-.91-.51A3.21,3.21,0,0,0,78.39,17c-.16.06-.41-.14-.63-.2a3.3,3.3,0,0,0-2.5.19c-.71.36-.12,1-.42,1.36,0,.05-.11.08-.13.13a18.14,18.14,0,0,0-.18,2.33A16.52,16.52,0,0,0,75,24.62Z"/><path class="cls-1" d="M93.59,27.93a18.7,18.7,0,0,1,.73-3.31c.22-.51-.32-.67-.14-1a4.54,4.54,0,0,0,.49-.88,8.13,8.13,0,0,0,.12-1.22A1.38,1.38,0,0,1,95,21a5.82,5.82,0,0,0,.48-3.61c-.67-.17-1.38-.35-2.07-.55-.5-.15-.88.34-1.36.24.27.65-1.14.74-.51,1.51-.49.3.3,1.07-.46,1.29,0,0-.09.29,0,.36.25.27.28.54,0,.74-.52.36-.49.87-.54,1.41A3.3,3.3,0,0,1,90,23.48a6.35,6.35,0,0,1-1.6-.77c0-.57-.14-1.35.17-1.65a2.69,2.69,0,0,0,.66-1.55c.25-1.34,1-2.49,1.28-3.8.17-.78.3-.8,1.17-.56a3.18,3.18,0,0,0,.87.09c2.22,0,2.66-.35,4.32,1.06.2.16.46.13.51.51.15,1.09-.43,2.26.33,3.28-.24.62-.31,1.49-.77,1.79-.74.5.22,1-.21,1.48A2.36,2.36,0,0,0,96.2,25a6.1,6.1,0,0,1-.34,1.83C95.67,27.42,95.21,27.65,93.59,27.93Z"/><path class="cls-1" d="M108.88,26.25a6.78,6.78,0,0,1-1,.53c-.45.14-1.06-.16-1-.45.18-1-.73-1.53-.87-2.38a14.37,14.37,0,0,1-.36-1.47,5.67,5.67,0,0,0-.48-1.42,7.51,7.51,0,0,1-1.26,1.47c-.29.21-.57.82-1.24.4-.84-.53-1-.57-.8-.77s0-.89.71-.83c.16,0,.6-.68.53-.95-.22-.84.93-.76.85-1.44,1.53-.59,2.07-2,2.77-3.31.26-.47.37-.43.75-.23s1-.44,1.39.3c.18.34.29,1,0,1.25a1.73,1.73,0,0,1-.74.37c-.49.08-.68.31-.62.81,0,.11-.17.34-.27.34-.43,0-.6.37-.4.55.51.47.33,1,.3,1.5a3.2,3.2,0,0,0,.39,1.65c.07.15.3.29.29.41C107.52,24,108.68,25,108.88,26.25Z"/><path class="cls-1" d="M122.58,22.82a1.39,1.39,0,0,1-1,1.76,6.84,6.84,0,0,0-1.67.76c-.38.22-1,0-1.2.23-.44.41-1,.35-1.41.54a20.33,20.33,0,0,1-2.43,1.07c-.26.07-.5.24-.76.33a1,1,0,0,1-1.18-.56,1,1,0,0,1,.34-1.1,2.07,2.07,0,0,1,2-.87c.35.07.58,0,.56-.45,0-.09.13-.26.19-.25a6.25,6.25,0,0,0,2.6-.66c.81-.3,1.71-.44,2.55-.77A4.5,4.5,0,0,1,122.58,22.82Z"/><path class="cls-1" d="M116.85,21.69c-1.6.09-1.31-1.4-2.11-1.86.11-.83-.66-1.17-1-1.75-.22-.43-1.06-1-.19-1.58-.13-.89.62-.59.88-.5a1.49,1.49,0,0,1,.87.85c.24,1.2,1.29,1.83,1.82,2.82s.56.91-.05,1.62A2,2,0,0,0,116.85,21.69Z"/><path class="cls-1" d="M98.49,16.94c-.66-.8-.31-2.1-1.14-3-.22-.23-.09-.79.34-1.07a.85.85,0,0,1,1.1,0,3.5,3.5,0,0,1,1,2.25,6.36,6.36,0,0,1,0,1.38Z"/><path class="cls-1" d="M101,16.35c0-.6.09-1.3-.19-1.69s.68-1.12-.24-1.4c.22-.3.38-.74.67-.87s.77-.16.84.52c0,.38.66.55.68,1.14C102.8,15.39,102.78,15.49,101,16.35Z"/><path class="cls-1" d="M113.42,16l-.17-.21c.08,0,.2-.08.22-.06a.81.81,0,0,1,.11.27Z"/></g></svg>