<svg xmlns="http://www.w3.org/2000/svg" viewBox="0 0 249.88 45.65"><defs><style>.cls-1{fill:#fff;}</style></defs><g id="レイヤー_1" data-name="レイヤー 1"><path d="M248.71,40.14c.27-.28,0-.79.07-1.19s.29-.73.37-1.1c.1-.52.41-1.14.13-1.55a6.29,6.29,0,0,1-.57-1.66c-.2-.5.84-.75.21-1.36-.42-.4-.07-1.16-.18-1.76-.07-.37,1.11-.72,0-1.08.92-.23-.1-.7.24-1s-.92-.95.24-1.45c.51-.22-.89-.95.08-1.43-.23-1,.52-2-.42-2.91a.58.58,0,0,1-.09-.54c.56-1.92.57-1.92,0-4,.68-.38-.21-.8,0-1,.39-.49-.12-1.08,0-1.27.64-.76.11-1.64.57-2.27.65-.87-.14-1.56-.09-2.32,0-.61-.29-1.34.08-1.8.55-.67-.15-1.15-.09-1.71a6.68,6.68,0,0,0,0-2.23,5.67,5.67,0,0,1-.22-1.83c0-.61-.87-1.27.23-1.81-.94-.41-.25-1.14-.64-1.63-.25-.31-.82-.86-1.33-.54-1.45.9-3.12-.26-4.53.37-.42-.62-1.49.28-1.88-.4-.77.72-1.58.4-2.39,0-1.78.74-3.72.19-5.58.34-.76.06-1.82-.21-2.26.05-.82.51-1.32-.23-1.88,0a5.52,5.52,0,0,1-3.59,0c-.19-.05-.5.11-.76.16s-.84.24-.95.15c-.82-.59-1.82-.27-2.72-.31-1.35-.05-2.71.06-4.05,0a9.26,9.26,0,0,0-3.86.19c-.31.09-.81.24-1,.15-1.12-.65-2.4-.2-3.59-.31a9.27,9.27,0,0,1-2.23-.14,2.38,2.38,0,0,0-2,0c-.53.19-1.17-.63-1.84,0A1.82,1.82,0,0,1,201,1a3.16,3.16,0,0,0-2.81,0,2.78,2.78,0,0,1-1.87,0,4.1,4.1,0,0,0-2.17-.27c-1.45,0-2.91-.07-4.34,0-.52,0-.56-.53-1.38-.21-1.88.75-4-.06-6,0-2.29.08-2.31-.25-4.5.11a2.36,2.36,0,0,1-1.51-.21c-.6-.65-1.44-.06-1.74-.19a1.47,1.47,0,0,0-1.77.27,1.75,1.75,0,0,1-1,.07c-.44-.05-1-.36-1.25-.25a6,6,0,0,1-3,.36c-.91,0-1.81-.4-2.71,0-1.31-.59-3,.57-4.2-.4-1.19.92-2.38,0-3.57,0-.54,0-1.08.13-1.63.18-.82.08-1.65.13-2.47.23s-1.77.27-2.66.39a.85.85,0,0,1-.51-.09c-.36-.24-.85-.54-1.17-.18-.5.58-.78-.23-1.28,0A7,7,0,0,1,143.6,1c-2.57-.33-2.54-.4-4.76.07a7.11,7.11,0,0,1-2.63.35c-.91-.2-1.46.73-2.51.12-.55-.32-2.5.67-2.47,1.17a8.19,8.19,0,0,1-.57,2.87,1.49,1.49,0,0,0,.47,1.83c-.81.51-.78,1,0,1.53-1.29.38.24,1-.29,1.58s-.21,1.15-.22,1.74a5.61,5.61,0,0,1-.53,1.94c1.47.72-.68,1.38-.07,2.08-.68.42-.3,1-.19,1.42s-.72.78.19,1c-1,.51-.41,1.24-.57,1.86s-.45,1.37-.56,2.06a5.06,5.06,0,0,0,0,1.82c.14.58-.84,1.07-.18,1.65-.88.55.4.93.26,1.54a7.74,7.74,0,0,0-.4,2.61c.06.37.29,1,.11,1.07-1.23.44.46.95-.18,1.49a1,1,0,0,0,.23,1.62.4.4,0,0,1,0,.52c-.87.56-.39,1.27-.46,1.9-.23,2,.43,3.93-.44,5.86,1,.39-.39.57-.17.93s.35.85.62,1.23c.12.18.53.25.8.37.71-.86,1.42-.15,2.13,0a4.55,4.55,0,0,0,1.05.2c.59-.74,1.53.67,2.05-.18a8,8,0,0,0,2.52.19,7.34,7.34,0,0,1,2.49-.18c1.26,0,2.62-.32,3.78.33,3.06-.82,6.23-.15,9.34-.34a8.4,8.4,0,0,1,2.46.23c.66.18.43-.12.6-.29a2.71,2.71,0,0,1,.8-.36c.51,1,1.85-.36,2.46.41a25.54,25.54,0,0,1,3.24-.38c1.17,0,2.43.48,3.49.29a7,7,0,0,1,1.57.07c.57,0,1.49-.32,1.63-.19.69.69,1.26-.34,1.87,0a1.63,1.63,0,0,0,2-.19c.36.6,1,0,1.44.15,1.24.48,2.58.17,3.88.18.31-.66,1.19.37,1.73-.3.19-.23,1.45,0,2.21-.07s1.08.57,1.89.07a3.62,3.62,0,0,1,2.24,0,16,16,0,0,0,4.41.38c2.14.1,4.34-.31,6.43.38a3.69,3.69,0,0,0,1.39-.06,12,12,0,0,1,1.54-.31c2.51,0,5-.1,7.52,0s4.94-.47,7.3.37a.62.62,0,0,0,.48-.12c.59-.71,1.28.18,1.81-.05a1.85,1.85,0,0,1,2,.1,1,1,0,0,0,.74,0c.51-.49,1.22-.28,1.85-.31,2.31-.12,4.66.27,6.93-.29.63.53,1.62-.62,2.32.26a3,3,0,0,0,1.92,0,8.41,8.41,0,0,1,4.12-.33c1.61.14,3.16-.77,4.74,0,.48-1,1.45.07,2.28-.25a7.77,7.77,0,0,1,3.07-.13,3.47,3.47,0,0,0,3-1.11C248.37,42.48,247.36,41.55,248.71,40.14Z"/><path d="M1.34,40.14c-.31-.28,0-.79-.07-1.19s-.34-.73-.43-1.1C.72,37.33.37,36.71.7,36.3s.39-1.12.65-1.66-1-.75-.24-1.36c.48-.4.08-1.16.2-1.76.08-.37-1.27-.72,0-1.08-1.06-.23.12-.7-.28-1C.44,29,2,28.48.71,28c-.58-.22,1-.95-.09-1.43.27-1-.59-2,.48-2.91a.49.49,0,0,0,.1-.54c-.64-1.92-.64-1.92,0-4-.78-.38.24-.8,0-1-.44-.49.14-1.08,0-1.27-.74-.76-.13-1.64-.66-2.27-.74-.87.16-1.56.1-2.32-.05-.61.34-1.34-.09-1.8-.63-.67.17-1.15.1-1.71a5.77,5.77,0,0,1,0-2.23A5.2,5.2,0,0,0,.93,4.67c-.06-.61,1-1.27-.27-1.81,1.08-.41.29-1.14.74-1.63C1.68.92,2.33.37,2.92.69c1.66.9,3.59-.26,5.2.37.49-.62,1.71.28,2.16-.4.88.72,1.81.4,2.74,0,2.05.74,4.28.19,6.41.34.87.06,2.09-.21,2.59.05.94.51,1.52-.23,2.16,0a7.22,7.22,0,0,0,4.12,0,3.1,3.1,0,0,1,.87.16c.37.07,1,.24,1.1.15.94-.59,2.08-.27,3.12-.31C34.94,1,36.5,1.13,38,1a12.15,12.15,0,0,1,4.43.19,2.63,2.63,0,0,0,1.1.15c1.28-.65,2.75-.2,4.12-.31A12,12,0,0,0,50.24.93a3.13,3.13,0,0,1,2.33,0c.61.19,1.34-.63,2.11,0A2.37,2.37,0,0,0,56.16,1a4.12,4.12,0,0,1,3.23,0,3.61,3.61,0,0,0,2.14,0A5.39,5.39,0,0,1,64,.66c1.66,0,3.33-.07,5,0,.6,0,.64-.53,1.58-.21,2.16.75,4.58-.06,6.92,0,2.63.08,2.65-.25,5.16.11A3.09,3.09,0,0,0,84.41.38c.69-.65,1.66-.06,2-.19a1.88,1.88,0,0,1,2,.27,2.33,2.33,0,0,0,1.11.07C90.05.48,90.73.17,91,.28a7.85,7.85,0,0,0,3.41.36c1,0,2.07-.4,3.1,0,1.51-.59,3.41.57,4.83-.4,1.36.92,2.73,0,4.1,0,.62,0,1.24.13,1.87.18.94.08,1.89.13,2.83.23s2,.27,3,.39a1.1,1.1,0,0,0,.59-.09c.41-.24,1-.54,1.34-.18.58.58.9-.23,1.48,0A9.17,9.17,0,0,0,122,1c3-.33,2.93-.4,5.47.07a9.25,9.25,0,0,0,3,.35c1.06-.2,1.68.73,2.89.12.63-.32,2.87.67,2.84,1.17a7.47,7.47,0,0,0,.64,2.87,1.36,1.36,0,0,1-.52,1.83c.92.51.89,1,0,1.53,1.48.38-.28,1,.33,1.58s.25,1.15.25,1.74a5.35,5.35,0,0,0,.61,1.94c-1.68.72.78,1.38.08,2.08.79.42.35,1,.22,1.42s.83.78-.21,1c1.11.51.46,1.24.65,1.86s.51,1.37.64,2.06a4.29,4.29,0,0,1,0,1.82c-.15.58,1,1.07.21,1.65,1,.55-.45.93-.3,1.54a6.72,6.72,0,0,1,.46,2.61c-.06.37-.33,1-.12,1.07,1.41.44-.53.95.21,1.49.52.38.62,1.11-.27,1.62-.15.09-.17.44,0,.52,1,.56.44,1.27.53,1.9.26,2-.5,3.93.5,5.86-1.1.39.45.57.19.93s-.39.85-.71,1.23c-.14.18-.6.25-.91.37-.82-.86-1.63-.15-2.44,0a6.1,6.1,0,0,1-1.21.2c-.69-.74-1.76.67-2.36-.18a10.49,10.49,0,0,1-2.89.19,9.59,9.59,0,0,0-2.85-.18c-1.46,0-3-.32-4.34.33-3.52-.82-7.16-.15-10.73-.34a11,11,0,0,0-2.82.23c-.77.18-.5-.12-.69-.29a3.46,3.46,0,0,0-.92-.36c-.59,1-2.13-.36-2.83.41a33.07,33.07,0,0,0-3.71-.38c-1.35,0-2.8.48-4,.29A9.29,9.29,0,0,0,95,45.2c-.64,0-1.71-.32-1.86-.19-.8.69-1.45-.34-2.15,0a2.09,2.09,0,0,1-2.26-.19c-.41.6-1.11,0-1.65.15-1.43.48-3,.17-4.45.18-.37-.66-1.37.37-2-.3-.22-.23-1.67,0-2.54-.07-.72-.07-1.24.57-2.18.07a4.7,4.7,0,0,0-2.56,0,21,21,0,0,1-5.06.38c-2.46.1-5-.31-7.39.38a4.82,4.82,0,0,1-1.59-.06,16,16,0,0,0-1.77-.31c-2.88,0-5.77-.1-8.64,0s-5.66-.47-8.37.37a.82.82,0,0,1-.56-.12c-.67-.71-1.46.18-2.07-.05a2.39,2.39,0,0,0-2.31.1,1.37,1.37,0,0,1-.85,0c-.58-.49-1.4-.28-2.13-.31-2.64-.12-5.34.27-7.94-.29-.73.53-1.86-.62-2.67.26a4,4,0,0,1-2.2,0,11.06,11.06,0,0,0-4.74-.33c-1.84.14-3.62-.77-5.43,0-.55-1-1.67.07-2.62-.25a10.23,10.23,0,0,0-3.53-.13A4.34,4.34,0,0,1,0,43.32C1.74,42.48,2.9,41.55,1.34,40.14Z"/></g><g id="レイヤー_2" data-name="レイヤー 2"><path class="cls-1" d="M103.89,25c-.07-.35-.15-.74-.25-1.13a3,3,0,0,1-.17-.47c0-.54,0-1.08,0-1.62s-.79-.88,0-1.33c-.7-.56-.2-1.11,0-1.69s-.28-1.31.3-1.86c.07-.07.11-.28.07-.32a.83.83,0,0,1,.15-1.25,2.58,2.58,0,0,1,1.41-.46,5.44,5.44,0,0,1,1.8,0c.58.12,1.06-.49,1.71-.07.43.28,1.18-.21,1.63.39.87-.61,1.71.21,2.61.07.43-.07,1.07.4,1.42.79s.65.79.12,1.26c.76,1,0,2.31.59,3.37,0,.08-.12.25-.12.37,0,.81,0,1.62,0,2.42,0,.21.19.57.14.6-.73.42.11,1-.23,1.62-.23.39-1.09.16-.8.89a7.11,7.11,0,0,1-1.72.39,6,6,0,0,1-1.6-.47s-.1-.12-.13-.11c-.93.31-1.85.72-2.8.06-.82.3-1.66.57-2.46.91-.33.13-.48.19-.69-.17a6.67,6.67,0,0,0-1-1.22C103.63,25.7,103.43,25.45,103.89,25Zm1.82-.41a17.92,17.92,0,0,1,2.94,0c2.32.4,2.3.4,4,0,.5-.12.47-.31.56-.67s-.49-.79-.16-1.2-.25-1.11,0-1.33c.52-.58-.21-.82-.19-1.23a15.23,15.23,0,0,0,0-2.34c0-.44-.2-1.07-.91-.51a3.23,3.23,0,0,0-2.82-.35c-.15.06-.41-.14-.62-.2A3.33,3.33,0,0,0,106,17c-.71.36-.11,1-.42,1.36,0,.05-.11.08-.12.13a20.14,20.14,0,0,0-.19,2.33A17.1,17.1,0,0,0,105.71,24.62Z"/><path class="cls-1" d="M124.31,27.93a17.83,17.83,0,0,1,.74-3.31c.22-.51-.32-.67-.14-1a5.13,5.13,0,0,0,.49-.88,9.69,9.69,0,0,0,.12-1.22,1.61,1.61,0,0,1,.15-.47,5.75,5.75,0,0,0,.48-3.61c-.67-.17-1.37-.35-2.07-.55-.5-.15-.87.34-1.36.24.28.65-1.13.74-.5,1.51-.5.3.3,1.07-.47,1.29,0,0-.09.29,0,.36.24.27.28.54,0,.74-.52.36-.5.87-.55,1.41a3.27,3.27,0,0,1-.47,1.05,6,6,0,0,1-1.6-.77c0-.57-.14-1.35.16-1.65a2.63,2.63,0,0,0,.66-1.55c.25-1.34,1-2.49,1.29-3.8.16-.78.3-.8,1.17-.56a3.07,3.07,0,0,0,.86.09c2.23,0,2.67-.35,4.33,1.06.19.16.45.13.51.51.15,1.09-.43,2.26.32,3.28-.24.62-.31,1.49-.76,1.79-.75.5.22,1-.22,1.48a2.31,2.31,0,0,0-.47,1.59,5.82,5.82,0,0,1-.35,1.83C126.4,27.42,125.93,27.65,124.31,27.93Z"/><path class="cls-1" d="M139.61,26.25a7.84,7.84,0,0,1-1,.53c-.45.14-1.07-.16-1-.45.17-1-.73-1.53-.88-2.38a14.37,14.37,0,0,1-.36-1.47,5.63,5.63,0,0,0-.47-1.42,7.23,7.23,0,0,1-1.27,1.47c-.29.21-.57.82-1.24.4-.83-.53-1-.57-.8-.77s0-.89.71-.83c.17,0,.6-.68.53-.95-.21-.84.93-.76.85-1.44,1.53-.59,2.08-2,2.78-3.31.26-.47.37-.43.75-.23s1-.44,1.39.3c.18.34.28,1,0,1.25a1.85,1.85,0,0,1-.74.37c-.5.08-.69.31-.63.81a.42.42,0,0,1-.27.34c-.42,0-.6.37-.39.55.5.47.33,1,.3,1.5a3.19,3.19,0,0,0,.38,1.65c.08.15.31.29.29.41C138.24,24,139.41,25,139.61,26.25Z"/><path class="cls-1" d="M153.31,22.82a1.39,1.39,0,0,1-1.06,1.76,6.61,6.61,0,0,0-1.66.76c-.38.22-1,0-1.2.23-.45.41-1,.35-1.41.54a21.85,21.85,0,0,1-2.43,1.07c-.27.07-.5.24-.76.33a1,1,0,0,1-1.18-.56,1,1,0,0,1,.33-1.1,2.09,2.09,0,0,1,2-.87c.34.07.57,0,.55-.45,0-.09.13-.26.19-.25a6.22,6.22,0,0,0,2.6-.66c.81-.3,1.72-.44,2.56-.77A4.49,4.49,0,0,1,153.31,22.82Z"/><path class="cls-1" d="M147.58,21.69c-1.61.09-1.32-1.4-2.11-1.86.1-.83-.66-1.17-1-1.75-.23-.43-1.06-1-.2-1.58-.12-.89.62-.59.88-.5a1.46,1.46,0,0,1,.87.85c.25,1.2,1.29,1.83,1.83,2.82s.56.91,0,1.62A2,2,0,0,0,147.58,21.69Z"/><path class="cls-1" d="M129.22,16.94c-.66-.8-.32-2.1-1.15-3-.22-.23-.08-.79.34-1.07a.85.85,0,0,1,1.1,0,3.5,3.5,0,0,1,1,2.25,5.79,5.79,0,0,1,0,1.38Z"/><path class="cls-1" d="M131.73,16.35c0-.6.09-1.3-.2-1.69s.69-1.12-.23-1.4c.21-.3.37-.74.67-.87s.77-.16.83.52c0,.38.66.55.68,1.14C133.53,15.39,133.5,15.49,131.73,16.35Z"/><path class="cls-1" d="M144.14,16l-.16-.21c.07,0,.2-.08.21-.06a.81.81,0,0,1,.11.27Z"/></g></svg>