<svg xmlns="http://www.w3.org/2000/svg" viewBox="0 0 249.63 46.24"><defs><style>.cls-1{fill:#fff;}</style></defs><g id="レイヤー_1" data-name="レイヤー 1"><path d="M114.8,14c.48-.3-.3-.46,0-.9a3,3,0,0,0,.15-2.52,6.12,6.12,0,0,0-.75-1.43c-.63-.77.44-1.19.35-1.81,0-.32,0-.69-.2-.94A5.43,5.43,0,0,1,113.44,3c0-1.44-2.08-2.58-3.94-2.32-.51.7-1.1-.44-1.62,0s-1.45.2-2.18.3c-.49.07-1.23-.06-1.44.16-.63.63-1.18-.2-1.65,0a1.5,1.5,0,0,1-1.8-.11.82.82,0,0,0-.67,0A.91.91,0,0,1,98.69,1c-.4.45-1,.4-1.59.39-.95,0-1.91,0-2.86,0s-1.73,0-2.59,0-1.65,0-2.41-.09-1.81.38-2.4.05A5.62,5.62,0,0,0,83.91,1C78.46,1,73,1,67.57,1c-.64,0-1.37.26-1.95-.24a.87.87,0,0,0-.68-.13,6.28,6.28,0,0,1-4.78,0,1.91,1.91,0,0,0-1,0,15.6,15.6,0,0,1-6.63,0c-.25-.05-.59.18-.88.16s-.65-.17-1-.21a3.23,3.23,0,0,0-1,0c-.62.15-1.26.72-1.82.34-.79-.54-1.25.26-2,.1a6.31,6.31,0,0,0-2.56,0c-.77.15-1.26-.34-2-.25S39.84.59,39.19,1A.27.27,0,0,1,39,1c-.7-.6-1.46-.39-2.31-.2-.66.14-1.45,0-2.12.1A8.84,8.84,0,0,0,32,1.39c-.73.41-1.55-.63-2.37,0-1.24-.7-2.65-.27-4-.32-.45,0-.79.65-1.51.16-.23-.16-1,.17-1.47.2-.78,0-1.56,0-2.34,0s-1.77.23-2.28,0c-.82-.47-1.36.23-1.94,0a2.7,2.7,0,0,0-1.92,0c-.54-.63-1.15.21-1.63,0-1.6-.78-3.33-.19-5-.39-.83.74-1.59.08-2.38-.08A14.64,14.64,0,0,0,3,1.13L.45,4.35a1.15,1.15,0,0,1,.11.29A6,6,0,0,1,.77,7.16c-.32.91.29,1.67.12,2.52s0,1.89-.07,2.83S1.37,14.27.33,15c.26.82,1.08,1.64,0,2.48A3.15,3.15,0,0,1,.39,21c1,.71,0,1.38-.07,2.07,1.28.7-.43,1.37,0,2.11.2.36-.77.84,0,1.27.12,1.43-.35,2.91.52,4.29-.83.69.29,1.35.06,2.1S1,34.61.79,35.46c-.11.5.86.78.18,1.35-.48.4.18,1.14-.54,1.65-.27.19-.3,1-.07,1.12.71.4-.1.92.4,1.42s.1,1.29.08,2a2.89,2.89,0,0,0,1.51,2.34.77.77,0,0,0,.52.07c.58-.59,1.23.25,1.41.07.74-.68,1.19.15,1.73.1,1-.09,2,.32,2.94-.35.4-.28,1.24.06,1.92-.29.37-.18,1.29.37,1.74.21a14.32,14.32,0,0,1,4.22-.37c.52,0,1.23-.4,1.5-.24a2.09,2.09,0,0,0,1.67.21c.8-.3,1.76-.64,2.35-.3.91.52,1.47-.44,2.23-.08a3.32,3.32,0,0,0,1.36.33c.44,0,.88-.3,1.31-.29s1.22.43,1.29.35c.72-.78,1.69,0,2.56-.29a4,4,0,0,1,3.18.23c.25.16.95,0,1.36-.16a1.53,1.53,0,0,1,1.61.09c.16.11.58.21.67.14,1-.8,2.3-.24,3.44-.37a2.91,2.91,0,0,1,1.69.23c.37.18,1.16-.23,1.76-.23s1.55.44,2,.24a1.78,1.78,0,0,1,2,.12.84.84,0,0,0,.67-.12c.57-.5,1.46,0,1.9-.3.77-.54,1.28.26,2,.06s1.38-.47,1.77-.29c1.79.84,3.93-.4,5.62.67.64-.69,1.61-.45,2.36-.36s1.58-.64,2.4-.1c.26-.75.81.25,1.34-.15.37-.28,1.28-.19,1.94-.18s1.26.35,1.47.19c.8-.61,1.17.3,1.78.2s1-.17,1.44-.2c.81-.06,1.63-.09,2.44-.1.18,0,.49.21.53.17.65-.56,1.48-.17,2.2-.27a3.71,3.71,0,0,1,2.13.4c.61.29,1.13-.57,2-.05.46.3,1.42,0,2.09.44s1.24-.69,1.88,0c.37-.62,1.14-.13,1.73-.32.74-.24,1.8.17,2.69.1.56,0,1.07.23,1.68,0a4.09,4.09,0,0,1,1.73-.13c.53,0,1.3.45,1.53.29a2.82,2.82,0,0,1,1.67-.3,15.59,15.59,0,0,1,1.81,0c.21,0,.38.29.6.33.61.11,1.22.65,1.87.06a62.18,62.18,0,0,0,9.58-.51l1.52-1.88c.08-.1.27-.27.26-.27-1.07-.74-.24-1.76-.63-2.63-.28-.63-.8-1.57-.28-2.16s.34-1.26.44-1.89c.06-.33-.06-.69,0-1,.17-.48.6-.92.68-1.39a7.64,7.64,0,0,0-.19-1.56c0-.61,0-1.21,0-1.82s-.28-1.25.06-1.59c.62-.62-.34-1-.07-1.52.12-.23,0-.58.2-.74.47-.38.24-.6,0-1s0-1,0-1.48c0-.31.24-.61.27-.92.06-.72-.23-1.5.82-2,.07,0,.12-.24.08-.27a1.15,1.15,0,0,1-.3-1.67c.61-.7-.3-1.16-.09-1.73s-.22-.94.42-1.3a.45.45,0,0,0,0-.52C114.53,14.61,114.22,14.3,114.8,14Z"/><path d="M67.83,31.64c-.48.3.31.46,0,.9a3,3,0,0,0-.14,2.52,6.08,6.08,0,0,0,.74,1.43c.63.77-.44,1.19-.34,1.81a1.93,1.93,0,0,0,.19.94,5.44,5.44,0,0,1,.87,3.38c0,1.44,2.07,2.58,3.93,2.32.51-.7,1.11.44,1.62,0s1.45-.2,2.18-.3c.49-.07,1.23.06,1.44-.16.63-.63,1.18.2,1.65,0a1.5,1.5,0,0,1,1.8.11.82.82,0,0,0,.67,0,.92.92,0,0,1,1.45.08c.41-.45,1-.4,1.6-.39h2.85c.86,0,1.73,0,2.59,0s1.65.05,2.42.09,1.8-.38,2.39-.05a5.65,5.65,0,0,0,2.94.34c5.44,0,10.89,0,16.33,0,.64,0,1.37-.26,2,.24a.87.87,0,0,0,.68.13,6.28,6.28,0,0,1,4.78,0,1.91,1.91,0,0,0,1,0,15.6,15.6,0,0,1,6.63,0c.26,0,.59-.18.88-.16s.66.17,1,.21a3.24,3.24,0,0,0,1,0c.61-.15,1.25-.72,1.81-.34.79.54,1.25-.26,2-.1a6.36,6.36,0,0,0,2.57,0c.77-.15,1.25.34,2,.25s1.42.2,2.07-.21a.29.29,0,0,1,.24,0c.7.6,1.45.39,2.3.2.67-.14,1.45,0,2.12-.1a8.77,8.77,0,0,0,2.58-.52c.73-.41,1.55.63,2.38,0,1.23.7,2.64.27,4,.32.45,0,.79-.65,1.51-.16.24.16,1-.17,1.48-.2.77,0,1.55,0,2.33,0s1.77-.23,2.28,0c.82.47,1.36-.23,1.95,0a2.67,2.67,0,0,0,1.91,0c.54.63,1.15-.21,1.63,0,1.6.78,3.34.19,5,.39.83-.74,1.59-.08,2.38.08a14.78,14.78,0,0,0,2.14-.21l2.56-3.22a1.15,1.15,0,0,1-.11-.29,5.94,5.94,0,0,1-.21-2.52c.32-.91-.28-1.67-.11-2.52s0-1.89.06-2.83-.55-1.76.49-2.47c-.26-.82-1.08-1.64-.05-2.48a3.17,3.17,0,0,1,0-3.55c-1-.71,0-1.38.07-2.07-1.27-.7.44-1.37,0-2.11-.2-.36.77-.84,0-1.27-.12-1.43.36-2.91-.52-4.28.84-.7-.28-1.36-.06-2.11s-.08-1.76.11-2.61c.11-.5-.85-.78-.18-1.35.49-.4-.18-1.14.55-1.65.26-.19.29-1,.06-1.12-.7-.4.11-.92-.4-1.42s-.1-1.29-.08-2A2.85,2.85,0,0,0,180.28.28a.77.77,0,0,0-.52-.07c-.58.59-1.22-.25-1.41-.07-.73.68-1.18-.15-1.73-.1-1,.09-2-.32-2.94.35-.4.29-1.24-.06-1.92.29-.36.18-1.29-.37-1.74-.21a14.25,14.25,0,0,1-4.21.37c-.52,0-1.24.4-1.5.25a2.08,2.08,0,0,0-1.68-.22c-.79.3-1.76.64-2.35.3-.91-.52-1.46.44-2.23.08a3.32,3.32,0,0,0-1.36-.33c-.43,0-.88.3-1.31.29s-1.22-.43-1.29-.35c-.72.78-1.69,0-2.56.29a4,4,0,0,1-3.18-.23,2.27,2.27,0,0,0-1.36.16A1.53,1.53,0,0,1,145.38,1c-.16-.11-.58-.21-.66-.14-1,.8-2.3.24-3.44.37a2.94,2.94,0,0,1-1.7-.23c-.37-.18-1.16.23-1.76.23s-1.54-.44-2-.24a1.79,1.79,0,0,1-2-.12.86.86,0,0,0-.66.12c-.57.51-1.47,0-1.91.3-.77.54-1.28-.26-1.95-.06s-1.39.47-1.78.29c-1.78-.84-3.93.4-5.61-.67-.64.69-1.61.45-2.37.36s-1.58.64-2.4.1c-.26.75-.81-.25-1.34.15-.37.28-1.27.19-1.94.18-.5,0-1.26-.35-1.47-.19-.8.61-1.17-.3-1.77-.2s-1,.17-1.45.2c-.81.06-1.62.09-2.44.1-.18,0-.49-.21-.53-.17-.65.56-1.47.17-2.2.27a3.68,3.68,0,0,1-2.12-.4c-.61-.29-1.14.57-2,.05-.46-.3-1.43,0-2.09-.44s-1.25.69-1.89,0c-.37.62-1.13.13-1.73.32s-1.79-.17-2.69-.1c-.56,0-1.07-.23-1.68,0a4.09,4.09,0,0,1-1.73.13c-.53,0-1.3-.45-1.52-.29a2.85,2.85,0,0,1-1.68.3,15.61,15.61,0,0,1-1.81,0c-.21,0-.38-.29-.6-.33C81.85.78,81.24.24,80.59.83A62.05,62.05,0,0,0,71,1.34L69.49,3.22c-.08.1-.27.27-.26.27,1.07.74.24,1.76.63,2.64.28.63.8,1.56.28,2.15s-.34,1.26-.44,1.89c0,.33.07.69,0,1-.16.48-.6.92-.67,1.39a7,7,0,0,0,.18,1.56c0,.61,0,1.22,0,1.82s.28,1.25-.06,1.59c-.62.62.35,1,.07,1.52-.12.23,0,.58-.2.74-.47.38-.24.6,0,1s0,1,0,1.48c0,.31-.24.61-.27.92-.06.72.23,1.5-.81,2-.08,0-.13.24-.08.27a1.15,1.15,0,0,1,.29,1.67c-.6.7.3,1.16.09,1.73s.22.94-.42,1.3a.45.45,0,0,0,0,.52C68.1,31,68.41,31.29,67.83,31.64Z"/><path d="M249,32.67c-.1-1.28.37-2.67-.15-3.81a6.61,6.61,0,0,1-.33-3.11c0-.43,0-.84,0-1.28a5.64,5.64,0,0,1,.33-3.11c.47-.9.32-2.07.63-3.1-.79-.44-.48-1.08-.51-1.66s.68-1,0-1.48a1.92,1.92,0,0,0,.42-2.42c-.53-.77.95-1.64-.41-2.19,0,0,.08-.36.18-.53a2.16,2.16,0,0,0-.06-2.61.67.67,0,0,1-.06-.54c.11-.38.53-1,.37-1.1-.75-.51.46-1,0-1.28-.92-.54.53-.88.06-1.32a7.3,7.3,0,0,0,0-.81c0-.53-.43-.87-1.1-.9-2-.09-4.05.21-6-.39-.26-.07-.69.3-1.07.37-.83.15-.43-.68-.84-.75-1.21-.17-2.53.14-3.66-.46-.54.61-1,.43-1.67,0A1.69,1.69,0,0,0,234,.39a1.27,1.27,0,0,1-1.11,0c-.45-.13-1-.11-1.53-.21a2.33,2.33,0,0,0-1.69.21c-.37.21-1.08-.65-1.59.08C227,.16,226,.74,224.87.63,223.6.5,222.09.9,221,.51s-1.94.72-2.52-.32a14.64,14.64,0,0,1-7.35,0,.62.62,0,0,0-.46.09c-.44.5-1.1.32-1.66.29-1.08,0-2.16,0-3.25-.14s-2.07.26-3.13-.21c-.34-.15-1.17.29-1.43.13A3.48,3.48,0,0,0,198.63.2c-1.48.2-3.07-.47-4.47.38-.11.07-.45-.09-.68-.14-.39-.08-.94-.33-1.14-.22a3,3,0,0,1-2.6.31c-.81-.49-1.77.6-2.28-.33-.72.77-1.37-.35-2.18,0-.41.15-1,.65-1.65.06-.44-.38-1.13.54-1.68.11-.83-.65-1,.47-1.81.32A16,16,0,0,0,177,.6h-3.37a12.12,12.12,0,0,1-3.08,0c-1.09-.31-2.05.43-3,0s-2,0-2.94.1a4.11,4.11,0,0,1-2,.11c-.63-.2-1.57.3-2.27.17A8.32,8.32,0,0,0,158,1c-2.23.17-4.49.07-6.74,0-.72,0-2.36.64-2.42,1.17-.21,1.86-1.26,3.62-1.09,5.53,0,.42.66.76.09,1.32-.34.33.07,1.08-.18,1.54s0,.46,0,.74a23,23,0,0,1,.12,3.22c-.83.25.27.86-.36,1.17-.82.41-.41,1-.36,1.57a7.5,7.5,0,0,1,.18,1.14c0,.44-.27.87-.29,1.31s.4.8.24.95c-.6.56-.67,1,0,1.58.2.18.12.63,0,.92-.84,2.16-.41,4.35-.2,6.51a2.75,2.75,0,0,1,0,1.4c-.18.46.36,1.08.22,1.57a3.19,3.19,0,0,0,0,2,6.75,6.75,0,0,1,0,2v1.83a15.13,15.13,0,0,0,0,2,10.07,10.07,0,0,0,.5,1.65c-1.32.32.39,1.15-.43,1.56-.12,1.27,1,1.87,2.52,1.72a42.39,42.39,0,0,1,6.57-.08c.61,0,1.25.4,1.76,0,.84-.67,1.11.67,1.79.25,1.22-.76,2.63-.27,3.95-.37.93-.08,2.08.21,2.78-.12a4.31,4.31,0,0,1,2.68-.24,7.54,7.54,0,0,0,2.19-.07c.8-.06,1.69.25,2.42-.36.16-.14.78,0,1.18.1s.79.3.86.24c.86-.82,1.65-.17,2.46,0,.43.11,1.08.41,1.26.28a2,2,0,0,1,2.1-.13c.78.44,1.07-.38,1.76-.19a9.92,9.92,0,0,0,2.32,0c.77,0,1.55,0,2.33,0a12,12,0,0,1,2.5.18c.78.21,1.24-.39,2-.23.54.11,1.39-.47,1.81-.3a5,5,0,0,0,1.9.35,8.82,8.82,0,0,1,2.06,0,2.37,2.37,0,0,0,1.68,0c.3-.12.85.45,1.33,0,.31.6,1.21-.41,1.47.33.53-.13,1.05-.29,1.6-.38a2.29,2.29,0,0,1,.69.14,6.74,6.74,0,0,0,.85.2c.49-.88,1.28.18,1.84-.18.77-.5,1.36.07,2,.22.32.07.85.13,1,0,.7-.6,1.3,0,1.93,0,.81,0,1.72-.33,2.44.28a1,1,0,0,0,.68,0c2.23-.74,4.56-.14,6.82-.34.73.55,1.61-.24,2.13,0,.94.51,1.65.06,2.46,0a11.36,11.36,0,0,1,3.68.37,10.19,10.19,0,0,0,2.07,0h2.07c.7,0,1.39,0,2.08,0a12.37,12.37,0,0,1,1.73.19,4.43,4.43,0,0,0,1.56-.17,9.48,9.48,0,0,1,2.32,0,5.13,5.13,0,0,1,1.76.57c.59.33,1.13-.72,1.64,0,.8-.14,1.82,0,2.27-.67a1.33,1.33,0,0,0,.1-1.44,1.93,1.93,0,0,1-.32-1.33,5.12,5.12,0,0,1,0-1.41c.09-.49.43-1,.48-1.46.08-.87-.34-1.89.12-2.59s-.9-1.62.41-2.18c0,0,0-.28-.09-.35C248.52,34.15,249,33.37,249,32.67Z"/></g><g id="レイヤー_2" data-name="レイヤー 2"><path class="cls-1" d="M99.72,29.69a2.19,2.19,0,0,0-.27-1.05c-.22-.43-.6-.81,0-1.29.14-.12.11-.59,0-.83a8.12,8.12,0,0,1-.15-4.45,1.11,1.11,0,0,0,0-.36,4.45,4.45,0,0,0-.15-.81c-.12-.37.61-.71,0-1.08.39-.21.19-1,1-.9.36,0,.73-.3,1,.2.07.11.37.23.42.19.63-.54,1.36.51,1.92-.1s1,.23,1.56-.18c.34-.26,1,.1,1.56.22a15.9,15.9,0,0,1,2.17.63c1.11.44,1.06.49,1,1.84,0,.41.33.83.3,1.23s.46,1,.33,1.21c-.3.47,0,.75,0,1.12s-.17,1.12.06,1.34c.4.38-.2.78.19,1-.41.55.23,1.23-.24,1.77-.18.2-.35.5-.58.56a5.35,5.35,0,0,1-1.92.33c-.55-.05-1,.5-1.63.07s-1.28.48-1.93,0c-.31.4-.59.44-1,.05-.16-.15-.93.23-1.32.49a.64.64,0,0,1-.57,0c-.22-.15-.35-.27-.4.11,0,.21,0,.32-.35.24-.63-.13-.63-1-1.29-1Zm1.46-8.34v5c0,.34-.14.83,0,1,.45.45.31.72,0,1.13-.18.24.2.61.46.45a2.84,2.84,0,0,1,2.7-.1c.25.09.67.19.78.08.49-.52,1.07-.26,1.61-.3s1,0,1.55,0,.59-.14.49-.88a14.33,14.33,0,0,1-.36-3.81,2.76,2.76,0,0,0,0-.86,4.68,4.68,0,0,0-.41-1.54c-.14-.24-.67-.26-1-.38s-.93-.53-1.15-.39c-.87.53-1.77.15-2.65.28Z"/><path class="cls-1" d="M119.83,31.18a6.64,6.64,0,0,0,0-1.84c-.14-.45.57-.65.17-1.18-.15-.2.27-.82.39-1.26s0-.95.28-1.25a1.66,1.66,0,0,0,.23-1.12c0-.44.15-.93-.34-1.24.42-.26.3-.68.36-1.06a.94.94,0,0,0-.54-1.13,1.21,1.21,0,0,0-1.1-.12c-.65.29-1.54-.06-2.25.41-.33.22-.62.41-.62.89,0,1.06-.76,1.87-1.05,2.84-.11.4-.19.37-1.26.71a5.12,5.12,0,0,1-.27-1.64,21.68,21.68,0,0,1,.88-3.25,3.45,3.45,0,0,1,.8-1.21,6.17,6.17,0,0,1,1.07-.74c.46.85,1-.24,1.41,0s.46.44.86.16c.16-.11.53.13.8.13a2.56,2.56,0,0,0,.61-.2c.15-.05.35-.18.45-.12a14.25,14.25,0,0,1,1.79,1.09c.35.26-.11.94.47,1.19a1.34,1.34,0,0,1-.14.43c-.52.76.6.06.39.57a1.8,1.8,0,0,0-.61,1.51c.13,1.23-.55,2.4-.32,3.65-.47.25-.1.47,0,.75a1.71,1.71,0,0,1-.26.91c-.1.25-.29.45-.39.7s0,.76-.24.88A6.27,6.27,0,0,1,119.83,31.18Z"/><path class="cls-1" d="M130.22,25.57c-1.24.25-1.07,1.38-1.58,2-.13-.11-.23-.28-.38-.32-.82-.26-1-.6-.74-1.31.22-.48.63-.88.61-1.48,0-.1.16-.24.28-.32s.38-.2.54-.34c.43-.37.13-1.15.46-1.35a2.68,2.68,0,0,0,1.14-1.12c.14-.28.67-.65.64-.7-.65-.89.42-.86.63-.93a1,1,0,0,1,1.35.36,1.14,1.14,0,0,1-.13,1.4,7.33,7.33,0,0,0-1.2,1.23c-.22.36-.82.68-.3,1.35a2.24,2.24,0,0,1,.33,1.55c-.07.41.55.57.22,1-.07.08.29.45.41.71a6.86,6.86,0,0,1,.36,1.05,9.77,9.77,0,0,1,.41,1.9c0,.58-.34.69-.92.44a1.35,1.35,0,0,1-.82-.9c-.28-.74-.61-1.46-.87-2.22A3.65,3.65,0,0,1,130.22,25.57Z"/><path class="cls-1" d="M145.4,26.66c-.07.89-.19,1.48-1.27,1.76a6.65,6.65,0,0,1-2.33.57.67.67,0,0,0-.47.09c-.34.27-.56.66-1.13.63a6.62,6.62,0,0,0-1,.15c-.4,0-.77.35-1.18.43s-.62-.11-.93-.11c-.66,0-.57-.7-.95-1,.29-.31.57-.88.86-.88.74,0,1.33-.77,2.22-.28.39.22,1.15-.16,1.72-.34.25-.07.45-.45.67-.44C142.86,27.34,143.91,26.2,145.4,26.66Z"/><path class="cls-1" d="M126.57,19.67l-.69-.69c-.15.26-.27.51-.41.74-.26.44-.7.24-1.08.29-.56.09-.43-.44-.53-.67a7.54,7.54,0,0,1-.56-1.82c-.1-.54.31-.83.83-.61a1.93,1.93,0,0,1,1.22,1.35v-1c0-1.15.17-1.27,1.67-1.37.19.78,0,1.61.37,2.41C127.71,18.94,126.87,19.22,126.57,19.67Z"/><path class="cls-1" d="M136.42,20.67l1.29-1.21c.17.42,0,1.22.89,1.25a.29.29,0,0,1,.21.22c.07,1.13.87,1.94,1.26,2.93a1.72,1.72,0,0,1,.11,1c-.09.38-.16,1-.86.4-.26-.21-.9.06-.9-.62-.51-.1-.55-.43-.68-.9A22.87,22.87,0,0,0,136.42,20.67Z"/></g></svg>