<svg xmlns="http://www.w3.org/2000/svg" viewBox="0 0 249.63 46.21"><defs><style>.cls-1{fill:#fff;}</style></defs><g id="レイヤー_1" data-name="レイヤー 1"><path d="M144.79,13.92c.61-.29-.38-.45,0-.9a2.44,2.44,0,0,0,.18-2.51A5.56,5.56,0,0,0,144,9.08c-.79-.78.56-1.2.44-1.81-.06-.32,0-.69-.24-.95A4.6,4.6,0,0,1,143.07,3c0-1.44-2.61-2.59-5-2.32-.64.7-1.39-.45-2.05.05s-1.82.19-2.74.29c-.62.07-1.55,0-1.82.16-.79.64-1.49-.2-2.08,0a2.31,2.31,0,0,1-2.27-.11,1.34,1.34,0,0,0-.84,0A1.36,1.36,0,0,1,124.47,1a2.87,2.87,0,0,1-2,.4c-1.19,0-2.39,0-3.59,0s-2.19,0-3.27,0-2.09,0-3-.1-2.28.39-3,.06a8.53,8.53,0,0,0-3.7-.34C99,1,92.09,1,85.22,1c-.81,0-1.73.27-2.46-.24a1.45,1.45,0,0,0-.85-.13,9.78,9.78,0,0,1-6,0,3.39,3.39,0,0,0-1.26,0,24.45,24.45,0,0,1-8.36,0c-.33-.05-.74.18-1.11.17S64.32.62,63.89.58a4.71,4.71,0,0,0-1.3,0c-.77.14-1.58.72-2.29.33-1-.54-1.57.27-2.48.1a10.06,10.06,0,0,0-3.24,0C53.61,1.17,53,.67,52,.77s-1.79-.2-2.61.2a.52.52,0,0,1-.3,0C48.25.34,47.3.56,46.23.74c-.84.15-1.83,0-2.68.1a13.14,13.14,0,0,0-3.25.53c-.92.4-2-.64-3,0C35.74.64,34,1.07,32.3,1c-.57,0-1,.66-1.9.17-.3-.16-1.22.17-1.86.19-1,0-2,0-2.94,0a9.4,9.4,0,0,1-2.89,0c-1-.46-1.71.23-2.45,0a4.12,4.12,0,0,0-2.41,0c-.68-.62-1.45.22-2.06,0-2-.77-4.2-.19-6.29-.38-1.05.73-2,.07-3-.08a21.4,21.4,0,0,0-2.7.21L.57,4.33a.92.92,0,0,1,.14.28c.13.85.6,1.76.26,2.53s.36,1.66.15,2.52,0,1.89-.09,2.83S1.73,14.24.41,15c.34.83,1.37,1.64.07,2.48A2.63,2.63,0,0,1,.49,21c1.29.71.06,1.39-.08,2.08,1.6.69-.55,1.36,0,2.1.25.36-1,.85,0,1.27.14,1.44-.45,2.91.65,4.29-1,.7.36,1.36.08,2.1s.1,1.77-.14,2.62c-.14.5,1.08.78.22,1.34-.61.4.23,1.14-.68,1.66-.34.19-.37,1-.08,1.12.89.4-.14.91.5,1.41s.13,1.3.1,2c0,1,.8,1.71,1.9,2.34a1.06,1.06,0,0,0,.66.07c.73-.58,1.55.25,1.78.08.93-.68,1.5.15,2.18.09,1.23-.09,2.52.32,3.71-.35.51-.28,1.57.06,2.42-.28.46-.19,1.62.37,2.19.21a22.64,22.64,0,0,1,5.32-.38c.66,0,1.56-.4,1.9-.24a3.19,3.19,0,0,0,2.11.21c1-.29,2.22-.64,3-.3,1.15.52,1.85-.44,2.81-.08a5.16,5.16,0,0,0,1.72.34c.55,0,1.11-.31,1.65-.3s1.54.43,1.63.35c.91-.78,2.13,0,3.23-.29a6.39,6.39,0,0,1,4,.23A3.33,3.33,0,0,0,45,44.48a2.43,2.43,0,0,1,2,.09,1.63,1.63,0,0,0,.84.15c1.31-.8,2.9-.25,4.34-.37a4.59,4.59,0,0,1,2.14.23c.47.18,1.46-.24,2.22-.23s1.95.44,2.57.24a2.7,2.7,0,0,1,2.53.12,1.46,1.46,0,0,0,.85-.12c.72-.51,1.84,0,2.4-.31,1-.54,1.62.27,2.46.06a5.39,5.39,0,0,1,2.24-.29c2.26.84,5-.39,7.09.68.8-.69,2-.46,3-.36s2-.65,3-.11c.33-.74,1,.26,1.69-.15a6.37,6.37,0,0,1,2.45-.17c.64,0,1.6.35,1.85.19,1-.62,1.48.3,2.24.2.61-.08,1.21-.17,1.83-.21,1-.06,2-.09,3.08-.1.23,0,.62.21.67.18.81-.57,1.85-.17,2.77-.27a5.73,5.73,0,0,1,2.68.39c.77.29,1.43-.56,2.46,0,.58.29,1.79,0,2.63.43.67.38,1.58-.69,2.38,0,.47-.63,1.43-.14,2.18-.33.94-.24,2.27.17,3.4.1a6.8,6.8,0,0,0,2.11,0,6.74,6.74,0,0,1,2.18-.14c.68,0,1.64.45,1.93.3a4.29,4.29,0,0,1,2.11-.31c.77,0,1.54,0,2.29,0,.26,0,.47.29.75.33.77.11,1.54.65,2.37.06a98.62,98.62,0,0,0,12.07-.5l1.92-1.88c.11-.1.34-.27.33-.28-1.35-.73-.3-1.75-.8-2.63-.35-.63-1-1.57-.35-2.15s.43-1.27.56-1.9c.06-.33-.08-.68.06-1s.75-.91.85-1.39-.19-1-.23-1.56,0-1.21,0-1.82-.34-1.24.08-1.58c.78-.62-.44-1-.09-1.53.16-.23,0-.58.26-.73.59-.39.3-.61,0-1s0-1,.06-1.48c.05-.31.3-.61.33-.92.08-.71-.28-1.5,1-2,.1,0,.16-.24.11-.27a1,1,0,0,1-.37-1.67c.76-.69-.38-1.15-.12-1.73.2-.42-.27-.94.53-1.3a.35.35,0,0,0,0-.51C144.45,14.58,144.07,14.27,144.79,13.92Z"/><path d="M248.73,32.64c-.13-1.27.52-2.67-.19-3.81a4.84,4.84,0,0,1-.46-3.1c0-.43,0-.85,0-1.29-.05-1-.32-2,.45-3.1.65-.9.44-2.07.87-3.11-1.08-.43-.66-1.08-.71-1.65s.94-1,0-1.49c1.09-.74,1.16-1.79.58-2.42s1.31-1.63-.55-2.19c-.07,0,.1-.36.23-.53a1.7,1.7,0,0,0-.07-2.6.51.51,0,0,1-.09-.54c.15-.39.73-1,.51-1.11-1-.51.63-1,0-1.27-1.26-.54.73-.89.08-1.33a7.3,7.3,0,0,0,0-.81c-.06-.53-.6-.87-1.51-.9-2.76-.09-5.56.22-8.26-.38-.35-.08-.95.29-1.47.36-1.14.15-.58-.68-1.15-.74-1.66-.18-3.46.14-5-.46-.75.61-1.43.42-2.3,0a3.11,3.11,0,0,0-1.58.17,2.26,2.26,0,0,1-1.52,0C226,.28,225.22.3,224.5.2a4.44,4.44,0,0,0-2.31.21c-.51.22-1.49-.64-2.18.08-1.47-.35-2.84.23-4.34.11-1.75-.13-3.81.28-5.25-.12-1.26-.34-2.66.72-3.46-.31a27.6,27.6,0,0,1-10.09,0,1.09,1.09,0,0,0-.62.08c-.61.51-1.52.33-2.28.3-1.48-.06-3,0-4.46-.15s-2.83.27-4.29-.21c-.46-.15-1.6.3-2,.13a6.65,6.65,0,0,0-3.59-.16c-2,.21-4.21-.46-6.12.39-.16.07-.62-.09-.94-.14A4.73,4.73,0,0,0,171.05.2a5.6,5.6,0,0,1-3.56.31c-1.12-.49-2.43.59-3.13-.33-1,.76-1.89-.36-3,0a2.38,2.38,0,0,1-2.27.06c-.6-.38-1.54.55-2.3.12-1.14-.66-1.41.46-2.48.31a31.55,31.55,0,0,0-4.25-.05h-4.62a22.8,22.8,0,0,1-4.23,0c-1.49-.31-2.81.43-4.05,0-1.44-.46-2.78,0-4,.1a7.22,7.22,0,0,1-2.77.11c-.86-.19-2.15.31-3.11.17a16.31,16.31,0,0,0-3.35,0c-3.06.17-6.16.08-9.24,0-1,0-3.24.63-3.32,1.16-.29,1.86-1.73,3.62-1.49,5.54,0,.41.89.75.11,1.31-.46.34.1,1.09-.24,1.55s-.07.46,0,.74a15.68,15.68,0,0,1,.16,3.21c-1.13.26.37.86-.49,1.17-1.13.41-.56,1-.5,1.57a6.12,6.12,0,0,1,.26,1.15c0,.44-.38.87-.41,1.31s.56.79.33.95c-.81.56-.91,1-.06,1.57.27.19.17.64,0,.93-1.15,2.15-.56,4.34-.28,6.5.06.48.34.87,0,1.4s.51,1.09.31,1.57a2.4,2.4,0,0,0,0,2,4.9,4.9,0,0,1,.06,2v1.82a11.33,11.33,0,0,0,0,2,8.67,8.67,0,0,0,.68,1.66c-1.81.32.54,1.15-.59,1.55-.16,1.28,1.37,1.87,3.45,1.73a80,80,0,0,1,9-.09c.83,0,1.7.4,2.41,0,1.15-.68,1.52.67,2.45.25,1.67-.77,3.61-.27,5.41-.38,1.29-.08,2.86.22,3.82-.11a7.85,7.85,0,0,1,3.68-.24,13.47,13.47,0,0,0,3-.08c1.1-.06,2.32.26,3.32-.35a4.75,4.75,0,0,1,1.62.09,8.9,8.9,0,0,0,1.18.24c1.18-.82,2.26-.17,3.37,0a5.93,5.93,0,0,0,1.72.29,3.72,3.72,0,0,1,2.89-.14c1.07.44,1.46-.38,2.42-.19a17.52,17.52,0,0,0,3.17,0c1.07,0,2.14,0,3.2,0a20.25,20.25,0,0,1,3.43.18c1.07.21,1.7-.4,2.76-.24.74.12,1.9-.46,2.48-.3a8.46,8.46,0,0,0,2.6.35,16.58,16.58,0,0,1,2.83,0,4.41,4.41,0,0,0,2.31,0c.4-.12,1.16.45,1.82,0,.42.6,1.67-.41,2,.34.73-.13,1.45-.29,2.19-.38a3.22,3.22,0,0,1,.95.14c.41.07,1.15.22,1.17.2.68-.89,1.76.18,2.52-.18,1.07-.5,1.87.06,2.78.21a3,3,0,0,0,1.38,0c1-.61,1.79,0,2.65,0,1.11,0,2.35-.33,3.35.29a1.79,1.79,0,0,0,.93,0c3.05-.74,6.25-.13,9.36-.33,1,.55,2.2-.25,2.92,0,1.28.51,2.25,0,3.37,0a21.8,21.8,0,0,1,5.05.38,19,19,0,0,0,2.83,0H230c1,0,1.9,0,2.84,0a21,21,0,0,1,2.39.18,8.23,8.23,0,0,0,2.13-.16,16.89,16.89,0,0,1,3.18,0,8.51,8.51,0,0,1,2.41.57c.82.33,1.56-.73,2.25,0,1.11-.14,2.51,0,3.12-.66.39-.4.53-1.12.14-1.45s-.39-.88-.44-1.32a3.77,3.77,0,0,1,0-1.42c.12-.49.59-1,.65-1.45.12-.87-.46-1.9.17-2.59s-1.24-1.63.56-2.18c.06,0,0-.29-.12-.36C248.11,34.12,248.8,33.34,248.73,32.64Z"/></g><g id="レイヤー_2" data-name="レイヤー 2"><path class="cls-1" d="M133.32,17.82c.34-1.11.63-2.07.93-3a4.42,4.42,0,0,1,1.13-1.44c.32-.12,1,.47.81.83-.37.75-.23,1.58-.54,2.35-.44,1.08-.15,1.39,1.07,1.65a4.31,4.31,0,0,1,1.18.48c.14.07.3.35.26.46-.1.28-.31.72-.5.73a4.9,4.9,0,0,1-2.14-.2c-.86-.43-.56.42-.85.57l-.8-.75v2.08c.26-.11.57-.34.7-.26.41.24.71.54,1.13,0,.29-.4.57.65.94.07.09.08.25.15.26.23,0,.67,0,1.35,0,2.15-.79-.38-1.53-.12-2.24-.38a.85.85,0,0,0-1.14.79c0,.24.31.51-.08.73a1.83,1.83,0,0,0,.62.16c.53-.05,1.1.2,1.62-.27.19-.17.66,0,1-.06.55-.05,1,0,1.25.6.11.3-.65,1.06-1.09,1.12l-3.08.38c.14.19.29.3.28.39,0,.39-.31.92-.15,1.14a1.71,1.71,0,0,1,.25,1.12c0,.44,0,.89,0,1.51a2.16,2.16,0,0,1-1.71-1.66c-.06-.35-.57-.68-.05-1.13.11-.09-.25-.66-.3-1-.08-.54-.23-.28-.48-.12s-.43.05-.65.08a1.13,1.13,0,0,1-1.29-.57c-.16-.34.61-1,1.23-1.15,1.17-.22,1.17-.22,1.06-1.72h-2.9a1,1,0,0,1,.56-1.38,8.62,8.62,0,0,1,1.62-.66c.78-.15.84-.45.51-1.07-.05-.1.2-.35.39-.68-.81,0-1.54,0-2.27,0a2,2,0,0,1-.89-.24c-.16-.08-.33-.47-.28-.53.31-.34.7-.91,1-.88C131,18.3,132.07,17.66,133.32,17.82Z"/><path class="cls-1" d="M94.83,13.39h1.66a4.32,4.32,0,0,0-.22,1c0,.2.22.4.34.61.4-.82,1.07.21,1.66-.28a.8.8,0,0,1,1.31.68c0,.28,0,.56,0,.86a7.88,7.88,0,0,0-1.41.37.6.6,0,0,1-.73-.09c-.42-.3-.87.06-1.31.09a1,1,0,0,0-.72,1c0,.85-.11,1.71-.17,2.56,0,.43.14.58.54.48a1.34,1.34,0,0,0,.45-.16c.59-.37,1,.71,1.7.17a2.75,2.75,0,0,1,1.64-.15A6.65,6.65,0,0,1,101,21a2.22,2.22,0,0,1-2.58,1.3,1,1,0,0,0-.34,0,7.24,7.24,0,0,1-1.07.32,3.61,3.61,0,0,1-.83-.17c-.31-.06-.63-.09-1.06-.14,0,2.06.31,3.94,1.85,5.43.23.23.36.47.76.11.23-.2.77,0,1.17-.06s.3.5.53.71-.12.48-.26.57a4.2,4.2,0,0,1-2.89.39c-.42-.84-1.51-1.08-1.83-2a5.42,5.42,0,0,1-.7-2.28,5.77,5.77,0,0,0-.44-2.78c-.81.07-1.56.16-2.32.2-.91.06-1,0-1.37-.49-.11-.13-.25-.24-.37-.36a3,3,0,0,1,2.84-1,1.71,1.71,0,0,0,1.15-.3,2.31,2.31,0,0,0,.49-1.15c.18-.75-.25-1.57.24-2.32,0-.07-.24-.53-.41-.55a4.12,4.12,0,0,0-1.15.09c-.12,0-.33.11-.35.07-.39-.59-.93.43-1.41-.16-.16-.19-.41-.3-.35-.59s-.24-.7.3-.83a10.68,10.68,0,0,1,1.06-.32c.57-.06,1.15,0,1.73,0C94.54,14.7,94.55,14.69,94.83,13.39Z"/><path class="cls-1" d="M110.64,21.41a7.94,7.94,0,0,1-2.24-4,2,2,0,0,1,.31-1.28c.14-.26,1,0,1.14.38s0,.56.15.8a20.47,20.47,0,0,0,1,2c.4.68.75.75,1.27.1s1.48-.47,2-1.18c.19-.28,1.2.37,1.24.8a5.17,5.17,0,0,1,0,.68c-.84.33-1.91.28-2.16,1.44-.84,0-.92.85-1.31,1.32a3.51,3.51,0,0,0-.64,3A2.08,2.08,0,0,0,113.5,27c.83,0,1.31,1.1,2.16.44a1.33,1.33,0,0,1,.52,1.34c0,.45-.35.29-.59.38-.47.18-.88.34-1.21-.21,0,0-.32.2-.46.17s-.36-.25-.56-.31a6.23,6.23,0,0,1-3.37-2.2,3.38,3.38,0,0,1-.42-2.48c.07-.55.28-1.06.33-1.57S110.33,21.8,110.64,21.41Z"/><path class="cls-1" d="M148.44,22.85a4.3,4.3,0,0,1,2.7,1.74c.54.58,1.21,1,1.73,1.64a8.14,8.14,0,0,0,1.87,1.25.92.92,0,0,1,.36,1.29.82.82,0,0,1-1.29.17,12.23,12.23,0,0,1-3.4-3c-.23-.36-.47-.2-.72-.26a.76.76,0,0,1-.29-.13,7,7,0,0,1-1.73-1.49c-.3-.5-.75-.82-1-1.27a1.65,1.65,0,0,1,.68-1.71c.64-.21.9-1,1.7-.92a.74.74,0,0,0,.53-.35c.72-1.21,2.25-1.48,3-2.64a7.89,7.89,0,0,1,1.62.09c.45.11.47.56.13.92a2.23,2.23,0,0,1-.49.48c-.42.23-1.06.3-1.24.64s-.44.82-1,.94c-.27.06,0,.76-.57.63s-.69.3-1,.54-.4.5-.83.53C149,22,148.78,22.44,148.44,22.85Z"/><path class="cls-1" d="M122.24,24.32c.33-.64.61.17.93,0a1.6,1.6,0,0,1,.85-.24c.34.08.68.58,1,.54,1.29-.23,1.88.55,2.49,1.44.21.33.7.63.43,1s-.07,1.3-.7,1.58a23.66,23.66,0,0,1-2.83,1.46c-.83.25-1.27-.13-2-.76-1.06-.91-.59-2.32-1.34-3.28.32-.36.19-.69,0-1.1-.06-.15.4-.48.58-.75S122.05,24.26,122.24,24.32Zm.32,1.64a21.66,21.66,0,0,0,.69,2.13,1.05,1.05,0,0,0,.64.36c.35-.44.88-.19,1.24-.35s.65-.61,1-.93c-.34-.21-.31-.65-.8-.88C124.44,25.88,123.65,26.24,122.56,26Z"/><path class="cls-1" d="M141.29,17.53c.47.47.76.72,1,1,.09.11.18.38.12.44-.75.75.08,1.9-.67,2.65.23,1,.13,2,.74,3a5.69,5.69,0,0,1,.63,1.45c.19.6.5.72,1,.37.08-.06.26,0,.34,0,1-.69,1.72-.1,2.49.53-.67.41-.91,1.35-1.95,1.25-.17,0-.54.38-.88.28a6.88,6.88,0,0,1-1.8-.64c-.6-.37-1.26-.75-1.3-1.65,0-.69-.56-1.24-.73-1.94a13.31,13.31,0,0,1-.29-3.14,3.51,3.51,0,0,1,.95-2.7C141.11,18.26,141.12,18,141.29,17.53Z"/><path class="cls-1" d="M123.84,9.61c1.52.35,1.37,1.67,1.47,2.65a4.62,4.62,0,0,0,.49,1.87.75.75,0,0,0,.56.22c.65-.81,1.09.05,1.55.23s.37.38-.1.84a1.82,1.82,0,0,1-2.4.43c-.09,0-.36.22-.47.17-.71-.31-1.45.42-2.12,0s-1.43-.12-2.14-.25c-.26,0-.61-.07-.75-.24s-.36-.8-.28-.86c.36-.26.94-.64,1.21-.5a.8.8,0,0,0,1-.05c.25-.17.75,0,1.13,0,.62.1,1-.18.66-.68a.93.93,0,0,1,0-1.19c.06-.09.14-.25.11-.29C123,11.11,123.88,10.37,123.84,9.61Z"/><path class="cls-1" d="M125.84,19.53a2.74,2.74,0,0,0-1-.19,16.75,16.75,0,0,0-2.47.09c-.44.27-1-.16-1.4.35-.1-.07-.22-.12-.27-.21a2.15,2.15,0,0,1-.34-.72c0-.29-.13-.58.41-.73a16.42,16.42,0,0,1,2-.46c.72-.11,1.41-.42,2.12.06.12.07.4.11.45.05.41-.51,1-.26,1.44-.29a1.2,1.2,0,0,1,.77.18,1.37,1.37,0,0,1,.35.7c.09.31-.61,1.09-1,1.16A7.63,7.63,0,0,1,125.84,19.53Z"/><path class="cls-1" d="M104.39,29.41c0-.75.62-1,1-1.37a1.26,1.26,0,0,0,.37-1.22c0-.15-.21-.32-.36-.4-.65-.36-1.32-.7-2-1a2.11,2.11,0,0,1,.08-.31c.56-1,.56-1,1.79-.72a3.23,3.23,0,0,1,1.54.85,1.69,1.69,0,0,1,.7,1.6c0,.31.25.74.12,1a4.54,4.54,0,0,1-1.2,1.53c-.35.26-1,.17-1.45.21A2.9,2.9,0,0,1,104.39,29.41Z"/><path class="cls-1" d="M127.22,21.83c0,.44-.59,1-.89.71s-.6-.23-1,0-1-.17-1.38.38a9,9,0,0,0-1.29-.54c-.36-.11-.78-.05-1.14-.14a.66.66,0,0,1-.31-1.05c.3-.3.54-.87,1.14-.33.1.09.46,0,.62-.08a2.55,2.55,0,0,1,2.09-.13c.18,0,.25.19.5,0a.93.93,0,0,1,.89,0A5,5,0,0,1,127.22,21.83Z"/><path class="cls-1" d="M131.12,13.09a5.65,5.65,0,0,0,.62,1.3c.68.75.33,1.72.66,2.54.25.62-.46.45-.69.7s-.38,0-.53-.18a14.38,14.38,0,0,1-.83-1.21c-.13-.23-.28-.7-.18-.79.5-.44-.21-.86.1-1.42S131.23,14,131.12,13.09Z"/><path class="cls-1" d="M19.82,31.7c.5-1.05,1.42-1.79,1.19-3-.38,0-.77-.18-1.13.15a.4.4,0,0,1-.37.08,3.33,3.33,0,0,0-2-.25c-.67,0-1.06-.61-1.72-.57a.5.5,0,0,1-.34-.16c-.29-.33-.53-.71-.84-1s-.66-.43-.92-.71A7.27,7.27,0,0,1,13,25.13a1.39,1.39,0,0,1-.27-.58c-.11-.75,0-1.51-.13-2.28a3.07,3.07,0,0,1,.49-1.89c.19-.32.16-.77.33-1.1a13.72,13.72,0,0,1,1-1.54,5.11,5.11,0,0,0,.76-1.07c.14-.36.27-.52.65-.45a.73.73,0,0,0,.71-.3,3.07,3.07,0,0,1,1-.6c.44-.18.89-.08,1.28-.28a2.6,2.6,0,0,1,1.33-.5c.43,0,.87-.28,1.28-.22s.78-.41,1.18-.08a7.12,7.12,0,0,1,3.21-.2,6.73,6.73,0,0,1,2.31.45,15.33,15.33,0,0,1,2.09,1c.63.36,1,1,1.61,1.52A4.18,4.18,0,0,1,33,19.92c.09.68-.07,1.39,0,2.06s-.54.71-.58,1.16a4.39,4.39,0,0,1-.13,1.33,4.88,4.88,0,0,1-2.44,2.68,12.56,12.56,0,0,1-2.53,1,12.57,12.57,0,0,1-2,.54c-.8.14-1.28.93-2.11,1,0,0-.06.07-.09.09-.38.21.05.91-.67,1a.86.86,0,0,0-.8.73c0,.11-.36.24-.56.27C20.77,31.73,20.36,31.7,19.82,31.7Zm3.75-10.08c0-.55-.24-1-.56-1a4.5,4.5,0,0,0-1.19.48.6.6,0,0,0-.2.46c0,.6.49,1.3.94,1.24a5.09,5.09,0,0,0,1-.36C23.35,22.18,24.12,21.94,23.57,21.62Zm5-1c-.52,0-1,0-1.43,0-.29,0-.84,1.12-.7,1.34a1.41,1.41,0,0,0,1.56.57,1,1,0,0,0,.57-1C28.58,21.25,28.59,21,28.59,20.64Zm-11.19.52c-.24.17-.7.34-.77.61A1.22,1.22,0,0,0,16.84,23c.32.34.87.55,1.13.21a8.8,8.8,0,0,0,.56-1Z"/></g></svg>