<svg xmlns="http://www.w3.org/2000/svg" viewBox="0 0 251.16 46.88"><defs><style>.cls-1{fill:#fff;}</style></defs><g id="レイヤー_1" data-name="レイヤー 1"><path d="M246.79,22.11s0,0,0,.06A.14.14,0,0,1,246.79,22.11Z"/><path d="M127.92,2.49c-.17-.21-.5-.43-.46-.62.15-.74-.66-1.05-1.2-1.49-.76-.61-1.1.23-1.68.21a.83.83,0,0,1-.5-.12c-.58-.62-1.52.75-2-.18a2.45,2.45,0,0,1-.62.23c-1.44.17-2.94.23-4.33.52-.8.17-1.43-.82-2.14,0-.81-.73-1.54.31-2.44,0a9,9,0,0,0-2.47-.22c-.69,0-1.34-.14-2-.2-1-.08-1.93,0-2.89,0s-1.75.23-2.36-.39c-.82,1-1.61-.18-2.43,0-1.59.34-3.33-.75-4.88.24-.09,0-.39-.08-.6-.1A5.56,5.56,0,0,0,93,.24a10.65,10.65,0,0,1-5.46.14c-.49-.08-.68,0-.82.16-.49.63-1,.16-1.52.06s-.91.89-1.7.25a1,1,0,0,0-1.2-.08,2.87,2.87,0,0,1-2.35,0,2.22,2.22,0,0,0-1-.19c-1.12.22-2.2.85-3.3,0-2,.86-4.09.19-6.13.39-.9.08-1.91-.18-2.65.41-1.38-.41-2.76,1.08-4.17,0a.75.75,0,0,0-.55,0c-1.21.84-2.39,0-3.58,0s-2.56.27-3.41-.09-1.94.61-2.58-.25a17.32,17.32,0,0,0-2.73.6c-.53.21-.81-.58-1.32,0-.13.15-1.16-.19-1.51,0a1.31,1.31,0,0,1-1.45-.15c-.17-.09-.65.18-1,.15-.56-.06-1.17.07-1.63,0a6.08,6.08,0,0,0-3.75.11,1.81,1.81,0,0,1-1-.13c-.61-.2-1.1.59-1.88,0-.37-.28-1.42-.13-2.17-.18a4.5,4.5,0,0,1-1.9-.25c-.31-.15-1.09.2-1.67.24-2.71.19-5.5-.37-8.17.39a2.19,2.19,0,0,1-1-.2,3.11,3.11,0,0,0-2.36,0c-.43.21-1.09-.42-1.45.17-.32-.1-.78-.36-.94-.29-.88.39-1.66-.38-2.36-.08s-1.46.62-1.74.34c-.57-.55-1.16.05-1.76-.24-.86-.41-2.17.1-3.1-.46-.56.57-1.43.19-2.11.35A13.64,13.64,0,0,0,4,2.08c-2.19.83-2.51,1.39-1.81,3.06.12.3.31.8.11.93-1.15.7.1,1.83-1,2.5.92.82.45,1.65.07,2.48,1.25.52-.22,1.17.19,1.84a2.32,2.32,0,0,1,.13,2.34,4,4,0,0,0-.46,2.69c.08,1.23-.45,2.48.47,3.71.28.39-.95,1-.22,1.77.36.38-.32,1.24-.53,1.88-.08.23-.32.63-.23.67,1,.43-.14,1.05.11,1.25.64.53.32.81-.2,1.16.82.36.53.94.56,1.45a3.53,3.53,0,0,1,0,1.62A10,10,0,0,0,.63,36.2c.06,1.23-.5,2.5.51,3.69.22.26-.82.67,0,1.11.12.06-.63.77-.47,1,.34.44.2.72,0,1.12S.51,44,.21,44.39c-.57.66.19,1.08.37,1.61s.91.27,1.37.38a9.18,9.18,0,0,1,1.77.42c.68.32.82-.5,1.69-.21a5.83,5.83,0,0,0,3.05-.3c1-.35,2.25.64,3.15-.3a5.8,5.8,0,0,1,1.24.25c.26,0,.68.18.76.12,1-.75,2.19-.35,3.27-.35a10.2,10.2,0,0,0,2.65,0c1,1,1.76-.5,2.77-.1.61.24,1.48-.2,2.17.27a1.86,1.86,0,0,0,1.29.12c1-.79,1.86-.18,2.75,0,.31.08.81.33.84.3.74-.72,1.4.21,1.89.06a4.21,4.21,0,0,1,1.87,0,10.54,10.54,0,0,0,4.13-.31c.37-.11,1.07.63,1.89,0,.25-.19,1.53.35,1.85.15.79-.46,1.54.16,1.6.11.55-.45,1.23-.3,1.87-.34a20.22,20.22,0,0,0,2.48-.22c.67-.12,1.51.72,2-.17.32.66.95,0,1.45.15s1.2-.2,1.55,0c1.27.59,2.61.16,3.9.26.38,0,1.1-.41,1.16-.35.68.61,1.24.07,1.89,0,1.25-.06,2.62-.4,3.88.24a6.54,6.54,0,0,0,1.66.1c.72.08,1.31-.58,2.19-.06.3.18,1.33-.78,2.05,0a2.8,2.8,0,0,1,3,0,7.57,7.57,0,0,1,3.52-.4c.37,0,.9,0,1.07.11.53.43.75.09,1.06-.12s.53-.53,1-.11a1.54,1.54,0,0,0,1,.09c.67-.74,1.55,0,2.32-.19a14.91,14.91,0,0,1,3.07-.17,10.19,10.19,0,0,1,2.78.18,10.39,10.39,0,0,0,2.82-.19c1.06,0,2.13,0,3.19,0s2-.46,3,0c.28.11.85-.13,1.29-.19s1.08-.29,1.31-.16c1.3.72,2.77.22,4.13.38,1,.11,2.12-.32,3,.39a1.19,1.19,0,0,0,.74-.15c.62-.53.82.35,1.37.17a5.51,5.51,0,0,1,1.77-.38c.54,0,1,.72,1.65.13.85-.73,1.14.43,2,.29a11.67,11.67,0,0,1,3.73,0,2.82,2.82,0,0,0,1.85-.07,6.46,6.46,0,0,1,3.77-.29c.27,0,.44.39.83.06.66-.57,1.29-1.17,1-1.91-.12-.34-.67-.54,0-.91s-1.17-.66-.11-1.1c-.56-.77.36-1.47.18-2.26a11.55,11.55,0,0,1,0-2.63V33.07c0-.34-.2-.83,0-1,1.33-.83-.28-2.16,1.12-2.93-1-.54-.63-1.11-.07-1.67-1-.6-.38-1.39-.47-2.09a1.33,1.33,0,0,1,.45-1.49c.65-.53-.5-1-.48-1.61,0-.07,0-.15,0-.2,1.16-1.65.33-3.41.57-5.1.06-.4-.23-1,.06-1.19,1-.78.55-1.69.46-2.49s.44-1.62.17-2.52-.68-1.86.42-2.67c-1-.87-.32-1.9-.5-2.85,0-.08.31-.18.35-.29.11-.34-.29-.65.15-1.06S127.09,2.87,127.92,2.49Z"/><path d="M112.57,2.49c.18-.21.54-.43.5-.62-.16-.74.72-1.05,1.3-1.49.82-.61,1.2.23,1.82.21a.94.94,0,0,0,.54-.12c.63-.62,1.65.75,2.19-.18a2.66,2.66,0,0,0,.67.23c1.57.17,3.18.23,4.69.52.87.17,1.55-.82,2.32,0,.88-.73,1.68.31,2.64,0a10.6,10.6,0,0,1,2.68-.22c.75,0,1.45-.14,2.17-.2,1-.08,2.09,0,3.13,0s1.89.23,2.56-.39c.88,1,1.74-.18,2.62,0,1.73.34,3.62-.75,5.3.24.09,0,.42-.08.65-.1a6.51,6.51,0,0,1,2.08-.09,12.45,12.45,0,0,0,5.91.14c.53-.08.74,0,.89.16.53.63,1.09.16,1.65.06s1,.89,1.84.25A1.1,1.1,0,0,1,162,.77a3.33,3.33,0,0,0,2.54,0,2.65,2.65,0,0,1,1.12-.19c1.2.22,2.37.85,3.57,0,2.1.86,4.43.19,6.63.39,1,.08,2.07-.18,2.88.41,1.5-.41,3,1.08,4.51,0a.88.88,0,0,1,.6,0c1.31.84,2.59,0,3.89,0s2.77.27,3.69-.09,2.1.61,2.79-.25a20.12,20.12,0,0,1,3,.6c.57.21.88-.58,1.43,0,.14.15,1.25-.19,1.63,0a1.53,1.53,0,0,0,1.58-.15c.18-.09.7.18,1,.15.6-.06,1.27.07,1.76,0a7.1,7.1,0,0,1,4.06.11,2.1,2.1,0,0,0,1-.13c.67-.2,1.2.59,2,0,.41-.28,1.54-.13,2.35-.18a5.28,5.28,0,0,0,2.06-.25c.33-.15,1.18.2,1.81.24,2.94.19,5.95-.37,8.85.39a2.58,2.58,0,0,0,1.1-.2,3.61,3.61,0,0,1,2.55,0c.46.21,1.18-.42,1.57.17.35-.1.85-.36,1-.29.94.39,1.79-.38,2.55-.08s1.58.62,1.89.34c.61-.55,1.25.05,1.91-.24.92-.41,2.34.1,3.35-.46.61.57,1.55.19,2.29.35a15.6,15.6,0,0,1,1.77.65c2.37.83,2.72,1.39,2,3.06-.14.3-.34.8-.12.93,1.24.7-.11,1.83,1.06,2.5-1,.82-.48,1.65-.07,2.48-1.35.52.24,1.17-.21,1.84a2.17,2.17,0,0,0-.13,2.34,3.72,3.72,0,0,1,.49,2.69c-.09,1.23.49,2.48-.5,3.71-.32.39,1,1,.23,1.77-.39.38.35,1.24.58,1.88.08.23.34.63.24.67-1.05.43.15,1.05-.11,1.25-.7.53-.35.81.21,1.16-.89.36-.58.94-.61,1.45a3.4,3.4,0,0,0,0,1.62,9.12,9.12,0,0,1,.56,4.77c-.06,1.23.54,2.5-.55,3.69-.24.26.89.67,0,1.11-.13.06.7.77.52,1-.37.44-.22.72,0,1.12s.12.93.45,1.29c.61.66-.21,1.08-.41,1.61s-1,.27-1.48.38a10.64,10.64,0,0,0-1.92.42c-.73.32-.89-.5-1.83-.21a6.84,6.84,0,0,1-3.31-.3c-1.13-.35-2.44.64-3.41-.3a6.74,6.74,0,0,0-1.34.25,2.75,2.75,0,0,1-.83.12c-1-.75-2.37-.35-3.53-.35a12,12,0,0,1-2.88,0c-1.06,1-1.9-.5-3-.1-.66.24-1.6-.2-2.35.27a2.17,2.17,0,0,1-1.4.12c-1.07-.79-2-.18-3,0-.33.08-.88.33-.9.3-.8-.72-1.52.21-2.05.06a5,5,0,0,0-2,0,12.37,12.37,0,0,1-4.48-.31c-.4-.11-1.15.63-2,0-.27-.19-1.66.35-2,.15-.85-.46-1.66.16-1.73.11a3.43,3.43,0,0,0-2-.34,23.62,23.62,0,0,1-2.68-.22c-.73-.12-1.63.72-2.19-.17-.35.66-1,0-1.57.15s-1.31-.2-1.69,0c-1.37.59-2.82.16-4.22.26-.41,0-1.19-.41-1.25-.35-.74.61-1.35.07-2.05,0-1.36-.06-2.84-.4-4.2.24a7.74,7.74,0,0,1-1.8.1c-.78.08-1.42-.58-2.38-.06-.32.18-1.43-.78-2.22,0a3.25,3.25,0,0,0-3.26,0,8.81,8.81,0,0,0-3.81-.4,2.67,2.67,0,0,0-1.16.11c-.58.43-.82.09-1.14-.12s-.59-.53-1.15-.11a1.78,1.78,0,0,1-1.12.09c-.73-.74-1.68,0-2.51-.19a17.56,17.56,0,0,0-3.34-.17,11.86,11.86,0,0,0-3,.18,12.2,12.2,0,0,1-3.06-.19c-1.15,0-2.3,0-3.45,0s-2.13-.46-3.27,0c-.31.11-.93-.13-1.4-.19s-1.17-.29-1.42-.16c-1.41.72-3,.22-4.48.38-1.07.11-2.29-.32-3.22.39a1.35,1.35,0,0,1-.79-.15c-.68-.53-.9.35-1.49.17a6.42,6.42,0,0,0-1.92-.38c-.58,0-1,.72-1.79.13-.92-.73-1.23.43-2.16.29a13.68,13.68,0,0,0-4,0,3.27,3.27,0,0,1-2-.07,7.53,7.53,0,0,0-4.08-.29c-.3,0-.48.39-.9.06-.72-.57-1.4-1.17-1.13-1.91.13-.34.73-.54,0-.91s1.27-.66.13-1.1c.6-.77-.39-1.47-.19-2.26a11,11,0,0,0,.05-2.63V33.07c0-.34.22-.83,0-1-1.43-.83.31-2.16-1.21-2.93,1.08-.54.68-1.11.07-1.67,1.07-.6.42-1.39.52-2.09a1.28,1.28,0,0,0-.49-1.49c-.7-.53.54-1,.52-1.61,0-.07,0-.15,0-.2-1.25-1.65-.35-3.41-.61-5.1-.06-.4.25-1-.07-1.19-1.12-.78-.59-1.69-.49-2.49s-.48-1.62-.19-2.52.74-1.86-.45-2.67c1.1-.87.34-1.9.54-2.85,0-.08-.34-.18-.38-.29-.12-.34.32-.65-.16-1.06S113.47,2.87,112.57,2.49Z"/></g><g id="レイヤー_2" data-name="レイヤー 2"><path class="cls-1" d="M23.35,35.21c-1.91-.63-4.08-.42-5.7-1.89A21.09,21.09,0,0,0,16,31.94c-.61-.44-1.28-.77-1.89-1.21a.72.72,0,0,1-.21-.61c.14-1.27-.91-2.28-.78-3.55,0-.16-.3-.36-.47-.52s-.37-.45-.11-.77.28-.48.21-.62c-.56-1.08.32-2.13,0-3.19-.12-.45.1-.66.57-.67.06,0,.15-.3.16-.46,0-1.43,1.11-2.35,1.68-3.52.78.09.5-.82,1-1a14.46,14.46,0,0,0,2.28-1.18,1.42,1.42,0,0,1,1-.35c.25,0,.58.1.73,0,1.08-.87,2.27-.52,3.44-.36a12.07,12.07,0,0,1,3.31,1c2.4,1.12,4.14,3,5.93,4.83.29.3.32,1.07.57,1.13.89.19.32.78.45,1.16.06.16,0,.38,0,.54a5.62,5.62,0,0,1-.36,4.76c-.45,1-.76,2.13-1.14,3.19a6.55,6.55,0,0,1-1.07,1.19c-.76.74-1.64,1.35-2.44,2a2.67,2.67,0,0,1-1.74.74,3.33,3.33,0,0,0-.8.28,1.63,1.63,0,0,1-1.35.13C24.6,34.67,23.94,35.06,23.35,35.21Zm.45-1.83A6,6,0,0,1,25.28,33a5.9,5.9,0,0,0,4.77-2.69c.41-.55,1.16-1,1.23-1.66a2.07,2.07,0,0,1,.78-1.71c-.25-.75.41-1.33.4-2,0-.26.39-.58.32-.75a2.81,2.81,0,0,1-.35-1.33c0-.67-1-.89-.76-1.72,0-.11-.26-.42-.47-.51-.55-.24-.42-1-1.13-1.21s-.64-1-1.29-1.24a8.08,8.08,0,0,1-1.43-1c-.53-.36-1.09-.82-1.76-.63-.85.25-1.18-.9-1.71-.69a5.09,5.09,0,0,1-1.91.3c-.09,0-.18-.14-.29-.19a1.93,1.93,0,0,0-1.51,0,15.87,15.87,0,0,0-2.28,1.19,3.09,3.09,0,0,0-1.82,1.79,14.61,14.61,0,0,1-.67,1.38c-.21.42-.6.87-.56,1.28.06.58-.27.88-.49,1.28-.07.12-.06.42,0,.47.67.42-.47.71-.08,1s.26.88.38,1.32C15,26.77,15,28,15.76,29a11.65,11.65,0,0,0,1.15,1.52,17.17,17.17,0,0,0,1.76,1.07c.56.38.86,1.35,1.82.68a1.69,1.69,0,0,0,1.58.68A7.81,7.81,0,0,1,23.8,33.38Z"/><path class="cls-1" d="M26.43,27.2a1.5,1.5,0,0,1-.61,1.86c-.59.41-.86,1.19-1.67,1.33-.31.05-.63.27-.9.22A13.18,13.18,0,0,1,21.11,30,6.61,6.61,0,0,1,20,29.21c-.54-.39-.6-.69-.3-1.38.38-.91.76-1,1.53-.35a8.93,8.93,0,0,0,1,.7,2.32,2.32,0,0,0,1.6,0A6.69,6.69,0,0,1,26.43,27.2Z"/><path class="cls-1" d="M21.43,22c-.25.59-.38,1-.56,1.31s-.31.76-.53.8c-.41.07-.76.28-1.12.37-.83.19-.83-.7-1.08-1.15A1,1,0,0,1,18.28,22c.18-.13.41-.2.59-.33a1.32,1.32,0,0,1,2,.07A3.62,3.62,0,0,0,21.43,22Z"/><path class="cls-1" d="M27.56,23.78a10.46,10.46,0,0,0-1.49,0c-.62.08-.85-.4-1.17-.71s-.06-.7-.18-1.07c-.17-.58.93-1.28,1.67-1.16a7.81,7.81,0,0,1,1.17.44Z"/><path class="cls-1" d="M95.19,16.28A14.64,14.64,0,0,1,97,16c.46,0,1,.25,1.41.18a40.46,40.46,0,0,0,4.32-.59c1-.27,1.6.62,2.46.36l1,1.38s.13.11.12.12c-.67.93.44,1.84,0,2.76a3.88,3.88,0,0,1-.41.9,13.94,13.94,0,0,0-1.63,3.22l3.13,1.37c-.1.13-.16.22-.23.3-1.11,1.12-1.11,1.11-2.67.68-.37-.1-.73-.77-1.18-.09a2.13,2.13,0,0,0-.26-.26c-.29-.24-.77-.71-.83-.66-.45.36-.68.1-.92-.21a2,2,0,0,0-1.35-.68c-.26,0-.44-.28-.65,0a2.38,2.38,0,0,0-.39-.64c-.39-.32-.84-.59-1.37-.95.47-.32,1-.91,1.27-.83a5.45,5.45,0,0,1,2.25.65c.76.57,1,.53,1.6-.15.16-.17.25-.38.39-.56.64-.8.64-1.89,1.35-2.71.31-.37,0-1.24,0-2a29.09,29.09,0,0,1-3.24,0A18.74,18.74,0,0,0,98,18c-1,.06-2,.18-3.09.28C94.43,17.48,95.08,16.88,95.19,16.28Z"/><path class="cls-1" d="M128.73,17.19a3.37,3.37,0,0,1,1.05-3,1.59,1.59,0,0,1,1.42-.52c.43.08,1.06.47,1.25.31.65-.55.73.23,1.08.3,1.21.24,1.28,1.4,1.64,2.19a2.56,2.56,0,0,1-.3,2.35c-.06.09-.16.17-.19.27-.15.48-.14,1.11-.45,1.38s-.82.38-.81,1c-.22,0-.53-.16-.62-.07-.47.48-1.08.05-1.53.26s-.75-.68-1.19-.11c-.33-.46-.68-.92-1-1.41a2.27,2.27,0,0,1-.36-.92C128.69,18.56,128.73,18,128.73,17.19Zm4.34,2.07c0-.57,0-1.16,0-1.75a2.12,2.12,0,0,0-.35-1.29c-.56-1-.73-1-1.47-.24a2.49,2.49,0,0,0-.7,2.21,2.1,2.1,0,0,0,.91,1.56c.44.27.86-.15,1.26-.34Z"/><path class="cls-1" d="M130.12,27c-.67-.81-1.7-.58-1.77-1.63A.59.59,0,0,0,128,25c-1.3-.34-1.43-1.68-2.09-2.54a16.49,16.49,0,0,0-1.68-2.32c-.55.56-.55.56-1,1.9,0,.09,0,.23-.1.24-1.18.3-1.52,1.3-1.87,2.26-.23.61-.42,1-1,.31-.2-.21-.95.12-.78-.23s-.19-.82.2-1.26c.59-.65.89-1.56,1.45-2.25s.35-1.76,1.48-1.88c-.17-.65.24-.85.73-1.12a1.47,1.47,0,0,1,1.82.32c1,.86,1.37,2.09,2.14,3.08.1.12.13.4.22.41a1.61,1.61,0,0,1,1.39,1.38c.17.62.91,1.05,1.19,1.67A6.56,6.56,0,0,1,130.12,27Z"/><path class="cls-1" d="M115.85,16.37c-.52.65-.49,1.55-1.45,1.68-.18,0-.37.31-.47.51a.56.56,0,0,0,0,.52c.6.55-.44,1.3.08,1.62.87.54.44,1.51,1,2.17a4.68,4.68,0,0,1,.74,2,1.36,1.36,0,0,0,.44.9c.56.45-.23.73-.14,1.12-.33,0-.73.07-1-.09a3.59,3.59,0,0,1-1.49-2.61,1.65,1.65,0,0,0-.32-.93,1.51,1.51,0,0,1-.41-1.11,3.84,3.84,0,0,0-.38-.95c-1.39,1.22-1.39,1.22-1.55,2.57,0,0,.12.12.12.12-.28.37-1.49.26-1.79-.16l-.68-.94c-.07-.32,1.2.13.37-.63.78-.29.74-1.28,1.33-1.64s.59-1.23,1.43-1.26c.14,0,.29-.53.36-.83,0-.12-.46-.4,0-.44.72-.07.74-.62,1-1.06.62-1.13,1.14-1.3,2.4-.77Z"/><path class="cls-1" d="M149.43,28.39c-.13-1.84-.13-1.83,1.54-2.51.21-.08.38-.28.59-.32.85-.18,1.26-1.24,2.26-1.09.26-1,1.34-.82,1.94-1.4.4-.38.65-.86,1-1.25.56-.56.82.09,1.21.12.61,0,.43.62.33.81a5.89,5.89,0,0,1-1.08,1.53c-.69.69-2,.7-2.26,1.9,0,0-.47-.15-.6-.06s-.82.1-.78.73c0,.4-.77-.75-.67.25,0,0-.05.14-.07.14-1.2-.13-1.9,1-2.94,1.19A2.11,2.11,0,0,1,149.43,28.39Z"/><path class="cls-1" d="M153.74,23.1c-1.25-.28-2.43.31-3.51-.44-1,.84-2.19,0-3.21.45-.2-.45-.59-.75-.36-1.21.12-.23.21-.55.41-.66s.9-.4,1-.27c.34.35.86-.38,1.05.25.37-.12.74-.25,1.11-.36s.76.62,1.13,0C152.4,21.24,153.44,21.6,153.74,23.1Z"/><path class="cls-1" d="M142.77,23.65c-1.3-.38-2.36-1-3.61-.41-.25.12-1.38-.5-1.35-.74.07-.47-.52-1.21.54-1.38.23,0,.26-1,.78-.18a.57.57,0,0,0,.42.26c.36,0,.73-.24,1-.18a4.29,4.29,0,0,1,1,.55.39.39,0,0,0,.33,0c1-.67,1.39.18,2.1.68Z"/><path class="cls-1" d="M152.19,17.34l-1,1.42a6.64,6.64,0,0,0-3.83-1.54c-.74,0-.93-.47-.93-1.16,0-.42.19-.47.53-.68a1.51,1.51,0,0,1,1.61-.14C149.79,15.91,151,16.63,152.19,17.34Z"/><path class="cls-1" d="M161.83,14c.45.65,1,1.07.53,1.83-.17.3.08.63.32.93a4.16,4.16,0,0,1,.72,1.48,1,1,0,0,1-.69,1.21,1.61,1.61,0,0,1-1.46-.83l-.36-1.11C160.43,15.92,160.61,15.23,161.83,14Z"/><path class="cls-1" d="M158.52,19.11c-.26-.87-1-1.37-1.06-2.22,0-.63-.17-1.26-.15-1.89a.84.84,0,0,1,.56-.6.81.81,0,0,1,.7.38c.36,1,.92,1.89,1.27,2.89.19.52.2.79-.27,1C159.27,18.83,159,18.94,158.52,19.11Z"/></g></svg>