<svg xmlns="http://www.w3.org/2000/svg" viewBox="0 0 197.52 46.88"><defs><style>.cls-1{fill:#fff;}</style></defs><g id="レイヤー_1" data-name="レイヤー 1"><path d="M194.08,22.11a.13.13,0,0,1,0,.06S194.08,22.13,194.08,22.11Z"/><path d="M100.6,2.49c-.13-.21-.39-.43-.37-.62.12-.74-.51-1.05-.94-1.49-.59-.61-.87.23-1.32.21-.13,0-.33,0-.39-.12-.46-.62-1.2.75-1.59-.18a1.63,1.63,0,0,1-.48.23A31.46,31.46,0,0,0,92.1,1c-.63.17-1.13-.82-1.68,0-.64-.73-1.22.31-1.92,0A5.65,5.65,0,0,0,86.56.82,15.85,15.85,0,0,1,85,.62c-.75-.08-1.52,0-2.27,0S81.34.82,80.85.2c-.64,1-1.26-.18-1.91,0-1.25.34-2.62-.75-3.84.24-.07,0-.31-.08-.47-.1-.51,0-1.12-.27-1.51-.09a6.65,6.65,0,0,1-4.29.14c-.39-.08-.54,0-.65.16-.38.63-.79.16-1.2.06s-.71.89-1.33.25a.64.64,0,0,0-1-.08,1.81,1.81,0,0,1-1.84,0,1.46,1.46,0,0,0-.81-.19c-.87.22-1.72.85-2.59,0-1.53.86-3.22.19-4.82.39-.71.08-1.5-.18-2.08.41-1.09-.41-2.18,1.08-3.28,0a.47.47,0,0,0-.43,0c-1,.84-1.89,0-2.82,0s-2,.27-2.69-.09-1.52.61-2-.25a11.35,11.35,0,0,0-2.15.6c-.42.21-.64-.58-1,0-.1.15-.91-.19-1.18,0-.53.31-.77.11-1.15-.15-.13-.09-.51.18-.75.15-.44-.06-.92.07-1.28,0a3.82,3.82,0,0,0-3,.11c-.16.09-.52,0-.76-.13-.48-.2-.86.59-1.47,0-.3-.28-1.12-.13-1.71-.18a2.84,2.84,0,0,1-1.49-.25c-.25-.15-.86.2-1.32.24-2.13.19-4.32-.37-6.42.39-.2.08-.54-.1-.8-.2a2,2,0,0,0-1.85,0c-.34.21-.86-.42-1.14.17-.25-.1-.62-.36-.75-.29-.68.39-1.3-.38-1.85-.08s-1.15.62-1.37.34c-.44-.55-.91.05-1.38-.24-.68-.41-1.7.1-2.44-.46-.44.57-1.13.19-1.66.35a9.74,9.74,0,0,0-1.29.65c-1.72.83-2,1.39-1.42,3.06.09.3.24.8.08.93-.9.7.08,1.83-.77,2.5.72.82.35,1.65.05,2.48,1,.52-.18,1.17.15,1.84a2.86,2.86,0,0,1,.1,2.34A4.89,4.89,0,0,0,1,17.92C1,19.15.6,20.4,1.32,21.63c.23.39-.75,1-.17,1.77.28.38-.25,1.24-.42,1.88-.06.23-.25.63-.18.67.76.43-.11,1.05.09,1.25.5.53.25.81-.16,1.16.65.36.42.94.44,1.45a4.62,4.62,0,0,1,0,1.62A12.43,12.43,0,0,0,.49,36.2C.54,37.43.1,38.7.9,39.89c.17.26-.65.67,0,1.11.1.06-.5.77-.37,1a1,1,0,0,1,0,1.12C.3,43.5.4,44,.16,44.39c-.44.66.16,1.08.3,1.61s.71.27,1.08.38a6.08,6.08,0,0,1,1.39.42c.53.32.64-.5,1.32-.21a3.7,3.7,0,0,0,2.41-.3c.82-.35,1.77.64,2.47-.3.06-.07.64.16,1,.25s.53.18.6.12c.75-.75,1.72-.35,2.56-.35a6.37,6.37,0,0,0,2.09,0c.77,1,1.38-.5,2.18-.1.48.24,1.16-.2,1.7.27.21.18.89.26,1,.12.78-.79,1.46-.18,2.16,0,.24.08.64.33.66.3.58-.72,1.1.21,1.49.06a2.62,2.62,0,0,1,1.47,0,6.6,6.6,0,0,0,3.25-.31c.29-.11.84.63,1.48,0,.2-.19,1.2.35,1.46.15.62-.46,1.21.16,1.26.11.43-.45,1-.3,1.47-.34a12.65,12.65,0,0,0,1.95-.22c.53-.12,1.18.72,1.58-.17.26.66.75,0,1.14.15s.95-.2,1.23,0c1,.59,2,.16,3.06.26.3,0,.87-.41.91-.35.54.61,1,.07,1.49,0,1-.06,2.06-.4,3,.24.3.19.87,0,1.31.1s1-.58,1.72-.06c.24.18,1-.78,1.61,0a1.82,1.82,0,0,1,2.37,0,4.78,4.78,0,0,1,2.77-.4c.29,0,.7,0,.84.11.42.43.59.09.83-.12s.42-.53.83-.11a1,1,0,0,0,.81.09c.53-.74,1.22,0,1.83-.19a9.28,9.28,0,0,1,2.42-.17,6.32,6.32,0,0,1,2.18.18c.6.23,1.47-.15,2.22-.19s1.67,0,2.5,0,1.55-.46,2.38,0c.22.11.67-.13,1-.19s.84-.29,1-.16c1,.72,2.18.22,3.25.38.78.11,1.67-.32,2.34.39a.76.76,0,0,0,.58-.15c.49-.53.65.35,1.08.17a3.53,3.53,0,0,1,1.39-.38c.42,0,.75.72,1.3.13s.89.43,1.57.29a7.23,7.23,0,0,1,2.93,0A1.76,1.76,0,0,0,93.92,46a4.06,4.06,0,0,1,3-.29c.22,0,.36.39.66.06.52-.57,1-1.17.81-1.91-.08-.34-.52-.54,0-.91s-.92-.66-.09-1.1c-.44-.77.28-1.47.14-2.26a14.42,14.42,0,0,1,0-2.63V33.07c0-.34-.16-.83,0-1,1-.83-.23-2.16.88-2.93-.79-.54-.5-1.11-.06-1.67-.78-.6-.3-1.39-.37-2.09a1.58,1.58,0,0,1,.35-1.49c.51-.53-.39-1-.38-1.61,0-.07,0-.15,0-.2.9-1.65.26-3.41.44-5.1,0-.4-.18-1,0-1.19.82-.78.43-1.69.36-2.49s.35-1.62.14-2.52-.54-1.86.33-2.67c-.8-.87-.25-1.9-.4-2.85,0-.08.25-.18.28-.29.09-.34-.23-.65.12-1.06S100,2.87,100.6,2.49Z"/><path d="M88.53,2.49c.14-.21.42-.43.39-.62-.12-.74.56-1.05,1-1.49.64-.61.93.23,1.43.21A.62.62,0,0,0,91.8.47c.49-.62,1.3.75,1.72-.18a1.9,1.9,0,0,0,.53.23A37.23,37.23,0,0,1,97.74,1c.68.17,1.22-.82,1.82,0,.69-.73,1.32.31,2.08,0a6.58,6.58,0,0,1,2.1-.22c.59,0,1.14-.14,1.71-.2.81-.08,1.64,0,2.46,0s1.49.23,2-.39c.69,1,1.36-.18,2.06,0,1.36.34,2.84-.75,4.16.24.08,0,.34-.08.52-.1A4,4,0,0,1,118.3.24,7.78,7.78,0,0,0,123,.38c.42-.08.58,0,.7.16.42.63.86.16,1.3.06s.77.89,1.44.25a.73.73,0,0,1,1-.08,2.11,2.11,0,0,0,2,0,1.64,1.64,0,0,1,.87-.19c1,.22,1.87.85,2.81,0,1.66.86,3.49.19,5.22.39.77.08,1.63-.18,2.26.41,1.18-.41,2.35,1.08,3.55,0a.55.55,0,0,1,.47,0c1,.84,2,0,3.05,0s2.19.27,2.91-.09,1.65.61,2.19-.25a12.82,12.82,0,0,1,2.33.6c.45.21.69-.58,1.12,0,.11.15,1-.19,1.29,0,.57.31.83.11,1.24-.15.14-.09.55.18.82.15.47-.06,1,.07,1.38,0a4.44,4.44,0,0,1,3.19.11,1.36,1.36,0,0,0,.83-.13c.52-.2.94.59,1.6,0,.32-.28,1.21-.13,1.84-.18A3.3,3.3,0,0,0,170,1.16c.27-.15.93.2,1.43.24,2.31.19,4.68-.37,7,.39.22.08.59-.1.86-.2a2.29,2.29,0,0,1,2,0c.36.21.93-.42,1.23.17.28-.1.67-.36.81-.29.74.39,1.41-.38,2-.08s1.24.62,1.48.34c.49-.55,1,.05,1.5-.24.73-.41,1.85.1,2.64-.46.48.57,1.22.19,1.8.35a11.06,11.06,0,0,1,1.4.65c1.86.83,2.14,1.39,1.54,3.06-.1.3-.26.8-.09.93,1,.7-.09,1.83.84,2.5-.79.82-.39,1.65-.06,2.48-1.06.52.19,1.17-.17,1.84a2.68,2.68,0,0,0-.1,2.34,4.66,4.66,0,0,1,.39,2.69c-.07,1.23.38,2.48-.4,3.71-.24.39.81,1,.18,1.77-.3.38.28,1.24.46,1.88.06.23.27.63.19.67-.82.43.12,1.05-.09,1.25-.55.53-.27.81.17,1.16-.7.36-.45.94-.48,1.45a4.19,4.19,0,0,0,0,1.62A11.54,11.54,0,0,1,197,36.2c0,1.23.43,2.5-.43,3.69-.19.26.7.67,0,1.11-.1.06.55.77.41,1a.93.93,0,0,0,0,1.12c.2.4.09.93.35,1.29.49.66-.16,1.08-.32,1.61s-.77.27-1.17.38a6.88,6.88,0,0,0-1.5.42c-.58.32-.7-.5-1.44-.21a4.28,4.28,0,0,1-2.6-.3c-.89-.35-1.92.64-2.68-.3a4.24,4.24,0,0,0-1.06.25c-.22,0-.58.18-.65.12-.82-.75-1.86-.35-2.78-.35a7.44,7.44,0,0,1-2.26,0c-.83,1-1.5-.5-2.36-.1-.52.24-1.26-.2-1.85.27a1.37,1.37,0,0,1-1.1.12c-.85-.79-1.58-.18-2.34,0-.26.08-.7.33-.72.3-.63-.72-1.19.21-1.61.06a3.06,3.06,0,0,0-1.59,0,7.71,7.71,0,0,1-3.52-.31c-.32-.11-.91.63-1.61,0-.21-.19-1.3.35-1.58.15-.67-.46-1.31.16-1.36.11-.47-.45-1.05-.3-1.59-.34a14.64,14.64,0,0,1-2.11-.22c-.58-.12-1.29.72-1.72-.17-.28.66-.82,0-1.24.15s-1-.2-1.33,0c-1.08.59-2.22.16-3.32.26-.32,0-.94-.41-1-.35-.58.61-1.05.07-1.6,0-1.07-.06-2.24-.4-3.31.24-.33.19-.94,0-1.42.1s-1.11-.58-1.86-.06c-.26.18-1.13-.78-1.75,0a2.09,2.09,0,0,0-2.56,0,5.57,5.57,0,0,0-3-.4c-.32,0-.77,0-.92.11-.45.43-.64.09-.89-.12s-.46-.53-.9-.11a1.12,1.12,0,0,1-.88.09c-.58-.74-1.33,0-2-.19a10.87,10.87,0,0,0-2.62-.17,7.44,7.44,0,0,0-2.37.18c-.65.23-1.59-.15-2.4-.19s-1.81,0-2.72,0-1.67-.46-2.57,0c-.24.11-.72-.13-1.1-.19s-.92-.29-1.11-.16c-1.11.72-2.36.22-3.52.38-.85.11-1.81-.32-2.53.39a.88.88,0,0,1-.63-.15c-.54-.53-.7.35-1.17.17a4.15,4.15,0,0,0-1.51-.38c-.46,0-.82.72-1.41.13s-1,.43-1.7.29a8.45,8.45,0,0,0-3.17,0A2.08,2.08,0,0,1,95.76,46a4.73,4.73,0,0,0-3.21-.29c-.23,0-.38.39-.71.06-.56-.57-1.09-1.17-.88-1.91.1-.34.57-.54,0-.91s1-.66.09-1.1c.48-.77-.3-1.47-.15-2.26a13.57,13.57,0,0,0,0-2.63V33.07c0-.34.18-.83,0-1-1.12-.83.24-2.16-1-2.93.86-.54.54-1.11.06-1.67.84-.6.33-1.39.4-2.09A1.48,1.48,0,0,0,90,23.91c-.55-.53.43-1,.41-1.61,0-.07,0-.15,0-.2-1-1.65-.28-3.41-.49-5.1,0-.4.2-1,0-1.19-.88-.78-.47-1.69-.39-2.49s-.38-1.62-.15-2.52.58-1.86-.35-2.67c.86-.87.27-1.9.43-2.85,0-.08-.27-.18-.3-.29-.1-.34.25-.65-.13-1.06S89.23,2.87,88.53,2.49Z"/></g><g id="レイヤー_2" data-name="レイヤー 2"><path class="cls-1" d="M64.28,16.28A14.64,14.64,0,0,1,66.06,16c.47,0,1,.25,1.41.18a40.46,40.46,0,0,0,4.32-.59c1-.27,1.6.62,2.46.36l1,1.38s.13.11.12.12c-.67.93.44,1.84,0,2.76a3.88,3.88,0,0,1-.41.9,13.94,13.94,0,0,0-1.63,3.22l3.13,1.37c-.1.13-.16.22-.23.3-1.11,1.12-1.11,1.11-2.67.68-.37-.1-.73-.77-1.17-.09a2.2,2.2,0,0,0-.27-.26c-.28-.24-.77-.71-.83-.66-.45.36-.68.1-.92-.21a2,2,0,0,0-1.35-.68c-.26,0-.43-.28-.65,0a2.38,2.38,0,0,0-.39-.64c-.39-.32-.84-.59-1.37-.95.47-.32.95-.91,1.27-.83a5.45,5.45,0,0,1,2.25.65c.76.57,1,.53,1.61-.15.15-.17.24-.38.38-.56.65-.8.65-1.89,1.35-2.71.32-.37,0-1.24,0-2a28.89,28.89,0,0,1-3.23,0,18.73,18.73,0,0,0-3.28.4c-1,.06-2,.18-3.08.28C63.52,17.48,64.17,16.88,64.28,16.28Z"/><path class="cls-1" d="M97.82,17.19a3.35,3.35,0,0,1,1.06-3,1.56,1.56,0,0,1,1.41-.52c.44.08,1.07.47,1.26.31.64-.55.72.23,1.07.3,1.21.24,1.28,1.4,1.64,2.19a2.56,2.56,0,0,1-.3,2.35c-.06.09-.16.17-.19.27-.15.48-.13,1.11-.44,1.38s-.82.38-.82,1c-.21,0-.53-.16-.62-.07-.47.48-1.07.05-1.53.26s-.75-.68-1.19-.11c-.33-.46-.68-.92-1-1.41a2.25,2.25,0,0,1-.35-.92C97.78,18.56,97.82,18,97.82,17.19Zm4.34,2.07c0-.57,0-1.16,0-1.75a2.2,2.2,0,0,0-.36-1.29c-.56-1-.73-1-1.47-.24a2.49,2.49,0,0,0-.7,2.21,2.1,2.1,0,0,0,.91,1.56c.44.27.86-.15,1.27-.34Z"/><path class="cls-1" d="M99.21,27c-.66-.81-1.69-.58-1.77-1.63a.57.57,0,0,0-.36-.37c-1.31-.34-1.44-1.68-2.1-2.54a16.49,16.49,0,0,0-1.68-2.32c-.54.56-.54.56-1,1.9,0,.09,0,.23-.1.24-1.18.3-1.52,1.3-1.87,2.26-.23.61-.42,1-1,.31-.19-.21-.94.12-.78-.23s-.19-.82.2-1.26c.59-.65.89-1.56,1.45-2.25s.36-1.76,1.48-1.88c-.17-.65.24-.85.73-1.12a1.47,1.47,0,0,1,1.82.32c1,.86,1.37,2.09,2.14,3.08.1.12.13.4.22.41A1.63,1.63,0,0,1,98,23.3c.16.62.91,1.05,1.18,1.67A6.25,6.25,0,0,1,99.21,27Z"/><path class="cls-1" d="M85,16.37c-.53.65-.5,1.55-1.46,1.68-.18,0-.37.31-.47.51a.56.56,0,0,0,0,.52c.59.55-.45,1.3.07,1.62.87.54.44,1.51,1,2.17a4.67,4.67,0,0,1,.73,2,1.36,1.36,0,0,0,.44.9c.56.45-.23.73-.14,1.12-.32,0-.73.07-1-.09a3.59,3.59,0,0,1-1.49-2.61,1.65,1.65,0,0,0-.32-.93,1.51,1.51,0,0,1-.41-1.11,3.84,3.84,0,0,0-.38-.95c-1.39,1.22-1.39,1.22-1.55,2.57,0,0,.12.12.12.12a1.5,1.5,0,0,1-1.78-.16l-.69-.94c-.06-.32,1.2.13.37-.63.78-.29.74-1.28,1.33-1.64s.59-1.23,1.44-1.26c.13,0,.28-.53.35-.83,0-.12-.46-.4,0-.44.72-.07.74-.62,1-1.06.62-1.13,1.14-1.3,2.4-.77Z"/><path class="cls-1" d="M118.52,28.39c-.13-1.84-.12-1.83,1.55-2.51.2-.08.37-.28.58-.32.85-.18,1.26-1.24,2.26-1.09.26-1,1.35-.82,2-1.4.39-.38.64-.86,1-1.25.57-.56.82.09,1.21.12.61,0,.43.62.34.81a5.89,5.89,0,0,1-1.08,1.53c-.7.69-2,.7-2.27,1.9,0,0-.47-.15-.6-.06-.28.19-.81.1-.78.73,0,.4-.77-.75-.67.25a.17.17,0,0,1-.07.14c-1.2-.13-1.89,1-2.94,1.19A2.11,2.11,0,0,1,118.52,28.39Z"/><path class="cls-1" d="M122.83,23.1c-1.25-.28-2.42.31-3.51-.44-1,.84-2.19,0-3.21.45-.2-.45-.59-.75-.36-1.21.12-.23.22-.55.41-.66s.91-.4,1-.27c.34.35.87-.38,1,.25l1.11-.36c.38-.12.76.62,1.14,0C121.49,21.24,122.53,21.6,122.83,23.1Z"/><path class="cls-1" d="M111.87,23.65c-1.3-.38-2.37-1-3.62-.41-.25.12-1.38-.5-1.35-.74.07-.47-.52-1.21.54-1.38.23,0,.26-1,.78-.18a.6.6,0,0,0,.42.26c.36,0,.73-.24,1-.18a4.29,4.29,0,0,1,1,.55.39.39,0,0,0,.33,0c1-.67,1.39.18,2.11.68Z"/><path class="cls-1" d="M121.28,17.34l-1,1.42a6.64,6.64,0,0,0-3.83-1.54c-.74,0-.92-.47-.93-1.16,0-.42.2-.47.53-.68a1.51,1.51,0,0,1,1.61-.14C118.88,15.91,120.08,16.63,121.28,17.34Z"/><path class="cls-1" d="M130.93,14c.45.65,1,1.07.52,1.83-.17.3.08.63.32.93a4.16,4.16,0,0,1,.72,1.48,1,1,0,0,1-.69,1.21,1.59,1.59,0,0,1-1.45-.83c-.12-.37-.25-.74-.36-1.11C129.52,15.92,129.7,15.23,130.93,14Z"/><path class="cls-1" d="M127.61,19.11c-.25-.87-1-1.37-1.06-2.22,0-.63-.17-1.26-.15-1.89a.84.84,0,0,1,.56-.6.81.81,0,0,1,.7.38c.36,1,.92,1.89,1.28,2.89.18.52.19.79-.28,1C128.36,18.83,128,18.94,127.61,19.11Z"/></g></svg>