<svg xmlns="http://www.w3.org/2000/svg" viewBox="0 0 249.88 45.65"><defs><style>.cls-1{fill:#fff;}</style></defs><g id="レイヤー_1" data-name="レイヤー 1"><path d="M248.71,40.14c.27-.28,0-.79.07-1.19s.29-.73.37-1.1c.1-.52.41-1.14.13-1.55a6.29,6.29,0,0,1-.57-1.66c-.2-.5.84-.75.21-1.36-.42-.4-.07-1.16-.18-1.76-.07-.37,1.11-.72,0-1.08.92-.23-.1-.7.24-1s-.92-.95.24-1.45c.51-.22-.89-.95.08-1.43-.23-1,.52-2-.42-2.91a.58.58,0,0,1-.09-.54c.56-1.92.57-1.92,0-4,.68-.38-.21-.8,0-1,.39-.49-.12-1.08,0-1.27.64-.76.11-1.64.57-2.27.65-.87-.14-1.56-.09-2.32,0-.61-.29-1.34.08-1.8.55-.67-.15-1.15-.09-1.71a6.68,6.68,0,0,0,0-2.23,5.67,5.67,0,0,1-.22-1.83c0-.61-.87-1.27.23-1.81-.94-.41-.25-1.14-.64-1.63-.25-.31-.82-.86-1.33-.54-1.45.9-3.12-.26-4.53.37-.42-.62-1.49.28-1.88-.4-.77.72-1.58.4-2.39,0-1.78.74-3.72.19-5.58.34-.76.06-1.82-.21-2.26.05-.82.51-1.32-.23-1.88,0a5.52,5.52,0,0,1-3.59,0c-.19-.05-.5.11-.76.16s-.84.24-.95.15c-.82-.59-1.82-.27-2.72-.31-1.35-.05-2.71.06-4.05,0a9.26,9.26,0,0,0-3.86.19c-.31.09-.81.24-1,.15-1.12-.65-2.4-.2-3.59-.31a9.27,9.27,0,0,1-2.23-.14,2.38,2.38,0,0,0-2,0c-.53.19-1.17-.63-1.84,0A1.82,1.82,0,0,1,201,1a3.16,3.16,0,0,0-2.81,0,2.78,2.78,0,0,1-1.87,0,4.1,4.1,0,0,0-2.17-.27c-1.45,0-2.91-.07-4.34,0-.52,0-.56-.53-1.38-.21-1.88.75-4-.06-6,0-2.29.08-2.31-.25-4.5.11a2.36,2.36,0,0,1-1.51-.21c-.6-.65-1.44-.06-1.74-.19a1.47,1.47,0,0,0-1.77.27,1.75,1.75,0,0,1-1,.07c-.44-.05-1-.36-1.25-.25a6,6,0,0,1-3,.36c-.91,0-1.81-.4-2.71,0-1.31-.59-3,.57-4.2-.4-1.19.92-2.38,0-3.57,0-.54,0-1.08.13-1.63.18-.82.08-1.65.13-2.47.23s-1.77.27-2.66.39a.85.85,0,0,1-.51-.09c-.36-.24-.85-.54-1.17-.18-.5.58-.78-.23-1.28,0A7,7,0,0,1,143.6,1c-2.57-.33-2.54-.4-4.76.07a7.11,7.11,0,0,1-2.63.35c-.91-.2-1.46.73-2.51.12-.55-.32-2.5.67-2.47,1.17a8.19,8.19,0,0,1-.57,2.87,1.49,1.49,0,0,0,.47,1.83c-.81.51-.78,1,0,1.53-1.29.38.24,1-.29,1.58s-.21,1.15-.22,1.74a5.61,5.61,0,0,1-.53,1.94c1.47.72-.68,1.38-.07,2.08-.68.42-.3,1-.19,1.42s-.72.78.19,1c-1,.51-.41,1.24-.57,1.86s-.45,1.37-.56,2.06a5.06,5.06,0,0,0,0,1.82c.14.58-.84,1.07-.18,1.65-.88.55.4.93.26,1.54a7.74,7.74,0,0,0-.4,2.61c.06.37.29,1,.11,1.07-1.23.44.46.95-.18,1.49a1,1,0,0,0,.23,1.62.4.4,0,0,1,0,.52c-.87.56-.39,1.27-.46,1.9-.23,2,.43,3.93-.44,5.86,1,.39-.39.57-.17.93s.35.85.62,1.23c.12.18.53.25.8.37.71-.86,1.42-.15,2.13,0a4.55,4.55,0,0,0,1.05.2c.59-.74,1.53.67,2.05-.18a8,8,0,0,0,2.52.19,7.34,7.34,0,0,1,2.49-.18c1.26,0,2.62-.32,3.78.33,3.06-.82,6.23-.15,9.34-.34a8.4,8.4,0,0,1,2.46.23c.66.18.43-.12.6-.29a2.71,2.71,0,0,1,.8-.36c.51,1,1.85-.36,2.46.41a25.54,25.54,0,0,1,3.24-.38c1.17,0,2.43.48,3.49.29a7,7,0,0,1,1.57.07c.57,0,1.49-.32,1.63-.19.69.69,1.26-.34,1.87,0a1.63,1.63,0,0,0,2-.19c.36.6,1,0,1.44.15,1.24.48,2.58.17,3.88.18.31-.66,1.19.37,1.73-.3.19-.23,1.45,0,2.21-.07s1.08.57,1.89.07a3.62,3.62,0,0,1,2.24,0,16,16,0,0,0,4.41.38c2.14.1,4.34-.31,6.43.38a3.69,3.69,0,0,0,1.39-.06,12,12,0,0,1,1.54-.31c2.51,0,5-.1,7.52,0s4.94-.47,7.3.37a.62.62,0,0,0,.48-.12c.59-.71,1.28.18,1.81-.05a1.85,1.85,0,0,1,2,.1,1,1,0,0,0,.74,0c.51-.49,1.22-.28,1.85-.31,2.31-.12,4.66.27,6.93-.29.63.53,1.62-.62,2.32.26a3,3,0,0,0,1.92,0,8.41,8.41,0,0,1,4.12-.33c1.61.14,3.16-.77,4.74,0,.48-1,1.45.07,2.28-.25a7.77,7.77,0,0,1,3.07-.13,3.47,3.47,0,0,0,3-1.11C248.37,42.48,247.36,41.55,248.71,40.14Z"/><path d="M1.34,40.14c-.31-.28,0-.79-.07-1.19s-.34-.73-.43-1.1C.72,37.33.37,36.71.7,36.3s.39-1.12.65-1.66-1-.75-.24-1.36c.48-.4.08-1.16.2-1.76.08-.37-1.27-.72,0-1.08-1.06-.23.12-.7-.28-1C.44,29,2,28.48.71,28c-.58-.22,1-.95-.09-1.43.27-1-.59-2,.48-2.91a.49.49,0,0,0,.1-.54c-.64-1.92-.64-1.92,0-4-.78-.38.24-.8,0-1-.44-.49.14-1.08,0-1.27-.74-.76-.13-1.64-.66-2.27-.74-.87.16-1.56.1-2.32-.05-.61.34-1.34-.09-1.8-.63-.67.17-1.15.1-1.71a5.77,5.77,0,0,1,0-2.23A5.2,5.2,0,0,0,.93,4.67c-.06-.61,1-1.27-.27-1.81,1.08-.41.29-1.14.74-1.63C1.68.92,2.33.37,2.92.69c1.66.9,3.59-.26,5.2.37.49-.62,1.71.28,2.16-.4.88.72,1.81.4,2.74,0,2.05.74,4.28.19,6.41.34.87.06,2.09-.21,2.59.05.94.51,1.52-.23,2.16,0a7.22,7.22,0,0,0,4.12,0,3.1,3.1,0,0,1,.87.16c.37.07,1,.24,1.1.15.94-.59,2.08-.27,3.12-.31C34.94,1,36.5,1.13,38,1a12.15,12.15,0,0,1,4.43.19,2.63,2.63,0,0,0,1.1.15c1.28-.65,2.75-.2,4.12-.31A12,12,0,0,0,50.24.93a3.13,3.13,0,0,1,2.33,0c.61.19,1.34-.63,2.11,0A2.37,2.37,0,0,0,56.16,1a4.12,4.12,0,0,1,3.23,0,3.61,3.61,0,0,0,2.14,0A5.39,5.39,0,0,1,64,.66c1.66,0,3.33-.07,5,0,.6,0,.64-.53,1.58-.21,2.16.75,4.58-.06,6.92,0,2.63.08,2.65-.25,5.16.11A3.09,3.09,0,0,0,84.41.38c.69-.65,1.66-.06,2-.19a1.88,1.88,0,0,1,2,.27,2.33,2.33,0,0,0,1.11.07C90.05.48,90.73.17,91,.28a7.85,7.85,0,0,0,3.41.36c1,0,2.07-.4,3.1,0,1.51-.59,3.41.57,4.83-.4,1.36.92,2.73,0,4.1,0,.62,0,1.24.13,1.87.18.94.08,1.89.13,2.83.23s2,.27,3,.39a1.1,1.1,0,0,0,.59-.09c.41-.24,1-.54,1.34-.18.58.58.9-.23,1.48,0A9.17,9.17,0,0,0,122,1c3-.33,2.93-.4,5.47.07a9.25,9.25,0,0,0,3,.35c1.06-.2,1.68.73,2.89.12.63-.32,2.87.67,2.84,1.17a7.47,7.47,0,0,0,.64,2.87,1.36,1.36,0,0,1-.52,1.83c.92.51.89,1,0,1.53,1.48.38-.28,1,.33,1.58s.25,1.15.25,1.74a5.35,5.35,0,0,0,.61,1.94c-1.68.72.78,1.38.08,2.08.79.42.35,1,.22,1.42s.83.78-.21,1c1.11.51.46,1.24.65,1.86s.51,1.37.64,2.06a4.29,4.29,0,0,1,0,1.82c-.15.58,1,1.07.21,1.65,1,.55-.45.93-.3,1.54a6.72,6.72,0,0,1,.46,2.61c-.06.37-.33,1-.12,1.07,1.41.44-.53.95.21,1.49.52.38.62,1.11-.27,1.62-.15.09-.17.44,0,.52,1,.56.44,1.27.53,1.9.26,2-.5,3.93.5,5.86-1.1.39.45.57.19.93s-.39.85-.71,1.23c-.14.18-.6.25-.91.37-.82-.86-1.63-.15-2.44,0a6.1,6.1,0,0,1-1.21.2c-.69-.74-1.76.67-2.36-.18a10.49,10.49,0,0,1-2.89.19,9.59,9.59,0,0,0-2.85-.18c-1.46,0-3-.32-4.34.33-3.52-.82-7.16-.15-10.73-.34a11,11,0,0,0-2.82.23c-.77.18-.5-.12-.69-.29a3.46,3.46,0,0,0-.92-.36c-.59,1-2.13-.36-2.83.41a33.07,33.07,0,0,0-3.71-.38c-1.35,0-2.8.48-4,.29A9.29,9.29,0,0,0,95,45.2c-.64,0-1.71-.32-1.86-.19-.8.69-1.45-.34-2.15,0a2.09,2.09,0,0,1-2.26-.19c-.41.6-1.11,0-1.65.15-1.43.48-3,.17-4.45.18-.37-.66-1.37.37-2-.3-.22-.23-1.67,0-2.54-.07-.72-.07-1.24.57-2.18.07a4.7,4.7,0,0,0-2.56,0,21,21,0,0,1-5.06.38c-2.46.1-5-.31-7.39.38a4.82,4.82,0,0,1-1.59-.06,16,16,0,0,0-1.77-.31c-2.88,0-5.77-.1-8.64,0s-5.66-.47-8.37.37a.82.82,0,0,1-.56-.12c-.67-.71-1.46.18-2.07-.05a2.39,2.39,0,0,0-2.31.1,1.37,1.37,0,0,1-.85,0c-.58-.49-1.4-.28-2.13-.31-2.64-.12-5.34.27-7.94-.29-.73.53-1.86-.62-2.67.26a4,4,0,0,1-2.2,0,11.06,11.06,0,0,0-4.74-.33c-1.84.14-3.62-.77-5.43,0-.55-1-1.67.07-2.62-.25a10.23,10.23,0,0,0-3.53-.13A4.34,4.34,0,0,1,0,43.32C1.74,42.48,2.9,41.55,1.34,40.14Z"/></g><g id="レイヤー_2" data-name="レイヤー 2"><path class="cls-1" d="M127.5,18c-.9-.13-1.63-.26-2.37-.34-.51-.06-1.08-.45-1.08-.82a.41.41,0,0,1,.12-.29,8.24,8.24,0,0,1,1.25-.72c.33-.14.63.05.9.31a1.08,1.08,0,0,0,.69.3c.25,0,.49-.25.74-.27.4,0,.4-.22.46-.53s.36-.81.46-.79a3.58,3.58,0,0,1,1.23.55.94.94,0,0,1,.26.67c0,.13-.43.28,0,.42a1.36,1.36,0,0,0,.35,0l2.43.23a.61.61,0,0,0,.08-.26,2.32,2.32,0,0,1,.77-2.24,4,4,0,0,1,3.1-.82,9.51,9.51,0,0,1,1.21.4,2.93,2.93,0,0,1,2.13,2.66,22.16,22.16,0,0,1,.44,4.16c0,.39-.65.83-.06,1.27,0,0-.05.39-.14.42a1.29,1.29,0,0,0-.81,1.83c.14.39-.27.84.26,1.17a2.69,2.69,0,0,0,1.19.53,6.58,6.58,0,0,1,1.7.71,4.51,4.51,0,0,1-1.41,1,1.92,1.92,0,0,1-1.44-.1,5.57,5.57,0,0,1-1.41-1.18c-.26-.24-.21-.27-.43-1.3,0-.15-.5-.21-1-.37a4.41,4.41,0,0,0,0,1.28c.33.92-.55,1.4-.73,2.12,0,.09-.4.19-.41.17-.22-.38-1-.1-.94-.74.08-.8-.37-1.71.5-2.38a.64.64,0,0,0,0-1,.59.59,0,0,0-.47-.14c-.82.47-1.32-.18-1.89-.52-.11-.07-.23-.33-.18-.43.24-.52,0-1.06.12-1.56,0-.24.39-.46.08-.7-.1-.08-.41,0-.57.12-1.16.67-2.51.58-3.86,1,.48.77,0,1.88,1.32,2.38.7.26,1.18,1.09,2,1.31.21.05.3.53.48.87l-1,.8c-.45-.43-1.15-.21-1.62-.7a9.32,9.32,0,0,0-1.52-1.05,7.53,7.53,0,0,0,0,1.44c.17.78-1,.63-.88,1.34-.18-.17-.35-.5-.61-.08-.08-.14-.26-.29-.24-.42.18-1.26-.44-2.6.33-3.81-.61-.48-.37-.93,0-1.46.1-.15-.09-.51-.14-.77-.2.07-.41.24-.59.21a6.89,6.89,0,0,1-1.64-.39.81.81,0,0,1,0-1.43c.48-.18.89-.76,1.6-.17.42.36,1-.18,1.08-.86C127.52,18.75,127.5,18.4,127.5,18Zm11.4.55c-1.54.15-2.73-.87-4.15-.63.2.39.61.65.15,1.05-.1.09,0,.37,0,.57.66-.09,1.21.73,1.84.32s.88-.41,1.3.05c.25-.27.5-.34.72,0a5.1,5.1,0,0,0,.17-.61A6.48,6.48,0,0,0,138.9,18.59Zm-9.89,1a10.3,10.3,0,0,0,2.48-.05c.4-.11.63-.36,1,0a.44.44,0,0,0,.44,0,.57.57,0,0,0,.09-.45c-.06-.24-.34-.59-.26-.69.68-.85-.3-.52-.39-.48a1.86,1.86,0,0,1-1.71.21,4.21,4.21,0,0,0-1-.24C129.46,18.52,129.8,19.1,129,19.6Zm8.84-3.06c.06-.94-.61-.89-1-1.18a1.69,1.69,0,0,0-1.46-.15c-.26,0-.49.51-.62.83,0,.07.38.46.61.48C136.19,16.58,137,16.54,137.85,16.54Zm.61,5.17a6.53,6.53,0,0,1-1,0c-.26,0-.5-.24-.75-.25s-.69.27-.8.17c-.61-.57-.84-.09-1.12.28.29.17.71.52.81.45C136.52,21.66,137.61,22.38,138.46,21.71Z"/><path class="cls-1" d="M107.58,19.23c-.86.18-1.53-.21-2,.41-.31-.63-.65.15-.91,0a8.35,8.35,0,0,1-1.05-.87,5.39,5.39,0,0,1,.42-.9.65.65,0,0,1,.5-.27c.87.07.91.09.85-.52,0-.36-.41-.87-.28-1a1.46,1.46,0,0,0,.29-1.1c0-.22,0-.45,0-.78a6.56,6.56,0,0,0-2.49.56c-.36.1-1.21-.34-1.27-.79a1,1,0,0,1,.48-.79,4.41,4.41,0,0,1,1.39-.38c.49-.08,1,.12,1.44-.33.06-.07.45.16.74.27V11.08L107,11c.23,0,.16.05.52.78a1.79,1.79,0,0,0,1,.9,10.46,10.46,0,0,0,2.24,0c.15,0,.4-.07.43-.17.3-.88,1.11.19,1.46-.4a5,5,0,0,1,1,.94c.13.22.12.56-.41.72s-.87.78-1.63.68c-.48-.06-1,.76-1,1.32,0,.4,0,.8,0,1.32l1.35.14c0,.69.22,1.27-.77,1.73a1.71,1.71,0,0,1-1.89-.23v2.5c.33,0,.54-.49,1-.14a1,1,0,0,0,1.2-.13,1.17,1.17,0,0,1,.72-.32.56.56,0,0,1,.44.3,1.62,1.62,0,0,0,.34.91c.21.32-.13.57-.71.62-.29,0-.56.19-.85.2s-.38.19-.52.47-.31.33-1.31-.08c0,.48-.37,1,.59,1a5.07,5.07,0,0,1,1.4.36,5.88,5.88,0,0,1,1.51,1.15c-.71.15-1.23,1-2,.21-.13-.14-1.18.51-1.13.54.61.36-.1.77.05,1.09.35.74-.55.66-.7,1.08a1.46,1.46,0,0,1-.76-.13.88.88,0,0,1-.4-1,2.19,2.19,0,0,0-.51-2.3,3.57,3.57,0,0,0-.94,1.42,2.55,2.55,0,0,1-1.51,1.35c-.34.15-1-.51-.82-.8.38-.56.24-1.39.72-1.75s.37-1.24,1.17-1.26c.06,0,.19-.31.15-.43-.17-.4-.29,0-.44,0-.51.08-1.5-.41-1.6-.85-.05-.25-.2-.6.3-.83a3.91,3.91,0,0,1,1.6-.32c.71,0,.71,0,1-1C107.35,20.3,107.43,19.88,107.58,19.23Zm-.47-4.73c0,.76,0,1.38,0,2s.72.35.93.73c.26-.18.69-.3.76-.54a18.13,18.13,0,0,0,.39-2.19Z"/><path class="cls-1" d="M121.82,17.64c.05.53,1,1,.28,1.69a2.25,2.25,0,0,1-1.63.68,1.3,1.3,0,0,0-.82.45c-.09.09.08.47.2.68.3.53-.48,1.07.05,1.59-.66.93.35,1.87,0,2.81.56.42,0,.84,0,1.26s-.42.68-.88.83-.64.13-.74-.14c0,0-.09-.08-.09-.13a5.65,5.65,0,0,1,0-1.54c.12-.43-.43-.62-.15-1.15s-.18-1.12-.21-1.7c0-.85,0-1.7,0-2.68a19,19,0,0,0-2.28.47,1,1,0,0,0-.31.9,3.61,3.61,0,0,1,.53,1.86c0,.08.11.17.17.27.18.29.84.49.39.93a2.48,2.48,0,0,1-1.4.69c-.28,0-.8-.54-.85-.89C114,24,114,23.4,113.46,23c0,0,0-.17,0-.23a1.12,1.12,0,0,0,0-1.52c.43-.55.17-1-.28-1.33,0,0,.09-.25.06-.35-.23-.63.88-1.09.22-1.77a12.63,12.63,0,0,1,.68-1.19A6.22,6.22,0,0,1,117.45,14c.67-.29,1.21-.16,1.41.34s-.11,1-.84,1.18-1.31.21-1.26,1.15c0,.18-.33.51-.56.56-1,.21-.79.93-.78,1.56.43,0,1-.21,1.28,0,.55.32.81-.4,1.34-.19.32.13.81-.26,1.22-.27s.74-.35,1.26-.16C120.85,18.24,121.38,17.82,121.82,17.64Z"/><path class="cls-1" d="M124.23,20.33l-.16-.2c.08,0,.2-.08.21-.06a.76.76,0,0,1,.11.26Z"/><path class="cls-1" d="M29.69,16.88c-.16.79-.38,1.58-.46,2.38-.05.56-1.16.25-.82,1.15.08.21-.54.71-.88,1.05a11.24,11.24,0,0,1-1.2,1.09,10.73,10.73,0,0,1-3.49,1.34,6.2,6.2,0,0,1-1.09-.22c-.36,0-.67,0-.73-.53-.05-.4-.35.12-.45.08A21.63,21.63,0,0,1,18.15,22a11.13,11.13,0,0,1-1.8-1.42,1.7,1.7,0,0,1-.46-.89c-.11-.56.38-1.13,0-1.7a8.77,8.77,0,0,0,.77-2.8A1.88,1.88,0,0,1,17.41,14c1.1-.51,1.88-1.5,3.15-1.76a6.41,6.41,0,0,1,2.53-.27c.41,0,1,.08,1.21-.15.53-.45.65.51,1.05.19.28.46.79.2,1.14.36a4.16,4.16,0,0,1,1.74,1.08C29,14.41,30,15.39,29.69,16.88Z"/><path class="cls-1" d="M29.21,33.26c-.47-.11-.79-.2-1.12-.26a1.16,1.16,0,0,0-.36,0l-1.14.51c-.58-.59-1.14.13-1.74,0a12.64,12.64,0,0,0-2.22,0,9.05,9.05,0,0,1-2,0c-.46-.12-.64.61-1.07.19s-.6.12-.9.18a4,4,0,0,1-1.65,0,1.15,1.15,0,0,1-.72-.66,1.63,1.63,0,0,1,0-1.25c.49-.61.3-1.26.33-1.89a10.7,10.7,0,0,1,2.08-5A1.12,1.12,0,0,1,20.31,25c.73.59,1.74.26,2.42.89.91-.59,2.2-.18,3-.83s1,.3,1.62.12.44.46.56.7A9.92,9.92,0,0,1,29.22,31C29.16,31.69,29.21,32.41,29.21,33.26Z"/></g></svg>