<svg xmlns="http://www.w3.org/2000/svg" viewBox="0 0 249.11 45.02"><defs><style>.cls-1{fill:#fff;}</style></defs><g id="レイヤー_1" data-name="レイヤー 1"><path d="M134.31,31.64c-.48.3.31.46.05.9a3,3,0,0,0-.14,2.52,6.08,6.08,0,0,0,.74,1.43c.63.77-.44,1.19-.34,1.81,0,.32,0,.69.19.94a5.44,5.44,0,0,1,.87,3.38c0,1.44,2.07,2.58,3.93,2.32.51-.7,1.11.44,1.62,0s1.45-.2,2.18-.3c.49-.07,1.23.06,1.44-.16.63-.63,1.18.2,1.65,0a1.5,1.5,0,0,1,1.8.11.82.82,0,0,0,.67,0,.92.92,0,0,1,1.45.08c.41-.45,1-.4,1.6-.39h2.85c.86,0,1.73,0,2.59,0s1.65.05,2.42.09,1.8-.38,2.39-.05a5.65,5.65,0,0,0,2.94.34c5.44,0,10.89,0,16.34,0,.63,0,1.36-.26,1.94.24a.87.87,0,0,0,.68.13A6.28,6.28,0,0,1,189,45a1.91,1.91,0,0,0,1,0,15.6,15.6,0,0,1,6.63,0c.26,0,.59-.18.88-.16s.66.17,1,.21a3.24,3.24,0,0,0,1,0c.61-.15,1.25-.72,1.81-.34.79.54,1.25-.26,2-.1a6.36,6.36,0,0,0,2.57,0c.77-.15,1.25.34,2,.25s1.42.2,2.07-.21a.29.29,0,0,1,.24,0c.7.6,1.45.39,2.3.2.67-.14,1.45,0,2.12-.1a8.77,8.77,0,0,0,2.58-.52c.73-.41,1.55.63,2.38,0,1.23.7,2.64.27,4,.32.46,0,.79-.65,1.51-.16.24.16,1-.17,1.48-.2.77,0,1.55,0,2.33,0s1.77-.23,2.28,0c.82.47,1.36-.23,2,0a2.67,2.67,0,0,0,1.91,0c.54.63,1.15-.21,1.63,0,1.6.78,3.34.19,5,.39.83-.74,1.59-.08,2.38.08a14.78,14.78,0,0,0,2.14-.21l2.56-3.22a1.15,1.15,0,0,1-.11-.29,5.94,5.94,0,0,1-.21-2.52c.32-.91-.28-1.67-.11-2.52s0-1.89.06-2.83-.55-1.76.49-2.47c-.26-.82-1.08-1.64-.05-2.48a3.19,3.19,0,0,1,0-3.55c-1-.71,0-1.38.07-2.07-1.27-.7.44-1.37,0-2.11-.19-.36.77-.84,0-1.27-.12-1.43.36-2.91-.52-4.28.84-.7-.28-1.36-.06-2.11s-.08-1.76.11-2.61c.11-.5-.85-.78-.18-1.35.49-.4-.18-1.14.55-1.65.26-.19.29-1,.06-1.12-.7-.4.11-.92-.39-1.42s-.11-1.29-.09-2A2.85,2.85,0,0,0,246.76.28a.77.77,0,0,0-.52-.07C245.67.8,245,0,244.83.14c-.73.68-1.18-.15-1.73-.1-1,.09-2-.32-2.94.35-.4.29-1.24-.06-1.92.29-.36.18-1.28-.37-1.74-.21a14.22,14.22,0,0,1-4.21.37c-.52,0-1.24.4-1.5.25a2.08,2.08,0,0,0-1.68-.22c-.79.3-1.76.64-2.35.3-.91-.52-1.46.44-2.23.08a3.32,3.32,0,0,0-1.36-.33c-.43,0-.88.3-1.31.29s-1.22-.43-1.29-.35c-.72.78-1.68,0-2.56.29a4,4,0,0,1-3.17-.23,2.29,2.29,0,0,0-1.37.16A1.53,1.53,0,0,1,211.86,1c-.16-.11-.58-.21-.66-.14-1,.8-2.3.24-3.44.37a3,3,0,0,1-1.7-.23c-.37-.18-1.16.23-1.76.23s-1.54-.44-2-.24a1.79,1.79,0,0,1-2-.12.86.86,0,0,0-.66.12c-.57.51-1.47,0-1.91.3-.77.54-1.28-.26-2-.06s-1.39.47-1.78.29c-1.78-.84-3.93.4-5.61-.67-.64.69-1.61.45-2.37.36s-1.58.64-2.4.1c-.26.75-.81-.25-1.34.15-.37.28-1.27.19-1.94.18-.5,0-1.26-.35-1.47-.19-.8.61-1.17-.3-1.77-.2s-1,.17-1.45.2c-.81.06-1.62.09-2.44.1-.18,0-.49-.21-.53-.17-.65.56-1.47.17-2.2.27a3.68,3.68,0,0,1-2.12-.4c-.61-.29-1.14.57-1.95.05-.46-.3-1.43,0-2.09-.44s-1.25.69-1.89,0c-.37.62-1.13.13-1.72.32-.75.24-1.8-.17-2.7-.1-.56,0-1.07-.23-1.68,0a4.09,4.09,0,0,1-1.73.13c-.53,0-1.3-.45-1.52-.29a2.85,2.85,0,0,1-1.68.3,15.61,15.61,0,0,1-1.81,0c-.21,0-.38-.29-.6-.33-.61-.11-1.22-.65-1.87-.06a62.05,62.05,0,0,0-9.57.51L136,3.22c-.08.1-.27.27-.26.27,1.07.74.24,1.76.63,2.64.29.63.8,1.56.28,2.15s-.34,1.26-.44,1.89a5.51,5.51,0,0,1,0,1c-.17.48-.6.92-.68,1.39a7.62,7.62,0,0,0,.18,1.56c0,.61,0,1.22,0,1.82s.28,1.25-.06,1.59c-.62.62.35,1,.07,1.52-.12.23,0,.58-.2.74-.47.38-.24.6,0,1s0,1-.05,1.48c0,.31-.24.61-.26.92-.07.72.22,1.5-.82,2-.08,0-.13.24-.08.27a1.15,1.15,0,0,1,.29,1.67c-.6.7.3,1.16.09,1.73s.22.94-.42,1.3a.43.43,0,0,0,0,.52C134.58,31,134.89,31.29,134.31,31.64Z"/><path d="M144.26,31.64c.61.3-.38.46-.06.9a2.46,2.46,0,0,1,.18,2.52,5.69,5.69,0,0,1-.94,1.43c-.79.77.56,1.19.44,1.81-.06.32,0,.69-.24.94a4.6,4.6,0,0,0-1.09,3.38c-.05,1.44-2.61,2.58-5,2.32-.64-.7-1.39.44-2,0s-1.82-.2-2.73-.3c-.62-.07-1.55.06-1.81-.16-.8-.63-1.49.2-2.08,0a2.27,2.27,0,0,0-2.26.11,1.27,1.27,0,0,1-.84,0,1.36,1.36,0,0,0-1.83.08,2.86,2.86,0,0,0-2-.39h-3.58c-1.09,0-2.18,0-3.26,0s-2.08.05-3,.09-2.28-.38-3-.05a8.79,8.79,0,0,1-3.69.34c-6.85,0-13.69,0-20.53,0-.81,0-1.72-.26-2.45.24a1.32,1.32,0,0,1-.85.13,9.87,9.87,0,0,0-6,0,3,3,0,0,1-1.25,0,24.52,24.52,0,0,0-8.33,0c-.33,0-.74-.18-1.11-.16s-.83.17-1.25.21a5.14,5.14,0,0,1-1.3,0c-.77-.14-1.58-.72-2.28-.34-1,.54-1.57-.26-2.47-.1a10,10,0,0,1-3.23,0c-1-.15-1.58.34-2.53.25s-1.78.2-2.6-.21a.45.45,0,0,0-.3,0,3.64,3.64,0,0,1-2.89.2c-.84-.14-1.82,0-2.67-.1a13.37,13.37,0,0,1-3.23-.52c-.92-.41-2,.63-3,0-1.56.7-3.32.27-5,.32-.57,0-1-.65-1.89-.16-.3.16-1.22-.17-1.86-.2-1,0-1.95,0-2.93,0a9.59,9.59,0,0,0-2.87,0c-1,.47-1.71-.23-2.44,0a4.2,4.2,0,0,1-2.41,0c-.68.63-1.45-.21-2.05,0-2,.78-4.19.19-6.26.39-1.05-.74-2-.08-3,.08a23.09,23.09,0,0,1-2.69-.21L.56,41.24A1.34,1.34,0,0,0,.71,41c.12-.84.6-1.75.26-2.52s.36-1.67.14-2.52A26.67,26.67,0,0,1,1,33.08c-.12-.83.69-1.76-.62-2.47.34-.82,1.36-1.64.07-2.48a2.65,2.65,0,0,0,0-3.55c1.29-.71.06-1.38-.08-2.07,1.6-.7-.55-1.37,0-2.11.25-.36-1-.84,0-1.27.14-1.43-.45-2.91.65-4.28-1-.7.36-1.36.07-2.11S1.24,11,1,10.13c-.14-.5,1.08-.78.23-1.35-.61-.4.23-1.14-.68-1.65C.2,6.94.17,6.14.46,6c.88-.4-.14-.92.49-1.42s.13-1.29.11-2C1,1.63,1.86.91,3,.28A1.22,1.22,0,0,1,3.61.21C4.33.8,5.15,0,5.38.14,6.3.82,6.87,0,7.56,0c1.22.09,2.5-.32,3.69.35.5.29,1.56-.06,2.41.29.46.18,1.62-.37,2.18-.21a22.46,22.46,0,0,0,5.3.37c.66,0,1.55.4,1.89.25A3.21,3.21,0,0,1,25.14.87a4.87,4.87,0,0,0,2.95.3c1.14-.52,1.84.44,2.8.08A5,5,0,0,1,32.6.92c.55,0,1.1.3,1.64.29S35.78.79,35.87.86c.9.78,2.12,0,3.21.29a6.22,6.22,0,0,0,4-.23,3.56,3.56,0,0,1,1.72.16,2.34,2.34,0,0,0,2-.09,1.5,1.5,0,0,1,.84-.14c1.3.8,2.89.24,4.32.37A4.55,4.55,0,0,0,54.1,1c.47-.18,1.46.23,2.21.23S58.25.78,58.87,1A2.73,2.73,0,0,0,61.4.86a1.36,1.36,0,0,1,.84.12c.71.51,1.83,0,2.39.3,1,.54,1.61-.26,2.46-.06a5.13,5.13,0,0,0,2.22.29c2.25-.84,4.94.4,7.06-.67.81.69,2,.45,3,.36s2,.64,3,.1c.33.75,1-.25,1.68.15a6.31,6.31,0,0,0,2.44.18c.64,0,1.59-.35,1.85-.19,1,.61,1.47-.3,2.23-.2.6.07,1.2.17,1.81.2,1,.06,2,.09,3.07.1.23,0,.62-.21.67-.17.81.56,1.85.17,2.77.27a5.63,5.63,0,0,0,2.66-.4c.77-.29,1.43.57,2.45.05.58-.3,1.79,0,2.63-.44.66-.37,1.57.69,2.37,0,.46.62,1.42.13,2.17.32.94.24,2.26-.17,3.39-.1a6.75,6.75,0,0,1,2.1,0,6.42,6.42,0,0,0,2.17.13c.68,0,1.64-.45,1.92-.29a4.53,4.53,0,0,0,2.11.31c.76,0,1.52,0,2.28,0,.26,0,.47-.29.74-.33.78-.11,1.54-.65,2.36-.06a97.87,97.87,0,0,1,12,.51l1.92,1.88c.1.1.33.27.32.27-1.34.74-.3,1.76-.79,2.64-.36.63-1,1.56-.35,2.15s.43,1.26.55,1.89c.07.33-.08.69.06,1,.21.48.75.92.85,1.39s-.19,1-.23,1.56,0,1.22,0,1.82-.35,1.25.07,1.59c.78.62-.43,1-.09,1.52.16.23,0,.58.26.74.59.38.3.6,0,1s0,1,.06,1.48c.05.31.3.61.33.92.08.72-.28,1.5,1,2,.09,0,.16.24.1.27a1,1,0,0,0-.36,1.67c.75.7-.38,1.16-.12,1.73s-.28.94.52,1.3a.37.37,0,0,1,0,.52C143.92,31,143.54,31.29,144.26,31.64Z"/></g><g id="レイヤー_2" data-name="レイヤー 2"><path class="cls-1" d="M112.67,18.14a5.41,5.41,0,0,1-3,.66,7.17,7.17,0,0,0-1.91.37c-.1,0-.19.41-.14.6a14.69,14.69,0,0,0,.47,1.42h1.5a5.3,5.3,0,0,1,.69,0c.73.1,1.53.71,1.47,1.1s-1,.92-1.61,1-1.19-.48-1.76.13c-.07.57,1.13,1,.29,1.73.12.07.25.2.37.19.48,0,.91.28,1.46.05a4.11,4.11,0,0,1,1.53,0c.22,0,.53,0,.64.09a1.62,1.62,0,0,1,.43.84.82.82,0,0,1-.4.66,10.89,10.89,0,0,1-1.87.47c-.53.09-1-.26-1.63,0a6.06,6.06,0,0,1-1.71,0c-.32,0-.63.15-1,.19s-.41-.09-.61-.06-.74.05-.92.25c-.58.65-.83.07-1.22-.21-.56-.41-.28-.74,0-1.11a1.32,1.32,0,0,0,.13-.44c.62,0,1.2,0,1.77,0,.37,0,.7-.5,1.08-.05.28-.46,0-.77-.18-1.2-.51-1.2-.56-1.45-1.36-1.12s-1-.09-1.29-.45-.16-.74.28-1c.15-.08.25-.23.4-.3,1-.54,1.07-.54,1.07-.73A1.73,1.73,0,0,1,106.2,20c.07-.08-.07-.45-.22-.55s-.56-.29-.67-.2c-.43.35-.76.22-1.21.05s-.78.15-1.18.17a.59.59,0,0,1-.47-.29,13.32,13.32,0,0,1-.51-1.34,9.79,9.79,0,0,1,1.1-.07,1,1,0,0,0,1-.43c.27-.41.4-.06.62.06s.32,0,.45-.11.08-.22,0-.31c-.09-.25-.16-.57-.35-.71a2.16,2.16,0,0,1-.63-2.3h1.27c.21,0,.17.05.47.81a12.39,12.39,0,0,0,.73,1.2,7.11,7.11,0,0,1,.38,1.05,12.73,12.73,0,0,0,1.63-.1,8.09,8.09,0,0,1,2.89.18C111.94,17.17,112.21,17.68,112.67,18.14Z"/><path class="cls-1" d="M125.65,20a3.64,3.64,0,0,1-2.4-.18c-.26-.06-.5-.09-.24.42a1.78,1.78,0,0,1-.31,2c-.41.53-.57,1.25-1.13,1.77-.41.38-.13,1,.43,1.38a8.11,8.11,0,0,0,2.9,1.35c.38.06.69.52,1.09.85-.27.09-.56.1-.66.24-.71,1-1.57.63-2.36.22s-1.54-1-2.26-1.42c-.5.66-.94,1.21-1.35,1.78a5.5,5.5,0,0,1-.7.88c-.4.19-1,0-1-.4s-.18-1,0-1.18c.61-.66.57-1.68,1.34-2.2-.63-.81-1.67-1.2-2.14-2.16-1-.17-.57-.85-.55-1.38a1.67,1.67,0,0,1,2,.47c.46.56,1.53.18,1.61,1.42.3-1.63,1.74-2.44,2-4.11-1.16.21-2.21-.23-3.24.29-.89-.4-1.83-.14-2.74-.27-.2,0-.39-.44-.5-.71,0-.11.09-.39.22-.47a2.51,2.51,0,0,1,1.68-.52,2.76,2.76,0,0,0,.86,0c.33,0,.68-.76.46-.91-.72-.47-.62-1.15-.61-1.83a1.45,1.45,0,0,0,0-.51c-.07-.25-.37-.57-.29-.7a2.92,2.92,0,0,1,.84-.84s.33.46.59.05c.08.08.2.15.25.25.4.81.1,1.87.94,2.56.18.14.07.64.1,1,.08.79.26.9,1.12.72a1.72,1.72,0,0,1,.59.06c.31,0,.73.24.91.1s.41-.17.64.05a1.84,1.84,0,0,0,.7.38c.26.08.7,0,.78.13A8.36,8.36,0,0,1,125.65,20Z"/><path class="cls-1" d="M144.4,16.49c-1.24-.18-2.21-.32-3.18-.48a1.45,1.45,0,0,1-.57-.28c-.34-.26-.31-.54.06-.75l1.71-.94c.72.66.72.66,2-.07.55.33.79,1.1,1.63,1.06.2,0,.42.54.62.83-.55.35-.1,1.18-.39,1.34-.46.25-.45.53-.48.89-.68-.26-.3.8-.9.71-.15,0-.34.25-.52.38l-.53.39c.5.5.93.89,1.31,1.32s1,.3,1,.95c1.18.3.89,1.47,1.2,2.22a3.62,3.62,0,0,1,0,2.21A2.7,2.7,0,0,1,146,28.09c-.72.34-1.47.62-2.2.92l-1.44-.17c-.6-.31-1.38-.32-1.63-1.16-.15-.5-1-.78-.66-1.43s.54-1.71,1.62-2.09A2.92,2.92,0,0,1,144,23.9a8.13,8.13,0,0,0,1.29.07c-.6-1.06-1-2-2.33-2.17-.33,0-.65-.37-.94-.61a1.31,1.31,0,0,1-.14-2c.31-.36.56-.78.89-1.11s.78-.61,1.16-.94A4.37,4.37,0,0,0,144.4,16.49Zm.8,9.64c-1.45-1-2-1-2.84-.12a1,1,0,0,0-.15.88,1,1,0,0,0,.9.37C143.84,27,144.82,27.16,145.2,26.13Z"/><path class="cls-1" d="M137.74,17.73c-.62-.16-1,.3-1.56.15-.38-.11-.87.18-1.29.28.66,1,.22,1.95.34,2.88-1,1.12.25,1.74.57,2.57.07.19,1.21,2,1.16,2.07-.54.42,0,1-.27,1.5a.48.48,0,0,0,0,.45c.54.57,0,.45-.29.46-.47,0-.68-.28-.82-.68a7.68,7.68,0,0,0-.5-1.34c-.17-.32-.7-.51-.26-1-.45-.08,0-.86-.68-.8-.24,0-.68-.74-.64.2-.53.37-1.31.4-1.59,1.17a1.65,1.65,0,0,1-1.09-.12,8.65,8.65,0,0,1-1.77-1.47,1.81,1.81,0,0,1-.35-1.21,8.55,8.55,0,0,1,.38-1.55c.73.05.89-1,1.74-.84.69.13,1.41-.82,2.15,0,0,0,.17-.1.19-.18a9.57,9.57,0,0,0,.34-1.57c0-.73-.59-1.25-1.2-.91s-.85.45-1.33,0c-.09-.08-.38,0-.57.1s-.41.18-.43.15c-.27-.4-.73,0-.86-.13s-1.05-.08-.74-.65.26-1.27,1.1-1.28h2.41a1.59,1.59,0,0,0,1.22-.41c.62-.55,1-.46,1.42.35.22.43.37.57.67.25.62-.65,1.31.3,1.9-.14a2.37,2.37,0,0,1,.22.33C137.43,16.75,137.54,17.11,137.74,17.73Zm-7,6.08c.63-.36,1.06-.58,1.46-.85s.37-.45.08-.69-.24-.56-.63-.17c-.19.19-.6.16-.91.24Z"/><path class="cls-1" d="M95.58,16.9c.16-.3.29-.81.45-.82a3.15,3.15,0,0,1,2,.14,3.21,3.21,0,0,0,1.86.52,5.35,5.35,0,0,1,1.47.43v1.51c-.84.37-1.59-.13-2.38-.25-.51-.09-1.3.41-1.44-.6,0,0-.2-.06-.3-.08A2.16,2.16,0,0,1,95.58,16.9Z"/><path class="cls-1" d="M98.4,21.54c.67.08,1.71.2,2.74.35.4.06.5.48.26.93-.45.83-.49.94-1.33.61-.49-.19-.59.45-1,.19a2.35,2.35,0,0,0-1-.33c-.3,0-.59.28-.89.3s-.5-.32-.72-.29c-.74.12-.4-.73-.83-.85a4.44,4.44,0,0,1,1.08-.88A6.21,6.21,0,0,1,98.4,21.54Z"/><path class="cls-1" d="M96.3,28.69c-.54-.93.49-1.44.67-2.19,0-.07.29-.1.44-.13A3.78,3.78,0,0,0,100,24.86a.91.91,0,0,1,.74-.19,8.47,8.47,0,0,1,1.27.47c-.05.07-.17.16-.19.27-.24,1.33-1.46,1.47-2.37,2-.09.05-.27,0-.33,0A6,6,0,0,1,96.3,28.69Z"/></g></svg>