<svg xmlns="http://www.w3.org/2000/svg" viewBox="0 0 251.16 46.88"><defs><style>.cls-1{fill:#fff;}</style></defs><g id="レイヤー_1" data-name="レイヤー 1"><path d="M127.92,2.49c-.17-.21-.5-.43-.46-.62.15-.74-.66-1.05-1.2-1.49-.76-.61-1.1.23-1.68.21a.83.83,0,0,1-.5-.12c-.58-.62-1.52.75-2-.18a2.45,2.45,0,0,1-.62.23c-1.44.17-2.94.23-4.33.52-.8.17-1.43-.82-2.14,0-.81-.73-1.54.31-2.44,0a9,9,0,0,0-2.47-.22c-.69,0-1.34-.14-2-.2-1-.08-1.93,0-2.89,0s-1.75.23-2.36-.39c-.82,1-1.61-.18-2.43,0-1.59.34-3.33-.75-4.88.24-.09,0-.39-.08-.6-.1A5.56,5.56,0,0,0,93,.24a10.65,10.65,0,0,1-5.46.14c-.49-.08-.68,0-.82.16-.49.63-1,.16-1.52.06s-.91.89-1.7.25a1,1,0,0,0-1.2-.08,2.87,2.87,0,0,1-2.35,0,2.22,2.22,0,0,0-1-.19c-1.12.22-2.2.85-3.3,0-2,.86-4.09.19-6.13.39-.9.08-1.91-.18-2.65.41-1.38-.41-2.76,1.08-4.17,0a.75.75,0,0,0-.55,0c-1.21.84-2.39,0-3.58,0s-2.56.27-3.41-.09-1.94.61-2.58-.25a17.32,17.32,0,0,0-2.73.6c-.53.21-.81-.58-1.32,0-.13.15-1.16-.19-1.51,0a1.31,1.31,0,0,1-1.45-.15c-.17-.09-.65.18-1,.15-.56-.06-1.17.07-1.63,0a6.08,6.08,0,0,0-3.75.11,1.81,1.81,0,0,1-1-.13c-.61-.2-1.1.59-1.88,0-.37-.28-1.42-.13-2.17-.18a4.5,4.5,0,0,1-1.9-.25c-.31-.15-1.09.2-1.67.24-2.71.19-5.5-.37-8.17.39a2.19,2.19,0,0,1-1-.2,3.11,3.11,0,0,0-2.36,0c-.43.21-1.09-.42-1.45.17-.32-.1-.78-.36-.94-.29-.88.39-1.66-.38-2.36-.08s-1.46.62-1.74.34c-.57-.55-1.16.05-1.76-.24-.86-.41-2.17.1-3.1-.46-.56.57-1.43.19-2.11.35A13.64,13.64,0,0,0,4,2.08c-2.19.83-2.51,1.39-1.81,3.06.12.3.31.8.11.93-1.15.7.1,1.83-1,2.5.92.82.45,1.65.07,2.48,1.25.52-.22,1.17.19,1.84a2.32,2.32,0,0,1,.13,2.34,4,4,0,0,0-.46,2.69c.08,1.23-.45,2.48.47,3.71.28.39-.95,1-.22,1.77.36.38-.32,1.24-.53,1.88-.08.23-.32.63-.23.67,1,.43-.14,1.05.11,1.25.64.53.32.81-.2,1.16.82.36.53.94.56,1.45a3.53,3.53,0,0,1,0,1.62A10,10,0,0,0,.63,36.2c.06,1.23-.5,2.5.51,3.69.22.26-.82.67,0,1.11.12.06-.63.77-.47,1,.34.44.2.72,0,1.12S.51,44,.21,44.39c-.57.66.19,1.08.37,1.61s.91.27,1.37.38a9.18,9.18,0,0,1,1.77.42c.68.32.82-.5,1.69-.21a5.83,5.83,0,0,0,3.05-.3c1-.35,2.25.64,3.15-.3a5.8,5.8,0,0,1,1.24.25c.26,0,.68.18.76.12,1-.75,2.19-.35,3.27-.35a10.2,10.2,0,0,0,2.65,0c1,1,1.76-.5,2.77-.1.61.24,1.48-.2,2.17.27a1.86,1.86,0,0,0,1.29.12c1-.79,1.86-.18,2.75,0,.31.08.81.33.84.3.74-.72,1.4.21,1.89.06a4.21,4.21,0,0,1,1.87,0,10.54,10.54,0,0,0,4.13-.31c.37-.11,1.07.63,1.89,0,.25-.19,1.53.35,1.85.15.79-.46,1.54.16,1.6.11.55-.45,1.23-.3,1.87-.34a20.22,20.22,0,0,0,2.48-.22c.67-.12,1.51.72,2-.17.32.66.95,0,1.45.15s1.2-.2,1.55,0c1.27.59,2.61.16,3.9.26.38,0,1.1-.41,1.16-.35.68.61,1.24.07,1.89,0,1.25-.06,2.62-.4,3.88.24a6.54,6.54,0,0,0,1.66.1c.72.08,1.31-.58,2.19-.06.3.18,1.33-.78,2.05,0a2.8,2.8,0,0,1,3,0,7.57,7.57,0,0,1,3.52-.4c.37,0,.9,0,1.07.11.53.43.75.09,1.06-.12s.53-.53,1-.11a1.54,1.54,0,0,0,1,.09c.67-.74,1.55,0,2.32-.19a14.91,14.91,0,0,1,3.07-.17,10.19,10.19,0,0,1,2.78.18,10.39,10.39,0,0,0,2.82-.19c1.06,0,2.13,0,3.19,0s2-.46,3,0c.28.11.85-.13,1.29-.19s1.08-.29,1.31-.16c1.3.72,2.77.22,4.13.38,1,.11,2.12-.32,3,.39a1.19,1.19,0,0,0,.74-.15c.62-.53.82.35,1.37.17a5.51,5.51,0,0,1,1.77-.38c.54,0,1,.72,1.65.13.85-.73,1.14.43,2,.29a11.67,11.67,0,0,1,3.73,0,2.82,2.82,0,0,0,1.85-.07,6.46,6.46,0,0,1,3.77-.29c.27,0,.44.39.83.06.66-.57,1.29-1.17,1-1.91-.12-.34-.67-.54,0-.91s-1.17-.66-.11-1.1c-.56-.77.36-1.47.18-2.26a11.55,11.55,0,0,1,0-2.63V33.07c0-.34-.2-.83,0-1,1.33-.83-.28-2.16,1.12-2.93-1-.54-.63-1.11-.07-1.67-1-.6-.38-1.39-.47-2.09a1.33,1.33,0,0,1,.45-1.49c.65-.53-.5-1-.48-1.61,0-.07,0-.15,0-.2,1.16-1.65.33-3.41.57-5.1.06-.4-.23-1,.06-1.19,1-.78.55-1.69.46-2.49s.44-1.62.17-2.52-.68-1.86.42-2.67c-1-.87-.32-1.9-.5-2.85,0-.08.31-.18.35-.29.11-.34-.29-.65.15-1.06S127.09,2.87,127.92,2.49Z"/><path d="M112.57,2.49c.18-.21.54-.43.5-.62-.16-.74.72-1.05,1.3-1.49.82-.61,1.2.23,1.82.21a.94.94,0,0,0,.54-.12c.63-.62,1.65.75,2.19-.18a2.66,2.66,0,0,0,.67.23c1.57.17,3.18.23,4.69.52.87.17,1.55-.82,2.32,0,.88-.73,1.68.31,2.64,0a10.6,10.6,0,0,1,2.68-.22c.75,0,1.45-.14,2.17-.2,1-.08,2.09,0,3.13,0s1.89.23,2.56-.39c.88,1,1.74-.18,2.62,0,1.73.34,3.62-.75,5.3.24.09,0,.42-.08.65-.1a6.51,6.51,0,0,1,2.08-.09,12.45,12.45,0,0,0,5.91.14c.53-.08.74,0,.89.16.53.63,1.09.16,1.65.06s1,.89,1.84.25A1.1,1.1,0,0,1,162,.77a3.33,3.33,0,0,0,2.54,0,2.65,2.65,0,0,1,1.12-.19c1.2.22,2.37.85,3.57,0,2.1.86,4.43.19,6.63.39,1,.08,2.07-.18,2.88.41,1.5-.41,3,1.08,4.51,0a.88.88,0,0,1,.6,0c1.31.84,2.59,0,3.89,0s2.77.27,3.69-.09,2.1.61,2.79-.25a20.12,20.12,0,0,1,3,.6c.57.21.88-.58,1.43,0,.14.15,1.25-.19,1.63,0a1.53,1.53,0,0,0,1.58-.15c.18-.09.7.18,1,.15.6-.06,1.27.07,1.76,0a7.1,7.1,0,0,1,4.06.11,2.1,2.1,0,0,0,1-.13c.67-.2,1.2.59,2,0,.41-.28,1.54-.13,2.35-.18a5.28,5.28,0,0,0,2.06-.25c.33-.15,1.18.2,1.81.24,2.94.19,5.95-.37,8.85.39a2.58,2.58,0,0,0,1.1-.2,3.61,3.61,0,0,1,2.55,0c.46.21,1.18-.42,1.57.17.35-.1.85-.36,1-.29.94.39,1.79-.38,2.55-.08s1.58.62,1.89.34c.61-.55,1.25.05,1.91-.24.92-.41,2.34.1,3.35-.46.61.57,1.55.19,2.29.35a15.6,15.6,0,0,1,1.77.65c2.37.83,2.72,1.39,2,3.06-.14.3-.34.8-.12.93,1.24.7-.11,1.83,1.06,2.5-1,.82-.48,1.65-.07,2.48-1.35.52.24,1.17-.21,1.84a2.17,2.17,0,0,0-.13,2.34,3.72,3.72,0,0,1,.49,2.69c-.09,1.23.49,2.48-.5,3.71-.32.39,1,1,.23,1.77-.39.38.35,1.24.58,1.88.08.23.34.63.24.67-1.05.43.15,1.05-.11,1.25-.7.53-.35.81.21,1.16-.89.36-.58.94-.61,1.45a3.4,3.4,0,0,0,0,1.62,9.12,9.12,0,0,1,.56,4.77c-.06,1.23.54,2.5-.55,3.69-.24.26.89.67,0,1.11-.13.06.7.77.52,1-.37.44-.22.72,0,1.12s.12.93.45,1.29c.61.66-.21,1.08-.41,1.61s-1,.27-1.48.38a10.64,10.64,0,0,0-1.92.42c-.73.32-.89-.5-1.83-.21a6.84,6.84,0,0,1-3.31-.3c-1.13-.35-2.44.64-3.41-.3a6.74,6.74,0,0,0-1.34.25,2.75,2.75,0,0,1-.83.12c-1-.75-2.37-.35-3.53-.35a12,12,0,0,1-2.88,0c-1.06,1-1.9-.5-3-.1-.66.24-1.6-.2-2.35.27a2.17,2.17,0,0,1-1.4.12c-1.07-.79-2-.18-3,0-.33.08-.88.33-.9.3-.8-.72-1.52.21-2.05.06a5,5,0,0,0-2,0,12.37,12.37,0,0,1-4.48-.31c-.4-.11-1.15.63-2,0-.27-.19-1.66.35-2,.15-.85-.46-1.66.16-1.73.11a3.43,3.43,0,0,0-2-.34,23.62,23.62,0,0,1-2.68-.22c-.73-.12-1.63.72-2.19-.17-.35.66-1,0-1.57.15s-1.31-.2-1.69,0c-1.37.59-2.82.16-4.22.26-.41,0-1.19-.41-1.25-.35-.74.61-1.35.07-2.05,0-1.36-.06-2.84-.4-4.2.24a7.74,7.74,0,0,1-1.8.1c-.78.08-1.42-.58-2.38-.06-.32.18-1.43-.78-2.22,0a3.25,3.25,0,0,0-3.26,0,8.81,8.81,0,0,0-3.81-.4,2.67,2.67,0,0,0-1.16.11c-.58.43-.82.09-1.14-.12s-.59-.53-1.15-.11a1.78,1.78,0,0,1-1.12.09c-.73-.74-1.68,0-2.51-.19a17.56,17.56,0,0,0-3.34-.17,11.86,11.86,0,0,0-3,.18,12.2,12.2,0,0,1-3.06-.19c-1.15,0-2.3,0-3.45,0s-2.13-.46-3.27,0c-.31.11-.93-.13-1.4-.19s-1.17-.29-1.42-.16c-1.41.72-3,.22-4.48.38-1.07.11-2.29-.32-3.22.39a1.35,1.35,0,0,1-.79-.15c-.68-.53-.9.35-1.49.17a6.42,6.42,0,0,0-1.92-.38c-.58,0-1,.72-1.79.13-.92-.73-1.23.43-2.16.29a13.68,13.68,0,0,0-4,0,3.27,3.27,0,0,1-2-.07,7.53,7.53,0,0,0-4.08-.29c-.3,0-.48.39-.9.06-.72-.57-1.4-1.17-1.13-1.91.13-.34.73-.54,0-.91s1.27-.66.13-1.1c.6-.77-.39-1.47-.19-2.26a11,11,0,0,0,.05-2.63V33.07c0-.34.22-.83,0-1-1.43-.83.31-2.16-1.21-2.93,1.08-.54.68-1.11.07-1.67,1.07-.6.42-1.39.52-2.09a1.28,1.28,0,0,0-.49-1.49c-.7-.53.54-1,.52-1.61,0-.07,0-.15,0-.2-1.25-1.65-.35-3.41-.61-5.1-.06-.4.25-1-.07-1.19-1.12-.78-.59-1.69-.49-2.49s-.48-1.62-.19-2.52.74-1.86-.45-2.67c1.1-.87.34-1.9.54-2.85,0-.08-.34-.18-.38-.29-.12-.34.32-.65-.16-1.06S113.47,2.87,112.57,2.49Z"/></g><g id="レイヤー_2" data-name="レイヤー 2"><g id="NtZm0Z"><path class="cls-1" d="M134.83,18.93c1,2.66.83,3.14-1.55,4.69,0,0,.09.12.13.12.8-.07,1.66-.56,2.35.29.59-.66,1.12-.06,1.52.19,1.06.65,1.14,1,1.13,2.84a.86.86,0,0,0,.28.56c.39.37-.66.75,0,1.08a4,4,0,0,1-.57.59,1.63,1.63,0,0,1-.74.28,7.61,7.61,0,0,1-1.08,0V28.51c0-.35-.06-.69.49-.69a1.54,1.54,0,0,0,.16-1c-.16-.36-.39-1-1-.79-.34.12-.29,0-.38-.2s-.37-.35-.43-.31c-.28.18-.44.36-.79,0-.17-.17-.66,0-1,0s-.89-.58-1.21.16c0,0-.23,0-.35,0a6.29,6.29,0,0,0-1.48-.12c-.23,0-.6.63-.55.69.49.64-.31,1.21,0,1.81a1,1,0,0,1,0,.51c-.07.44-.85,1.19-1.14,1.06a1,1,0,0,1-.58-1.09c0-.39,0-.79,0-1.22-.85-.27-1.66-.54-2.48-.76-.48-.14-.74.12-.61.66a8.38,8.38,0,0,0,.18,1c.19.46-.27.61-.24,1,0,.74-.36,1.17-.7,1.1a2,2,0,0,1-1-1.24,5.8,5.8,0,0,0-.18-1.47c-.18-.5.65-.84,0-1.37a9.17,9.17,0,0,0-1.14,1.72,1,1,0,0,1-1.21.64c-.67-.69.35-1.51-.14-2.23,0,0,.3-.3.43-.47a4.19,4.19,0,0,0,.87-1.35c.11-.63.23-1.06.93-1.16.07,0,.17-.31.12-.43s-.37-.21-.38-.19c-.57.77-1.41-.37-2,.3-.16.17-1-.53-1-.77A1.51,1.51,0,0,1,120.58,21c.73,0,1.47,0,2.19,0,.5-2.25.5-2.25,1.41-3.14l1,.52c-.09.26-.31.58-.23.74a.57.57,0,0,1,0,.63c-.31.87.06,1.14,1,1a6.84,6.84,0,0,1,1.69-.06,1,1,0,0,1,.59.54c.06.11-.1.43-.24.55-.42.33-.87.62-1.31.92-.32-.64-.76.36-1.24-.12-.31-.31-.58.44-.89.6a4.53,4.53,0,0,0,2.6,2.23c.81-1.3,2.21-1.56,3.68-1.65.12,0,.28.05.34,0a1.46,1.46,0,0,0,.19-.42c-.1,0-.26-.15-.29-.12-.64.65-1.05-.39-1.66-.22-.2.06-.29-.65-.56-1.39a2.73,2.73,0,0,1,.07-2.29,1,1,0,0,1,1.16-.71c1.16.09,2.35-.22,3.49.33A3.13,3.13,0,0,0,134.83,18.93Zm-4.46,1.72a3.61,3.61,0,0,0,.81.67c.44.18,1-.22,1.45.23,0,0,.43-.2.56-.39s-.09-.38-.22-.5c-.5-.5-1.23.06-1.79-.34-.11-.09-.34,0-.5,0S130.54,20.46,130.37,20.65Zm1.48,2.83v.17h1v-.17Z"/><path class="cls-1" d="M118,21.58c-1.3.43-1.84-.46-2.38-1.21-.39-.56-.55-1.28-1-1.83s.54-.72.26-1.2c-.1-.18.13-.63-.41-.28-.3.19-.92.29-1.11.12-.68-.62-1.43-.15-2.15-.36-.05.2-.15.37-.12.51.1.48-.86,1,0,1.43-.55.36-.29.92-.34,1.4a6.85,6.85,0,0,1,0,1,3.24,3.24,0,0,1-.44.78c-.26-.1-.5-.2-.75-.28a1,1,0,0,1-.63-1.09c.08-.65.11-1.3.17-2.14-.44.42-.41,1-1,.85-.32-.06-.7.3-1,.28s-.46.7-.79.13c-.2.2-.57.39-.58.59a5,5,0,0,0,.44,3.08c.31.47.48.68.87.57.09,0,.21-.19.24-.17.7.42,1.42-.38,2.11,0,.47,1-.28,1.32-.87,1.76-.41.31-.82.36-2.13.27,0,.79,0,1.58,0,2.36a1.13,1.13,0,0,1-.13.63c-.17.18-.61.41-.67.35-.3-.3-1.06-.11-.94-.88,0-.21-.3-.56-.22-.66.25-.31.4-.59,0-.84a1.91,1.91,0,0,0-.9-.29,4,4,0,0,0-1,.17l-1.27.19c-.07-1.3,0-1.22,1.09-1.79.57-.3,1-.64,1.68-.34.08,0,.62-.2.42-.64a3.91,3.91,0,0,1-.25-1.87c0-.65-.33-1.36-.3-2.09,0-.15-.3-.32-.46-.49-.37.46-.81-.24-1,0a1.6,1.6,0,0,1-1.09.33c-.85.1-.85.12-1.45-.46.27-.42.52-.87.82-1.29s.47-.52.83-.16c.62.61,1.1-.18,1.68-.19.79,0,.73-.67.75-1.25,0-.4,1-1,1.38-.76s.85.58.36,1.21c-.17.22,0,.67,0,1.08a5.15,5.15,0,0,1,.84-.24c.34,0,.69,0,1,0s.6-.25.83-.18.32.41.54.73c.2-.59.35-.93.44-1.29s-.28-.63.12-.87c-.55-.9.36-1.1.74-1.07s1-.57,1.46-.1c.43-.58.82-.16,1.25,0a.82.82,0,0,0,.67,0c1.13-.67,2,.38,3,.46.46,0,.68.75.41,1.12-.86,1.18.12,2,.4,3C118.38,20.11,118,20.91,118,21.58Z"/><path class="cls-1" d="M146.8,30.19c-.16-1.08-.3-2.17-.48-3.25-.13-.78-.54-.89-1.24-.42a5.31,5.31,0,0,1-1.66,1,2.42,2.42,0,0,1-2.58-2.55,3.54,3.54,0,0,1,1.52-2.63,2.61,2.61,0,0,1,1.27-.29c.73-.07,1-.29,1-1.05a8.22,8.22,0,0,0,0-.86.81.81,0,0,0-.83-.84,3,3,0,0,1-.52,0c-.59-.15-1.18.53-1.54.29s-1-.2-1.46-.31a1.2,1.2,0,0,1,.38-1.58c.34-.27.9-.88,1.63-.3.19.15.84,0,1.29,0a.8.8,0,0,0,.57-.24,2.36,2.36,0,0,0,.38-.7c.15-.35.32-.61.43-.62.45,0,.8,0,.71.6-.1.76.89.33,1,.92.08.35.31-.06.46-.07a6.3,6.3,0,0,1,2,0c.31.08,1.06.06,1,.87a1.13,1.13,0,0,1-1.24,1.13c-.8,0-1.61,0-2.48,0a7.46,7.46,0,0,1,.25,2.89c-.83.7.33,1.25.15,1.89a1.66,1.66,0,0,1,1,1.64c0,.32.94.36.3,1-.15.16.19.79.31,1.2a3,3,0,0,1,.17.65C148.6,29.8,148.21,30.14,146.8,30.19Zm-4-5.17c.08.12.16.33.31.42s.3-.06.41-.15.32-.31.49-.46a.7.7,0,0,0,.09-1c-.19-.25-1,0-1.12.34A4.12,4.12,0,0,0,142.83,25Z"/><path class="cls-1" d="M155.88,26.24c-.28-.31-.33-.34-.36-.39a1.92,1.92,0,0,0-1-.86c-.42-.13-.79-.39-1.21-.5-.65-.18-1.44-.48-1.49-.67-.17-.58.19-1.06.35-1.57,0-.1.24-.17.38-.23a4.29,4.29,0,0,0,1.83-1.33,6.8,6.8,0,0,1,1-.79,2.05,2.05,0,0,0-1.81-1.37,5.82,5.82,0,0,1-1.89-1,2,2,0,0,1,2.31-.66c.23.08.72-.27.81-.18.6.69,1.63.61,2.2,1.42.78,1.11.87,1.7,0,2.72a7.7,7.7,0,0,1-1,.87c-.12.1-.3.13-.42.23-.33.31-.65.65-1,1,1.38.06,2,1.24,3,1.85,0,1,1.29,1.68.5,2.77.33,1-.37,1.6-.8,2.24a7.11,7.11,0,0,1-1.77,1.47.5.5,0,0,1-.45-.08c-.3-.32-.56-.34-.84,0s-.88-.64-1.22.1a6.12,6.12,0,0,1-.69-.43c-.5-.4-1.19-.74-1.41-1.27s.23-1.13.27-1.72c.08-1,.92-1.05,1.54-1.39a5.9,5.9,0,0,1,3.2-.25s0,0-.09-.09l-.15.15a1.59,1.59,0,0,0,.21.15S155.91,26.39,155.88,26.24Zm-.28,2c-.92,0-1.82,0-2.71,0a.45.45,0,0,0-.34.25.51.51,0,0,0,.18.42c.91.55,1.89.29,2.87.36Z"/><path class="cls-1" d="M114.66,27.33c.63,1.15,2.44,1.16,2.71,2.71-.51.28-1,.78-1.61.56-.45-.16-1-.14-1.22-.85a.54.54,0,0,0-1,.22.91.91,0,0,1-1,.49c-.78-.11-.94-.61-.53-1.27.13-.21.71-.29.24-.75-.14-.13-.52-1.15-.84-1.24-.69-.18-.57-.91-1-1.28a.83.83,0,0,1,.14-.75c.57-.37.27-.76.2-1.21-.13-.8.78-1.5,1.74-1.4a.77.77,0,0,0,.36-.07c.86-.41,1.62.08,2.32.39s.88,1,.61,1.85a5.84,5.84,0,0,0-.59,2.18C115.28,27,114.88,27.18,114.66,27.33Zm-3.2-2.95,1.7,1.7a5.75,5.75,0,0,0,.41-.63c.14-.27.4-.68.3-.84-.24-.42-.52-.08-.8.11-.1.07-.37-.11-.56-.15Z"/><path class="cls-1" d="M130.52,15.38c-.21-.6-.39-1.1-.56-1.6,0-.08-.12-.23-.11-.23.44-.29.22-.73.27-1.1a.86.86,0,0,1,.77-.75c.59-.13.6.35.73.66a2.21,2.21,0,0,1,.21.93,2.7,2.7,0,0,0,.66,2c.13.17,1.76.67,2,.46.45-.39,1.06.64,1.37-.22a.9.9,0,0,1,.43.14c.4.39.88.77.44,1.44,0,.08.57.47-.06.44s-1,.38-1.47.11-1,.17-1.41-.36-.58.55-.94.08c-.83.35-1.65-.45-2.41-.11s-1.67-.52-2.34.31a9.59,9.59,0,0,1-1.25-.71c-.34-.24-.24-.55.22-.66Z"/><path class="cls-1" d="M135,26.94a16.62,16.62,0,0,1,.3,1.76c0,.43-.86,1.43-1.3,1.57a2.81,2.81,0,0,0-.31.08c-.43.2-.92.65-1.27.55a3.78,3.78,0,0,1-1.44-1c-.38-.36-1-.65-.83-1.35a3.38,3.38,0,0,1,1-2.16c.23-.2.3,0,.5,0C132.64,26.6,133.72,26.74,135,26.94Zm-2.16,1.9v-.31l-.92.13v.18Z"/><path class="cls-1" d="M123.84,14.8c.47,1.58-.8,2.4-1.23,3.53-.09.24-.41.47-.39.68.06.8-.49.56-.89.61s-.39-.35-.55-.61a1.27,1.27,0,0,1,0-1.27c.26-.69.73-1.31.92-2,.23-.86.75-1,1.5-.93A5.75,5.75,0,0,0,123.84,14.8Z"/></g><path class="cls-1" d="M29.4,17.89a2,2,0,0,1-.71,1.59c-.27.25-.37.48,0,.76,0,0,0,.15,0,.22-.88,0-.37.89-.82,1.23s-.46.83-.66,1.27a3.1,3.1,0,0,1-.41.92,8,8,0,0,0-1.85,3.33,9,9,0,0,1-1.27,2,.53.53,0,0,1-.26.13c-.05,0-.15,0-.16,0-.19-.47-.54,0-.79-.13A16.48,16.48,0,0,1,20.27,28c-.57-.44-1-1-1.87-.89a.39.39,0,0,1-.24-.65,16.06,16.06,0,0,1,1.24-2.16c.18-.19.13-.57.25-.83.53-1.2,1.23-2.32,1.77-3.51.18-.4.58-.22.65-.49s-.05-.65.05-.92.41-.21.59-.37-.1-.27-.17-.42c.4,0,.51-.16.53-.55s.75-.59.67-1.29c0-.43.47-.93.79-1.37a3.44,3.44,0,0,1,.66-.52c.13.56,1-.17,1,.62.61.27.95,1.05,1.79.89a.85.85,0,0,1,.52.25A4.84,4.84,0,0,1,29.4,17.89Z"/><path class="cls-1" d="M22.1,30.74a1,1,0,0,0-.23.22A5,5,0,0,1,20,32.75c-.29.22-.88-.06-1.25.3A4,4,0,0,0,18.25,32c-.64-.73-.15-1.85-.92-2.51.35-.2.19-.4.06-.68s.15-.49.33-.61.41.21.6.17c.69-.13,1,.5,1.42.77a14.54,14.54,0,0,0,2,1.28C21.89,30.48,22,30.63,22.1,30.74Z"/></g></svg>