<svg xmlns="http://www.w3.org/2000/svg" viewBox="0 0 196.32 46.21"><defs><style>.cls-1{fill:#fff;}</style></defs><g id="レイヤー_1" data-name="レイヤー 1"><path d="M113.87,13.92c.48-.29-.3-.45-.05-.9a3,3,0,0,0,.14-2.51,5.56,5.56,0,0,0-.74-1.43c-.62-.78.44-1.2.35-1.81a2.13,2.13,0,0,0-.19-.95A5.42,5.42,0,0,1,112.52,3c0-1.44-2.06-2.59-3.91-2.32-.5.7-1.09-.45-1.61.05s-1.43.19-2.15.29c-.49.07-1.22,0-1.43.16-.63.64-1.18-.2-1.64,0A1.5,1.5,0,0,1,100,1.06a.84.84,0,0,0-.66,0A.9.9,0,0,1,97.89,1a1.89,1.89,0,0,1-1.58.4c-.94,0-1.89,0-2.83,0s-1.72,0-2.57,0-1.64,0-2.4-.1-1.79.39-2.37.06A5.35,5.35,0,0,0,83.23,1C77.82,1,72.42,1,67,1c-.63,0-1.36.27-1.93-.24a1,1,0,0,0-.68-.13,6.14,6.14,0,0,1-4.74,0,2.1,2.1,0,0,0-1,0,15.17,15.17,0,0,1-6.57,0c-.26-.05-.59.18-.87.17s-.66-.18-1-.22a3,3,0,0,0-1,0c-.6.14-1.24.72-1.8.33-.78-.54-1.23.27-2,.1a6.26,6.26,0,0,0-2.55,0c-.76.15-1.24-.35-2-.25s-1.41-.2-2.06.2a.31.31,0,0,1-.23,0C38,.34,37.2.56,36.36.74c-.67.15-1.44,0-2.11.1a8.29,8.29,0,0,0-2.55.53c-.73.4-1.55-.64-2.36,0C28.11.64,26.72,1.07,25.4,1c-.45,0-.78.66-1.49.17-.24-.16-1,.17-1.47.19-.76,0-1.54,0-2.31,0s-1.76.24-2.27,0c-.81-.46-1.35.23-1.92,0a2.59,2.59,0,0,0-1.9,0c-.54-.62-1.15.22-1.62,0C10.83.59,9.11,1.17,7.47,1c-.83.73-1.58.07-2.36-.08A13.24,13.24,0,0,0,3,1.11L.45,4.33a1.62,1.62,0,0,1,.11.28,6,6,0,0,1,.2,2.53C.45,8,1.05,8.8.88,9.66s0,1.89-.07,2.83S1.36,14.24.33,15c.26.83,1.07,1.64,0,2.48A3.19,3.19,0,0,1,.39,21c1,.71,0,1.39-.07,2.08,1.26.69-.43,1.36,0,2.1.19.36-.77.85,0,1.27.11,1.44-.35,2.91.52,4.29-.83.7.28,1.36.05,2.1S1,34.59.78,35.44c-.11.5.85.78.18,1.34-.48.4.18,1.14-.54,1.66-.26.19-.29,1-.06,1.12.7.4-.11.91.39,1.41s.11,1.3.08,2a2.89,2.89,0,0,0,1.5,2.34.67.67,0,0,0,.52.07c.57-.58,1.21.25,1.4.08.73-.68,1.17.15,1.71.09,1-.09,2,.32,2.92-.35.4-.28,1.23.06,1.9-.28.36-.19,1.28.37,1.73.21a14,14,0,0,1,4.18-.38c.52,0,1.22-.4,1.49-.24a2,2,0,0,0,1.66.21c.79-.29,1.74-.64,2.33-.3.9.52,1.45-.44,2.21-.08a3.33,3.33,0,0,0,1.35.34c.43,0,.87-.31,1.3-.3s1.21.43,1.28.35c.71-.78,1.67,0,2.54-.29a4,4,0,0,1,3.15.23c.25.16.94,0,1.35-.16a1.55,1.55,0,0,1,1.6.09,1,1,0,0,0,.66.15c1-.8,2.28-.25,3.41-.37a2.88,2.88,0,0,1,1.68.23c.37.18,1.15-.24,1.75-.23s1.53.44,2,.24a1.73,1.73,0,0,1,2,.12.9.9,0,0,0,.66-.12c.57-.51,1.45,0,1.89-.31.77-.54,1.28.27,1.94.06s1.38-.47,1.76-.29c1.77.84,3.9-.39,5.57.68.64-.69,1.6-.46,2.35-.36s1.56-.65,2.38-.11c.26-.74.81.26,1.33-.15.37-.28,1.26-.18,1.92-.17.5,0,1.26.35,1.46.19.8-.62,1.16.3,1.76.2s1-.17,1.43-.21c.81-.06,1.62-.09,2.43-.1.18,0,.48.21.52.18.64-.57,1.46-.17,2.19-.27a3.62,3.62,0,0,1,2.1.39c.61.29,1.13-.56,1.93,0,.46.29,1.42,0,2.08.43s1.24-.69,1.87,0c.36-.63,1.12-.14,1.71-.33.74-.24,1.78.17,2.67.1.55,0,1.06.24,1.67,0a4.17,4.17,0,0,1,1.71-.14c.53,0,1.29.45,1.52.3A2.72,2.72,0,0,1,97,44.33c.6,0,1.2,0,1.8,0,.2,0,.37.29.59.33.6.11,1.21.65,1.86.06a61.09,61.09,0,0,0,9.49-.5l1.51-1.88c.08-.1.27-.27.26-.28-1.06-.73-.23-1.75-.62-2.63-.28-.63-.8-1.57-.28-2.15s.34-1.27.44-1.9a5.54,5.54,0,0,1,0-1c.17-.47.6-.91.67-1.39a7.12,7.12,0,0,0-.18-1.56c0-.6,0-1.21,0-1.82s-.27-1.24.06-1.58c.61-.62-.34-1-.07-1.53.12-.23,0-.58.2-.73.46-.39.24-.61,0-1s0-1,0-1.48c0-.31.24-.61.26-.92.06-.71-.22-1.5.81-2,.08,0,.13-.24.09-.27a1.15,1.15,0,0,1-.3-1.67c.6-.69-.29-1.15-.09-1.73.16-.42-.21-.94.42-1.3a.43.43,0,0,0,0-.51C113.6,14.58,113.3,14.27,113.87,13.92Z"/><path d="M195.61,32.64c-.11-1.27.4-2.67-.16-3.81a6,6,0,0,1-.35-3.1c0-.43,0-.85,0-1.29a5.28,5.28,0,0,1,.36-3.1c.5-.9.34-2.07.68-3.11-.85-.43-.52-1.08-.55-1.65s.73-1,0-1.49a1.81,1.81,0,0,0,.45-2.42c-.57-.77,1-1.63-.44-2.19-.05,0,.08-.36.19-.53a2,2,0,0,0-.06-2.6.6.6,0,0,1-.06-.54c.11-.39.57-1,.4-1.11-.82-.51.49-1,0-1.27-1-.54.58-.89.07-1.33a7.3,7.3,0,0,0,0-.81c0-.53-.47-.87-1.19-.9-2.16-.09-4.36.22-6.49-.38-.28-.08-.75.29-1.16.36-.89.15-.45-.68-.9-.74-1.31-.18-2.72.14-3.94-.46-.59.61-1.13.42-1.81,0a2,2,0,0,0-1.24.17,1.43,1.43,0,0,1-1.2,0c-.49-.13-1.08-.11-1.65-.21a2.8,2.8,0,0,0-1.82.21c-.4.22-1.17-.64-1.71.08-1.15-.35-2.24.23-3.41.11-1.38-.13-3,.28-4.13-.12s-2.1.72-2.72-.31a17.14,17.14,0,0,1-7.93,0,.72.72,0,0,0-.5.08c-.47.51-1.19.33-1.79.3-1.16-.06-2.33,0-3.51-.15s-2.22.27-3.37-.21c-.36-.15-1.26.3-1.54.13A4.16,4.16,0,0,0,141.3.17c-1.59.21-3.31-.46-4.82.39-.12.07-.48-.09-.73-.14-.42-.09-1-.34-1.23-.22a3.54,3.54,0,0,1-2.8.31c-.88-.49-1.92.59-2.46-.33-.78.76-1.49-.36-2.35,0-.45.16-1.06.65-1.79.06-.47-.38-1.21.55-1.81.12-.9-.66-1.11.46-2,.31A19.5,19.5,0,0,0,118,.57h-3.64a14.16,14.16,0,0,1-3.33,0c-1.17-.31-2.2.43-3.18,0-1.13-.46-2.18,0-3.17.1a4.51,4.51,0,0,1-2.18.11c-.67-.19-1.69.31-2.44.17a10.15,10.15,0,0,0-2.64,0C95,1.09,92.6,1,90.18,1c-.78,0-2.55.63-2.61,1.16C87.34,4,86.21,5.75,86.39,7.67c0,.41.71.75.1,1.31-.37.34.07,1.09-.19,1.55s-.06.46,0,.74a20.24,20.24,0,0,1,.13,3.21c-.89.26.29.86-.39,1.17-.88.41-.43,1-.39,1.57a6.76,6.76,0,0,1,.2,1.15c0,.44-.29.87-.32,1.31s.44.79.26.95c-.64.56-.71,1,0,1.57.22.19.14.64,0,.93-.9,2.15-.44,4.34-.22,6.5,0,.48.27.87,0,1.4s.4,1.09.25,1.57a2.93,2.93,0,0,0,0,2,6.2,6.2,0,0,1,0,2v1.82a13.58,13.58,0,0,0,0,2,9.41,9.41,0,0,0,.53,1.66c-1.42.32.42,1.15-.46,1.55-.13,1.28,1.07,1.87,2.71,1.73a49.5,49.5,0,0,1,7.1-.09c.65,0,1.34.4,1.9,0,.9-.68,1.19.67,1.92.25,1.32-.77,2.84-.27,4.26-.38,1-.08,2.24.22,3-.11a4.93,4.93,0,0,1,2.9-.24,8.27,8.27,0,0,0,2.35-.08c.87-.06,1.83.26,2.61-.35.18-.14.85,0,1.28.09s.85.3.92.24c.93-.82,1.78-.17,2.66,0,.46.11,1.17.41,1.35.29a2.37,2.37,0,0,1,2.28-.14c.84.44,1.14-.38,1.89-.19a10.92,10.92,0,0,0,2.5,0c.84,0,1.68,0,2.52,0a12.51,12.51,0,0,1,2.69.18c.84.21,1.34-.4,2.18-.24.57.12,1.49-.46,1.94-.3a5.4,5.4,0,0,0,2.05.35,10.2,10.2,0,0,1,2.22,0,2.77,2.77,0,0,0,1.82,0c.32-.12.91.45,1.43,0,.33.6,1.31-.41,1.58.34.58-.13,1.14-.29,1.73-.38a2.05,2.05,0,0,1,.74.14c.32.07.91.22.92.2.54-.89,1.39.18,2-.18.84-.5,1.47.06,2.19.21a1.9,1.9,0,0,0,1.09,0c.75-.61,1.4,0,2.08,0,.87,0,1.85-.33,2.63.29a1.12,1.12,0,0,0,.73,0c2.41-.74,4.92-.13,7.36-.33.78.55,1.74-.25,2.3,0,1,.51,1.77,0,2.65,0a13.53,13.53,0,0,1,4,.38,11.84,11.84,0,0,0,2.23,0h2.24c.75,0,1.49,0,2.24,0a12.87,12.87,0,0,1,1.87.18,5.17,5.17,0,0,0,1.68-.16,10.45,10.45,0,0,1,2.5,0,5.68,5.68,0,0,1,1.9.57c.64.33,1.22-.73,1.76,0,.87-.14,2,0,2.46-.66a1.3,1.3,0,0,0,.11-1.45c-.42-.46-.31-.88-.35-1.32a4.83,4.83,0,0,1,0-1.42c.1-.49.46-1,.51-1.45.09-.87-.36-1.9.13-2.59s-1-1.63.45-2.18c0,0,0-.29-.1-.36C195.12,34.12,195.66,33.34,195.61,32.64Z"/></g><g id="レイヤー_2" data-name="レイヤー 2"><g id="XoXvdK"><path class="cls-1" d="M66,15.54c-.2.11-.41.32-.59.3a4.1,4.1,0,0,0-1.71,0,16,16,0,0,1-2,0c-.82.12-.57-.75-1-1a4.87,4.87,0,0,1,.55-.84,1.69,1.69,0,0,1,.7-.34c.44.69.78-.36,1.19-.05s1.11.11,1.69.06,1.56-.41,2.2.31c1.4-.15,2.81.18,4.25-.18a3,3,0,0,1,2-.13,1.1,1.1,0,0,1,.12.31c0,1.71,0,1.69-1.76,1.82-.44,0-1,.46-1.26.3-.48-.35-.76-.37-1.19,0-.08.06-.43-.23-.85-.46a11.65,11.65,0,0,1,0,1.6c0,.3.71.48.1.82.09.09.22.27.26.25.54-.22,1,.33,1.56.15a2.75,2.75,0,0,1,1.43.23c.68.22,1.35.52,2,.79-.11.26-.31.51-.29.73.06.5.42,1,.29,1.46s-.55.78,0,1.17c0,0,0,.11,0,.17a1.8,1.8,0,0,0,.79,1.69c.31.27.47.54.09.87a2.46,2.46,0,0,0-.5.52c-.18.3-.89.44-.54.86s-.24.75-.09,1c.54,1,.15,1.54-.71,2-.15.07-.16.4-.22.56L71.27,29c1.16-.53-.06-1.45.4-2.24-1.24-.25-2.25.31-3.29.49-.43.07-.95-.7-1.26.11-.39-.22-.81-.54-1.23-.2s-.79.41-1.09.12-.84.37-1.07-.22c-.16.12-.41.21-.45.36-.18.72.19,1.42.17,2.15a6.09,6.09,0,0,0,.23,1.32c-.83.29-1.43.26-1.72-.58-.6.08-.47-.35-.52-.69-.09-.61-.22-1.23-.36-1.83,0-.14-.2-.37-.26-.36-1,.21-1.07-.71-1.47-1.27L61.09,25a13.21,13.21,0,0,1,.07-3.56c.32-1.1,0-2.32.85-3.4.5,0,1.2-.36,1.8.3.34.38.55-.69,1-.11.15.19.66.1,1,.11.67,0,.93-.11.46-.81-.14-.2.23-.7.18-1A3.45,3.45,0,0,0,66,15.54ZM63.26,22c.59.05,1.2,0,1.78.06s1-.57,1.5,0c0,0,.3-.17.32-.28a.62.62,0,0,0-.19-.42c-.11-.12-.41-.18-.41-.27,0-.85,0-.92-.69-.81a2.45,2.45,0,0,1-1.32,0c-.55-.18-.91.22-1,.87a6.2,6.2,0,0,0,0,1V22a1.09,1.09,0,0,0-.27.11s0,.14.06.22A.58.58,0,0,0,63.26,22Zm8.29-1.33c-1-.23-1.81.21-2.59-.31-.07,0-.37.14-.48.29s.37.64-.12.88c.22.17.44.47.69.49.71.06,1.44,0,2.16,0a1.27,1.27,0,0,0,.34-.12ZM66.94,23.8c-.65.14-1.29.5-1.58.31-.8-.51-1.58-.22-2.4-.32l.45,1.45c.75,0,1.47,0,2.2,0,.34,0,.49-.06.58-.46S66.61,24.21,66.94,23.8Zm1.71.5a6.08,6.08,0,0,1,.45.46c.25.27.45-.48.79,0,.18.26.7.29,1.07.38.1,0,.26-.11.37-.19s.44-.38.7-.6C69.92,23.79,69.92,23.79,68.65,24.3Zm-5.31-1.4L63,22.77c0,.1-.13.21-.11.3a1.08,1.08,0,0,0,.23.31Z"/><path class="cls-1" d="M134.44,14.21c.14.65.94,1.23.83,2.17.63.51-.16.83-.16,1.26-.7-.12-.6.79-1.22.93-.38.09-.61.78-.92,1.19,0,0-.16-.11-.25-.12s-.27,0-.33.06a.36.36,0,0,0,0,.33.5.5,0,0,0,.29.15c1.34.38,2,1.49,2.71,2.52a1.6,1.6,0,0,1,.2.81,18.43,18.43,0,0,1,0,2.35c-.09.84-.25,1.66-1.29,2a5.69,5.69,0,0,0-1.27.86c-.27.18-.59-.32-.93.13-.19.25-.7.31-1.08.37a6.61,6.61,0,0,1-1.09,0,3.47,3.47,0,0,1-1.25,0,1.87,1.87,0,0,1-1-.93c-.37-1.12-.86-2.32.32-3.32,0-.85.94-.13,1.23-.69s1.22.19,1.68-.43a3.28,3.28,0,0,1,.42.24c.63.38,1.24.79,1.88,1.14.38.21.74-.08.55-.52s.05-1-.3-1.38A8.35,8.35,0,0,0,132.42,22a2.48,2.48,0,0,0-1.64-.4c-1.29,0-1.36-.35-1-1.58s1.68-1.64,2.32-2.62c.69,0,.61-.72,1.1-1.07-.64.16-.84-.85-1.6-.31-.33.24-1-.56-1.47.07-.1.12-1.36-.38-1.34-.4.49-.38.41-.76,0-1.14a3.82,3.82,0,0,0,.48-.15c.2-.1.37-.31.58-.35a4.1,4.1,0,0,1,1.75-.17.91.91,0,0,0,.92-.1c.07,0,.46.51.75.57A3.91,3.91,0,0,0,134.44,14.21Zm-4.07,13.31c.6-.2,1-.31,1.44-.49a.47.47,0,0,0,.18-.43c0-.11-.27-.29-.34-.26-.57.26-1-.3-1.68-.13s-.88-.05-.84.65a1.35,1.35,0,0,0,.24.48C129.79,26.78,130.12,27.69,130.37,27.52Z"/><path class="cls-1" d="M115.25,15.38c1.55-1,3.13-.44,4.76-.66.37-.14-.34-1,.44-1,.38,0,.78-.39,1.11-.32.86.19.67,1,.69,1.7a6.24,6.24,0,0,1,2.84-.28.59.59,0,0,1,.44.22c.15.3.77.31.49.89s-.27.76-1,.67c-1.88-.24-2.68.43-2.49,2.6a1.71,1.71,0,0,1-.24,1.53c-.26.28-.09.7.19,1.1.52.72.81,1.6,1.33,2.32s-.25,1.68.49,2.33a19.6,19.6,0,0,0-.82,1.95c-.09.27-.78.38-1.21.44s-.53-.11-.17-.44-.71-.9.09-1.28c-.08-.56.24-1.21-.34-1.67.63-.44-.06-.87-.07-1.31a.63.63,0,0,0-1.17-.3c-.38.9-1.17.87-1.76,1a4.53,4.53,0,0,1-2.18-.33c-.65-.21-.77-.94-1-1.51a12.43,12.43,0,0,1-.32-1.55,5,5,0,0,1,2.28-1.63c.89-.27,1.72-.58,2.57.14.2-.73.37-1.32.53-1.92a.82.82,0,0,0-.52-1c-.72-.17-1.51,0-2.18-.42-1.17,1-1.79,0-2.5-.68A4.47,4.47,0,0,1,115.25,15.38Zm4.81,6.47c-.11-.13-.21-.25-.32-.36-.64-.69-1.11.51-1.74.16-.1,0-.31.09-.46.17s0,.11,0,.17c-.09.65.46,1.29,1,1.05s.77-.69,1.15-1A1.3,1.3,0,0,1,120.06,21.85Z"/><path class="cls-1" d="M105.24,21.25a6,6,0,0,1,0,1.08c-.06.32-.33.64-.3.93s.47.32.63.54c.38.51,1-.18,1.35.32.09-.09.19-.25.26-.24a6.34,6.34,0,0,0,1.27.25,6.12,6.12,0,0,0,1.29-.33c.51-.13.48.28.66.57s.16.38,0,.67c-.88,1.34-2.23.92-3.43.9a3.08,3.08,0,0,0-1.74.19c.28.59.32,1.39,1,1.61.89.27,1.83.69,2.77,0,.17-.12.36-.63.64-.12a1.64,1.64,0,0,1,.27.95,2.63,2.63,0,0,1-2,1.21,2.69,2.69,0,0,0-2.48.08c-.22.13-.72-.29-1.1-.31s-1,.13-1.56.13-.8-.12-1.21-.13a1.22,1.22,0,0,0-.63.19,1.51,1.51,0,0,1-2.14-.93,4.22,4.22,0,0,1,.74-3.11c.14-.18.36-.5.31-.57-.73-1,.41-.77.67-1a.72.72,0,0,1,1,.4c.11.33.9.91-.16,1.12l-.64,1.94c.71.56,1.67-.43,2.58.15.61-2.19-.3-4.29-.23-6.4a12.54,12.54,0,0,0-2.06-.48c-.34-.12-.79.14-.83-.58s.26-1,.79-1.08a11.77,11.77,0,0,1,2.06-.05c.27,0,.53.22.8.23a5.9,5.9,0,0,0,2,0c.57-.16,1,.67,1.51.09.14.72.76-.32.83.18s.21.92-.24,1.33C107.13,21.68,106.5,21.78,105.24,21.25Z"/><path class="cls-1" d="M99.79,22.71c-.49,0-.9,0-1.31,0a1.58,1.58,0,0,1-1.2-1.3c-.09-1.65.59-3.24.37-4.9,0-.12.21-.27.28-.42.21-.39.39-.79.64-1.32.46,0,1.06,0,1.65,0s.91-.23.65-.52-.28-.74-.37-1.13c-.14-.65,0-1,.58-.86a4.67,4.67,0,0,1,1.36.63,2.5,2.5,0,0,1,.76.76c.25.44,1.07.26,1,1,.53,0,1.05.07,1.58.13s.95.33,1.2.16c.61-.42,1,0,1.43.16a8.42,8.42,0,0,0,1.43,0,2.08,2.08,0,0,1,1.83,1.57c.39,1.44.18,3,.75,4.42,0,.07-.24.24-.31.39s.23.75-.36.84a.94.94,0,0,1-1.09-.68,6.17,6.17,0,0,1-.73-2.76,7.79,7.79,0,0,0,0-1.08c0-.61-.49-1.09-1-.86-.7.31-1.26-.11-1.89-.08s-1.39.28-2-.3c-.35-.32-.67.76-1.22.17s-.82-.24-1.24.1c-.1.08-.64-.32-.7-.25-.44.49-1.06.14-1.47.36s-.52.72-.79,1.08c-.14.19-.49.46-.46.5.57.87-.38,1.73,0,2.59C99.35,21.6,99.52,22.07,99.79,22.71Z"/><path class="cls-1" d="M88.56,18.32c.09.16.39.56.35.6a5.45,5.45,0,0,0-1.15,1.88.72.72,0,0,1-.58-.06,4,4,0,0,1-.41-2.23,5.63,5.63,0,0,1,.34-2.39c.13-.23-.09-.65-.15-1s.18-1,.44-1,.64-.78,1.22-.25c.4.35,1,.76,1.55.52s.84.53,1.41.18c.27-.16.83.24,1.23.19.68-.1.31.74.75.74a.45.45,0,0,1,.43.72c-.36.53-.12,1.24-.4,1.62-.62.82-.07,1,.45,1.28.24.14.44.37.69.51.79.45.15.89,0,1.32-.2.59-.69.42-1,.21-.76-.5-1.85-.6-2.16-1.73-.14-.51.44-1-.1-1.46.29-.4-.64-.75,0-1.16L91,16.29c-.46.49-.87-.29-1.29-.06s-.87.44-.91.73S88.66,17.78,88.56,18.32Z"/><path class="cls-1" d="M83.68,31c-.69.22-1.53-.33-2.17.39a.34.34,0,0,1-.34,0c-.64-1-1.68-.62-2.57-.72-.41-1,.21-2-.37-2.94,0-.07.08-.24.13-.37.15-.42.32-.83.46-1.25.08-.26,0-.64.19-.8a1.88,1.88,0,0,1,.91-.39c.65-.16,1.37.23,2-.31.17-.13.78.32,1.2.46.23.07.61-.06.71.07a3.26,3.26,0,0,1,.72,1.31A3.15,3.15,0,0,0,85,27.71c.18.27-.66.63,0,.95a13.26,13.26,0,0,1-.51,1.23A10.74,10.74,0,0,1,83.68,31Zm-3.32-3.93a1.54,1.54,0,0,0,1,2c.65.36.85-.19,1.24-.26s.27-.73.22-1.08A.79.79,0,0,0,81.9,27C81.42,27.06,80.93,27.05,80.36,27.05Z"/><path class="cls-1" d="M94.4,29.41a2.28,2.28,0,0,1-2.65.17,2.65,2.65,0,0,0-.64-.2c-.47-.12-.16-1.09-.85-.85-.29.1-.38.68-.67.92s-1.17-.14-1.58.45a8.4,8.4,0,0,1-.48-1.06c0-.06.28-.24.44-.35.84-.59.85-.86.11-1.81a1.57,1.57,0,0,1-.21-.62,2.6,2.6,0,0,0-.2-.81c-.22-.33-.55-.54-.56-1,0-.32.7-.47.16-.85,0,0,.09-.24.17-.27.36-.15.74-.25,1.11-.38s.62-.24.93-.36c.21.58.6,0,.9.15s.71.1,1,.29.33.57.53.84a1.8,1.8,0,0,1,0,2.1c-.64,1-.59.95.38,1.7a13.3,13.3,0,0,1,1.38,1.51A4.56,4.56,0,0,0,94.4,29.41ZM90,25.23a2.67,2.67,0,0,0,.07-.52c0-.05-.15-.09-.23-.13a2.47,2.47,0,0,0-.11.47S89.83,25.14,90,25.23Z"/><path class="cls-1" d="M81.35,15.86a4.42,4.42,0,0,0,1.52,0c1-.45,1.4.24,1.93.76.26.25-.44.7.17.89-.25.18-.51.53-.75.51a10.34,10.34,0,0,1-1.89-.16,10.89,10.89,0,0,0-3.17,0c-.16,0-.31.13-.47.14s-.44,0-.49-.09c-.26-.55-.48.15-.79,0a1.12,1.12,0,0,1-.55-1.75c.29-.44.57.08.77,0,.62-.38,1.2-.87,1.94-.26.11-.17.3-.33.31-.5s-.18-.29-.32-.39c-.4-.26-.18-.45-.06-.79.2-.57-.39-1.21,0-1.85a9.35,9.35,0,0,0,.38-.92.64.64,0,0,1,1.08.08,2.42,2.42,0,0,1,.39,1.29C81.3,13.73,81.35,14.7,81.35,15.86Z"/><path class="cls-1" d="M77.37,21.27a6.26,6.26,0,0,1,0-.77c.08-.81.32-1,1.08-1,.5,0,.93.31,1.52.05s1.33.06,1.94-.12c.46-.14.94,0,1.39-.25a1,1,0,0,1,.91.22,3,3,0,0,1,.37,1.27c0,.25-1,.58-1.39.5S82.3,20.79,82,21a2.75,2.75,0,0,1-2.1.35A14.56,14.56,0,0,0,77.37,21.27Z"/><path class="cls-1" d="M83.83,23.7a30.13,30.13,0,0,0-3.32.73,2.55,2.55,0,0,1-1-.09,2.15,2.15,0,0,0-.61-.09c-.16,0-.45.43-.43,0,0-.68-.72-.32-.76-.75a.59.59,0,0,1,.05-.33,1.51,1.51,0,0,1,1.94-.77c.48.23.56,0,.79-.16s.24-.25.25-.24c.81.75,1.59-.48,2.39-.05a2.88,2.88,0,0,1,.31.13C84.05,22.54,83.9,23.13,83.83,23.7Z"/><path class="cls-1" d="M85.3,17.87s-.1.12-.11.11a1.12,1.12,0,0,1-.22-.16l.16-.16Z"/></g></g></svg>