<svg xmlns="http://www.w3.org/2000/svg" viewBox="0 0 249.63 46.21"><defs><style>.cls-1{fill:#fff;}</style></defs><g id="レイヤー_1" data-name="レイヤー 1"><path d="M144.79,13.92c.61-.29-.38-.45,0-.9a2.44,2.44,0,0,0,.18-2.51A5.56,5.56,0,0,0,144,9.08c-.79-.78.56-1.2.44-1.81-.06-.32,0-.69-.24-.95A4.6,4.6,0,0,1,143.07,3c0-1.44-2.61-2.59-5-2.32-.64.7-1.39-.45-2.05.05s-1.82.19-2.74.29c-.62.07-1.55,0-1.82.16-.79.64-1.49-.2-2.08,0a2.31,2.31,0,0,1-2.27-.11,1.34,1.34,0,0,0-.84,0A1.36,1.36,0,0,1,124.47,1a2.87,2.87,0,0,1-2,.4c-1.19,0-2.39,0-3.59,0s-2.19,0-3.27,0-2.09,0-3-.1-2.28.39-3,.06a8.53,8.53,0,0,0-3.7-.34C99,1,92.09,1,85.22,1c-.81,0-1.73.27-2.46-.24a1.45,1.45,0,0,0-.85-.13,9.78,9.78,0,0,1-6,0,3.39,3.39,0,0,0-1.26,0,24.45,24.45,0,0,1-8.36,0c-.33-.05-.74.18-1.11.17S64.32.62,63.89.58a4.71,4.71,0,0,0-1.3,0c-.77.14-1.58.72-2.29.33-1-.54-1.57.27-2.48.1a10.06,10.06,0,0,0-3.24,0C53.61,1.17,53,.67,52,.77s-1.79-.2-2.61.2a.52.52,0,0,1-.3,0C48.25.34,47.3.56,46.23.74c-.84.15-1.83,0-2.68.1a13.14,13.14,0,0,0-3.25.53c-.92.4-2-.64-3,0C35.74.64,34,1.07,32.3,1c-.57,0-1,.66-1.9.17-.3-.16-1.22.17-1.86.19-1,0-2,0-2.94,0a9.4,9.4,0,0,1-2.89,0c-1-.46-1.71.23-2.45,0a4.12,4.12,0,0,0-2.41,0c-.68-.62-1.45.22-2.06,0-2-.77-4.2-.19-6.29-.38-1.05.73-2,.07-3-.08a21.4,21.4,0,0,0-2.7.21L.57,4.33a.92.92,0,0,1,.14.28c.13.85.6,1.76.26,2.53s.36,1.66.15,2.52,0,1.89-.09,2.83S1.73,14.24.41,15c.34.83,1.37,1.64.07,2.48A2.63,2.63,0,0,1,.49,21c1.29.71.06,1.39-.08,2.08,1.6.69-.55,1.36,0,2.1.25.36-1,.85,0,1.27.14,1.44-.45,2.91.65,4.29-1,.7.36,1.36.08,2.1s.1,1.77-.14,2.62c-.14.5,1.08.78.22,1.34-.61.4.23,1.14-.68,1.66-.34.19-.37,1-.08,1.12.89.4-.14.91.5,1.41s.13,1.3.1,2c0,1,.8,1.71,1.9,2.34a1.06,1.06,0,0,0,.66.07c.73-.58,1.55.25,1.78.08.93-.68,1.5.15,2.18.09,1.23-.09,2.52.32,3.71-.35.51-.28,1.57.06,2.42-.28.46-.19,1.62.37,2.19.21a22.64,22.64,0,0,1,5.32-.38c.66,0,1.56-.4,1.9-.24a3.19,3.19,0,0,0,2.11.21c1-.29,2.22-.64,3-.3,1.15.52,1.85-.44,2.81-.08a5.16,5.16,0,0,0,1.72.34c.55,0,1.11-.31,1.65-.3s1.54.43,1.63.35c.91-.78,2.13,0,3.23-.29a6.39,6.39,0,0,1,4,.23A3.33,3.33,0,0,0,45,44.48a2.43,2.43,0,0,1,2,.09,1.63,1.63,0,0,0,.84.15c1.31-.8,2.9-.25,4.34-.37a4.59,4.59,0,0,1,2.14.23c.47.18,1.46-.24,2.22-.23s1.95.44,2.57.24a2.7,2.7,0,0,1,2.53.12,1.46,1.46,0,0,0,.85-.12c.72-.51,1.84,0,2.4-.31,1-.54,1.62.27,2.46.06a5.39,5.39,0,0,1,2.24-.29c2.26.84,5-.39,7.09.68.8-.69,2-.46,3-.36s2-.65,3-.11c.33-.74,1,.26,1.69-.15a6.37,6.37,0,0,1,2.45-.17c.64,0,1.6.35,1.85.19,1-.62,1.48.3,2.24.2.61-.08,1.21-.17,1.83-.21,1-.06,2-.09,3.08-.1.23,0,.62.21.67.18.81-.57,1.85-.17,2.77-.27a5.73,5.73,0,0,1,2.68.39c.77.29,1.43-.56,2.46,0,.58.29,1.79,0,2.63.43.67.38,1.58-.69,2.38,0,.47-.63,1.43-.14,2.18-.33.94-.24,2.27.17,3.4.1a6.8,6.8,0,0,0,2.11,0,6.74,6.74,0,0,1,2.18-.14c.68,0,1.64.45,1.93.3a4.29,4.29,0,0,1,2.11-.31c.77,0,1.54,0,2.29,0,.26,0,.47.29.75.33.77.11,1.54.65,2.37.06a98.62,98.62,0,0,0,12.07-.5l1.92-1.88c.11-.1.34-.27.33-.28-1.35-.73-.3-1.75-.8-2.63-.35-.63-1-1.57-.35-2.15s.43-1.27.56-1.9c.06-.33-.08-.68.06-1s.75-.91.85-1.39-.19-1-.23-1.56,0-1.21,0-1.82-.34-1.24.08-1.58c.78-.62-.44-1-.09-1.53.16-.23,0-.58.26-.73.59-.39.3-.61,0-1s0-1,.06-1.48c.05-.31.3-.61.33-.92.08-.71-.28-1.5,1-2,.1,0,.16-.24.11-.27a1,1,0,0,1-.37-1.67c.76-.69-.38-1.15-.12-1.73.2-.42-.27-.94.53-1.3a.35.35,0,0,0,0-.51C144.45,14.58,144.07,14.27,144.79,13.92Z"/><path d="M248.73,32.64c-.13-1.27.52-2.67-.19-3.81a4.84,4.84,0,0,1-.46-3.1c0-.43,0-.85,0-1.29-.05-1-.32-2,.45-3.1.65-.9.44-2.07.87-3.11-1.08-.43-.66-1.08-.71-1.65s.94-1,0-1.49c1.09-.74,1.16-1.79.58-2.42s1.31-1.63-.55-2.19c-.07,0,.1-.36.23-.53a1.7,1.7,0,0,0-.07-2.6.51.51,0,0,1-.09-.54c.15-.39.73-1,.51-1.11-1-.51.63-1,0-1.27-1.26-.54.73-.89.08-1.33a7.3,7.3,0,0,0,0-.81c-.06-.53-.6-.87-1.51-.9-2.76-.09-5.56.22-8.26-.38-.35-.08-.95.29-1.47.36-1.14.15-.58-.68-1.15-.74-1.66-.18-3.46.14-5-.46-.75.61-1.43.42-2.3,0a3.11,3.11,0,0,0-1.58.17,2.26,2.26,0,0,1-1.52,0C226,.28,225.22.3,224.5.2a4.44,4.44,0,0,0-2.31.21c-.51.22-1.49-.64-2.18.08-1.47-.35-2.84.23-4.34.11-1.75-.13-3.81.28-5.25-.12-1.26-.34-2.66.72-3.46-.31a27.6,27.6,0,0,1-10.09,0,1.09,1.09,0,0,0-.62.08c-.61.51-1.52.33-2.28.3-1.48-.06-3,0-4.46-.15s-2.83.27-4.29-.21c-.46-.15-1.6.3-2,.13a6.65,6.65,0,0,0-3.59-.16c-2,.21-4.21-.46-6.12.39-.16.07-.62-.09-.94-.14A4.73,4.73,0,0,0,171.05.2a5.6,5.6,0,0,1-3.56.31c-1.12-.49-2.43.59-3.13-.33-1,.76-1.89-.36-3,0a2.38,2.38,0,0,1-2.27.06c-.6-.38-1.54.55-2.3.12-1.14-.66-1.41.46-2.48.31a31.55,31.55,0,0,0-4.25-.05h-4.62a22.8,22.8,0,0,1-4.23,0c-1.49-.31-2.81.43-4.05,0-1.44-.46-2.78,0-4,.1a7.22,7.22,0,0,1-2.77.11c-.86-.19-2.15.31-3.11.17a16.31,16.31,0,0,0-3.35,0c-3.06.17-6.16.08-9.24,0-1,0-3.24.63-3.32,1.16-.29,1.86-1.73,3.62-1.49,5.54,0,.41.89.75.11,1.31-.46.34.1,1.09-.24,1.55s-.07.46,0,.74a15.68,15.68,0,0,1,.16,3.21c-1.13.26.37.86-.49,1.17-1.13.41-.56,1-.5,1.57a6.12,6.12,0,0,1,.26,1.15c0,.44-.38.87-.41,1.31s.56.79.33.95c-.81.56-.91,1-.06,1.57.27.19.17.64,0,.93-1.15,2.15-.56,4.34-.28,6.5.06.48.34.87,0,1.4s.51,1.09.31,1.57a2.4,2.4,0,0,0,0,2,4.9,4.9,0,0,1,.06,2v1.82a11.33,11.33,0,0,0,0,2,8.67,8.67,0,0,0,.68,1.66c-1.81.32.54,1.15-.59,1.55-.16,1.28,1.37,1.87,3.45,1.73a80,80,0,0,1,9-.09c.83,0,1.7.4,2.41,0,1.15-.68,1.52.67,2.45.25,1.67-.77,3.61-.27,5.41-.38,1.29-.08,2.86.22,3.82-.11a7.85,7.85,0,0,1,3.68-.24,13.47,13.47,0,0,0,3-.08c1.1-.06,2.32.26,3.32-.35a4.75,4.75,0,0,1,1.62.09,8.9,8.9,0,0,0,1.18.24c1.18-.82,2.26-.17,3.37,0a5.93,5.93,0,0,0,1.72.29,3.72,3.72,0,0,1,2.89-.14c1.07.44,1.46-.38,2.42-.19a17.52,17.52,0,0,0,3.17,0c1.07,0,2.14,0,3.2,0a20.25,20.25,0,0,1,3.43.18c1.07.21,1.7-.4,2.76-.24.74.12,1.9-.46,2.48-.3a8.46,8.46,0,0,0,2.6.35,16.58,16.58,0,0,1,2.83,0,4.41,4.41,0,0,0,2.31,0c.4-.12,1.16.45,1.82,0,.42.6,1.67-.41,2,.34.73-.13,1.45-.29,2.19-.38a3.22,3.22,0,0,1,.95.14c.41.07,1.15.22,1.17.2.68-.89,1.76.18,2.52-.18,1.07-.5,1.87.06,2.78.21a3,3,0,0,0,1.38,0c1-.61,1.79,0,2.65,0,1.11,0,2.35-.33,3.35.29a1.79,1.79,0,0,0,.93,0c3.05-.74,6.25-.13,9.36-.33,1,.55,2.2-.25,2.92,0,1.28.51,2.25,0,3.37,0a21.8,21.8,0,0,1,5.05.38,19,19,0,0,0,2.83,0H230c1,0,1.9,0,2.84,0a21,21,0,0,1,2.39.18,8.23,8.23,0,0,0,2.13-.16,16.89,16.89,0,0,1,3.18,0,8.51,8.51,0,0,1,2.41.57c.82.33,1.56-.73,2.25,0,1.11-.14,2.51,0,3.12-.66.39-.4.53-1.12.14-1.45s-.39-.88-.44-1.32a3.77,3.77,0,0,1,0-1.42c.12-.49.59-1,.65-1.45.12-.87-.46-1.9.17-2.59s-1.24-1.63.56-2.18c.06,0,0-.29-.12-.36C248.11,34.12,248.8,33.34,248.73,32.64Z"/></g><g id="レイヤー_2" data-name="レイヤー 2"><g id="XoXvdK"><path class="cls-1" d="M96.73,15.54c-.2.11-.41.32-.6.3a4.05,4.05,0,0,0-1.7,0,16,16,0,0,1-2,0c-.83.12-.57-.75-1-1a4.35,4.35,0,0,1,.55-.84,1.63,1.63,0,0,1,.7-.34c.43.69.78-.36,1.19-.05s1.1.11,1.69.06,1.56-.41,2.19.31c1.41-.15,2.82.18,4.25-.18a3,3,0,0,1,2-.13,1.1,1.1,0,0,1,.12.31c0,1.71,0,1.69-1.76,1.82-.44,0-1,.46-1.27.3-.47-.35-.75-.37-1.19,0-.07.06-.43-.23-.85-.46a11.86,11.86,0,0,1,0,1.6c-.06.3.7.48.1.82.09.09.21.27.26.25.54-.22,1,.33,1.56.15a2.7,2.7,0,0,1,1.42.23c.69.22,1.35.52,2.05.79-.11.26-.31.51-.29.73.06.5.41,1,.29,1.46s-.55.78,0,1.17c0,0,0,.11,0,.17a1.78,1.78,0,0,0,.79,1.69c.31.27.46.54.09.87a2.23,2.23,0,0,0-.5.52c-.18.3-.89.44-.54.86s-.24.75-.1,1c.55,1,.16,1.54-.71,2-.14.07-.15.4-.21.56L102,29c1.17-.53,0-1.45.41-2.24-1.24-.25-2.25.31-3.29.49-.43.07-1-.7-1.27.11-.38-.22-.8-.54-1.22-.2s-.8.41-1.1.12-.84.37-1.06-.22c-.16.12-.42.21-.45.36-.18.72.19,1.42.16,2.15a6.79,6.79,0,0,0,.24,1.32c-.84.29-1.43.26-1.73-.58-.59.08-.46-.35-.51-.69-.09-.61-.22-1.23-.36-1.83,0-.14-.2-.37-.27-.36-1,.21-1.06-.71-1.46-1.27L91.82,25a13.21,13.21,0,0,1,.07-3.56c.31-1.1,0-2.32.84-3.4.51,0,1.2-.36,1.81.3.34.38.55-.69,1-.11.16.19.67.1,1,.11.67,0,.93-.11.46-.81-.14-.2.23-.7.18-1A3.72,3.72,0,0,0,96.73,15.54ZM94,22c.59.05,1.19,0,1.78.06s1-.57,1.5,0c0,0,.3-.17.32-.28a.62.62,0,0,0-.19-.42c-.11-.12-.41-.18-.41-.27,0-.85,0-.92-.69-.81a2.45,2.45,0,0,1-1.32,0c-.55-.18-.91.22-1,.87a7.32,7.32,0,0,0,0,1V22a1.36,1.36,0,0,0-.28.11s0,.14.06.22S93.92,22.21,94,22Zm8.29-1.33c-1-.23-1.81.21-2.59-.31-.07,0-.37.14-.48.29s.36.64-.13.88c.23.17.45.47.69.49.72.06,1.44,0,2.16,0a1.21,1.21,0,0,0,.35-.12ZM97.67,23.8c-.66.14-1.29.5-1.58.31-.8-.51-1.58-.22-2.4-.32l.45,1.45c.75,0,1.47,0,2.19,0,.35,0,.5-.06.59-.46S97.34,24.21,97.67,23.8Zm1.71.5c.2.2.33.32.45.46s.45-.48.79,0c.18.26.69.29,1.07.38.1,0,.26-.11.37-.19s.44-.38.7-.6C100.64,23.79,100.64,23.79,99.38,24.3Zm-5.32-1.4-.31-.13c0,.1-.13.21-.11.3a1.08,1.08,0,0,0,.23.31Z"/><path class="cls-1" d="M165.17,14.21c.14.65.94,1.23.83,2.17.62.51-.16.83-.16,1.26-.7-.12-.6.79-1.22.93-.38.09-.61.78-.92,1.19,0,0-.16-.11-.25-.12s-.28,0-.33.06a.33.33,0,0,0,0,.33.5.5,0,0,0,.29.15c1.33.38,2,1.49,2.71,2.52a1.6,1.6,0,0,1,.2.81,16.76,16.76,0,0,1,0,2.35c-.08.84-.24,1.66-1.28,2a5.69,5.69,0,0,0-1.27.86c-.27.18-.59-.32-.93.13-.19.25-.71.31-1.09.37a6.48,6.48,0,0,1-1.08,0,3.46,3.46,0,0,1-1.25,0,1.92,1.92,0,0,1-1-.93c-.36-1.12-.85-2.32.33-3.32,0-.85.93-.13,1.23-.69s1.22.19,1.68-.43a3.28,3.28,0,0,1,.42.24c.63.38,1.24.79,1.88,1.14.38.21.74-.08.55-.52s0-1-.3-1.38A9,9,0,0,0,163.15,22a2.48,2.48,0,0,0-1.64-.4c-1.29,0-1.37-.35-1-1.58s1.67-1.64,2.32-2.62c.69,0,.61-.72,1.09-1.07-.63.16-.83-.85-1.59-.31-.33.24-1-.56-1.48.07-.09.12-1.35-.38-1.33-.4.49-.38.41-.76,0-1.14a3.23,3.23,0,0,0,.47-.15c.21-.1.38-.31.58-.35a4.16,4.16,0,0,1,1.76-.17.91.91,0,0,0,.92-.1c.07,0,.46.51.74.57A4,4,0,0,0,165.17,14.21Zm-4.08,13.31c.61-.2,1-.31,1.45-.49a.5.5,0,0,0,.18-.43c0-.11-.27-.29-.34-.26-.57.26-1-.3-1.69-.13s-.88-.05-.83.65a1.51,1.51,0,0,0,.23.48C160.52,26.78,160.85,27.69,161.09,27.52Z"/><path class="cls-1" d="M146,15.38c1.55-1,3.13-.44,4.76-.66.37-.14-.34-1,.43-1,.38,0,.78-.39,1.11-.32.87.19.68,1,.69,1.7a6.3,6.3,0,0,1,2.85-.28.55.55,0,0,1,.43.22c.16.3.78.31.5.89s-.28.76-1,.67c-1.88-.24-2.67.43-2.48,2.6,0,.49.2,1-.25,1.53-.25.28-.08.7.2,1.1.52.72.81,1.6,1.32,2.32s-.24,1.68.5,2.33a17.49,17.49,0,0,0-.82,1.95c-.1.27-.78.38-1.21.44s-.53-.11-.17-.44-.71-.9.09-1.28c-.08-.56.24-1.21-.34-1.67.63-.44-.06-.87-.07-1.31,0-.63-.93-.86-1.17-.3-.38.9-1.18.87-1.76,1a4.51,4.51,0,0,1-2.18-.33c-.65-.21-.78-.94-1-1.51a12.43,12.43,0,0,1-.32-1.55,5,5,0,0,1,2.28-1.63c.89-.27,1.72-.58,2.57.14l.52-1.92a.8.8,0,0,0-.52-1c-.71-.17-1.5,0-2.17-.42-1.17,1-1.8,0-2.5-.68A3.47,3.47,0,0,1,146,15.38Zm4.8,6.47c-.11-.13-.2-.25-.31-.36-.64-.69-1.11.51-1.75.16-.09,0-.3.09-.45.17s0,.11,0,.17c-.1.65.46,1.29,1,1.05s.77-.69,1.16-1A1.37,1.37,0,0,1,150.78,21.85Z"/><path class="cls-1" d="M136,21.25a6.18,6.18,0,0,1,0,1.08c-.06.32-.34.64-.3.93s.46.32.63.54c.38.51,1-.18,1.35.32.09-.09.19-.25.25-.24a6.48,6.48,0,0,0,1.27.25,6.05,6.05,0,0,0,1.3-.33c.51-.13.47.28.66.57s.16.38,0,.67c-.88,1.34-2.22.92-3.42.9a3.12,3.12,0,0,0-1.75.19c.29.59.33,1.39,1.05,1.61.89.27,1.83.69,2.77,0,.17-.12.36-.63.63-.12a1.59,1.59,0,0,1,.28.95,2.67,2.67,0,0,1-2,1.21,2.71,2.71,0,0,0-2.49.08c-.22.13-.71-.29-1.09-.31s-1,.13-1.56.13-.81-.12-1.21-.13a1.28,1.28,0,0,0-.64.19,1.5,1.5,0,0,1-2.13-.93,4.22,4.22,0,0,1,.74-3.11c.13-.18.36-.5.3-.57-.72-1,.42-.77.67-1a.73.73,0,0,1,1,.4c.11.33.9.91-.16,1.12l-.65,1.94c.72.56,1.68-.43,2.59.15.61-2.19-.3-4.29-.23-6.4a12.54,12.54,0,0,0-2.06-.48c-.35-.12-.8.14-.83-.58s.26-1,.79-1.08a11.77,11.77,0,0,1,2.06-.05c.27,0,.53.22.8.23a5.9,5.9,0,0,0,2,0c.56-.16,1,.67,1.5.09.15.72.76-.32.84.18s.2.92-.25,1.33C137.86,21.68,137.23,21.78,136,21.25Z"/><path class="cls-1" d="M130.52,22.71c-.49,0-.9,0-1.31,0a1.58,1.58,0,0,1-1.2-1.3c-.09-1.65.59-3.24.37-4.9,0-.12.21-.27.28-.42.2-.39.39-.79.64-1.32.46,0,1,0,1.64,0s.92-.23.65-.52-.27-.74-.36-1.13c-.15-.65,0-1,.58-.86a4.62,4.62,0,0,1,1.35.63,2.3,2.3,0,0,1,.76.76c.26.44,1.08.26,1,1,.52,0,1.05.07,1.57.13s1,.33,1.21.16c.61-.42.95,0,1.42.16a8.54,8.54,0,0,0,1.44,0,2.08,2.08,0,0,1,1.83,1.57c.39,1.44.18,3,.74,4.42,0,.07-.24.24-.3.39s.23.75-.37.84a.93.93,0,0,1-1.08-.68,6.31,6.31,0,0,1-.74-2.76,5.57,5.57,0,0,0,0-1.08c0-.61-.48-1.09-1-.86-.7.31-1.26-.11-1.89-.08s-1.4.28-2-.3c-.34-.32-.66.76-1.21.17s-.82-.24-1.25.1c-.09.08-.63-.32-.69-.25-.44.49-1.06.14-1.47.36s-.53.72-.79,1.08c-.14.19-.49.46-.46.5.57.87-.38,1.73,0,2.59C130.07,21.6,130.25,22.07,130.52,22.71Z"/><path class="cls-1" d="M119.28,18.32c.1.16.4.56.36.6a5.3,5.3,0,0,0-1.15,1.88.72.72,0,0,1-.58-.06,3.81,3.81,0,0,1-.41-2.23,5.47,5.47,0,0,1,.34-2.39c.13-.23-.1-.65-.15-1s.18-1,.43-1c.41-.06.65-.78,1.23-.25.4.35,1,.76,1.55.52s.83.53,1.41.18c.27-.16.83.24,1.22.19.68-.1.31.74.76.74a.45.45,0,0,1,.43.72c-.36.53-.12,1.24-.4,1.62-.62.82-.07,1,.44,1.28.25.14.45.37.7.51.79.45.15.89,0,1.32-.2.59-.69.42-1,.21-.77-.5-1.85-.6-2.17-1.73-.14-.51.45-1-.1-1.46.29-.4-.63-.75,0-1.16l-.42-.51c-.47.49-.88-.29-1.29-.06s-.87.44-.92.73S119.39,17.78,119.28,18.32Z"/><path class="cls-1" d="M114.41,31c-.69.22-1.53-.33-2.17.39a.34.34,0,0,1-.34,0c-.64-1-1.69-.62-2.57-.72-.42-1,.21-2-.37-2.94,0-.07.08-.24.12-.37.16-.42.33-.83.46-1.25.09-.26,0-.64.2-.8a1.84,1.84,0,0,1,.9-.39c.66-.16,1.38.23,2-.31.17-.13.78.32,1.2.46.23.07.61-.06.71.07a3.12,3.12,0,0,1,.71,1.31,3.17,3.17,0,0,0,.39,1.29c.18.27-.67.63,0,.95a10.92,10.92,0,0,1-.5,1.23A10.74,10.74,0,0,1,114.41,31Zm-3.33-3.93a1.55,1.55,0,0,0,1,2c.65.36.85-.19,1.24-.26s.26-.73.22-1.08a.79.79,0,0,0-.88-.69C112.14,27.06,111.66,27.05,111.08,27.05Z"/><path class="cls-1" d="M125.12,29.41a2.27,2.27,0,0,1-2.64.17,2.65,2.65,0,0,0-.64-.2c-.48-.12-.16-1.09-.85-.85-.29.1-.38.68-.67.92s-1.17-.14-1.58.45a8.4,8.4,0,0,1-.48-1.06c0-.06.28-.24.44-.35.84-.59.84-.86.11-1.81a1.57,1.57,0,0,1-.21-.62,2.92,2.92,0,0,0-.2-.81c-.22-.33-.55-.54-.56-1,0-.32.7-.47.16-.85,0,0,.09-.24.17-.27.36-.15.74-.25,1.11-.38s.62-.24.93-.36c.21.58.6,0,.9.15s.71.1,1,.29.34.57.54.84a1.8,1.8,0,0,1,0,2.1c-.64,1-.59.95.38,1.7a13.3,13.3,0,0,1,1.38,1.51A4.89,4.89,0,0,0,125.12,29.41Zm-4.43-4.18a2.59,2.59,0,0,0,.06-.52c0-.05-.14-.09-.22-.13a2.47,2.47,0,0,0-.11.47S120.56,25.14,120.69,25.23Z"/><path class="cls-1" d="M112.08,15.86a4.42,4.42,0,0,0,1.52,0c1-.45,1.4.24,1.93.76.26.25-.44.7.17.89-.25.18-.51.53-.75.51a10.27,10.27,0,0,1-1.89-.16,10.89,10.89,0,0,0-3.17,0c-.16,0-.31.13-.47.14s-.45,0-.49-.09c-.26-.55-.48.15-.79,0a1.11,1.11,0,0,1-.55-1.75c.29-.44.57.08.77,0,.62-.38,1.2-.87,1.94-.26.11-.17.29-.33.31-.5s-.19-.29-.33-.39c-.39-.26-.17-.45,0-.79.2-.57-.39-1.21,0-1.85.18-.27.22-.63.38-.92a.63.63,0,0,1,1.07.08,2.26,2.26,0,0,1,.39,1.29C112,13.73,112.08,14.7,112.08,15.86Z"/><path class="cls-1" d="M108.1,21.27c0-.32,0-.55,0-.77.09-.81.32-1,1.09-1,.5,0,.93.31,1.52.05s1.33.06,1.93-.12,1,0,1.4-.25a.92.92,0,0,1,.9.22,2.86,2.86,0,0,1,.38,1.27c0,.25-1,.58-1.4.5s-.89-.34-1.15-.18a2.75,2.75,0,0,1-2.1.35A14.56,14.56,0,0,0,108.1,21.27Z"/><path class="cls-1" d="M114.56,23.7a30.13,30.13,0,0,0-3.32.73,2.54,2.54,0,0,1-1-.09,2.25,2.25,0,0,0-.61-.09c-.16,0-.45.43-.43,0,0-.68-.72-.32-.76-.75a.59.59,0,0,1,0-.33,1.5,1.5,0,0,1,1.94-.77c.48.23.56,0,.79-.16s.24-.25.24-.24c.82.75,1.6-.48,2.4-.05a2.08,2.08,0,0,1,.3.13C114.78,22.54,114.63,23.13,114.56,23.7Z"/><path class="cls-1" d="M116,17.87s-.1.12-.11.11a1.12,1.12,0,0,1-.22-.16l.16-.16Z"/></g></g></svg>