<svg xmlns="http://www.w3.org/2000/svg" viewBox="0 0 195.31 46.21"><defs><style>.cls-1{fill:#fff;}</style></defs><g id="レイヤー_1" data-name="レイヤー 1"><path d="M194.69,32.64c-.09-1.27.36-2.67-.14-3.81a6.8,6.8,0,0,1-.31-3.1c0-.43,0-.85,0-1.29a5.88,5.88,0,0,1,.32-3.1c.44-.9.3-2.07.6-3.11-.75-.43-.46-1.08-.49-1.65s.65-1,0-1.49a2,2,0,0,0,.4-2.42c-.5-.77.91-1.63-.38-2.19-.05,0,.07-.36.16-.53a2.22,2.22,0,0,0-.05-2.6.72.72,0,0,1-.06-.54c.1-.39.51-1,.36-1.11-.73-.51.43-1,0-1.27-.87-.54.51-.89.06-1.33a7.3,7.3,0,0,0,0-.81,1,1,0,0,0-1.05-.9c-1.91-.09-3.85.22-5.73-.38-.24-.08-.65.29-1,.36-.79.15-.41-.68-.8-.74-1.16-.18-2.4.14-3.48-.46-.52.61-1,.42-1.59,0a1.56,1.56,0,0,0-1.1.17,1.11,1.11,0,0,1-1,0c-.43-.13-1-.11-1.46-.21a2.2,2.2,0,0,0-1.6.21c-.35.22-1-.64-1.51.08-1-.35-2,.23-3,.11-1.21-.13-2.64.28-3.64-.12s-1.85.72-2.4-.31a13.4,13.4,0,0,1-7,0,.55.55,0,0,0-.43.08c-.42.51-1,.33-1.58.3-1-.06-2.06,0-3.1-.15s-2,.27-3-.21c-.32-.15-1.11.3-1.36.13a3.27,3.27,0,0,0-2.49-.16c-1.4.21-2.92-.46-4.25.39-.11.07-.42-.09-.65-.14S141,.08,140.81.2a2.8,2.8,0,0,1-2.47.31c-.78-.49-1.69.59-2.17-.33-.69.76-1.31-.36-2.07,0-.4.16-.93.65-1.58.06-.41-.38-1.07.55-1.59.12-.8-.66-1,.46-1.72.31a15.23,15.23,0,0,0-3-.05h-3.21a11,11,0,0,1-2.93,0c-1-.31-2,.43-2.81,0s-1.93,0-2.8.1a3.51,3.51,0,0,1-1.92.11c-.59-.19-1.49.31-2.15.17a7.91,7.91,0,0,0-2.33,0c-2.12.17-4.27.08-6.41,0-.68,0-2.24.63-2.3,1.16-.2,1.86-1.2,3.62-1,5.54,0,.41.62.75.08,1.31-.32.34.06,1.09-.17,1.55s0,.46,0,.74a24.54,24.54,0,0,1,.11,3.21c-.78.26.26.86-.34,1.17-.78.41-.39,1-.34,1.57a9.39,9.39,0,0,1,.17,1.15c0,.44-.26.87-.28,1.31s.38.79.23.95c-.57.56-.63,1,0,1.57.18.19.11.64,0,.93-.79,2.15-.39,4.34-.19,6.5a2.87,2.87,0,0,1,0,1.4c-.17.47.35,1.09.21,1.57a3.34,3.34,0,0,0,0,2,7.17,7.17,0,0,1,0,2v1.82a17,17,0,0,0,0,2,11.12,11.12,0,0,0,.47,1.66c-1.26.32.37,1.15-.41,1.55-.11,1.28,1,1.87,2.4,1.73a38.36,38.36,0,0,1,6.25-.09c.58,0,1.19.4,1.68,0,.79-.68,1,.67,1.7.25,1.16-.77,2.5-.27,3.75-.38.89-.08,2,.22,2.65-.11A3.85,3.85,0,0,1,119,44.8a6.49,6.49,0,0,0,2.08-.08c.77-.06,1.61.26,2.3-.35.16-.14.75,0,1.13.09s.75.3.81.24c.82-.82,1.58-.17,2.34,0,.41.11,1,.41,1.2.29a1.88,1.88,0,0,1,2-.14c.74.44,1-.38,1.67-.19a8.46,8.46,0,0,0,2.2,0c.74,0,1.48,0,2.22,0a9.82,9.82,0,0,1,2.38.18c.74.21,1.18-.4,1.91-.24.51.12,1.32-.46,1.72-.3a4.23,4.23,0,0,0,1.81.35,8,8,0,0,1,2,0,2.16,2.16,0,0,0,1.6,0c.28-.12.8.45,1.26,0,.29.6,1.16-.41,1.4.34.5-.13,1-.29,1.52-.38a1.63,1.63,0,0,1,.66.14c.28.07.79.22.81.2.47-.89,1.22.18,1.74-.18.74-.5,1.3.06,1.93.21.31.08.81.13,1,0,.66-.61,1.24,0,1.84,0,.77,0,1.63-.33,2.32.29a.87.87,0,0,0,.64,0c2.12-.74,4.34-.13,6.5-.33.68.55,1.52-.25,2,0,.89.51,1.57,0,2.34,0a10.58,10.58,0,0,1,3.5.38,9.24,9.24,0,0,0,2,0h2c.66,0,1.32,0,2,0a10.16,10.16,0,0,1,1.65.18,4,4,0,0,0,1.48-.16,8.18,8.18,0,0,1,2.21,0,4.54,4.54,0,0,1,1.67.57c.56.33,1.08-.73,1.55,0,.77-.14,1.74,0,2.17-.66a1.44,1.44,0,0,0,.1-1.45,1.88,1.88,0,0,1-.31-1.32,5.62,5.62,0,0,1,0-1.42c.08-.49.41-1,.45-1.45.08-.87-.32-1.9.11-2.59s-.85-1.63.4-2.18c0,0,0-.29-.09-.36C194.26,34.12,194.74,33.34,194.69,32.64Z"/><path d="M.67,32.64c.1-1.27-.38-2.67.15-3.81a6.31,6.31,0,0,0,.33-3.1c0-.43,0-.85,0-1.29a5.52,5.52,0,0,0-.34-3.1c-.48-.9-.32-2.07-.64-3.11.8-.43.49-1.08.52-1.65s-.69-1,0-1.49a1.89,1.89,0,0,1-.43-2.42c.54-.77-1-1.63.41-2.19,0,0-.07-.36-.17-.53a2.1,2.1,0,0,1,.05-2.6.68.68,0,0,0,.07-.54C.52,6.42.08,5.81.24,5.7c.78-.51-.46-1,0-1.27.94-.54-.55-.89-.06-1.33,0-.27,0-.54,0-.81,0-.53.45-.87,1.13-.9C3.35,1.3,5.44,1.61,7.45,1c.26-.08.71.29,1.1.36.84.15.43-.68.86-.74C10.64.45,12,.77,13.14.17c.56.61,1.06.42,1.71,0A1.78,1.78,0,0,1,16,.37a1.28,1.28,0,0,0,1.13,0c.46-.13,1-.11,1.56-.21a2.54,2.54,0,0,1,1.73.21c.37.22,1.1-.64,1.62.08C23.16.14,24.19.72,25.3.6c1.3-.13,2.84.28,3.91-.12s2,.72,2.58-.31a15.39,15.39,0,0,0,7.51,0,.65.65,0,0,1,.47.08c.45.51,1.13.33,1.69.3,1.11-.06,2.21,0,3.33-.15S46.9.68,48,.2c.35-.15,1.2.3,1.47.13A3.72,3.72,0,0,1,52.11.17c1.51.21,3.14-.46,4.57.39.11.07.46-.09.69-.14.4-.09,1-.34,1.17-.22a3.19,3.19,0,0,0,2.65.31C62,0,63,1.1,63.52.18c.74.76,1.41-.36,2.23,0,.42.16,1,.65,1.69.06.44-.38,1.15.55,1.71.12C70-.35,70.21.77,71,.62A17.58,17.58,0,0,1,74.17.57h3.44a12.66,12.66,0,0,0,3.15,0c1.11-.31,2.1.43,3,0s2.07,0,3,.1a4,4,0,0,0,2.06.11c.64-.19,1.61.31,2.32.17a9.1,9.1,0,0,1,2.5,0c2.27.17,4.58.08,6.88,0,.73,0,2.41.63,2.47,1.16.22,1.86,1.29,3.62,1.11,5.54,0,.41-.66.75-.08,1.31.34.34-.07,1.09.18,1.55s0,.46,0,.74a21.49,21.49,0,0,0-.12,3.21c.84.26-.28.86.37,1.17.84.41.41,1,.36,1.57a7.83,7.83,0,0,0-.18,1.15c0,.44.28.87.3,1.31s-.42.79-.25.95c.61.56.68,1,0,1.57-.2.19-.13.64,0,.93.86,2.15.42,4.34.21,6.5a2.55,2.55,0,0,0,0,1.4c.18.47-.38,1.09-.23,1.57a3.12,3.12,0,0,1,0,2,6.49,6.49,0,0,0,0,2v1.82a17,17,0,0,1,0,2,11.31,11.31,0,0,1-.51,1.66c1.35.32-.4,1.15.44,1.55.12,1.28-1,1.87-2.57,1.73a44.46,44.46,0,0,0-6.73-.09c-.62,0-1.27.4-1.79,0-.86-.68-1.14.67-1.83.25-1.25-.77-2.69-.27-4-.38-1-.08-2.13.22-2.85-.11A4.41,4.41,0,0,0,82,44.8a7.46,7.46,0,0,1-2.23-.08C79,44.66,78,45,77.3,44.37c-.17-.14-.8,0-1.21.09s-.81.3-.88.24c-.88-.82-1.68-.17-2.51,0-.44.11-1.11.41-1.28.29a2.15,2.15,0,0,0-2.16-.14c-.79.44-1.08-.38-1.79-.19a9.81,9.81,0,0,1-2.37,0c-.79,0-1.59,0-2.38,0a11.19,11.19,0,0,0-2.55.18c-.8.21-1.27-.4-2.07-.24-.54.12-1.41-.46-1.84-.3a4.83,4.83,0,0,1-1.94.35,9.14,9.14,0,0,0-2.1,0,2.48,2.48,0,0,1-1.72,0c-.31-.12-.87.45-1.36,0-.31.6-1.24-.41-1.5.34-.54-.13-1.08-.29-1.63-.38a1.87,1.87,0,0,0-.71.14c-.3.07-.85.22-.87.2-.51-.89-1.31.18-1.88-.18-.79-.5-1.39.06-2.07.21a1.7,1.7,0,0,1-1,0c-.71-.61-1.33,0-2,0-.83,0-1.75-.33-2.49.29a1,1,0,0,1-.7,0c-2.27-.74-4.65-.13-7-.33-.74.55-1.64-.25-2.17,0-1,.51-1.68,0-2.52,0a12.19,12.19,0,0,0-3.76.38,10.59,10.59,0,0,1-2.11,0H14.64c-.71,0-1.41,0-2.12,0a11.54,11.54,0,0,0-1.77.18,4.69,4.69,0,0,1-1.6-.16,9.32,9.32,0,0,0-2.36,0,5.13,5.13,0,0,0-1.8.57c-.61.33-1.16-.73-1.67,0-.83-.14-1.87,0-2.33-.66a1.35,1.35,0,0,1-.1-1.45c.4-.46.29-.88.33-1.32a5.2,5.2,0,0,0,0-1.42c-.09-.49-.44-1-.49-1.45C.64,39,1.07,38,.6,37.28s.92-1.63-.42-2.18c0,0,0-.29.09-.36C1.14,34.12.62,33.34.67,32.64Z"/></g><g id="レイヤー_2" data-name="レイヤー 2"><path class="cls-1" d="M141.33,17.56c.8-.25,1.5-.55,2.19-.8s1,.39,1.53.07a1.33,1.33,0,0,1,1.62.19c.14.12.59,0,.8-.16s.09-.46,0-.68c-.27-.91-.59-1-1.78-.95-.78.06-1.57,0-2.48,0a8.92,8.92,0,0,1-.06-1.16c0-.3.73-.8,1.2-.95s.73-.25,1.11-.37a.16.16,0,0,1,.12.05c.63.51,1.4.08,2,.3a2.7,2.7,0,0,0,.95.35c.12,0,.26.28.35.45a3.59,3.59,0,0,1,.38,2.44,1.13,1.13,0,0,0,.14.65,2.43,2.43,0,0,1,.12,2.05c-.18.5,0,.33.23.58a1.81,1.81,0,0,1,.45,2.11c-.67,0-1.39,0-2.1,0s-1,.31-1,1.09-.28,1.54.25,2.23a3.29,3.29,0,0,0-.25,2,4,4,0,0,0,.32,2.21c.48.8-.6,1.29-.71,2,0,0-.25,0-.35,0-.64-.25-1.37-1.24-1-1.65.65-.81-.07-1.2-.27-1.77l-3,1.09c-.16.06-.36.11-.44.23a2.18,2.18,0,0,1-2.36.85,3.43,3.43,0,0,0-2.31.54.78.78,0,0,1-.61.09,3.8,3.8,0,0,0-2.6-.64c-.37,0-.71,0-.93.37a7.9,7.9,0,0,1-.76-1.12c-.26-.61-.52-1.25-.72-1.86a2.71,2.71,0,0,1,.4-1.69.87.87,0,0,1,1.55.15c.11.45.3.85.4,1.28s.57.34.85.32c.11,0,.32-.58.23-.7a2.74,2.74,0,0,1-.34-1.67.83.83,0,0,0-.91-.83c-.17,0-.46.22-.49.17-.25-.3-.65-.68-.61-1a1.45,1.45,0,0,1,.78-1c.25-.09.68.26,1.24.51-.06-1.09.23-2-.37-2.73a.89.89,0,0,0-.47-.35c-.27-.05-.58-.1-.62.38-.06.83-1.1,1.07-1.2,2-.07.56-1,.59-1.69,1,0-.58,0-.93,0-1.27s.27-.55.19-.67c-.35-.52.33-.5.35-.78A5.63,5.63,0,0,1,132,17.92c-.27-.7.89-.31.73-.93s.7-.83.69-1.32a1.57,1.57,0,0,1,.62-1.21s0-.16,0-.25c0-1,.14-1.17,1-1.5a10.69,10.69,0,0,0,1.18-.62c.61.55,1,1.5,1.94,2,.57.29.18,1.22.88,1.62a2.44,2.44,0,0,1,1,1.39,4.06,4.06,0,0,0,1.36,1.56c.44.32,1,.41,1.18,1.12.05.23.94.52,1.28.38,1.09-.46,2.26.08,3.32-.4.1,0,.25,0,.38,0s.05-.31,0-.35a2.78,2.78,0,0,0-.85-.54c-.39-.11-1,.08-1.19-.14-.46-.5-.54.21-.86.14a2.14,2.14,0,0,0-1.7,0c-.1.06-.41-.15-.57-.29C142,18.27,141.72,18,141.33,17.56Zm-5,5.31a7.32,7.32,0,0,0,1-.16c.47-.17.91-.39,1.37-.59.12.37.25.74.38,1.1l.22.57-2.57.84a2,2,0,0,0-.36.23c.62.85.18,1.83.33,2.74,0,.11.23.22.37.26s.29-.1.29-.12c-.19-.77.53-1.11.78-1.67a1.6,1.6,0,0,1,2.22-1l-.24,1.68c-.8.15-.68.83-1.12,1.63.52-.33.69-.53.86-.53.77,0,1.56.09,2-.72.59.08,1-.1,1.11-.74a4.24,4.24,0,0,1,2.3.31v-1c-.62.35-1.15.55-1.68-.11a1.91,1.91,0,0,0-1-.62c-.38-.1-.89.06-1.08-.41a8.49,8.49,0,0,1-.24-1.43,5.4,5.4,0,0,1,.83,0c1.15.18,2.48.09,2.65,1.76,0,.15.25.27.56.58,0-.89,0-1.48,0-2.07s0-1.15-.06-1.79c-.75.16-1.42.53-1.95.37a9.41,9.41,0,0,0-2-.31c-.41,0-.63-.54-.53-1,0-.13,0-.25.07-.38-.75,0-.75-.81-1.16-1.06a2,2,0,0,1-.87-.74c-.15-.28-.42-.71-.64-.71-1,0,.08-.49-.21-.79A7,7,0,0,0,135.6,15a4.75,4.75,0,0,0-.72,1.32,2.32,2.32,0,0,1-.48,1.07,2.72,2.72,0,0,0-.29,1c.88.21,1.6.39,2.32.54s1.47.21,2.19.39a.77.77,0,0,1,.46.59c0,.66-.71,1-1.48.87a8.77,8.77,0,0,0-1.26,0Z"/><path class="cls-1" d="M121.32,21.74a3.88,3.88,0,0,0,.82.72A3.67,3.67,0,0,1,124,25c.11.47.25.72-.19,1.1s-.27.65.35.71c.24,0,.48,0,.72,0,0,.22-.16.52-.06.62s.09.31,0,.54a4.57,4.57,0,0,0-.13,1.39c0,.1.1.29.13.28a7.24,7.24,0,0,1,.88-.18c.2,0-.15.67.38.45s.68.16.76.5c.14.7-.34,1-1.26,1.14a3,3,0,0,1-1.42,0c-.21-.07-.55-.14-.69,0a1.1,1.1,0,0,1-1.41.14c-.29-.15-.81.16-1.22.2s-1-.11-1.46.32c-.31-.82-.84.19-1.27-.16s-.85-.2-1.23.18c-.09.09-.41-.56-.28-.74.37-.58.77-1.14,1.23-1.81a3.63,3.63,0,0,0-.48-.57,1.13,1.13,0,0,1-.13-1.45c.24-.47,1-.76.26-1.4.67-.53.15-1,0-1.53a2,2,0,0,1,1.16-2.21c.43-.22.88-.39,1.32-.58a.87.87,0,0,0-.32-.14c-1.66,0-1.66,0-2.57-.82-.23.23-.58.41-.68.69-.35,1-1.23,1.43-1.88,2.09-.25.26-.85.17-1.39.24-.05-1.69,1.39-2.54,1.71-3.89a5.86,5.86,0,0,1-2.08-1.7c-.6-.79-.7-.71-.72-1.49.09-.06.18-.17.28-.17a3.73,3.73,0,0,1,1.25,0c.24.07.37.48.59.68a3.9,3.9,0,0,0,1,.71,3.66,3.66,0,0,0,1.29.36c.47,0,.24-.93.91-.75a2.37,2.37,0,0,0,0-1,.61.61,0,0,0-.85-.37,5.54,5.54,0,0,1-2.61-.24c.08-.08.2-.15.24-.26.56-1.57.7-1.62,2.35-1.15.3.09.68-.12,1,0a4.83,4.83,0,0,1,1,.54s.15,0,.18,0c.35.31.68.66,1.06.94s.59-.59,1-.08c.19.23.64.34.71.58.19.63.47.18.52,0a20.73,20.73,0,0,1,1.31-2.52c.38-.9,1.16-1,1.94-1.12a.81.81,0,0,1,.94.63c.1.32.09.62-.48.89a1.92,1.92,0,0,0-1.34,1.92c0,.11-.25.24-.35.38-.23.33-.59.67-.59,1s.56.4.83.65c.11.09.06.34.15.47.22.29.53.31.71,0,.63-1.12,1.28-2.23,1.8-3.4a4.8,4.8,0,0,1,2.06-2.48l1.21,1.21c-.43.55-.88,1.1-1.3,1.67a5.83,5.83,0,0,0-.51.87,4.5,4.5,0,0,0-.68,1.51c-.05.8-.89.39-1.13,1-.34.77-.36,1.13.5,1.27.57.09.8.46,1.13.77a.59.59,0,0,1-.28,1,1.88,1.88,0,0,1-1.83-.19,1.92,1.92,0,0,0-2.44-.48c-.57.29-1.41,0-2.28,0,.1-.1.06-.2,0-.3a.64.64,0,0,0-.17.43c-.12,0-.18-.12-.24-.12a2.46,2.46,0,0,0-.46.08c0,.08,0,.23.06.23a1.1,1.1,0,0,0,.64-.19A.2.2,0,0,1,121.32,21.74Zm-2,6.27a4.61,4.61,0,0,0,0,.83c.11.6.79,1.27,1.28,1.18a6.17,6.17,0,0,0,1.56-.5c.44-.19.35-.66.43-1.06.15-.78.09-1-.55-.93-.89.1-1.77.31.9-.4l-.37.22s.13.17.16.16a4.87,4.87,0,0,0,.53-.21C123.15,27.25,123.06,27.2,119.29,28Zm2.85-8a11.18,11.18,0,0,0-.92-1.13c-.29-.26-.67-.42-1-.69s-.36-.71-.56-.72c-.72-.06-.24.61-.45.88-.09.11-.35.07-.46.17a.66.66,0,0,0,.12,1.08C119.83,20.19,120.81,19.83,122.14,20Zm-2.49,5v.55c0,.68.33.65.77.29,0-.05.16,0,.24,0a4.25,4.25,0,0,0,1.47-.24c.24-.7-.53-.8-.77-1.22A1.34,1.34,0,0,0,121,24a2.11,2.11,0,0,0-1.25.39C119.69,24.65,119.67,24.93,119.65,25Z"/><path class="cls-1" d="M52,29.32a.82.82,0,0,1-1-.51c-.4-1.41-1.71-2.23-2.25-3.54-.06-.14-.34-.24-.53-.27a7.82,7.82,0,0,0-1,0h.08a.86.86,0,0,0-.11-.28s-.14,0-.22.06a.62.62,0,0,0,.25.22,9.66,9.66,0,0,1-1.31,4.3,2.09,2.09,0,0,1-1.28,1c-1.11.11-2.25.45-3.32-.56a4.14,4.14,0,0,1-1.48-4,4.65,4.65,0,0,1,.53-.89,7.72,7.72,0,0,0,1.72-1,4.09,4.09,0,0,1,2.14-1c.49-.11.61-.27.54-.67a4.25,4.25,0,0,0-.39-1.63A1.54,1.54,0,0,0,43.08,20c-.57.2-1,0-1.52,0a4.64,4.64,0,0,0-1.79,0,.9.9,0,0,1-1.24-.31c-.21-.23-.48-.52-.15-.72s0-.95.71-.82,1.3-.26,1.87.31a.67.67,0,0,0,.67,0c.57-.65,1.38-.12,2-.44A11.28,11.28,0,0,1,43,16.52a.88.88,0,0,1,.32-.72,1.09,1.09,0,0,1,1.81.77A6.46,6.46,0,0,0,45.57,18a.82.82,0,0,0,1.19.41c.51-.42,1-.21,1.52-.29s.88.08,1.34-.28,1.05.24,1.56.42c.13.05.18.69.07,1a1.14,1.14,0,0,1-.71.65c-.65.09-1.48-.21-1.94.09-.65.43-1.28.13-2,.39.12.61.22,1.25.38,1.88,0,.1.29.15.45.19s.29-.05.35,0C49,23.73,51,24.14,51.69,26,52.08,27,52.86,28.11,52,29.32Zm-6.92-4.75A4.77,4.77,0,0,0,41.52,27c.3.3.59.61.9.89a1.28,1.28,0,0,0,1.85,0C45.19,27,45.22,25.9,45.08,24.57Z"/><path class="cls-1" d="M69.73,19.21c-.29-.15-.39.59-.86.13a1.36,1.36,0,0,0-1.34-.08c-.58.4-.76,0-1.1-.25s-.63.36-.9-.17-.64-.5-1-.05a.57.57,0,0,1-.24-.14,1.65,1.65,0,0,0-2.22-.28c-.07,0-.17,0-.25,0-1.46,0-1.49.08-1.36,1.63.55-.22,1.08-.57,1.68-.08a1,1,0,0,0,1-.12c.52-.53,1.16.38,1.61-.22.38.24.76.67,1.16,0a1.26,1.26,0,0,0,1.11.34c.48,0,1,0,1.57,0a7.18,7.18,0,0,1,.06.81c0,.6-.06,1.17-1,.72a1.2,1.2,0,0,0-1.06.37c-.44.55-.79-.49-1.16,0s-.61-.2-1-.19c-.57,0-1.13.53-1.71.11-.39.47-.74-.1-1.13-.05a12,12,0,0,1-1.35,0h.08a1.08,1.08,0,0,0-.1-.27s-.15,0-.22.06a.64.64,0,0,0,.24.21,3.54,3.54,0,0,0-.68,2,6,6,0,0,1-.48,1.87H57.94c-.37-.63-.79-1.28-.17-2.1.17-.24,0-.7,0-1.06a9.81,9.81,0,0,1,0-1.8,9.41,9.41,0,0,1,.58-1.55,1.59,1.59,0,0,0,.11-.49c.2-2.59.23-2.72,1.36-4.49,1,.65,1,.65.88,2.17.52,0,1,0,1.58,0s1-.21,1.33.26c.46-.44.85.1,1.28.11a19.48,19.48,0,0,1,4,.81c.07.53.91-.53.8.38.51.32,0,.64,0,1C69.72,19,69.73,19.09,69.73,19.21Z"/><path class="cls-1" d="M67.54,29c0,.74.22,1.55-.48,1.71-.88.2-1.93.44-2.6-.74-.44.75-.81,1.45-1.26,2.09-.18.25-.62.57-.84.5a.83.83,0,0,1-.6-1,5.41,5.41,0,0,0,0-.9c0-1.13,0-1.16-1-1.78a8.72,8.72,0,0,1-1.19-1.17c.1-.11.29-.24.28-.35,0-.66.42-.63.83-.56a7.09,7.09,0,0,1,.94.34,2.35,2.35,0,0,0,1.07.23c.14,0,.21-.59.25-.92a1.55,1.55,0,0,1,.56-1.29,1,1,0,0,0,.32-.85,5.18,5.18,0,0,1-.63.3c-.22.07-.52,0-.67.13-.53.45-.88-.51-1.37-.14-.05-.22-.21-.48-.14-.65s.35-.66.62-.75c2-.75,4-1.28,6.08,0,.69-.17.42.57.73.78s.42.39.23.92.61,1.06,1,1.55c.1.12.29.2.32.32.13.62.46.57,1,.53s.72.7,1.17,1a.55.55,0,0,1,0,.5,7,7,0,0,1-1.49.76,1.13,1.13,0,0,1-.85-.23c-.69-.52-1.63-1-1.91-1.69s-1.06-1.3-1.2-2.22a1.28,1.28,0,0,0-1.94-.75c-.07.05-.09.16-.13.24,1.09.15,0,.86.3,1.17.53.52.08,1.07,0,1.5-.18.59-.22.89.43,1.06.38.1.74.27,1.12.35A6.56,6.56,0,0,0,67.54,29Z"/><path class="cls-1" d="M99.4,29.32c-.6,0-1.08,0-1.55,0a3.5,3.5,0,0,1-1.69-.22,3.79,3.79,0,0,1-1.79-2.29A11.28,11.28,0,0,0,93.59,25c-.14-.44-.47-.46-.75-.09a2.26,2.26,0,0,0-.5.87c-.19,1.33-1.26,2.22-1.69,3.44-.25.67-.69.66-1.23.12-.71-.71-.65-1.25,0-2.11s1.7-1.84,1.73-3.26c0-.48.54-1,.83-1.43.72.55.92-.09.9-.52,0-.68.52-1.25.1-2.07-.34-.67-.84.46-1-.31-.08-.38-.5-.55-1-.14-.31.26-1.68-.42-1.67-.8a4,4,0,0,1,.45-1.24,5.62,5.62,0,0,0,1.65,0c.47-.14.75.63,1.2.14a5,5,0,0,1,2.24,1.33,1.53,1.53,0,0,1,.2.8,13.09,13.09,0,0,1,0,2,7.69,7.69,0,0,0,.81,3.63c.13.31.1.73.31.95.57.62,1,1.43,2.12,1.34.9-.07,1.09.24,1.11,1.24C99.4,28.9,99.4,29,99.4,29.32Z"/><path class="cls-1" d="M108.69,18.85c.22.87.56,1.64-.21,2.34a.69.69,0,0,0,0,.68c.4.42.49.77,0,1.16.66,1.42-.69,3,.34,4.43.1.14-.12.52-.18.8a1.61,1.61,0,0,0-.06.61c.26,1.06.26,1.05-.72,1.62a1.42,1.42,0,0,0-.28.27c-.86-.69-.88-1.78-1.27-2.68.48-.36.08-.91.32-1.38s-.14-1.25.13-1.53c.52-.52-.19-.66-.12-1,.24-1.19-.34-2.47.35-3.64,0,0-.3-.24-.3-.38a1.21,1.21,0,0,1,1.2-1.26Z"/><path class="cls-1" d="M75.34,30.76a19.9,19.9,0,0,0-.56-1.92,7.37,7.37,0,0,1-.37-3c0-.35-.4-.86-.27-1.06a.76.76,0,0,0,0-1c-.33-.55-.14-1.28-.31-1.95s.43-1.2.73-1.93c.4.16,1,.22,1.14.5A2.18,2.18,0,0,1,76,22.05c-.28.52.27.83.12,1-.38.44-.22.65.06,1s-.53.86,0,1.29c-.61.5.09,1,0,1.5s-.24,1.05.26,1.5c.15.12-.46.3-.08.63s.88.48.37,1,.36.54.14.85c-.06.08-.2.2-.28.18s-.41-.19-.62-.23A4.33,4.33,0,0,0,75.34,30.76Z"/><path class="cls-1" d="M87.56,27c-.2.9-.33,1.5-.47,2.09,0,.08-.14.14-.21.2-.37-.4-1.11-.57-1.17-.13-.14,1.1-.52.08-.74.16a7.27,7.27,0,0,1-1.29.36,4.43,4.43,0,0,1-1.26,0,10,10,0,0,0-1.65-.32c-.81,0-.9.06-.9-.55a2.82,2.82,0,0,1,.24-1c.2-.52.51.07.75-.05s.29-.24.44-.24c1,0,2,0,3.06,0S86.29,27.2,87.56,27Z"/><path class="cls-1" d="M84.93,22.16c-.09.94-1,1.61-1.72,1.27-1.1-.51-2.22-.12-3.33-.22-.22,0-.46.3-.69.47s-1.06.11-1.11-.31a1.48,1.48,0,0,1,.33-1.48c.59-.52.62-.61,1.16-.62.38,0,.76-.59,1.15,0,0,.06.39-.06.59-.11s.32-.12.48-.17c.5-.17,1,.9,1.5,0a1.71,1.71,0,0,0,1.49.78S84.9,22.08,84.93,22.16Z"/><path class="cls-1" d="M103.83,26.34a1.69,1.69,0,0,1-2.21-1.28,19.43,19.43,0,0,1-.75-1.85,20.26,20.26,0,0,1,0-2.7c0-1.07.66-1.41,1.77-.94a2.9,2.9,0,0,0,.41.13c0,.67-.8,1.3-.19,2.06s-.1,1.56.48,2.34A6.11,6.11,0,0,1,103.83,26.34Z"/><path class="cls-1" d="M53.43,24c-.86-.52-1.32-1.19-1-2.1a4.26,4.26,0,0,0,0-1.33,5.85,5.85,0,0,1,.43-2,1,1,0,0,1,1.21-.39,1.19,1.19,0,0,1,.56,1.14c-.13.84-.61,1.6-.12,2.57C54.9,22.71,54.34,23.46,53.43,24Z"/><path class="cls-1" d="M150.19,29c-.17-.45-.31-.81-.43-1.18s.41-1.19.82-.95c.86.51,1.88.29,2.76.69.14.06.36,0,.52,0,.48.21,1.07,1.29.88,1.59s-1.74.82-2,.45C152,28.69,151.11,29,150.19,29Z"/><path class="cls-1" d="M149.68,22.55a7,7,0,0,1,1.34.38c.22.11.63.3.19.76a1.81,1.81,0,0,0-.41,1.24c0,.57-.42.8-.59,1.2-.29.67-.67-.3-.94.14-.06.1-.39.05-.59.06.09-.17.31-.43.26-.52-.29-.47.62-.86.06-1.35-.06-.06.08-.41.18-.59a6.22,6.22,0,0,0,.48-.7A1.62,1.62,0,0,0,149.68,22.55Z"/><path class="cls-1" d="M99.61,27.54c0,.05.11.11.11.12s-.11.14-.16.22l-.16-.17Z"/><path class="cls-1" d="M72.47,27.91l.12.11a1.84,1.84,0,0,1-.17.22l-.16-.16Z"/><path class="cls-1" d="M52.34,29.53c-.05,0-.1.12-.12.11a1.53,1.53,0,0,1-.22-.16l.17-.16Z"/><path class="cls-1" d="M70.06,19.42s-.1.12-.11.11a1.12,1.12,0,0,1-.22-.16l.16-.16Z"/></g></svg>