<svg xmlns="http://www.w3.org/2000/svg" viewBox="0 0 251.16 46.88"><defs><style>.cls-1{fill:#fff;}</style></defs><g id="レイヤー_1" data-name="レイヤー 1"><path d="M127.92,2.49c-.17-.21-.5-.43-.46-.62.15-.74-.66-1.05-1.2-1.49-.76-.61-1.1.23-1.68.21a.83.83,0,0,1-.5-.12c-.58-.62-1.52.75-2-.18a2.45,2.45,0,0,1-.62.23c-1.44.17-2.94.23-4.33.52-.8.17-1.43-.82-2.14,0-.81-.73-1.54.31-2.44,0a9,9,0,0,0-2.47-.22c-.69,0-1.34-.14-2-.2-1-.08-1.93,0-2.89,0s-1.75.23-2.36-.39c-.82,1-1.61-.18-2.43,0-1.59.34-3.33-.75-4.88.24-.09,0-.39-.08-.6-.1A5.56,5.56,0,0,0,93,.24a10.65,10.65,0,0,1-5.46.14c-.49-.08-.68,0-.82.16-.49.63-1,.16-1.52.06s-.91.89-1.7.25a1,1,0,0,0-1.2-.08,2.87,2.87,0,0,1-2.35,0,2.22,2.22,0,0,0-1-.19c-1.12.22-2.2.85-3.3,0-2,.86-4.09.19-6.13.39-.9.08-1.91-.18-2.65.41-1.38-.41-2.76,1.08-4.17,0a.75.75,0,0,0-.55,0c-1.21.84-2.39,0-3.58,0s-2.56.27-3.41-.09-1.94.61-2.58-.25a17.32,17.32,0,0,0-2.73.6c-.53.21-.81-.58-1.32,0-.13.15-1.16-.19-1.51,0a1.31,1.31,0,0,1-1.45-.15c-.17-.09-.65.18-1,.15-.56-.06-1.17.07-1.63,0a6.08,6.08,0,0,0-3.75.11,1.81,1.81,0,0,1-1-.13c-.61-.2-1.1.59-1.88,0-.37-.28-1.42-.13-2.17-.18a4.5,4.5,0,0,1-1.9-.25c-.31-.15-1.09.2-1.67.24-2.71.19-5.5-.37-8.17.39a2.19,2.19,0,0,1-1-.2,3.11,3.11,0,0,0-2.36,0c-.43.21-1.09-.42-1.45.17-.32-.1-.78-.36-.94-.29-.88.39-1.66-.38-2.36-.08s-1.46.62-1.74.34c-.57-.55-1.16.05-1.76-.24-.86-.41-2.17.1-3.1-.46-.56.57-1.43.19-2.11.35A13.64,13.64,0,0,0,4,2.08c-2.19.83-2.51,1.39-1.81,3.06.12.3.31.8.11.93-1.15.7.1,1.83-1,2.5.92.82.45,1.65.07,2.48,1.25.52-.22,1.17.19,1.84a2.32,2.32,0,0,1,.13,2.34,4,4,0,0,0-.46,2.69c.08,1.23-.45,2.48.47,3.71.28.39-.95,1-.22,1.77.36.38-.32,1.24-.53,1.88-.08.23-.32.63-.23.67,1,.43-.14,1.05.11,1.25.64.53.32.81-.2,1.16.82.36.53.94.56,1.45a3.53,3.53,0,0,1,0,1.62A10,10,0,0,0,.63,36.2c.06,1.23-.5,2.5.51,3.69.22.26-.82.67,0,1.11.12.06-.63.77-.47,1,.34.44.2.72,0,1.12S.51,44,.21,44.39c-.57.66.19,1.08.37,1.61s.91.27,1.37.38a9.18,9.18,0,0,1,1.77.42c.68.32.82-.5,1.69-.21a5.83,5.83,0,0,0,3.05-.3c1-.35,2.25.64,3.15-.3a5.8,5.8,0,0,1,1.24.25c.26,0,.68.18.76.12,1-.75,2.19-.35,3.27-.35a10.2,10.2,0,0,0,2.65,0c1,1,1.76-.5,2.77-.1.61.24,1.48-.2,2.17.27a1.86,1.86,0,0,0,1.29.12c1-.79,1.86-.18,2.75,0,.31.08.81.33.84.3.74-.72,1.4.21,1.89.06a4.21,4.21,0,0,1,1.87,0,10.54,10.54,0,0,0,4.13-.31c.37-.11,1.07.63,1.89,0,.25-.19,1.53.35,1.85.15.79-.46,1.54.16,1.6.11.55-.45,1.23-.3,1.87-.34a20.22,20.22,0,0,0,2.48-.22c.67-.12,1.51.72,2-.17.32.66.95,0,1.45.15s1.2-.2,1.55,0c1.27.59,2.61.16,3.9.26.38,0,1.1-.41,1.16-.35.68.61,1.24.07,1.89,0,1.25-.06,2.62-.4,3.88.24a6.54,6.54,0,0,0,1.66.1c.72.08,1.31-.58,2.19-.06.3.18,1.33-.78,2.05,0a2.8,2.8,0,0,1,3,0,7.57,7.57,0,0,1,3.52-.4c.37,0,.9,0,1.07.11.53.43.75.09,1.06-.12s.53-.53,1-.11a1.54,1.54,0,0,0,1,.09c.67-.74,1.55,0,2.32-.19a14.91,14.91,0,0,1,3.07-.17,10.19,10.19,0,0,1,2.78.18,10.39,10.39,0,0,0,2.82-.19c1.06,0,2.13,0,3.19,0s2-.46,3,0c.28.11.85-.13,1.29-.19s1.08-.29,1.31-.16c1.3.72,2.77.22,4.13.38,1,.11,2.12-.32,3,.39a1.19,1.19,0,0,0,.74-.15c.62-.53.82.35,1.37.17a5.51,5.51,0,0,1,1.77-.38c.54,0,1,.72,1.65.13.85-.73,1.14.43,2,.29a11.67,11.67,0,0,1,3.73,0,2.82,2.82,0,0,0,1.85-.07,6.46,6.46,0,0,1,3.77-.29c.27,0,.44.39.83.06.66-.57,1.29-1.17,1-1.91-.12-.34-.67-.54,0-.91s-1.17-.66-.11-1.1c-.56-.77.36-1.47.18-2.26a11.55,11.55,0,0,1,0-2.63V33.07c0-.34-.2-.83,0-1,1.33-.83-.28-2.16,1.12-2.93-1-.54-.63-1.11-.07-1.67-1-.6-.38-1.39-.47-2.09a1.33,1.33,0,0,1,.45-1.49c.65-.53-.5-1-.48-1.61,0-.07,0-.15,0-.2,1.16-1.65.33-3.41.57-5.1.06-.4-.23-1,.06-1.19,1-.78.55-1.69.46-2.49s.44-1.62.17-2.52-.68-1.86.42-2.67c-1-.87-.32-1.9-.5-2.85,0-.08.31-.18.35-.29.11-.34-.29-.65.15-1.06S127.09,2.87,127.92,2.49Z"/><path d="M112.57,2.49c.18-.21.54-.43.5-.62-.16-.74.72-1.05,1.3-1.49.82-.61,1.2.23,1.82.21a.94.94,0,0,0,.54-.12c.63-.62,1.65.75,2.19-.18a2.66,2.66,0,0,0,.67.23c1.57.17,3.18.23,4.69.52.87.17,1.55-.82,2.32,0,.88-.73,1.68.31,2.64,0a10.6,10.6,0,0,1,2.68-.22c.75,0,1.45-.14,2.17-.2,1-.08,2.09,0,3.13,0s1.89.23,2.56-.39c.88,1,1.74-.18,2.62,0,1.73.34,3.62-.75,5.3.24.09,0,.42-.08.65-.1a6.51,6.51,0,0,1,2.08-.09,12.45,12.45,0,0,0,5.91.14c.53-.08.74,0,.89.16.53.63,1.09.16,1.65.06s1,.89,1.84.25A1.1,1.1,0,0,1,162,.77a3.33,3.33,0,0,0,2.54,0,2.65,2.65,0,0,1,1.12-.19c1.2.22,2.37.85,3.57,0,2.1.86,4.43.19,6.63.39,1,.08,2.07-.18,2.88.41,1.5-.41,3,1.08,4.51,0a.88.88,0,0,1,.6,0c1.31.84,2.59,0,3.89,0s2.77.27,3.69-.09,2.1.61,2.79-.25a20.12,20.12,0,0,1,3,.6c.57.21.88-.58,1.43,0,.14.15,1.25-.19,1.63,0a1.53,1.53,0,0,0,1.58-.15c.18-.09.7.18,1,.15.6-.06,1.27.07,1.76,0a7.1,7.1,0,0,1,4.06.11,2.1,2.1,0,0,0,1-.13c.67-.2,1.2.59,2,0,.41-.28,1.54-.13,2.35-.18a5.28,5.28,0,0,0,2.06-.25c.33-.15,1.18.2,1.81.24,2.94.19,5.95-.37,8.85.39a2.58,2.58,0,0,0,1.1-.2,3.61,3.61,0,0,1,2.55,0c.46.21,1.18-.42,1.57.17.35-.1.85-.36,1-.29.94.39,1.79-.38,2.55-.08s1.58.62,1.89.34c.61-.55,1.25.05,1.91-.24.92-.41,2.34.1,3.35-.46.61.57,1.55.19,2.29.35a15.6,15.6,0,0,1,1.77.65c2.37.83,2.72,1.39,2,3.06-.14.3-.34.8-.12.93,1.24.7-.11,1.83,1.06,2.5-1,.82-.48,1.65-.07,2.48-1.35.52.24,1.17-.21,1.84a2.17,2.17,0,0,0-.13,2.34,3.72,3.72,0,0,1,.49,2.69c-.09,1.23.49,2.48-.5,3.71-.32.39,1,1,.23,1.77-.39.38.35,1.24.58,1.88.08.23.34.63.24.67-1.05.43.15,1.05-.11,1.25-.7.53-.35.81.21,1.16-.89.36-.58.94-.61,1.45a3.4,3.4,0,0,0,0,1.62,9.12,9.12,0,0,1,.56,4.77c-.06,1.23.54,2.5-.55,3.69-.24.26.89.67,0,1.11-.13.06.7.77.52,1-.37.44-.22.72,0,1.12s.12.93.45,1.29c.61.66-.21,1.08-.41,1.61s-1,.27-1.48.38a10.64,10.64,0,0,0-1.92.42c-.73.32-.89-.5-1.83-.21a6.84,6.84,0,0,1-3.31-.3c-1.13-.35-2.44.64-3.41-.3a6.74,6.74,0,0,0-1.34.25,2.75,2.75,0,0,1-.83.12c-1-.75-2.37-.35-3.53-.35a12,12,0,0,1-2.88,0c-1.06,1-1.9-.5-3-.1-.66.24-1.6-.2-2.35.27a2.17,2.17,0,0,1-1.4.12c-1.07-.79-2-.18-3,0-.33.08-.88.33-.9.3-.8-.72-1.52.21-2.05.06a5,5,0,0,0-2,0,12.37,12.37,0,0,1-4.48-.31c-.4-.11-1.15.63-2,0-.27-.19-1.66.35-2,.15-.85-.46-1.66.16-1.73.11a3.43,3.43,0,0,0-2-.34,23.62,23.62,0,0,1-2.68-.22c-.73-.12-1.63.72-2.19-.17-.35.66-1,0-1.57.15s-1.31-.2-1.69,0c-1.37.59-2.82.16-4.22.26-.41,0-1.19-.41-1.25-.35-.74.61-1.35.07-2.05,0-1.36-.06-2.84-.4-4.2.24a7.74,7.74,0,0,1-1.8.1c-.78.08-1.42-.58-2.38-.06-.32.18-1.43-.78-2.22,0a3.25,3.25,0,0,0-3.26,0,8.81,8.81,0,0,0-3.81-.4,2.67,2.67,0,0,0-1.16.11c-.58.43-.82.09-1.14-.12s-.59-.53-1.15-.11a1.78,1.78,0,0,1-1.12.09c-.73-.74-1.68,0-2.51-.19a17.56,17.56,0,0,0-3.34-.17,11.86,11.86,0,0,0-3,.18,12.2,12.2,0,0,1-3.06-.19c-1.15,0-2.3,0-3.45,0s-2.13-.46-3.27,0c-.31.11-.93-.13-1.4-.19s-1.17-.29-1.42-.16c-1.41.72-3,.22-4.48.38-1.07.11-2.29-.32-3.22.39a1.35,1.35,0,0,1-.79-.15c-.68-.53-.9.35-1.49.17a6.42,6.42,0,0,0-1.92-.38c-.58,0-1,.72-1.79.13-.92-.73-1.23.43-2.16.29a13.68,13.68,0,0,0-4,0,3.27,3.27,0,0,1-2-.07,7.53,7.53,0,0,0-4.08-.29c-.3,0-.48.39-.9.06-.72-.57-1.4-1.17-1.13-1.91.13-.34.73-.54,0-.91s1.27-.66.13-1.1c.6-.77-.39-1.47-.19-2.26a11,11,0,0,0,.05-2.63V33.07c0-.34.22-.83,0-1-1.43-.83.31-2.16-1.21-2.93,1.08-.54.68-1.11.07-1.67,1.07-.6.42-1.39.52-2.09a1.28,1.28,0,0,0-.49-1.49c-.7-.53.54-1,.52-1.61,0-.07,0-.15,0-.2-1.25-1.65-.35-3.41-.61-5.1-.06-.4.25-1-.07-1.19-1.12-.78-.59-1.69-.49-2.49s-.48-1.62-.19-2.52.74-1.86-.45-2.67c1.1-.87.34-1.9.54-2.85,0-.08-.34-.18-.38-.29-.12-.34.32-.65-.16-1.06S113.47,2.87,112.57,2.49Z"/></g><g id="レイヤー_2" data-name="レイヤー 2"><path class="cls-1" d="M153.18,14.67c-.1-.87-.05-1.66.6-2,.82-.48,1.74-1.15,2.74-.58.39.21.45-.12.63-.1s.51.31.73.28a3.48,3.48,0,0,1,1.74.43,15.68,15.68,0,0,0,2,.6,1.21,1.21,0,0,1,.88.64,9.23,9.23,0,0,1,.69,1.24,4.84,4.84,0,0,1-.86,3.59c-.34.48,0,.66.13,1a3,3,0,0,1-2.24-.3,12.64,12.64,0,0,0-1.3-.59,1.89,1.89,0,0,1-1.28-1.18c-.15-.41-.49-.37-.67,0s-.37,1-.58,1.48c-.1.23-.22.56-.4.61a1.76,1.76,0,0,1-1-.06c-.48-.18-.6-.68-.28-1.28a16,16,0,0,1,1.89-3.35c.42-.47.35-.51.71,0a5.29,5.29,0,0,1,.53.64c.06.11-.07.33-.14.59.65.12,1.66-.14,2,.66.17.46.48.38.7.53a.65.65,0,0,0,1.07-.44,12.34,12.34,0,0,0,0-1.72c0-.12-.18-.35-.25-.34-.73.07-1.18-.62-1.79-.67a5.94,5.94,0,0,1-1.84-.6c-.26-.1-.68.22-1,.2a7.24,7.24,0,0,1-1.07-.32c-.4-.09-.56.07-.64.52s-.54.72-.61,1.11.16.65,0,1.1a4.16,4.16,0,0,0-.43,2.08c.08.42-.36.47-.83.38-.62-.11-.68-.59-1-.95-.47-.56.55-.86.11-1.32.76-.68,0-.6-.3-.49a1.29,1.29,0,0,1-1.12,0c-.27-.1-.69.23-1,.3-.8.16-1,.3-1,1.05s0,1.26,0,1.89a3.26,3.26,0,0,1-.27.73c1,.56,1.88-.42,3-.2a2.21,2.21,0,0,1,0,.92,1.45,1.45,0,0,1-.73.75,8.8,8.8,0,0,1-1.92.36c-.4,0-.39.23-.45.53-.1.46.75.76.13,1.34-.18.18.18.87.22,1.34s0,1,0,1.54c0,.31.23.6.28.91a1,1,0,0,1-.17.58c-.31.49-.84.35-1.25.27a.74.74,0,0,1-.61-.87c.15-1-.44-2,0-3.05.3-.72-.42-1.35-.35-2.08-.42.18-.95-.31-1.17-.12-.68.6-1.44.16-2.13.31s-.36-.59-.7-.74a2.36,2.36,0,0,1,.37-.59,11.46,11.46,0,0,1,2.49-.69c1.1,0,1.08,0,1.17-.79.12-1.09.29-2.17.43-3.15a2.93,2.93,0,0,0-2.21-.58,8.14,8.14,0,0,1-1.21,0,.88.88,0,0,1-.84-.86c-.07-.55.33-.48.61-.58a2,2,0,0,1,.75-.26c.46,0,1,.33,1.34.17a1.11,1.11,0,0,1,1.35.14c.07.06.43-.11.42-.14-.15-.94.64-1,1.28-1.28.06.22.11.42.17.6s.73.44.88.51a1.89,1.89,0,0,0,1.4.18c.65-.47,1,0,1.53.14A2.78,2.78,0,0,0,153.18,14.67Z"/><path class="cls-1" d="M172.17,16.25c0,.77,0,1.68,0,2.58,0,.4.24.59.39.88.6,1.18,1.61,2.16,1.85,3.53,0,.15.23.35.18.42-.37.61.1,1.2,0,1.79a5.46,5.46,0,0,1-.44,1.18,1.87,1.87,0,0,1-.37.7,9.06,9.06,0,0,1-1,.71c-1-.81-.46-1.9-.15-2.65.46-1.08-.19-1.86-.21-2.78-.52-.18.16-.9-.53-1.08s-.65.59-1,.84a1.24,1.24,0,0,0-.36.36c-1.14,1.69-1.75,1.9-3.67,1.23a2.21,2.21,0,0,0-.68,0,13,13,0,0,1-.49-2.19c0-.51.29-1.05.29-1.57,0-.72.47-.85,1-1.16.78-.51.73-.55,1.35-.59s1.15-.7,1.81,0c.15.15.57,0,.17-.41a.45.45,0,0,1-.07-.44,1.11,1.11,0,0,0,0-1.64,1.41,1.41,0,0,0-1.71-.08c-.39.22-.55.12-.87-.06s-.62.06-.94,0a1.7,1.7,0,0,1-.91-.26,1.29,1.29,0,0,1-.43-.83A.68.68,0,0,1,166,14a12.72,12.72,0,0,1,2.39.21c.4.09.7.21,1.07-.07.19-.15.61-.34.64-.43a8.73,8.73,0,0,1,.47-1.36c.1-.2.52-.45.65-.39a1.16,1.16,0,0,1,.58.71,7.8,7.8,0,0,1,0,1.53,15.41,15.41,0,0,0,1.78.34,2,2,0,0,0,1.16-.25c.42-.29.74-.47,1.2-.14s.37.66.35,1.06V16c-.5-.05-.87.36-1.44.24-.37-.09-.83.44-1.19-.12C173.22,16.68,172.72,15.64,172.17,16.25ZM170,19.89a2.46,2.46,0,0,0-1.56.24c-1.17.52-1.24.48-1.13,1.59a.88.88,0,0,0,1.29.78C169.65,22.1,170,21.53,170,19.89Z"/><path class="cls-1" d="M100.92,25.54c.88.38,1.79-.19,2.55.37,0,0,.25-.08.35-.16,1-.82,1.76.13,2.6.39a1.66,1.66,0,0,1-.1.54c-.4,0-.79,0-1.06.39a.86.86,0,0,1-1.3.32c-.6-.37-1.18.6-1.78,0-.33.8-1.09-.27-1.46.34-.36-.42-.88,0-1.33-.29a1.36,1.36,0,0,0-1.27.14c-.75.46-1.48,0-2.08-.48a1.18,1.18,0,0,1-.25-.74c0-.47.35-.31.6-.36a10,10,0,0,1,2.44-.36.7.7,0,0,0,.73-.9c-.61-1.47-.25-3-.3-4.49a1.67,1.67,0,0,0-1-1.44c-.15-.1-.71-.26-.77.31s-.39.47-.57.27c-.51-.56-.82-.15-1.08.2s-.43-.1-.63-.11a.82.82,0,0,1-.82-.69c0-.08,0-.21.1-.29a2.61,2.61,0,0,1,1.62-1.06A6.87,6.87,0,0,0,98,17.09c.61.53,1.17-.29,1.8,0s1.13-.21,1.61.31a.46.46,0,0,0,.44,0c.42-.5,1-.24,1.45-.25,1,0,1.44.79.9,1.7-.13.23-.35.48-.61.08-.7.22-1.39-.13-2.09-.08a.9.9,0,0,0-.87,1.26,2.69,2.69,0,0,0,.38,1c.47.47-.3.72-.11,1.14.12.25.58.59,0,.93-.08,0-.09.4,0,.48C101.65,24.27,101.12,24.92,100.92,25.54Z"/><path class="cls-1" d="M81.55,24.29a11.24,11.24,0,0,1,.2-1.66,14.13,14.13,0,0,1,.72-1.76c1.24-.33,2.15-1.46,3.56-1.4a3.69,3.69,0,0,0,2.13-.29c.26-.15,1.08-.4,1.09.51,1.09.06,1.62.92,2.27,1.59a16.28,16.28,0,0,1,1.8,2.18c.14.2.54.67.06,1.09-.1.09,0,.53.15.76.24.43-.35.6-.25,1l-.93-.05c.1-.65-1-1-.38-1.81,0-.05,0-.24,0-.31-.4-.53-.79-1.06-1.22-1.56s-1.36-.23-1.66-1c-.12.11-.3.2-.36.34a2.32,2.32,0,0,0-.17.78c0,.46,0,.92-.44,1.2-.1.05-.25.17-.24.24.22,1.32-1,1.42-1.65,2-1.13,1-2.36.6-3.51.38-1-.18-1.07-.49-1.08-1.54v-.69Zm3.22,1.1c1.35-1.12,2.49-2.23,1.91-4.14a2.85,2.85,0,0,0-3.35,1.95c-.58,1.28-.56,1.34.78,1.79A3.62,3.62,0,0,1,84.77,25.39Z"/><path class="cls-1" d="M155.7,23.82a7.71,7.71,0,0,0-1.75.1,5.28,5.28,0,0,1-1.69,0,.8.8,0,0,1,.21-1.2c.85-.56,1.69-1.22,2.82-.64a.87.87,0,0,0,.63.11c.44-.21.82-.57,1.26,0-.08-.43,1.22,0,.54-.88-.08-.09.27-.54.46-.8.31-.44.53-.45.95-.07a1.3,1.3,0,0,1,.55,1.45h1.37c1.67-.06,1.77,0,1.69,1.78-.83-.49-1.57.49-2.47,0-.21-.1-.58.36-.56.83s.17.45.52.47a2.67,2.67,0,0,1,1.55.81,1.1,1.1,0,0,1,.36,1.06c-.5-.06-.65.69-1.3.46-1-.36-1.05-.29-1.47.14a.84.84,0,0,1-.34.26,1,1,0,0,1-1.14-1.39c.2-.46,0-.61-.25-.85s-.46-.19-.72,0-.62.26-.62.39c0,.75-.59.46-.88.42s-.66-.75-.53-1.12a5.12,5.12,0,0,1,.34-.71c.11-.18.26-.34.47-.68,0-.13-.06-.07-.12,0l.15.15a1.49,1.49,0,0,0,.15-.2S155.82,23.68,155.7,23.82Z"/><path class="cls-1" d="M133.83,19.48h-3.18a.86.86,0,0,1-1-.86,1.1,1.1,0,0,1,.35-.69c.14-.13.41-.12.62-.17a7.08,7.08,0,0,1,1.12-.19,4.58,4.58,0,0,1,.84.19c.16,0,.4.08.5,0,1.06-.85,1.81.17,2.65.46.55.18.59.65.29,1.26a6.38,6.38,0,0,1-.61,1,24.89,24.89,0,0,1-1.37,2.67c-.48.35.42.86-.25,1a8.2,8.2,0,0,0,.46.82c.15.23.52.42.53.63,0,.76.57.39.88.44.11,0,.24-.3.38-.31a1.35,1.35,0,0,1,.78.14c.12.08.11.44.05.65-.4,1.29-1.22,1.56-2.56.95a2.2,2.2,0,0,1-1.6-2.25c0-.4-.27-.81-.31-1.23A7,7,0,0,1,133.76,20C133.81,20,133.79,19.82,133.83,19.48Z"/><path class="cls-1" d="M118.61,18.11a5.41,5.41,0,0,1,0-1.22c.18-.75.55-.88,1.4-.62.15,0,.39.16.45.1.69-.68,1.53-.27,2.28-.3a11.82,11.82,0,0,1,2.27.32,2.28,2.28,0,0,1,1.51,1.76,4.83,4.83,0,0,1-.63,2.83,2.09,2.09,0,0,0-.24.58c-.1.42,0,.93-.28,1.25s-.87,0-1.16.5-.57.08-.69-.14-.18-.68-.06-.77c1-.8.56-2.18,1.3-3.09.14-.17,0-.55,0-.83s-.27-.43-.56-.32-.27.43-.49.1c-.37-.59-1-.45-1.51-.52-.38,0-.67.58-1.12.05-.21-.25-.69.58-1.09,0,0,0-.44.25-.69.32A3.55,3.55,0,0,1,118.61,18.11Z"/><path class="cls-1" d="M77.89,20.79c-.49-.59-1.12-.78-1.1-1.43S76.55,19,76.2,19s-.73-.4-1.11-.58a1.44,1.44,0,0,0-.51,0,7.36,7.36,0,0,0-2.21.06c-.42.14-.8,0-1.2.14a.93.93,0,0,1-1.28-.34,1,1,0,0,1,.57-1.23c1.1-.58,2.28-.33,3.43-.29.4.53.7-.23,1.12-.09s.68.79,1.13.15c.58.37,1.29.16,1.93.51.39.2.34.48.53.68a.83.83,0,0,1,0,1.18A10,10,0,0,0,77.89,20.79Z"/><path class="cls-1" d="M114.43,17.33c0,.08.34.43.27.52-.49.7,0,1.58-.37,2.2a2.57,2.57,0,0,0-.23,1.28c-.1.87.18,1.75-.31,2.62a1.69,1.69,0,0,0,0,1.49c.76,1.13,0,1.83-.51,2.64a3.43,3.43,0,0,1-1.06-1.61c-.25-.54.42-.71.17-1.16-.15-.26,0-.75-.16-.94-.45-.46.43-.57.17-1-.15-.25,0-.67,0-1s-.16-1.11.07-1.32c.52-.46-.3-.7-.06-1s.22-.84.36-1.22C113,18.12,113.15,17.18,114.43,17.33Z"/><path class="cls-1" d="M79.54,27.61c-.54.15-1,.46-1.29.32a2.43,2.43,0,0,0-1.13-.19c-.44,0-.87.06-1.28-.31-.14-.13-.8.36-1,.23-.41-.29-.65-.36-1,0a.48.48,0,0,1-.48,0c-.61-.43-1.22.24-1.79,0a1.44,1.44,0,0,1-.67-.64.82.82,0,0,1,.21-.74c.31-.28.83-.72,1.07-.62,1,.41,2.12-.41,3,0s1.89.12,2.82.28a1,1,0,0,0,.34,0c1-.23,1.13-.16,1.18.72C79.55,27,79.54,27.29,79.54,27.61Z"/><path class="cls-1" d="M120.17,20.1c1.41.55,1.24,1.81,1.51,2.8s-.33,2.24.36,3.28c-.53.36-.22.94-.36,1.39a.85.85,0,0,1-1.39.28c-.38-.54-.89-1-.5-1.89a3.77,3.77,0,0,0,0-2.28A4.47,4.47,0,0,1,120.17,20.1Z"/><path class="cls-1" d="M108.23,24.34c.16-.79-1-1.15-.37-1.92-.62-.55-.21-1.27-.33-1.9a3.16,3.16,0,0,0-.12-.64,1.77,1.77,0,0,1,.21-2c.16-.14.52-.07.79-.1,0,.71.94.91.87,1.71a18.84,18.84,0,0,0,0,2.91A1.84,1.84,0,0,1,108.23,24.34Z"/><path class="cls-1" d="M139,19.76c-1.49,0-1.6,0-2-1.05-.18-.44-.51-1-.39-1.33s.68-.86,1-1.28l.85.35Z"/><path class="cls-1" d="M140.11,16.05a2.68,2.68,0,0,1,1.26,2.26c.12.77-.88.92-1.11,1.54-.83-.76-.34-1.84-.86-2.65C139.3,17.05,139.82,16.5,140.11,16.05Z"/><g id="_7iCiEg" data-name="7iCiEg"><path class="cls-1" d="M30.6,22.29a.4.4,0,0,0-.14-.34c-.5-.24-.44-.79-.54-1.16a2.75,2.75,0,0,0-.83-1.33,13.07,13.07,0,0,1-1-1A6.93,6.93,0,0,0,26,17.19c-.48-.27-.77.27-1.19.07a1.76,1.76,0,0,0-.69,0c-.71.05-1.5-.23-2,.54,0,0-.18,0-.27,0a5.74,5.74,0,0,0-1.27.29c-.63.3-1.41.45-1.77,1.08a9.63,9.63,0,0,1-1.3,1.54,1.21,1.21,0,0,0-.27.43c-.29.94-.62,1.88-.82,2.84a3,3,0,0,0,.25,1.12c0,.09,0,.24,0,.27-.29.23-.24.38,0,.61a.75.75,0,0,1,.25.57.93.93,0,0,0,.45.93.88.88,0,0,1,.41.94c.47.18.18.65.37,1a19.91,19.91,0,0,0,3.95,4.7,16.24,16.24,0,0,1,1.7,1.21c.31.36.57-.32.72.1a1.31,1.31,0,0,0,.39-.2c1-1,1.62-2.31,2.85-3.09a.32.32,0,0,0,.06-.24c-.07-.56.85-.63.61-1.25,1-.57,1-1.74,1.61-2.53a6.61,6.61,0,0,0,.84-1.85.71.71,0,0,0-.25-.85C31.39,24.35,30.5,23.32,30.6,22.29ZM26,23.82c-.43.64-.38,1.55-1.15,2a2.91,2.91,0,0,1-.45.26.94.94,0,0,1-.41,0l-1.31-.28c-.13,0-.3,0-.39-.06a3.54,3.54,0,0,1-.59-.57,2.15,2.15,0,0,1-.39-2.53,3.29,3.29,0,0,1,.4-.62,2.53,2.53,0,0,1,2-.92c.22-.16.43,0,.65.12a.35.35,0,0,0,.5-.11c.47.35,1.12.49,1,1.35C25.87,22.88,26.35,23.37,26,23.82Z"/></g></g></svg>