<svg xmlns="http://www.w3.org/2000/svg" viewBox="0 0 249.63 46.24"><defs><style>.cls-1{fill:#fff;}</style></defs><g id="レイヤー_1" data-name="レイヤー 1"><path d="M114.8,14c.48-.3-.3-.46,0-.9a3,3,0,0,0,.15-2.52,6.12,6.12,0,0,0-.75-1.43c-.63-.77.44-1.19.35-1.81,0-.32,0-.69-.2-.94A5.43,5.43,0,0,1,113.44,3c0-1.44-2.08-2.58-3.94-2.32-.51.7-1.1-.44-1.62,0s-1.45.2-2.18.3c-.49.07-1.23-.06-1.44.16-.63.63-1.18-.2-1.65,0a1.5,1.5,0,0,1-1.8-.11.82.82,0,0,0-.67,0A.91.91,0,0,1,98.69,1c-.4.45-1,.4-1.59.39-.95,0-1.91,0-2.86,0s-1.73,0-2.59,0-1.65,0-2.41-.09-1.81.38-2.4.05A5.62,5.62,0,0,0,83.91,1C78.46,1,73,1,67.57,1c-.64,0-1.37.26-1.95-.24a.87.87,0,0,0-.68-.13,6.28,6.28,0,0,1-4.78,0,1.91,1.91,0,0,0-1,0,15.6,15.6,0,0,1-6.63,0c-.25-.05-.59.18-.88.16s-.65-.17-1-.21a3.23,3.23,0,0,0-1,0c-.62.15-1.26.72-1.82.34-.79-.54-1.25.26-2,.1a6.31,6.31,0,0,0-2.56,0c-.77.15-1.26-.34-2-.25S39.84.59,39.19,1A.27.27,0,0,1,39,1c-.7-.6-1.46-.39-2.31-.2-.66.14-1.45,0-2.12.1A8.84,8.84,0,0,0,32,1.39c-.73.41-1.55-.63-2.37,0-1.24-.7-2.65-.27-4-.32-.45,0-.79.65-1.51.16-.23-.16-1,.17-1.47.2-.78,0-1.56,0-2.34,0s-1.77.23-2.28,0c-.82-.47-1.36.23-1.94,0a2.7,2.7,0,0,0-1.92,0c-.54-.63-1.15.21-1.63,0-1.6-.78-3.33-.19-5-.39-.83.74-1.59.08-2.38-.08A14.64,14.64,0,0,0,3,1.13L.45,4.35a1.15,1.15,0,0,1,.11.29A6,6,0,0,1,.77,7.16c-.32.91.29,1.67.12,2.52s0,1.89-.07,2.83S1.37,14.27.33,15c.26.82,1.08,1.64,0,2.48A3.15,3.15,0,0,1,.39,21c1,.71,0,1.38-.07,2.07,1.28.7-.43,1.37,0,2.11.2.36-.77.84,0,1.27.12,1.43-.35,2.91.52,4.29-.83.69.29,1.35.06,2.1S1,34.61.79,35.46c-.11.5.86.78.18,1.35-.48.4.18,1.14-.54,1.65-.27.19-.3,1-.07,1.12.71.4-.1.92.4,1.42s.1,1.29.08,2a2.89,2.89,0,0,0,1.51,2.34.77.77,0,0,0,.52.07c.58-.59,1.23.25,1.41.07.74-.68,1.19.15,1.73.1,1-.09,2,.32,2.94-.35.4-.28,1.24.06,1.92-.29.37-.18,1.29.37,1.74.21a14.32,14.32,0,0,1,4.22-.37c.52,0,1.23-.4,1.5-.24a2.09,2.09,0,0,0,1.67.21c.8-.3,1.76-.64,2.35-.3.91.52,1.47-.44,2.23-.08a3.32,3.32,0,0,0,1.36.33c.44,0,.88-.3,1.31-.29s1.22.43,1.29.35c.72-.78,1.69,0,2.56-.29a4,4,0,0,1,3.18.23c.25.16.95,0,1.36-.16a1.53,1.53,0,0,1,1.61.09c.16.11.58.21.67.14,1-.8,2.3-.24,3.44-.37a2.91,2.91,0,0,1,1.69.23c.37.18,1.16-.23,1.76-.23s1.55.44,2,.24a1.78,1.78,0,0,1,2,.12.84.84,0,0,0,.67-.12c.57-.5,1.46,0,1.9-.3.77-.54,1.28.26,2,.06s1.38-.47,1.77-.29c1.79.84,3.93-.4,5.62.67.64-.69,1.61-.45,2.36-.36s1.58-.64,2.4-.1c.26-.75.81.25,1.34-.15.37-.28,1.28-.19,1.94-.18s1.26.35,1.47.19c.8-.61,1.17.3,1.78.2s1-.17,1.44-.2c.81-.06,1.63-.09,2.44-.1.18,0,.49.21.53.17.65-.56,1.48-.17,2.2-.27a3.71,3.71,0,0,1,2.13.4c.61.29,1.13-.57,2-.05.46.3,1.42,0,2.09.44s1.24-.69,1.88,0c.37-.62,1.14-.13,1.73-.32.74-.24,1.8.17,2.69.1.56,0,1.07.23,1.68,0a4.09,4.09,0,0,1,1.73-.13c.53,0,1.3.45,1.53.29a2.82,2.82,0,0,1,1.67-.3,15.59,15.59,0,0,1,1.81,0c.21,0,.38.29.6.33.61.11,1.22.65,1.87.06a62.18,62.18,0,0,0,9.58-.51l1.52-1.88c.08-.1.27-.27.26-.27-1.07-.74-.24-1.76-.63-2.63-.28-.63-.8-1.57-.28-2.16s.34-1.26.44-1.89c.06-.33-.06-.69,0-1,.17-.48.6-.92.68-1.39a7.64,7.64,0,0,0-.19-1.56c0-.61,0-1.21,0-1.82s-.28-1.25.06-1.59c.62-.62-.34-1-.07-1.52.12-.23,0-.58.2-.74.47-.38.24-.6,0-1s0-1,0-1.48c0-.31.24-.61.27-.92.06-.72-.23-1.5.82-2,.07,0,.12-.24.08-.27a1.15,1.15,0,0,1-.3-1.67c.61-.7-.3-1.16-.09-1.73s-.22-.94.42-1.3a.45.45,0,0,0,0-.52C114.53,14.61,114.22,14.3,114.8,14Z"/><path d="M67.83,31.64c-.48.3.31.46,0,.9a3,3,0,0,0-.14,2.52,6.08,6.08,0,0,0,.74,1.43c.63.77-.44,1.19-.34,1.81a1.93,1.93,0,0,0,.19.94,5.44,5.44,0,0,1,.87,3.38c0,1.44,2.07,2.58,3.93,2.32.51-.7,1.11.44,1.62,0s1.45-.2,2.18-.3c.49-.07,1.23.06,1.44-.16.63-.63,1.18.2,1.65,0a1.5,1.5,0,0,1,1.8.11.82.82,0,0,0,.67,0,.92.92,0,0,1,1.45.08c.41-.45,1-.4,1.6-.39h2.85c.86,0,1.73,0,2.59,0s1.65.05,2.42.09,1.8-.38,2.39-.05a5.65,5.65,0,0,0,2.94.34c5.44,0,10.89,0,16.33,0,.64,0,1.37-.26,2,.24a.87.87,0,0,0,.68.13,6.28,6.28,0,0,1,4.78,0,1.91,1.91,0,0,0,1,0,15.6,15.6,0,0,1,6.63,0c.26,0,.59-.18.88-.16s.66.17,1,.21a3.24,3.24,0,0,0,1,0c.61-.15,1.25-.72,1.81-.34.79.54,1.25-.26,2-.1a6.36,6.36,0,0,0,2.57,0c.77-.15,1.25.34,2,.25s1.42.2,2.07-.21a.29.29,0,0,1,.24,0c.7.6,1.45.39,2.3.2.67-.14,1.45,0,2.12-.1a8.77,8.77,0,0,0,2.58-.52c.73-.41,1.55.63,2.38,0,1.23.7,2.64.27,4,.32.45,0,.79-.65,1.51-.16.24.16,1-.17,1.48-.2.77,0,1.55,0,2.33,0s1.77-.23,2.28,0c.82.47,1.36-.23,1.95,0a2.67,2.67,0,0,0,1.91,0c.54.63,1.15-.21,1.63,0,1.6.78,3.34.19,5,.39.83-.74,1.59-.08,2.38.08a14.78,14.78,0,0,0,2.14-.21l2.56-3.22a1.15,1.15,0,0,1-.11-.29,5.94,5.94,0,0,1-.21-2.52c.32-.91-.28-1.67-.11-2.52s0-1.89.06-2.83-.55-1.76.49-2.47c-.26-.82-1.08-1.64-.05-2.48a3.17,3.17,0,0,1,0-3.55c-1-.71,0-1.38.07-2.07-1.27-.7.44-1.37,0-2.11-.2-.36.77-.84,0-1.27-.12-1.43.36-2.91-.52-4.28.84-.7-.28-1.36-.06-2.11s-.08-1.76.11-2.61c.11-.5-.85-.78-.18-1.35.49-.4-.18-1.14.55-1.65.26-.19.29-1,.06-1.12-.7-.4.11-.92-.4-1.42s-.1-1.29-.08-2A2.85,2.85,0,0,0,180.28.28a.77.77,0,0,0-.52-.07c-.58.59-1.22-.25-1.41-.07-.73.68-1.18-.15-1.73-.1-1,.09-2-.32-2.94.35-.4.29-1.24-.06-1.92.29-.36.18-1.29-.37-1.74-.21a14.25,14.25,0,0,1-4.21.37c-.52,0-1.24.4-1.5.25a2.08,2.08,0,0,0-1.68-.22c-.79.3-1.76.64-2.35.3-.91-.52-1.46.44-2.23.08a3.32,3.32,0,0,0-1.36-.33c-.43,0-.88.3-1.31.29s-1.22-.43-1.29-.35c-.72.78-1.69,0-2.56.29a4,4,0,0,1-3.18-.23,2.27,2.27,0,0,0-1.36.16A1.53,1.53,0,0,1,145.38,1c-.16-.11-.58-.21-.66-.14-1,.8-2.3.24-3.44.37a2.94,2.94,0,0,1-1.7-.23c-.37-.18-1.16.23-1.76.23s-1.54-.44-2-.24a1.79,1.79,0,0,1-2-.12.86.86,0,0,0-.66.12c-.57.51-1.47,0-1.91.3-.77.54-1.28-.26-1.95-.06s-1.39.47-1.78.29c-1.78-.84-3.93.4-5.61-.67-.64.69-1.61.45-2.37.36s-1.58.64-2.4.1c-.26.75-.81-.25-1.34.15-.37.28-1.27.19-1.94.18-.5,0-1.26-.35-1.47-.19-.8.61-1.17-.3-1.77-.2s-1,.17-1.45.2c-.81.06-1.62.09-2.44.1-.18,0-.49-.21-.53-.17-.65.56-1.47.17-2.2.27a3.68,3.68,0,0,1-2.12-.4c-.61-.29-1.14.57-2,.05-.46-.3-1.43,0-2.09-.44s-1.25.69-1.89,0c-.37.62-1.13.13-1.73.32s-1.79-.17-2.69-.1c-.56,0-1.07-.23-1.68,0a4.09,4.09,0,0,1-1.73.13c-.53,0-1.3-.45-1.52-.29a2.85,2.85,0,0,1-1.68.3,15.61,15.61,0,0,1-1.81,0c-.21,0-.38-.29-.6-.33C81.85.78,81.24.24,80.59.83A62.05,62.05,0,0,0,71,1.34L69.49,3.22c-.08.1-.27.27-.26.27,1.07.74.24,1.76.63,2.64.28.63.8,1.56.28,2.15s-.34,1.26-.44,1.89c0,.33.07.69,0,1-.16.48-.6.92-.67,1.39a7,7,0,0,0,.18,1.56c0,.61,0,1.22,0,1.82s.28,1.25-.06,1.59c-.62.62.35,1,.07,1.52-.12.23,0,.58-.2.74-.47.38-.24.6,0,1s0,1,0,1.48c0,.31-.24.61-.27.92-.06.72.23,1.5-.81,2-.08,0-.13.24-.08.27a1.15,1.15,0,0,1,.29,1.67c-.6.7.3,1.16.09,1.73s.22.94-.42,1.3a.45.45,0,0,0,0,.52C68.1,31,68.41,31.29,67.83,31.64Z"/><path d="M249,32.67c-.1-1.28.37-2.67-.15-3.81a6.61,6.61,0,0,1-.33-3.11c0-.43,0-.84,0-1.28a5.64,5.64,0,0,1,.33-3.11c.47-.9.32-2.07.63-3.1-.79-.44-.48-1.08-.51-1.66s.68-1,0-1.48a1.92,1.92,0,0,0,.42-2.42c-.53-.77.95-1.64-.41-2.19,0,0,.08-.36.18-.53a2.16,2.16,0,0,0-.06-2.61.67.67,0,0,1-.06-.54c.11-.38.53-1,.37-1.1-.75-.51.46-1,0-1.28-.92-.54.53-.88.06-1.32a7.3,7.3,0,0,0,0-.81c0-.53-.43-.87-1.1-.9-2-.09-4.05.21-6-.39-.26-.07-.69.3-1.07.37-.83.15-.43-.68-.84-.75-1.21-.17-2.53.14-3.66-.46-.54.61-1,.43-1.67,0A1.69,1.69,0,0,0,234,.39a1.27,1.27,0,0,1-1.11,0c-.45-.13-1-.11-1.53-.21a2.33,2.33,0,0,0-1.69.21c-.37.21-1.08-.65-1.59.08C227,.16,226,.74,224.87.63,223.6.5,222.09.9,221,.51s-1.94.72-2.52-.32a14.64,14.64,0,0,1-7.35,0,.62.62,0,0,0-.46.09c-.44.5-1.1.32-1.66.29-1.08,0-2.16,0-3.25-.14s-2.07.26-3.13-.21c-.34-.15-1.17.29-1.43.13A3.48,3.48,0,0,0,198.63.2c-1.48.2-3.07-.47-4.47.38-.11.07-.45-.09-.68-.14-.39-.08-.94-.33-1.14-.22a3,3,0,0,1-2.6.31c-.81-.49-1.77.6-2.28-.33-.72.77-1.37-.35-2.18,0-.41.15-1,.65-1.65.06-.44-.38-1.13.54-1.68.11-.83-.65-1,.47-1.81.32A16,16,0,0,0,177,.6h-3.37a12.12,12.12,0,0,1-3.08,0c-1.09-.31-2.05.43-3,0s-2,0-2.94.1a4.11,4.11,0,0,1-2,.11c-.63-.2-1.57.3-2.27.17A8.32,8.32,0,0,0,158,1c-2.23.17-4.49.07-6.74,0-.72,0-2.36.64-2.42,1.17-.21,1.86-1.26,3.62-1.09,5.53,0,.42.66.76.09,1.32-.34.33.07,1.08-.18,1.54s0,.46,0,.74a23,23,0,0,1,.12,3.22c-.83.25.27.86-.36,1.17-.82.41-.41,1-.36,1.57a7.5,7.5,0,0,1,.18,1.14c0,.44-.27.87-.29,1.31s.4.8.24.95c-.6.56-.67,1,0,1.58.2.18.12.63,0,.92-.84,2.16-.41,4.35-.2,6.51a2.75,2.75,0,0,1,0,1.4c-.18.46.36,1.08.22,1.57a3.19,3.19,0,0,0,0,2,6.75,6.75,0,0,1,0,2v1.83a15.13,15.13,0,0,0,0,2,10.07,10.07,0,0,0,.5,1.65c-1.32.32.39,1.15-.43,1.56-.12,1.27,1,1.87,2.52,1.72a42.39,42.39,0,0,1,6.57-.08c.61,0,1.25.4,1.76,0,.84-.67,1.11.67,1.79.25,1.22-.76,2.63-.27,3.95-.37.93-.08,2.08.21,2.78-.12a4.31,4.31,0,0,1,2.68-.24,7.54,7.54,0,0,0,2.19-.07c.8-.06,1.69.25,2.42-.36.16-.14.78,0,1.18.1s.79.3.86.24c.86-.82,1.65-.17,2.46,0,.43.11,1.08.41,1.26.28a2,2,0,0,1,2.1-.13c.78.44,1.07-.38,1.76-.19a9.92,9.92,0,0,0,2.32,0c.77,0,1.55,0,2.33,0a12,12,0,0,1,2.5.18c.78.21,1.24-.39,2-.23.54.11,1.39-.47,1.81-.3a5,5,0,0,0,1.9.35,8.82,8.82,0,0,1,2.06,0,2.37,2.37,0,0,0,1.68,0c.3-.12.85.45,1.33,0,.31.6,1.21-.41,1.47.33.53-.13,1.05-.29,1.6-.38a2.29,2.29,0,0,1,.69.14,6.74,6.74,0,0,0,.85.2c.49-.88,1.28.18,1.84-.18.77-.5,1.36.07,2,.22.32.07.85.13,1,0,.7-.6,1.3,0,1.93,0,.81,0,1.72-.33,2.44.28a1,1,0,0,0,.68,0c2.23-.74,4.56-.14,6.82-.34.73.55,1.61-.24,2.13,0,.94.51,1.65.06,2.46,0a11.36,11.36,0,0,1,3.68.37,10.19,10.19,0,0,0,2.07,0h2.07c.7,0,1.39,0,2.08,0a12.37,12.37,0,0,1,1.73.19,4.43,4.43,0,0,0,1.56-.17,9.48,9.48,0,0,1,2.32,0,5.13,5.13,0,0,1,1.76.57c.59.33,1.13-.72,1.64,0,.8-.14,1.82,0,2.27-.67a1.33,1.33,0,0,0,.1-1.44,1.93,1.93,0,0,1-.32-1.33,5.12,5.12,0,0,1,0-1.41c.09-.49.43-1,.48-1.46.08-.87-.34-1.89.12-2.59s-.9-1.62.41-2.18c0,0,0-.28-.09-.35C248.52,34.15,249,33.37,249,32.67Z"/></g><g id="レイヤー_2" data-name="レイヤー 2"><g id="_9EZMFD" data-name="9EZMFD"><path class="cls-1" d="M108.13,24.53a.44.44,0,0,1,.07.34c-.1.41-.43,1-.28,1.19.36.43.21.85.29,1.28a6.39,6.39,0,0,1-.12,2.64c-.89-.25-1.44-.73-1.27-1.75.06-.37,0-.68-.52-.63,0,0-.21-.35-.15-.41.72-.92.24-1.75-.13-2.6l-2.6,2.89c-.52-.59-.82-1.09-.39-1.67s.48-1.53,1.38-1.82c.14,0,.34-.26.32-.36-.16-.79.49-1.1.91-1.52a1.34,1.34,0,0,0,.51-1.18c-.06-.72,0-1.46,0-2.12-.63-.38-1.13.3-1.66,0,0,0-.16.15-.24.23-.6-.68-1.43-.11-2.08-.38a.79.79,0,0,1-.39-1.22,5.65,5.65,0,0,1,1.6-.25c.49,0,1-.5,1.48,0,.1.09.62-.2.92-.37s.13-.43.07-.74A1,1,0,0,1,107,14.89a.83.83,0,0,1,.87.81,10.29,10.29,0,0,1,0,1.25c.32-.14.56-.35.76-.31.72.13,1.39.51,2.15,0,.2-.13.72.14,1,.32a5.57,5.57,0,0,1,.87.76,47.85,47.85,0,0,1,3-4.28c.2-.21-.47-.51,0-.73a4.34,4.34,0,0,0,.71-.37,1.13,1.13,0,0,1,1.44,0,8.31,8.31,0,0,0,.75.71c.55.36.59,1.36,1.53,1.21a2.4,2.4,0,0,0,.9,1.05,13.89,13.89,0,0,0,2.25,1.25c.57.22.43.7.76,1s-.55,1-.79.78c-.51-.48-1.07-.24-4.83-.74-2.83-.6-2.58.39-2-.22a1.33,1.33,0,0,1,1.28,0c.6.46,1.21.22,1.8.23a5,5,0,0,1,1.85.24c.08,0,.2,0,.29,0a1.64,1.64,0,0,0-.13-.46c0-.06-.21,0-.3-.07a5.41,5.41,0,0,1-1-.55,1.54,1.54,0,0,0-1-.51c-.24,0-.48-.42-.71-.65s-.58-.4-.65-.66c-.17-.65-.69-.44-.91-.3a3.44,3.44,0,0,0-.84,1c-.33.49-.62,1,2.3,1.94,3.22.83,3.22,1.23,3.22,1.75H118.8c.42.6.62,1.15,1,1.39a2.42,2.42,0,0,0,1.49.19c.28,0,.24,0,.4.17.48.59.06,1.45.67,2-.18.62-.39,1.22-.53,1.85-.23,1.11-1.26,1-2,1.34a2.46,2.46,0,0,1-.86,0c-.79,0,0,.43-.13.55-.58.65-.15,1.4-.33,2.15h2l.57,1.7c-.8,0-1.51.33-2.27-.19-.3-.21-.84-.31-1,.45,0,.22-.73.42-1.13.45-.16,0-.45-.47-.5-.76-.1-.47.13-1-.77-1-.3,0-.73-.5-1-.85s.11-.87.74-.95c.44-.06.76-.28,1.26.09s.29-.42.53-.6c.44-.33,0-.53-.18-.59a8.13,8.13,0,0,0-1.52-.48,1.64,1.64,0,0,1-1.53-1.56,14.19,14.19,0,0,0-.29-1.94,7,7,0,0,1,.34-2.26c.93-.37,1.89.17,2.84-.33.71-.38.8-.22.87-1.16-.76.13-1.54-.25-2.23.35-1.1-.84-1.67.15-2.38.67-.34.26-.72.47-1.2.78,0-.83-.25-1.59.31-2.35-1.39-.54-2.68.58-4.19.15.09.71.38,1.37.17,1.76-.35.67.21,1,.22,1.53a.56.56,0,0,0,.39.6c.91.47,1.43,1.54,2.57,1.72.06,0,.17.2.14.26a2.8,2.8,0,0,1-.47,1,.82.82,0,0,1-.76,0c-.45-.71-1.31-.53-1.94-1h.07a.74.74,0,0,0-.1-.26s-.14,0-.21.06A.63.63,0,0,0,108.13,24.53Zm8.34-2.75a1.83,1.83,0,0,0-.28.14,2.08,2.08,0,0,0-.36,2.8.63.63,0,0,0,1-.24c.21-.54.35-1.1.51-1.66.06-.19.18-.52.11-.56A6.47,6.47,0,0,0,116.47,21.78ZM120.6,23a.81.81,0,0,0-.18-.21c-.34-.2-.45-.87-1.06-.55s-.44.85-.43,1.34c0,.14.16.28.27.39s-.69.52.09.58c.31,0,.63.12.7-.44C120,23.7,120.38,23.35,120.6,23Z"/><path class="cls-1" d="M142.12,15.25c.11.74.19,1.38.31,2s-.26,1.32.3,1.95a.68.68,0,0,1-.33,1,4.43,4.43,0,0,1-1.27.1c0-.2.13-.43.06-.6s-.51-.5-.46-.64c.18-.56-.51-1-.07-1.64.24-.35-.3-.86-.62-.78-.69.17-1.29-.56-2-.07-.15.1-.58-.29-.88-.29a2.74,2.74,0,0,0-.89.32c-.19.09-.45.16-.55.32-.59.89-1.12,1.83-1.74,2.71-.18.26-.13.33,0,.5s.42.41.71.14a5.59,5.59,0,0,0,.73-.73c.44-.58,1-.63,1.81-.43a3.79,3.79,0,0,0-.3,1c0,.69-.79.85-.85,1.57A2,2,0,0,1,135,23.05c-.66.27-.64,1-1.17,1.27-.21.11-.34.4-.56.68.63.19,1.2.57,1.62.44a8.5,8.5,0,0,1,1.57-.23.81.81,0,0,0,.68-1.21,2.61,2.61,0,0,1-.25-1.62c0-.38.48-.47.93-.26a2.2,2.2,0,0,1,1.07,1.29,13,13,0,0,0,1.57,2.8c.45.72.26,1.24-.52,1.65-.33.18-.53.12-.71-.13s-.33-.56-.5-.83-.52,0-.59,0c-.74-.29-1.42.26-2.25,0,0,.66-.27,1.24.14,1.82-.48,1,.14,2.14-.53,3.09-.27.39-.47.47-.73.12a2.79,2.79,0,0,1-.61-2.29c.12-.39,0-.62,0-.93s.25-.58.31-.89a4.15,4.15,0,0,0,0-.87c-.46.23-.83.81-1-.05-.1-.44-.27,0-.41,0a4.15,4.15,0,0,1-1.36-.25,1.27,1.27,0,0,1-.62-.69c-.14-.36.42-1.38.82-1.7.17-.14.45-.29.47-.47.07-.64.16-1.21,1-1.33a4.34,4.34,0,0,0,0-.89c-.63.07-.52-.59-.83-.83s-.71-.63-.14-1.08a.38.38,0,0,0,0-.32c-.25-.94.35-1.47.94-2a1.61,1.61,0,0,0,.43-.51c.05-.1,0-.33-.15-.43s-.4-.27-.46-.22c-.47.38-1,.12-1.48.19s-.88.11-1.32.16c0,.69-.84.93-.77,1.77s-.34,1.82-.34,2.78c0,.4-.5.8-.75,1.16-.22,0-.35,0-.44-.05-1-.6-.85-.57-.66-1.77.1-.55,1-1.09.23-1.75a5.93,5.93,0,0,0,.66-1.75,2.48,2.48,0,0,1,2.58-2.23c.57,0,1.07-.35,1.66-.13.11,0,.48-.26.55-.46a4.1,4.1,0,0,0,0-1.06c-1.39-.4-3.2.53-4.23-1.21a3.6,3.6,0,0,1,2.81-.59c.31,0,.39-.62.82-.15s.6.14.6-.34c0-.29,0-.57,0-.86s0-.52.11-.63a1.55,1.55,0,0,1,.84-.43.69.69,0,0,1,.77.71c0,.45,0,.92,0,1.37,0,.11.2.21.3.31.41-.54,1,.21,1.24,0,.58-.49,1.18-.2,1.9-.32,0,.39,0,.71,0,1,0,.82-.05.81-1,.71-.23,0-.46,0-.69,0-1.34,0-1.34,0-2.08,1.18a2.33,2.33,0,0,0,1.81.94,15.08,15.08,0,0,1,3.2.58A8.18,8.18,0,0,0,142.12,15.25Z"/><path class="cls-1" d="M137.38,28c.08,0,.3,0,.38-.08.33-.35.58-.44,1-.05a3.77,3.77,0,0,1,1.35,2.37c.06.64-.29,1.37-.88,1.42a.37.37,0,0,1-.24-.11c-.09-.06-.25-.19-.23-.23.3-.81-.81-.83-.83-1.53A7.77,7.77,0,0,0,137.38,28Z"/><path class="cls-1" d="M132.94,28.66c-.47.86-.86,2.16-2.58,2.05-.21-1.48.78-2.27,1.7-3.27Z"/></g><path class="cls-1" d="M22,28.58c-1.72.45-2.75-.65-4-.74-.07,0-.15-.11-.2-.18-.59-.84-1.62-1.21-2.19-2.11a6.81,6.81,0,0,0-.69-1.23c-.44-.43-.24-.94-.43-1.36a5.55,5.55,0,0,1-.24-2.24,3,3,0,0,1,.26-1.55c.41-.84.75-1.72,1.08-2.59.16-.41.78-.21.73-.81,0-.29.56-.58.69-.93s.65-.43.92-.71c.54-.56,1.37-.51,2-.91.44-.27,1-.25,1.46-.51a7,7,0,0,1,1.22-.21,5.88,5.88,0,0,1,3.22.38c.21,0,.42.56.79.17,0,0,.43.31.68.44s.62.16.82.36.86.1,1.18.55c1.21,1.73,1.6,2.46,1.71,3.45.06.52.18,1,.27,1.54s-.21,1,.27,1.41c-.16.44-.3.89-.47,1.32-.39,1-.79,2-1.2,3a.86.86,0,0,1-.18.34,13.48,13.48,0,0,1-4.55,3.43c-.25.1-.38.15-.59,0s-.31,0-.47-.06c0,.16,0,.38.08.46.3.26.42.45.16.84-.13.19,0,.54,0,.82V32.4c-.73.43.11.85,0,1.3a4.58,4.58,0,0,1-.52,1.17c-.12.22-.13.7-.22.7A3.62,3.62,0,0,1,22,35.48c-.5-.18-.41-.81-.46-1.22,0-.19.13-.4,0-.67s.12-.44.18-.67a.71.71,0,0,0,0-.41,1.41,1.41,0,0,1,0-1.73c.06-.08-.09-.3-.13-.46A1.48,1.48,0,0,1,22,28.58Zm5.9-7.14v-.55a4,4,0,0,0,0-.69c0-.19-.24-.49-.19-.53.3-.25,0-.34-.06-.51s.05-.57,0-.82-.3-.33-.47-.49-.34-.32-.48-.49-.06-.28-.15-.35c-.53-.44-1-1.06-1.76-1-.35,0-.69-.45-1,0-.38-.44-.78,0-1.16,0a3.58,3.58,0,0,0-1.62.42A13.58,13.58,0,0,0,19,18c-.54.47-.48,1.35-1.18,1.73-.08.05-.1.38,0,.52.22.4-.32.64-.14,1.07a3.87,3.87,0,0,1,.12,1.33,4.1,4.1,0,0,0,1.68,3.16.63.63,0,0,0,.49.14c.66-.16,1.21.28,1.83.29l1.38.07c1,0,1.67-.69,2.46-1.1a2.21,2.21,0,0,0,1.1-1A8.56,8.56,0,0,1,27.6,23a1.28,1.28,0,0,0,.24-.59A7.67,7.67,0,0,0,27.85,21.44Z"/></g></svg>