<svg xmlns="http://www.w3.org/2000/svg" viewBox="0 0 249.34 45.02"><defs><style>.cls-1{fill:#fff;}</style></defs><g id="レイヤー_1" data-name="レイヤー 1"><path d="M114.8,13.38c.48-.3-.3-.46,0-.9A3,3,0,0,0,114.9,10a5.75,5.75,0,0,0-.75-1.43c-.63-.78.44-1.2.35-1.81,0-.32,0-.69-.2-1a5.43,5.43,0,0,1-.86-3.38c0-1.43-2.08-2.58-3.94-2.31-.51.69-1.1-.45-1.62.05s-1.45.19-2.18.29c-.49.07-1.23,0-1.44.16-.63.64-1.18-.2-1.65,0a1.51,1.51,0,0,1-1.8-.12.91.91,0,0,0-.67,0A.91.91,0,0,1,98.69.45a1.91,1.91,0,0,1-1.59.4c-.95,0-1.91,0-2.86,0s-1.73,0-2.59,0L89.24.74c-.85-.05-1.81.38-2.4.06A5.52,5.52,0,0,0,83.91.45c-5.45,0-10.9,0-16.34,0-.64,0-1.37.27-1.95-.24a1,1,0,0,0-.68-.13,6.28,6.28,0,0,1-4.78,0,2,2,0,0,0-1,0,15.6,15.6,0,0,1-6.63,0c-.25,0-.59.18-.88.17S51,.08,50.66,0a3,3,0,0,0-1,0c-.62.14-1.26.71-1.82.33-.79-.54-1.25.26-2,.1a6.49,6.49,0,0,0-2.56,0c-.77.16-1.26-.34-2-.25S39.84,0,39.19.43a.31.31,0,0,1-.23,0C38.26-.2,37.5,0,36.65.2c-.66.15-1.45,0-2.12.1A8.84,8.84,0,0,0,32,.82c-.73.41-1.55-.63-2.37,0-1.24-.7-2.65-.26-4-.32-.45,0-.79.66-1.51.17-.23-.16-1,.17-1.47.19-.78,0-1.56,0-2.34,0s-1.77.24-2.28,0c-.82-.46-1.36.23-1.94,0a2.7,2.7,0,0,0-1.92,0c-.54-.63-1.15.21-1.63,0-1.6-.77-3.33-.19-5-.38C6.7,1.17,5.94.51,5.15.36A13.37,13.37,0,0,0,3,.57L.45,3.78a1.15,1.15,0,0,1,.11.29A6,6,0,0,1,.77,6.6c-.32.9.29,1.66.12,2.52s0,1.89-.07,2.82.55,1.76-.49,2.47c.26.82,1.08,1.64,0,2.48a3.15,3.15,0,0,1,0,3.55c1,.71,0,1.38-.07,2.07,1.28.7-.43,1.37,0,2.11.2.36-.77.84,0,1.27C.44,27.33,0,28.8.84,30.18c-.83.7.29,1.35.06,2.1S1,34.05.79,34.9c-.11.49.86.78.18,1.34-.48.4.18,1.14-.54,1.66-.27.18-.3,1-.07,1.11.71.41-.1.92.4,1.42s.1,1.3.08,2a2.88,2.88,0,0,0,1.51,2.34c.11.08.47.13.52.07.58-.59,1.23.25,1.41.08C5,44.21,5.47,45,6,45c1-.09,2,.32,2.94-.35.4-.28,1.24.06,1.92-.28.37-.19,1.29.36,1.74.2a14.66,14.66,0,0,1,4.22-.37c.52,0,1.23-.4,1.5-.24a2,2,0,0,0,1.67.21c.8-.29,1.76-.64,2.35-.3.91.52,1.47-.44,2.23-.08a3.33,3.33,0,0,0,1.36.34c.44,0,.88-.31,1.31-.3s1.22.43,1.29.35c.72-.78,1.69,0,2.56-.29a4.11,4.11,0,0,1,3.18.23c.25.16.95,0,1.36-.16a1.57,1.57,0,0,1,1.61.09,1.06,1.06,0,0,0,.67.15c1-.81,2.3-.25,3.44-.37a2.9,2.9,0,0,1,1.69.22c.37.19,1.16-.23,1.76-.22s1.55.43,2,.24a1.77,1.77,0,0,1,2,.12.9.9,0,0,0,.67-.13c.57-.5,1.46,0,1.9-.3.77-.54,1.28.26,2,.06s1.38-.47,1.77-.29c1.79.84,3.93-.39,5.62.67.64-.68,1.61-.45,2.36-.35s1.58-.65,2.4-.11c.26-.74.81.26,1.34-.15.37-.28,1.28-.19,1.94-.18s1.26.35,1.47.2c.8-.62,1.17.29,1.78.2s1-.17,1.44-.21c.81-.06,1.63-.09,2.44-.1.18,0,.49.21.53.18.65-.57,1.48-.18,2.2-.27a3.71,3.71,0,0,1,2.13.39c.61.29,1.13-.56,2,0,.46.29,1.42,0,2.09.43s1.24-.69,1.88,0c.37-.63,1.14-.14,1.73-.33.74-.24,1.8.17,2.69.1.56,0,1.07.23,1.68,0a4.09,4.09,0,0,1,1.73-.14c.53,0,1.3.45,1.53.3a2.76,2.76,0,0,1,1.67-.31c.61,0,1.22,0,1.81,0,.21,0,.38.29.6.33.61.11,1.22.65,1.87.06a62.18,62.18,0,0,0,9.58-.5c.49-.61,1-1.25,1.52-1.88.08-.1.27-.27.26-.28-1.07-.73-.24-1.76-.63-2.63-.28-.63-.8-1.57-.28-2.15s.34-1.27.44-1.9c.06-.33-.06-.69,0-1,.17-.48.6-.91.68-1.39a7.73,7.73,0,0,0-.19-1.56c0-.6,0-1.21,0-1.82s-.28-1.25.06-1.58c.62-.62-.34-1-.07-1.53.12-.23,0-.58.2-.73.47-.39.24-.61,0-1s0-1,0-1.48c0-.31.24-.61.27-.92.06-.71-.23-1.5.82-2,.07,0,.12-.24.08-.27a1.15,1.15,0,0,1-.3-1.67c.61-.69-.3-1.16-.09-1.73.16-.42-.22-.94.42-1.3.11-.06.13-.42,0-.52C114.53,14,114.22,13.73,114.8,13.38Z"/><path d="M96.32,13.38c-.65-.3.4-.46.06-.9A2.32,2.32,0,0,1,96.19,10a5.33,5.33,0,0,1,1-1.43c.84-.78-.58-1.2-.46-1.81.07-.32,0-.69.26-1A4.46,4.46,0,0,0,98.14,2.4c0-1.43,2.76-2.58,5.24-2.31.68.69,1.47-.45,2.16.05s1.94.19,2.9.29c.65.07,1.64,0,1.92.16.85.64,1.58-.2,2.21,0A2.57,2.57,0,0,0,115,.51a1.55,1.55,0,0,1,.88,0,1.49,1.49,0,0,0,1.94-.08,3.21,3.21,0,0,0,2.13.4c1.26,0,2.53,0,3.8,0s2.31,0,3.46,0l3.21-.1c1.13-.05,2.41.38,3.19.06A9.71,9.71,0,0,1,137.5.45c7.26,0,14.52,0,21.78,0,.85,0,1.82.27,2.59-.24a1.65,1.65,0,0,1,.91-.13,11,11,0,0,0,6.37,0,3.55,3.55,0,0,1,1.33,0,27.53,27.53,0,0,0,8.83,0c.35,0,.79.18,1.18.17s.87-.18,1.33-.22a5.23,5.23,0,0,1,1.37,0c.82.14,1.68.71,2.42.33,1-.54,1.66.26,2.62.1a11.6,11.6,0,0,1,3.43,0c1,.16,1.67-.34,2.68-.25a8,8,0,0,1,2.76.21.55.55,0,0,0,.31,0c.93-.61,1.94-.39,3.07-.21.89.15,1.94,0,2.83.1a15,15,0,0,1,3.43.52c1,.41,2.08-.63,3.17,0,1.65-.7,3.53-.26,5.29-.32.6,0,1.05.66,2,.17.32-.16,1.29.17,2,.19,1,0,2.07,0,3.11,0a10.39,10.39,0,0,0,3,0c1.1-.46,1.82.23,2.59,0a4.73,4.73,0,0,1,2.56,0c.72-.63,1.53.21,2.17,0,2.13-.77,4.44-.19,6.65-.38,1.11.73,2.12.07,3.17-.08a23.87,23.87,0,0,1,2.85.21l3.42,3.21c-.05.1-.14.19-.15.29-.13.85-.64,1.76-.28,2.53s-.38,1.66-.15,2.52-.06,1.89.09,2.82-.74,1.76.65,2.47c-.35.82-1.44,1.64-.07,2.48a2.53,2.53,0,0,0,0,3.55c-1.37.71-.06,1.38.09,2.07-1.7.7.58,1.37,0,2.11-.26.36,1,.84,0,1.27-.16,1.44.47,2.91-.7,4.29,1.12.7-.37,1.35-.07,2.1s-.11,1.77.14,2.62c.15.49-1.14.78-.23,1.34.64.4-.25,1.14.72,1.66.35.18.39,1,.08,1.11-.93.41.15.92-.52,1.42s-.14,1.3-.11,2c0,1-.85,1.71-2,2.34a1.27,1.27,0,0,1-.7.07c-.77-.59-1.63.25-1.88.08-1-.68-1.58.14-2.31.09-1.29-.09-2.66.32-3.92-.35-.53-.28-1.65.06-2.55-.28-.49-.19-1.72.36-2.32.2a25.8,25.8,0,0,0-5.62-.37c-.69,0-1.64-.4-2-.24a3.56,3.56,0,0,1-2.23.21c-1.06-.29-2.35-.64-3.13-.3-1.22.52-2-.44-3-.08a5.76,5.76,0,0,1-1.82.34c-.58,0-1.17-.31-1.74-.3s-1.63.43-1.73.35c-.95-.78-2.24,0-3.41-.29a7.13,7.13,0,0,0-4.23.23,3.73,3.73,0,0,1-1.82-.16,2.69,2.69,0,0,0-2.14.09,1.82,1.82,0,0,1-.89.15c-1.38-.81-3.07-.25-4.59-.37A5,5,0,0,0,192,44c-.5.19-1.55-.23-2.35-.22s-2.06.43-2.72.24a3,3,0,0,0-2.68.12,1.53,1.53,0,0,1-.89-.13c-.76-.5-1.95,0-2.54-.3-1-.54-1.71.26-2.6.06a6,6,0,0,0-2.36-.29c-2.39.84-5.24-.39-7.49.67-.85-.68-2.15-.45-3.16-.35s-2.1-.65-3.19-.11c-.35-.74-1.09.26-1.79-.15a7,7,0,0,0-2.58-.18c-.68,0-1.69.35-2,.2-1.07-.62-1.57.29-2.37.2-.64-.08-1.28-.17-1.93-.21-1.08-.06-2.16-.09-3.25-.1-.24,0-.66.21-.71.18-.86-.57-2-.18-2.93-.27a6.33,6.33,0,0,0-2.83.39c-.81.29-1.51-.56-2.6,0-.61.29-1.9,0-2.79.43-.7.37-1.66-.69-2.51,0-.49-.63-1.51-.14-2.3-.33-1-.24-2.4.17-3.59.1a8,8,0,0,1-2.24,0,7.19,7.19,0,0,0-2.3-.14c-.71,0-1.73.45-2,.3a4.75,4.75,0,0,0-2.23-.31c-.81,0-1.62,0-2.42,0-.28,0-.5.29-.79.33-.82.11-1.63.65-2.5.06a110,110,0,0,1-12.76-.5l-2-1.88c-.11-.1-.36-.27-.35-.28,1.43-.73.32-1.76.84-2.63.38-.63,1.07-1.57.38-2.15s-.46-1.27-.59-1.9c-.07-.33.08-.69-.06-1-.23-.48-.8-.91-.91-1.39s.21-1,.25-1.56,0-1.21,0-1.82.37-1.25-.08-1.58c-.82-.62.46-1,.1-1.53-.17-.23,0-.58-.27-.73-.63-.39-.32-.61,0-1s0-1-.07-1.48c-.06-.31-.32-.61-.35-.92-.08-.71.3-1.5-1.09-2-.1,0-.17-.24-.11-.27a1,1,0,0,0,.39-1.67c-.8-.69.4-1.16.12-1.73-.21-.42.29-.94-.55-1.3-.16-.06-.18-.42,0-.52C96.68,14,97.09,13.73,96.32,13.38Z"/></g><g id="レイヤー_2" data-name="レイヤー 2"><path class="cls-1" d="M46.93,12.17c-.23-.7,0-1.18.49-1.36.81-.27,1.66-.42,2.49-.66a2,2,0,0,1,1.45.55A2.49,2.49,0,0,1,52,12c.1.44-.17,1.08.06,1.34.4.44-.06.65,0,1a4.44,4.44,0,0,1,.16,1,1.57,1.57,0,0,1-1.41,1.05c-.73,0-1.47,0-2.25,0,.62,1.35.62,1.32,1.8,1.19a7.19,7.19,0,0,1,1.18.18c.69,0,1.38,0,2.24,0-.07.38-.13.72-.2,1.06,0,.16-.16.43-.14.44.65.36-.39.87.13,1.23a5.14,5.14,0,0,1,.42.41c.24-.34.76-.86.68-1-.65-.9.32-1.37.44-2.05a1.67,1.67,0,0,0-.23-.23l-1.08-.74c.66-.48-.4-.94,0-1.43.06-.07,0-.23,0-.34.06-.43-.22-1,.27-1.26a2.79,2.79,0,0,1,1.17-.46c.31,0,.64.22,1,.35a1.82,1.82,0,0,1,.23.15,6.14,6.14,0,0,0,.37-.72c.3-.75,0-1.13-.87-1.19-1.2-.09-1.63-.5-1.78-1.84a25.29,25.29,0,0,1,2.89,0,5.79,5.79,0,0,1,1.77.7c.13.06.14.39.17.6a.79.79,0,0,1-.33.89c.4.26.17.46,0,.76s.09.76-.08,1a2.15,2.15,0,0,0-.31.91.8.8,0,0,1-.86.64,9.75,9.75,0,0,0-1.21,0,.42.42,0,0,0-.31.28c0,.12.11.36.21.38,1,.28,2.09.52,3.19.78-.16.33-.31.65-.48.95a.79.79,0,0,1-.89.35c-1-.13-1-.13-1.62.15.08.25.27.53.22.74-.21.84-.2,1,.41,1.18,0,0,.13,0,.17,0,.28.16.75.29.79.5a1.7,1.7,0,0,1-.32,1c-.12.19-.5.21-.68.39a1,1,0,0,0-.26.69,14.17,14.17,0,0,0,.47,1.53c0,.08.08.17.06.24-.3,1-.35,1,.43,1.43.46.25.47.45.17.71s0,1-.84.6-1-.3-1.57-1.28c-.1-.19-.12-.43-.26-.58s-.3-.09-.45-.07-.17.23-.14.26c.46.52,0,.94-.15,1.39a1.68,1.68,0,0,1-.85,1.07H55c.52,0,1.2.2,1.52-.05s.85.17,1.21-.22c.18-.2.72,0,.51.26-.51.6.39,1.1-.12,1.7-.68.16-1.57-.18-2.3.37,0,0-.11,0-.17,0-.65.06-1.3-.59-2,0-.38-.46-1-.16-1.38-.39a2.64,2.64,0,0,0-1.61-.29,4.14,4.14,0,0,1-1.93-.35c-.33-.16-.73.55-1.08-.05-.25-.44-.71-.22-1.08-.32a7.87,7.87,0,0,1-1.11-.47l.4-1.46c.8,0,.63-.62.63-1.09a6,6,0,0,0-.09-1.34,9,9,0,0,0-.55-1.36c.3-.09.65-.21,1-.3a.57.57,0,0,1,.36.05c.1.05.24.17.23.24-.07.59.68.48.75.87s0,.68.34.89c-.59.43.24.83,0,1.26-.09.19,0,.49-.16.62s-.07.43.1.48c.43.15.71.73,1.37.3.28-.18.93.13,1.37.31s.8.36,1-.35a19.17,19.17,0,0,1,.64-2,5.6,5.6,0,0,0-.86-.11.86.86,0,0,1-1-.7c-.13-.47.18-1,.49-1,1.26,0-.19-1.06.5-1.24a2.41,2.41,0,0,0-.53-.2c-.53-.09-1.05.37-1.62,0-.2-.13-.56,0-.59-.4,0-.18-.18-.35-.28-.53.28-.15.56-.44.84-.44a2.79,2.79,0,0,0,1.5-.55,1,1,0,0,0,.36-.69c.08-.57-.1-.54-.5-.23-.11.08-.53-.26-.81-.4a2.27,2.27,0,0,0-.57-.2c-.46.74-.93.11-1.29-.05-1.41-.62-1.45-.66-1.6-2.55,0-.33-.63-.5-.18-1a9.81,9.81,0,0,1,.73-.71c.71-.63.73-.75,1.41-.42s.95.3,1.31-.19a1.93,1.93,0,0,0-.11-1.73.91.91,0,0,0-.34-.2c-.5.73-.85-.22-1.32-.11A7,7,0,0,1,46.93,12.17Zm7.64,11.66c.12-.43.18-.61.21-.79.09-.49-.19-.6-.58-.52-.16,0-.3.21-.45.31Z"/><path class="cls-1" d="M124.32,27.6a4.86,4.86,0,0,1-.54.08c-1.49,0-2-.45-2-2a3.08,3.08,0,0,1,.32-2.1c.19-.25-.63-.6,0-.91-.22-1.19.33-2.3.37-3.47a5.05,5.05,0,0,1,.28-2.47c.37-.68-.26-1.66.39-2.41.24-.29-.43-.39-.18-.82.37-.65,1.21-1.27,1.77-.91a2.4,2.4,0,0,0,1.46.24,6.5,6.5,0,0,1,4.31,1.66c.13.12.24.35.37.35.71,0,.71.56.51.93s-.51.88-1.05.29c0,0-.15,0-.24,0a1.65,1.65,0,0,0,.06.46c0,.07.19.1.29.1a.8.8,0,0,1,1,.69c.05.33-.76,1-1.18,1s-.8,0-1.2,0c-.13,0-.33.14-.35.24s.1.41.16.41c.59,0,.58.18.19.52.11.12.28.23.31.36.11.52.7-.69.72.23,0,.53.57.16.82.3s.61.62.93.65c.9.08.86,1,1.46,1.41.21.14.19.71.22,1.08a7.85,7.85,0,0,0,0,1.54c.1.37-.72.6-.08.95-.29.24-.63.38-.76.82s-.57.48-1,.45c-.12,0-.31.3-.38.27-.62-.29-.66,1.14-1.49.44-.37-.32-1,.4-1.59,0s-.87.42-1.3.12-1,.1-1.19-.48c-.88.08-.76-1.14-1.55-1.19.32-.24.34-.48,0-.73a1.22,1.22,0,0,0,0-1.66c-.07-.11.09-.37.11-.57a1.28,1.28,0,0,0-.06-.33c-.15.05-.43.1-.43.16,0,1.3,0,2.6.08,3.91C124,27.35,124.15,27.43,124.32,27.6Zm.8-13.52c-.22.6-.36.94-.47,1.29-.24.74.07,1.25.81,1.27,1.32,0,2.64,0,4,0,.12,0,.23-.27.35-.42-.38-.29-.22-1.21-1.09-.94C127.57,14.69,126.2,15,125.12,14.08Zm-1.29,8.65.39.15a4.19,4.19,0,0,1,.37-1c.3-.41.18-1.23,1.12-1.08s1.07-1.09,1.92-1.13V18.26l-1.52.44c-.28-.84-1,.26-1.31-.27-.2.16-.66.19-.41.61a1.54,1.54,0,0,1,0,1.4C124.17,21.19,124,22,123.83,22.73Zm6,1.05c.6.12,1.13.23,1.67.32a.36.36,0,0,0,.28-.14,3,3,0,0,0-.18-.73c-.67.05-.47-.95-1.18-.91-.28,0-.49-.78-.92-.39-.2.19-.14.74-.09,1.11A2.37,2.37,0,0,0,129.87,23.78Zm-3.51,0c1.15,0,1.28-.16,1.33-1,0-.42,0-.43-1.33-.63Zm3,1.4c.08,1.11.07,1.09.7.91.36-.1.75-.09,1.1-.2.13-.05.19-.31.29-.47-.12,0-.26-.07-.34,0A1.52,1.52,0,0,1,129.4,25.23Zm-3,.11-.22.2a10.24,10.24,0,0,0,.72.75.5.5,0,0,0,.4-.17.44.44,0,0,0-.1-.43A4.41,4.41,0,0,0,126.42,25.34Z"/><path class="cls-1" d="M184.31,18.28c-1.09-.79-2.1-1.22-3.07-.62-.38.24-.82-.1-1-.46a1.14,1.14,0,0,1,.15-.91,6.6,6.6,0,0,1,1-.9c-1.11-.9-.32-2.25-.6-3.51h1.3a2.85,2.85,0,0,1,.49,1.63,2,2,0,0,0,.7,1.6,1.56,1.56,0,0,0,2.69-.5c.22-1,1-1.8,1.1-2.83,0-.28.72-.52,1.57-.64a2.06,2.06,0,0,1-.23,2.17c-.58.78-.54,1.72-1,2.63h1.93c.34.71,0,1.06-.4,1.43a.88.88,0,0,1-1.33.06,1.18,1.18,0,0,0-1-.06c-.23.09-.88.2-.37.79,0,.05-.34.47-.55.74.27.24.39.71,1,.36a4.72,4.72,0,0,1,1.66-.24v1.63a5.5,5.5,0,0,1-1,.34c-.27,0-.58-.22-.84-.18a3.86,3.86,0,0,0-1,.48c.42.23.69.39,1,.53a4.69,4.69,0,0,1,1.3.59,1.58,1.58,0,0,0,1.21.46.77.77,0,0,1,.83.83c0,.54-.31.86-1,.87A2,2,0,0,1,187,24c-.29-.32-1-.17-1.15-.84-.17.1-.48.22-.47.29.1.59-.41,1.07-.34,1.58.08.67-.57.41-.78.85.92,0,1.77.28,2.64-.26.36-.22,1.45.47,1.54.94a.81.81,0,0,1-.21.71,3,3,0,0,1-1.23.35c-.39,0-.94-.36-1.17-.21a1.57,1.57,0,0,1-1.13.22c-1.73-.09-3.47-.24-5.2-.32-.37,0-.54-.77-1-.23s-.59-.22-.95-.23a.68.68,0,0,1-.45-.95c.51-.79.26-1.63.33-2.45a3.33,3.33,0,0,1,.05-.84c.1-.3.26-.73.49-.79s.75,0,1-.36c.12.21.4.49.35.6-.47.87-.11,1.79-.19,2.67-.05.51.31.8.83.84s1-.06,1.12.13c.3.55.59-.43,1,.11.18.28,1.11-.38,1.22-1a8.92,8.92,0,0,0,.26-3.74c-.51,0-1.07,0-1.63,0s-.93.14-1.24-.36c-.16-.28.18-.51-.09-.9s.17-1.05.74-.78a2.28,2.28,0,0,0,1.08.33c.55,0,1.15.07,1.57-.37s.41-1,.32-.77c-.05.92-.1.85-.15.78l-.16.16a1.59,1.59,0,0,0,.21.15S184.28,19.3,184.31,18.28Z"/><path class="cls-1" d="M151.42,14.21h2.42c.31-.62-.13-1.33.42-1.94.43-.46,1.23-.64,1.58-.09,0,.08,0,.24,0,.36a11.08,11.08,0,0,0-.14,1.14c0,.79.29,1.16,1.12,1.24a9.88,9.88,0,0,0,1.72,0c.84-.08,1.11.1.94.77a5.26,5.26,0,0,1-.5,1c-1-.07-2.11.24-3.29-.5,0,.69-.2,1.39.05,1.65s0,.8.23,1.21.57.51.75.37c.87-.64,1.66.35,2.51.07.11,0,.47.41.59.68a3,3,0,0,1,0,1h-2.66a6.08,6.08,0,0,0,.25,3.22c.13.49,1,.87,1.2.55.82-1.05,1.88-.48,2.8-.65a1.17,1.17,0,0,1-.72,1.73c-.29.14-.55.35-.84.48-.49.21-1,.38-1.49.56-.45-.72-1.52.07-1.93-.78-.22-.48-.53-.94-.71-1.43a11.64,11.64,0,0,0-.28-1.26c-.21-.39.12-1-.46-1.21,0,0,0-.21,0-.32s.68-.33,0-.49c-.09,0-.31.23-.36.39-.15.46-.12,1-.39,1.39-.55.77-.12,1.74-.65,2.5a7.07,7.07,0,0,0-.58,1.41c-.83-.69-1.65-1.16-.81-2.23-.49-.48.1-1,0-1.43s.29-1,.39-1.57a6,6,0,0,1,.25-.71c-.38,0-.58-.65-1.1-.22a1,1,0,0,1-1,.07c-.74-.67-1.07,0-1.55.41a3.89,3.89,0,0,0-.32-.39c-.36-.36-.85-.69-.16-1.19-.71-.31.37-.83-.15-1.22-.36-.27.59-.72,0-1.08a3,3,0,0,1,.19-.47c.29-.65,0-1.49.66-2-.8-.88.33-1.4.45-2.12.08-.51,1.09-.7,1.59-.36.32.21.68.5.2.95C151.56,13.69,151.54,13.89,151.42,14.21ZM151,16c-.09.13-.13.17-.14.22-.12.41-.46,1-.31,1.2.42.56-.07.71-.23,1.05s.09.56.22.81.37.2.42.15c.63-.6,1.41-.26,2.11-.31a.83.83,0,0,0,.88-.81,3.07,3.07,0,0,0-.42-2.23c-.6.33-1.16-.23-1.76-.09A3.33,3.33,0,0,1,151,16Z"/><path class="cls-1" d="M113.22,27.57c0-.63.11-1.37-.18-1.83s.24-.51,0-.77-.13-.42-.26-.57a12.36,12.36,0,0,0-.9-1,4.56,4.56,0,0,1-1.52,3.08c-1.29,1-2,1.06-3.14.46a3.13,3.13,0,0,1-.93-2.95c0-.2.31-.39.28-.56-.23-1.39.94-1.61,1.73-2.17a.57.57,0,0,1,.73,0,.74.74,0,0,0,1-.41c.35-1.4-1.14-3.3-2.65-2.82a2,2,0,0,1-2-.75c-.13-.21.33-.95.62-1s.94-.38,1.18-.22.76.12,1.12.23c.66.19.86-.32.87-.7a1.4,1.4,0,0,1,.83-1.38c1.39,1,1.39,1,1.54,2.39h3.23c.09.24.15.45.24.64.2.45,0,1.13-.24,1-.64-.23-1.12.6-1.82.11-.25-.17-.9.18-1.36.35-.09,0-.16.3-.13.43s.29.36.32.56c.21,1.39.21,1.38,1.33,2.52a7.91,7.91,0,0,1,1.41,1.66,7.2,7.2,0,0,1,.39,1.79c.16.74.28,1-.17,1.52-.3.38.4.62,0,.74a2,2,0,0,1-.92-.2C113.6,27.73,113.41,27.64,113.22,27.57ZM110,22.84c-1.48.23-2.17.95-1.94,2.05a.94.94,0,0,0,.46.63c.16.08.48-.08.68-.22a1.32,1.32,0,0,0,.59-1.3A4.85,4.85,0,0,1,110,22.84Z"/><path class="cls-1" d="M78.28,28c-.72.06-1.28.22-1.58-.61a1.84,1.84,0,0,0-1.16-.84c-.85-.23-.85-1.32-1.78-1.5-.73-.14-.88-.17-1,.65,0,.16,0,.38-.06.49-.36.43-.58.77.25.84a3.69,3.69,0,0,0-.18.65c0,.38-.23.93-.37.89a2,2,0,0,0-1,.14c-.25.06-.53-.66-.45-1.06a3.22,3.22,0,0,0,.11-.81c0-.33,0-2.11-.05-2.37-.17-.88.66-1.72.08-2.63a.72.72,0,0,1,0-.67,3.7,3.7,0,0,0,.31-2.44c0-.83.27-1.67-.19-2.5-.11-.18.19-.64.39-.92s.55-.58,1-.12c.07.08.45-.14.57-.05a.54.54,0,0,0,.74,0c.12-.09.48.13.58,0,.43-.37.95.5,1.38-.14a2.14,2.14,0,0,1,1,.36c.19.13.26.45.38.69.26.52.5,1.05.78,1.57.17.32-.59.43-.14.81.16.14.38.5.32.58-.36.49.21.53.35.74a.48.48,0,0,1,0,.72,2.11,2.11,0,0,1-1.62.66c-.57,0-1.15,0-1.72,0s-.85.58-1.27,0c-.24.21-.59.36-.7.62s.25.34.5.45.14.71.72.74c.22,0,.34.66.62.89a19.85,19.85,0,0,0,2.65,1.92c.5.29.75.52.68,1.09A8.47,8.47,0,0,0,78.28,28ZM73.1,19.41a9.33,9.33,0,0,0,1.6,0c.43-.08.83-.27,1.26,0,0,0,.21-.1.24-.18.12-.35-.54-.71,0-1.08a.35.35,0,0,0,0-.31c-.39-.28-.55-.94-1.18-.82-.31.06-.88-.74-.94.25a1,1,0,0,1-.24-.08c-.45-.34-.71-.31-.7.33Z"/><path class="cls-1" d="M192.27,14.8c.28-.41.45-.88.79-1.1s.72-.68,1.21-.16a.53.53,0,0,0,.49,0,.82.82,0,0,1,1.29,0c.1.08.34,0,.51,0,.42.08.93-.21,1.25.22a6,6,0,0,1,1,2.16c.07.3-.33.73-.58,1.06-.11.15-.39.18-.54.32-.42.39-.82.81-1.29,1.27a4.34,4.34,0,0,1,.82.49c.55.52,1.19.88,1.36,1.82s.79,1.58.3,2.52a1.73,1.73,0,0,0,0,.85c0,.56.12,1.13.18,1.69-.67-.16-1,.59-1.44.64-.9.11-1.64,1.34-2.69.43-.48.54-1.14-.08-1.14-.16,0-.68-1-.83-.81-1.6.07-.27-.13-.59-.21-.91A3,3,0,0,1,197,23.26a1.9,1.9,0,0,0,.1-1.62c-.14-.36-.26-.92-.91-1a2.37,2.37,0,0,1-1.13-.56c-.33-.24-1-.16-1-.68a2.52,2.52,0,0,1,.49-1.33A14.35,14.35,0,0,1,196,16.59c.31-.32.6-.65,1.05-1.13a5.63,5.63,0,0,0-3.28,0,.72.72,0,0,1-1-.21C192.61,15.08,192.43,14.94,192.27,14.8Zm4.44,10.47c-.51-.36-.74-.65-1-.66s-.9-.32-1,.24.52.34.84.41A7.6,7.6,0,0,0,196.71,25.27Z"/><path class="cls-1" d="M95.21,27c-.38,0-.66,0-.94,0-.87,0-1.09-.17-1.1-1.07,0-.42-.52-.74-.08-1.3.25-.31,0-1,0-1.51.09-1.39-.27-2.81.32-4.17a1.18,1.18,0,0,0-.08-.82c-.07-.16-.31-.25-.47-.38-.47.74-.9,0-1.28-.11s-.46-.25-.77.06-.79.41-1-.07A15.9,15.9,0,0,1,89.15,16c.6,0,1.17.16,1.32,0,.34-.4.62,0,.91-.1.51-.22,1,.24,1.5.15s.94-.21.92-.75a1.25,1.25,0,0,1,.55-1c.23-.24.45-.56.83-.2s1,.16.73.88c-.17.51-.27,1-.42,1.61.72.28,1.52-.1,2.12.46.37.34.66-.5,1.15-.13.18.14.7-.07,1-.23s.66-.34.88.11a.72.72,0,0,1-.19,1,3.9,3.9,0,0,1-1.31.57c-.56.08-1.1.21-1.66.32a1.87,1.87,0,0,1-.81-.05c-.42-.09-.83-.22-1.3-.35A4.32,4.32,0,0,1,95,19.74c-.45.6.33,1.15-.11,1.76-.31.43-.13,1.09-.37,1.62.71,1,0,2.31.68,3.33C95.26,26.53,95.21,26.68,95.21,27Z"/><path class="cls-1" d="M65.15,24.91H62.7a2.62,2.62,0,0,1,.19-1A2.45,2.45,0,0,1,64.8,22.8c0-.92,0-1.88,0-2.84a1.12,1.12,0,0,0-.95-1.24.65.65,0,0,0-.34,0c-.77.29-.77-.45-1-.79a.74.74,0,0,1,.17-1c.36-.31.73.08,1.11-.05.14-.06.36.12.69.25a9,9,0,0,1,0-1.49.76.76,0,0,1,.82-.68.8.8,0,0,1,.86.63,6.82,6.82,0,0,1,0,1.45,10.8,10.8,0,0,1,1.4,0,.89.89,0,0,1,.56,1.3,2.72,2.72,0,0,1-1.67.88c.07.63.16,1.28.21,1.94,0,.16-.09.32-.12.48-.17.77-.06.84.76.63.27-.07.64-.17.82,0s.76-.93.85.17a1.19,1.19,0,0,1-.42,1.18c-.51.28-1,.53-1.7.86.12.64-.25,1.39.32,2.13.16.21,0,.67,0,1,0,.56-.36.8-1,.83-.43,0-1.15-.62-1-.78.76-.7-.42-1.2-.09-1.81C65.23,25.6,65.15,25.33,65.15,24.91Z"/><path class="cls-1" d="M143.48,27.68c-.48,0-.88,0-1.28,0-.75.06-.81,0-.61-.61a2.43,2.43,0,0,0,.24-.75c0-.34-.3-.81-.17-1,.34-.44.13-.88.18-1.31a8,8,0,0,0,0-1.2c0-.72-.27-1-1-1-.53.05-.93-.35-1.5-.2-.22.06-.63-.56-.93-.9,0,0,.12-.31.25-.39a4.84,4.84,0,0,1,1.12-.6c.27-.08.53.14.91.08,1.12-.16,1.09-.06,1.17-.82.1-.91.27-1.82.43-2.88.34.23.63.32.76.52s.72.24.33.74c-.08.1.18.42.19.64,0,.57,0,1.15,0,1.72s.6.8.94.54a1.62,1.62,0,0,1,1.12-.2c.74,0,1,.28,1,1s-.21,1.05-.94,1.08c-.57,0-1.14,0-1.69,0-.24.73-.94,1.37-.23,2.16.07.07.12.24.08.29C143.21,25.56,143.83,26.71,143.48,27.68Z"/><path class="cls-1" d="M89.62,25.51c-.17.07-.47.08-.55.22-.48.89-1.62.45-2.2,1.12,0,0-.17,0-.24,0l-2-.92c-1.19-.56-1.18-.56-1.53-2.2a1.46,1.46,0,0,0-.31-.69,1,1,0,0,1-.34-.9c.25-1.57.44-3.14.78-4.69a1.39,1.39,0,0,1,.89-1c.5-.19.6.45,1,.23a2.9,2.9,0,0,1,0,.59,6,6,0,0,1-.38,1.39.93.93,0,0,0,.08,1.2c.07.09-.2.44-.26.68-.28,1.31.46,2.45.7,3.67.07.35,1,.82,1.26.58.49-.52,1.31.13,1.67-.57.26.51,1.06-.23,1.21.53A4.83,4.83,0,0,0,89.62,25.51Z"/><path class="cls-1" d="M167.16,16.31c-.24,1.26-.44,2.38-.66,3.49-.06.29.29.58-.1.89s.6.51,0,.95c-.24.2-.13.73.25,1s-.59.54-.09,1a1.41,1.41,0,0,1,.44.84,3.61,3.61,0,0,1-.05,1.35c0,.12-.27.75-.71.23-.06-.07-.2-.05-.3-.1-.33-.16-.66-.34-1-.51.64-.31,0-.61,0-.92s-.18-.49-.27-.74a4.15,4.15,0,0,1,0-3.64A4.86,4.86,0,0,0,165,18c-.11-1.45.06-1.69,1.41-1.72Z"/><path class="cls-1" d="M137.36,26.9c-1.22,0-1.28-.19-1.76-1.1a2.87,2.87,0,0,1-.33-2.17c.13-.54-.55-1.24.34-1.66.08,0-.05-.51-.1-.78s-.06-.25-.09-.37c.87-.16.83-.84.93-1.49,0-.11.34-.27.49-.25a5.3,5.3,0,0,1,1.06.36.32.32,0,0,1,0,.22c-.75.32.56,1.2-.4,1.45a8.65,8.65,0,0,0-.5,2,4.49,4.49,0,0,0,.29,2.79C137.49,26.16,137.36,26.58,137.36,26.9Z"/><path class="cls-1" d="M174.67,24.44a6.35,6.35,0,0,0-.33.82c-.07.25-.05.33-.38.19a1.65,1.65,0,0,0-1.87.13c-.3.26-.71-.56-1.06,0-.19-.24-.31-.3-.63-.06s-.76-.19-.87-.49-.26-.72.44-.85a8.33,8.33,0,0,0,2-.91c.1,0,.28-.1.3-.07.38.63.92.09,1.37.16C174.66,23.53,174.67,23.47,174.67,24.44Z"/><path class="cls-1" d="M99.22,21.73a9.87,9.87,0,0,1-1.77-.29.89.89,0,0,1-.53-1c0-.44.32-.37.6-.37h.17c.5-.07.74-.79,1.49-.42.5.25,1.25,0,1.84.1a4.6,4.6,0,0,1,1.38.8c.07,0,.07.36,0,.44-.49.48-1,1.07-1.78.51-.08-.05-.27-.09-.3-.05-.27.36-.59.09-.88.11S99.17,21.77,99.22,21.73Z"/><path class="cls-1" d="M169,16.87c1.14.31,2-.24,2.77.46.93-1,1.29,1,2.13.41a4.41,4.41,0,0,1,0,1.26c-.08.29-.41.56-.7.08-.95.1-1.92-.78-2.74-.3s-.84.1-1.24-.21C168.49,18.05,169.51,17.62,169,16.87Z"/><path class="cls-1" d="M100.29,27A4.79,4.79,0,0,1,99,27a1.15,1.15,0,0,1-.6-.69c-.07-.2.1-.52.24-.74a2.19,2.19,0,0,1,1.52-.35,2.07,2.07,0,0,0,1.86-.31c.58-.28.54-.34.84.08.09.11.19.29.3.3.52.06.36.24.11.47C102.36,26.55,101.46,27.27,100.29,27Z"/><path class="cls-1" d="M118.16,17.88c.21.4.57.76.51,1q-.42,1.73-.72,3.48c-.08.46-.7.55-1.06.22-.53-.48-1-1-.28-1.66-.5-.61.29-1.16.09-1.77,0-.09.25-.25.26-.39C117,18.08,117.78,18.39,118.16,17.88Z"/><path class="cls-1" d="M176.73,16.46l1.05,1.19c-.54.6.09.87.33,1.29s0,.78-.64.83c-1.08.07-1.38-.86-2-1.44,0,0,.05-.23.08-.35C175.72,17.32,176.26,17,176.73,16.46Z"/><path class="cls-1" d="M47.08,19.17l.38,2.61c-.34,0-.85.15-1.16,0s-1.11-.35-.85-1.13a1.25,1.25,0,0,0,0-.51c-.08-.77,0-.8.27-1.15.49-.64.76.15,1.15.12A.45.45,0,0,1,47.08,19.17Z"/></g></svg>