<svg xmlns="http://www.w3.org/2000/svg" viewBox="0 0 249.11 45.02"><defs><style>.cls-1{fill:#fff;}</style></defs><g id="レイヤー_1" data-name="レイヤー 1"><path d="M134.31,31.64c-.48.3.31.46.05.9a3,3,0,0,0-.14,2.52,6.08,6.08,0,0,0,.74,1.43c.63.77-.44,1.19-.34,1.81,0,.32,0,.69.19.94a5.44,5.44,0,0,1,.87,3.38c0,1.44,2.07,2.58,3.93,2.32.51-.7,1.11.44,1.62,0s1.45-.2,2.18-.3c.49-.07,1.23.06,1.44-.16.63-.63,1.18.2,1.65,0a1.5,1.5,0,0,1,1.8.11.82.82,0,0,0,.67,0,.92.92,0,0,1,1.45.08c.41-.45,1-.4,1.6-.39h2.85c.86,0,1.73,0,2.59,0s1.65.05,2.42.09,1.8-.38,2.39-.05a5.65,5.65,0,0,0,2.94.34c5.44,0,10.89,0,16.34,0,.63,0,1.36-.26,1.94.24a.87.87,0,0,0,.68.13A6.28,6.28,0,0,1,189,45a1.91,1.91,0,0,0,1,0,15.6,15.6,0,0,1,6.63,0c.26,0,.59-.18.88-.16s.66.17,1,.21a3.24,3.24,0,0,0,1,0c.61-.15,1.25-.72,1.81-.34.79.54,1.25-.26,2-.1a6.36,6.36,0,0,0,2.57,0c.77-.15,1.25.34,2,.25s1.42.2,2.07-.21a.29.29,0,0,1,.24,0c.7.6,1.45.39,2.3.2.67-.14,1.45,0,2.12-.1a8.77,8.77,0,0,0,2.58-.52c.73-.41,1.55.63,2.38,0,1.23.7,2.64.27,4,.32.46,0,.79-.65,1.51-.16.24.16,1-.17,1.48-.2.77,0,1.55,0,2.33,0s1.77-.23,2.28,0c.82.47,1.36-.23,2,0a2.67,2.67,0,0,0,1.91,0c.54.63,1.15-.21,1.63,0,1.6.78,3.34.19,5,.39.83-.74,1.59-.08,2.38.08a14.78,14.78,0,0,0,2.14-.21l2.56-3.22a1.15,1.15,0,0,1-.11-.29,5.94,5.94,0,0,1-.21-2.52c.32-.91-.28-1.67-.11-2.52s0-1.89.06-2.83-.55-1.76.49-2.47c-.26-.82-1.08-1.64-.05-2.48a3.19,3.19,0,0,1,0-3.55c-1-.71,0-1.38.07-2.07-1.27-.7.44-1.37,0-2.11-.19-.36.77-.84,0-1.27-.12-1.43.36-2.91-.52-4.28.84-.7-.28-1.36-.06-2.11s-.08-1.76.11-2.61c.11-.5-.85-.78-.18-1.35.49-.4-.18-1.14.55-1.65.26-.19.29-1,.06-1.12-.7-.4.11-.92-.39-1.42s-.11-1.29-.09-2A2.85,2.85,0,0,0,246.76.28a.77.77,0,0,0-.52-.07C245.67.8,245,0,244.83.14c-.73.68-1.18-.15-1.73-.1-1,.09-2-.32-2.94.35-.4.29-1.24-.06-1.92.29-.36.18-1.28-.37-1.74-.21a14.22,14.22,0,0,1-4.21.37c-.52,0-1.24.4-1.5.25a2.08,2.08,0,0,0-1.68-.22c-.79.3-1.76.64-2.35.3-.91-.52-1.46.44-2.23.08a3.32,3.32,0,0,0-1.36-.33c-.43,0-.88.3-1.31.29s-1.22-.43-1.29-.35c-.72.78-1.68,0-2.56.29a4,4,0,0,1-3.17-.23,2.29,2.29,0,0,0-1.37.16A1.53,1.53,0,0,1,211.86,1c-.16-.11-.58-.21-.66-.14-1,.8-2.3.24-3.44.37a3,3,0,0,1-1.7-.23c-.37-.18-1.16.23-1.76.23s-1.54-.44-2-.24a1.79,1.79,0,0,1-2-.12.86.86,0,0,0-.66.12c-.57.51-1.47,0-1.91.3-.77.54-1.28-.26-2-.06s-1.39.47-1.78.29c-1.78-.84-3.93.4-5.61-.67-.64.69-1.61.45-2.37.36s-1.58.64-2.4.1c-.26.75-.81-.25-1.34.15-.37.28-1.27.19-1.94.18-.5,0-1.26-.35-1.47-.19-.8.61-1.17-.3-1.77-.2s-1,.17-1.45.2c-.81.06-1.62.09-2.44.1-.18,0-.49-.21-.53-.17-.65.56-1.47.17-2.2.27a3.68,3.68,0,0,1-2.12-.4c-.61-.29-1.14.57-1.95.05-.46-.3-1.43,0-2.09-.44s-1.25.69-1.89,0c-.37.62-1.13.13-1.72.32-.75.24-1.8-.17-2.7-.1-.56,0-1.07-.23-1.68,0a4.09,4.09,0,0,1-1.73.13c-.53,0-1.3-.45-1.52-.29a2.85,2.85,0,0,1-1.68.3,15.61,15.61,0,0,1-1.81,0c-.21,0-.38-.29-.6-.33-.61-.11-1.22-.65-1.87-.06a62.05,62.05,0,0,0-9.57.51L136,3.22c-.08.1-.27.27-.26.27,1.07.74.24,1.76.63,2.64.29.63.8,1.56.28,2.15s-.34,1.26-.44,1.89a5.51,5.51,0,0,1,0,1c-.17.48-.6.92-.68,1.39a7.62,7.62,0,0,0,.18,1.56c0,.61,0,1.22,0,1.82s.28,1.25-.06,1.59c-.62.62.35,1,.07,1.52-.12.23,0,.58-.2.74-.47.38-.24.6,0,1s0,1-.05,1.48c0,.31-.24.61-.26.92-.07.72.22,1.5-.82,2-.08,0-.13.24-.08.27a1.15,1.15,0,0,1,.29,1.67c-.6.7.3,1.16.09,1.73s.22.94-.42,1.3a.43.43,0,0,0,0,.52C134.58,31,134.89,31.29,134.31,31.64Z"/><path d="M144.26,31.64c.61.3-.38.46-.06.9a2.46,2.46,0,0,1,.18,2.52,5.69,5.69,0,0,1-.94,1.43c-.79.77.56,1.19.44,1.81-.06.32,0,.69-.24.94a4.6,4.6,0,0,0-1.09,3.38c-.05,1.44-2.61,2.58-5,2.32-.64-.7-1.39.44-2,0s-1.82-.2-2.73-.3c-.62-.07-1.55.06-1.81-.16-.8-.63-1.49.2-2.08,0a2.27,2.27,0,0,0-2.26.11,1.27,1.27,0,0,1-.84,0,1.36,1.36,0,0,0-1.83.08,2.86,2.86,0,0,0-2-.39h-3.58c-1.09,0-2.18,0-3.26,0s-2.08.05-3,.09-2.28-.38-3-.05a8.79,8.79,0,0,1-3.69.34c-6.85,0-13.69,0-20.53,0-.81,0-1.72-.26-2.45.24a1.32,1.32,0,0,1-.85.13,9.87,9.87,0,0,0-6,0,3,3,0,0,1-1.25,0,24.52,24.52,0,0,0-8.33,0c-.33,0-.74-.18-1.11-.16s-.83.17-1.25.21a5.14,5.14,0,0,1-1.3,0c-.77-.14-1.58-.72-2.28-.34-1,.54-1.57-.26-2.47-.1a10,10,0,0,1-3.23,0c-1-.15-1.58.34-2.53.25s-1.78.2-2.6-.21a.45.45,0,0,0-.3,0,3.64,3.64,0,0,1-2.89.2c-.84-.14-1.82,0-2.67-.1a13.37,13.37,0,0,1-3.23-.52c-.92-.41-2,.63-3,0-1.56.7-3.32.27-5,.32-.57,0-1-.65-1.89-.16-.3.16-1.22-.17-1.86-.2-1,0-1.95,0-2.93,0a9.59,9.59,0,0,0-2.87,0c-1,.47-1.71-.23-2.44,0a4.2,4.2,0,0,1-2.41,0c-.68.63-1.45-.21-2.05,0-2,.78-4.19.19-6.26.39-1.05-.74-2-.08-3,.08a23.09,23.09,0,0,1-2.69-.21L.56,41.24A1.34,1.34,0,0,0,.71,41c.12-.84.6-1.75.26-2.52s.36-1.67.14-2.52A26.67,26.67,0,0,1,1,33.08c-.12-.83.69-1.76-.62-2.47.34-.82,1.36-1.64.07-2.48a2.65,2.65,0,0,0,0-3.55c1.29-.71.06-1.38-.08-2.07,1.6-.7-.55-1.37,0-2.11.25-.36-1-.84,0-1.27.14-1.43-.45-2.91.65-4.28-1-.7.36-1.36.07-2.11S1.24,11,1,10.13c-.14-.5,1.08-.78.23-1.35-.61-.4.23-1.14-.68-1.65C.2,6.94.17,6.14.46,6c.88-.4-.14-.92.49-1.42s.13-1.29.11-2C1,1.63,1.86.91,3,.28A1.22,1.22,0,0,1,3.61.21C4.33.8,5.15,0,5.38.14,6.3.82,6.87,0,7.56,0c1.22.09,2.5-.32,3.69.35.5.29,1.56-.06,2.41.29.46.18,1.62-.37,2.18-.21a22.46,22.46,0,0,0,5.3.37c.66,0,1.55.4,1.89.25A3.21,3.21,0,0,1,25.14.87a4.87,4.87,0,0,0,2.95.3c1.14-.52,1.84.44,2.8.08A5,5,0,0,1,32.6.92c.55,0,1.1.3,1.64.29S35.78.79,35.87.86c.9.78,2.12,0,3.21.29a6.22,6.22,0,0,0,4-.23,3.56,3.56,0,0,1,1.72.16,2.34,2.34,0,0,0,2-.09,1.5,1.5,0,0,1,.84-.14c1.3.8,2.89.24,4.32.37A4.55,4.55,0,0,0,54.1,1c.47-.18,1.46.23,2.21.23S58.25.78,58.87,1A2.73,2.73,0,0,0,61.4.86a1.36,1.36,0,0,1,.84.12c.71.51,1.83,0,2.39.3,1,.54,1.61-.26,2.46-.06a5.13,5.13,0,0,0,2.22.29c2.25-.84,4.94.4,7.06-.67.81.69,2,.45,3,.36s2,.64,3,.1c.33.75,1-.25,1.68.15a6.31,6.31,0,0,0,2.44.18c.64,0,1.59-.35,1.85-.19,1,.61,1.47-.3,2.23-.2.6.07,1.2.17,1.81.2,1,.06,2,.09,3.07.1.23,0,.62-.21.67-.17.81.56,1.85.17,2.77.27a5.63,5.63,0,0,0,2.66-.4c.77-.29,1.43.57,2.45.05.58-.3,1.79,0,2.63-.44.66-.37,1.57.69,2.37,0,.46.62,1.42.13,2.17.32.94.24,2.26-.17,3.39-.1a6.75,6.75,0,0,1,2.1,0,6.42,6.42,0,0,0,2.17.13c.68,0,1.64-.45,1.92-.29a4.53,4.53,0,0,0,2.11.31c.76,0,1.52,0,2.28,0,.26,0,.47-.29.74-.33.78-.11,1.54-.65,2.36-.06a97.87,97.87,0,0,1,12,.51l1.92,1.88c.1.1.33.27.32.27-1.34.74-.3,1.76-.79,2.64-.36.63-1,1.56-.35,2.15s.43,1.26.55,1.89c.07.33-.08.69.06,1,.21.48.75.92.85,1.39s-.19,1-.23,1.56,0,1.22,0,1.82-.35,1.25.07,1.59c.78.62-.43,1-.09,1.52.16.23,0,.58.26.74.59.38.3.6,0,1s0,1,.06,1.48c.05.31.3.61.33.92.08.72-.28,1.5,1,2,.09,0,.16.24.1.27a1,1,0,0,0-.36,1.67c.75.7-.38,1.16-.12,1.73s-.28.94.52,1.3a.37.37,0,0,1,0,.52C143.92,31,143.54,31.29,144.26,31.64Z"/></g><g id="レイヤー_2" data-name="レイヤー 2"><g id="I47oLW"><path class="cls-1" d="M169.43,23.36c-.19,0-.4,0-.62,0-1,0-1.44-.3-1.71-1.19-.1-.36.05-.89-.16-1.12-.43-.47.33-.58.18-1s.41-1,.26-1.18c-.43-.48.07-.77,0-1.13a5.61,5.61,0,0,1,.57-2.35,2.9,2.9,0,0,0,0-.93c0-.12-.1-.33-.06-.35.72-.48.5-1.2.54-1.86s.59-1.22,1.22-.88,1.76.2,2.38.94c.33.4.57-.59,1-.08.21.27.63.74.7.7.62-.38.82.18,1.12.45a5.29,5.29,0,0,1,1,1,2.38,2.38,0,0,1,.6,1.65c-.06.45.14,1,0,1.35-.26.52.59.78.13,1.34-.23.28-.11.88-.07,1.33,0,.25.31.51.26.72s-.37.39-.5.62-.06.43-.13.64c-.15.45-.2,1.08-.52,1.3a11.33,11.33,0,0,1-2.24.95,7.33,7.33,0,0,0,0,1.31,1.93,1.93,0,0,0,1.83,1.25c1-.17,1.1-.14,2,.58-.24.18-.46.34-.67.52-.39.32-.74.86-1.16.92a3.46,3.46,0,0,1-1.89-.37c-.29-.15-.3-.76-.93-.66-.16,0-.42-.54-.62-.84a6.94,6.94,0,0,1-.61-.95,4.44,4.44,0,0,1-.21-1c-.24.32-.54.54-.54.76a3.17,3.17,0,0,1-1.4,2.69c-.1.07-.11.29-.17.44a.58.58,0,0,0-.12-.1,3.15,3.15,0,0,1-.73-.54.82.82,0,0,1,0-.67c.5-1.23.52-2.64,1.36-3.74C169.53,23.75,169.46,23.6,169.43,23.36Zm-.72-1.69a9.16,9.16,0,0,1,4.2.63,1,1,0,0,0,1.23-.31c.08-.13.22-.36.17-.42-.41-.52-.76-1.13-1.47-1.3-.42-.1-.87-.1-1.29-.21s-.78-.36-1.18-.48a10.83,10.83,0,0,0-1.12-.21Zm.38-4.66,1.19.84c.65-.68.87.51,1.28.32,1-.46,1.49.39,2.2.68.2.07.34.29.54.36s.36-.2.36-.21c-.21-.4-.12-1.07-.69-1.12a1.88,1.88,0,0,1-1-.51c-.34-.24-1-.62-1.1-.52-.75.74-1.23,0-1.71-.28S169.48,16.77,169.09,17Zm5.36-1.28a5.5,5.5,0,0,0-3.43-2c-.32-.63-.6.06-.92.05s-.27.42-.24.65.25.31.41.34a5,5,0,0,0,1.9.32c.8-.16,1,.5,1.57.72C173.87,15.83,174.06,15.76,174.45,15.73Z"/><path class="cls-1" d="M65.32,24.77c-.38.45-.69,1.13-1.16,1.29s-.17.93-.88.79c-.35-.07-.78.27-1.17.44s-1.1-.46-1.47-.1-.82,0-1.11-.07a2.25,2.25,0,0,1-1.14-1,9.93,9.93,0,0,1-1.31-2.39c0-.15-.22-.38-.18-.42.68-.77.53-1.86,1-2.69.08-.13.19-.36.24-.35.65.15.88-.53,1.3-.63a2.39,2.39,0,0,0,1.3-.64s.32.2.49.21a11.4,11.4,0,0,1,2.64.28c.5.15-.17-.31-.07-.46.53-.78-.47-1.16-.48-1.79a2.24,2.24,0,0,0-.46-.09c-.42-.08-.94.36-1,.3-1.38-.86-2.7.35-4.05.05a1,1,0,0,0-1.18.45c-.34.71-.87-.36-1.22.16,0,0-.22-.07-.22-.1a12.47,12.47,0,0,1,.12-1.5,1.08,1.08,0,0,1,.37-.69c.35-.17.94-.4,1.13-.24.47.39.67,0,1-.09s.59.24.9.26a4.67,4.67,0,0,0,1-.15c.68-.11,1.31-.58,2.07-.2.17.09.52-.1.75-.22.38-.2.2-.41,0-.6.37-.27.21-.73.36-1,.33-.67,1-.61,1.69-.44a4.15,4.15,0,0,0,0,1c.19.83.5,1,1.38,1,.43,0,.79-.53,1.31-.07.12.11.81-.24,1.1-.52.56-.55.74.49,1.19.22,0,.3.22.69.09.9-.23.42-.41.91-1.16.86a8.48,8.48,0,0,0-2.42.38c-.14,0-.56.2-.26.73a3.2,3.2,0,0,1,.11,1.83c0,.5.5.92.06,1.47-.13.17.12.73.32,1,1,1.51.82,3.43,1.68,5-.73.66.21,1.26.07,1.94a1.84,1.84,0,0,1-1.11,1.58.73.73,0,0,1-.58,0c-.24-.18-.66-.45-.32-.8.52-.52-.44-.79-.13-1.33.22-.38-.14-1,.36-1.38l-.63-.36C66.34,26,65.23,25.44,65.32,24.77Zm-3.8.67c.63.27,1-.31,1.45-.73.22-.19,0-.75.55-.66,0,0,.64-1.87.61-1.9a1.09,1.09,0,0,0-.24-.24,8.45,8.45,0,0,0-1.84-.9,2.79,2.79,0,0,0-2.38.76c-.72.58-1,1.17-.38,2,.08.11,0,.34,0,.51,0,.35.13.41.45.52A7.63,7.63,0,0,0,61.52,25.44Z"/><path class="cls-1" d="M163.08,16.85l-1,1c-.28-.86-.9.18-1.35-.25a2.15,2.15,0,0,0-1.25-.26c-.33,0-.77.27-1,.14a4.76,4.76,0,0,0-2.44-.31,2.32,2.32,0,0,1,.32.66,2.43,2.43,0,0,1,0,.85,1.63,1.63,0,0,0,.36,1.23,1.22,1.22,0,0,0,.41.34c.41-.44,1-.23,1.43-.35a8.45,8.45,0,0,0,1.44-.66c.35.56.93.25,1.47.38v1.71c-1-.53-1.77.14-2.66.44.62.77,1.25,1.52,1.86,2.28a1.35,1.35,0,0,1-.37,1.72.77.77,0,0,1-1-.38c-.39-1-1.36-1.48-1.92-2.29-1.12.1-1.07,1.19-1.59,1.77-.08.09,0,.4.1.57.32.73.71.9,2,1.08a3,3,0,0,1,.84.41,2.67,2.67,0,0,0,.59.23c.73.07,1.23.34,1.2.69a1.61,1.61,0,0,1-1.53,1c-.31-.05-.59-.26-.9-.33-.69-.14-1.4-.22-2.09-.36-1-.18-1.16-1.31-2-1.62-.07,0-.09-.47,0-.65.53-1.05.3-2.37,1.21-3.31.22-.22.12-.84,0-1.24a6.12,6.12,0,0,0-.57-1.49,2.46,2.46,0,0,1,0-2.5c.21-.4,0-.64-.48-.53-.09,0-.16.16-.25.24-.64-.89-2.13-.24-2.58-1.5.93-.78,2.13-.39,3.28-.51.15-.64.27-1.27.46-1.88a1,1,0,0,1,1.14-.5.9.9,0,0,1,.58.85c0,1.84.05,1.78,1.83,1.92a16.74,16.74,0,0,1,2.7.53C162.47,16.28,162.57,16.24,163.08,16.85Z"/><path class="cls-1" d="M186,23.88c0-.88.32-1.65-.17-2.25a4.62,4.62,0,0,0-3.09-2.05c-.57,0-1.14,0-1.7,0-.57-.75.06-1.41.23-2a2.12,2.12,0,0,1,1.17-1.35c.69-.18.5-.92,1.06-1.12a9.15,9.15,0,0,0,1.55-1,5.73,5.73,0,0,0-1.37,0c-.87.31-1.25-.61-1.95-.74-.28-.05-.23-.75,0-1a1.72,1.72,0,0,1,2.48-.23,3.69,3.69,0,0,0,.75.26c.81.28,1.55.6,1.51,1.65,0,.12.16.29.12.35-.47.76-.78,1.63-1.67,2-.34.16-.94.47-.91.59.15.71-.9.34-.74.9s.76.21,1.13.33a13.19,13.19,0,0,1,2.5,1.42,7,7,0,0,1,.27.92c.16.44.37.87.56,1.3-.58.49.15.93.07,1.45a8.09,8.09,0,0,1-.46,2.06,3.76,3.76,0,0,1-5.16,2.13,3.18,3.18,0,0,1-1.82-2.07,2.7,2.7,0,0,1,.51-1.68,1.48,1.48,0,0,1,1-.67,12.64,12.64,0,0,1,2.75,0C185.07,23.11,185.45,23.53,186,23.88Zm-1,1.74a1.84,1.84,0,0,0-2.5-.69c.24.44.35,1,.65,1.15C183.81,26.36,184.43,25.94,185,25.62Z"/><path class="cls-1" d="M100.21,19.31c.65.49,1.24,1,1.89,1.41s1.26.52,1.08,1.43c-.06.29,1.13,0,.4.76-.12.13.12.76.35,1,.41.4.2.85.29,1.27s.27.7.32,1.07-.06.92,0,1.37c.12.63-.47.48-.69.72s-.58.18-.83-.1-.68-.47-.27-1c.16-.21-.2-.78-.3-1.2-.13-.58.27-1.26-.32-1.76.15-.9-.74-1.29-1-2,0-.08-.3-.19-.34-.15a2.09,2.09,0,0,0-.36.47c.63.41,0,.75-.08,1.12-.14.57-1,.85-.71,1.59a7.13,7.13,0,0,1-3.58,2.15c-.3.11-.84-.16-1.15-.4a3.85,3.85,0,0,1-1.09-1.26,3.63,3.63,0,0,1,.33-3.5c.2-.28.62-.4.86-.66.41-.42.68-1,1.16-1.31A3.68,3.68,0,0,1,98,19.94c.38,0,.57-.8,1-.25s.49-.28.81-.14C99.85,19.59,100,19.41,100.21,19.31Zm-4.58,6.06A2,2,0,0,0,98,24.15c.49-.87,1.34-1.69.78-3-.66.38-1,1.05-1.8.94C96.06,22.94,95.3,23.87,95.63,25.37Z"/><path class="cls-1" d="M124.29,21.49c-.05,1-.22,1.74.5,2.29.16.12.1.52.14.79a1.41,1.41,0,0,0,1.2,1.18,1.57,1.57,0,0,1,1.2.49,1.31,1.31,0,0,0,1.57.15c.63-.42,1.2-.12,1.74-.3a1.34,1.34,0,0,1-.58,1.94c-.5.3-1.07.92-1.76.25a7.16,7.16,0,0,1-4.1-1.47c-.09-.06-.27-.1-.27-.15-.08-1.35-1.13-2.29-1.44-3.55a7.62,7.62,0,0,0-.3-1.48c-.27-.56.39-1,.32-1.57-.2-1.35.73-2.35,1-3.54.1-.41.3-.38.58-.4a1,1,0,0,1,1,.4.33.33,0,0,1,0,.24c-.28.86-.57,1.72-.85,2.58-.1.3,0,.71.29.54.7-.35,1.3.16,2,.07a15.82,15.82,0,0,1,2.16.12,1.3,1.3,0,0,0,.94-.27c.55-.7.87.32,1.32.13,0,.32.23.69.13.95s-.54.76-.72.72c-.68-.17-1.3.79-2,.06-.08-.09-.49.12-.75.19s-.38.18-.45.12C126.33,21.22,125.31,21.94,124.29,21.49Z"/><path class="cls-1" d="M113.3,26.76c1,.26,2-.3,3-.48,1.69-.3,3.33-1,5.13-.83-.34,1.32-1.37,1.79-2.4,2.25-.34.15-.59-.27-1.1,0a16.45,16.45,0,0,1-3.26.87,6.49,6.49,0,0,0-.89.34,1.47,1.47,0,0,1-1.69-.57,4.68,4.68,0,0,1-1-3.38c-.77-1.24,0-2.74-.67-4-.29-.51.12-1.12.4-1.52a1.86,1.86,0,0,0,.25-1.27c0-.29-.28-.81-.24-.83a9,9,0,0,1,1.35-.47c.14,0,.56.76.5,1-.49,1.85-.07,3.73-.21,5.58C113.1,24.42,112.88,25.64,113.3,26.76Z"/><path class="cls-1" d="M89.66,20.76c-1-.37-1.86-.72-2.76-1-.25-.09-.66-.24-.78-.13-.58.57-.76.05-.89-.33a.83.83,0,0,1,.58-1.05,4.9,4.9,0,0,1,2,.09c.55.23.89.36,1.33-.07.07-.07.43,0,.44.06.09,1,1.13.69,1.57,1.19.27.3.89.54.88.79a2.22,2.22,0,0,1-.59,1.44c-.49.47-.77,1.11-1.39,1.51-.38.25-.5.91-.72,1.39-.11.23-.19.47-.29.73.65.47,1.05,1.26,1.91,1.58.34.13.54.36.85,0,0,0,.3,0,.35.12.25.4.47.83.7,1.25a3,3,0,0,1-4.07-.48,5.76,5.76,0,0,0-.92-.68c-.09-.06-.21-.1-.26-.19A7,7,0,0,1,88,22.52a.44.44,0,0,1,.25-.18c.56-.11.92-.31.48-.92Z"/><path class="cls-1" d="M71,26.23a9.52,9.52,0,0,0,1.12-2.5.8.8,0,0,1,.23-.42c.42-.44.89-.82.87-1.54,0-.32.94-.41.29-1,0,0,0-.11.09-.11.63-.15,1.26-.3,1.9-.41.12,0,.38.11.4.2.13,1,.89,1.59,1.33,2.38A10.75,10.75,0,0,0,79.09,25a2.83,2.83,0,0,1,.81,2.95l-1.61-.78c-.12-.06-.33-.19-.32-.28.09-.83-.82-1-1.07-1.6s-.75-.84-.91-1.34-.43-.54-.75-.7c-.17-.08.12-.7-.35-.38-.25.17-.85,0-.75.68.13.92-.82,1.49-.94,2.35,0,.42-1.22.37-.44,1.09-.25.06-.58.25-.75.16A7,7,0,0,1,71,26.23Z"/><path class="cls-1" d="M134.56,27.39c.16-.18.36-.29.38-.43.09-.73.57-.87,1.19-.84a1.74,1.74,0,0,0,1.68-.57c.35-.44.18-.86.25-1.28-.11,0-.26-.09-.33-.05-.39.23-.9-.6-1.21.16-.64-.71-.7.35-1.11.36a.91.91,0,0,0-.33.05c-.32.14-.79,0-.81-.26,0-.46,0-.91,0-1.42a5,5,0,0,0,1.86-.48,2.25,2.25,0,0,1,1.61-.28,2.42,2.42,0,0,1,2.05,2.08,3.41,3.41,0,0,0,0,.85c.13.36.08,1.24.86.49.47-.44.83.68,1.3.08.08.09.2.17.24.27.25.83-.37,1.24-.85,1.71-.31-.6-.67.16-.9,0a1.39,1.39,0,0,0-1.65,0,2.13,2.13,0,0,1-1.44-.17.6.6,0,0,0-.73.07c-.24.2-.59.5-.81.45A5.31,5.31,0,0,1,134.56,27.39Z"/><path class="cls-1" d="M143.33,23.25c-.05.07,0-.15.19-.22.53-.26,1.14-.66,1.69-.25s1.1.11,1.63.25c.37.1.64-.53,1.13-.05.23.23.88.05,1.33,0a.79.79,0,0,1,.84.67c.1.42,0,.78-.56.77,0,.78-.64.74-1.07.6s-1-.15-1.48-.27-1.13-.26-1.56.29c-.37-.69-1.13-.15-1.68-.55S143.17,24,143.33,23.25Z"/><path class="cls-1" d="M134.62,18.89c-.05-.82.3-1.23.16-1.72-.05-.18.17-.41.15-.6s-.28-.5-.22-.68.47-.22.57-.41c.2-.41.38-.9.92-.67a1.23,1.23,0,0,1,.67,1.63c-.14.4-.35.77-.46,1.18-.07.25-.13.68,0,.77.81.62-.42,1.07-.1,1.66.08.16-.74.35-1,.05A10.7,10.7,0,0,1,134.62,18.89Z"/><path class="cls-1" d="M132.34,20.59c-.91-2-.91-2-.79-4.69,1-.06,1.6.35,1.67,1.24a2.19,2.19,0,0,0,.3,1.27c.24.33-.06,1,.36,1.36l-1.3.62A1.11,1.11,0,0,0,132.34,20.59Z"/><path class="cls-1" d="M80.25,22.09c-.63-.52-1.15-.91-1.62-1.35a1,1,0,0,1-.31-.71,1.74,1.74,0,0,0-.64-1.64c-.14-.1-.06-.5-.08-.78.61,0,1.24-.16,1.65.07s.19.93.45,1.29A3.61,3.61,0,0,1,80.25,22.09Z"/><path class="cls-1" d="M82.83,21.29c-.46,0-.8.09-.89,0-.61-.74-1.37-1.43-1.22-2.54,0-.11,0-.26,0-.34a6.82,6.82,0,0,1,1-1.21c.22-.19.51.66.83,1.46A11,11,0,0,1,82.83,21.29Z"/><path class="cls-1" d="M156.91,12.71s.12.09.11.1a1.59,1.59,0,0,1-.15.21l-.16-.15Z"/></g></g></svg>