<svg xmlns="http://www.w3.org/2000/svg" viewBox="0 0 249.63 46.21"><defs><style>.cls-1{fill:#fff;}</style></defs><g id="レイヤー_1" data-name="レイヤー 1"><path d="M144.79,13.92c.61-.29-.38-.45,0-.9a2.44,2.44,0,0,0,.18-2.51A5.56,5.56,0,0,0,144,9.08c-.79-.78.56-1.2.44-1.81-.06-.32,0-.69-.24-.95A4.6,4.6,0,0,1,143.07,3c0-1.44-2.61-2.59-5-2.32-.64.7-1.39-.45-2.05.05s-1.82.19-2.74.29c-.62.07-1.55,0-1.82.16-.79.64-1.49-.2-2.08,0a2.31,2.31,0,0,1-2.27-.11,1.34,1.34,0,0,0-.84,0A1.36,1.36,0,0,1,124.47,1a2.87,2.87,0,0,1-2,.4c-1.19,0-2.39,0-3.59,0s-2.19,0-3.27,0-2.09,0-3-.1-2.28.39-3,.06a8.53,8.53,0,0,0-3.7-.34C99,1,92.09,1,85.22,1c-.81,0-1.73.27-2.46-.24a1.45,1.45,0,0,0-.85-.13,9.78,9.78,0,0,1-6,0,3.39,3.39,0,0,0-1.26,0,24.45,24.45,0,0,1-8.36,0c-.33-.05-.74.18-1.11.17S64.32.62,63.89.58a4.71,4.71,0,0,0-1.3,0c-.77.14-1.58.72-2.29.33-1-.54-1.57.27-2.48.1a10.06,10.06,0,0,0-3.24,0C53.61,1.17,53,.67,52,.77s-1.79-.2-2.61.2a.52.52,0,0,1-.3,0C48.25.34,47.3.56,46.23.74c-.84.15-1.83,0-2.68.1a13.14,13.14,0,0,0-3.25.53c-.92.4-2-.64-3,0C35.74.64,34,1.07,32.3,1c-.57,0-1,.66-1.9.17-.3-.16-1.22.17-1.86.19-1,0-2,0-2.94,0a9.4,9.4,0,0,1-2.89,0c-1-.46-1.71.23-2.45,0a4.12,4.12,0,0,0-2.41,0c-.68-.62-1.45.22-2.06,0-2-.77-4.2-.19-6.29-.38-1.05.73-2,.07-3-.08a21.4,21.4,0,0,0-2.7.21L.57,4.33a.92.92,0,0,1,.14.28c.13.85.6,1.76.26,2.53s.36,1.66.15,2.52,0,1.89-.09,2.83S1.73,14.24.41,15c.34.83,1.37,1.64.07,2.48A2.63,2.63,0,0,1,.49,21c1.29.71.06,1.39-.08,2.08,1.6.69-.55,1.36,0,2.1.25.36-1,.85,0,1.27.14,1.44-.45,2.91.65,4.29-1,.7.36,1.36.08,2.1s.1,1.77-.14,2.62c-.14.5,1.08.78.22,1.34-.61.4.23,1.14-.68,1.66-.34.19-.37,1-.08,1.12.89.4-.14.91.5,1.41s.13,1.3.1,2c0,1,.8,1.71,1.9,2.34a1.06,1.06,0,0,0,.66.07c.73-.58,1.55.25,1.78.08.93-.68,1.5.15,2.18.09,1.23-.09,2.52.32,3.71-.35.51-.28,1.57.06,2.42-.28.46-.19,1.62.37,2.19.21a22.64,22.64,0,0,1,5.32-.38c.66,0,1.56-.4,1.9-.24a3.19,3.19,0,0,0,2.11.21c1-.29,2.22-.64,3-.3,1.15.52,1.85-.44,2.81-.08a5.16,5.16,0,0,0,1.72.34c.55,0,1.11-.31,1.65-.3s1.54.43,1.63.35c.91-.78,2.13,0,3.23-.29a6.39,6.39,0,0,1,4,.23A3.33,3.33,0,0,0,45,44.48a2.43,2.43,0,0,1,2,.09,1.63,1.63,0,0,0,.84.15c1.31-.8,2.9-.25,4.34-.37a4.59,4.59,0,0,1,2.14.23c.47.18,1.46-.24,2.22-.23s1.95.44,2.57.24a2.7,2.7,0,0,1,2.53.12,1.46,1.46,0,0,0,.85-.12c.72-.51,1.84,0,2.4-.31,1-.54,1.62.27,2.46.06a5.39,5.39,0,0,1,2.24-.29c2.26.84,5-.39,7.09.68.8-.69,2-.46,3-.36s2-.65,3-.11c.33-.74,1,.26,1.69-.15a6.37,6.37,0,0,1,2.45-.17c.64,0,1.6.35,1.85.19,1-.62,1.48.3,2.24.2.61-.08,1.21-.17,1.83-.21,1-.06,2-.09,3.08-.1.23,0,.62.21.67.18.81-.57,1.85-.17,2.77-.27a5.73,5.73,0,0,1,2.68.39c.77.29,1.43-.56,2.46,0,.58.29,1.79,0,2.63.43.67.38,1.58-.69,2.38,0,.47-.63,1.43-.14,2.18-.33.94-.24,2.27.17,3.4.1a6.8,6.8,0,0,0,2.11,0,6.74,6.74,0,0,1,2.18-.14c.68,0,1.64.45,1.93.3a4.29,4.29,0,0,1,2.11-.31c.77,0,1.54,0,2.29,0,.26,0,.47.29.75.33.77.11,1.54.65,2.37.06a98.62,98.62,0,0,0,12.07-.5l1.92-1.88c.11-.1.34-.27.33-.28-1.35-.73-.3-1.75-.8-2.63-.35-.63-1-1.57-.35-2.15s.43-1.27.56-1.9c.06-.33-.08-.68.06-1s.75-.91.85-1.39-.19-1-.23-1.56,0-1.21,0-1.82-.34-1.24.08-1.58c.78-.62-.44-1-.09-1.53.16-.23,0-.58.26-.73.59-.39.3-.61,0-1s0-1,.06-1.48c.05-.31.3-.61.33-.92.08-.71-.28-1.5,1-2,.1,0,.16-.24.11-.27a1,1,0,0,1-.37-1.67c.76-.69-.38-1.15-.12-1.73.2-.42-.27-.94.53-1.3a.35.35,0,0,0,0-.51C144.45,14.58,144.07,14.27,144.79,13.92Z"/><path d="M248.73,32.64c-.13-1.27.52-2.67-.19-3.81a4.84,4.84,0,0,1-.46-3.1c0-.43,0-.85,0-1.29-.05-1-.32-2,.45-3.1.65-.9.44-2.07.87-3.11-1.08-.43-.66-1.08-.71-1.65s.94-1,0-1.49c1.09-.74,1.16-1.79.58-2.42s1.31-1.63-.55-2.19c-.07,0,.1-.36.23-.53a1.7,1.7,0,0,0-.07-2.6.51.51,0,0,1-.09-.54c.15-.39.73-1,.51-1.11-1-.51.63-1,0-1.27-1.26-.54.73-.89.08-1.33a7.3,7.3,0,0,0,0-.81c-.06-.53-.6-.87-1.51-.9-2.76-.09-5.56.22-8.26-.38-.35-.08-.95.29-1.47.36-1.14.15-.58-.68-1.15-.74-1.66-.18-3.46.14-5-.46-.75.61-1.43.42-2.3,0a3.11,3.11,0,0,0-1.58.17,2.26,2.26,0,0,1-1.52,0C226,.28,225.22.3,224.5.2a4.44,4.44,0,0,0-2.31.21c-.51.22-1.49-.64-2.18.08-1.47-.35-2.84.23-4.34.11-1.75-.13-3.81.28-5.25-.12-1.26-.34-2.66.72-3.46-.31a27.6,27.6,0,0,1-10.09,0,1.09,1.09,0,0,0-.62.08c-.61.51-1.52.33-2.28.3-1.48-.06-3,0-4.46-.15s-2.83.27-4.29-.21c-.46-.15-1.6.3-2,.13a6.65,6.65,0,0,0-3.59-.16c-2,.21-4.21-.46-6.12.39-.16.07-.62-.09-.94-.14A4.73,4.73,0,0,0,171.05.2a5.6,5.6,0,0,1-3.56.31c-1.12-.49-2.43.59-3.13-.33-1,.76-1.89-.36-3,0a2.38,2.38,0,0,1-2.27.06c-.6-.38-1.54.55-2.3.12-1.14-.66-1.41.46-2.48.31a31.55,31.55,0,0,0-4.25-.05h-4.62a22.8,22.8,0,0,1-4.23,0c-1.49-.31-2.81.43-4.05,0-1.44-.46-2.78,0-4,.1a7.22,7.22,0,0,1-2.77.11c-.86-.19-2.15.31-3.11.17a16.31,16.31,0,0,0-3.35,0c-3.06.17-6.16.08-9.24,0-1,0-3.24.63-3.32,1.16-.29,1.86-1.73,3.62-1.49,5.54,0,.41.89.75.11,1.31-.46.34.1,1.09-.24,1.55s-.07.46,0,.74a15.68,15.68,0,0,1,.16,3.21c-1.13.26.37.86-.49,1.17-1.13.41-.56,1-.5,1.57a6.12,6.12,0,0,1,.26,1.15c0,.44-.38.87-.41,1.31s.56.79.33.95c-.81.56-.91,1-.06,1.57.27.19.17.64,0,.93-1.15,2.15-.56,4.34-.28,6.5.06.48.34.87,0,1.4s.51,1.09.31,1.57a2.4,2.4,0,0,0,0,2,4.9,4.9,0,0,1,.06,2v1.82a11.33,11.33,0,0,0,0,2,8.67,8.67,0,0,0,.68,1.66c-1.81.32.54,1.15-.59,1.55-.16,1.28,1.37,1.87,3.45,1.73a80,80,0,0,1,9-.09c.83,0,1.7.4,2.41,0,1.15-.68,1.52.67,2.45.25,1.67-.77,3.61-.27,5.41-.38,1.29-.08,2.86.22,3.82-.11a7.85,7.85,0,0,1,3.68-.24,13.47,13.47,0,0,0,3-.08c1.1-.06,2.32.26,3.32-.35a4.75,4.75,0,0,1,1.62.09,8.9,8.9,0,0,0,1.18.24c1.18-.82,2.26-.17,3.37,0a5.93,5.93,0,0,0,1.72.29,3.72,3.72,0,0,1,2.89-.14c1.07.44,1.46-.38,2.42-.19a17.52,17.52,0,0,0,3.17,0c1.07,0,2.14,0,3.2,0a20.25,20.25,0,0,1,3.43.18c1.07.21,1.7-.4,2.76-.24.74.12,1.9-.46,2.48-.3a8.46,8.46,0,0,0,2.6.35,16.58,16.58,0,0,1,2.83,0,4.41,4.41,0,0,0,2.31,0c.4-.12,1.16.45,1.82,0,.42.6,1.67-.41,2,.34.73-.13,1.45-.29,2.19-.38a3.22,3.22,0,0,1,.95.14c.41.07,1.15.22,1.17.2.68-.89,1.76.18,2.52-.18,1.07-.5,1.87.06,2.78.21a3,3,0,0,0,1.38,0c1-.61,1.79,0,2.65,0,1.11,0,2.35-.33,3.35.29a1.79,1.79,0,0,0,.93,0c3.05-.74,6.25-.13,9.36-.33,1,.55,2.2-.25,2.92,0,1.28.51,2.25,0,3.37,0a21.8,21.8,0,0,1,5.05.38,19,19,0,0,0,2.83,0H230c1,0,1.9,0,2.84,0a21,21,0,0,1,2.39.18,8.23,8.23,0,0,0,2.13-.16,16.89,16.89,0,0,1,3.18,0,8.51,8.51,0,0,1,2.41.57c.82.33,1.56-.73,2.25,0,1.11-.14,2.51,0,3.12-.66.39-.4.53-1.12.14-1.45s-.39-.88-.44-1.32a3.77,3.77,0,0,1,0-1.42c.12-.49.59-1,.65-1.45.12-.87-.46-1.9.17-2.59s-1.24-1.63.56-2.18c.06,0,0-.29-.12-.36C248.11,34.12,248.8,33.34,248.73,32.64Z"/></g><g id="レイヤー_2" data-name="レイヤー 2"><g id="qlbaqe"><path class="cls-1" d="M144.25,24.64l-1.31.59c.1.25.2.52.31.79s.55-.65.63.07.46.38.75.38a5.4,5.4,0,0,0,1-.14c.2,0,.4-.14.61-.18a1.22,1.22,0,0,1,.32,0s.11.08.12.12c.07,1.9-.62,2.36-2.67,1.79-.4-.6-1.32.12-1.63-.6s-1.17-.43-1.23-1.17c0,0-.29,0-.31,0a4.1,4.1,0,0,0-.36.87c-.3,1.27-.29,1.27-1.67,1.32,0-.37-.2-1,0-1.08.46-.34-.08-.7.18-1.05s.13-.73.18-1.08a9.48,9.48,0,0,1-2-.66,8.17,8.17,0,0,1-1.45-1.36,2.93,2.93,0,0,0,.15-2.56c-.08-.27-.25-.44,0-.72a1.66,1.66,0,0,0,.34-1.3c0-.4.39-.84.52-1.28s.14-.83,0-1c-.53-.45-.07-.73,0-1.12s0-1.06.58-1.46c1.38-1,1.36-1,2.48-1a2.78,2.78,0,0,1,2.34.62c.47.47,1.28.62,1.63,1.33.23.48,1.22.73.84,1.27s.63,1.07-.22,1.34c.49.31,0,.6,0,.89a1.43,1.43,0,0,0,.33.9c.1.17-.08.5-.12.77a.71.71,0,0,0,0,.35,6.66,6.66,0,0,1,.17,1.92c0,.22-.08.53,0,.65.35.38.3.38-.2.54S143.86,24,144.25,24.64Zm-1.76-8.93c-.71-.27-1.39-.57-2.09-.79-1.83-.56-2.14-.32-2,1.52a.82.82,0,0,0,1,.64c.31-.12.53-.18.71.09.33.51.83.45,1.34.48a6.43,6.43,0,0,1,1,.22Zm-4.64,5.91a2.38,2.38,0,0,0-.15.54c0,1.13.1,1.21,1.24,1.28.54,0,1.15-.29,1.6.25.47-.37,1-.22,1.54-.28.16,0,.29-.22.44-.34-.16-.11-.3-.23-.46-.33a5.07,5.07,0,0,0-1.26-.66C139.84,21.87,138.86,21.77,137.85,21.62Zm4.61-.54c-.31-1.35-.31-1.34-1.31-1.4-.25,0-.65.16-.69-.25s-.2-.45-.53-.44c-.51,0-1,0-1.54,0-.12,0-.24.16-.35.24.11.14.28.43.34.41.54-.2,1,.86,1.58.05C140.55,20.58,141.71,20.34,142.46,21.08Z"/><path class="cls-1" d="M94.59,13.9a8.89,8.89,0,0,0,1.48,0c.83-.13,1.68-.34,2-1.24.19-.6.64-.84,1.21-1.39.11.76.91,1.12.22,1.86-.11.12.18.68.38,1,.08.12.4.1.61.14.37,0,.79-.14,1.11.22s.39-.34.77,0c.22.2.88-.07,1.36-.13.38,1.25,0,1.92-1.34,2h-2.08c-.19.35.54.67,0,1.09-.36.27-.2.55.29.62.83.12,1.64.76,2.49,0,.08-.07.41.07.57.19a2,2,0,0,1,.6.6c.15.24.32.58.24.8a.72.72,0,0,1-.83.42c-.46-.05-.92,0-1.37,0a5.83,5.83,0,0,1-1.09-.41,1,1,0,0,0,1.22.76,5.86,5.86,0,0,1,3.17.66,1.78,1.78,0,0,1,1.15,1.61,6.41,6.41,0,0,1,0,2.27,1.48,1.48,0,0,1-1.46.9c-.25-.07-.55-1-.48-1.33a5.58,5.58,0,0,0,.19-1.27.87.87,0,0,0-.39-.66,4.5,4.5,0,0,0-1.86-.43c-.56.05-1.06.31-1.62,0-.17-.1-.45,0-.68,0s-.43,0-.47.07c-.25.49-.52-.14-.75,0s-.86.29-.79,1c.11,1.14,0,1.15.47,1.85l1.43-1.65c.23.23.43.44.64.63a1,1,0,0,1,.11,1.34c-.64.55-.51,1.19-.55,1.84a1.45,1.45,0,0,1-1,1.45c-.54.2-1,.07-1.08-.44s-.13-.88.31-1.24c.17-.13-.09-.33-.59-.59a15.18,15.18,0,0,1-1.32-.95c-.5-.34.39-.64,0-1.09a1.33,1.33,0,0,1-.1-1.27c.39-.65-.36-1.32.25-2,.37-.41.6-.76,1.16-.68a4,4,0,0,0,2.07-.49c-.18-.1-.3-.21-.37-.19a2.07,2.07,0,0,1-2.34-.33.68.68,0,0,0-.65,0c-.24.19-.37.34-.63,0s-.56-.56-.91-.91c.37-.18.76-.53,1.06-.47s.72-.62,1.12-.1c.17-.12.45-.22.47-.37a4.28,4.28,0,0,0,0-1.47.7.7,0,0,0-.8-.49,3.25,3.25,0,0,1-1.75-.33C94.75,15,94.74,15.06,94.59,13.9Zm6.18,6-.13-.22s-.11.08-.1.11a.77.77,0,0,0,.1.23Z"/><path class="cls-1" d="M87,28.76a8.18,8.18,0,0,1,.29-2.32c.47-1.37.76-1.8,2.16-2,.24,0,.63.15.63-.31s-.47-.33-.75-.36a3.07,3.07,0,0,1-1.6-.32c-.81-.54-1-1-.45-1.84a4.51,4.51,0,0,1,1-1.27c.58-.38.26-1.05.68-1.46.1-.09-.13-.46-.55-.44A2,2,0,0,1,86.9,18a1.51,1.51,0,0,1,.22-2.33c.22-.18.75,0,.6-.58,1-.56,1.54-1.72,2.73-2a2.71,2.71,0,0,1,1.11-.17,1.08,1.08,0,0,1,.61.67c.1.27.15.72-.43.66-.39.9-1.57.78-2.07,1.6-.38.64-.29,1.11.47,1.29a.49.49,0,0,0,.36,0,5.94,5.94,0,0,0,1-.6c.86-.71.84-.71,1.79,0a6.39,6.39,0,0,0,.74.31l-1.14.87c-.08.06-.27.11-.27.14.26,1.1-.88,1.1-1.32,1.65-.31.37-.88.57-.8,1.21,0,.12-.23.28-.37.4l-1,.86c1,.54,1.74-.43,2.63-.21.12,0,.39-.36.52-.6s0-.44.1-.63c.4-1,.6-1,1.43-.17a6.15,6.15,0,0,0,2.14,1.84c.6.21.5.83.45,1.32,0,.12-.28.23-.45.31s-.5.18-.83.29a3.46,3.46,0,0,0-.26-.3c-.24-.23-.64-.68-.73-.63-.52.31-1-.1-1.45,0s-1.09.11-.44.79c0,0-.09.17-.16.23-.69.65-.29,1.38-.1,2a7.44,7.44,0,0,0,.17,1c.13.29-.32.55.1.9.23.19.1.87,0,1.31a1.37,1.37,0,0,1-.5.79c-.09.08-.47-.14-.68-.29-.51-.37-1.5-.61-.54-1.51-.79-1,0-2.18-.46-3.2a6.48,6.48,0,0,0-1.36,2.93c0,.19-.28.31,0,.48-.17.18-.34.5-.5.5A4.71,4.71,0,0,1,87,28.76Zm1.84-11.85.22-.12s-.09-.11-.12-.11a1.2,1.2,0,0,0-.23.11Z"/><path class="cls-1" d="M150.1,27.39c0-.35,0-1,0-1.6a2,2,0,0,1,1.45-1.9c1.5-.27,3.18-1,4.14.9,1.07-.85.31-1.82.24-2.71s-1-1-1.54-1.35-1.55-.68-2.31-1.06-.81-.61-.42-1.31c.31-.54-.16-1.24.56-1.66a6.39,6.39,0,0,0,1.34-1.31c.16-.18.32-.51.25-.68a.91.91,0,0,0-.64-.45c-.63-.06-1.27,0-1.89,0a1.33,1.33,0,0,1-.8-.5c-.07-.09.16-.48.32-.67A3.2,3.2,0,0,1,153,12.2c.15,0,.43.05.44.12.21.92.68.68,1.2.3a.29.29,0,0,1,.23.08c.36.75,1.13,1,1.84,1.39-.26.66-1.05,1-.87,1.77-1,.07-.91,1.15-1.56,1.54-.15.09-.34.23-.35.36,0,.33-.37.81.3.9.84.11,1.2,1.17,2.16,1a14.66,14.66,0,0,1,1.21,1.52c.15.25,0,.66.06,1s.3.47.31.71a6.33,6.33,0,0,1-.2.92c0,.2.09.41.06.6a4.3,4.3,0,0,1-.24.92,1.88,1.88,0,0,1-.37.7c-.68.66-1,1.66-2,2.07a2.7,2.7,0,0,1-1.21.42C152.71,28.48,151.33,28.8,150.1,27.39Zm4.12-1.47s0-.31-.14-.41a1.26,1.26,0,0,0-.81-.26,2.84,2.84,0,0,0-1.09.5c-.17.11-.32.55-.25.62a1.63,1.63,0,0,0,.82.43c.21,0,.57-.31.67-.23C154.14,27.15,154.26,26.78,154.22,25.92Z"/><path class="cls-1" d="M115.29,23c-.47-.15-.14-.73-.73-.93a9.78,9.78,0,0,0-4-.62l-.67-1.78c1.26.18,2.31-.2,3.31.38.09.05,1.08.35.37-.48-.14-.17-.08-.55,0-.82a1.06,1.06,0,0,0-.73-1.2c-1-.24-1.78-1.11-2.9-.87-.17-1.12,0-1.36.91-1.36.64,0,1.28.07,2,.12a4.56,4.56,0,0,1,0-.65c.09-.6.5-1,1-.82s1,.31.55,1c0,.07-.1.18-.07.24a.87.87,0,0,0,.23.24c.4.28.72,1.07,1.15.81s.76.12,1.13.07a16.94,16.94,0,0,1,1.75,0,1.93,1.93,0,0,0,.22.58c.14.18.33.31,0,.49a5.82,5.82,0,0,1-1.12.61c-.4.13-.85-.06-1.26.31-.21.19-.75,0-1.1,0,0,.22-.12.35-.08.42.6,1.14.8,1.2,1.94.61.43-.22.83-.48,1.31-.76.17.71,1,1.22.14,2-.69.66-.6.76-2,.8a2.12,2.12,0,0,0,.14,1.39c.33.59-.46,1.17-.22,1.83a8.65,8.65,0,0,1-1.35.47,3.87,3.87,0,0,0-1.78.67,2.06,2.06,0,0,0,1.69,1.11,2.08,2.08,0,0,1,1.88,1.17c.09.24.44.36-.11.49-.33.08-.63.59-.89.55a5.85,5.85,0,0,1-2.42-.72,3.6,3.6,0,0,1-1.85-2.62c0-.32-.31-.54.08-.89A7,7,0,0,1,115.29,23Z"/><path class="cls-1" d="M125.36,13.36c.39.75.8,1.25.29,1.92a.41.41,0,0,0,.42.66c1.06-.06,2.1.93,3.19,0,.08-.07.44.26.69.3,1.05.16,1.05.15.85,1.2a2.51,2.51,0,0,0,0,.39,7.51,7.51,0,0,1-2.08.26,5.84,5.84,0,0,1-1.92-.43.83.83,0,0,0-1.13,1.09,4.33,4.33,0,0,1,.32,1.06.85.85,0,0,0,1.28.77c.24-.1.47-.25.71-.35.9-.41,1.3-.35,1.87.38a1.34,1.34,0,0,1,.25.74c0,.46-.37.27-.6.35-.39.14-.76.33-1.26.55l.55.69.53.72c-.57.33.31.52.09.77s-.47.35-.67.56-.09.29-.12.41c-1.12-.42-.76-2-1.91-2.35-1.27.65-1.29.64-1.62,1.74a6.15,6.15,0,0,0-.15,1.29c0,.85.56-.28.91.3a3.09,3.09,0,0,0,2.07,1c.75.08,1.07.52,1.59,1l-.85,1-3-.94c-.26-.08-.53-.11-.78-.2-1-.36-1.84-.87-1.7-2.13-.67-.92.31-1.85,0-2.78,0-.07.27-.23.42-.34.85-.6.88-.75.6-1.81-.14-.52-.59-1.06,0-1.59-.46-.47-.19-1.16-.5-1.66-.19-.32-.13-.88-.87-.76-.48.08-.75-.41-.69-.92s.41-.85.92-.72c.74.18.86-.4,1-.78A4.13,4.13,0,0,1,125.36,13.36Z"/><path class="cls-1" d="M102.34,24.05c.9.18.89,1,1.23,1.46a3.63,3.63,0,0,0,.71.95c.42.3.88.64,1.47.13.38-.34.88-.12,1.15.3a.76.76,0,0,1-.13,1c-.29.28-.51.87-.79.88a3.74,3.74,0,0,1-2-.23c-1.44-.69-1.76-2-2.14-3.23C101.78,25,102.17,24.49,102.34,24.05Z"/><path class="cls-1" d="M92.92,25.16c1.72-.26,2.47,1,3.4,1.85.06,0,0,.31-.11.44a1,1,0,0,1-1,.4C93.81,27.75,93.08,26.92,92.92,25.16Z"/><path class="cls-1" d="M87,29l-.2.15c0-.07-.08-.19-.06-.2a.74.74,0,0,1,.26-.1Z"/></g><path class="cls-1" d="M234.7,23.48a2.42,2.42,0,0,1-.21-.83c0-.31-.46-.51-.05-.91.23-.22-.3-.48-.46-.74a1.93,1.93,0,0,1-.34-.69,4.22,4.22,0,0,0-1.55-2.54c-.11-.1-.31-.12-.41-.23-.46-.49-1.09-.94-1.29-1.53-.3-.87-1.14-.51-1.59-.94-.14-.14-.4-.17-.56-.31a1.44,1.44,0,0,0-.7-.34,5.44,5.44,0,0,0-2.27-.39,2,2,0,0,1-.82-.1c-.34-.07-.75.17-1.13.24a10.52,10.52,0,0,0-2.59,1.14c-.27.12-.35.63-.53,1a.55.55,0,0,1-.2.2c-.85.35-.91,1.28-1.43,1.88a2,2,0,0,0-.53,1.14c0,.44-.39.82-.13,1.26a9.82,9.82,0,0,0-.73,3.46,2,2,0,0,1,.18.25,4.44,4.44,0,0,1,.35,1,4.5,4.5,0,0,0,2,3.4c.1.07.26.14.27.22.2,1.17,1.26,1.36,2.1,1.69s1.72.24,2.46.78a.55.55,0,0,0,.52.06c.53-.4,1.14-.19,1.71-.27.29,0,.58-.27.86-.24s.58-.54.88,0c.26-.59.91-.51,1.36-.76.86-.49,1.82-.77,2.33-1.75.25-.49,1-.62,1.06-1.35,0,0,.26,0,.36-.1s.33-.29.31-.41a3.33,3.33,0,0,1,.57-2c.08-.15,0-.44.12-.49C235,24,234.19,23.62,234.7,23.48Zm-7.82,1a4.52,4.52,0,0,0-2.44,1.45c-.32.43-.39.37-1.51.38.25-1.27-.32-2.55.4-3.83.22-.39-.67-1,0-1.62-.66-.66.4-.84.19-1.62.84.57,1.4,1,2,1.34a13.27,13.27,0,0,1,1.94,1.16,9.61,9.61,0,0,1,1.24,1.68A4.22,4.22,0,0,1,226.88,24.45Z"/></g></svg>