<svg xmlns="http://www.w3.org/2000/svg" viewBox="0 0 248.36 46.21"><defs><style>.cls-1{fill:#fff;}</style></defs><g id="レイヤー_1" data-name="レイヤー 1"><path d="M247.56,32.64c-.11-1.27.46-2.67-.17-3.81a5.39,5.39,0,0,1-.4-3.1c0-.43,0-.85,0-1.29a4.82,4.82,0,0,1,.41-3.1c.56-.9.38-2.07.76-3.11-.95-.43-.58-1.08-.62-1.65s.82-1,0-1.49a1.69,1.69,0,0,0,.51-2.42c-.64-.77,1.15-1.63-.49-2.19-.06,0,.09-.36.21-.53a1.86,1.86,0,0,0-.06-2.6.55.55,0,0,1-.08-.54c.13-.39.64-1,.45-1.11-.92-.51.55-1,0-1.27-1.11-.54.65-.89.07-1.33a7.3,7.3,0,0,0,0-.81c-.05-.53-.52-.87-1.33-.9-2.43-.09-4.9.22-7.28-.38-.31-.08-.84.29-1.3.36-1,.15-.51-.68-1-.74-1.46-.18-3.05.14-4.42-.46-.66.61-1.26.42-2,0a2.47,2.47,0,0,0-1.4.17,1.75,1.75,0,0,1-1.33,0C227.5.28,226.83.3,226.2.2a3.52,3.52,0,0,0-2,.21c-.45.22-1.31-.64-1.92.08-1.29-.35-2.51.23-3.82.11-1.55-.13-3.36.28-4.63-.12-1.12-.34-2.36.72-3.06-.31a21.48,21.48,0,0,1-8.89,0,.89.89,0,0,0-.56.08c-.53.51-1.33.33-2,.3-1.31-.06-2.62,0-3.94-.15s-2.49.27-3.78-.21c-.41-.15-1.41.3-1.73.13a5.19,5.19,0,0,0-3.16-.16c-1.78.21-3.72-.46-5.41.39-.13.07-.54-.09-.82-.14C180,.33,179.3.08,179.06.2a4.43,4.43,0,0,1-3.15.31c-1-.49-2.14.59-2.76-.33-.87.76-1.66-.36-2.63,0-.5.16-1.19.65-2,.06-.52-.38-1.35.55-2,.12-1-.66-1.25.46-2.19.31a24.57,24.57,0,0,0-3.75-.05h-4.08a17.75,17.75,0,0,1-3.73,0c-1.31-.31-2.48.43-3.57,0-1.27-.46-2.45,0-3.56.1a5.61,5.61,0,0,1-2.44.11c-.75-.19-1.89.31-2.74.17a12.74,12.74,0,0,0-3,0c-2.69.17-5.43.08-8.14,0-.87,0-2.86.63-2.93,1.16-.26,1.86-1.53,3.62-1.32,5.54,0,.41.79.75.11,1.31-.42.34.08,1.09-.22,1.55s-.06.46,0,.74a18.12,18.12,0,0,1,.14,3.21c-1,.26.33.86-.43,1.17-1,.41-.49,1-.44,1.57a6.84,6.84,0,0,1,.22,1.15c0,.44-.33.87-.35,1.31s.49.79.29.95c-.72.56-.81,1-.06,1.57.24.19.15.64,0,.93-1,2.15-.49,4.34-.24,6.5,0,.48.29.87,0,1.4s.45,1.09.28,1.57a2.66,2.66,0,0,0,0,2,5.47,5.47,0,0,1,.06,2v1.82a13.59,13.59,0,0,0,0,2,9.74,9.74,0,0,0,.6,1.66c-1.6.32.48,1.15-.52,1.55-.14,1.28,1.21,1.87,3,1.73a62.17,62.17,0,0,1,8-.09c.73,0,1.5.4,2.12,0,1-.68,1.35.67,2.16.25,1.48-.77,3.19-.27,4.78-.38,1.13-.08,2.51.22,3.37-.11a6.11,6.11,0,0,1,3.24-.24,10.42,10.42,0,0,0,2.64-.08c1-.06,2.05.26,2.93-.35.2-.14.95,0,1.43.09a7,7,0,0,0,1,.24c1-.82,2-.17,3,0,.53.11,1.32.41,1.53.29a2.93,2.93,0,0,1,2.55-.14c.94.44,1.28-.38,2.12-.19a13.68,13.68,0,0,0,2.8,0c.94,0,1.89,0,2.83,0a15.72,15.72,0,0,1,3,.18c.94.21,1.5-.4,2.44-.24.64.12,1.67-.46,2.18-.3a6.66,6.66,0,0,0,2.3.35,12.86,12.86,0,0,1,2.49,0,3.46,3.46,0,0,0,2,0c.35-.12,1,.45,1.6,0,.37.6,1.47-.41,1.78.34.64-.13,1.27-.29,1.93-.38a2.59,2.59,0,0,1,.84.14c.35.07,1,.22,1,.2.61-.89,1.56.18,2.23-.18.94-.5,1.64.06,2.45.21a2.37,2.37,0,0,0,1.22,0c.84-.61,1.57,0,2.33,0,1,0,2.08-.33,3,.29a1.4,1.4,0,0,0,.82,0c2.69-.74,5.51-.13,8.25-.33.88.55,1.94-.25,2.58,0,1.13.51,2,0,3,0a17.07,17.07,0,0,1,4.46.38,14.84,14.84,0,0,0,2.5,0H231c.83,0,1.67,0,2.5,0a16.07,16.07,0,0,1,2.1.18,6.5,6.5,0,0,0,1.89-.16,13.1,13.1,0,0,1,2.8,0,6.82,6.82,0,0,1,2.13.57c.72.33,1.37-.73,2,0,1-.14,2.21,0,2.75-.66a1.17,1.17,0,0,0,.13-1.45c-.48-.46-.35-.88-.4-1.32a4.51,4.51,0,0,1,0-1.42c.11-.49.52-1,.57-1.45.1-.87-.4-1.9.15-2.59s-1.09-1.63.5-2.18c0,0,0-.29-.11-.36C247,34.12,247.63,33.34,247.56,32.64Z"/><path d="M.85,32.64C1,31.37.37,30,1,28.83a5.1,5.1,0,0,0,.43-3.1c0-.43,0-.85,0-1.29,0-1,.29-2-.44-3.1-.61-.9-.41-2.07-.82-3.11,1-.43.63-1.08.67-1.65s-.89-1,0-1.49a1.61,1.61,0,0,1-.54-2.42C1,11.9-.9,11,.87,10.48c.06,0-.09-.36-.22-.53a1.77,1.77,0,0,1,.06-2.6A.53.53,0,0,0,.8,6.81C.66,6.42.1,5.81.31,5.7c1-.51-.59-1,0-1.27C1.48,3.89-.4,3.54.22,3.1a5.47,5.47,0,0,1,0-.81c.06-.53.57-.87,1.43-.9C4.26,1.3,6.91,1.61,9.48,1c.33-.08.89.29,1.39.36C12,1.52,11.42.69,12,.63c1.57-.18,3.28.14,4.75-.46.71.61,1.35.42,2.17,0a2.82,2.82,0,0,1,1.5.17,2,2,0,0,0,1.44,0c.59-.13,1.31-.11,2-.21A4,4,0,0,1,26,.41c.48.22,1.41-.64,2.06.08,1.39-.35,2.7.23,4.11.11,1.66-.13,3.61.28,5-.12,1.2-.34,2.53.72,3.28-.31A24.8,24.8,0,0,0,50,.18a1,1,0,0,1,.59.08c.57.51,1.43.33,2.15.3C54.13.5,55.53.53,57,.41S59.63.68,61,.2c.44-.15,1.51.3,1.86.13A5.94,5.94,0,0,1,66.27.17c1.91.21,4-.46,5.8.39.15.07.58-.09.89-.14.5-.09,1.21-.34,1.47-.22a5.07,5.07,0,0,0,3.38.31c1.06-.49,2.3.59,3-.33.94.76,1.79-.36,2.84,0,.53.16,1.27.65,2.15.06.56-.38,1.45.55,2.17.12C89-.35,89.27.77,90.28.62a28.38,28.38,0,0,1,4-.05h4.38a20.49,20.49,0,0,0,4,0c1.41-.31,2.66.43,3.83,0,1.36-.46,2.63,0,3.82.1A6.47,6.47,0,0,0,113,.76c.82-.19,2,.31,3,.17a14.61,14.61,0,0,1,3.17,0c2.9.17,5.83.08,8.75,0,.94,0,3.07.63,3.15,1.16.28,1.86,1.64,3.62,1.41,5.54-.05.41-.85.75-.11,1.31.44.34-.08,1.09.23,1.55s.07.46,0,.74a16.42,16.42,0,0,0-.16,3.21c1.07.26-.35.86.47,1.17,1.07.41.52,1,.47,1.57a6,6,0,0,0-.24,1.15c0,.44.35.87.38,1.31s-.52.79-.31.95c.77.56.86,1,.06,1.57-.26.19-.16.64,0,.93,1.08,2.15.53,4.34.26,6.5-.06.48-.32.87,0,1.4s-.48,1.09-.29,1.57a2.48,2.48,0,0,1,0,2,5.07,5.07,0,0,0-.06,2v1.82a12.36,12.36,0,0,1,0,2,9.2,9.2,0,0,1-.65,1.66c1.72.32-.51,1.15.56,1.55.16,1.28-1.3,1.87-3.27,1.73a71.72,71.72,0,0,0-8.55-.09c-.79,0-1.61.4-2.29,0-1.08-.68-1.44.67-2.31.25-1.59-.77-3.42-.27-5.13-.38-1.22-.08-2.7.22-3.62-.11a7.07,7.07,0,0,0-3.49-.24,12,12,0,0,1-2.83-.08c-1-.06-2.2.26-3.15-.35-.21-.14-1,0-1.54.09a7.92,7.92,0,0,1-1.11.24c-1.12-.82-2.14-.17-3.19,0-.57.11-1.41.41-1.64.29a3.36,3.36,0,0,0-2.74-.14c-1,.44-1.38-.38-2.28-.19a15.8,15.8,0,0,1-3,0c-1,0-2,0-3,0a18,18,0,0,0-3.24.18c-1,.21-1.62-.4-2.62-.24-.7.12-1.8-.46-2.35-.3a7.61,7.61,0,0,1-2.47.35,14.77,14.77,0,0,0-2.67,0,4,4,0,0,1-2.19,0c-.38-.12-1.1.45-1.73,0-.39.6-1.57-.41-1.9.34-.69-.13-1.37-.29-2.08-.38a3,3,0,0,0-.9.14c-.38.07-1.08.22-1.1.2-.65-.89-1.67.18-2.39-.18-1-.5-1.77.06-2.64.21a2.68,2.68,0,0,1-1.3,0c-.91-.61-1.69,0-2.51,0-1,0-2.23-.33-3.17.29a1.61,1.61,0,0,1-.88,0c-2.9-.74-5.93-.13-8.87-.33-.94.55-2.09-.25-2.76,0-1.22.51-2.14,0-3.2,0a19.55,19.55,0,0,0-4.78.38,17.2,17.2,0,0,1-2.69,0H18.62c-.9,0-1.8,0-2.7,0a18.62,18.62,0,0,0-2.25.18,7.47,7.47,0,0,1-2-.16,15.14,15.14,0,0,0-3,0,7.71,7.71,0,0,0-2.28.57c-.78.33-1.48-.73-2.13,0-1-.14-2.37,0-3-.66-.36-.4-.5-1.12-.13-1.45s.37-.88.42-1.32a4.23,4.23,0,0,0,0-1.42c-.12-.49-.56-1-.62-1.45C.81,39,1.36,38,.76,37.28S1.93,35.65.23,35.1c-.06,0,0-.29.12-.36C1.44,34.12.79,33.34.85,32.64Z"/></g><g id="レイヤー_2" data-name="レイヤー 2"><path class="cls-1" d="M131.74,15.36c.2-.14.41-.27.6-.43s.24-.31.4-.38a3.82,3.82,0,0,1,2.74.18,9.69,9.69,0,0,0,1.36.19,5,5,0,0,1-.31-2.88.76.76,0,0,1,.88-.61c.37,0,.35.37.49.47.58.45.18,1.08.42,1.58a6.58,6.58,0,0,1,.35,1.65,11.65,11.65,0,0,0,2.13.41,11.79,11.79,0,0,0,2.18-.31v1.69a2.71,2.71,0,0,0-2.86,1.74c-.35.83-.16,1.23.75,1.38.69.11,1.33.45,2,.59s.41.74.87.79c.7.07.31.61.36.93.1.63.4,1.28-.18,1.88a1,1,0,0,0-.14.78c0,.19.28.36.31.55a.77.77,0,0,1-.13.62c-.25.25,0,.33.06.51s-.19.32-.25.51,0,.46-.09.65a5.46,5.46,0,0,0-.63,2.32,2.92,2.92,0,0,1-.34,1.06c0,.07-.17.13-.27.16-.31.09-.61-.63-.92,0-.17-.22-.44-.41-.49-.66a1.4,1.4,0,0,1,.09-1c.35-.56.36-1.29.74-1.74.7-.83.26-1.63.14-2.41a1.4,1.4,0,0,0-.78-1c-1.22-.27-1.78-1.45-3-1.83l.67-1.28c-.16,0-.41-.13-.46-.07-.64.86-1.26,1.74-1.89,2.61.5.43.19.46-.22.51-.07,0-.19.31-.15.42.16.41.28,0,.44,0a3.51,3.51,0,0,1,1.05-.35,3.72,3.72,0,0,1,1,.28c1.61.45,2,.86,1.93,2.44,0,.54.16,1.11-.37,1.57a2.73,2.73,0,0,1-1.92.81,3.66,3.66,0,0,0-1.14.16,1.48,1.48,0,0,1-2-1.3c0-.08.07-.16.09-.24l.38-2c.05.05,0-.07-.09-.07-.57,0-1.3.09-1.45-.55a2,2,0,0,1,.61-1.93c.74-.61.57-1.71,1.42-2.19a4,4,0,0,0-.3-.49.38.38,0,0,0-.33,0c-.62.49-1.39.27-2.05.36-.15,1.4-.31,2.72-.42,4,0,.42-.19.92.3,1.24-.32.28-.29.66-.33,1.05a3.47,3.47,0,0,0,.38,1.74,4.41,4.41,0,0,0,.49.83c.28.41-.35.59-.24.95a2.53,2.53,0,0,1-.92-.06c-.8-.38-.78-1.28-1-2a7.7,7.7,0,0,1-.37-2.31c0-1.08.08-2.18,0-3.26-.07-.49.77-.65.28-1.19s.36-.54.37-.85-.26-.62-.16-.81a7.67,7.67,0,0,1,1-1.32c0-.05.23,0,.36,0s.47.11.57,0,.32-.16.52,0,.32-.18.5-.23a4.76,4.76,0,0,0,.66-.07c.25-.1.18-.84-.16-.94s-.52-.32-.26-.68a1.29,1.29,0,0,0,0-1.4c-.2.57-.75-.17-1,.27C133.27,16.06,132.13,16.51,131.74,15.36Zm6,4.35a11.3,11.3,0,0,1,.48-1.21c.19-.38.48-.71.67-1.09s-.07-.49-.52-.48-1,.19-1.42-.31c0-.05-.29.08-.44.13.5.36-.23.76,0,1.05s.71.36.9.64-.06.61,0,.93C137.39,19.48,137.6,19.58,137.75,19.71Zm.81,7.53c0-.53-.13-.74-.72-.85-.4-.07-.64.18-.67.63a1.88,1.88,0,0,1-.18.6c-.18.45.22.6.45.65C137.94,28.38,138.57,27.75,138.56,27.24Zm3.74-5L140,21.75c1,.68,1.36,1.55,2.34,1.79Zm-2.4-.32-.13-.12a.77.77,0,0,0-.1.23s.06.08.1.12Zm-4.22,3.71-.22.13s.08.11.11.1a1.15,1.15,0,0,0,.23-.1Z"/><path class="cls-1" d="M88.63,26.33a3.14,3.14,0,0,0-.52-.28c-.72-.21-.54-.75-.46-1.22.1-.68-.22-1.1-.8-.93l-1.49.44c0,1.11,0,2.3,0,3.49a2.16,2.16,0,0,0,.78,1.74,17,17,0,0,0,1.44,1.09s.17-.17.23-.16a4.11,4.11,0,0,0,2.68.05,5.31,5.31,0,0,1,2.16-.16c.17,0,.4.44.51.71a.51.51,0,0,1-.22.46c-1.47.51-2.89,1.4-4.54.62-3.07-.33-3.05-1-4.07-2.5-.06-.09-.06-.21-.12-.29-.33-.46-.53-.48-1.07-.08-.14.1-.23.29-.38.35a1.09,1.09,0,0,1-.51,0c-.94-.14-1.84.29-2.77.16-.2,0-.48-.15-.58-.06-.3.28-.51.33-.86,0a1.13,1.13,0,0,0-.8-.13c-1.09.21-1.16.18-1.2-.86,0-.23,0-.45,0-.81h2.44l-.86-4.76a22.85,22.85,0,0,1-2.22-.62c-.28-.1-.46-.28-.72,0s-.41.11-.35-.17c.1-.46.28-.91.44-1.41.92.21,1.84-.24,2.7.26.39.21.3-.16.29-.31,0-.53.26-1,.74-.88.32.1,1,.06,1,.81s.68.78,1.15.83a4.48,4.48,0,0,1,2.39.64.85.85,0,0,0,1.25-.65A4.25,4.25,0,0,1,85,19.78c.25-.52.86-.59,1.19-1,0-.06.59.27,1,.45-.34.65-.62,1.28-1,1.87-.19.3-.2.51.06.71s0,.74.56.67,1.17.18,1.55-.43.54-1,.87-1.52c.17-.25.41-.66.81-.42s.59.38.5.82c0,.16.07.39,0,.5-.48.63-.27,1.06.29,1.51a1.84,1.84,0,0,1,.82,1.57c0,.53.56,1.07-.06,1.6.18.64-.37,1.18-.31,1.74.08.81-.43,1.07-.88,1.54s-.73-.31-1.11-.09c0-.31-.12-.8,0-.9.64-.45.53-1.08.54-1.69s0-1.13.05-1.7c0-.15.47-.29.1-.46s-.54,0-.49.44C89.6,25.7,88.83,25.79,88.63,26.33ZM83.39,28c.7-.71-.2-1.21.18-1.92s.07-1.43.07-2.21a13.46,13.46,0,0,0-1.86-.32c-.59,0-1.18-.85-1.78,0-.28-.31-.52-.51-.51.16a10.83,10.83,0,0,0,0,1.71A16.87,16.87,0,0,0,80.07,27c.28.93.26,1,.82,1C81.75,28,82.61,28,83.39,28Zm.54.47-.12-.12a.82.82,0,0,0-.11.23s.07.07.11.11Z"/><path class="cls-1" d="M186.49,28.63c.23.7,0,1.13-.49,1.37a13.41,13.41,0,0,1-1.5.54c-.08,0-.22.09-.23.07-.48-.75-1.62-.49-2.05-1.32-.34-.67-.69-1.32-1-2a2.68,2.68,0,0,0-.83,2.15c0,.53-1.11,1.28-1.62,1.16a1.66,1.66,0,0,1-.33-1.22c.26-.52.87-1.09.77-1.52-.14-.63.21-.8.58-1.22-.52.21-.73-.73-1.25-.12l-1-.9c-.38-.36-.77-.7-.61-1.3a.78.78,0,0,0,0-.34c-.46-1.24-.44-1.24-.06-3.06.06-.32-.37-.82-.24-1a1.93,1.93,0,0,0,.31-1.08,3.43,3.43,0,0,1,.74-1.79c.11-.11.29-.28.27-.39-.12-.6.73-.23.77-.89s.59.17,1,0,.88,0,1.38-.14c.31-.1.82.4,1.24.63a8.24,8.24,0,0,1,1.39.8,10.51,10.51,0,0,1,.88,1.17c.12.14.38.17.58.25-.07.16-.2.33-.19.49a2.53,2.53,0,0,0,.21.76c.08.2.27.36.32.56a1.42,1.42,0,0,1,0,.68c0,.2-.22.37-.28.57a1.85,1.85,0,0,0,0,.66,6.2,6.2,0,0,1-.58,3.43,3.3,3.3,0,0,1-1,1.28c-.59.47-.68.88-.15,1.19s1.22.23,1.54.86C185.39,28.47,185.93,28.68,186.49,28.63Zm-2.88-9.41a3.55,3.55,0,0,0-.51-.2,1.13,1.13,0,0,0-.32,0c.08.12.14.29.25.33s.28-.05-.32-.32c0-.91-.85-1.11-1.38-1.6s-1.13.14-1.51-.45c-.26.41-.89.56-.82,1.35C180.38,17.92,181.4,19.25,183.61,19.22Zm.23,1.85a6,6,0,0,1-1.36,0c-.4-.1-.75-.4-1.15-.54s-.54.16-.88-.1a2.37,2.37,0,0,0-1.74-.37c-.25,0-.27,0-.27.31s-.11.82.07,1a1.79,1.79,0,0,0,1,.36c.81.15,1.63.22,2.44.36.41.08,1,.44,1.2.29S183.59,21.63,183.84,21.07Zm-.71,4.11c0-.28,0-.5,0-.71s-.08-.26-.15-.27c-1.32-.25-2.59-.67-3.88-1a.62.62,0,0,0-.76.67c0,.37.4.69.63,1,.53-.6,1.18.36,1.73-.14.07-.06.31-.09.35,0C181.58,25.44,182.33,25.17,183.13,25.18Z"/><path class="cls-1" d="M165,19.27a6.08,6.08,0,0,0-1.45.52c-.33.23-.41,0-.64,0-.5-.13-.88-.34-.85-.84a1.45,1.45,0,0,1,1.28-1.27c.28,0,.57,0,.86,0,.72,0,.72,0,.76-1,0,0-.07-.08-.11-.12.88-.53.44-1.63,1-2.3a2,2,0,0,1,.26-.24c.48.59,1.21,0,1.83.42-.48.4-.89.84-.72,1.52,0,.17.08.41,0,.51-.4.43-.52.85-.09,1.31a3.38,3.38,0,0,0,1.89.4c.3-.05.74-.13.91,0,.79.73,1.67.29,2.35.06s.87.2,1.14.42a.68.68,0,0,1,0,1.06c-.14.12-.29.37-.42.35-1.68-.16-3.39.39-5-.3a4.73,4.73,0,0,0-1.53,0,4,4,0,0,0,.36.77,1.9,1.9,0,0,1,.6,1.32A2.45,2.45,0,0,0,168,23c.36.58.9.72,1.39.24a1.85,1.85,0,0,1,1.21-.45,1.36,1.36,0,0,1,1.18.53,2.75,2.75,0,0,0,.73.38l-1.44,1a5.17,5.17,0,0,1,1,4c0,.26-.23.5-.25.75,0,.47-.52.49-.68.74s.15.66.24,1-.34.66-.57,1-.58.27-1,0-1,.16-1.38-.39c-.18.16-.29.44-.62.09a7.37,7.37,0,0,0-1.19-.86c.26-.74-.87-.38-.8-1,.1-.83-.42-1.68,0-2.51a3.32,3.32,0,0,1,.38-.7c.23-.24.35-.41,0-.62.13-.16.23-.42.39-.47.43-.11.64-.27.62-.77s-.31-.54-.56-.8A5.75,5.75,0,0,1,165.54,22,20,20,0,0,1,165,19.27Zm2.56,9.36c0,1,.28,1.42,1.19,1.69.36.11.87-.05,1.12.15s.49.08.62-.12.15-.53.1-.55c-1.06-.53-.07-1.5-.48-2.15.65-.82-.1-1.2-.55-1.64a.62.62,0,0,0-.56,0A2.76,2.76,0,0,0,167.58,28.63Z"/><path class="cls-1" d="M111.44,20h1.77a1.93,1.93,0,0,0,.22.58c.18.23.42.43.16.71a1.31,1.31,0,0,1-.68.41,7.11,7.11,0,0,1-1.23,0c.23.47.6.88.59,1.28,0,.57.39.64.63.95s.11,1,.15,1.55l2-1.55,1.07.77c-.32.89-1.29,1.17-1.54,2-.08.32-.26.48,0,.86a7.28,7.28,0,0,0,1.23,1.9,3.88,3.88,0,0,1,.6,1c-.4.77-1.21-.06-1.73.36,0,0-.29-.09-.29-.11.16-.63-.33-.92-.68-1.27-.73-.72-.72-.7-1.67-.11-.4.25-.88.39-1.3.61a4.19,4.19,0,0,1-2.45.69c-.53,0-1.05.26-1.58.32a11.59,11.59,0,0,1-1.56,0c-.22,0-.52.06-.65-.06a2,2,0,0,1-.47-.83c-.1-.34.09-.48.46-.5.19,0,.39-.33.55-.3,1.31.21,2.54-.41,3.83-.36a5.41,5.41,0,0,0,1.77-.31c.47-.15,1-.25.94-.73s.85-1.07.15-1.84a5.78,5.78,0,0,1-1.33-3c-.19-1.15-.6-1.57-1.8-1.82a33.75,33.75,0,0,0-6.3-.92c-.17,0-.73,1-.66-.07,0-.48-.83-.75-.18-1.33.43-.38.86-.2,1.28-.27a3.14,3.14,0,0,1,1.82,0c.4.33.76.5,1.19.11.27-.24.47-.19.72,0a1.88,1.88,0,0,0,2.7,0,.77.77,0,0,1,1.18.07C110.7,19.32,111.08,19.68,111.44,20Z"/><path class="cls-1" d="M67.89,31.69a7.27,7.27,0,0,0-.52-.83c-.42-.54-.44-.83,0-1.3.19-.21.41-.4.61-.61.51-.53.47-1.15.62-2.11a4.31,4.31,0,0,0-.47-2.3c-.24-.69-.66-.83-1.35-.63a4.28,4.28,0,0,1-1.64,3.42c-.84.7-1.49,1.64-2.75,1.72-.21,0-.34.24-.63,0-.53-.45-1.44-.21-1.86-.87a4.27,4.27,0,0,1-.51-1.86c0-.31-.31-.84-.23-.88.66-.42-.54-1.19.32-1.5-.08-.67.62-.47.9-.79A5,5,0,0,1,63.54,21L65.1,21a6,6,0,0,0,.84.05,1.13,1.13,0,0,1,1,.43,4.35,4.35,0,0,0,1,.93c.41.23,1,.2,1.37.44s-.1.88.49,1.16c.81.4.72,1.21.67,1.94,0,.29-.62.54-.24.84s-.14.51-.12.8C70.29,29.26,69.36,30.4,67.89,31.69ZM62,27.37c2.26-1.12,3.38-2.58,2.88-4.93-1.08.07-1.79.82-2.72,1.08-.77.21-1.07,1-1.3,1.75s.16,1.06.62,1.44A4.2,4.2,0,0,1,62,27.37Z"/><path class="cls-1" d="M190.71,22.31c.83.71,2,1,2.68,1.89a3.27,3.27,0,0,1,1,1.67l.34,2.45c-.33.6-.08,1.44-1.05,1.8-.62.23-1,1.08-1.81,1L189.49,31a4.85,4.85,0,0,1-.8-1.38,4.15,4.15,0,0,1,.35-2.75c.25-.48,1-.53,1.53-.62a13.73,13.73,0,0,1,2.19,0c-.77-.7-.64-1.65-1.77-1.77-.63-.06-1.21-.64-1.82-1-.94-.51-.93-.49-.41-1.32.22-.35.27-.81.51-1.15s.67-.63.94-1c.15-.19.24-.68.15-.75s-.74-.3-.85-.19c-.39.44-.6.09-.74-.14a1,1,0,0,1,.19-1.29c.71-.43,1.76-.53,2.16-.1a9.32,9.32,0,0,1,1.31,1.69c.11.19-.22.59-.22.9C192.21,21.2,191.29,21.6,190.71,22.31ZM190,29.53a8.8,8.8,0,0,1,1.49-.19.82.82,0,0,0,.9-.6c.11-.42-.26-.68-.67-.79a1.27,1.27,0,0,0-.93-.05C189.9,28.22,190.06,28.85,190,29.53Z"/><path class="cls-1" d="M125.23,31.38a2.49,2.49,0,0,1,.21-2.19,3.29,3.29,0,0,0,.34-2,2.1,2.1,0,0,0-1.14-2c-.49-.27-.78-.2-.93.26a3.21,3.21,0,0,0-.32,1.23,1.81,1.81,0,0,1-1.24,1.85c-.75.34-1.68.84-2.62.12-.44-.34-1-.49-1.22-1.11a1.42,1.42,0,0,1,0-.58,4.05,4.05,0,0,0,.2-.94,2.45,2.45,0,0,1,1.63-2.51c1.21-.53,2.49-1.25,3.87-.38,2-.33,2.39,1.51,3.41,2.5a8.13,8.13,0,0,1,.13,1.76,2.7,2.7,0,0,0,0,.49c.19,1.7-.84,2.66-2.09,3.5C125.38,31.41,125.31,31.38,125.23,31.38Zm-3-6.75c.06.12,0,0,0-.06a.35.35,0,0,0-.31-.05c-.41.25-.82.5-1.21.79s-.6.44-.69.73.23.55.26.85c.07.57.52.43.76.35.4-.14.39-.85,1-.84Z"/><path class="cls-1" d="M95,27.77a3.81,3.81,0,0,1,1.81-.52c.17,0,.62.23.55-.24,0-.18,0-.41,0-.48a10.75,10.75,0,0,1-.22-2.39c0-.36-.29-.94-.85-.33-.37-.55-.94-.35-1.41-.31A3.24,3.24,0,0,1,93,23a.8.8,0,0,0,.13-.13c.76-1.27.85-1.3,2.35-.84,1,.29,1.44.05,1.66-.9,0-.16,0-.34,0-.51.11-.66.42-.95,1-.89s.83.34.5.93c0,.06.22.24.26.39.1.35,0,.9.25,1.05a3,3,0,0,0,1.38.37c.68,0,1.37,0,2.11,0v1.32c-.88.13-1.85.27-2.82.39-.2,0-.29-.54-.63-.12s-.38.47-.11.85a1.22,1.22,0,0,1,0,1.39.66.66,0,0,0,.49,1,15.47,15.47,0,0,0,2-.08c.45,0,1.07.34,1,.7,0,0-.1.08-.11.12-.1.47-.53.59-.81.86s-.66.18-1.06.18c-1.1,0-2.26-.4-3.31.29a.35.35,0,0,1-.33,0C96.28,28.81,95.65,28.31,95,27.77Z"/><path class="cls-1" d="M147.8,20.06a6.66,6.66,0,0,0,.28-1.44c0-.32,0-.65,0-1a1.43,1.43,0,0,1,.48-1.19c-.5-.47-.05-.95.18-1.16a5.66,5.66,0,0,1,1.56-.76c.15-.06.44-.08.5,0,.54.78,1.6-.12,2.14.68.1.17.34.25.53.34a3.44,3.44,0,0,1,2,3.51,6.27,6.27,0,0,0-.05,1.94c.19.63-.68,1.42-1.44,1.79a2.92,2.92,0,0,1-2.29-.07c-.93-.32-1.9-.3-2.83-.61-.76-.25-1-.32-1-1,0-.34,0-.68,0-1Zm3.71-3.45c-1.44,0-1.45,0-1.34,1.07a.42.42,0,0,1-.12.29c-.13.14-.39.23-.41.36a6.76,6.76,0,0,0,0,1.19c0,1,.67,1.72,1.68,1.49a2,2,0,0,1,1.38.2c.47.21.72-.19,1.08-.3-.27-.76.58-1.45.05-2.3-.25-.4-.23-1-.72-1.3A12.61,12.61,0,0,0,151.51,16.61Z"/><path class="cls-1" d="M157,31.05a5.3,5.3,0,0,1-2.61-.34,1.11,1.11,0,0,1-.63-1.06,8.32,8.32,0,0,0-.26-2.79c-.21-.53.24-1.32.45-2a.67.67,0,0,1,.52-.35,1.51,1.51,0,0,0,1.47-.61c.35-.43.69.47,1.23,0,.29-.24,1.36.26,1.81.58.15.1.32.31.3.46,0,.49.3.68.62.91.15.11.43.24.42.34-.11,1,.71,1.84.12,3S159.66,31,158.7,31C158.13,31.08,157.56,31.05,157,31.05Zm-1.5-4.7c0,.79,0,1.53,0,2.27,0,.43.47.89.76.67.67-.5.95.12,1.36.3s.5,0,.72-.18a.72.72,0,0,0,.12-1c-.28-.35-.28-.56,0-.85a.55.55,0,0,0,.06-.46,1.49,1.49,0,0,0-1.89-1.16A6.51,6.51,0,0,0,155.49,26.35Z"/><path class="cls-1" d="M149.35,31.39a4.44,4.44,0,0,1-2.84-.66c-.46-.26-.18-.44-.21-.72-.08-.63.52-1.22-.08-2-.4-.47.32-1.34,0-2a9,9,0,0,1,1.8-1.79.33.33,0,0,1,.15,0,15,15,0,0,1,2.6.39c.39.12.63.71.93,1.08A3.79,3.79,0,0,1,152,26c.21.31.42.62.61.95s-.55.53-.1,1c.19.19.1.64.23.92s-.69.6-.05.94c-.67.27-.78,1.09-1.37,1.41a2.43,2.43,0,0,1-.95.17C150.08,31.41,149.79,31.39,149.35,31.39Zm1.27-1.75a11.51,11.51,0,0,0,.11-2.28c-.12-.89-.66-1.08-1.2-1.37a.83.83,0,0,0-1.27.59c-.08.32-.06.65-.35.87.4.22.21.47,0,.72.33.22.26.42,0,.61a7.88,7.88,0,0,1,.74.55C149.23,29.86,149.9,29.65,150.62,29.64Z"/><path class="cls-1" d="M108.92,25.08a1.63,1.63,0,0,1-1.3,1.88,5,5,0,0,0-.84.47,1.19,1.19,0,0,1-1.64-.25,10.05,10.05,0,0,0-.73-.73c-.62-.56-1.12-1.11-.53-2,.1-.16-.18-.54-.2-.83-.05-.78.08-.92.85-1.16.3-.1.71-.41.86-.31.51.35,1.1.17,1.58.37s.77.64,1.33.33c0,0,.19.1.2.17Q108.73,24,108.92,25.08Zm-3.18-.93c0,.4,0,.72,0,1a.39.39,0,0,0,.11.28c.14.14.34.36.46.33.28-.08.76-.31.75-.44a2.27,2.27,0,0,0-.45-1.13C106.52,24.09,106.12,24.18,105.74,24.15Z"/><path class="cls-1" d="M52.89,24.11V22.84a2,2,0,0,0-2-2.1,1.11,1.11,0,0,1-.91-.34c-.31-.38-.54.66-1,.09-.06-.08-.54.17-.83.23a1.14,1.14,0,0,1-.52,0c-.27,0-.52-.92-.33-1.12s.32-.33.49-.49c.76-.75.76-.76,1.91-.36.15.06.28.26.4.25a5,5,0,0,1,3.33,1.13c.27.16.89,0,.9.79s.55,1.46.06,2.34C54,23.87,53.8,24.31,52.89,24.11Z"/><path class="cls-1" d="M47.64,28.93a1.71,1.71,0,0,1,2.16-.57c.69.2,1.37,0,2.06.22a10.35,10.35,0,0,0,2.73.06c.46,0,.92,0,1.38,0a.76.76,0,0,1,.72.77c0,.39-.13.48-.5.66a3.14,3.14,0,0,1-1.09.28A28.59,28.59,0,0,1,49.87,30,7.29,7.29,0,0,1,47.64,28.93Z"/><path class="cls-1" d="M116.63,22.45c-.45,0-.91.07-.93-.58-1-.63-.81-1.83-1.27-2.72-.17-.32.17-.91.33-1.36,0-.09.38-.19.42-.14.33.35.63.74.93,1.12.66.84.81,2,1.63,2.75.21.18-.12.86-.43.92A3.85,3.85,0,0,1,116.63,22.45Z"/></g></svg>