<svg xmlns="http://www.w3.org/2000/svg" viewBox="0 0 196.32 46.21"><defs><style>.cls-1{fill:#fff;}</style></defs><g id="レイヤー_1" data-name="レイヤー 1"><path d="M113.87,13.92c.48-.29-.3-.45-.05-.9a3,3,0,0,0,.14-2.51,5.56,5.56,0,0,0-.74-1.43c-.62-.78.44-1.2.35-1.81a2.13,2.13,0,0,0-.19-.95A5.42,5.42,0,0,1,112.52,3c0-1.44-2.06-2.59-3.91-2.32-.5.7-1.09-.45-1.61.05s-1.43.19-2.15.29c-.49.07-1.22,0-1.43.16-.63.64-1.18-.2-1.64,0A1.5,1.5,0,0,1,100,1.06a.84.84,0,0,0-.66,0A.9.9,0,0,1,97.89,1a1.89,1.89,0,0,1-1.58.4c-.94,0-1.89,0-2.83,0s-1.72,0-2.57,0-1.64,0-2.4-.1-1.79.39-2.37.06A5.35,5.35,0,0,0,83.23,1C77.82,1,72.42,1,67,1c-.63,0-1.36.27-1.93-.24a1,1,0,0,0-.68-.13,6.14,6.14,0,0,1-4.74,0,2.1,2.1,0,0,0-1,0,15.17,15.17,0,0,1-6.57,0c-.26-.05-.59.18-.87.17s-.66-.18-1-.22a3,3,0,0,0-1,0c-.6.14-1.24.72-1.8.33-.78-.54-1.23.27-2,.1a6.26,6.26,0,0,0-2.55,0c-.76.15-1.24-.35-2-.25s-1.41-.2-2.06.2a.31.31,0,0,1-.23,0C38,.34,37.2.56,36.36.74c-.67.15-1.44,0-2.11.1a8.29,8.29,0,0,0-2.55.53c-.73.4-1.55-.64-2.36,0C28.11.64,26.72,1.07,25.4,1c-.45,0-.78.66-1.49.17-.24-.16-1,.17-1.47.19-.76,0-1.54,0-2.31,0s-1.76.24-2.27,0c-.81-.46-1.35.23-1.92,0a2.59,2.59,0,0,0-1.9,0c-.54-.62-1.15.22-1.62,0C10.83.59,9.11,1.17,7.47,1c-.83.73-1.58.07-2.36-.08A13.24,13.24,0,0,0,3,1.11L.45,4.33a1.62,1.62,0,0,1,.11.28,6,6,0,0,1,.2,2.53C.45,8,1.05,8.8.88,9.66s0,1.89-.07,2.83S1.36,14.24.33,15c.26.83,1.07,1.64,0,2.48A3.19,3.19,0,0,1,.39,21c1,.71,0,1.39-.07,2.08,1.26.69-.43,1.36,0,2.1.19.36-.77.85,0,1.27.11,1.44-.35,2.91.52,4.29-.83.7.28,1.36.05,2.1S1,34.59.78,35.44c-.11.5.85.78.18,1.34-.48.4.18,1.14-.54,1.66-.26.19-.29,1-.06,1.12.7.4-.11.91.39,1.41s.11,1.3.08,2a2.89,2.89,0,0,0,1.5,2.34.67.67,0,0,0,.52.07c.57-.58,1.21.25,1.4.08.73-.68,1.17.15,1.71.09,1-.09,2,.32,2.92-.35.4-.28,1.23.06,1.9-.28.36-.19,1.28.37,1.73.21a14,14,0,0,1,4.18-.38c.52,0,1.22-.4,1.49-.24a2,2,0,0,0,1.66.21c.79-.29,1.74-.64,2.33-.3.9.52,1.45-.44,2.21-.08a3.33,3.33,0,0,0,1.35.34c.43,0,.87-.31,1.3-.3s1.21.43,1.28.35c.71-.78,1.67,0,2.54-.29a4,4,0,0,1,3.15.23c.25.16.94,0,1.35-.16a1.55,1.55,0,0,1,1.6.09,1,1,0,0,0,.66.15c1-.8,2.28-.25,3.41-.37a2.88,2.88,0,0,1,1.68.23c.37.18,1.15-.24,1.75-.23s1.53.44,2,.24a1.73,1.73,0,0,1,2,.12.9.9,0,0,0,.66-.12c.57-.51,1.45,0,1.89-.31.77-.54,1.28.27,1.94.06s1.38-.47,1.76-.29c1.77.84,3.9-.39,5.57.68.64-.69,1.6-.46,2.35-.36s1.56-.65,2.38-.11c.26-.74.81.26,1.33-.15.37-.28,1.26-.18,1.92-.17.5,0,1.26.35,1.46.19.8-.62,1.16.3,1.76.2s1-.17,1.43-.21c.81-.06,1.62-.09,2.43-.1.18,0,.48.21.52.18.64-.57,1.46-.17,2.19-.27a3.62,3.62,0,0,1,2.1.39c.61.29,1.13-.56,1.93,0,.46.29,1.42,0,2.08.43s1.24-.69,1.87,0c.36-.63,1.12-.14,1.71-.33.74-.24,1.78.17,2.67.1.55,0,1.06.24,1.67,0a4.17,4.17,0,0,1,1.71-.14c.53,0,1.29.45,1.52.3A2.72,2.72,0,0,1,97,44.33c.6,0,1.2,0,1.8,0,.2,0,.37.29.59.33.6.11,1.21.65,1.86.06a61.09,61.09,0,0,0,9.49-.5l1.51-1.88c.08-.1.27-.27.26-.28-1.06-.73-.23-1.75-.62-2.63-.28-.63-.8-1.57-.28-2.15s.34-1.27.44-1.9a5.54,5.54,0,0,1,0-1c.17-.47.6-.91.67-1.39a7.12,7.12,0,0,0-.18-1.56c0-.6,0-1.21,0-1.82s-.27-1.24.06-1.58c.61-.62-.34-1-.07-1.53.12-.23,0-.58.2-.73.46-.39.24-.61,0-1s0-1,0-1.48c0-.31.24-.61.26-.92.06-.71-.22-1.5.81-2,.08,0,.13-.24.09-.27a1.15,1.15,0,0,1-.3-1.67c.6-.69-.29-1.15-.09-1.73.16-.42-.21-.94.42-1.3a.43.43,0,0,0,0-.51C113.6,14.58,113.3,14.27,113.87,13.92Z"/><path d="M195.61,32.64c-.11-1.27.4-2.67-.16-3.81a6,6,0,0,1-.35-3.1c0-.43,0-.85,0-1.29a5.28,5.28,0,0,1,.36-3.1c.5-.9.34-2.07.68-3.11-.85-.43-.52-1.08-.55-1.65s.73-1,0-1.49a1.81,1.81,0,0,0,.45-2.42c-.57-.77,1-1.63-.44-2.19-.05,0,.08-.36.19-.53a2,2,0,0,0-.06-2.6.6.6,0,0,1-.06-.54c.11-.39.57-1,.4-1.11-.82-.51.49-1,0-1.27-1-.54.58-.89.07-1.33a7.3,7.3,0,0,0,0-.81c0-.53-.47-.87-1.19-.9-2.16-.09-4.36.22-6.49-.38-.28-.08-.75.29-1.16.36-.89.15-.45-.68-.9-.74-1.31-.18-2.72.14-3.94-.46-.59.61-1.13.42-1.81,0a2,2,0,0,0-1.24.17,1.43,1.43,0,0,1-1.2,0c-.49-.13-1.08-.11-1.65-.21a2.8,2.8,0,0,0-1.82.21c-.4.22-1.17-.64-1.71.08-1.15-.35-2.24.23-3.41.11-1.38-.13-3,.28-4.13-.12s-2.1.72-2.72-.31a17.14,17.14,0,0,1-7.93,0,.72.72,0,0,0-.5.08c-.47.51-1.19.33-1.79.3-1.16-.06-2.33,0-3.51-.15s-2.22.27-3.37-.21c-.36-.15-1.26.3-1.54.13A4.16,4.16,0,0,0,141.3.17c-1.59.21-3.31-.46-4.82.39-.12.07-.48-.09-.73-.14-.42-.09-1-.34-1.23-.22a3.54,3.54,0,0,1-2.8.31c-.88-.49-1.92.59-2.46-.33-.78.76-1.49-.36-2.35,0-.45.16-1.06.65-1.79.06-.47-.38-1.21.55-1.81.12-.9-.66-1.11.46-2,.31A19.5,19.5,0,0,0,118,.57h-3.64a14.16,14.16,0,0,1-3.33,0c-1.17-.31-2.2.43-3.18,0-1.13-.46-2.18,0-3.17.1a4.51,4.51,0,0,1-2.18.11c-.67-.19-1.69.31-2.44.17a10.15,10.15,0,0,0-2.64,0C95,1.09,92.6,1,90.18,1c-.78,0-2.55.63-2.61,1.16C87.34,4,86.21,5.75,86.39,7.67c0,.41.71.75.1,1.31-.37.34.07,1.09-.19,1.55s-.06.46,0,.74a20.24,20.24,0,0,1,.13,3.21c-.89.26.29.86-.39,1.17-.88.41-.43,1-.39,1.57a6.76,6.76,0,0,1,.2,1.15c0,.44-.29.87-.32,1.31s.44.79.26.95c-.64.56-.71,1,0,1.57.22.19.14.64,0,.93-.9,2.15-.44,4.34-.22,6.5,0,.48.27.87,0,1.4s.4,1.09.25,1.57a2.93,2.93,0,0,0,0,2,6.2,6.2,0,0,1,0,2v1.82a13.58,13.58,0,0,0,0,2,9.41,9.41,0,0,0,.53,1.66c-1.42.32.42,1.15-.46,1.55-.13,1.28,1.07,1.87,2.71,1.73a49.5,49.5,0,0,1,7.1-.09c.65,0,1.34.4,1.9,0,.9-.68,1.19.67,1.92.25,1.32-.77,2.84-.27,4.26-.38,1-.08,2.24.22,3-.11a4.93,4.93,0,0,1,2.9-.24,8.27,8.27,0,0,0,2.35-.08c.87-.06,1.83.26,2.61-.35.18-.14.85,0,1.28.09s.85.3.92.24c.93-.82,1.78-.17,2.66,0,.46.11,1.17.41,1.35.29a2.37,2.37,0,0,1,2.28-.14c.84.44,1.14-.38,1.89-.19a10.92,10.92,0,0,0,2.5,0c.84,0,1.68,0,2.52,0a12.51,12.51,0,0,1,2.69.18c.84.21,1.34-.4,2.18-.24.57.12,1.49-.46,1.94-.3a5.4,5.4,0,0,0,2.05.35,10.2,10.2,0,0,1,2.22,0,2.77,2.77,0,0,0,1.82,0c.32-.12.91.45,1.43,0,.33.6,1.31-.41,1.58.34.58-.13,1.14-.29,1.73-.38a2.05,2.05,0,0,1,.74.14c.32.07.91.22.92.2.54-.89,1.39.18,2-.18.84-.5,1.47.06,2.19.21a1.9,1.9,0,0,0,1.09,0c.75-.61,1.4,0,2.08,0,.87,0,1.85-.33,2.63.29a1.12,1.12,0,0,0,.73,0c2.41-.74,4.92-.13,7.36-.33.78.55,1.74-.25,2.3,0,1,.51,1.77,0,2.65,0a13.53,13.53,0,0,1,4,.38,11.84,11.84,0,0,0,2.23,0h2.24c.75,0,1.49,0,2.24,0a12.87,12.87,0,0,1,1.87.18,5.17,5.17,0,0,0,1.68-.16,10.45,10.45,0,0,1,2.5,0,5.68,5.68,0,0,1,1.9.57c.64.33,1.22-.73,1.76,0,.87-.14,2,0,2.46-.66a1.3,1.3,0,0,0,.11-1.45c-.42-.46-.31-.88-.35-1.32a4.83,4.83,0,0,1,0-1.42c.1-.49.46-1,.51-1.45.09-.87-.36-1.9.13-2.59s-1-1.63.45-2.18c0,0,0-.29-.1-.36C195.12,34.12,195.66,33.34,195.61,32.64Z"/></g><g id="レイヤー_2" data-name="レイヤー 2"><path class="cls-1" d="M90.52,27a8.58,8.58,0,0,0-.67-2.91,2.42,2.42,0,0,0-.17.45c-.11.6-.54.86-1,.54a1.59,1.59,0,0,1-.6-.61c-.47-1.34-1.34-1.21-2.37-.73-.1.05-.31-.12-.48-.18,0,.19.06.39.08.58a2.42,2.42,0,0,0,.06.72c.12.29-.4.64.11.85-.24.24-.46.42-.2.85a1.93,1.93,0,0,1,.2,1.1,4.07,4.07,0,0,0,.8,3.08,5.8,5.8,0,0,0-1,.69c-.27.28-.38.17-.63,0a1.76,1.76,0,0,1-.93-1.68,28.7,28.7,0,0,0-.34-4.53,3.36,3.36,0,0,1-.21-1.56c0-.1,0-.05-.1,0l.16.15a1.59,1.59,0,0,0,.15-.21s-.07-.07-.21.05a3.76,3.76,0,0,1-1.16-.18c-.86-.15-1-.31-1-1.19a10.46,10.46,0,0,1,.35-1.92c0-.14.3-.21.44-.34.35-.33.68-.69,1-1-.16-.2-.24-.36-.29-.35-1.36.32-1.47-1.08-2.18-1.64-.17-.13-.15-.81.22-1.24a20.06,20.06,0,0,0,2.44-3.07,1.41,1.41,0,0,1,.36-.37c.76-.63,1.33-.5,1.91.43a2.15,2.15,0,0,0,.18.24c-.41.41-.84.79-1.22,1.23s-.58,1.12-1,1.25c-.72.22-.52.86-.92,1.12.57.87,1.48.24,2.1.65,0,0,.27-.11.37-.21a2.45,2.45,0,0,1,1.59-.43,1.2,1.2,0,0,1,.12,1.87c-.61.44-1.27.81-1.9,1.23-.34.21.5.5,0,.73a3,3,0,0,0-.71.36c-.27.22-.49.48-.84.83a2.16,2.16,0,0,0,1.58-.11c.32-.19,1,.17,1.55.31V20.37c.83-.05,1.6-.27,1.85.88,0,.19.42.31.65.45s.88.35.32.89l.95.72c0-.82,0-1.43.06-2,0-.23,0-.46,0-.68s.54-.3.15-.65a.61.61,0,0,1,0-.56,11.17,11.17,0,0,1,.71-1.08c.38.52.71-.13,1.09,0s.59-.05.85,0c.95.26,1.88-.89,2.82,0,.88-.92,1.74.2,2.65.05.49-.08,1,.48,1.07,1.1.06.29.31.72.21.82-.46.44.43.59.15,1a1.52,1.52,0,0,0-.27.91,2.23,2.23,0,0,0,.29,1.33c.38.39-.27.92.3,1.15-.54.34-.34.71,0,1.08a.67.67,0,0,0-.2,1c.56.46-.36.6-.12,1a.85.85,0,0,1-.11.78,1.24,1.24,0,0,1-.84.4,14.88,14.88,0,0,1-3.06-.11c-.3-.06-.68.26-1-.17-.19-.23-1,.13-1.29-.1A1.59,1.59,0,0,0,92,28.25c-.58.07-.78-.39-1.29-.8a3.82,3.82,0,0,1-.32.54c-.37.4-.73,1-1.33.25a4.84,4.84,0,0,1-2.87-.81,4.68,4.68,0,0,1,0-1.12,3,3,0,0,1,.49-.82c.18.6.71-.14,1,.27a1.71,1.71,0,0,0,1.75.78c.28,0,.59.21,1,.42.11,0,0,0,0-.1l-.16.16.21.15S90.64,27.1,90.52,27Zm7.41-4.35a8.78,8.78,0,0,1-.3-1.6c0-.48-.41-.54-.56-.78-.45-.69-.89.34-1.25-.12,0,0-.17,0-.23,0a1,1,0,0,0-.35,1.33c.41.52.15,1.08.43,1.66ZM92,19.91c-.09.16-.26.33-.25.48a9.63,9.63,0,0,0,.2,1.69c.23,1,.26,1,1.16,1.16.15,0,.43,0,.47-.14a1.75,1.75,0,0,0,.16-.91,9.39,9.39,0,0,1-.49-1.77c0-.29.17-.54-.2-.4A.94.94,0,0,1,92,19.91Zm5.91,4.89c-.49,0-1-.14-1.14,0-.39.57-.65-.12-1,0a.53.53,0,0,0-.18.26c.43.36.16.85.22,1.28A1,1,0,0,0,97,27l1-.24Zm-3.76,1.69c0-.74.17-1.45-.63-1.67a3,3,0,0,0-1,0v1.63Z"/><path class="cls-1" d="M71.83,19.83c-.7,1-1.81.14-2.66.76-.33.24-1.45-.82-1.56-1.42s.29-.25.57-.31a20.42,20.42,0,0,0,2.48-.81c-.42-.23-1.15,0-1.34-.76a10.78,10.78,0,0,0-.68-1.61c-.3-.65-.6-1.31,0-1.94a2.31,2.31,0,0,1,.88-.57c.08,0,.33.39.49.61s.36.39.33.54c-.27,1.19.59,1.93,1,2.85.09.21.68.59,0,.91.15.27.87.3,1,0a6.22,6.22,0,0,0,.67-1.94,8.76,8.76,0,0,1,1.31-3.07.45.45,0,0,1,.82-.1c.28.32.89.56.32,1.12.25,1.21-.65,2.17-.73,3.32,0,.27-.54.45.17.55.32,0,.49.45,1,.11s1.1.18,1.6.39c.26.11.35.62.58,1.08l-4.28.56c-.38.48.54,1-.06,1.55.13.13.32.4.38.38.61-.26,1,.54,1.71.24.44-.18,1.08.11,1.63.19-.17,1.1-1.14,1.07-1.87,1.28-.37.11-.79,0-1,.42a1.29,1.29,0,0,0-.12.45c.74.32-.55,1,.27,1.35.26.11.41.32.72.1a1.19,1.19,0,0,1,.76-.21,2.09,2.09,0,0,0,2.19-1.08,4.15,4.15,0,0,0,.36.7c.35.45.23.78-.12,1.18a3.72,3.72,0,0,1-2.76,1.25c-.85.05-1.06.27-1.08,1.1a16.42,16.42,0,0,1,0,1.72.65.65,0,0,1-1.11.35c-.41-.33-.65-.66-.25-1.17.28-.36-.6-.71,0-1.1-.23-.19-.45-.49-.71-.54a5.67,5.67,0,0,0-1.54,0,1.59,1.59,0,0,1-1.84-1.07c0-.07,0-.16,0-.18,1-.59,1-.59,2.67-.48.33,0,.66,0,1.19,0-.17-.36-.29-.57-.38-.79-.2-.49.19-1.24-.5-1.49a4.62,4.62,0,0,0-1.5-.12c-1,0-1,0-1.86-1.05a3.14,3.14,0,0,1,2.61-.69c.15,0,.46-.18.47-.29,0-.67,0-1.35,0-2Z"/><path class="cls-1" d="M107,18.87c.52.4.76,1.06,1.39,1.46s1.08.52,1.53.22a2.44,2.44,0,0,1,1.64-.19c.42,0,.61.71.31,1s-.47.49-.73.73a1.3,1.3,0,0,0-.43,1.39c.09.25.25.47.34.72s.29.61.2.83a1.3,1.3,0,0,1-.71.71c-.27.08-.81.35-.88-.36,0-.25-.24-.47-.33-.72-.21-.61-.59-.81-1-.44a2.46,2.46,0,0,0-.77,1c-.29.87-.3,1.45.47,1.77s1.5.63,2,.4c.93-.42,1.65.35,2.51.11.24-.06.61.41.57.89s-.2.45-.53.46c-.13,0-.25.31-.37.31a2.29,2.29,0,0,1-1.13-.15c-.46-.29-.59.4-1,.19a2,2,0,0,0-1.12-.18,2.35,2.35,0,0,1-1.19-.21,5.3,5.3,0,0,1-1.08-.71,1.68,1.68,0,0,1-.39-.3c-.15-.18-.92.44-.55-.44.06-.14-.34-.47-.53-.71s.63-.75,0-1.08a1.55,1.55,0,0,0,.71-1.6c0-.08.19-.2.31-.29a3.09,3.09,0,0,0,.76-.61,3.06,3.06,0,0,0,.49-1.16c.09-.47-.37-.47-.65-.66a5.1,5.1,0,0,1-1.46-1.43c-.25-.38-.15-1-.22-1.51-1-.68-1.94.57-3,.12,0-1.22,0-1.12,1-1.66.61-.35,1.57-.53,1.44-1.69,0-.3.56-.81,1-1,.59-.27.86.38,1.22.7,0,.05-.05.24-.07.36a4.66,4.66,0,0,0-.1,1c0,.12.4.33.41.33.5-.59,1,.31,1.46,0a5.74,5.74,0,0,1,1.44-.68,1.47,1.47,0,0,1,1.63.61.81.81,0,0,1,.06,1.06c-.22.33-.46.44-.73.05-.31.49-.81.25-1.24.33s-.9.42-1.22.3C107.7,18,107.3,18.14,107,18.87Z"/><path class="cls-1" d="M134.75,25.21c.38-1.58-.83-2.17-1.6-2.77a4.21,4.21,0,0,0-3.09-1.21c.5-.5-.06-.68-.31-1a.9.9,0,0,1,.06-.22c.81-1,1.64-2.07,2.43-3.13a1.76,1.76,0,0,0,.17-.78s-.22-.14-.28-.1c-.33.17-.68-.07-1,.16s-.73-.09-1.1-.16l-1.31-.24a1.47,1.47,0,0,1,0-.47c.14-.39.22-.92.51-1.11s.76.06,1.14.14c.88.19,1.7-.37,2.57-.18a11,11,0,0,1,1.4.35,1,1,0,0,1,.49.48,4.2,4.2,0,0,1-.67,2.76c-.69.38-1,1.1-1.53,1.6s-.22.81.4,1c.46.14,1.09.13,1.34.44s.41.73,1,.6c.06,0,.23.16.22.2-.28.77.55,1,.73,1.6.4,1.29,1,2.52.31,3.88-.15.28-.29.74-.5.79-.71.15-.81.56-.91,1.18s-.35-.17-.52-.05c-1,.74-2.21.46-3.27.84a1,1,0,0,1-.24,0c0-.8-1.19-.53-1.14-1.41,0-.3-.3-.69-.56-.94s-.44-.53-.11-.9c.09-.1,0-.33,0-.5.06-1.51.06-1.51,1.47-1.91A4.16,4.16,0,0,1,134.75,25.21Zm-3.84.71.55,2a13.66,13.66,0,0,1,1.44,0c.78.1.65-.63.87-1s-.35-.3-.46-.44C132.72,25.74,132,25.74,130.91,25.92Z"/><path class="cls-1" d="M67,29a7.49,7.49,0,0,1-.39,1.36,2.61,2.61,0,0,1-2,1.2c-.6.11-1.26.47-2,.12-.47-.23-1.09-.22-1.48-.52s0-.9-.35-1.39a4.33,4.33,0,0,1-.44-1.68,1.49,1.49,0,0,1,.81-1.84c.61-.21.91-1.09,1.72-.8.37-.38.59-.37.64.22a.71.71,0,0,0,.43.11c.29-.42.51-.26.74,0s.34.29.62,0,.51-.12.56.3a1.7,1.7,0,0,0,.79,1.4C67,27.78,66.91,28.49,67,29Zm-5-.9c.2.39.37.77.58,1.13a1.75,1.75,0,0,0,.36.36,1.22,1.22,0,0,0,1.62.06,1.66,1.66,0,0,0-.11-2,1.9,1.9,0,0,0-1-.5c-.19,0-.44.26-.67.4Z"/><path class="cls-1" d="M61.6,11.62c.27,1,1,1.65.87,2.62,0,.28.31.86.53.89.56.07.45.38.48.7,0,.12.14.22.21.33.57-.82,1.47.76,2-.28.46.11.94.2,1.39.35.09,0,.21.35.16.41a6.45,6.45,0,0,1-1.18,1.21c-.14.11-.65-.34-.83-.24-.63.35-1.46.07-1.89.38-.6.42-.93-.42-1.3-.06s-.92.32-1.41.34c-.28,0-.67-.07-.82.07a.8.8,0,0,1-1.06.18,2.71,2.71,0,0,1-.62-.93,1.07,1.07,0,0,1,.54-1,15.78,15.78,0,0,1,2.37-.14c.31,0,.36,0,.35-.22a2.22,2.22,0,0,0-.14-.63c-.22-.54-.65-1-.6-1.64-.83-.43.35-1.19-.28-1.65Z"/><path class="cls-1" d="M59,20.14c.15-.09.2-.15.24-.15.6.1.93-1,1.64-.38a5,5,0,0,1,1.91-.32c.43,0,.91.14,1.25-.32,0,0,.34,0,.44.12.31.33.55.24.85,0a.54.54,0,0,1,.55.07,3.14,3.14,0,0,1,.36,1c0,.15-.14.46-.26.48-.92.16-1.85.27-2.77.37a5.65,5.65,0,0,0-2.46.31.81.81,0,0,1-1.23-.65C59.46,20.5,59.19,20.36,59,20.14Z"/><path class="cls-1" d="M66,23.33a2,2,0,0,1-2,1.16,7.14,7.14,0,0,0-3,.17c-.42.16-1.06-.75-.86-1.17a5.14,5.14,0,0,1,.48-.67c.26.4.41,0,.61-.06.5-.07,1,0,1.54,0a9.94,9.94,0,0,0,1.41-.33C65.1,22.16,65.44,22.88,66,23.33Z"/><path class="cls-1" d="M83.12,26.36a.85.85,0,0,1-.14.45,5.56,5.56,0,0,0-1.26,2.56c-.08.51-.56.61-1.11.31-.32-.18-.89-.41-.88-.6a3.39,3.39,0,0,1,.45-1.5c.44-.8,1.17-1.4,1.59-2.24.22-.44,1.18-.18,1.35.35A3.58,3.58,0,0,1,83.12,26.36Z"/><path class="cls-1" d="M127.13,27.54c-.6.64-1.36.25-2,.34-.07,0-.21-.11-.23-.19-.21-.71-1-.74-1.4-1.17-.13-.14-.35-.39-.31-.45a2.77,2.77,0,0,1,.55-.53c.66.76,1.15-.42,2,.13-.26-.86.16-1.5-.41-2a1.18,1.18,0,0,0,0-1.59.5.5,0,0,1,0-.49c.45-.39.43-.74,0-1.1.23-1-.38-1.95-.35-2.95,0-.4.12-1-.07-1.14-.49-.32.37-.78-.24-1-.29-.12-.43-.6-.62-.92s-.27-.63-.51-.81a3.78,3.78,0,0,0-1-.38c-.39-.14-1-.49-1.13-.38-.53.67-1-.28-1.29,0-.53.51-.85.14-1.31,0a2,2,0,0,0-1.67.48c-.41.27-.93.64-.39,1.26-.61.8-.29,1.73-.33,2.6a3.82,3.82,0,0,0,.19,1.8c.35.7-.5,1.1-.21,1.7a4,4,0,0,1,.21.77c.06.26.2.73.12.77-.69.37.55,1.06-.25,1.35l.82,1.32a.84.84,0,0,1,.13.29c.17.61.48.68,1,.38.25-.14.61.56.91,0,.16.1.41.16.47.31a.76.76,0,0,1,0,.66c-.57.74-.07,1.75-.66,2.49-.08.1-.07.44,0,.48a4.08,4.08,0,0,0,1.16.5c.28.05,1-1,.85-1.18-.56-.57.33-.78.23-1.2a1.15,1.15,0,0,1,1.06.36,5.41,5.41,0,0,0,4.45,1.7A2.2,2.2,0,0,0,127.13,27.54Zm-3.8-3.47h0a1.59,1.59,0,0,1-.21-.15l.15-.15.17.2S123.34,24.08,123.33,24.07Zm-5-9.08c.3-.13.7-.43,1.06-.4s.74.48,1.08-.08l1.08.65c.32-.64.65,0,.92.05.6.13-.17.38,0,.5.51.49.29,1,.23,1.59-.85-.54-.88-.64-1.41-.44s-1-.84-1.43,0c-.47-.66-.94.42-1.49-.06Zm-.08,3.62a16.41,16.41,0,0,0,2.82,0c1-.19,1.11,1.12,2,1-.54,0-1.08,0-1.62.06a2.27,2.27,0,0,0-1.27.24c-.67.42-1.26-.37-1.94-.46C118.27,19.43,118.29,19,118.29,18.61Zm4,5.16c-.91,0-1.82,0-2.73,0-1.09,0-1.21-.14-1.25-1.27v-.67l1.43-.35c.35-.09.72.58,1.07,0,0-.07.25-.13.29-.09.75.66,1.51.23,2.38-.08,0,.5,0,.88,0,1.26C123.44,23.59,123.27,23.76,122.27,23.77Z"/></g></svg>