<svg xmlns="http://www.w3.org/2000/svg" viewBox="0 0 249.63 46.24"><defs><style>.cls-1{fill:#fff;}</style></defs><g id="レイヤー_1" data-name="レイヤー 1"><path d="M114.8,14c.48-.3-.3-.46,0-.9a3,3,0,0,0,.15-2.52,6.12,6.12,0,0,0-.75-1.43c-.63-.77.44-1.19.35-1.81,0-.32,0-.69-.2-.94A5.43,5.43,0,0,1,113.44,3c0-1.44-2.08-2.58-3.94-2.32-.51.7-1.1-.44-1.62,0s-1.45.2-2.18.3c-.49.07-1.23-.06-1.44.16-.63.63-1.18-.2-1.65,0a1.5,1.5,0,0,1-1.8-.11.82.82,0,0,0-.67,0A.91.91,0,0,1,98.69,1c-.4.45-1,.4-1.59.39-.95,0-1.91,0-2.86,0s-1.73,0-2.59,0-1.65,0-2.41-.09-1.81.38-2.4.05A5.62,5.62,0,0,0,83.91,1C78.46,1,73,1,67.57,1c-.64,0-1.37.26-1.95-.24a.87.87,0,0,0-.68-.13,6.28,6.28,0,0,1-4.78,0,1.91,1.91,0,0,0-1,0,15.6,15.6,0,0,1-6.63,0c-.25-.05-.59.18-.88.16s-.65-.17-1-.21a3.23,3.23,0,0,0-1,0c-.62.15-1.26.72-1.82.34-.79-.54-1.25.26-2,.1a6.31,6.31,0,0,0-2.56,0c-.77.15-1.26-.34-2-.25S39.84.59,39.19,1A.27.27,0,0,1,39,1c-.7-.6-1.46-.39-2.31-.2-.66.14-1.45,0-2.12.1A8.84,8.84,0,0,0,32,1.39c-.73.41-1.55-.63-2.37,0-1.24-.7-2.65-.27-4-.32-.45,0-.79.65-1.51.16-.23-.16-1,.17-1.47.2-.78,0-1.56,0-2.34,0s-1.77.23-2.28,0c-.82-.47-1.36.23-1.94,0a2.7,2.7,0,0,0-1.92,0c-.54-.63-1.15.21-1.63,0-1.6-.78-3.33-.19-5-.39-.83.74-1.59.08-2.38-.08A14.64,14.64,0,0,0,3,1.13L.45,4.35a1.15,1.15,0,0,1,.11.29A6,6,0,0,1,.77,7.16c-.32.91.29,1.67.12,2.52s0,1.89-.07,2.83S1.37,14.27.33,15c.26.82,1.08,1.64,0,2.48A3.15,3.15,0,0,1,.39,21c1,.71,0,1.38-.07,2.07,1.28.7-.43,1.37,0,2.11.2.36-.77.84,0,1.27.12,1.43-.35,2.91.52,4.29-.83.69.29,1.35.06,2.1S1,34.61.79,35.46c-.11.5.86.78.18,1.35-.48.4.18,1.14-.54,1.65-.27.19-.3,1-.07,1.12.71.4-.1.92.4,1.42s.1,1.29.08,2a2.89,2.89,0,0,0,1.51,2.34.77.77,0,0,0,.52.07c.58-.59,1.23.25,1.41.07.74-.68,1.19.15,1.73.1,1-.09,2,.32,2.94-.35.4-.28,1.24.06,1.92-.29.37-.18,1.29.37,1.74.21a14.32,14.32,0,0,1,4.22-.37c.52,0,1.23-.4,1.5-.24a2.09,2.09,0,0,0,1.67.21c.8-.3,1.76-.64,2.35-.3.91.52,1.47-.44,2.23-.08a3.32,3.32,0,0,0,1.36.33c.44,0,.88-.3,1.31-.29s1.22.43,1.29.35c.72-.78,1.69,0,2.56-.29a4,4,0,0,1,3.18.23c.25.16.95,0,1.36-.16a1.53,1.53,0,0,1,1.61.09c.16.11.58.21.67.14,1-.8,2.3-.24,3.44-.37a2.91,2.91,0,0,1,1.69.23c.37.18,1.16-.23,1.76-.23s1.55.44,2,.24a1.78,1.78,0,0,1,2,.12.84.84,0,0,0,.67-.12c.57-.5,1.46,0,1.9-.3.77-.54,1.28.26,2,.06s1.38-.47,1.77-.29c1.79.84,3.93-.4,5.62.67.64-.69,1.61-.45,2.36-.36s1.58-.64,2.4-.1c.26-.75.81.25,1.34-.15.37-.28,1.28-.19,1.94-.18s1.26.35,1.47.19c.8-.61,1.17.3,1.78.2s1-.17,1.44-.2c.81-.06,1.63-.09,2.44-.1.18,0,.49.21.53.17.65-.56,1.48-.17,2.2-.27a3.71,3.71,0,0,1,2.13.4c.61.29,1.13-.57,2-.05.46.3,1.42,0,2.09.44s1.24-.69,1.88,0c.37-.62,1.14-.13,1.73-.32.74-.24,1.8.17,2.69.1.56,0,1.07.23,1.68,0a4.09,4.09,0,0,1,1.73-.13c.53,0,1.3.45,1.53.29a2.82,2.82,0,0,1,1.67-.3,15.59,15.59,0,0,1,1.81,0c.21,0,.38.29.6.33.61.11,1.22.65,1.87.06a62.18,62.18,0,0,0,9.58-.51l1.52-1.88c.08-.1.27-.27.26-.27-1.07-.74-.24-1.76-.63-2.63-.28-.63-.8-1.57-.28-2.16s.34-1.26.44-1.89c.06-.33-.06-.69,0-1,.17-.48.6-.92.68-1.39a7.64,7.64,0,0,0-.19-1.56c0-.61,0-1.21,0-1.82s-.28-1.25.06-1.59c.62-.62-.34-1-.07-1.52.12-.23,0-.58.2-.74.47-.38.24-.6,0-1s0-1,0-1.48c0-.31.24-.61.27-.92.06-.72-.23-1.5.82-2,.07,0,.12-.24.08-.27a1.15,1.15,0,0,1-.3-1.67c.61-.7-.3-1.16-.09-1.73s-.22-.94.42-1.3a.45.45,0,0,0,0-.52C114.53,14.61,114.22,14.3,114.8,14Z"/><path d="M67.83,31.64c-.48.3.31.46,0,.9a3,3,0,0,0-.14,2.52,6.08,6.08,0,0,0,.74,1.43c.63.77-.44,1.19-.34,1.81a1.93,1.93,0,0,0,.19.94,5.44,5.44,0,0,1,.87,3.38c0,1.44,2.07,2.58,3.93,2.32.51-.7,1.11.44,1.62,0s1.45-.2,2.18-.3c.49-.07,1.23.06,1.44-.16.63-.63,1.18.2,1.65,0a1.5,1.5,0,0,1,1.8.11.82.82,0,0,0,.67,0,.92.92,0,0,1,1.45.08c.41-.45,1-.4,1.6-.39h2.85c.86,0,1.73,0,2.59,0s1.65.05,2.42.09,1.8-.38,2.39-.05a5.65,5.65,0,0,0,2.94.34c5.44,0,10.89,0,16.33,0,.64,0,1.37-.26,2,.24a.87.87,0,0,0,.68.13,6.28,6.28,0,0,1,4.78,0,1.91,1.91,0,0,0,1,0,15.6,15.6,0,0,1,6.63,0c.26,0,.59-.18.88-.16s.66.17,1,.21a3.24,3.24,0,0,0,1,0c.61-.15,1.25-.72,1.81-.34.79.54,1.25-.26,2-.1a6.36,6.36,0,0,0,2.57,0c.77-.15,1.25.34,2,.25s1.42.2,2.07-.21a.29.29,0,0,1,.24,0c.7.6,1.45.39,2.3.2.67-.14,1.45,0,2.12-.1a8.77,8.77,0,0,0,2.58-.52c.73-.41,1.55.63,2.38,0,1.23.7,2.64.27,4,.32.45,0,.79-.65,1.51-.16.24.16,1-.17,1.48-.2.77,0,1.55,0,2.33,0s1.77-.23,2.28,0c.82.47,1.36-.23,1.95,0a2.67,2.67,0,0,0,1.91,0c.54.63,1.15-.21,1.63,0,1.6.78,3.34.19,5,.39.83-.74,1.59-.08,2.38.08a14.78,14.78,0,0,0,2.14-.21l2.56-3.22a1.15,1.15,0,0,1-.11-.29,5.94,5.94,0,0,1-.21-2.52c.32-.91-.28-1.67-.11-2.52s0-1.89.06-2.83-.55-1.76.49-2.47c-.26-.82-1.08-1.64-.05-2.48a3.17,3.17,0,0,1,0-3.55c-1-.71,0-1.38.07-2.07-1.27-.7.44-1.37,0-2.11-.2-.36.77-.84,0-1.27-.12-1.43.36-2.91-.52-4.28.84-.7-.28-1.36-.06-2.11s-.08-1.76.11-2.61c.11-.5-.85-.78-.18-1.35.49-.4-.18-1.14.55-1.65.26-.19.29-1,.06-1.12-.7-.4.11-.92-.4-1.42s-.1-1.29-.08-2A2.85,2.85,0,0,0,180.28.28a.77.77,0,0,0-.52-.07c-.58.59-1.22-.25-1.41-.07-.73.68-1.18-.15-1.73-.1-1,.09-2-.32-2.94.35-.4.29-1.24-.06-1.92.29-.36.18-1.29-.37-1.74-.21a14.25,14.25,0,0,1-4.21.37c-.52,0-1.24.4-1.5.25a2.08,2.08,0,0,0-1.68-.22c-.79.3-1.76.64-2.35.3-.91-.52-1.46.44-2.23.08a3.32,3.32,0,0,0-1.36-.33c-.43,0-.88.3-1.31.29s-1.22-.43-1.29-.35c-.72.78-1.69,0-2.56.29a4,4,0,0,1-3.18-.23,2.27,2.27,0,0,0-1.36.16A1.53,1.53,0,0,1,145.38,1c-.16-.11-.58-.21-.66-.14-1,.8-2.3.24-3.44.37a2.94,2.94,0,0,1-1.7-.23c-.37-.18-1.16.23-1.76.23s-1.54-.44-2-.24a1.79,1.79,0,0,1-2-.12.86.86,0,0,0-.66.12c-.57.51-1.47,0-1.91.3-.77.54-1.28-.26-1.95-.06s-1.39.47-1.78.29c-1.78-.84-3.93.4-5.61-.67-.64.69-1.61.45-2.37.36s-1.58.64-2.4.1c-.26.75-.81-.25-1.34.15-.37.28-1.27.19-1.94.18-.5,0-1.26-.35-1.47-.19-.8.61-1.17-.3-1.77-.2s-1,.17-1.45.2c-.81.06-1.62.09-2.44.1-.18,0-.49-.21-.53-.17-.65.56-1.47.17-2.2.27a3.68,3.68,0,0,1-2.12-.4c-.61-.29-1.14.57-2,.05-.46-.3-1.43,0-2.09-.44s-1.25.69-1.89,0c-.37.62-1.13.13-1.73.32s-1.79-.17-2.69-.1c-.56,0-1.07-.23-1.68,0a4.09,4.09,0,0,1-1.73.13c-.53,0-1.3-.45-1.52-.29a2.85,2.85,0,0,1-1.68.3,15.61,15.61,0,0,1-1.81,0c-.21,0-.38-.29-.6-.33C81.85.78,81.24.24,80.59.83A62.05,62.05,0,0,0,71,1.34L69.49,3.22c-.08.1-.27.27-.26.27,1.07.74.24,1.76.63,2.64.28.63.8,1.56.28,2.15s-.34,1.26-.44,1.89c0,.33.07.69,0,1-.16.48-.6.92-.67,1.39a7,7,0,0,0,.18,1.56c0,.61,0,1.22,0,1.82s.28,1.25-.06,1.59c-.62.62.35,1,.07,1.52-.12.23,0,.58-.2.74-.47.38-.24.6,0,1s0,1,0,1.48c0,.31-.24.61-.27.92-.06.72.23,1.5-.81,2-.08,0-.13.24-.08.27a1.15,1.15,0,0,1,.29,1.67c-.6.7.3,1.16.09,1.73s.22.94-.42,1.3a.45.45,0,0,0,0,.52C68.1,31,68.41,31.29,67.83,31.64Z"/><path d="M249,32.67c-.1-1.28.37-2.67-.15-3.81a6.61,6.61,0,0,1-.33-3.11c0-.43,0-.84,0-1.28a5.64,5.64,0,0,1,.33-3.11c.47-.9.32-2.07.63-3.1-.79-.44-.48-1.08-.51-1.66s.68-1,0-1.48a1.92,1.92,0,0,0,.42-2.42c-.53-.77.95-1.64-.41-2.19,0,0,.08-.36.18-.53a2.16,2.16,0,0,0-.06-2.61.67.67,0,0,1-.06-.54c.11-.38.53-1,.37-1.1-.75-.51.46-1,0-1.28-.92-.54.53-.88.06-1.32a7.3,7.3,0,0,0,0-.81c0-.53-.43-.87-1.1-.9-2-.09-4.05.21-6-.39-.26-.07-.69.3-1.07.37-.83.15-.43-.68-.84-.75-1.21-.17-2.53.14-3.66-.46-.54.61-1,.43-1.67,0A1.69,1.69,0,0,0,234,.39a1.27,1.27,0,0,1-1.11,0c-.45-.13-1-.11-1.53-.21a2.33,2.33,0,0,0-1.69.21c-.37.21-1.08-.65-1.59.08C227,.16,226,.74,224.87.63,223.6.5,222.09.9,221,.51s-1.94.72-2.52-.32a14.64,14.64,0,0,1-7.35,0,.62.62,0,0,0-.46.09c-.44.5-1.1.32-1.66.29-1.08,0-2.16,0-3.25-.14s-2.07.26-3.13-.21c-.34-.15-1.17.29-1.43.13A3.48,3.48,0,0,0,198.63.2c-1.48.2-3.07-.47-4.47.38-.11.07-.45-.09-.68-.14-.39-.08-.94-.33-1.14-.22a3,3,0,0,1-2.6.31c-.81-.49-1.77.6-2.28-.33-.72.77-1.37-.35-2.18,0-.41.15-1,.65-1.65.06-.44-.38-1.13.54-1.68.11-.83-.65-1,.47-1.81.32A16,16,0,0,0,177,.6h-3.37a12.12,12.12,0,0,1-3.08,0c-1.09-.31-2.05.43-3,0s-2,0-2.94.1a4.11,4.11,0,0,1-2,.11c-.63-.2-1.57.3-2.27.17A8.32,8.32,0,0,0,158,1c-2.23.17-4.49.07-6.74,0-.72,0-2.36.64-2.42,1.17-.21,1.86-1.26,3.62-1.09,5.53,0,.42.66.76.09,1.32-.34.33.07,1.08-.18,1.54s0,.46,0,.74a23,23,0,0,1,.12,3.22c-.83.25.27.86-.36,1.17-.82.41-.41,1-.36,1.57a7.5,7.5,0,0,1,.18,1.14c0,.44-.27.87-.29,1.31s.4.8.24.95c-.6.56-.67,1,0,1.58.2.18.12.63,0,.92-.84,2.16-.41,4.35-.2,6.51a2.75,2.75,0,0,1,0,1.4c-.18.46.36,1.08.22,1.57a3.19,3.19,0,0,0,0,2,6.75,6.75,0,0,1,0,2v1.83a15.13,15.13,0,0,0,0,2,10.07,10.07,0,0,0,.5,1.65c-1.32.32.39,1.15-.43,1.56-.12,1.27,1,1.87,2.52,1.72a42.39,42.39,0,0,1,6.57-.08c.61,0,1.25.4,1.76,0,.84-.67,1.11.67,1.79.25,1.22-.76,2.63-.27,3.95-.37.93-.08,2.08.21,2.78-.12a4.31,4.31,0,0,1,2.68-.24,7.54,7.54,0,0,0,2.19-.07c.8-.06,1.69.25,2.42-.36.16-.14.78,0,1.18.1s.79.3.86.24c.86-.82,1.65-.17,2.46,0,.43.11,1.08.41,1.26.28a2,2,0,0,1,2.1-.13c.78.44,1.07-.38,1.76-.19a9.92,9.92,0,0,0,2.32,0c.77,0,1.55,0,2.33,0a12,12,0,0,1,2.5.18c.78.21,1.24-.39,2-.23.54.11,1.39-.47,1.81-.3a5,5,0,0,0,1.9.35,8.82,8.82,0,0,1,2.06,0,2.37,2.37,0,0,0,1.68,0c.3-.12.85.45,1.33,0,.31.6,1.21-.41,1.47.33.53-.13,1.05-.29,1.6-.38a2.29,2.29,0,0,1,.69.14,6.74,6.74,0,0,0,.85.2c.49-.88,1.28.18,1.84-.18.77-.5,1.36.07,2,.22.32.07.85.13,1,0,.7-.6,1.3,0,1.93,0,.81,0,1.72-.33,2.44.28a1,1,0,0,0,.68,0c2.23-.74,4.56-.14,6.82-.34.73.55,1.61-.24,2.13,0,.94.51,1.65.06,2.46,0a11.36,11.36,0,0,1,3.68.37,10.19,10.19,0,0,0,2.07,0h2.07c.7,0,1.39,0,2.08,0a12.37,12.37,0,0,1,1.73.19,4.43,4.43,0,0,0,1.56-.17,9.48,9.48,0,0,1,2.32,0,5.13,5.13,0,0,1,1.76.57c.59.33,1.13-.72,1.64,0,.8-.14,1.82,0,2.27-.67a1.33,1.33,0,0,0,.1-1.44,1.93,1.93,0,0,1-.32-1.33,5.12,5.12,0,0,1,0-1.41c.09-.49.43-1,.48-1.46.08-.87-.34-1.89.12-2.59s-.9-1.62.41-2.18c0,0,0-.28-.09-.35C248.52,34.15,249,33.37,249,32.67Z"/></g><g id="レイヤー_2" data-name="レイヤー 2"><g id="Ek4BEV"><path class="cls-1" d="M147,27.5,146.59,26c.73-.3-.55-1,.26-1.37.19-.1.1-.86.06-1.3a1.4,1.4,0,0,1,.57-1.32c.42-.37.7-.57.88.22,0,.23.61.41,1,.49s.67.18.74-.4c0-.28.4-.52.7-.87-.19-.15-.4-.33-.63-.49a1.42,1.42,0,0,0-.35-.18c-.42.64-1.11-.4-1.52.24-.48-.57-.95.15-1.44,0s-.46.17-.65.51a8.4,8.4,0,0,0-1,3.2,19.85,19.85,0,0,0-.32,2.79,1.57,1.57,0,0,1-.35.87c0,.08-.45-.13-.57,0s-.16.37-.31.82a4,4,0,0,1-.46-1.22c0-.93-.24-1.89.29-2.8.2-.35,0-.9,0-1.36,0-.26.06-.66.22-.74.81-.4.13-1.34.72-1.79-.08-.08-.17-.24-.25-.23a.91.91,0,0,1-.89-.37c-.34-.47-.21-.83.41-1,.15-.05.42-.08.43-.16.07-.36,0-.68.53-.26.25.19.75.07,1.28.09-.16-.84-.29-1.57-.44-2.29a3.65,3.65,0,0,0-1.42-.22c-.22.17-.28.45-.76.19s-.56-.41-.54-.83,0-.56,0-.84c.47-.39,1.21.16,1.56-.49.31.74.8.06,1.2.14s1.07.18,1.87.3c-.23-.49-.36-.74-.48-1s-.35-.77-.52-1.16c-.39-.94-.17-1.43.75-1.72.25-.09.46.13.59.64a7.38,7.38,0,0,0,1.2,2.61,2.07,2.07,0,0,0,2.16,1c.4-.06.83.51,1.24-.1,0-.08.7,1.2.43,1.47a2.13,2.13,0,0,1-1,.52c-.15.05-.38-.16-.64-.29l-.56,1.66h3.23a8.71,8.71,0,0,1,0,1,.76.76,0,0,1-.78.72c-.4,0-.81,0-1.21,0-.6.05-.71.36-.37.91a2,2,0,0,1,.29.74c.08.52.35.54.67.24s.49.34.82.17a2.56,2.56,0,0,1,.89-.34c.68-.07,1,.21,1.08.76s-.29.86-.9.95c-.86.13-1.72.29-2.79.47.4.47.68.8,1,1.11,0,0,.26,0,.35-.1.61-.44,1,.22,1.53.29.07,0,.09.29.14.44l-.31.88a2.44,2.44,0,0,1-1.58.37s-.15.26-.17.41.12.24.18.24c.75,0,1.5,0,2.25,0a1.76,1.76,0,0,1,.75.25c.25.16.43.42.15.7s-.69.82-1.41.78a4,4,0,0,0-2.63.3c-.13.09-.42-.05-.63-.1s-.52-.25-.57-.19c-.8.87-1.56-.09-2.33-.06-.08,0-.25-.33-.24-.5a.63.63,0,0,1,.27-.49,7.45,7.45,0,0,0,1.21-.39c.33-.21.47-.26.8,0,.11.09.55-.25.79-.37-.46-1.17-1.6-.92-2.42-1.27C148.08,26.65,147.58,27.28,147,27.5Zm1.17-8.2c.51-.49,1.11-.9.87-1.72a.84.84,0,0,0-.8-.7c-.44,0-.44.27-.64.52-.41.5-.28.74.11,1.1A3.46,3.46,0,0,1,148.12,19.3Zm.25,6.59a14.52,14.52,0,0,0,1.84-.46c.13-.05.16-.5.14-.76,0-.07-.46-.22-.51-.16-.25.26-.38.22-.65,0s-.52-.09-.55.33A8.16,8.16,0,0,1,148.37,25.89Z"/><path class="cls-1" d="M162.12,22.39a3.94,3.94,0,0,0,1.36,0c.46-.2.68.61,1.17.14.15-.15.61,0,.93.05a2.46,2.46,0,0,1,1.95,1.84c0,.12-.13.28-.09.36a3.17,3.17,0,0,1,.21,3.41c.2,1.12-.53,1.59-1.39,2-.2.08-.51.23-.6.15-.52-.43-1,.06-1.46,0s-1,0-1.55,0a1.8,1.8,0,0,1-1.08-.32c-.84-.53-1.07-.77-.69-1.66a1.21,1.21,0,0,0,0-.86,4.47,4.47,0,0,1,.05-2.27c.2-.59-.37-.45-.38-.7-.36.57-.75,1.15-1.09,1.76-.08.15.13.44.05.59a1.84,1.84,0,0,1-.6.61.88.88,0,0,1-1.28-.59c0-.28-.13-.67,0-.84a4,4,0,0,0,.72-1.61c.11-.41.8-.6.7-1.22.75-.06.7-.87,1.18-1.22s-.2-1-.42-.82c-.38.37-.51-.26-.79,0-.58.53-1,.14-1.41-.3s-.43-1,.34-1.17c.44-.09.9-.43,1.45-.06.28.18.78,0,1.32,0-.12-.78-.19-1.52-.37-2.23a.93.93,0,0,0-.63-.5,2.29,2.29,0,0,0-1.35,0c-.84.45-1.32-.36-2-.43a1.2,1.2,0,0,1,0-.56c0-.09.14-.23.23-.23.91-.06,1.75-.87,2.66-.41.36.19.8-.33,1,.21a.67.67,0,0,0,.42-.15c.08-.12,0-.33,0-.49a.87.87,0,0,1,1.72,0,6.06,6.06,0,0,1,0,.64c.36,0,.69,0,1,0a1.12,1.12,0,0,0,1.28-.67,1.67,1.67,0,0,1,2.2-.95c0,.17.09.49,0,.58-.81.74-.69,1.7-.67,2.71-1.67-.07-1.86,1.49-2.92,2.45a8.34,8.34,0,0,0,2.21,0c.79-.24,1.43.72,2.18.12a3.82,3.82,0,0,1,.9.84c.08.14-.24.6-.49.78a2.51,2.51,0,0,1-1.91.34c-.45-.06-.77-.5-1.36-.2-.34.17-.88,0-1.31-.13C162.75,21.15,162.41,21.62,162.12,22.39Zm.52-5.29c-.27.17-.51.28-.5.32a6.65,6.65,0,0,0,.33.84c.11-.08.33-.16.32-.24,0-.28-.08-.55-.32.4v-.16a.9.9,0,0,0-.27.11s0,.13.06.2S162.4,18.47,162.64,17.1Zm3.18,9.76h-2.65c-.5,0-.59.1-.55.72a1.69,1.69,0,0,0,.4.89c.41-.4.69-.27,1,.1.3-.3.59-.58,1-.08a7.54,7.54,0,0,0,1.17-.7C166.22,27.72,166,27.27,165.82,26.86Zm-.25-1.72c0-.69-.3-1-.76-1a1.79,1.79,0,0,0-1.53.28c-.43-.47-.46-.19-.47.23s.05.52.44.51C164,25.13,164.79,25.14,165.57,25.14Z"/><path class="cls-1" d="M134.78,26.07V23.85a2.67,2.67,0,0,0-1.39.08c-.39.11-.94-.25-1.4-.43-.09,0-.19-.29-.15-.35.34-.49.72-1,1.08-1.44.28.86.93-.24,1.34.25.17.2.73,0,.53-.23-.43-.53,0-.89.07-1.29.09-.65-.34-.92-.68-1.28s-.66-.23-1.07-.08a2,2,0,0,1-1.09,0c-1.22-.31-1.1-.18-1.73.81a7.13,7.13,0,0,0-.69,3,9.42,9.42,0,0,0-.29,2.19,3.7,3.7,0,0,1-.65.05c-.93-.07-1.34-.46-1.06-1.26.45-1.29.35-2.67.85-3.94.14-.34-.43-.79.14-1.23a1.4,1.4,0,0,0,.5-1.12,3.68,3.68,0,0,1,.59-1.9,6.38,6.38,0,0,0,.32-2.1,2.33,2.33,0,0,1,1.78-1.51c.57,0,.78.85.38,1.46L131,16.73v.9a3.43,3.43,0,0,1,2.82-.2c.1.05.4-.1.46-.23a1.74,1.74,0,0,0,.17-.78c0-1.57.07-1.8,1.21-2.27a2.64,2.64,0,0,1,.81,0c0,.58.23,1.13-.12,1.74-.19.34.57.87-.16,1.18.2.14.54.43.58.4.51-.46.82.41,1.35.15a3.75,3.75,0,0,1,1.44,0v1.72c-.86,0-1.71,0-2.56,0-.57,0-1,.53-.78,1a1.25,1.25,0,0,1-.23,1.61c.65.1,1.2,0,1.48.27.47.39.71-.11,1-.07a2.25,2.25,0,0,1,1.07.69c.31.31,0,1.26-.39,1.26-.7,0-1.48.36-2.09-.3a1.83,1.83,0,0,0,0,2.41c.93-.15,2,.27,2.9-.33a.48.48,0,0,1,.76.36c.06.34.38.63-.1.89-.67.37-1.21,1.28-2.13.49-.8.79-2-.2-2.83.62-.11.12-.56,0-.78-.11a1.68,1.68,0,0,0-1.74-.05c-.43.24-.91-.63-1.21.14a5.06,5.06,0,0,1-.73-.65c-.37-.45-.25-.75.36-1,.23-.12.48-.23.72-.33.42-.16.63.69,1.19.19C133.76,26.12,134.31,26.17,134.78,26.07Z"/></g><path class="cls-1" d="M86,23.88a3.83,3.83,0,0,0-.53-.29c-.71-.2-.53-.75-.46-1.21.11-.69-.22-1.1-.8-.94l-1.48.44c0,1.12,0,2.31,0,3.5a2.24,2.24,0,0,0,.78,1.74c.45.39,1,.74,1.45,1.09,0,0,.17-.17.23-.16a4.08,4.08,0,0,0,2.67.05A5.36,5.36,0,0,1,90,27.94c.17,0,.39.44.5.71a.5.5,0,0,1-.21.46c-1.47.51-2.9,1.4-4.55.61-3.07-.32-3-1-4.07-2.49a2.52,2.52,0,0,0-.12-.29c-.33-.47-.53-.48-1.07-.08-.13.1-.23.29-.37.35a1.1,1.1,0,0,1-.51,0c-.94-.14-1.84.29-2.78.16-.19,0-.48-.15-.57-.06-.31.28-.52.33-.87,0a1.11,1.11,0,0,0-.79-.13c-1.1.21-1.16.18-1.21-.86,0-.23,0-.46,0-.81h2.43L75,20.8a23,23,0,0,1-2.23-.62c-.27-.1-.46-.28-.72,0s-.4.11-.34-.17a13.1,13.1,0,0,1,.43-1.41c.93.21,1.85-.24,2.71.25.38.22.29-.15.29-.3,0-.53.25-1,.73-.88.32.09,1,.06,1,.81s.69.78,1.16.83a4.45,4.45,0,0,1,2.38.64.85.85,0,0,0,1.25-.65,4.41,4.41,0,0,1,.71-2c.25-.51.86-.58,1.19-1,.05-.06.6.27,1,.45-.33.65-.61,1.28-1,1.87-.18.3-.2.51.07.71s0,.74.56.66,1.17.19,1.54-.42.54-1,.87-1.53c.18-.25.42-.65.81-.41s.6.38.51.81c0,.17.06.4,0,.51-.48.63-.28,1.06.29,1.51A1.84,1.84,0,0,1,89,22c0,.54.57,1.07-.05,1.61.17.64-.37,1.18-.31,1.74.08.81-.43,1.07-.88,1.54s-.74-.31-1.11-.1c0-.31-.13-.79,0-.9.64-.45.54-1.07.55-1.68s0-1.14,0-1.7c0-.16.47-.29.1-.46s-.54.05-.5.44C87,23.25,86.21,23.33,86,23.88ZM80.76,25.5c.7-.71-.19-1.22.19-1.93.3-.56.06-1.42.06-2.2a13,13,0,0,0-1.86-.32c-.59,0-1.18-.86-1.78,0-.28-.31-.52-.52-.51.15a10.94,10.94,0,0,0,0,1.72,15.28,15.28,0,0,0,.56,1.65c.27.93.26.95.81,1C79.12,25.51,80,25.5,80.76,25.5Zm.55.47-.13-.13a.77.77,0,0,0-.1.23s.06.08.1.12Z"/><path class="cls-1" d="M191.66,27.27c.24.7,0,1.13-.48,1.37a15,15,0,0,1-1.51.54c-.08,0-.22.09-.23.07-.48-.76-1.62-.49-2-1.33-.34-.66-.7-1.31-1.05-2a2.67,2.67,0,0,0-.82,2.15c0,.53-1.12,1.28-1.63,1.16a1.67,1.67,0,0,1-.33-1.22c.27-.52.87-1.09.78-1.52-.14-.63.2-.8.57-1.22-.51.21-.73-.73-1.25-.12l-1-.91c-.38-.35-.77-.69-.62-1.29a.56.56,0,0,0,0-.34c-.46-1.24-.44-1.24-.06-3.06.07-.32-.37-.82-.24-1a1.79,1.79,0,0,0,.31-1.08,3.36,3.36,0,0,1,.75-1.79c.11-.11.29-.28.27-.39-.12-.6.73-.23.77-.89s.59.17,1,0,.88,0,1.38-.14c.31-.1.83.4,1.25.63a7.78,7.78,0,0,1,1.38.8,10.51,10.51,0,0,1,.88,1.17c.13.14.39.17.58.25-.07.16-.2.33-.19.49a2.53,2.53,0,0,0,.21.76c.08.2.28.36.33.55a1.46,1.46,0,0,1,0,.69c0,.2-.22.37-.27.57a1.63,1.63,0,0,0-.06.66,6.11,6.11,0,0,1-.58,3.43,3.3,3.3,0,0,1-1,1.28c-.58.47-.67.88-.14,1.19s1.21.23,1.53.86C190.56,27.11,191.1,27.32,191.66,27.27Zm-2.87-9.41c-.27-.11-.39-.18-.51-.21a1.71,1.71,0,0,0-.32,0c.08.11.14.29.24.33s.29-.05-.31-.32c0-.92-.86-1.12-1.38-1.6s-1.14.14-1.51-.45c-.27.41-.9.56-.83,1.35C185.55,16.56,186.58,17.89,188.79,17.86Zm.23,1.85a5.94,5.94,0,0,1-1.36,0c-.41-.1-.75-.4-1.15-.54s-.54.16-.89-.1a2.36,2.36,0,0,0-1.73-.37c-.25,0-.27,0-.28.31s-.11.82.07,1a1.82,1.82,0,0,0,1,.36c.81.14,1.63.22,2.44.36.42.07.95.44,1.2.29S188.76,20.26,189,19.71Zm-.72,4.11c0-.28,0-.5,0-.71s-.08-.26-.15-.27c-1.32-.25-2.59-.68-3.88-1a.62.62,0,0,0-.77.67c.05.37.41.69.63,1,.53-.6,1.18.36,1.73-.14.07-.07.32-.09.35,0C186.75,24.08,187.5,23.81,188.3,23.82Z"/><path class="cls-1" d="M108.82,17.59h1.77a1.92,1.92,0,0,0,.21.58c.18.23.43.43.17.71a1.42,1.42,0,0,1-.68.41,7.23,7.23,0,0,1-1.24,0c.24.47.6.88.59,1.28,0,.57.39.64.63.95s.11.95.15,1.55l2-1.55,1.08.76c-.33.9-1.3,1.18-1.54,2.06-.09.32-.27.48,0,.86a7.54,7.54,0,0,0,1.23,1.9,4.22,4.22,0,0,1,.61,1c-.41.77-1.21-.06-1.73.36,0,0-.29-.09-.29-.11.16-.63-.33-.92-.69-1.27-.72-.72-.72-.7-1.67-.11-.4.25-.87.39-1.29.61a4.27,4.27,0,0,1-2.45.69c-.54,0-1,.26-1.59.32a11.44,11.44,0,0,1-1.55,0c-.22,0-.53.05-.65-.06a2,2,0,0,1-.47-.83c-.11-.34.09-.48.46-.5.19,0,.38-.33.54-.31,1.32.21,2.54-.4,3.83-.36a5.35,5.35,0,0,0,1.77-.3c.47-.15,1-.25.95-.73s.84-1.07.14-1.84a5.94,5.94,0,0,1-1.33-3c-.18-1.15-.59-1.57-1.79-1.82a33.85,33.85,0,0,0-6.31-.92c-.16,0-.73,1-.66-.07,0-.48-.82-.76-.17-1.34.43-.37.85-.19,1.28-.27a3.21,3.21,0,0,1,1.82.06c.4.33.76.5,1.18.11.27-.25.47-.19.72,0a1.88,1.88,0,0,0,2.7,0,.78.78,0,0,1,1.18.07C108.08,16.87,108.45,17.23,108.82,17.59Z"/><path class="cls-1" d="M65.27,29.24c-.22-.35-.35-.61-.52-.83-.42-.54-.45-.83,0-1.3.19-.21.41-.4.61-.61.51-.53.48-1.15.63-2.11a4.35,4.35,0,0,0-.47-2.31c-.25-.68-.66-.83-1.35-.62a4.32,4.32,0,0,1-1.64,3.42c-.85.7-1.49,1.64-2.75,1.72-.22,0-.34.24-.63,0-.53-.46-1.44-.21-1.87-.88a4.32,4.32,0,0,1-.5-1.85c0-.31-.31-.84-.24-.89.66-.41-.54-1.18.33-1.49-.09-.68.62-.47.89-.8a5.05,5.05,0,0,1,3.19-2.18l1.57.06a4.73,4.73,0,0,0,.84,0,1.14,1.14,0,0,1,1,.44,4.39,4.39,0,0,0,1,.93c.41.22,1,.2,1.36.44s-.09.88.49,1.16c.81.4.73,1.21.67,1.94,0,.29-.61.54-.24.84.52.4-.13.51-.11.8C67.66,26.81,66.74,27.94,65.27,29.24Zm-5.91-4.32c2.26-1.12,3.38-2.58,2.89-4.93-1.09.06-1.79.82-2.73,1.08-.77.21-1.06,1-1.3,1.75s.17,1.06.63,1.44A3.63,3.63,0,0,1,59.36,24.92Z"/><path class="cls-1" d="M195.88,21c.83.7,2,1,2.68,1.89a3.2,3.2,0,0,1,.95,1.67l.35,2.44c-.34.6-.09,1.45-1.06,1.81-.62.23-1,1.08-1.81,1l-2.33-.15a5,5,0,0,1-.8-1.38,4.21,4.21,0,0,1,.35-2.75c.25-.48,1-.53,1.53-.62a13.75,13.75,0,0,1,2.19,0c-.77-.7-.64-1.65-1.76-1.77-.64-.07-1.21-.65-1.82-1-.95-.51-.93-.49-.42-1.32.22-.35.28-.81.51-1.15s.68-.63.95-1c.14-.2.24-.68.14-.75s-.74-.3-.84-.19c-.4.44-.61.09-.75-.14a1,1,0,0,1,.2-1.3c.71-.42,1.76-.52,2.16-.1a9.7,9.7,0,0,1,1.3,1.7c.11.19-.22.59-.22.9C197.38,19.83,196.46,20.24,195.88,21Zm-.67,7.22a8.91,8.91,0,0,1,1.5-.19.82.82,0,0,0,.89-.6c.12-.43-.25-.68-.67-.79a1.26,1.26,0,0,0-.93-.05C195.08,26.86,195.23,27.49,195.21,28.17Z"/><path class="cls-1" d="M122.61,28.93a2.45,2.45,0,0,1,.21-2.19,3.4,3.4,0,0,0,.34-2,2.11,2.11,0,0,0-1.14-2c-.5-.27-.78-.2-.93.26a3,3,0,0,0-.32,1.23,1.82,1.82,0,0,1-1.24,1.85c-.75.34-1.69.84-2.62.12-.44-.35-1-.49-1.22-1.11a1.14,1.14,0,0,1,0-.58,4.65,4.65,0,0,0,.2-.94,2.45,2.45,0,0,1,1.63-2.52c1.2-.52,2.48-1.25,3.87-.37,2-.33,2.39,1.51,3.41,2.5a9.59,9.59,0,0,1,.13,1.75,1.72,1.72,0,0,0,0,.5c.19,1.7-.85,2.66-2.1,3.49C122.76,29,122.68,28.93,122.61,28.93Zm-3-6.75c0,.12,0,0,0-.06a.36.36,0,0,0-.31-.05,12.58,12.58,0,0,0-1.21.79,1.82,1.82,0,0,0-.69.72c-.08.24.22.56.26.86.06.57.52.42.75.35.41-.14.39-.85,1-.84Z"/><path class="cls-1" d="M92.35,25.32a3.83,3.83,0,0,1,1.81-.53c.18,0,.63.24.55-.23,0-.18,0-.41,0-.48a10.79,10.79,0,0,1-.21-2.39c0-.36-.29-.94-.85-.33-.37-.55-1-.35-1.42-.31a3.23,3.23,0,0,1-1.85-.53,1.42,1.42,0,0,0,.12-.13c.77-1.27.85-1.3,2.36-.85,1,.3,1.43.05,1.66-.89,0-.16,0-.35,0-.51.11-.66.41-.95,1-.89s.82.34.49.93c0,.06.22.24.26.39.1.35,0,.89.25,1.05a3,3,0,0,0,1.38.36c.68.06,1.37,0,2.12,0v1.32c-.89.12-1.85.27-2.82.39-.21,0-.29-.54-.64-.12s-.38.47-.1.85a1.24,1.24,0,0,1,0,1.39.66.66,0,0,0,.49,1,17.23,17.23,0,0,0,2-.08c.45,0,1.08.34,1,.7,0,0-.1.07-.11.12-.09.47-.52.59-.81.86s-.66.18-1,.18c-1.1,0-2.27-.4-3.31.29a.35.35,0,0,1-.33,0C93.66,26.36,93,25.86,92.35,25.32Z"/><path class="cls-1" d="M106.3,22.63A1.64,1.64,0,0,1,105,24.51a4.9,4.9,0,0,0-.83.47,1.21,1.21,0,0,1-1.65-.25,7.19,7.19,0,0,0-.73-.73c-.62-.56-1.12-1.11-.53-2,.11-.16-.17-.53-.19-.82,0-.78.07-.92.84-1.16.3-.1.72-.41.87-.31.51.34,1.1.17,1.57.37s.78.63,1.34.33c0,0,.18.1.2.17C106,21.25,106.16,21.94,106.3,22.63Zm-3.18-.93c0,.4,0,.72,0,1a.43.43,0,0,0,.1.28c.14.14.35.36.47.33.28-.08.76-.31.74-.44a2.26,2.26,0,0,0-.44-1.13C103.9,21.64,103.5,21.73,103.12,21.7Z"/><path class="cls-1" d="M50.26,21.66c0-.48,0-.88,0-1.27a2,2,0,0,0-2-2.1,1.07,1.07,0,0,1-.9-.35c-.31-.37-.55.67-1,.1-.06-.08-.54.17-.83.23a1.1,1.1,0,0,1-.51,0c-.28-.05-.53-.92-.33-1.12s.32-.33.48-.49c.76-.75.76-.76,1.91-.36.15.05.29.26.41.25a5,5,0,0,1,3.33,1.12c.27.17.88,0,.89.79s.55,1.47.07,2.35C51.42,21.42,51.18,21.85,50.26,21.66Z"/><path class="cls-1" d="M45,26.48a1.68,1.68,0,0,1,2.15-.57c.7.2,1.37,0,2.07.22a10.32,10.32,0,0,0,2.73.06,12.5,12.5,0,0,1,1.37,0,.77.77,0,0,1,.73.77c0,.39-.14.48-.51.66a3.25,3.25,0,0,1-1.09.28,28.67,28.67,0,0,1-5.23-.4A7,7,0,0,1,45,26.48Z"/><path class="cls-1" d="M114,20c-.46,0-.91.07-.93-.58-1-.63-.81-1.83-1.28-2.72-.16-.32.18-.91.34-1.36a.49.49,0,0,1,.42-.14c.33.35.62.74.92,1.12.67.84.81,2,1.64,2.74.2.19-.12.87-.43.93A3.86,3.86,0,0,1,114,20Z"/><path class="cls-1" d="M179.89,17.05l-1,1c-.28-.87-.9.17-1.35-.26a2.15,2.15,0,0,0-1.25-.26c-.33,0-.77.28-1,.15a4.63,4.63,0,0,0-2.43-.31,2.51,2.51,0,0,1,.31.65,2.48,2.48,0,0,1,0,.86,1.63,1.63,0,0,0,.36,1.23,1.37,1.37,0,0,0,.41.34c.41-.44,1-.23,1.43-.35a8.45,8.45,0,0,0,1.44-.66c.35.55.93.25,1.47.38v1.71c-1-.54-1.77.14-2.66.43.62.77,1.25,1.52,1.86,2.28.34.44.13,1.54-.37,1.72a.78.78,0,0,1-1-.37c-.39-1-1.36-1.49-1.92-2.3-1.12.1-1.07,1.19-1.59,1.78-.08.09,0,.39.1.57.32.72.71.9,2,1.08a3.23,3.23,0,0,1,.84.4,2,2,0,0,0,.59.23c.73.08,1.23.35,1.2.69a1.6,1.6,0,0,1-1.53,1c-.31,0-.59-.26-.9-.32-.69-.15-1.4-.23-2.09-.36-1-.18-1.16-1.31-2-1.62a.91.91,0,0,1,0-.66c.53-1.05.3-2.36,1.21-3.31.22-.22.12-.83,0-1.24a6,6,0,0,0-.57-1.48,2.46,2.46,0,0,1-.05-2.5c.21-.41,0-.64-.48-.53-.09,0-.16.15-.25.23-.64-.88-2.13-.23-2.58-1.49.93-.79,2.13-.4,3.28-.52.15-.63.27-1.26.46-1.88A1,1,0,0,1,173,12.9a.88.88,0,0,1,.57.84c0,1.85.05,1.78,1.83,1.93a17.87,17.87,0,0,1,2.7.52C179.28,16.49,179.38,16.45,179.89,17.05Z"/><path class="cls-1" d="M173.72,12.91s.12.1.11.11-.1.14-.15.21l-.16-.16Z"/></g></svg>