<svg xmlns="http://www.w3.org/2000/svg" viewBox="0 0 249.63 46.21"><defs><style>.cls-1{fill:#fff;}</style></defs><g id="レイヤー_1" data-name="レイヤー 1"><path d="M144.79,13.92c.61-.29-.38-.45,0-.9a2.44,2.44,0,0,0,.18-2.51A5.56,5.56,0,0,0,144,9.08c-.79-.78.56-1.2.44-1.81-.06-.32,0-.69-.24-.95A4.6,4.6,0,0,1,143.07,3c0-1.44-2.61-2.59-5-2.32-.64.7-1.39-.45-2.05.05s-1.82.19-2.74.29c-.62.07-1.55,0-1.82.16-.79.64-1.49-.2-2.08,0a2.31,2.31,0,0,1-2.27-.11,1.34,1.34,0,0,0-.84,0A1.36,1.36,0,0,1,124.47,1a2.87,2.87,0,0,1-2,.4c-1.19,0-2.39,0-3.59,0s-2.19,0-3.27,0-2.09,0-3-.1-2.28.39-3,.06a8.53,8.53,0,0,0-3.7-.34C99,1,92.09,1,85.22,1c-.81,0-1.73.27-2.46-.24a1.45,1.45,0,0,0-.85-.13,9.78,9.78,0,0,1-6,0,3.39,3.39,0,0,0-1.26,0,24.45,24.45,0,0,1-8.36,0c-.33-.05-.74.18-1.11.17S64.32.62,63.89.58a4.71,4.71,0,0,0-1.3,0c-.77.14-1.58.72-2.29.33-1-.54-1.57.27-2.48.1a10.06,10.06,0,0,0-3.24,0C53.61,1.17,53,.67,52,.77s-1.79-.2-2.61.2a.52.52,0,0,1-.3,0C48.25.34,47.3.56,46.23.74c-.84.15-1.83,0-2.68.1a13.14,13.14,0,0,0-3.25.53c-.92.4-2-.64-3,0C35.74.64,34,1.07,32.3,1c-.57,0-1,.66-1.9.17-.3-.16-1.22.17-1.86.19-1,0-2,0-2.94,0a9.4,9.4,0,0,1-2.89,0c-1-.46-1.71.23-2.45,0a4.12,4.12,0,0,0-2.41,0c-.68-.62-1.45.22-2.06,0-2-.77-4.2-.19-6.29-.38-1.05.73-2,.07-3-.08a21.4,21.4,0,0,0-2.7.21L.57,4.33a.92.92,0,0,1,.14.28c.13.85.6,1.76.26,2.53s.36,1.66.15,2.52,0,1.89-.09,2.83S1.73,14.24.41,15c.34.83,1.37,1.64.07,2.48A2.63,2.63,0,0,1,.49,21c1.29.71.06,1.39-.08,2.08,1.6.69-.55,1.36,0,2.1.25.36-1,.85,0,1.27.14,1.44-.45,2.91.65,4.29-1,.7.36,1.36.08,2.1s.1,1.77-.14,2.62c-.14.5,1.08.78.22,1.34-.61.4.23,1.14-.68,1.66-.34.19-.37,1-.08,1.12.89.4-.14.91.5,1.41s.13,1.3.1,2c0,1,.8,1.71,1.9,2.34a1.06,1.06,0,0,0,.66.07c.73-.58,1.55.25,1.78.08.93-.68,1.5.15,2.18.09,1.23-.09,2.52.32,3.71-.35.51-.28,1.57.06,2.42-.28.46-.19,1.62.37,2.19.21a22.64,22.64,0,0,1,5.32-.38c.66,0,1.56-.4,1.9-.24a3.19,3.19,0,0,0,2.11.21c1-.29,2.22-.64,3-.3,1.15.52,1.85-.44,2.81-.08a5.16,5.16,0,0,0,1.72.34c.55,0,1.11-.31,1.65-.3s1.54.43,1.63.35c.91-.78,2.13,0,3.23-.29a6.39,6.39,0,0,1,4,.23A3.33,3.33,0,0,0,45,44.48a2.43,2.43,0,0,1,2,.09,1.63,1.63,0,0,0,.84.15c1.31-.8,2.9-.25,4.34-.37a4.59,4.59,0,0,1,2.14.23c.47.18,1.46-.24,2.22-.23s1.95.44,2.57.24a2.7,2.7,0,0,1,2.53.12,1.46,1.46,0,0,0,.85-.12c.72-.51,1.84,0,2.4-.31,1-.54,1.62.27,2.46.06a5.39,5.39,0,0,1,2.24-.29c2.26.84,5-.39,7.09.68.8-.69,2-.46,3-.36s2-.65,3-.11c.33-.74,1,.26,1.69-.15a6.37,6.37,0,0,1,2.45-.17c.64,0,1.6.35,1.85.19,1-.62,1.48.3,2.24.2.61-.08,1.21-.17,1.83-.21,1-.06,2-.09,3.08-.1.23,0,.62.21.67.18.81-.57,1.85-.17,2.77-.27a5.73,5.73,0,0,1,2.68.39c.77.29,1.43-.56,2.46,0,.58.29,1.79,0,2.63.43.67.38,1.58-.69,2.38,0,.47-.63,1.43-.14,2.18-.33.94-.24,2.27.17,3.4.1a6.8,6.8,0,0,0,2.11,0,6.74,6.74,0,0,1,2.18-.14c.68,0,1.64.45,1.93.3a4.29,4.29,0,0,1,2.11-.31c.77,0,1.54,0,2.29,0,.26,0,.47.29.75.33.77.11,1.54.65,2.37.06a98.62,98.62,0,0,0,12.07-.5l1.92-1.88c.11-.1.34-.27.33-.28-1.35-.73-.3-1.75-.8-2.63-.35-.63-1-1.57-.35-2.15s.43-1.27.56-1.9c.06-.33-.08-.68.06-1s.75-.91.85-1.39-.19-1-.23-1.56,0-1.21,0-1.82-.34-1.24.08-1.58c.78-.62-.44-1-.09-1.53.16-.23,0-.58.26-.73.59-.39.3-.61,0-1s0-1,.06-1.48c.05-.31.3-.61.33-.92.08-.71-.28-1.5,1-2,.1,0,.16-.24.11-.27a1,1,0,0,1-.37-1.67c.76-.69-.38-1.15-.12-1.73.2-.42-.27-.94.53-1.3a.35.35,0,0,0,0-.51C144.45,14.58,144.07,14.27,144.79,13.92Z"/><path d="M248.73,32.64c-.13-1.27.52-2.67-.19-3.81a4.84,4.84,0,0,1-.46-3.1c0-.43,0-.85,0-1.29-.05-1-.32-2,.45-3.1.65-.9.44-2.07.87-3.11-1.08-.43-.66-1.08-.71-1.65s.94-1,0-1.49c1.09-.74,1.16-1.79.58-2.42s1.31-1.63-.55-2.19c-.07,0,.1-.36.23-.53a1.7,1.7,0,0,0-.07-2.6.51.51,0,0,1-.09-.54c.15-.39.73-1,.51-1.11-1-.51.63-1,0-1.27-1.26-.54.73-.89.08-1.33a7.3,7.3,0,0,0,0-.81c-.06-.53-.6-.87-1.51-.9-2.76-.09-5.56.22-8.26-.38-.35-.08-.95.29-1.47.36-1.14.15-.58-.68-1.15-.74-1.66-.18-3.46.14-5-.46-.75.61-1.43.42-2.3,0a3.11,3.11,0,0,0-1.58.17,2.26,2.26,0,0,1-1.52,0C226,.28,225.22.3,224.5.2a4.44,4.44,0,0,0-2.31.21c-.51.22-1.49-.64-2.18.08-1.47-.35-2.84.23-4.34.11-1.75-.13-3.81.28-5.25-.12-1.26-.34-2.66.72-3.46-.31a27.6,27.6,0,0,1-10.09,0,1.09,1.09,0,0,0-.62.08c-.61.51-1.52.33-2.28.3-1.48-.06-3,0-4.46-.15s-2.83.27-4.29-.21c-.46-.15-1.6.3-2,.13a6.65,6.65,0,0,0-3.59-.16c-2,.21-4.21-.46-6.12.39-.16.07-.62-.09-.94-.14A4.73,4.73,0,0,0,171.05.2a5.6,5.6,0,0,1-3.56.31c-1.12-.49-2.43.59-3.13-.33-1,.76-1.89-.36-3,0a2.38,2.38,0,0,1-2.27.06c-.6-.38-1.54.55-2.3.12-1.14-.66-1.41.46-2.48.31a31.55,31.55,0,0,0-4.25-.05h-4.62a22.8,22.8,0,0,1-4.23,0c-1.49-.31-2.81.43-4.05,0-1.44-.46-2.78,0-4,.1a7.22,7.22,0,0,1-2.77.11c-.86-.19-2.15.31-3.11.17a16.31,16.31,0,0,0-3.35,0c-3.06.17-6.16.08-9.24,0-1,0-3.24.63-3.32,1.16-.29,1.86-1.73,3.62-1.49,5.54,0,.41.89.75.11,1.31-.46.34.1,1.09-.24,1.55s-.07.46,0,.74a15.68,15.68,0,0,1,.16,3.21c-1.13.26.37.86-.49,1.17-1.13.41-.56,1-.5,1.57a6.12,6.12,0,0,1,.26,1.15c0,.44-.38.87-.41,1.31s.56.79.33.95c-.81.56-.91,1-.06,1.57.27.19.17.64,0,.93-1.15,2.15-.56,4.34-.28,6.5.06.48.34.87,0,1.4s.51,1.09.31,1.57a2.4,2.4,0,0,0,0,2,4.9,4.9,0,0,1,.06,2v1.82a11.33,11.33,0,0,0,0,2,8.67,8.67,0,0,0,.68,1.66c-1.81.32.54,1.15-.59,1.55-.16,1.28,1.37,1.87,3.45,1.73a80,80,0,0,1,9-.09c.83,0,1.7.4,2.41,0,1.15-.68,1.52.67,2.45.25,1.67-.77,3.61-.27,5.41-.38,1.29-.08,2.86.22,3.82-.11a7.85,7.85,0,0,1,3.68-.24,13.47,13.47,0,0,0,3-.08c1.1-.06,2.32.26,3.32-.35a4.75,4.75,0,0,1,1.62.09,8.9,8.9,0,0,0,1.18.24c1.18-.82,2.26-.17,3.37,0a5.93,5.93,0,0,0,1.72.29,3.72,3.72,0,0,1,2.89-.14c1.07.44,1.46-.38,2.42-.19a17.52,17.52,0,0,0,3.17,0c1.07,0,2.14,0,3.2,0a20.25,20.25,0,0,1,3.43.18c1.07.21,1.7-.4,2.76-.24.74.12,1.9-.46,2.48-.3a8.46,8.46,0,0,0,2.6.35,16.58,16.58,0,0,1,2.83,0,4.41,4.41,0,0,0,2.31,0c.4-.12,1.16.45,1.82,0,.42.6,1.67-.41,2,.34.73-.13,1.45-.29,2.19-.38a3.22,3.22,0,0,1,.95.14c.41.07,1.15.22,1.17.2.68-.89,1.76.18,2.52-.18,1.07-.5,1.87.06,2.78.21a3,3,0,0,0,1.38,0c1-.61,1.79,0,2.65,0,1.11,0,2.35-.33,3.35.29a1.79,1.79,0,0,0,.93,0c3.05-.74,6.25-.13,9.36-.33,1,.55,2.2-.25,2.92,0,1.28.51,2.25,0,3.37,0a21.8,21.8,0,0,1,5.05.38,19,19,0,0,0,2.83,0H230c1,0,1.9,0,2.84,0a21,21,0,0,1,2.39.18,8.23,8.23,0,0,0,2.13-.16,16.89,16.89,0,0,1,3.18,0,8.51,8.51,0,0,1,2.41.57c.82.33,1.56-.73,2.25,0,1.11-.14,2.51,0,3.12-.66.39-.4.53-1.12.14-1.45s-.39-.88-.44-1.32a3.77,3.77,0,0,1,0-1.42c.12-.49.59-1,.65-1.45.12-.87-.46-1.9.17-2.59s-1.24-1.63.56-2.18c.06,0,0-.29-.12-.36C248.11,34.12,248.8,33.34,248.73,32.64Z"/></g><g id="レイヤー_2" data-name="レイヤー 2"><path class="cls-1" d="M121.25,27a8.82,8.82,0,0,0-.67-2.91,2.42,2.42,0,0,0-.17.45c-.11.6-.54.86-1,.54a1.64,1.64,0,0,1-.59-.61c-.47-1.34-1.34-1.21-2.37-.73-.11.05-.32-.12-.48-.18,0,.19.06.39.08.58a2.81,2.81,0,0,0,0,.72c.12.29-.39.64.12.85-.24.24-.47.42-.2.85a1.93,1.93,0,0,1,.2,1.1A4.11,4.11,0,0,0,117,30.7a6.73,6.73,0,0,0-1,.69c-.26.28-.37.17-.63,0a1.77,1.77,0,0,1-.92-1.68,28.7,28.7,0,0,0-.34-4.53,3.36,3.36,0,0,1-.21-1.56c0-.1,0-.05-.1,0l.16.15a1.59,1.59,0,0,0,.15-.21s-.07-.07-.21.05a3.76,3.76,0,0,1-1.16-.18c-.86-.15-1.05-.31-1-1.19a11.36,11.36,0,0,1,.34-1.92c0-.14.31-.21.44-.34.36-.33.69-.69,1-1-.16-.2-.25-.36-.29-.35-1.36.32-1.47-1.08-2.18-1.64-.17-.13-.15-.81.22-1.24a20.69,20.69,0,0,0,2.44-3.07,1.41,1.41,0,0,1,.36-.37c.76-.63,1.33-.5,1.91.43a2.07,2.07,0,0,0,.17.24c-.41.41-.84.79-1.21,1.23s-.58,1.12-1,1.25c-.72.22-.52.86-.92,1.12.57.87,1.47.24,2.09.65.06,0,.28-.11.38-.21a2.45,2.45,0,0,1,1.59-.43,1.2,1.2,0,0,1,.11,1.87c-.61.44-1.26.81-1.9,1.23-.33.21.5.5,0,.73a2.9,2.9,0,0,0-.7.36,10.66,10.66,0,0,0-.84.83,2.14,2.14,0,0,0,1.57-.11c.33-.19,1,.17,1.56.31V20.37c.83-.05,1.6-.27,1.85.88,0,.19.42.31.64.45s.88.35.33.89l1,.72c0-.82,0-1.43.06-2,0-.23,0-.46,0-.68s.54-.3.16-.65a.61.61,0,0,1,0-.56,11.17,11.17,0,0,1,.71-1.08c.38.52.71-.13,1.09,0s.58-.05.85,0c1,.26,1.88-.89,2.82,0,.88-.92,1.74.2,2.65.05.49-.08.95.48,1.07,1.1.05.29.31.72.21.82-.46.44.43.59.15,1a1.52,1.52,0,0,0-.27.91c0,.46,0,1.05.29,1.33s-.27.92.3,1.15c-.54.34-.34.71,0,1.08a.68.68,0,0,0-.21,1c.57.46-.35.6-.11,1a.85.85,0,0,1-.11.78,1.24,1.24,0,0,1-.84.4,14.85,14.85,0,0,1-3.06-.11c-.3-.06-.68.26-1-.17-.19-.23-1,.13-1.29-.1a1.59,1.59,0,0,0-1.27-.27c-.58.07-.78-.39-1.3-.8a3,3,0,0,1-.31.54c-.37.4-.73,1-1.33.25a4.88,4.88,0,0,1-2.88-.81,4.69,4.69,0,0,1,0-1.12,2.79,2.79,0,0,1,.49-.82c.18.6.71-.14,1,.27a1.73,1.73,0,0,0,1.75.78c.29,0,.59.21,1,.42.1,0,0,0,0-.1l-.16.16a1.59,1.59,0,0,0,.21.15S121.37,27.1,121.25,27Zm7.41-4.35a8.78,8.78,0,0,1-.3-1.6c0-.48-.41-.54-.56-.78-.45-.69-.9.34-1.25-.12,0,0-.17,0-.23,0a1,1,0,0,0-.36,1.33c.42.52.16,1.08.44,1.66Zm-5.92-2.7c-.09.16-.26.33-.25.48a8.76,8.76,0,0,0,.2,1.69c.23,1,.26,1,1.16,1.16.15,0,.43,0,.47-.14a1.75,1.75,0,0,0,.16-.91,8.7,8.7,0,0,1-.49-1.77c0-.29.17-.54-.2-.4A.94.94,0,0,1,122.74,19.91Zm5.9,4.89c-.48,0-1-.14-1.13,0-.4.57-.65-.12-1,0a.53.53,0,0,0-.18.26c.43.36.16.85.22,1.28a1,1,0,0,0,1.08.65l1-.24Zm-3.75,1.69c0-.74.17-1.45-.63-1.67a3,3,0,0,0-1,0v1.63Z"/><path class="cls-1" d="M102.55,19.83c-.69,1-1.8.14-2.65.76-.33.24-1.45-.82-1.56-1.42s.29-.25.56-.31a20.55,20.55,0,0,0,2.49-.81c-.42-.23-1.15,0-1.35-.76a10.73,10.73,0,0,0-.67-1.61c-.3-.65-.6-1.31,0-1.94a2.31,2.31,0,0,1,.88-.57c.08,0,.33.39.49.61s.36.39.32.54c-.26,1.19.6,1.93,1,2.85.09.21.68.59,0,.91.16.27.88.3,1,0a6.49,6.49,0,0,0,.67-1.94,8.58,8.58,0,0,1,1.31-3.07.44.44,0,0,1,.81-.1c.29.32.9.56.33,1.12.25,1.21-.65,2.17-.73,3.32,0,.27-.54.45.17.55.32,0,.48.45,1,.11s1.1.18,1.6.39c.26.11.35.62.58,1.08l-4.28.56c-.39.48.54,1-.06,1.55.13.13.32.4.38.38.61-.26,1,.54,1.71.24.44-.18,1.08.11,1.62.19-.17,1.1-1.13,1.07-1.86,1.28-.37.11-.79,0-1,.42a1.09,1.09,0,0,0-.12.45c.74.32-.55,1,.26,1.35.26.11.41.32.73.1a1.18,1.18,0,0,1,.76-.21,2.09,2.09,0,0,0,2.19-1.08,5.06,5.06,0,0,0,.35.7c.36.45.24.78-.11,1.18a3.76,3.76,0,0,1-2.76,1.25c-.85.05-1.06.27-1.08,1.1,0,.58,0,1.15,0,1.72a.66.66,0,0,1-1.12.35c-.4-.33-.64-.66-.25-1.17.29-.36-.59-.71,0-1.1-.23-.19-.45-.49-.71-.54a5.67,5.67,0,0,0-1.54,0,1.59,1.59,0,0,1-1.84-1.07c0-.07,0-.16,0-.18,1-.59,1-.59,2.67-.48.33,0,.66,0,1.19,0-.17-.36-.29-.57-.38-.79-.21-.49.19-1.24-.5-1.49a4.65,4.65,0,0,0-1.5-.12c-1,0-1,0-1.86-1.05a3.12,3.12,0,0,1,2.61-.69c.15,0,.46-.18.47-.29,0-.67,0-1.35,0-2Z"/><path class="cls-1" d="M137.73,18.87c.51.4.76,1.06,1.39,1.46s1.08.52,1.53.22,1.1-.2,1.64-.19.61.71.31,1-.48.49-.73.73a1.3,1.3,0,0,0-.43,1.39c.09.25.24.47.33.72s.3.61.21.83a1.33,1.33,0,0,1-.71.71c-.27.08-.81.35-.88-.36,0-.25-.24-.47-.33-.72-.21-.61-.6-.81-1-.44a2.48,2.48,0,0,0-.78,1c-.28.87-.29,1.45.48,1.77s1.5.63,2,.4c.94-.42,1.66.35,2.52.11.23-.06.6.41.57.89s-.2.45-.53.46c-.13,0-.25.31-.38.31a2.32,2.32,0,0,1-1.13-.15c-.45-.29-.58.4-1,.19a2,2,0,0,0-1.12-.18,2.35,2.35,0,0,1-1.19-.21,5.36,5.36,0,0,1-1.09-.71,1.86,1.86,0,0,1-.38-.3c-.15-.18-.92.44-.55-.44.06-.14-.34-.47-.53-.71s.63-.75,0-1.08a1.53,1.53,0,0,0,.7-1.6c0-.08.2-.2.31-.29a3.14,3.14,0,0,0,.77-.61,3.06,3.06,0,0,0,.49-1.16c.09-.47-.38-.47-.66-.66a5.37,5.37,0,0,1-1.46-1.43,3.89,3.89,0,0,1-.21-1.51c-1-.68-1.94.57-3,.12-.06-1.22,0-1.12.94-1.66.62-.35,1.58-.53,1.44-1.69,0-.3.57-.81,1-1,.6-.27.87.38,1.23.7,0,.05-.05.24-.07.36a4.08,4.08,0,0,0-.1,1c0,.12.4.33.41.33.5-.59,1,.31,1.46,0a5.68,5.68,0,0,1,1.43-.68,1.47,1.47,0,0,1,1.64.61.81.81,0,0,1,.06,1.06c-.22.33-.46.44-.73.05-.31.49-.81.25-1.24.33s-.9.42-1.22.3C138.42,18,138,18.14,137.73,18.87Z"/><path class="cls-1" d="M165.47,25.21c.39-1.58-.83-2.17-1.59-2.77a4.22,4.22,0,0,0-3.1-1.21c.51-.5-.06-.68-.3-1a.9.9,0,0,1,.06-.22c.81-1,1.64-2.07,2.42-3.13a1.76,1.76,0,0,0,.18-.78s-.22-.14-.29-.1c-.32.17-.67-.07-1,.16s-.73-.09-1.1-.16l-1.31-.24a1.47,1.47,0,0,1,0-.47c.14-.39.22-.92.51-1.11s.76.06,1.14.14c.88.19,1.7-.37,2.57-.18a11,11,0,0,1,1.4.35,1,1,0,0,1,.49.48,4.26,4.26,0,0,1-.67,2.76c-.7.38-1,1.1-1.54,1.6s-.22.81.41,1c.46.14,1.09.13,1.34.44s.4.73,1,.6c.06,0,.23.16.22.2-.28.77.55,1,.73,1.6.4,1.29,1,2.52.31,3.88-.15.28-.29.74-.5.79-.71.15-.82.56-.91,1.18s-.35-.17-.52-.05c-1,.74-2.21.46-3.27.84a1,1,0,0,1-.25,0c.06-.8-1.18-.53-1.13-1.41,0-.3-.3-.69-.56-.94s-.44-.53-.11-.9c.09-.1,0-.33,0-.5.07-1.51.07-1.51,1.48-1.91A4.14,4.14,0,0,1,165.47,25.21Zm-3.83.71.55,2a13.66,13.66,0,0,1,1.44,0c.78.1.65-.63.87-1s-.35-.3-.46-.44C163.45,25.74,162.7,25.74,161.64,25.92Z"/><path class="cls-1" d="M97.75,29a6.8,6.8,0,0,1-.4,1.36,2.57,2.57,0,0,1-2,1.2c-.6.11-1.27.47-1.95.12-.47-.23-1.09-.22-1.49-.52s0-.9-.34-1.39a4.16,4.16,0,0,1-.44-1.68,1.48,1.48,0,0,1,.81-1.84c.61-.21.9-1.09,1.72-.8.37-.38.58-.37.64.22,0,.05.39.15.42.11.29-.42.52-.26.75,0s.34.29.62,0,.51-.12.56.3a1.7,1.7,0,0,0,.79,1.4C97.69,27.78,97.63,28.49,97.75,29Zm-5-.9c.19.39.37.77.58,1.13a1.54,1.54,0,0,0,.36.36,1.22,1.22,0,0,0,1.62.06,1.68,1.68,0,0,0-.11-2,1.9,1.9,0,0,0-1-.5c-.2,0-.44.26-.67.4Z"/><path class="cls-1" d="M92.33,11.62c.27,1,1,1.65.87,2.62,0,.28.31.86.53.89.55.07.44.38.48.7,0,.12.14.22.21.33.57-.82,1.47.76,2-.28.46.11.93.2,1.39.35.09,0,.21.35.16.41a6.78,6.78,0,0,1-1.18,1.21c-.14.11-.65-.34-.83-.24-.63.35-1.46.07-1.9.38s-.92-.42-1.29-.06-.92.32-1.42.34c-.28,0-.66-.07-.81.07a.8.8,0,0,1-1.06.18,2.57,2.57,0,0,1-.62-.93c-.14-.27.27-1,.54-1a15.78,15.78,0,0,1,2.37-.14c.31,0,.36,0,.34-.22a1.91,1.91,0,0,0-.13-.63c-.22-.54-.65-1-.6-1.64-.83-.43.34-1.19-.28-1.65Z"/><path class="cls-1" d="M89.7,20.14c.15-.09.2-.15.24-.15.6.1.93-1,1.64-.38a5,5,0,0,1,1.91-.32c.43,0,.91.14,1.24-.32,0,0,.35,0,.44.12.32.33.55.24.86,0a.54.54,0,0,1,.55.07,3.14,3.14,0,0,1,.36,1c0,.15-.15.46-.26.48-.92.16-1.85.27-2.78.37a5.62,5.62,0,0,0-2.45.31.81.81,0,0,1-1.23-.65C90.19,20.5,89.92,20.36,89.7,20.14Z"/><path class="cls-1" d="M96.71,23.33a2,2,0,0,1-2,1.16,7.15,7.15,0,0,0-3,.17c-.41.16-1.06-.75-.85-1.17a5.14,5.14,0,0,1,.48-.67c.25.4.4,0,.61-.06.5-.07,1,0,1.54,0a9.94,9.94,0,0,0,1.41-.33C95.83,22.16,96.17,22.88,96.71,23.33Z"/><path class="cls-1" d="M113.85,26.36a.85.85,0,0,1-.14.45,5.47,5.47,0,0,0-1.26,2.56c-.09.51-.57.61-1.11.31-.33-.18-.89-.41-.89-.6a3.41,3.41,0,0,1,.46-1.5c.44-.8,1.16-1.4,1.58-2.24.22-.44,1.19-.18,1.35.35A2.72,2.72,0,0,1,113.85,26.36Z"/><path class="cls-1" d="M157.85,27.54c-.6.64-1.35.25-2,.34-.07,0-.21-.11-.23-.19-.21-.71-1-.74-1.4-1.17-.13-.14-.35-.39-.31-.45a2.77,2.77,0,0,1,.55-.53c.65.76,1.15-.42,2,.13-.27-.86.16-1.5-.41-2a1.18,1.18,0,0,0,0-1.59.48.48,0,0,1,0-.49c.45-.39.42-.74,0-1.1.24-1-.37-1.95-.34-2.95,0-.4.12-1-.07-1.14-.49-.32.37-.78-.24-1-.29-.12-.43-.6-.63-.92s-.26-.63-.5-.81a3.91,3.91,0,0,0-1-.38c-.39-.14-1.05-.49-1.13-.38-.54.67-1.05-.28-1.29,0-.53.51-.85.14-1.31,0a2,2,0,0,0-1.67.48c-.41.27-.93.64-.39,1.26-.61.8-.3,1.73-.33,2.6a3.69,3.69,0,0,0,.19,1.8c.35.7-.5,1.1-.22,1.7a3.39,3.39,0,0,1,.22.77c.06.26.2.73.12.77-.69.37.55,1.06-.26,1.35.28.44.56.88.83,1.32a.84.84,0,0,1,.13.29c.16.61.48.68,1,.38.24-.14.6.56.91,0,.16.1.41.16.47.31a.8.8,0,0,1,0,.66c-.57.74-.07,1.75-.66,2.49-.08.1-.07.44,0,.48a3.85,3.85,0,0,0,1.16.5c.27.05,1-1,.84-1.18-.55-.57.34-.78.24-1.2a1.15,1.15,0,0,1,1.06.36,5.4,5.4,0,0,0,4.45,1.7A2.2,2.2,0,0,0,157.85,27.54Zm-3.8-3.47h0a1.49,1.49,0,0,1-.2-.15l.15-.15.16.2S154.07,24.08,154.05,24.07Zm-5-9.08a2.44,2.44,0,0,1,1.06-.4c.39,0,.74.48,1.08-.08l1.07.65c.33-.64.66,0,.93.05.59.13-.17.38,0,.5.51.49.29,1,.23,1.59-.85-.54-.88-.64-1.41-.44s-1-.84-1.43,0c-.47-.66-1,.42-1.49-.06ZM149,18.61a16.28,16.28,0,0,0,2.81,0c1-.19,1.12,1.12,2,1-.54,0-1.08,0-1.62.06a2.26,2.26,0,0,0-1.27.24c-.67.42-1.26-.37-1.94-.46C149,19.43,149,19,149,18.61Zm4,5.16c-.91,0-1.81,0-2.72,0-1.1,0-1.21-.14-1.25-1.27,0-.22,0-.44,0-.67l1.43-.35c.35-.09.72.58,1.07,0,0-.07.25-.13.29-.09.75.66,1.5.23,2.38-.08,0,.5,0,.88,0,1.26C154.17,23.59,154,23.76,153,23.77Z"/><path class="cls-1" d="M19.53,33.33c.49-1,1.41-1.79,1.19-3-.39,0-.77-.19-1.14.14a.44.44,0,0,1-.37.09,3.24,3.24,0,0,0-2-.25c-.68.05-1.07-.62-1.72-.58a.51.51,0,0,1-.35-.15c-.29-.34-.52-.72-.83-1s-.66-.44-.92-.72a6.83,6.83,0,0,1-.75-1.07,1.65,1.65,0,0,1-.27-.57c-.1-.76,0-1.52-.12-2.29A3.07,3.07,0,0,1,12.76,22c.19-.32.15-.77.32-1.1a16.66,16.66,0,0,1,1-1.54,6.27,6.27,0,0,0,.76-1.06c.13-.37.27-.53.64-.46a.73.73,0,0,0,.72-.29,2.73,2.73,0,0,1,1-.6c.44-.19.89-.08,1.27-.29a2.7,2.7,0,0,1,1.34-.5c.42,0,.87-.28,1.27-.22s.78-.4,1.19-.08a7.12,7.12,0,0,1,3.21-.2,6.82,6.82,0,0,1,2.31.45,16,16,0,0,1,2.09,1c.62.35,1,1.05,1.6,1.51a4.11,4.11,0,0,1,1.28,2.93c.09.68-.07,1.4,0,2.07s-.53.71-.58,1.15a3.81,3.81,0,0,1-.13,1.33,4.9,4.9,0,0,1-2.44,2.69,12.68,12.68,0,0,1-2.52.94,14.49,14.49,0,0,1-2,.55c-.81.14-1.28.92-2.11,1,0,0-.06.07-.1.09-.38.21.06.92-.67,1a.86.86,0,0,0-.8.72c0,.11-.35.25-.56.27C20.47,33.36,20.07,33.33,19.53,33.33Zm3.75-10.08c0-.54-.25-1-.57-1a4.34,4.34,0,0,0-1.18.49.6.6,0,0,0-.21.45c0,.61.5,1.3.94,1.24a4.08,4.08,0,0,0,1-.36C23.06,23.81,23.83,23.57,23.28,23.25Zm5-1c-.52,0-1,0-1.42,0s-.85,1.12-.7,1.35a1.37,1.37,0,0,0,1.55.56,1,1,0,0,0,.57-1Zm-11.19.52c-.23.18-.7.34-.77.61a1.25,1.25,0,0,0,.22,1.26c.31.34.87.56,1.13.21s.38-.66.55-.95Z"/></g></svg>