<svg xmlns="http://www.w3.org/2000/svg" viewBox="0 0 197.52 46.88"><defs><style>.cls-1{fill:#fff;}</style></defs><g id="レイヤー_1" data-name="レイヤー 1"><path d="M100.6,2.49c-.13-.21-.39-.43-.37-.62.12-.74-.51-1.05-.94-1.49-.59-.61-.87.23-1.32.21-.13,0-.33,0-.39-.12-.46-.62-1.2.75-1.59-.18a1.63,1.63,0,0,1-.48.23A31.46,31.46,0,0,0,92.1,1c-.63.17-1.13-.82-1.68,0-.64-.73-1.22.31-1.92,0A5.65,5.65,0,0,0,86.56.82,15.85,15.85,0,0,1,85,.62c-.75-.08-1.52,0-2.27,0S81.34.82,80.85.2c-.64,1-1.26-.18-1.91,0-1.25.34-2.62-.75-3.84.24-.07,0-.31-.08-.47-.1-.51,0-1.12-.27-1.51-.09a6.65,6.65,0,0,1-4.29.14c-.39-.08-.54,0-.65.16-.38.63-.79.16-1.2.06s-.71.89-1.33.25a.64.64,0,0,0-1-.08,1.81,1.81,0,0,1-1.84,0,1.46,1.46,0,0,0-.81-.19c-.87.22-1.72.85-2.59,0-1.53.86-3.22.19-4.82.39-.71.08-1.5-.18-2.08.41-1.09-.41-2.18,1.08-3.28,0a.47.47,0,0,0-.43,0c-1,.84-1.89,0-2.82,0s-2,.27-2.69-.09-1.52.61-2-.25a11.35,11.35,0,0,0-2.15.6c-.42.21-.64-.58-1,0-.1.15-.91-.19-1.18,0-.53.31-.77.11-1.15-.15-.13-.09-.51.18-.75.15-.44-.06-.92.07-1.28,0a3.82,3.82,0,0,0-3,.11c-.16.09-.52,0-.76-.13-.48-.2-.86.59-1.47,0-.3-.28-1.12-.13-1.71-.18a2.84,2.84,0,0,1-1.49-.25c-.25-.15-.86.2-1.32.24-2.13.19-4.32-.37-6.42.39-.2.08-.54-.1-.8-.2a2,2,0,0,0-1.85,0c-.34.21-.86-.42-1.14.17-.25-.1-.62-.36-.75-.29-.68.39-1.3-.38-1.85-.08s-1.15.62-1.37.34c-.44-.55-.91.05-1.38-.24-.68-.41-1.7.1-2.44-.46-.44.57-1.13.19-1.66.35a9.74,9.74,0,0,0-1.29.65c-1.72.83-2,1.39-1.42,3.06.09.3.24.8.08.93-.9.7.08,1.83-.77,2.5.72.82.35,1.65.05,2.48,1,.52-.18,1.17.15,1.84a2.86,2.86,0,0,1,.1,2.34A4.89,4.89,0,0,0,1,17.92C1,19.15.6,20.4,1.32,21.63c.23.39-.75,1-.17,1.77.28.38-.25,1.24-.42,1.88-.06.23-.25.63-.18.67.76.43-.11,1.05.09,1.25.5.53.25.81-.16,1.16.65.36.42.94.44,1.45a4.62,4.62,0,0,1,0,1.62A12.43,12.43,0,0,0,.49,36.2C.54,37.43.1,38.7.9,39.89c.17.26-.65.67,0,1.11.1.06-.5.77-.37,1a1,1,0,0,1,0,1.12C.3,43.5.4,44,.16,44.39c-.44.66.16,1.08.3,1.61s.71.27,1.08.38a6.08,6.08,0,0,1,1.39.42c.53.32.64-.5,1.32-.21a3.7,3.7,0,0,0,2.41-.3c.82-.35,1.77.64,2.47-.3.06-.07.64.16,1,.25s.53.18.6.12c.75-.75,1.72-.35,2.56-.35a6.37,6.37,0,0,0,2.09,0c.77,1,1.38-.5,2.18-.1.48.24,1.16-.2,1.7.27.21.18.89.26,1,.12.78-.79,1.46-.18,2.16,0,.24.08.64.33.66.3.58-.72,1.1.21,1.49.06a2.62,2.62,0,0,1,1.47,0,6.6,6.6,0,0,0,3.25-.31c.29-.11.84.63,1.48,0,.2-.19,1.2.35,1.46.15.62-.46,1.21.16,1.26.11.43-.45,1-.3,1.47-.34a12.65,12.65,0,0,0,1.95-.22c.53-.12,1.18.72,1.58-.17.26.66.75,0,1.14.15s.95-.2,1.23,0c1,.59,2,.16,3.06.26.3,0,.87-.41.91-.35.54.61,1,.07,1.49,0,1-.06,2.06-.4,3,.24.3.19.87,0,1.31.1s1-.58,1.72-.06c.24.18,1-.78,1.61,0a1.82,1.82,0,0,1,2.37,0,4.78,4.78,0,0,1,2.77-.4c.29,0,.7,0,.84.11.42.43.59.09.83-.12s.42-.53.83-.11a1,1,0,0,0,.81.09c.53-.74,1.22,0,1.83-.19a9.28,9.28,0,0,1,2.42-.17,6.32,6.32,0,0,1,2.18.18c.6.23,1.47-.15,2.22-.19s1.67,0,2.5,0,1.55-.46,2.38,0c.22.11.67-.13,1-.19s.84-.29,1-.16c1,.72,2.18.22,3.25.38.78.11,1.67-.32,2.34.39a.76.76,0,0,0,.58-.15c.49-.53.65.35,1.08.17a3.53,3.53,0,0,1,1.39-.38c.42,0,.75.72,1.3.13s.89.43,1.57.29a7.23,7.23,0,0,1,2.93,0A1.76,1.76,0,0,0,93.92,46a4.06,4.06,0,0,1,3-.29c.22,0,.36.39.66.06.52-.57,1-1.17.81-1.91-.08-.34-.52-.54,0-.91s-.92-.66-.09-1.1c-.44-.77.28-1.47.14-2.26a14.42,14.42,0,0,1,0-2.63V33.07c0-.34-.16-.83,0-1,1-.83-.23-2.16.88-2.93-.79-.54-.5-1.11-.06-1.67-.78-.6-.3-1.39-.37-2.09a1.58,1.58,0,0,1,.35-1.49c.51-.53-.39-1-.38-1.61,0-.07,0-.15,0-.2.9-1.65.26-3.41.44-5.1,0-.4-.18-1,0-1.19.82-.78.43-1.69.36-2.49s.35-1.62.14-2.52-.54-1.86.33-2.67c-.8-.87-.25-1.9-.4-2.85,0-.08.25-.18.28-.29.09-.34-.23-.65.12-1.06S100,2.87,100.6,2.49Z"/><path d="M88.53,2.49c.14-.21.42-.43.39-.62-.12-.74.56-1.05,1-1.49.64-.61.93.23,1.43.21A.62.62,0,0,0,91.8.47c.49-.62,1.3.75,1.72-.18a1.9,1.9,0,0,0,.53.23A37.23,37.23,0,0,1,97.74,1c.68.17,1.22-.82,1.82,0,.69-.73,1.32.31,2.08,0a6.58,6.58,0,0,1,2.1-.22c.59,0,1.14-.14,1.71-.2.81-.08,1.64,0,2.46,0s1.49.23,2-.39c.69,1,1.36-.18,2.06,0,1.36.34,2.84-.75,4.16.24.08,0,.34-.08.52-.1A4,4,0,0,1,118.3.24,7.78,7.78,0,0,0,123,.38c.42-.08.58,0,.7.16.42.63.86.16,1.3.06s.77.89,1.44.25a.73.73,0,0,1,1-.08,2.11,2.11,0,0,0,2,0,1.64,1.64,0,0,1,.87-.19c1,.22,1.87.85,2.81,0,1.66.86,3.49.19,5.22.39.77.08,1.63-.18,2.26.41,1.18-.41,2.35,1.08,3.55,0a.55.55,0,0,1,.47,0c1,.84,2,0,3.05,0s2.19.27,2.91-.09,1.65.61,2.19-.25a12.82,12.82,0,0,1,2.33.6c.45.21.69-.58,1.12,0,.11.15,1-.19,1.29,0,.57.31.83.11,1.24-.15.14-.09.55.18.82.15.47-.06,1,.07,1.38,0a4.44,4.44,0,0,1,3.19.11,1.36,1.36,0,0,0,.83-.13c.52-.2.94.59,1.6,0,.32-.28,1.21-.13,1.84-.18A3.3,3.3,0,0,0,170,1.16c.27-.15.93.2,1.43.24,2.31.19,4.68-.37,7,.39.22.08.59-.1.86-.2a2.29,2.29,0,0,1,2,0c.36.21.93-.42,1.23.17.28-.1.67-.36.81-.29.74.39,1.41-.38,2-.08s1.24.62,1.48.34c.49-.55,1,.05,1.5-.24.73-.41,1.85.1,2.64-.46.48.57,1.22.19,1.8.35a11.06,11.06,0,0,1,1.4.65c1.86.83,2.14,1.39,1.54,3.06-.1.3-.26.8-.09.93,1,.7-.09,1.83.84,2.5-.79.82-.39,1.65-.06,2.48-1.06.52.19,1.17-.17,1.84a2.68,2.68,0,0,0-.1,2.34,4.66,4.66,0,0,1,.39,2.69c-.07,1.23.38,2.48-.4,3.71-.24.39.81,1,.18,1.77-.3.38.28,1.24.46,1.88.06.23.27.63.19.67-.82.43.12,1.05-.09,1.25-.55.53-.27.81.17,1.16-.7.36-.45.94-.48,1.45a4.19,4.19,0,0,0,0,1.62A11.54,11.54,0,0,1,197,36.2c0,1.23.43,2.5-.43,3.69-.19.26.7.67,0,1.11-.1.06.55.77.41,1a.93.93,0,0,0,0,1.12c.2.4.09.93.35,1.29.49.66-.16,1.08-.32,1.61s-.77.27-1.17.38a6.88,6.88,0,0,0-1.5.42c-.58.32-.7-.5-1.44-.21a4.28,4.28,0,0,1-2.6-.3c-.89-.35-1.92.64-2.68-.3a4.24,4.24,0,0,0-1.06.25c-.22,0-.58.18-.65.12-.82-.75-1.86-.35-2.78-.35a7.44,7.44,0,0,1-2.26,0c-.83,1-1.5-.5-2.36-.1-.52.24-1.26-.2-1.85.27a1.37,1.37,0,0,1-1.1.12c-.85-.79-1.58-.18-2.34,0-.26.08-.7.33-.72.3-.63-.72-1.19.21-1.61.06a3.06,3.06,0,0,0-1.59,0,7.71,7.71,0,0,1-3.52-.31c-.32-.11-.91.63-1.61,0-.21-.19-1.3.35-1.58.15-.67-.46-1.31.16-1.36.11-.47-.45-1.05-.3-1.59-.34a14.64,14.64,0,0,1-2.11-.22c-.58-.12-1.29.72-1.72-.17-.28.66-.82,0-1.24.15s-1-.2-1.33,0c-1.08.59-2.22.16-3.32.26-.32,0-.94-.41-1-.35-.58.61-1.05.07-1.6,0-1.07-.06-2.24-.4-3.31.24-.33.19-.94,0-1.42.1s-1.11-.58-1.86-.06c-.26.18-1.13-.78-1.75,0a2.09,2.09,0,0,0-2.56,0,5.57,5.57,0,0,0-3-.4c-.32,0-.77,0-.92.11-.45.43-.64.09-.89-.12s-.46-.53-.9-.11a1.12,1.12,0,0,1-.88.09c-.58-.74-1.33,0-2-.19a10.87,10.87,0,0,0-2.62-.17,7.44,7.44,0,0,0-2.37.18c-.65.23-1.59-.15-2.4-.19s-1.81,0-2.72,0-1.67-.46-2.57,0c-.24.11-.72-.13-1.1-.19s-.92-.29-1.11-.16c-1.11.72-2.36.22-3.52.38-.85.11-1.81-.32-2.53.39a.88.88,0,0,1-.63-.15c-.54-.53-.7.35-1.17.17a4.15,4.15,0,0,0-1.51-.38c-.46,0-.82.72-1.41.13s-1,.43-1.7.29a8.45,8.45,0,0,0-3.17,0A2.08,2.08,0,0,1,95.76,46a4.73,4.73,0,0,0-3.21-.29c-.23,0-.38.39-.71.06-.56-.57-1.09-1.17-.88-1.91.1-.34.57-.54,0-.91s1-.66.09-1.1c.48-.77-.3-1.47-.15-2.26a13.57,13.57,0,0,0,0-2.63V33.07c0-.34.18-.83,0-1-1.12-.83.24-2.16-1-2.93.86-.54.54-1.11.06-1.67.84-.6.33-1.39.4-2.09A1.48,1.48,0,0,0,90,23.91c-.55-.53.43-1,.41-1.61,0-.07,0-.15,0-.2-1-1.65-.28-3.41-.49-5.1,0-.4.2-1,0-1.19-.88-.78-.47-1.69-.39-2.49s-.38-1.62-.15-2.52.58-1.86-.35-2.67c.86-.87.27-1.9.43-2.85,0-.08-.27-.18-.3-.29-.1-.34.25-.65-.13-1.06S89.23,2.87,88.53,2.49Z"/></g><g id="レイヤー_2" data-name="レイヤー 2"><g id="NtZm0Z"><path class="cls-1" d="M103.92,18.93c1,2.66.83,3.14-1.55,4.69,0,0,.09.12.13.12.8-.07,1.66-.56,2.35.29.59-.66,1.12-.06,1.52.19,1.06.65,1.14,1,1.13,2.84a.86.86,0,0,0,.28.56c.39.37-.66.75,0,1.08a3.54,3.54,0,0,1-.57.59,1.64,1.64,0,0,1-.73.28,7.77,7.77,0,0,1-1.09,0V28.51c0-.35-.06-.69.49-.69a1.54,1.54,0,0,0,.16-1c-.16-.36-.38-1-1-.79-.33.12-.29,0-.38-.2s-.37-.35-.43-.31c-.28.18-.44.36-.79,0-.17-.17-.66,0-1,0s-.89-.58-1.21.16c0,0-.23,0-.35,0a6.25,6.25,0,0,0-1.48-.12c-.22,0-.6.63-.55.69.49.64-.31,1.21,0,1.81a1,1,0,0,1,0,.51c-.08.44-.86,1.19-1.14,1.06a1,1,0,0,1-.59-1.09c0-.39,0-.79,0-1.22-.85-.27-1.65-.54-2.47-.76-.49-.14-.75.12-.62.66a8.38,8.38,0,0,0,.18,1c.19.46-.26.61-.24,1,0,.74-.36,1.17-.7,1.1a2,2,0,0,1-1-1.24,5.81,5.81,0,0,0-.17-1.47c-.19-.5.64-.84-.06-1.37A9.17,9.17,0,0,0,91,27.91a1,1,0,0,1-1.21.64c-.67-.69.35-1.51-.14-2.23,0,0,.3-.3.43-.47a4.19,4.19,0,0,0,.87-1.35c.11-.63.23-1.06.94-1.16.06,0,.16-.31.11-.43s-.36-.21-.38-.19c-.57.77-1.41-.37-2,.3-.16.17-1-.53-1-.77A1.52,1.52,0,0,1,89.67,21c.73,0,1.47,0,2.19,0,.5-2.25.5-2.25,1.41-3.14l1,.52c-.09.26-.31.58-.22.74a.59.59,0,0,1,0,.63c-.31.87.06,1.14,1,1a6.86,6.86,0,0,1,1.69-.06,1,1,0,0,1,.6.54c.06.11-.1.43-.25.55-.41.33-.87.62-1.31.92-.32-.64-.76.36-1.24-.12-.3-.31-.58.44-.89.6a4.56,4.56,0,0,0,2.6,2.23c.81-1.3,2.21-1.56,3.68-1.65.12,0,.29.05.34,0a1.46,1.46,0,0,0,.19-.42c-.1,0-.26-.15-.29-.12-.64.65-1-.39-1.66-.22-.2.06-.29-.65-.56-1.39a2.73,2.73,0,0,1,.07-2.29,1,1,0,0,1,1.16-.71c1.17.09,2.35-.22,3.49.33A3.14,3.14,0,0,0,103.92,18.93Zm-4.46,1.72a3.61,3.61,0,0,0,.81.67c.44.18,1-.22,1.45.23,0,0,.43-.2.56-.39s-.09-.38-.21-.5c-.51-.5-1.24.06-1.8-.34-.11-.09-.34,0-.5,0S99.63,20.46,99.46,20.65Zm1.48,2.83v.17h1v-.17Z"/><path class="cls-1" d="M87.13,21.58c-1.29.43-1.84-.46-2.38-1.21-.39-.56-.55-1.28-1-1.83s.53-.72.25-1.2c-.1-.18.13-.63-.41-.28-.29.19-.92.29-1.11.12-.68-.62-1.43-.15-2.15-.36,0,.2-.15.37-.12.51.11.48-.86,1,0,1.43-.55.36-.29.92-.34,1.4a6.85,6.85,0,0,1,0,1,3.24,3.24,0,0,1-.44.78c-.26-.1-.5-.2-.75-.28a1,1,0,0,1-.62-1.09c.08-.65.1-1.3.16-2.14-.43.42-.41,1-1,.85-.33-.06-.71.3-1.06.28s-.45.7-.79.13c-.2.2-.57.39-.58.59a5,5,0,0,0,.45,3.08c.31.47.47.68.86.57.09,0,.21-.19.24-.17.7.42,1.42-.38,2.12,0,.47,1-.28,1.32-.87,1.76-.42.31-.83.36-2.13.27,0,.79,0,1.58,0,2.36a1,1,0,0,1-.13.63c-.17.18-.61.41-.67.35-.3-.3-1.06-.11-.94-.88,0-.21-.3-.56-.22-.66.25-.31.41-.59,0-.84a2,2,0,0,0-.91-.29,4,4,0,0,0-.95.17l-1.27.19c-.07-1.3,0-1.22,1.1-1.79.57-.3,1-.64,1.67-.34.08,0,.62-.2.42-.64a3.91,3.91,0,0,1-.25-1.87c0-.65-.33-1.36-.3-2.09,0-.15-.3-.32-.46-.49-.37.46-.81-.24-1,0A1.57,1.57,0,0,1,70.4,20c-.86.1-.86.12-1.46-.46.27-.42.53-.87.83-1.29s.46-.52.82-.16c.62.61,1.1-.18,1.68-.19.79,0,.73-.67.75-1.25,0-.4,1-1,1.39-.76s.84.58.35,1.21c-.16.22,0,.67,0,1.08a4.78,4.78,0,0,1,.83-.24c.34,0,.69,0,1,0s.6-.25.83-.18.32.41.54.73c.2-.59.35-.93.44-1.29s-.28-.63.12-.87c-.55-.9.36-1.1.74-1.07s1-.57,1.46-.1c.43-.58.82-.16,1.25,0a.85.85,0,0,0,.68,0c1.12-.67,2,.38,3,.46.46,0,.68.75.41,1.12-.86,1.18.12,2,.4,3C87.47,20.11,87.1,20.91,87.13,21.58Z"/><path class="cls-1" d="M115.89,30.19c-.16-1.08-.29-2.17-.48-3.25-.13-.78-.54-.89-1.24-.42a5.31,5.31,0,0,1-1.66,1,2.41,2.41,0,0,1-2.57-2.55,3.53,3.53,0,0,1,1.51-2.63,2.61,2.61,0,0,1,1.27-.29c.74-.07,1-.29,1-1.05a8.26,8.26,0,0,0,0-.86.81.81,0,0,0-.83-.84,3,3,0,0,1-.52,0c-.59-.15-1.18.53-1.54.29s-1-.2-1.45-.31a1.18,1.18,0,0,1,.37-1.58c.34-.27.91-.88,1.64-.3.18.15.83,0,1.28,0a.8.8,0,0,0,.57-.24,2.36,2.36,0,0,0,.38-.7c.16-.35.33-.61.43-.62.45,0,.8,0,.72.6-.11.76.88.33,1,.92.09.35.31-.06.46-.07a6.3,6.3,0,0,1,2,0c.32.08,1.06.06,1,.87A1.12,1.12,0,0,1,118,19.26c-.8,0-1.6,0-2.47,0a7.87,7.87,0,0,1,.25,2.89c-.83.7.32,1.25.14,1.89a1.66,1.66,0,0,1,1,1.64c0,.32.94.36.3,1-.15.16.19.79.31,1.2a2.5,2.5,0,0,1,.17.65C117.69,29.8,117.3,30.14,115.89,30.19Zm-4-5.17c.08.12.16.33.31.42s.3-.06.42-.15.31-.31.48-.46a.7.7,0,0,0,.09-1c-.19-.25-1,0-1.12.34A4.12,4.12,0,0,0,111.92,25Z"/><path class="cls-1" d="M125,26.24c-.28-.31-.33-.34-.36-.39a1.92,1.92,0,0,0-1-.86c-.42-.13-.79-.39-1.21-.5-.65-.18-1.44-.48-1.49-.67-.17-.58.19-1.06.36-1.57,0-.1.24-.17.37-.23a4.32,4.32,0,0,0,1.84-1.33,6.73,6.73,0,0,1,1-.79,2,2,0,0,0-1.81-1.37,5.92,5.92,0,0,1-1.89-1,2,2,0,0,1,2.31-.66c.23.08.72-.27.81-.18.6.69,1.63.61,2.2,1.42.79,1.11.88,1.7,0,2.72a8.51,8.51,0,0,1-1,.87c-.12.1-.3.13-.41.23-.34.31-.66.65-1,1,1.38.06,2,1.24,3,1.85,0,1,1.29,1.68.5,2.77.34,1-.37,1.6-.8,2.24a7.11,7.11,0,0,1-1.77,1.47.5.5,0,0,1-.45-.08c-.3-.32-.56-.34-.84,0s-.87-.64-1.22.1a5.22,5.22,0,0,1-.68-.43c-.5-.4-1.2-.74-1.41-1.27s.22-1.13.27-1.72c.07-1,.92-1.05,1.53-1.39a5.9,5.9,0,0,1,3.2-.25s0,0-.09-.09l-.15.15a1.59,1.59,0,0,0,.21.15S125,26.39,125,26.24Zm-.27,2c-.93,0-1.83,0-2.72,0a.43.43,0,0,0-.33.25.48.48,0,0,0,.17.42c.91.55,1.9.29,2.88.36Z"/><path class="cls-1" d="M83.75,27.33c.63,1.15,2.44,1.16,2.71,2.71-.51.28-1,.78-1.61.56-.45-.16-1-.14-1.22-.85a.54.54,0,0,0-1,.22.91.91,0,0,1-1,.49c-.78-.11-.94-.61-.52-1.27.13-.21.7-.29.23-.75-.14-.13-.52-1.15-.84-1.24-.69-.18-.56-.91-1-1.28-.11-.1,0-.65.13-.75.58-.37.28-.76.2-1.21-.13-.8.78-1.5,1.74-1.4a.75.75,0,0,0,.36-.07c.86-.41,1.62.08,2.32.39s.89,1,.61,1.85a6,6,0,0,0-.59,2.18C84.37,27,84,27.18,83.75,27.33Zm-3.2-2.95,1.7,1.7a5.75,5.75,0,0,0,.41-.63c.14-.27.4-.68.31-.84-.25-.42-.53-.08-.8.11-.11.07-.37-.11-.57-.15Z"/><path class="cls-1" d="M99.61,15.38c-.21-.6-.38-1.1-.56-1.6,0-.08-.12-.23-.11-.23.44-.29.22-.73.28-1.1a.84.84,0,0,1,.76-.75c.6-.13.6.35.73.66a2.21,2.21,0,0,1,.21.93,2.75,2.75,0,0,0,.66,2c.14.17,1.76.67,2,.46.45-.39,1.07.64,1.37-.22a.87.87,0,0,1,.43.14c.4.39.88.77.44,1.44,0,.08.58.47-.06.44s-1,.38-1.47.11-1,.17-1.41-.36-.58.55-.94.08c-.83.35-1.65-.45-2.4-.11s-1.68-.52-2.35.31a9.59,9.59,0,0,1-1.25-.71c-.34-.24-.24-.55.22-.66Z"/><path class="cls-1" d="M104.07,26.94a16.62,16.62,0,0,1,.3,1.76c0,.43-.86,1.43-1.3,1.57-.1,0-.21,0-.31.08-.43.2-.92.65-1.27.55a3.78,3.78,0,0,1-1.44-1c-.38-.36-1-.65-.83-1.35a3.38,3.38,0,0,1,1-2.16c.23-.2.3,0,.5,0C101.74,26.6,102.81,26.74,104.07,26.94Zm-2.16,1.9v-.31l-.92.13v.18Z"/><path class="cls-1" d="M92.93,14.8c.47,1.58-.8,2.4-1.22,3.53-.1.24-.42.47-.4.68.07.8-.48.56-.89.61s-.39-.35-.54-.61a1.27,1.27,0,0,1,0-1.27,21.19,21.19,0,0,0,.92-2c.24-.86.75-1,1.5-.93A5.75,5.75,0,0,0,92.93,14.8Z"/></g></g></svg>