<svg xmlns="http://www.w3.org/2000/svg" viewBox="0 0 195.91 45.02"><defs><style>.cls-1{fill:#fff;}</style></defs><g id="レイヤー_1" data-name="レイヤー 1"><path d="M105.63,31.64c-.38.3.24.46,0,.9a3.76,3.76,0,0,0-.11,2.52,6.84,6.84,0,0,0,.59,1.43c.49.77-.35,1.19-.27,1.81a2.35,2.35,0,0,0,.15.94,6.69,6.69,0,0,1,.68,3.38,2.66,2.66,0,0,0,3.1,2.32c.39-.7.86.44,1.27,0s1.14-.2,1.71-.3c.38-.07,1,.06,1.13-.16.5-.63.93.2,1.3,0a1,1,0,0,1,1.42.11.51.51,0,0,0,.52,0c.44-.5.8-.36,1.15.08.31-.45.78-.4,1.25-.39h2.24c.68,0,1.36,0,2,0s1.3.05,1.9.09,1.42-.38,1.88-.05a3.57,3.57,0,0,0,2.31.34c4.28,0,8.57,0,12.85,0,.5,0,1.08-.26,1.53.24a.58.58,0,0,0,.54.13,4,4,0,0,1,3.75,0,1.2,1.2,0,0,0,.79,0,9.7,9.7,0,0,1,5.21,0c.21,0,.47-.18.7-.16s.51.17.78.21a2,2,0,0,0,.81,0c.48-.15,1-.72,1.43-.34.62.54,1-.26,1.55-.1a3.91,3.91,0,0,0,2,0c.61-.15,1,.34,1.59.25s1.11.2,1.63-.21a.17.17,0,0,1,.18,0c.55.6,1.15.39,1.81.2s1.14,0,1.67-.1a5.64,5.64,0,0,0,2-.52c.57-.41,1.22.63,1.87,0,1,.7,2.08.27,3.12.32.35,0,.62-.65,1.18-.16.19.16.76-.17,1.16-.2.61,0,1.23,0,1.84,0s1.39-.23,1.79,0c.65.47,1.07-.23,1.53,0a1.7,1.7,0,0,0,1.51,0c.42.63.9-.21,1.28,0,1.26.78,2.62.19,3.92.39.66-.74,1.26-.08,1.87.08a9.3,9.3,0,0,0,1.69-.21l2-3.22a1.61,1.61,0,0,1-.09-.29,7.77,7.77,0,0,1-.16-2.52c.25-.91-.22-1.67-.09-2.52s0-1.89,0-2.83-.43-1.76.39-2.47c-.21-.82-.85-1.64,0-2.48a3.9,3.9,0,0,1,0-3.55c-.81-.71,0-1.38.05-2.07-1-.7.35-1.37,0-2.11-.16-.36.6-.84,0-1.27-.09-1.43.28-2.91-.41-4.28.66-.7-.22-1.36,0-2.11s-.07-1.76.09-2.61c.08-.5-.68-.78-.14-1.35.37-.4-.15-1.14.42-1.65A1.15,1.15,0,0,0,195.62,6c-.55-.4.09-.92-.31-1.42s-.08-1.29-.06-2A3,3,0,0,0,194.06.28c-.09-.08-.37-.12-.41-.07-.45.59-1-.25-1.11-.07-.58.68-.93-.15-1.36-.1-.76.09-1.57-.32-2.31.35-.32.29-1-.06-1.51.29-.29.18-1-.37-1.37-.21a8.91,8.91,0,0,1-3.31.37c-.41,0-1,.4-1.19.25a1.32,1.32,0,0,0-1.31-.22c-.63.3-1.39.64-1.85.3-.72-.52-1.15.44-1.75.08a2.2,2.2,0,0,0-1.07-.33c-.35,0-.69.3-1,.29s-1-.43-1-.35c-.56.78-1.32,0-2,.29A2.56,2.56,0,0,1,169,.92c-.2-.15-.75,0-1.07.16A1,1,0,0,1,166.61,1c-.12-.11-.45-.21-.52-.14-.81.8-1.81.24-2.71.37A1.86,1.86,0,0,1,162.05,1c-.29-.18-.91.23-1.38.23S159.45.78,159.06,1a1.17,1.17,0,0,1-1.58-.12c-.07-.07-.42,0-.52.12-.45.51-1.15,0-1.5.3-.6.54-1-.26-1.54-.06s-1.09.47-1.39.29c-1.41-.84-3.09.4-4.42-.67-.5.69-1.26.45-1.86.36s-1.24.64-1.88.1c-.21.75-.65-.25-1.06.15s-1,.19-1.52.18-1-.35-1.16-.19c-.63.61-.92-.3-1.4-.2a10.68,10.68,0,0,1-1.13.2c-.64.06-1.28.09-1.92.1-.15,0-.39-.21-.42-.17-.51.56-1.16.17-1.73.27a2.38,2.38,0,0,1-1.67-.4c-.48-.29-.89.57-1.53.05-.36-.3-1.12,0-1.65-.44s-1,.69-1.48,0c-.29.62-.89.13-1.36.32s-1.41-.17-2.12-.1c-.43,0-.84-.23-1.32,0a2.56,2.56,0,0,1-1.36.13c-.42,0-1-.45-1.2-.29a1.8,1.8,0,0,1-1.31.3,9.74,9.74,0,0,1-1.43,0c-.16,0-.29-.29-.47-.33-.48-.11-1-.65-1.47-.06a38.56,38.56,0,0,0-7.53.51l-1.2,1.88c-.06.1-.21.27-.2.27.84.74.18,1.76.49,2.64.22.63.63,1.56.22,2.15s-.27,1.26-.35,1.89a6.6,6.6,0,0,1,0,1,11.94,11.94,0,0,0-.53,1.39,9.23,9.23,0,0,0,.14,1.56c0,.61,0,1.22,0,1.82s.22,1.25-.05,1.59c-.48.62.27,1,.06,1.52-.1.23,0,.58-.16.74-.37.38-.19.6,0,1a3.25,3.25,0,0,1,0,1.48c0,.31-.19.61-.21.92,0,.72.18,1.5-.64,2a.32.32,0,0,0-.07.27,1.33,1.33,0,0,1,.23,1.67c-.47.7.24,1.16.08,1.73s.17.94-.33,1.3a.53.53,0,0,0,0,.52C105.84,31,106.08,31.29,105.63,31.64Z"/><path d="M113.45,31.64c.48.3-.3.46,0,.9a3,3,0,0,1,.14,2.52,5.69,5.69,0,0,1-.73,1.43c-.62.77.43,1.19.34,1.81-.05.32,0,.69-.19.94a5.43,5.43,0,0,0-.86,3.38c0,1.44-2,2.58-3.89,2.32-.5-.7-1.09.44-1.6,0s-1.43-.2-2.15-.3c-.48-.07-1.22.06-1.43-.16-.62-.63-1.16.2-1.63,0a1.47,1.47,0,0,0-1.78.11.8.8,0,0,1-.66,0,.9.9,0,0,0-1.43.08c-.4-.45-1-.4-1.58-.39H93.13c-.85,0-1.71,0-2.56,0s-1.63.05-2.38.09-1.79-.38-2.37-.05a5.51,5.51,0,0,1-2.9.34c-5.38,0-10.77,0-16.15,0-.63,0-1.35-.26-1.92.24a.85.85,0,0,1-.67.13,6.2,6.2,0,0,0-4.73,0,1.84,1.84,0,0,1-1,0,15.23,15.23,0,0,0-6.55,0c-.26,0-.59-.18-.87-.16s-.65.17-1,.21a3.17,3.17,0,0,1-1,0c-.6-.14-1.24-.72-1.79-.34-.78.54-1.23-.26-2-.1a6.16,6.16,0,0,1-2.53,0c-.76-.15-1.25.34-2,.25s-1.4.2-2.05-.21a.27.27,0,0,0-.23,0c-.69.6-1.44.39-2.28.2-.66-.14-1.43,0-2.09-.1a8.51,8.51,0,0,1-2.55-.52c-.72-.41-1.54.63-2.35,0-1.22.7-2.61.27-3.92.32-.45,0-.78-.65-1.49-.16-.24.16-1-.17-1.46-.2-.76,0-1.54,0-2.31,0s-1.75-.23-2.25,0c-.81.47-1.35-.23-1.92,0a2.65,2.65,0,0,1-1.9,0c-.53.63-1.13-.21-1.61,0-1.58.78-3.29.19-4.92.39-.83-.74-1.58-.08-2.36.08A14.36,14.36,0,0,1,3,44.46L.44,41.24A1.19,1.19,0,0,0,.56,41a6.09,6.09,0,0,0,.2-2.52c-.31-.91.28-1.67.11-2.52S.92,34,.81,33.08s.54-1.76-.49-2.47c.27-.82,1.07-1.64.06-2.48a3.21,3.21,0,0,0,0-3.55c1-.71,0-1.38-.06-2.07,1.26-.7-.43-1.37,0-2.11.19-.36-.76-.84,0-1.27C.43,17.7,0,16.22.83,14.85c-.82-.7.28-1.36.06-2.11S1,11,.78,10.13c-.11-.5.85-.78.18-1.35-.48-.4.18-1.14-.54-1.65C.16,6.94.13,6.14.36,6c.69-.4-.11-.92.39-1.42s.1-1.29.08-2A2.89,2.89,0,0,1,2.32.28.77.77,0,0,1,2.84.21C3.41.8,4.05,0,4.23.14,5,.82,5.4,0,5.94,0c1,.09,2-.32,2.91.35.39.29,1.22-.06,1.89.29C11.1.86,12,.31,12.46.47a14,14,0,0,0,4.17.37c.51,0,1.22.4,1.48.25A2,2,0,0,1,19.77.87c.78.3,1.73.64,2.32.3.9-.52,1.45.44,2.2.08A3.28,3.28,0,0,1,25.64.92c.43,0,.86.3,1.29.29S28.14.79,28.21.86c.71.78,1.66,0,2.53.29A3.9,3.9,0,0,0,33.87.92a2.22,2.22,0,0,1,1.35.16A1.49,1.49,0,0,0,36.81,1c.16-.11.58-.21.66-.14,1,.8,2.27.24,3.4.37A2.85,2.85,0,0,0,42.54,1c.37-.18,1.15.23,1.74.23s1.53-.44,2-.24a1.74,1.74,0,0,0,2-.12.85.85,0,0,1,.66.12c.57.51,1.45,0,1.89.3.76.54,1.26-.26,1.93-.06s1.37.47,1.75.29c1.77-.84,3.88.4,5.55-.67.63.69,1.59.45,2.34.36s1.56.64,2.37.1c.26.75.8-.25,1.32.15.37.28,1.26.19,1.92.18.5,0,1.25-.35,1.45-.19.8.61,1.16-.3,1.76-.2s1,.17,1.43.2c.8.06,1.6.09,2.41.1.18,0,.48-.21.52-.17.64.56,1.46.17,2.18.27a3.63,3.63,0,0,0,2.1-.4c.6-.29,1.12.57,1.92.05.46-.3,1.41,0,2.07-.44s1.23.69,1.86,0c.37.62,1.12.13,1.71.32s1.77-.17,2.66-.1c.55,0,1.06-.23,1.66,0a4,4,0,0,0,1.71.13C94,1.18,94.73.77,95,.93a2.83,2.83,0,0,0,1.65.31,17.78,17.78,0,0,0,1.79,0c.21,0,.37-.29.59-.33.61-.11,1.21-.65,1.85-.06a60.57,60.57,0,0,1,9.46.51c.49.6,1,1.24,1.51,1.88.08.1.27.27.26.27-1.06.74-.24,1.76-.63,2.64-.28.63-.79,1.56-.27,2.15s.34,1.26.43,1.89c.06.33-.06.69.05,1,.17.48.59.92.67,1.39a7,7,0,0,1-.19,1.56c0,.61,0,1.22,0,1.82s-.27,1.25.06,1.59c.62.62-.34,1-.07,1.52.13.23,0,.58.2.74.47.38.24.6,0,1s0,1,0,1.48c0,.31.24.61.27.92.06.72-.23,1.5.8,2,.08,0,.13.24.09.27a1.15,1.15,0,0,0-.29,1.67c.59.7-.3,1.16-.09,1.73s-.22.94.41,1.3a.45.45,0,0,1,0,.52C113.18,31,112.88,31.29,113.45,31.64Z"/></g><g id="レイヤー_2" data-name="レイヤー 2"><path class="cls-1" d="M91.12,25.76c3.08,2.35,3.37,2.77,3.66,3.2-.92.79-2.26.61-3.33,1.2-.13.08-.4-.14-.61-.16a4.5,4.5,0,0,0-1,0c-.16,0-.31.24-.44.22A13.1,13.1,0,0,0,88,29.87c-.46,0-1,.24-1.39.12a1.32,1.32,0,0,0-1.13,0c-.34.17-1,.32-1.15.15-.8-.73-1.39-.09-2,.17-.9.38-1.51,0-1.5-1,.62-.4-.46-1.19.36-1.54-.5-.74.22-1.47,0-2.22a.75.75,0,0,1,.35-.93.85.85,0,0,1,.6-.11c.44.23.51.74.56,1.49a6,6,0,0,0,.54,1.71c.06.16.36.28.57.31a7.76,7.76,0,0,0,1.08,0c1.2,0,1.29-.15,1.37-1.31s.22-2.17.35-3.45c-1,.25-1.89-.3-2.76.41-.07.06-.43-.12-.58-.26-.36-.35-.67-.73-1.16-.15-.06.07-.48,0-.58-.15-.58-.77-1.14-1.56-1.66-2.38a3,3,0,0,1-.19-1l1.8-.09a2.73,2.73,0,0,1,.07-.54A6.93,6.93,0,0,0,81.63,15a2.58,2.58,0,0,1,.89-1.77l.64-.32L83.48,14c0,.16.21.42.16.45-.94.83.21,1.61,0,2.43-.08.39.33.75.82.71.3,0,.73-.32.86-.21.39.33.79.18,1.19.21s.72,0,1.08,0a2.64,2.64,0,0,0,1.54-.65.49.49,0,0,0,.16-.75c-.16-.27-.34-.82-.22-.93.52-.46.28-1,.31-1.51.07-1,.23-1.17,1.28-1.21h.73c.58.68-.22,1.14-.29,1.72-.05.32-.35.78-.23.94A1.77,1.77,0,0,1,91,17.31s.14.26.22.26a5.82,5.82,0,0,1,1.72.36,2.8,2.8,0,0,0,.59.16,12.38,12.38,0,0,1-1.13,1c-.21.16-.64.34-.76.25-.62-.47-1.2,0-1.68.13s-.63.33-1,0c-.22-.2-.46-.07-.6.32s.65.76.08,1.18c.17.08.35.23.51.22s.58-.17.87-.16.79.18,1.18.16.63-.34.93-.32a8.09,8.09,0,0,1,1.48.39c-.06.14-.1.22-.13.3C92.72,23,92.72,23,91.2,23a4.32,4.32,0,0,0-1.84.36,4.66,4.66,0,0,1-1,.19,6,6,0,0,0,1.06.68,11.18,11.18,0,0,0,1.33.27c.35.09.41,1,1,.34A3.23,3.23,0,0,1,93,26.59c.13.36-.58.82-1,.65s-.95-.65-1.35-.58-.56-.74-1-.16c-.32.4-.57-.19-.88-.24-.14,0-.44.12-.43.17,0,.52-.45.67-.66,1a.56.56,0,0,0,0,.47.62.62,0,0,0,.47.14,5.67,5.67,0,0,1,.87-.19c.34,0,.66.17,1,.19.54,0,1.22.21,1.59,0,.57-.39.93.16,1.36,0s.61-.27-1.87-2.28c-2.76-1.94-2.76-2-2.76-2a1.16,1.16,0,0,0-.28.1s0,.15.06.22S88.29,23.93,91.12,25.76Zm-9.45-5.48c.35.44.8.77.86,1.15.14.79.32.2.59.15.46-.1,1.16-.23,1.4,0,.73.73.75-.45,1.18-.34,0,0,.08.09.13.12.54.4.7.21.73-.39s-.36-1.12-.59-1.69A6,6,0,0,1,81.67,20.28Z"/><path class="cls-1" d="M98.73,22.28c-.45.17-.42.8-1.18.44S97,22,97.07,21.66c.27-.73.28-1.58,1-2.11.35-.24.5-.74.78-1.1s.64-1,1.09-1.19c.67-.27.57-1,1.06-1.29.15-.08.47.13.62,0a3,3,0,0,0,.6-.63c.33.52.64,1,.93,1.47a.33.33,0,0,1-.12.29,8.9,8.9,0,0,1-1.25.89c-.63.31-.58,1.26-1.37,1.4,0,0,0,.22,0,.23,1,.5-.3,1.59.54,2.13a18,18,0,0,0,1.58,5.39c.2.33.49.62.88.18.17.47.51,1,.45,1.4s-.55,1-.84,1a2.09,2.09,0,0,1-1.46-.71c-.78-1-1.16-2.28-1.94-3.32C99.86,24.48,98.89,23.52,98.73,22.28Z"/><path class="cls-1" d="M107.24,24.86c.79-.25,1.41.17,2.09.15.24,0,.45.15.76,0s.77-.23.94-.08c.38.36.78.19,1.17.25,1.4.23,1.7.68,1.85,1.94.08.69-.25,1.42.2,2.08a.39.39,0,0,1-.1.37,16.6,16.6,0,0,1-1.64,1.26c-.29.2-.57-.56-1-.09-.1.11-.55-.16-.82-.13s-.71.36-.73.33c-.47-.72-1.56-.69-1.84-1.72C107.72,27.79,106.9,26.48,107.24,24.86Zm2.17,2.1a7.52,7.52,0,0,0,.3,1.1,4.24,4.24,0,0,0,.51.69c.47-.94,1.11.41,1.63-.11,0-.18,0-.36,0-.53s0-.24,0-.36c-.05-.91-.05-.9-1.17-.79C110.29,27,109.88,27,109.41,27Z"/><path class="cls-1" d="M109.09,15.4c-.58-.42-.7-1.16-1.43-1.52a1.19,1.19,0,0,1-.33-1.68c.12-.18.41-.41.55-.37.53.15,1.23.25,1.5.63.46.67,1.21,1.23,1.08,2.26-.1.78.25,1,1,1a6.49,6.49,0,0,0,1.08,0c.24,0,.57-.27.68-.19a3.85,3.85,0,0,1,.78.92c.08.13.08.48,0,.52-.56.3-1.19.84-1.71.76-1.1-.16-2.14-.44-3.19.16-.1.05-.34-.05-.47-.14a1.41,1.41,0,0,0-1.47-.05,1.91,1.91,0,0,1-2-.09c-.27-.18-.75-.13-.57-.63.11-.31.28-.74.53-.84a7,7,0,0,1,1.81-.39c.64-.06,1.3,0,1.94,0Z"/><path class="cls-1" d="M113.71,19.89c-.29.3-.55.54-.8.8-.43.48-.88.78-1.48.24-.08-.06-.25-.13-.31-.09-1.28.73-2.67.14-4,.37a1.86,1.86,0,0,1-1,0c-.56-.16-.43-.47-.43-.78s-.1-.6.45-.76a6.8,6.8,0,0,1,2.26-.34c.6,0,1.15-.46,1.83-.35.27,0,.57-.18.86-.17s.66.16,1,.17.4.23.52.52S113.23,19.75,113.71,19.89Z"/><path class="cls-1" d="M106,22.27c.6,0,1.28.2,1.61-.05.51-.38.79.11,1.18.07s.8,0,1.1-.35c.31.41.57.22,1,.09a3.81,3.81,0,0,1,3.16.41c-.63.36-.7,1.15-1.43,1.44-.29.11-.44.24-.77.06s-1-.72-1.11.31c0,0-.29.05-.35,0a1,1,0,0,0-1.65-.19c-.4.3-1-.11-1.58-.18S106.17,23.14,106,22.27Z"/></g></svg>