<svg xmlns="http://www.w3.org/2000/svg" viewBox="0 0 248.36 46.21"><defs><style>.cls-1{fill:#fff;}</style></defs><g id="レイヤー_1" data-name="レイヤー 1"><path d="M247.56,32.64c-.11-1.27.46-2.67-.17-3.81a5.39,5.39,0,0,1-.4-3.1c0-.43,0-.85,0-1.29a4.82,4.82,0,0,1,.41-3.1c.56-.9.38-2.07.76-3.11-.95-.43-.58-1.08-.62-1.65s.82-1,0-1.49a1.69,1.69,0,0,0,.51-2.42c-.64-.77,1.15-1.63-.49-2.19-.06,0,.09-.36.21-.53a1.86,1.86,0,0,0-.06-2.6.55.55,0,0,1-.08-.54c.13-.39.64-1,.45-1.11-.92-.51.55-1,0-1.27-1.11-.54.65-.89.07-1.33a7.3,7.3,0,0,0,0-.81c-.05-.53-.52-.87-1.33-.9-2.43-.09-4.9.22-7.28-.38-.31-.08-.84.29-1.3.36-1,.15-.51-.68-1-.74-1.46-.18-3.05.14-4.42-.46-.66.61-1.26.42-2,0a2.47,2.47,0,0,0-1.4.17,1.75,1.75,0,0,1-1.33,0C227.5.28,226.83.3,226.2.2a3.52,3.52,0,0,0-2,.21c-.45.22-1.31-.64-1.92.08-1.29-.35-2.51.23-3.82.11-1.55-.13-3.36.28-4.63-.12-1.12-.34-2.36.72-3.06-.31a21.48,21.48,0,0,1-8.89,0,.89.89,0,0,0-.56.08c-.53.51-1.33.33-2,.3-1.31-.06-2.62,0-3.94-.15s-2.49.27-3.78-.21c-.41-.15-1.41.3-1.73.13a5.19,5.19,0,0,0-3.16-.16c-1.78.21-3.72-.46-5.41.39-.13.07-.54-.09-.82-.14C180,.33,179.3.08,179.06.2a4.43,4.43,0,0,1-3.15.31c-1-.49-2.14.59-2.76-.33-.87.76-1.66-.36-2.63,0-.5.16-1.19.65-2,.06-.52-.38-1.35.55-2,.12-1-.66-1.25.46-2.19.31a24.57,24.57,0,0,0-3.75-.05h-4.08a17.75,17.75,0,0,1-3.73,0c-1.31-.31-2.48.43-3.57,0-1.27-.46-2.45,0-3.56.1a5.61,5.61,0,0,1-2.44.11c-.75-.19-1.89.31-2.74.17a12.74,12.74,0,0,0-3,0c-2.69.17-5.43.08-8.14,0-.87,0-2.86.63-2.93,1.16-.26,1.86-1.53,3.62-1.32,5.54,0,.41.79.75.11,1.31-.42.34.08,1.09-.22,1.55s-.06.46,0,.74a18.12,18.12,0,0,1,.14,3.21c-1,.26.33.86-.43,1.17-1,.41-.49,1-.44,1.57a6.84,6.84,0,0,1,.22,1.15c0,.44-.33.87-.35,1.31s.49.79.29.95c-.72.56-.81,1-.06,1.57.24.19.15.64,0,.93-1,2.15-.49,4.34-.24,6.5,0,.48.29.87,0,1.4s.45,1.09.28,1.57a2.66,2.66,0,0,0,0,2,5.47,5.47,0,0,1,.06,2v1.82a13.59,13.59,0,0,0,0,2,9.74,9.74,0,0,0,.6,1.66c-1.6.32.48,1.15-.52,1.55-.14,1.28,1.21,1.87,3,1.73a62.17,62.17,0,0,1,8-.09c.73,0,1.5.4,2.12,0,1-.68,1.35.67,2.16.25,1.48-.77,3.19-.27,4.78-.38,1.13-.08,2.51.22,3.37-.11a6.11,6.11,0,0,1,3.24-.24,10.42,10.42,0,0,0,2.64-.08c1-.06,2.05.26,2.93-.35.2-.14.95,0,1.43.09a7,7,0,0,0,1,.24c1-.82,2-.17,3,0,.53.11,1.32.41,1.53.29a2.93,2.93,0,0,1,2.55-.14c.94.44,1.28-.38,2.12-.19a13.68,13.68,0,0,0,2.8,0c.94,0,1.89,0,2.83,0a15.72,15.72,0,0,1,3,.18c.94.21,1.5-.4,2.44-.24.64.12,1.67-.46,2.18-.3a6.66,6.66,0,0,0,2.3.35,12.86,12.86,0,0,1,2.49,0,3.46,3.46,0,0,0,2,0c.35-.12,1,.45,1.6,0,.37.6,1.47-.41,1.78.34.64-.13,1.27-.29,1.93-.38a2.59,2.59,0,0,1,.84.14c.35.07,1,.22,1,.2.61-.89,1.56.18,2.23-.18.94-.5,1.64.06,2.45.21a2.37,2.37,0,0,0,1.22,0c.84-.61,1.57,0,2.33,0,1,0,2.08-.33,3,.29a1.4,1.4,0,0,0,.82,0c2.69-.74,5.51-.13,8.25-.33.88.55,1.94-.25,2.58,0,1.13.51,2,0,3,0a17.07,17.07,0,0,1,4.46.38,14.84,14.84,0,0,0,2.5,0H231c.83,0,1.67,0,2.5,0a16.07,16.07,0,0,1,2.1.18,6.5,6.5,0,0,0,1.89-.16,13.1,13.1,0,0,1,2.8,0,6.82,6.82,0,0,1,2.13.57c.72.33,1.37-.73,2,0,1-.14,2.21,0,2.75-.66a1.17,1.17,0,0,0,.13-1.45c-.48-.46-.35-.88-.4-1.32a4.51,4.51,0,0,1,0-1.42c.11-.49.52-1,.57-1.45.1-.87-.4-1.9.15-2.59s-1.09-1.63.5-2.18c0,0,0-.29-.11-.36C247,34.12,247.63,33.34,247.56,32.64Z"/><path d="M.85,32.64C1,31.37.37,30,1,28.83a5.1,5.1,0,0,0,.43-3.1c0-.43,0-.85,0-1.29,0-1,.29-2-.44-3.1-.61-.9-.41-2.07-.82-3.11,1-.43.63-1.08.67-1.65s-.89-1,0-1.49a1.61,1.61,0,0,1-.54-2.42C1,11.9-.9,11,.87,10.48c.06,0-.09-.36-.22-.53a1.77,1.77,0,0,1,.06-2.6A.53.53,0,0,0,.8,6.81C.66,6.42.1,5.81.31,5.7c1-.51-.59-1,0-1.27C1.48,3.89-.4,3.54.22,3.1a5.47,5.47,0,0,1,0-.81c.06-.53.57-.87,1.43-.9C4.26,1.3,6.91,1.61,9.48,1c.33-.08.89.29,1.39.36C12,1.52,11.42.69,12,.63c1.57-.18,3.28.14,4.75-.46.71.61,1.35.42,2.17,0a2.82,2.82,0,0,1,1.5.17,2,2,0,0,0,1.44,0c.59-.13,1.31-.11,2-.21A4,4,0,0,1,26,.41c.48.22,1.41-.64,2.06.08,1.39-.35,2.7.23,4.11.11,1.66-.13,3.61.28,5-.12,1.2-.34,2.53.72,3.28-.31A24.8,24.8,0,0,0,50,.18a1,1,0,0,1,.59.08c.57.51,1.43.33,2.15.3C54.13.5,55.53.53,57,.41S59.63.68,61,.2c.44-.15,1.51.3,1.86.13A5.94,5.94,0,0,1,66.27.17c1.91.21,4-.46,5.8.39.15.07.58-.09.89-.14.5-.09,1.21-.34,1.47-.22a5.07,5.07,0,0,0,3.38.31c1.06-.49,2.3.59,3-.33.94.76,1.79-.36,2.84,0,.53.16,1.27.65,2.15.06.56-.38,1.45.55,2.17.12C89-.35,89.27.77,90.28.62a28.38,28.38,0,0,1,4-.05h4.38a20.49,20.49,0,0,0,4,0c1.41-.31,2.66.43,3.83,0,1.36-.46,2.63,0,3.82.1A6.47,6.47,0,0,0,113,.76c.82-.19,2,.31,3,.17a14.61,14.61,0,0,1,3.17,0c2.9.17,5.83.08,8.75,0,.94,0,3.07.63,3.15,1.16.28,1.86,1.64,3.62,1.41,5.54-.05.41-.85.75-.11,1.31.44.34-.08,1.09.23,1.55s.07.46,0,.74a16.42,16.42,0,0,0-.16,3.21c1.07.26-.35.86.47,1.17,1.07.41.52,1,.47,1.57a6,6,0,0,0-.24,1.15c0,.44.35.87.38,1.31s-.52.79-.31.95c.77.56.86,1,.06,1.57-.26.19-.16.64,0,.93,1.08,2.15.53,4.34.26,6.5-.06.48-.32.87,0,1.4s-.48,1.09-.29,1.57a2.48,2.48,0,0,1,0,2,5.07,5.07,0,0,0-.06,2v1.82a12.36,12.36,0,0,1,0,2,9.2,9.2,0,0,1-.65,1.66c1.72.32-.51,1.15.56,1.55.16,1.28-1.3,1.87-3.27,1.73a71.72,71.72,0,0,0-8.55-.09c-.79,0-1.61.4-2.29,0-1.08-.68-1.44.67-2.31.25-1.59-.77-3.42-.27-5.13-.38-1.22-.08-2.7.22-3.62-.11a7.07,7.07,0,0,0-3.49-.24,12,12,0,0,1-2.83-.08c-1-.06-2.2.26-3.15-.35-.21-.14-1,0-1.54.09a7.92,7.92,0,0,1-1.11.24c-1.12-.82-2.14-.17-3.19,0-.57.11-1.41.41-1.64.29a3.36,3.36,0,0,0-2.74-.14c-1,.44-1.38-.38-2.28-.19a15.8,15.8,0,0,1-3,0c-1,0-2,0-3,0a18,18,0,0,0-3.24.18c-1,.21-1.62-.4-2.62-.24-.7.12-1.8-.46-2.35-.3a7.61,7.61,0,0,1-2.47.35,14.77,14.77,0,0,0-2.67,0,4,4,0,0,1-2.19,0c-.38-.12-1.1.45-1.73,0-.39.6-1.57-.41-1.9.34-.69-.13-1.37-.29-2.08-.38a3,3,0,0,0-.9.14c-.38.07-1.08.22-1.1.2-.65-.89-1.67.18-2.39-.18-1-.5-1.77.06-2.64.21a2.68,2.68,0,0,1-1.3,0c-.91-.61-1.69,0-2.51,0-1,0-2.23-.33-3.17.29a1.61,1.61,0,0,1-.88,0c-2.9-.74-5.93-.13-8.87-.33-.94.55-2.09-.25-2.76,0-1.22.51-2.14,0-3.2,0a19.55,19.55,0,0,0-4.78.38,17.2,17.2,0,0,1-2.69,0H18.62c-.9,0-1.8,0-2.7,0a18.62,18.62,0,0,0-2.25.18,7.47,7.47,0,0,1-2-.16,15.14,15.14,0,0,0-3,0,7.71,7.71,0,0,0-2.28.57c-.78.33-1.48-.73-2.13,0-1-.14-2.37,0-3-.66-.36-.4-.5-1.12-.13-1.45s.37-.88.42-1.32a4.23,4.23,0,0,0,0-1.42c-.12-.49-.56-1-.62-1.45C.81,39,1.36,38,.76,37.28S1.93,35.65.23,35.1c-.06,0,0-.29.12-.36C1.44,34.12.79,33.34.85,32.64Z"/></g><g id="レイヤー_2" data-name="レイヤー 2"><path class="cls-1" d="M23.2,12.67c.15.12.29.32.45.34a4,4,0,0,1,2.45.93c.27.22.7.59,1.22.21.18-.14-.1,1.13.61.32.18.22.37.44.54.67.61.82,1.55,1.34,1.93,2.39a5.19,5.19,0,0,0,1.32,2.1,2,2,0,0,1,.66,1.48,4.64,4.64,0,0,0,.3,2.16,1.91,1.91,0,0,1-.16,1.48A4.7,4.7,0,0,0,32,26.82a2.65,2.65,0,0,1-.53,1.35c-.34.5-1,.79-.88,1.59,0,.13-.29.35-.48.48-.76.55-1.59,1-2.3,1.64-1.2,1-1.37,1.18-2.47,1.21-.52,0-1.06-.07-1.39.49-.19.31-.42-.07-.48,0-.69.29-1.3-.2-2-.15-.35,0-.72,0-1.12,0a5.16,5.16,0,0,1-3.25-1c-.93-.58-2.1-.79-2.83-1.69-.79.47-.95-.39-1.36-.68a10.91,10.91,0,0,1-1.45-1.17c-.26-.26-.61-.63-.59-.92a2.33,2.33,0,0,0-.73-1.82,4,4,0,0,1-.33-.57c.87-.47-.43-1.1.11-1.56s-.54-.67-.08-1c.62-.41-.33-.64-.06-1s.47-.62.7-.93.36-.39.34-.56c-.17-1.49.92-2.24,1.79-3.13A8.36,8.36,0,0,0,14,16c.29-.49,1.17-.29,1.16-1.08,0,0,.42-.06.6-.18.55-.35,1.33-.2,1.78-.8a.66.66,0,0,1,.43-.23c1.06-.14,2.13-.28,3.2-.35a1,1,0,0,0,1-.72h.35l.12.29.24-.29Zm6.4,9.43c-.07-.19-.11-.41-.2-.6-.84-1.77-1.53-3.69-3.75-4.25,0,0-.16,0-.16,0-.1-.83-.89-.49-1.23-.75-.55-.41-1.11.41-1.57-.25-.71-1-1.68-.8-2.75-.55-.79.18-1.42.64-2.14.8s-1,.6-1.47.66c-.9.13-.28.93-.72,1.15a10.58,10.58,0,0,0-1.31.64c-.18.13-.24.49-.27.75-.06.57,0,1.15-.12,1.71s-.38,1-.42,1.45a6.39,6.39,0,0,0,.18,1.49c.07.46.14.92.2,1.38.2,1.48,1.32,2.41,2.14,3.5a3.36,3.36,0,0,0,1.34,1c.13,0,.5-.31.73.08.37-.67.72.11,1.12,0s1.12-.19,1.35.05c.49.52,1.09.14,1.62.41.38.19,1-.08,1.52-.13,1.11-.13,1.94-1,3-1.21,0-.67.79-.86,1-1.36s.63-.85.76-1.23.42-1,.63-1.5.06-1.2.48-1.75C29.83,23.19,29,22.63,29.6,22.1Z"/><path class="cls-1" d="M20.18,21.93c-.49-.49-.8-.91-1.16-1.27a3,3,0,0,1-1.13-2.17c0-.12-.21-.25-.33-.37l.9-.9c.69,1,1.9,1.54,2.57,2.6a.88.88,0,0,0,.57.22c.36-.54,1.21-.58,1.37-1.32a1.19,1.19,0,0,1,.23-.43c.54-.83,1.3-.86,1.76-.06a7,7,0,0,1,.35.8l-1,1c-.25.24-.45.59-.74.68-.54.19-.2.59-.33.85-.06.11-.29.13-.39.24a2.8,2.8,0,0,0-.31.5c.15.06.3.2.43.19a3.16,3.16,0,0,1,1.93.44c.45.24.56.69.4,1.31h-2.7a1.77,1.77,0,0,0-.05.61c.14.42.21,1,.91.5.31.42.59.38,1,.05.14-.11.53.51,1,.09.11-.11.61.19.94.31-.1.24-.17.49-.28.72a1.17,1.17,0,0,1-1.45.71c-.4-.09-.91.62-1.22-.15-.18.22-.55.49-.5.64.25.82-.61.67-.84,1-.44-.28-1-.48-1.28-.88-.63-1-.69-1.1-1.62-1.15a4.69,4.69,0,0,0-.53,0,1,1,0,0,1,.72-1.39,8.39,8.39,0,0,1,1.34,0l.07-1.44a3.6,3.6,0,0,0-1.36.19c-.5.32-.62-.43-1-.21a.7.7,0,0,1,0-.25c.37-.76.39-1.85,1.8-1.71.11,0,.06,0,0-.11L20,22a1.46,1.46,0,0,0,.21.16S20.31,22.07,20.18,21.93Z"/><path class="cls-1" d="M24.58,20.27s-.1.12-.11.11a1.06,1.06,0,0,1-.21-.16l.15-.16Z"/><path class="cls-1" d="M18.61,26.91l-.21.16c0-.07-.08-.19-.06-.21a1.28,1.28,0,0,1,.27-.11Z"/><path class="cls-1" d="M162.48,25.2a2.6,2.6,0,0,1-2.28,0c-.26-.1-.69.23-.62.46.16.5.64,1.15.47,1.45-.34.61,0,1.18-.26,1.74a1.34,1.34,0,0,1-1.73-1,6.22,6.22,0,0,1-.35-1.11,9.65,9.65,0,0,1,0-1.33l-3.52.46c.09.79.22,1.57.24,2.35,0,.59-.2.52-1,.5s-.63-.51-.9-.9a4.21,4.21,0,0,1-.62-1.62c-.09-.41.76-.87,0-1.32a1.23,1.23,0,0,0,.2-1.58c-.23-.52.36-.87.18-1.4s.11-1.34-.28-2.06c-.23-.42.19-1.17.25-1.78a20.2,20.2,0,0,1,.28-2,1,1,0,0,1,.83-.88c1.37-.27,2.72-1.12,4.16-.21.17.11.47,0,.71,0a4.72,4.72,0,0,1,3.15.66c.45.33.74-.58,1.17,0,.21.3.66.42,1,.66s.6.4.62.63a3.71,3.71,0,0,0,.78,2.57c-.76.49-.05,1.37-.51,1.95-.07.08-.17.23-.15.24,1,1,0,2.14.29,3.19a5.69,5.69,0,0,0,.3,1.51c.22.44-.27,1.19-.26,1.8a1.76,1.76,0,0,1-.55,1.23c-.33.4-.49.2-.81,0-.15-.08-.47.16-.84.31,0-.55-.17-1.17,0-1.58s.55-1.12.21-1.51C162.14,26,163.36,25.73,162.48,25.2Zm-8.4-8.35c0,.86,0,1.64,0,2.42,0,1,.47,1.32,1.34,1,.37-.16.52-.24.91,0s1-.35,1-.7c-.12-1.62-.09-1.91.27-2.61-.52-.15-1.25-.6-1.53-.4C155.43,16.92,154.78,16.56,154.08,16.85Zm8.74,2A5.36,5.36,0,0,0,160.3,17c-.66-.24-1.11-.07-1.14.61,0,.33.18.66.18,1s-.2.58-.18.86.19.66.37.71c.51.14,1,1.05,1.6.21a.78.78,0,0,0,1.06.3c.23-.19.11-.75.22-1.13A3.07,3.07,0,0,1,162.82,18.85ZM154,22.34a1.61,1.61,0,0,1,.21.55c0,.22-.15.45-.16.67a.55.55,0,0,0,.23.39,4.57,4.57,0,0,0,1.94-.53.46.46,0,0,1,.25-.1c1.13,0,1.19,0,1.19-.69,0-.32-1-1-1.24-.81C155.75,22.55,154.84,21.83,154,22.34Zm8.54,1.26a6.49,6.49,0,0,0-1.06-1c-.44-.23-1.09.19-1.46-.4l-.84.6c.4.16.13,1,.89.85A19.6,19.6,0,0,1,162.58,23.6Z"/><path class="cls-1" d="M128.39,29.31c0,.55.12,1,0,1.24s-.34,1.16-1.17.65a1.49,1.49,0,0,0-.89,0,7.43,7.43,0,0,1-2.88-.45c-.18-.7-.54.36-.94-.14a21,21,0,0,0-2.22-2,1.09,1.09,0,0,1-.18-.81c.07-.61.22-1.22.34-1.83.87-.27.92-1.4,1.78-1.68a1.54,1.54,0,0,0,.44-.23c.31-.24.49-.51.12-.87a6.34,6.34,0,0,1-1.48-2.09,12.17,12.17,0,0,1-.84-2.17c-.16-.69-.79-.63-1.19-.73a8.84,8.84,0,0,0-2.08,0v-.91c0-.57.34-.83.86-.89s.85.09,1.12-.36c.59.66.72,0,.9-.35.07-.14,0-.35,0-.53.13-.79.54-1.07,1.36-.94a.88.88,0,0,1,.73,1.29c-.09.28-.33.51,0,.64.68.23,1.39.37,2.08.55,1-.78,2-.16,3,.07a1.52,1.52,0,0,1,.77.61c.21.31-.14.89-.51.77s-.6.76-1,.15c-.1-.14-.52.42-.75-.06-.26.42-.6,0-.89.08a3.73,3.73,0,0,0-1.09.41c-.3.22-.35,0-.53-.1-.52-.14-.82.18-.59.66a12.58,12.58,0,0,0,.89,1.43c.28.43.79.64,1,1.24.12.4.64.2,1.06,0a1.69,1.69,0,0,1,2.32.53A1,1,0,0,1,128,23a3.09,3.09,0,0,1,0,.57h-1.56c-.38.53-.14.86.11,1.31.71,1.29.61,1.57-.48,2.7-.27-.24-.52-.66-.79-.68-.77,0-.45-.57-.48-.91s.6-.36.09-.63c-.3-.15-.79-.38-.94-.26a3.55,3.55,0,0,0-1.71,2.49,1,1,0,0,0,.53,1A2.3,2.3,0,0,0,124,29C125.46,28.77,126.78,29.64,128.39,29.31Z"/><path class="cls-1" d="M174.91,28.27c-.67-.49-1.15-1-.93-1.84.29-1.05-.52-1.67-.95-2.49-.22.49,0,1.23-.85,1.28-.29,1.13-1.48.76-2.16,1.26a.59.59,0,0,1-.52,0A10.34,10.34,0,0,1,167.62,25a2.44,2.44,0,0,1-.53-1.93,9.63,9.63,0,0,0,0-1.42c2-2,3-2.32,4.66-1.69V17.83c-.48.12-1.13.48-1.36.31-.56-.44-.92.08-1.36.06a11.76,11.76,0,0,0-1.56.15h-.38c.06-.52-.7-.95-.31-1.44S167.35,16,168,16c1,0,2,0,3.07,0a4.11,4.11,0,0,0,.67-.12c-.07-.17-.25-.4-.2-.5.23-.38.53-.72.8-1.09.46.39,1.48.38,1.28,1.46,0,.06.23.22.37.25s.57.11.7,0c.54-.49,1-.16,1.53,0a3.55,3.55,0,0,0,1,0c0,.28,0,.5,0,.72-.08.82-.3,1.05-1,1.08-.48,0-1,0-1.45,0-.81.1-1.44.86-1.09,1.49a4.24,4.24,0,0,1,.33,1.86,1.12,1.12,0,0,0,.2.63,2.67,2.67,0,0,1,.88,2c.47.12.15,1,.86.9,0,0,.18.2.16.21-.62.67-.17,1.49-.3,2.22,0,.11,0,.26-.07.33C175.48,27.72,175.21,28,174.91,28.27Zm-3.46-6.1c0-.1-.08-.29-.12-.29-.56,0-1.23-.13-1.65.13a1.93,1.93,0,0,0-.69,1.42c0,.3.6.68,1,.87s.79-.12,1-.47c.12-.17.13-.44.27-.59s-.47-.7.14-.9C171.45,22.33,171.44,22.23,171.45,22.17Z"/><path class="cls-1" d="M183.39,20.9c.46.32.67,1,1.43.93.27,0,.54.41.83.59.56.36.59,1.24,1.36,1.4A7.25,7.25,0,0,1,187,26a9,9,0,0,0-.34,2c0,.42-.89.28-.76.91-.75.38-1.48.81-2.25,1.12-.23.09-.59-.22-.9-.28a3.25,3.25,0,0,1-2.16-.87c-.24-.29-.77-.05-.83-.72a8.51,8.51,0,0,1-.31-2,1.75,1.75,0,0,1,1.25-1.08c.48,0,1.21.19,1.39-.05.38-.47.82.2,1.1-.23,0-.07.44,0,.59.11a8.47,8.47,0,0,1,.91.89c.69-1.17-.45-1.73-1-2.27a7.87,7.87,0,0,0-2.47-1.15,4.21,4.21,0,0,0,0-.79,1.52,1.52,0,0,1,1-1.87c.6-.16.37-.66.71-.85a3.9,3.9,0,0,0,.81-.66c.26-.25.5-.54.79-.87a4.39,4.39,0,0,0-3.61-.4c-.11,0-.2.19-.28.18-.4,0-.8-.11-1.19-.17.09-.44-.2-.94.25-1.34s.74-.88,1.35-.63,1-.63,1.61-.24c.37.23.82,0,1.25.2s1.16.15,1.62.42a2.31,2.31,0,0,1,1.13,1.54,1.6,1.6,0,0,1-.56,1.75C185.13,19.32,184.52,20.41,183.39,20.9Zm-1.81,6.18c.5.26.68,1,1.45.85.25-.06.71.17.69-.28,0-.26-.36-.51-.55-.76C182.69,27.51,182.17,26.43,181.58,27.08Z"/><path class="cls-1" d="M138.17,29.34a4.22,4.22,0,0,1-.66,0c-.93-.07-1.09-.26-1.17-1.13s-.22-1.85-.37-3.18c-.56.8-.9,1.29-1.23,1.78a11.09,11.09,0,0,1-.65,1c-.6.68-.92.66-1.62.05-.3-.26-.64-.47-1.22-.89,1-.11,1.42-.26,1.72-.86a8.19,8.19,0,0,0,.87-1.63c.15-.51.07-.84-.39-.88s-.73,0-1.09,0a2,2,0,0,1-.79-.26c-.25-.14-.93-.08-.61-.56.22-.32,0-1.06.77-1s1.23-.35,1.88,0a1.67,1.67,0,0,0,.89,0c.8-.11,1.49-.94,1.07-1.5-.64-.88,0-1.12.42-1.57.23-.27.85-.11.78-.75,0-.11,1,.39,1,.67s-.25.51-.29.78.19.47.18.48c-.73.39.44,1-.19,1.4.25.09.33.77.77.22a3.65,3.65,0,0,0,2.16.26c.71,0,.93.58,1.37.93a6.29,6.29,0,0,1-2.41.89,2.79,2.79,0,0,0-1.05.06.74.74,0,0,0-.52.85c.78-.06-.51,1.09.52.9a1.13,1.13,0,0,1,1.25.49.4.4,0,0,0,.37.06c.77-.54.77,0,.75.53a1.21,1.21,0,0,1-1.82,1.08c-.21-.1-.38-.26-.58-.35s-.29,0-.33,0-.2.42-.15.45C138.34,28.12,138.11,28.68,138.17,29.34Z"/><path class="cls-1" d="M67.39,24.32A10.23,10.23,0,0,1,66.88,23c-.15-.85.29-1.68.08-2.54.69-.59.41-1.66,1.14-2.24a.91.91,0,0,0,.21-.62,2.06,2.06,0,0,1,.7-1.69,1.34,1.34,0,0,0,.32-1.46,16.44,16.44,0,0,1,2.14,1,.9.9,0,0,0,1.24,0c.27-.23.55.52.77,0,.86.9,2.12.54,3.14,1,.5.22.79.48.74,1s.1.89-.28,1.34c-.17.21.3.92.13,1.17-.31.47,0,1-.23,1.35a6,6,0,0,0-.66,2.42c-.13.75-.94,1.39-.43,2.26-.6.83-.68,2.09-2.09,2.29,0-.19.08-.58-.07-.72-.54-.49-.1-.88-.06-1.35s-.16-.71.06-1.14a7.07,7.07,0,0,0,.88-2.14c.1-.64.2-1.3.26-2a14.67,14.67,0,0,1,.68-2.56,6.39,6.39,0,0,0-2.35-.54c-.23,0-.49-.22-.75-.34a2.56,2.56,0,0,0-2,0c-.15.08-.24.34-.29.53a19.65,19.65,0,0,1-1.46,4.08C68.34,22.74,68,23.36,67.39,24.32Z"/><path class="cls-1" d="M102,18.19c-.61.12-1.22.28-1.84.34s-1.35-.21-1.77.07c-.66.44-1.15-.41-1.8.12,0,1.21-.23,2.59.54,3.74.36.55-.52,1.06.17,1.44-.26.44.64.87,0,1.34,0,0,0,.34.12.47.69.95-.15,1.73-.33,2.56-.1.48-.73.54-1,.34a2.08,2.08,0,0,0-1-.33c-.44,0-.46-.44-.21-.61.76-.5.63-1.23.59-1.92,0-.43-.43-1.07-.27-1.24.56-.6-.2-.63-.27-.93,0-.12,0-.26.06-.38.05-.83.14-1.65.11-2.47,0-.24-.37-.46-.56-.69.5-.22-.5-.71.17-.9-.3-.2-.65-.6-.9-.56-.94.19-1.85-.63-2.78,0a.58.58,0,0,1-.53,0c-.35-.31-1.1-.05-1.16-.77a.91.91,0,0,1,.73-1c.26-.09.45-.35.7-.5a.44.44,0,0,1,.37,0c.59.24,1.13.81,1.8.17a2.85,2.85,0,0,0,1.92.36,19.08,19.08,0,0,1,1-2c.22-.33.65-.39.69.19,0,.27.69.49.09.81.14.87.57,1.11,1.66,1,.47-.06,1.15.13,1.37-.11.51-.56.64.26,1,.15s.85.19,1.28.31Z"/><path class="cls-1" d="M102,17.1c-.16-.59.33-.83.63-1.17s.54-.93.82-.94a3.15,3.15,0,0,1,1.75.49,6.23,6.23,0,0,0,1.36.64c.42.17,1.12.4.89,1.18,1.3.51.67,1.5.53,2.3-.29,1.64-.4,1.68-1.53,2.28a1.76,1.76,0,0,1-2.09-.05,10.84,10.84,0,0,0-1.47-.78c-.08-.05-.1-.21-.17-.29a3,3,0,0,1-.72-2.57C102.47,17.82,102.47,17.47,102,17.1Zm3.74,2.9.55-.24c-.28-.6.07-1.29-.41-1.89s-.63-.17-1-.06a.4.4,0,0,1-.31-.1c-.58-.43-.75.17-.77.43C103.75,18.92,104.78,19.93,105.71,20Z"/><path class="cls-1" d="M147,29.73l-1.26-1.25c.12-.14.31-.25.34-.4a9.38,9.38,0,0,1,.23-2.07c.18-.43-.35-1.12-.37-1.69,0-.94.13-1.89.14-2.83a8.91,8.91,0,0,0-.2-1.53c0-.16-.18-.42-.13-.46.87-.7-.11-1.85.66-2.64.23-.23.45-.64.7-.94a.74.74,0,0,1,1.09-.13c.32.23.42.46.28,1-.27,1-1.09,2.1-.21,3.22-.63.41.43,1.15-.3,1.57a.5.5,0,0,0-.05.49c.46.47-.24,1.18.13,1.42.54.35-.52.68.11,1,.17.08.18,1.05,0,1.11-.68.28.3.69-.14,1-.07,0,.09.41.06.61s-.2.41-.22.62A2.19,2.19,0,0,1,147,29.73Z"/><path class="cls-1" d="M108.48,27.84a8.42,8.42,0,0,1,.49-1.61c.13-.25.55-.36.84-.52s.4-.3.59-.29a9.76,9.76,0,0,0,2.79-.69c.65-.16,1.26-.65,2-.42a.53.53,0,0,0,.46-.13c.52-.77,1-.3,1.51,0a2.28,2.28,0,0,1-2.39,2,1.86,1.86,0,0,0-1.08.4,3.16,3.16,0,0,1-2.08.68,2.25,2.25,0,0,0-.76.32A3.25,3.25,0,0,1,108.48,27.84Z"/><path class="cls-1" d="M144.31,24c-1.05,0-1.15-1.12-2-1.1,0,0-.14-.21-.13-.22.6-.49,0-1,.1-1.49a1.43,1.43,0,0,0,0-.89,4.12,4.12,0,0,1,1-4.14c.27-.2.65-.21.61.2s.69.45.17.86c-.06,0,.17.44.22.68.17.85-.33,1.78.29,2.58,0,0,0,.12,0,.12-1.34.67-.24,1.64-.31,2.46C144.29,23.31,144.31,23.6,144.31,24Z"/><path class="cls-1" d="M93.22,21a3.91,3.91,0,0,0,.48,1c.22.26.26.35,0,.66a5.88,5.88,0,0,0-1.56,3.67,4.94,4.94,0,0,1-.67,1.61l-1.77-.87C90.68,25,90.69,22.41,93.22,21Z"/><path class="cls-1" d="M132.88,20c-.59-1,.44-1.19.57-1.78s-.25-1.19.35-1.64c.14-.11.37-.27.36-.38-.2-1.22,1-1,1.53-1.43.13-.11.78.21,1,.49s.71.56.08.95c-.45.27-.54.86-1.11,1.15s-.42,1.38-1.09,1.83c.18.82-.31.87-.91.81C133.39,20,133.15,20,132.88,20Z"/><path class="cls-1" d="M112.3,21.84c-.48-.61-1.13-1-1.4-1.74-.11-.29-.85-.38-.91-.66-.11-.47-.52-.64-.67-1-.24-.56-.66-1.1-.48-1.78A.68.68,0,0,1,110,16.3c.54.44,1.16.78,1.39,1.55a2.52,2.52,0,0,0,.9,1.06,1.39,1.39,0,0,1,.41,1.73C112.59,21,112.46,21.37,112.3,21.84Z"/><path class="cls-1" d="M85.07,23.23c-.3.57.31,1.15-.61,1.5-.51.2-.87.47-1.38.08-.16-.12-.44-.09-.66-.13-.85-.12-1.7-.21-2.54-.37a.85.85,0,0,1-.72-.85c0-.48.18-.58.59-.63s.61-.37.74-.28c.51.31,1-.08,1.48.06a13.62,13.62,0,0,0,1.36.59A8.86,8.86,0,0,0,85.07,23.23Z"/><path class="cls-1" d="M102.59,26.64a7,7,0,0,1-2.35-.71,5.81,5.81,0,0,1-1.16-2c-.1-.19,0-.5-.17-.64-.48-.49-.09-.81.24-1s.93-.52,1,.34c.59.16.63.95,1.09,1.1s.64.73,1,1C102.8,25.22,102.75,25.77,102.59,26.64Z"/><path class="cls-1" d="M162.24,27.93l-.17-.21c.08,0,.2-.08.22-.06a.81.81,0,0,1,.11.27Z"/></g></svg>