<svg xmlns="http://www.w3.org/2000/svg" viewBox="0 0 195.31 46.21"><defs><style>.cls-1{fill:#fff;}</style></defs><g id="レイヤー_1" data-name="レイヤー 1"><path d="M194.69,32.64c-.09-1.27.36-2.67-.14-3.81a6.8,6.8,0,0,1-.31-3.1c0-.43,0-.85,0-1.29a5.88,5.88,0,0,1,.32-3.1c.44-.9.3-2.07.6-3.11-.75-.43-.46-1.08-.49-1.65s.65-1,0-1.49a2,2,0,0,0,.4-2.42c-.5-.77.91-1.63-.38-2.19-.05,0,.07-.36.16-.53a2.22,2.22,0,0,0-.05-2.6.72.72,0,0,1-.06-.54c.1-.39.51-1,.36-1.11-.73-.51.43-1,0-1.27-.87-.54.51-.89.06-1.33a7.3,7.3,0,0,0,0-.81,1,1,0,0,0-1.05-.9c-1.91-.09-3.85.22-5.73-.38-.24-.08-.65.29-1,.36-.79.15-.41-.68-.8-.74-1.16-.18-2.4.14-3.48-.46-.52.61-1,.42-1.59,0a1.56,1.56,0,0,0-1.1.17,1.11,1.11,0,0,1-1,0c-.43-.13-1-.11-1.46-.21a2.2,2.2,0,0,0-1.6.21c-.35.22-1-.64-1.51.08-1-.35-2,.23-3,.11-1.21-.13-2.64.28-3.64-.12s-1.85.72-2.4-.31a13.4,13.4,0,0,1-7,0,.55.55,0,0,0-.43.08c-.42.51-1,.33-1.58.3-1-.06-2.06,0-3.1-.15s-2,.27-3-.21c-.32-.15-1.11.3-1.36.13a3.27,3.27,0,0,0-2.49-.16c-1.4.21-2.92-.46-4.25.39-.11.07-.42-.09-.65-.14S141,.08,140.81.2a2.8,2.8,0,0,1-2.47.31c-.78-.49-1.69.59-2.17-.33-.69.76-1.31-.36-2.07,0-.4.16-.93.65-1.58.06-.41-.38-1.07.55-1.59.12-.8-.66-1,.46-1.72.31a15.23,15.23,0,0,0-3-.05h-3.21a11,11,0,0,1-2.93,0c-1-.31-2,.43-2.81,0s-1.93,0-2.8.1a3.51,3.51,0,0,1-1.92.11c-.59-.19-1.49.31-2.15.17a7.91,7.91,0,0,0-2.33,0c-2.12.17-4.27.08-6.41,0-.68,0-2.24.63-2.3,1.16-.2,1.86-1.2,3.62-1,5.54,0,.41.62.75.08,1.31-.32.34.06,1.09-.17,1.55s0,.46,0,.74a24.54,24.54,0,0,1,.11,3.21c-.78.26.26.86-.34,1.17-.78.41-.39,1-.34,1.57a9.39,9.39,0,0,1,.17,1.15c0,.44-.26.87-.28,1.31s.38.79.23.95c-.57.56-.63,1,0,1.57.18.19.11.64,0,.93-.79,2.15-.39,4.34-.19,6.5a2.87,2.87,0,0,1,0,1.4c-.17.47.35,1.09.21,1.57a3.34,3.34,0,0,0,0,2,7.17,7.17,0,0,1,0,2v1.82a17,17,0,0,0,0,2,11.12,11.12,0,0,0,.47,1.66c-1.26.32.37,1.15-.41,1.55-.11,1.28,1,1.87,2.4,1.73a38.36,38.36,0,0,1,6.25-.09c.58,0,1.19.4,1.68,0,.79-.68,1,.67,1.7.25,1.16-.77,2.5-.27,3.75-.38.89-.08,2,.22,2.65-.11A3.85,3.85,0,0,1,119,44.8a6.49,6.49,0,0,0,2.08-.08c.77-.06,1.61.26,2.3-.35.16-.14.75,0,1.13.09s.75.3.81.24c.82-.82,1.58-.17,2.34,0,.41.11,1,.41,1.2.29a1.88,1.88,0,0,1,2-.14c.74.44,1-.38,1.67-.19a8.46,8.46,0,0,0,2.2,0c.74,0,1.48,0,2.22,0a9.82,9.82,0,0,1,2.38.18c.74.21,1.18-.4,1.91-.24.51.12,1.32-.46,1.72-.3a4.23,4.23,0,0,0,1.81.35,8,8,0,0,1,2,0,2.16,2.16,0,0,0,1.6,0c.28-.12.8.45,1.26,0,.29.6,1.16-.41,1.4.34.5-.13,1-.29,1.52-.38a1.63,1.63,0,0,1,.66.14c.28.07.79.22.81.2.47-.89,1.22.18,1.74-.18.74-.5,1.3.06,1.93.21.31.08.81.13,1,0,.66-.61,1.24,0,1.84,0,.77,0,1.63-.33,2.32.29a.87.87,0,0,0,.64,0c2.12-.74,4.34-.13,6.5-.33.68.55,1.52-.25,2,0,.89.51,1.57,0,2.34,0a10.58,10.58,0,0,1,3.5.38,9.24,9.24,0,0,0,2,0h2c.66,0,1.32,0,2,0a10.16,10.16,0,0,1,1.65.18,4,4,0,0,0,1.48-.16,8.18,8.18,0,0,1,2.21,0,4.54,4.54,0,0,1,1.67.57c.56.33,1.08-.73,1.55,0,.77-.14,1.74,0,2.17-.66a1.44,1.44,0,0,0,.1-1.45,1.88,1.88,0,0,1-.31-1.32,5.62,5.62,0,0,1,0-1.42c.08-.49.41-1,.45-1.45.08-.87-.32-1.9.11-2.59s-.85-1.63.4-2.18c0,0,0-.29-.09-.36C194.26,34.12,194.74,33.34,194.69,32.64Z"/><path d="M.67,32.64c.1-1.27-.38-2.67.15-3.81a6.31,6.31,0,0,0,.33-3.1c0-.43,0-.85,0-1.29a5.52,5.52,0,0,0-.34-3.1c-.48-.9-.32-2.07-.64-3.11.8-.43.49-1.08.52-1.65s-.69-1,0-1.49a1.89,1.89,0,0,1-.43-2.42c.54-.77-1-1.63.41-2.19,0,0-.07-.36-.17-.53a2.1,2.1,0,0,1,.05-2.6.68.68,0,0,0,.07-.54C.52,6.42.08,5.81.24,5.7c.78-.51-.46-1,0-1.27.94-.54-.55-.89-.06-1.33,0-.27,0-.54,0-.81,0-.53.45-.87,1.13-.9C3.35,1.3,5.44,1.61,7.45,1c.26-.08.71.29,1.1.36.84.15.43-.68.86-.74C10.64.45,12,.77,13.14.17c.56.61,1.06.42,1.71,0A1.78,1.78,0,0,1,16,.37a1.28,1.28,0,0,0,1.13,0c.46-.13,1-.11,1.56-.21a2.54,2.54,0,0,1,1.73.21c.37.22,1.1-.64,1.62.08C23.16.14,24.19.72,25.3.6c1.3-.13,2.84.28,3.91-.12s2,.72,2.58-.31a15.39,15.39,0,0,0,7.51,0,.65.65,0,0,1,.47.08c.45.51,1.13.33,1.69.3,1.11-.06,2.21,0,3.33-.15S46.9.68,48,.2c.35-.15,1.2.3,1.47.13A3.72,3.72,0,0,1,52.11.17c1.51.21,3.14-.46,4.57.39.11.07.46-.09.69-.14.4-.09,1-.34,1.17-.22a3.19,3.19,0,0,0,2.65.31C62,0,63,1.1,63.52.18c.74.76,1.41-.36,2.23,0,.42.16,1,.65,1.69.06.44-.38,1.15.55,1.71.12C70-.35,70.21.77,71,.62A17.58,17.58,0,0,1,74.17.57h3.44a12.66,12.66,0,0,0,3.15,0c1.11-.31,2.1.43,3,0s2.07,0,3,.1a4,4,0,0,0,2.06.11c.64-.19,1.61.31,2.32.17a9.1,9.1,0,0,1,2.5,0c2.27.17,4.58.08,6.88,0,.73,0,2.41.63,2.47,1.16.22,1.86,1.29,3.62,1.11,5.54,0,.41-.66.75-.08,1.31.34.34-.07,1.09.18,1.55s0,.46,0,.74a21.49,21.49,0,0,0-.12,3.21c.84.26-.28.86.37,1.17.84.41.41,1,.36,1.57a7.83,7.83,0,0,0-.18,1.15c0,.44.28.87.3,1.31s-.42.79-.25.95c.61.56.68,1,0,1.57-.2.19-.13.64,0,.93.86,2.15.42,4.34.21,6.5a2.55,2.55,0,0,0,0,1.4c.18.47-.38,1.09-.23,1.57a3.12,3.12,0,0,1,0,2,6.49,6.49,0,0,0,0,2v1.82a17,17,0,0,1,0,2,11.31,11.31,0,0,1-.51,1.66c1.35.32-.4,1.15.44,1.55.12,1.28-1,1.87-2.57,1.73a44.46,44.46,0,0,0-6.73-.09c-.62,0-1.27.4-1.79,0-.86-.68-1.14.67-1.83.25-1.25-.77-2.69-.27-4-.38-1-.08-2.13.22-2.85-.11A4.41,4.41,0,0,0,82,44.8a7.46,7.46,0,0,1-2.23-.08C79,44.66,78,45,77.3,44.37c-.17-.14-.8,0-1.21.09s-.81.3-.88.24c-.88-.82-1.68-.17-2.51,0-.44.11-1.11.41-1.28.29a2.15,2.15,0,0,0-2.16-.14c-.79.44-1.08-.38-1.79-.19a9.81,9.81,0,0,1-2.37,0c-.79,0-1.59,0-2.38,0a11.19,11.19,0,0,0-2.55.18c-.8.21-1.27-.4-2.07-.24-.54.12-1.41-.46-1.84-.3a4.83,4.83,0,0,1-1.94.35,9.14,9.14,0,0,0-2.1,0,2.48,2.48,0,0,1-1.72,0c-.31-.12-.87.45-1.36,0-.31.6-1.24-.41-1.5.34-.54-.13-1.08-.29-1.63-.38a1.87,1.87,0,0,0-.71.14c-.3.07-.85.22-.87.2-.51-.89-1.31.18-1.88-.18-.79-.5-1.39.06-2.07.21a1.7,1.7,0,0,1-1,0c-.71-.61-1.33,0-2,0-.83,0-1.75-.33-2.49.29a1,1,0,0,1-.7,0c-2.27-.74-4.65-.13-7-.33-.74.55-1.64-.25-2.17,0-1,.51-1.68,0-2.52,0a12.19,12.19,0,0,0-3.76.38,10.59,10.59,0,0,1-2.11,0H14.64c-.71,0-1.41,0-2.12,0a11.54,11.54,0,0,0-1.77.18,4.69,4.69,0,0,1-1.6-.16,9.32,9.32,0,0,0-2.36,0,5.13,5.13,0,0,0-1.8.57c-.61.33-1.16-.73-1.67,0-.83-.14-1.87,0-2.33-.66a1.35,1.35,0,0,1-.1-1.45c.4-.46.29-.88.33-1.32a5.2,5.2,0,0,0,0-1.42c-.09-.49-.44-1-.49-1.45C.64,39,1.07,38,.6,37.28s.92-1.63-.42-2.18c0,0,0-.29.09-.36C1.14,34.12.62,33.34.67,32.64Z"/></g><g id="レイヤー_2" data-name="レイヤー 2"><path class="cls-1" d="M132,25.2a2.62,2.62,0,0,1-2.29,0c-.25-.1-.68.23-.61.46.16.5.64,1.15.47,1.45-.34.61,0,1.18-.27,1.74a1.34,1.34,0,0,1-1.73-1,6.22,6.22,0,0,1-.35-1.11,9.65,9.65,0,0,1,0-1.33l-3.52.46c.09.79.23,1.57.25,2.35,0,.59-.2.52-1,.5s-.63-.51-.89-.9a4.08,4.08,0,0,1-.63-1.62c-.09-.41.77-.87,0-1.32a1.23,1.23,0,0,0,.21-1.58c-.24-.52.35-.87.17-1.4s.11-1.34-.27-2.06c-.23-.42.18-1.17.24-1.78a20.24,20.24,0,0,1,.29-2,1,1,0,0,1,.83-.88c1.36-.27,2.71-1.12,4.15-.21.17.11.47,0,.71,0a4.76,4.76,0,0,1,3.16.66c.44.33.74-.58,1.16,0,.22.3.66.42,1,.66s.59.4.61.63a3.76,3.76,0,0,0,.78,2.57c-.76.49,0,1.37-.51,1.95-.06.08-.17.23-.15.24,1,1,0,2.14.29,3.19a6.15,6.15,0,0,0,.31,1.51c.22.44-.27,1.19-.27,1.8a1.71,1.71,0,0,1-.54,1.23c-.33.4-.5.2-.82,0-.14-.08-.47.16-.84.31,0-.55-.17-1.17.05-1.58s.54-1.12.21-1.51C131.69,26,132.9,25.73,132,25.2Zm-8.41-8.35c0,.86,0,1.64,0,2.42,0,1,.46,1.32,1.34,1,.36-.16.51-.24.9,0s1-.35,1-.7c-.13-1.62-.09-1.91.27-2.61-.52-.15-1.25-.6-1.54-.4C125,16.92,124.33,16.56,123.62,16.85Zm8.74,2A5.38,5.38,0,0,0,129.85,17c-.67-.24-1.12-.07-1.15.61,0,.33.18.66.18,1s-.2.58-.17.86.18.66.36.71c.51.14,1,1.05,1.6.21a.79.79,0,0,0,1.07.3c.22-.19.11-.75.22-1.13A2.71,2.71,0,0,1,132.36,18.85Zm-8.77,3.49a1.61,1.61,0,0,1,.21.55c0,.22-.15.45-.16.67a.49.49,0,0,0,.23.39,4.53,4.53,0,0,0,1.93-.53.49.49,0,0,1,.25-.1c1.14,0,1.19,0,1.19-.69,0-.32-1-1-1.24-.81C125.3,22.55,124.38,21.83,123.59,22.34Zm8.53,1.26a6.11,6.11,0,0,0-1.06-1c-.43-.23-1.08.19-1.45-.4l-.85.6c.41.16.13,1,.89.85A19.6,19.6,0,0,1,132.12,23.6Z"/><path class="cls-1" d="M97.93,29.31c0,.55.12,1,0,1.24s-.34,1.16-1.16.65a1.49,1.49,0,0,0-.89,0A7.46,7.46,0,0,1,93,30.74c-.18-.7-.54.36-.93-.14a22,22,0,0,0-2.22-2,1.09,1.09,0,0,1-.19-.81c.08-.61.23-1.22.35-1.83.87-.27.91-1.4,1.77-1.68a1.47,1.47,0,0,0,.45-.23c.3-.24.48-.51.12-.87a6.51,6.51,0,0,1-1.49-2.09A13.91,13.91,0,0,1,90,19c-.15-.69-.79-.63-1.19-.73a8.84,8.84,0,0,0-2.08,0v-.91a.84.84,0,0,1,.86-.89c.4-.05.85.09,1.12-.36.59.66.72,0,.91-.35.07-.14,0-.35,0-.53.13-.79.54-1.07,1.36-.94a.88.88,0,0,1,.74,1.29c-.1.28-.34.51,0,.64.67.23,1.38.37,2.08.55,1-.78,2-.16,3,.07a1.48,1.48,0,0,1,.77.61c.22.31-.13.89-.51.77s-.6.76-1,.15c-.1-.14-.51.42-.74-.06-.26.42-.6,0-.9.08a4,4,0,0,0-1.09.41c-.3.22-.35,0-.53-.1-.51-.14-.82.18-.59.66A16.23,16.23,0,0,0,93,20.71c.29.43.79.64,1,1.24.11.4.63.2,1,0,1.13-.43,1.72-.26,2.33.53a.93.93,0,0,1,.18.46,3.09,3.09,0,0,1,0,.57H96c-.38.53-.14.86.11,1.31.71,1.29.61,1.57-.48,2.7-.26-.24-.51-.66-.79-.68-.77,0-.45-.57-.47-.91s.6-.36.08-.63c-.29-.15-.78-.38-.93-.26a3.56,3.56,0,0,0-1.72,2.49,1,1,0,0,0,.54,1,2.28,2.28,0,0,0,1.27.39C95,28.77,96.33,29.64,97.93,29.31Z"/><path class="cls-1" d="M144.45,28.27c-.67-.49-1.14-1-.92-1.84.29-1.05-.52-1.67-1-2.49-.21.49,0,1.23-.85,1.28-.29,1.13-1.47.76-2.15,1.26a.59.59,0,0,1-.52,0A10.41,10.41,0,0,1,137.16,25a2.4,2.4,0,0,1-.52-1.93,11.23,11.23,0,0,0,0-1.42c2-2,3-2.32,4.66-1.69V17.83c-.48.12-1.13.48-1.36.31-.56-.44-.92.08-1.37.06a11.78,11.78,0,0,0-1.55.15h-.38c0-.52-.71-.95-.32-1.44s.56-.93,1.24-.91c1,0,2,0,3.06,0a3.76,3.76,0,0,0,.67-.12c-.07-.17-.25-.4-.19-.5a11.23,11.23,0,0,1,.8-1.09c.46.39,1.48.38,1.27,1.46,0,.06.23.22.37.25s.57.11.7,0c.54-.49,1-.16,1.53,0a3.56,3.56,0,0,0,1,0c0,.28,0,.5,0,.72-.09.82-.3,1.05-1,1.08-.48,0-1,0-1.44,0-.82.1-1.45.86-1.1,1.49a4.24,4.24,0,0,1,.33,1.86,1.21,1.21,0,0,0,.2.63,2.68,2.68,0,0,1,.89,2c.47.12.15,1,.86.9,0,0,.17.2.16.21-.62.67-.18,1.49-.31,2.22,0,.11,0,.26-.07.33C145,27.72,144.76,28,144.45,28.27ZM141,22.17c0-.1-.08-.29-.11-.29-.56,0-1.24-.13-1.65.13a1.93,1.93,0,0,0-.7,1.42c0,.3.61.68,1,.87s.78-.12,1-.47c.12-.17.13-.44.26-.59s-.47-.7.15-.9C141,22.33,141,22.23,141,22.17Z"/><path class="cls-1" d="M152.93,20.9c.46.32.68,1,1.44.93.26,0,.53.41.82.59.57.36.59,1.24,1.36,1.4A6.93,6.93,0,0,1,156.5,26a9,9,0,0,0-.33,2c0,.42-.89.28-.77.91-.75.38-1.47.81-2.25,1.12-.23.09-.59-.22-.9-.28a3.29,3.29,0,0,1-2.16-.87c-.23-.29-.77-.05-.83-.72a9,9,0,0,1-.3-2,1.74,1.74,0,0,1,1.24-1.08c.48,0,1.21.19,1.4-.05.37-.47.81.2,1.1-.23.05-.07.44,0,.58.11a9.59,9.59,0,0,1,.92.89c.69-1.17-.46-1.73-1-2.27a7.82,7.82,0,0,0-2.48-1.15,4.21,4.21,0,0,0,0-.79,1.54,1.54,0,0,1,1-1.87c.6-.16.36-.66.71-.85a3.9,3.9,0,0,0,.81-.66c.26-.25.49-.54.79-.87a4.41,4.41,0,0,0-3.62-.4c-.1,0-.19.19-.28.18-.4,0-.79-.11-1.19-.17.09-.44-.19-.94.25-1.34s.75-.88,1.36-.63,1-.63,1.61-.24c.37.23.81,0,1.24.2s1.17.15,1.63.42a2.33,2.33,0,0,1,1.12,1.54,1.61,1.61,0,0,1-.55,1.75C154.67,19.32,154.06,20.41,152.93,20.9Zm-1.81,6.18c.5.26.68,1,1.45.85.26-.06.71.17.69-.28,0-.26-.35-.51-.55-.76C152.23,27.51,151.71,26.43,151.12,27.08Z"/><path class="cls-1" d="M107.71,29.34a4.11,4.11,0,0,1-.65,0c-.94-.07-1.1-.26-1.18-1.13s-.21-1.85-.37-3.18c-.56.8-.9,1.29-1.23,1.78a9.24,9.24,0,0,1-.65,1c-.6.68-.92.66-1.61.05-.3-.26-.64-.47-1.22-.89,1-.11,1.41-.26,1.72-.86a9.37,9.37,0,0,0,.87-1.63c.14-.51.07-.84-.4-.88s-.73,0-1.08,0a2,2,0,0,1-.79-.26c-.26-.14-.93-.08-.61-.56.21-.32,0-1.06.77-1s1.23-.35,1.88,0a1.67,1.67,0,0,0,.89,0c.79-.11,1.48-.94,1.07-1.5-.65-.88,0-1.12.42-1.57.23-.27.84-.11.78-.75,0-.11,1.05.39,1,.67s-.24.51-.29.78.2.47.18.48c-.73.39.44,1-.18,1.4.25.09.33.77.76.22a3.66,3.66,0,0,0,2.16.26c.71,0,.93.58,1.38.93a6.35,6.35,0,0,1-2.41.89,2.83,2.83,0,0,0-1.06.06.75.75,0,0,0-.52.85c.78-.06-.51,1.09.53.9a1.14,1.14,0,0,1,1.25.49.39.39,0,0,0,.36.06c.78-.54.77,0,.75.53a1.21,1.21,0,0,1-1.82,1.08c-.2-.1-.37-.26-.58-.35s-.29,0-.33,0-.2.42-.15.45C107.88,28.12,107.65,28.68,107.71,29.34Z"/><path class="cls-1" d="M36.93,24.32a8.52,8.52,0,0,1-.5-1.34c-.15-.85.29-1.68.08-2.54.68-.59.41-1.66,1.13-2.24a.82.82,0,0,0,.21-.62,2.12,2.12,0,0,1,.7-1.69,1.31,1.31,0,0,0,.32-1.46,16.44,16.44,0,0,1,2.14,1,.91.91,0,0,0,1.25,0c.26-.23.54.52.77,0,.85.9,2.12.54,3.13,1,.51.22.79.48.75,1s.1.89-.28,1.34c-.18.21.3.92.13,1.17-.32.47,0,1-.24,1.35a6.19,6.19,0,0,0-.65,2.42c-.14.75-.95,1.39-.44,2.26-.6.83-.68,2.09-2.08,2.29,0-.19.07-.58-.08-.72-.54-.49-.09-.88-.05-1.35s-.17-.71.05-1.14a6.85,6.85,0,0,0,.89-2.14c.09-.64.2-1.3.26-2a13.8,13.8,0,0,1,.67-2.56,6.34,6.34,0,0,0-2.34-.54c-.23,0-.5-.22-.75-.34a2.58,2.58,0,0,0-2,0c-.15.08-.23.34-.28.53a20.24,20.24,0,0,1-1.46,4.08C37.88,22.74,37.49,23.36,36.93,24.32Z"/><path class="cls-1" d="M71.51,18.19c-.61.12-1.22.28-1.83.34s-1.36-.21-1.77.07c-.67.44-1.16-.41-1.8.12,0,1.21-.23,2.59.53,3.74.37.55-.51,1.06.17,1.44-.26.44.64.87,0,1.34,0,0,0,.34.12.47.7.95-.14,1.73-.32,2.56-.11.48-.74.54-1.06.34a2.08,2.08,0,0,0-1-.33.33.33,0,0,1-.21-.61c.76-.5.64-1.23.6-1.92,0-.43-.44-1.07-.28-1.24.57-.6-.19-.63-.27-.93a1.67,1.67,0,0,1,.06-.38c0-.83.14-1.65.11-2.47,0-.24-.36-.46-.56-.69.5-.22-.49-.71.17-.9-.3-.2-.64-.6-.89-.56-.95.19-1.85-.63-2.79,0a.56.56,0,0,1-.52,0c-.36-.31-1.1-.05-1.17-.77a.91.91,0,0,1,.73-1c.26-.09.46-.35.7-.5a.46.46,0,0,1,.38,0c.58.24,1.12.81,1.79.17a2.85,2.85,0,0,0,1.92.36,21.32,21.32,0,0,1,1-2c.22-.33.65-.39.69.19,0,.27.68.49.09.81.13.87.57,1.11,1.65,1,.47-.06,1.15.13,1.38-.11.51-.56.63.26,1,.15s.85.19,1.28.31Z"/><path class="cls-1" d="M71.51,17.1c-.16-.59.34-.83.64-1.17S72.69,15,73,15a3.14,3.14,0,0,1,1.74.49,6.3,6.3,0,0,0,1.37.64c.41.17,1.12.4.88,1.18,1.3.51.67,1.5.53,2.3-.28,1.64-.39,1.68-1.52,2.28a1.77,1.77,0,0,1-2.1-.05,10.84,10.84,0,0,0-1.47-.78c-.08-.05-.09-.21-.16-.29a3,3,0,0,1-.73-2.57C72,17.82,72,17.47,71.51,17.1ZM75.26,20l.54-.24c-.27-.6.08-1.29-.4-1.89s-.63-.17-1-.06a.38.38,0,0,1-.31-.1c-.59-.43-.76.17-.78.43C73.3,18.92,74.33,19.93,75.26,20Z"/><path class="cls-1" d="M116.57,29.73l-1.27-1.25c.13-.14.32-.25.35-.4a8.79,8.79,0,0,1,.22-2.07c.18-.43-.35-1.12-.37-1.69,0-.94.13-1.89.15-2.83a8.93,8.93,0,0,0-.21-1.53c0-.16-.18-.42-.13-.46.87-.7-.11-1.85.67-2.64.22-.23.44-.64.69-.94a.74.74,0,0,1,1.09-.13c.32.23.43.46.28,1-.27,1-1.09,2.1-.21,3.22-.62.41.44,1.15-.3,1.57a.56.56,0,0,0,0,.49c.46.47-.23,1.18.13,1.42.54.35-.52.68.12,1,.16.08.17,1.05,0,1.11-.67.28.31.69-.13,1-.08,0,.08.41.06.61s-.2.41-.22.62A2.19,2.19,0,0,1,116.57,29.73Z"/><path class="cls-1" d="M78,27.84a8.42,8.42,0,0,1,.49-1.61c.13-.25.55-.36.84-.52s.41-.3.6-.29a9.69,9.69,0,0,0,2.78-.69c.65-.16,1.26-.65,2-.42a.55.55,0,0,0,.47-.13c.51-.77,1-.3,1.51,0a2.28,2.28,0,0,1-2.4,2,1.89,1.89,0,0,0-1.08.4,3.12,3.12,0,0,1-2.08.68,2.25,2.25,0,0,0-.76.32A3.24,3.24,0,0,1,78,27.84Z"/><path class="cls-1" d="M113.85,24c-1,0-1.15-1.12-2-1.1,0,0-.14-.21-.13-.22.59-.49,0-1,.09-1.49a1.43,1.43,0,0,0,0-.89,4.12,4.12,0,0,1,1-4.14c.28-.2.65-.21.62.2s.68.45.17.86c-.07,0,.17.44.22.68.16.85-.34,1.78.28,2.58,0,0,0,.12,0,.12-1.34.67-.24,1.64-.3,2.46C113.83,23.31,113.85,23.6,113.85,24Z"/><path class="cls-1" d="M62.76,21a4.76,4.76,0,0,0,.48,1c.23.26.26.35,0,.66a5.81,5.81,0,0,0-1.55,3.67A4.77,4.77,0,0,1,61,27.94l-1.77-.87C60.23,25,60.24,22.41,62.76,21Z"/><path class="cls-1" d="M102.43,20c-.59-1,.43-1.19.56-1.78s-.24-1.19.35-1.64c.15-.11.38-.27.36-.38-.2-1.22,1-1,1.54-1.43.13-.11.77.21,1,.49s.7.56.07.95c-.44.27-.53.86-1.1,1.15s-.43,1.38-1.1,1.83c.18.82-.31.87-.91.81C102.93,20,102.69,20,102.43,20Z"/><path class="cls-1" d="M81.85,21.84c-.48-.61-1.13-1-1.41-1.74-.1-.29-.85-.38-.91-.66-.11-.47-.52-.64-.67-1-.24-.56-.65-1.1-.47-1.78a.68.68,0,0,1,1.18-.37c.54.44,1.15.78,1.39,1.55a2.49,2.49,0,0,0,.89,1.06,1.39,1.39,0,0,1,.41,1.73C82.14,21,82,21.37,81.85,21.84Z"/><path class="cls-1" d="M54.61,23.23c-.3.57.31,1.15-.6,1.5-.52.2-.87.47-1.39.08-.16-.12-.43-.09-.66-.13-.84-.12-1.69-.21-2.53-.37a.84.84,0,0,1-.72-.85c0-.48.18-.58.59-.63s.61-.37.74-.28c.51.31,1-.08,1.47.06s.89.49,1.36.59A8.86,8.86,0,0,0,54.61,23.23Z"/><path class="cls-1" d="M72.14,26.64a7,7,0,0,1-2.36-.71,5.79,5.79,0,0,1-1.15-2c-.1-.19,0-.5-.17-.64-.48-.49-.09-.81.24-1s.93-.52,1,.34c.58.16.62.95,1.09,1.1s.63.73,1,1C72.34,25.22,72.29,25.77,72.14,26.64Z"/><path class="cls-1" d="M131.78,27.93l-.16-.21c.07,0,.2-.08.21-.06a.81.81,0,0,1,.11.27Z"/></g></svg>