<svg xmlns="http://www.w3.org/2000/svg" viewBox="0 0 195.91 45.02"><defs><style>.cls-1{fill:#fff;}</style></defs><g id="レイヤー_1" data-name="レイヤー 1"><path d="M105.63,31.64c-.38.3.24.46,0,.9a3.76,3.76,0,0,0-.11,2.52,6.84,6.84,0,0,0,.59,1.43c.49.77-.35,1.19-.27,1.81a2.35,2.35,0,0,0,.15.94,6.69,6.69,0,0,1,.68,3.38,2.66,2.66,0,0,0,3.1,2.32c.39-.7.86.44,1.27,0s1.14-.2,1.71-.3c.38-.07,1,.06,1.13-.16.5-.63.93.2,1.3,0a1,1,0,0,1,1.42.11.51.51,0,0,0,.52,0c.44-.5.8-.36,1.15.08.31-.45.78-.4,1.25-.39h2.24c.68,0,1.36,0,2,0s1.3.05,1.9.09,1.42-.38,1.88-.05a3.57,3.57,0,0,0,2.31.34c4.28,0,8.57,0,12.85,0,.5,0,1.08-.26,1.53.24a.58.58,0,0,0,.54.13,4,4,0,0,1,3.75,0,1.2,1.2,0,0,0,.79,0,9.7,9.7,0,0,1,5.21,0c.21,0,.47-.18.7-.16s.51.17.78.21a2,2,0,0,0,.81,0c.48-.15,1-.72,1.43-.34.62.54,1-.26,1.55-.1a3.91,3.91,0,0,0,2,0c.61-.15,1,.34,1.59.25s1.11.2,1.63-.21a.17.17,0,0,1,.18,0c.55.6,1.15.39,1.81.2s1.14,0,1.67-.1a5.64,5.64,0,0,0,2-.52c.57-.41,1.22.63,1.87,0,1,.7,2.08.27,3.12.32.35,0,.62-.65,1.18-.16.19.16.76-.17,1.16-.2.61,0,1.23,0,1.84,0s1.39-.23,1.79,0c.65.47,1.07-.23,1.53,0a1.7,1.7,0,0,0,1.51,0c.42.63.9-.21,1.28,0,1.26.78,2.62.19,3.92.39.66-.74,1.26-.08,1.87.08a9.3,9.3,0,0,0,1.69-.21l2-3.22a1.61,1.61,0,0,1-.09-.29,7.77,7.77,0,0,1-.16-2.52c.25-.91-.22-1.67-.09-2.52s0-1.89,0-2.83-.43-1.76.39-2.47c-.21-.82-.85-1.64,0-2.48a3.9,3.9,0,0,1,0-3.55c-.81-.71,0-1.38.05-2.07-1-.7.35-1.37,0-2.11-.16-.36.6-.84,0-1.27-.09-1.43.28-2.91-.41-4.28.66-.7-.22-1.36,0-2.11s-.07-1.76.09-2.61c.08-.5-.68-.78-.14-1.35.37-.4-.15-1.14.42-1.65A1.15,1.15,0,0,0,195.62,6c-.55-.4.09-.92-.31-1.42s-.08-1.29-.06-2A3,3,0,0,0,194.06.28c-.09-.08-.37-.12-.41-.07-.45.59-1-.25-1.11-.07-.58.68-.93-.15-1.36-.1-.76.09-1.57-.32-2.31.35-.32.29-1-.06-1.51.29-.29.18-1-.37-1.37-.21a8.91,8.91,0,0,1-3.31.37c-.41,0-1,.4-1.19.25a1.32,1.32,0,0,0-1.31-.22c-.63.3-1.39.64-1.85.3-.72-.52-1.15.44-1.75.08a2.2,2.2,0,0,0-1.07-.33c-.35,0-.69.3-1,.29s-1-.43-1-.35c-.56.78-1.32,0-2,.29A2.56,2.56,0,0,1,169,.92c-.2-.15-.75,0-1.07.16A1,1,0,0,1,166.61,1c-.12-.11-.45-.21-.52-.14-.81.8-1.81.24-2.71.37A1.86,1.86,0,0,1,162.05,1c-.29-.18-.91.23-1.38.23S159.45.78,159.06,1a1.17,1.17,0,0,1-1.58-.12c-.07-.07-.42,0-.52.12-.45.51-1.15,0-1.5.3-.6.54-1-.26-1.54-.06s-1.09.47-1.39.29c-1.41-.84-3.09.4-4.42-.67-.5.69-1.26.45-1.86.36s-1.24.64-1.88.1c-.21.75-.65-.25-1.06.15s-1,.19-1.52.18-1-.35-1.16-.19c-.63.61-.92-.3-1.4-.2a10.68,10.68,0,0,1-1.13.2c-.64.06-1.28.09-1.92.1-.15,0-.39-.21-.42-.17-.51.56-1.16.17-1.73.27a2.38,2.38,0,0,1-1.67-.4c-.48-.29-.89.57-1.53.05-.36-.3-1.12,0-1.65-.44s-1,.69-1.48,0c-.29.62-.89.13-1.36.32s-1.41-.17-2.12-.1c-.43,0-.84-.23-1.32,0a2.56,2.56,0,0,1-1.36.13c-.42,0-1-.45-1.2-.29a1.8,1.8,0,0,1-1.31.3,9.74,9.74,0,0,1-1.43,0c-.16,0-.29-.29-.47-.33-.48-.11-1-.65-1.47-.06a38.56,38.56,0,0,0-7.53.51l-1.2,1.88c-.06.1-.21.27-.2.27.84.74.18,1.76.49,2.64.22.63.63,1.56.22,2.15s-.27,1.26-.35,1.89a6.6,6.6,0,0,1,0,1,11.94,11.94,0,0,0-.53,1.39,9.23,9.23,0,0,0,.14,1.56c0,.61,0,1.22,0,1.82s.22,1.25-.05,1.59c-.48.62.27,1,.06,1.52-.1.23,0,.58-.16.74-.37.38-.19.6,0,1a3.25,3.25,0,0,1,0,1.48c0,.31-.19.61-.21.92,0,.72.18,1.5-.64,2a.32.32,0,0,0-.07.27,1.33,1.33,0,0,1,.23,1.67c-.47.7.24,1.16.08,1.73s.17.94-.33,1.3a.53.53,0,0,0,0,.52C105.84,31,106.08,31.29,105.63,31.64Z"/><path d="M113.45,31.64c.48.3-.3.46,0,.9a3,3,0,0,1,.14,2.52,5.69,5.69,0,0,1-.73,1.43c-.62.77.43,1.19.34,1.81-.05.32,0,.69-.19.94a5.43,5.43,0,0,0-.86,3.38c0,1.44-2,2.58-3.89,2.32-.5-.7-1.09.44-1.6,0s-1.43-.2-2.15-.3c-.48-.07-1.22.06-1.43-.16-.62-.63-1.16.2-1.63,0a1.47,1.47,0,0,0-1.78.11.8.8,0,0,1-.66,0,.9.9,0,0,0-1.43.08c-.4-.45-1-.4-1.58-.39H93.13c-.85,0-1.71,0-2.56,0s-1.63.05-2.38.09-1.79-.38-2.37-.05a5.51,5.51,0,0,1-2.9.34c-5.38,0-10.77,0-16.15,0-.63,0-1.35-.26-1.92.24a.85.85,0,0,1-.67.13,6.2,6.2,0,0,0-4.73,0,1.84,1.84,0,0,1-1,0,15.23,15.23,0,0,0-6.55,0c-.26,0-.59-.18-.87-.16s-.65.17-1,.21a3.17,3.17,0,0,1-1,0c-.6-.14-1.24-.72-1.79-.34-.78.54-1.23-.26-2-.1a6.16,6.16,0,0,1-2.53,0c-.76-.15-1.25.34-2,.25s-1.4.2-2.05-.21a.27.27,0,0,0-.23,0c-.69.6-1.44.39-2.28.2-.66-.14-1.43,0-2.09-.1a8.51,8.51,0,0,1-2.55-.52c-.72-.41-1.54.63-2.35,0-1.22.7-2.61.27-3.92.32-.45,0-.78-.65-1.49-.16-.24.16-1-.17-1.46-.2-.76,0-1.54,0-2.31,0s-1.75-.23-2.25,0c-.81.47-1.35-.23-1.92,0a2.65,2.65,0,0,1-1.9,0c-.53.63-1.13-.21-1.61,0-1.58.78-3.29.19-4.92.39-.83-.74-1.58-.08-2.36.08A14.36,14.36,0,0,1,3,44.46L.44,41.24A1.19,1.19,0,0,0,.56,41a6.09,6.09,0,0,0,.2-2.52c-.31-.91.28-1.67.11-2.52S.92,34,.81,33.08s.54-1.76-.49-2.47c.27-.82,1.07-1.64.06-2.48a3.21,3.21,0,0,0,0-3.55c1-.71,0-1.38-.06-2.07,1.26-.7-.43-1.37,0-2.11.19-.36-.76-.84,0-1.27C.43,17.7,0,16.22.83,14.85c-.82-.7.28-1.36.06-2.11S1,11,.78,10.13c-.11-.5.85-.78.18-1.35-.48-.4.18-1.14-.54-1.65C.16,6.94.13,6.14.36,6c.69-.4-.11-.92.39-1.42s.1-1.29.08-2A2.89,2.89,0,0,1,2.32.28.77.77,0,0,1,2.84.21C3.41.8,4.05,0,4.23.14,5,.82,5.4,0,5.94,0c1,.09,2-.32,2.91.35.39.29,1.22-.06,1.89.29C11.1.86,12,.31,12.46.47a14,14,0,0,0,4.17.37c.51,0,1.22.4,1.48.25A2,2,0,0,1,19.77.87c.78.3,1.73.64,2.32.3.9-.52,1.45.44,2.2.08A3.28,3.28,0,0,1,25.64.92c.43,0,.86.3,1.29.29S28.14.79,28.21.86c.71.78,1.66,0,2.53.29A3.9,3.9,0,0,0,33.87.92a2.22,2.22,0,0,1,1.35.16A1.49,1.49,0,0,0,36.81,1c.16-.11.58-.21.66-.14,1,.8,2.27.24,3.4.37A2.85,2.85,0,0,0,42.54,1c.37-.18,1.15.23,1.74.23s1.53-.44,2-.24a1.74,1.74,0,0,0,2-.12.85.85,0,0,1,.66.12c.57.51,1.45,0,1.89.3.76.54,1.26-.26,1.93-.06s1.37.47,1.75.29c1.77-.84,3.88.4,5.55-.67.63.69,1.59.45,2.34.36s1.56.64,2.37.1c.26.75.8-.25,1.32.15.37.28,1.26.19,1.92.18.5,0,1.25-.35,1.45-.19.8.61,1.16-.3,1.76-.2s1,.17,1.43.2c.8.06,1.6.09,2.41.1.18,0,.48-.21.52-.17.64.56,1.46.17,2.18.27a3.63,3.63,0,0,0,2.1-.4c.6-.29,1.12.57,1.92.05.46-.3,1.41,0,2.07-.44s1.23.69,1.86,0c.37.62,1.12.13,1.71.32s1.77-.17,2.66-.1c.55,0,1.06-.23,1.66,0a4,4,0,0,0,1.71.13C94,1.18,94.73.77,95,.93a2.83,2.83,0,0,0,1.65.31,17.78,17.78,0,0,0,1.79,0c.21,0,.37-.29.59-.33.61-.11,1.21-.65,1.85-.06a60.57,60.57,0,0,1,9.46.51c.49.6,1,1.24,1.51,1.88.08.1.27.27.26.27-1.06.74-.24,1.76-.63,2.64-.28.63-.79,1.56-.27,2.15s.34,1.26.43,1.89c.06.33-.06.69.05,1,.17.48.59.92.67,1.39a7,7,0,0,1-.19,1.56c0,.61,0,1.22,0,1.82s-.27,1.25.06,1.59c.62.62-.34,1-.07,1.52.13.23,0,.58.2.74.47.38.24.6,0,1s0,1,0,1.48c0,.31.24.61.27.92.06.72-.23,1.5.8,2,.08,0,.13.24.09.27a1.15,1.15,0,0,0-.29,1.67c.59.7-.3,1.16-.09,1.73s-.22.94.41,1.3a.45.45,0,0,1,0,.52C113.18,31,112.88,31.29,113.45,31.64Z"/></g><g id="レイヤー_2" data-name="レイヤー 2"><g id="SGngUQ"><path class="cls-1" d="M131.55,18.58a10.1,10.1,0,0,0-1.48,0c-.32,0-.59.37-.95,0,0,0-.44.24-.64.42,0,0,.18.3.27.47s.32.39.29.55c-.16.83.41.36.69.42a2.6,2.6,0,0,0,2.21-.63c.09.25.15.42.22.59.48,1.08.48,1.08-.46,1.55-.48.24-1,.44-1.49.68l-.68-.64c-.17.25-.5.6-.45.68.39.56.32,1.08-.31,1.67.93.15,1.72-.11,2.11.66,0,0,.31-.2.46-.17s.37.2.57.27a7.72,7.72,0,0,1,1.19.46c.2.12.3.43.44.66a2.74,2.74,0,0,0-.51.27c-.94.85-.94.86-1.77.3,0,0-1.6-.3-1.66-.3-.56,0-.73.33-.9.78s.44,1.06-.36,1.28c-.47.13-.34.91-1,.88-.19,0-.4.28-.61.43-.35-.48-1.28-.05-1.38-.74s-.59-.69-.88-.78a1.3,1.3,0,0,1-.9-1.17,2.18,2.18,0,0,1,.41-2.06,5.25,5.25,0,0,1,1.86-1c.32-.14.87.24,1.49.43a7.48,7.48,0,0,0,0-1c0-.3.24-.72-.26-.87s-.82-.23-1.23-.35c-.31.87-1-.27-1.51.32-.28.34-.88-.42-1.37,0-.23-.36-.42-.19-.61.05a5.15,5.15,0,0,1-.19-.75,7.29,7.29,0,0,1,0-.81c1.52-.89,3.14-.31,4.79-.54a5.1,5.1,0,0,1,0-.76c.09-.48-.25-.83-.33-1.24-.14-.74-.76-.2-1.1-.49s-.76-.12-1.15-.22c-.6-.15-.91.28-1.33.57-.19.14-.6,0-.91,0,.3-.36-.61-.52-.15-1,.2-.19.09-.76.29-.88a3.21,3.21,0,0,1,1.37-.4c.85-.05,1.7,0,2.55,0l.12-1c.26,0,.54,0,.8,0s.55,0,.53.45c0,.76.42,1,1.08.92.43-.05.85.55,1.27,0a3.91,3.91,0,0,1,1.23.72C131.5,17.51,131.45,18,131.55,18.58Zm-6.26,8.06c.06.38.65.1.73.69s.82.27,1-.3c0-.16,0-.37.13-.46.25-.21.15-.32,0-.5s-.25-.23-.51-.05A7.21,7.21,0,0,1,125.29,26.64Z"/><path class="cls-1" d="M85.19,28.57c-.29-.11-.61-.36-.88-.31-.66.1-.89-.28-1-.76a10.32,10.32,0,0,1-.89-3.66c0-.43.65-.83.08-1.27.51-.37-.14-.7,0-1.08.06-.21,0-.46,0-.67a5.57,5.57,0,0,0,.16-3.29,2.26,2.26,0,0,1,.19-1.31,3,3,0,0,0,.28-2.1c-.09-.45.64-.71.15-1.14,0,0,.12-.23.21-.25.32-.06.81,0,1-.13.42-.5.51.21.82.14a4.31,4.31,0,0,1,1.19,0c.28,0,.65.27.81.16.45-.29.59.3,1,.21a1.42,1.42,0,0,1,1.62,1c.08.17.35.25.52.38a3.11,3.11,0,0,1,.28.23c-.83.29.47,1-.27,1.32A4.33,4.33,0,0,1,91,17.43c.06,1.22.27,2.51-.73,3.56h.08a1,1,0,0,0-.11-.26s-.14,0-.21.06a.63.63,0,0,0,.24.2c.16.53-.14,1-.56,1-.93-.1-1.73.38-2.61.38-.48,0-1,.16-1.44-.29-.19-.19-.74,0-1.15,0v4c.15,0,.4.13.45.07.29-.36.85-.51,1-.29a1.4,1.4,0,0,1,.12,1.22A7.6,7.6,0,0,1,85.19,28.57Zm4.28-10.71A6.69,6.69,0,0,1,88.69,16c0-.91-.62-1-1.25-1.14-.39-.06-.78,0-1.06-.34-.38.6-.73.21-1.11,0-.06,0-.33.19-.41.34a3.87,3.87,0,0,0-.15.63c-.41,1.21-.38,1.3.92,1.67a2.36,2.36,0,0,0,1.29.21.92.92,0,0,1,1.19.21C88.7,16.86,88.81,17.84,89.47,17.86Zm-4.88,1c0,1.22.12,1.38,1,1.4s1.83,0,2.75,0a1.51,1.51,0,0,0,.75-.24c.15-.11.2-.37.29-.56-.19-.07-.45-.26-.56-.2a2.12,2.12,0,0,1-1.93-.09A7.53,7.53,0,0,0,84.59,18.9Z"/><path class="cls-1" d="M141.63,22.41a6.3,6.3,0,0,1-.76,1.4A13,13,0,0,1,139.35,25c-.21.18-.77,0-.63.57a1,1,0,0,1-.32.07c-.73-.07-1.22-.65-1.87-.9-.13,0-.16-.36-.22-.55s-.18-.62-.29-.92c-.21-.52-.44-1.25.07-1.48s-.62-.77.18-.81c.58,0,.28-.49.4-.75s.31-.2.49-.29c1.3-.65,1.41-.67,3.66-.72-.14-.37-.27-.68-.37-1-.21-.7-.42-.9-.91-.6a1.07,1.07,0,0,1-1.21.06c-.33-.15-.9-.29-1.12-.12-1.11.89-1.41-.19-2.14-.69.43-.43.69-.87,1.07-1s.7-.62,1.07-.06h3.21V14.53c1.29-.06,1.38,0,1.65.67.14.35.32.62.43.62.92,0,1.84,0,2.76,0a1,1,0,0,1,1.06.63,1.54,1.54,0,0,1-.81,1.37c-.2,0-.46-.26-.68-.24s-.6.3-.9.3-.59-.28-.89-.31c-.61-.06-.62,0-.54.84,0,.27-.21.56-.17.83a4.16,4.16,0,0,0,1,2.32c1,1,.54,2.41,1.26,3.44-.5.31-.13.91-.35,1.22a2.77,2.77,0,0,0-.32,1.6c0,.26,0,.63-.2.76-.48.37-.43.86-.51,1.36-.13.9-.39,1.09-1.12,1.06a1,1,0,0,1-.76-1,5.22,5.22,0,0,1,.37-1.05,10.42,10.42,0,0,0,.66-3.4,4.36,4.36,0,0,0,.21-1.14C142.49,23.3,142.56,23.3,141.63,22.41Zm-2.39-1.08a1.09,1.09,0,0,0-.25-.23.28.28,0,0,0-.23,0,3.37,3.37,0,0,0-1.06,1.59c-.06.17,0,.56.11.6a1.54,1.54,0,0,0,.76,0c.12-.71,1-.66,1.22-1.34S140.13,21.33,139.24,21.33Z"/><path class="cls-1" d="M55.75,17.13a7.67,7.67,0,0,1,1.07,2.17c.15,1.08,1,1.08,1.63,1.32.45.16,1,0,1.53.06a1.18,1.18,0,0,1,.67.63c.12.23-.51,1.05-.75,1.06h-2c.16.22.32.34.3.42-.19,1.16.71,1.89,1.3,2.54a16.88,16.88,0,0,0,1.72,1.88c.82.7.76,1.23,0,2.11-.08.09-.17.16-.25.24a5.71,5.71,0,0,1-2.42-2.67c-.49.68-.95,1.38-1.48,2a2.26,2.26,0,0,1-.9.62c-.59-.58-1.44,0-2-.48-.25-.22-.79-.15-.65-.74.05-.2.05-.56-.06-.64-1-.65,0-1.49-.26-2.2,0-.1.14-.29.23-.41A3.28,3.28,0,0,1,55.13,24c.25-.09.53-.12.78-.2.45-.15.4-.41.3-.92-.16-.85-.51-.76-1.12-.48a.9.9,0,0,1-.72-.26c-.47-.48-.91-.66-1.44-.1-.06.06-.28.08-.32,0-.43-.59-.83.18-1.28,0s-.56-.42-.33-.87c.48-.93.84-1.1,1.79-1,.27,0,.56-.19.83-.17s.6.26.91.29c.57.07.79-.26.62-.84C54.77,18.13,54.77,18.13,55.75,17.13ZM55.36,28c.43-.63.84-1.15,1.15-1.72.1-.18-.08-.51-.12-.78-.31.06-.71,0-.92.2C54.79,26.3,54.76,27,55.36,28Z"/><path class="cls-1" d="M100.39,13.09a6.12,6.12,0,0,1,.85,1c.21.39,1,.13.88.8.85.14,1.38.8,2,1.25a4.15,4.15,0,0,1,.78.6c.28.32.45.75.75,1.05s.66.38.94.63c.57.54,1.24,1,1.06,2,0,.19.32.55-.08.72a1.17,1.17,0,0,1-.91,0,4,4,0,0,1-1.33-1.33,3.43,3.43,0,0,0-1.6-1.55,6.6,6.6,0,0,1-1.64-1,4.69,4.69,0,0,0-1.22-1.17c-.29-.14-.55-.33-.84-.48a.52.52,0,0,0-.36,0A8.32,8.32,0,0,0,98,18.7s0,.09.15.25c1-.47,1.85.37,2.86.51a5.72,5.72,0,0,1,2.79,1.34c-.11.25-.14.63-.32.71a5.5,5.5,0,0,1-1.39.38c-.15,0-.33-.14-.49-.23-1.23-.72-2.47-1.36-4-.84-.22.07-.58-.28-.93-.46-.22.34-.5.75-.76,1.17-.1.18-.12.43-.26.57s-.46.71-1,.61a1.09,1.09,0,0,1-.48-1.31c.29-.5,0-1.39.89-1.5.13-1.09,1-1.78,1.49-2.66A12.59,12.59,0,0,1,98,14.75C98.62,14.12,99,13.07,100.39,13.09Z"/><path class="cls-1" d="M96.61,28.84a5.93,5.93,0,0,1,.93-3.47,6.19,6.19,0,0,0,.32-1.18l-1.48-.44a.66.66,0,0,1-.48-.83,1.56,1.56,0,0,1,1.67-.86,10,10,0,0,0,1.42.16c.49.07,1,.08,1.49.16s1.27-.29,1.78.29a1.07,1.07,0,0,0,.23-.16c.52-.44.72.1.93.35s-.1.49-.25.68a2.67,2.67,0,0,1-2,.87,2.68,2.68,0,0,0-2.07,1.23,5.68,5.68,0,0,0-.47,1.8,10.65,10.65,0,0,0,2.38.09c.46,0,.6-.34.81-.7a1.34,1.34,0,0,1,2.31-.16c.21.4.53.43.75.68s.28.6.51.82c.39.36.42.88.65,1.27s0,.56-.18.76-.54.24-.58.41c-.12.56-.31.31-.48.08a10.1,10.1,0,0,0-.63-.93c-.23-.24-.75-.19-.7-.72-.19,0-.44-.07-.57,0-.33.21-.5.7-1,.24-.16-.13-.74.31-1,.19s-.51-.29-.87,0a1.34,1.34,0,0,1-1,.13C98.24,29.4,97.49,29.12,96.61,28.84Z"/><path class="cls-1" d="M79.81,24a3.76,3.76,0,0,1,.87,4.47c.92.15,1.77.34,2.64.41.41,0,.83-.36,1.26,0s.59-.6,1-.12,1-.14,1.4.37a.5.5,0,0,0,.44,0c.34-.38.61-.38,1,0,.12.11.58-.23.8-.15A2.5,2.5,0,0,0,91.61,29c.19-.12.64.07.91.23.5.3.21.83.27,1.25a.18.18,0,0,1-.09.13l-2.23.69c-.52-.67-1.44.11-2-.57-.19-.23-.72.31-1.25,0a1.27,1.27,0,0,0-1.42.21c-.45.43-1-.41-1.53,0-.21-.54-.45.16-.74,0a4.77,4.77,0,0,0-1.1-.24c-.31-.09-.69-.41-.87-.31-.53.29-1-.07-1.46,0-.68.06-1-.26-1.18-.9a.73.73,0,0,1,0-.63c.24-.62.69-1.2.24-2-.19-.34.43-1-.13-1.51Z"/><path class="cls-1" d="M114,18.23a3.77,3.77,0,0,0,.38.72c.29.35-.11,1,.47,1.18-.34.21-.21.66-.37.87-.65.87.06,2-.66,2.83,0,0,0,.12,0,.17A9.91,9.91,0,0,0,114.93,26a3.58,3.58,0,0,0,1.5.88c.34.12.79,0,1.07.35,0,.05.43-.07.43-.1,0-.66.51-.27.74-.41.5-.29.53-.17.77.34.32.67.42,1.42-.25,1.52-.87.13-1.76.92-2.67.12a3.92,3.92,0,0,1-3.38-2.26c-.17-.29-.56-.5-.81-.83s.52-.66.11-1-.28-.83-.3-1.26-.13-.92.07-1.15c.56-.66,0-1.53.53-2.13-.21-.15-.29-.27,0-.5C113.16,19.14,113.59,18.68,114,18.23Z"/><path class="cls-1" d="M49.81,29.71c-1.39-.59-1.38-1.85-1.88-2.76-.12-.23.25-.68.22-1s-.53-.61-.47-.71c.46-.75.19-1.55.19-2.31s.34-1.7-.32-2.43c.58-.63.51-1.51.85-2.22a.67.67,0,0,1,.87-.35c.27.12.65.4.67.63a20.71,20.71,0,0,1,0,2.36c-.66.17.42.58-.14.89-.29.16-.23.71.13,1-.64.65.11,1.43-.2,2.13-.09.21.24.59.15.81s-.3.4-.1.73.12.84.27.88a.76.76,0,0,1,.63,1.09A5.68,5.68,0,0,1,49.81,29.71Z"/><path class="cls-1" d="M65.41,24.13c-.09.52,0,1-.16,1.5a4.72,4.72,0,0,0,.3,1c0,.19.36.84.81.21.45.19.78-.86,1.3-.12.16.22.71,0,.63.58a1.56,1.56,0,0,1-.8,1.24,1,1,0,0,1-.61.17c-.51-.06-.7.83-1.29.42s-1.31-.56-1.5-1.42c-.06-.27-.39-.54-.3-.89s-.66-.47-.08-.78a6.17,6.17,0,0,1-.58-1.58,9.09,9.09,0,0,1,.29-1.58c0-.23-.27-.46-.31-.71a1.08,1.08,0,0,1,.12-.79,4.22,4.22,0,0,1,1.07-.73s.31.19.34.33C64.92,22,65.16,23.09,65.41,24.13Z"/><path class="cls-1" d="M74.44,27.08l-1.36,1.37c-.46-.08-.64-.56-.79-1.18s-.65-1.23-.8-1.89A6.25,6.25,0,0,1,71,23.32a3.7,3.7,0,0,0-.62-2.14c-.13-.23-.15-.92.16-.82.51.17.83-.66,1.3-.1s1,.93.57,1.73a.88.88,0,0,0,.09.64c.13.32.86.45.27,1,.22.43.47.84.65,1.28s.2.84.37,1.22A6.69,6.69,0,0,0,74.44,27.08Z"/><path class="cls-1" d="M86.51,24.62l.91-.85c.88.88,1.18-.16,1.54-.55a2.08,2.08,0,0,1,2.45-.73c0,.2,0,.42,0,.64,0,.48.08.88-.62,1.14s-.55,1.13,0,1.49a1,1,0,0,1,.43,1.42,1.22,1.22,0,0,1-1.64.12Z"/><path class="cls-1" d="M80.71,21.38c-.13.33.31.92-.32.95-.26,0-.49.78-.69.1-.12-.37-.51-.35-.53-.43A12.33,12.33,0,0,0,78,19.73a.75.75,0,0,1,.39-1,1.08,1.08,0,0,1,.9,0A3,3,0,0,1,80.71,21.38Z"/></g></g></svg>