<svg xmlns="http://www.w3.org/2000/svg" viewBox="0 0 249.88 45.65"><defs><style>.cls-1{fill:#fff;}</style></defs><g id="レイヤー_1" data-name="レイヤー 1"><path d="M248.71,40.14c.27-.28,0-.79.07-1.19s.29-.73.37-1.1c.1-.52.41-1.14.13-1.55a6.29,6.29,0,0,1-.57-1.66c-.2-.5.84-.75.21-1.36-.42-.4-.07-1.16-.18-1.76-.07-.37,1.11-.72,0-1.08.92-.23-.1-.7.24-1s-.92-.95.24-1.45c.51-.22-.89-.95.08-1.43-.23-1,.52-2-.42-2.91a.58.58,0,0,1-.09-.54c.56-1.92.57-1.92,0-4,.68-.38-.21-.8,0-1,.39-.49-.12-1.08,0-1.27.64-.76.11-1.64.57-2.27.65-.87-.14-1.56-.09-2.32,0-.61-.29-1.34.08-1.8.55-.67-.15-1.15-.09-1.71a6.68,6.68,0,0,0,0-2.23,5.67,5.67,0,0,1-.22-1.83c0-.61-.87-1.27.23-1.81-.94-.41-.25-1.14-.64-1.63-.25-.31-.82-.86-1.33-.54-1.45.9-3.12-.26-4.53.37-.42-.62-1.49.28-1.88-.4-.77.72-1.58.4-2.39,0-1.78.74-3.72.19-5.58.34-.76.06-1.82-.21-2.26.05-.82.51-1.32-.23-1.88,0a5.52,5.52,0,0,1-3.59,0c-.19-.05-.5.11-.76.16s-.84.24-.95.15c-.82-.59-1.82-.27-2.72-.31-1.35-.05-2.71.06-4.05,0a9.26,9.26,0,0,0-3.86.19c-.31.09-.81.24-1,.15-1.12-.65-2.4-.2-3.59-.31a9.27,9.27,0,0,1-2.23-.14,2.38,2.38,0,0,0-2,0c-.53.19-1.17-.63-1.84,0A1.82,1.82,0,0,1,201,1a3.16,3.16,0,0,0-2.81,0,2.78,2.78,0,0,1-1.87,0,4.1,4.1,0,0,0-2.17-.27c-1.45,0-2.91-.07-4.34,0-.52,0-.56-.53-1.38-.21-1.88.75-4-.06-6,0-2.29.08-2.31-.25-4.5.11a2.36,2.36,0,0,1-1.51-.21c-.6-.65-1.44-.06-1.74-.19a1.47,1.47,0,0,0-1.77.27,1.75,1.75,0,0,1-1,.07c-.44-.05-1-.36-1.25-.25a6,6,0,0,1-3,.36c-.91,0-1.81-.4-2.71,0-1.31-.59-3,.57-4.2-.4-1.19.92-2.38,0-3.57,0-.54,0-1.08.13-1.63.18-.82.08-1.65.13-2.47.23s-1.77.27-2.66.39a.85.85,0,0,1-.51-.09c-.36-.24-.85-.54-1.17-.18-.5.58-.78-.23-1.28,0A7,7,0,0,1,143.6,1c-2.57-.33-2.54-.4-4.76.07a7.11,7.11,0,0,1-2.63.35c-.91-.2-1.46.73-2.51.12-.55-.32-2.5.67-2.47,1.17a8.19,8.19,0,0,1-.57,2.87,1.49,1.49,0,0,0,.47,1.83c-.81.51-.78,1,0,1.53-1.29.38.24,1-.29,1.58s-.21,1.15-.22,1.74a5.61,5.61,0,0,1-.53,1.94c1.47.72-.68,1.38-.07,2.08-.68.42-.3,1-.19,1.42s-.72.78.19,1c-1,.51-.41,1.24-.57,1.86s-.45,1.37-.56,2.06a5.06,5.06,0,0,0,0,1.82c.14.58-.84,1.07-.18,1.65-.88.55.4.93.26,1.54a7.74,7.74,0,0,0-.4,2.61c.06.37.29,1,.11,1.07-1.23.44.46.95-.18,1.49a1,1,0,0,0,.23,1.62.4.4,0,0,1,0,.52c-.87.56-.39,1.27-.46,1.9-.23,2,.43,3.93-.44,5.86,1,.39-.39.57-.17.93s.35.85.62,1.23c.12.18.53.25.8.37.71-.86,1.42-.15,2.13,0a4.55,4.55,0,0,0,1.05.2c.59-.74,1.53.67,2.05-.18a8,8,0,0,0,2.52.19,7.34,7.34,0,0,1,2.49-.18c1.26,0,2.62-.32,3.78.33,3.06-.82,6.23-.15,9.34-.34a8.4,8.4,0,0,1,2.46.23c.66.18.43-.12.6-.29a2.71,2.71,0,0,1,.8-.36c.51,1,1.85-.36,2.46.41a25.54,25.54,0,0,1,3.24-.38c1.17,0,2.43.48,3.49.29a7,7,0,0,1,1.57.07c.57,0,1.49-.32,1.63-.19.69.69,1.26-.34,1.87,0a1.63,1.63,0,0,0,2-.19c.36.6,1,0,1.44.15,1.24.48,2.58.17,3.88.18.31-.66,1.19.37,1.73-.3.19-.23,1.45,0,2.21-.07s1.08.57,1.89.07a3.62,3.62,0,0,1,2.24,0,16,16,0,0,0,4.41.38c2.14.1,4.34-.31,6.43.38a3.69,3.69,0,0,0,1.39-.06,12,12,0,0,1,1.54-.31c2.51,0,5-.1,7.52,0s4.94-.47,7.3.37a.62.62,0,0,0,.48-.12c.59-.71,1.28.18,1.81-.05a1.85,1.85,0,0,1,2,.1,1,1,0,0,0,.74,0c.51-.49,1.22-.28,1.85-.31,2.31-.12,4.66.27,6.93-.29.63.53,1.62-.62,2.32.26a3,3,0,0,0,1.92,0,8.41,8.41,0,0,1,4.12-.33c1.61.14,3.16-.77,4.74,0,.48-1,1.45.07,2.28-.25a7.77,7.77,0,0,1,3.07-.13,3.47,3.47,0,0,0,3-1.11C248.37,42.48,247.36,41.55,248.71,40.14Z"/><path d="M1.34,40.14c-.31-.28,0-.79-.07-1.19s-.34-.73-.43-1.1C.72,37.33.37,36.71.7,36.3s.39-1.12.65-1.66-1-.75-.24-1.36c.48-.4.08-1.16.2-1.76.08-.37-1.27-.72,0-1.08-1.06-.23.12-.7-.28-1C.44,29,2,28.48.71,28c-.58-.22,1-.95-.09-1.43.27-1-.59-2,.48-2.91a.49.49,0,0,0,.1-.54c-.64-1.92-.64-1.92,0-4-.78-.38.24-.8,0-1-.44-.49.14-1.08,0-1.27-.74-.76-.13-1.64-.66-2.27-.74-.87.16-1.56.1-2.32-.05-.61.34-1.34-.09-1.8-.63-.67.17-1.15.1-1.71a5.77,5.77,0,0,1,0-2.23A5.2,5.2,0,0,0,.93,4.67c-.06-.61,1-1.27-.27-1.81,1.08-.41.29-1.14.74-1.63C1.68.92,2.33.37,2.92.69c1.66.9,3.59-.26,5.2.37.49-.62,1.71.28,2.16-.4.88.72,1.81.4,2.74,0,2.05.74,4.28.19,6.41.34.87.06,2.09-.21,2.59.05.94.51,1.52-.23,2.16,0a7.22,7.22,0,0,0,4.12,0,3.1,3.1,0,0,1,.87.16c.37.07,1,.24,1.1.15.94-.59,2.08-.27,3.12-.31C34.94,1,36.5,1.13,38,1a12.15,12.15,0,0,1,4.43.19,2.63,2.63,0,0,0,1.1.15c1.28-.65,2.75-.2,4.12-.31A12,12,0,0,0,50.24.93a3.13,3.13,0,0,1,2.33,0c.61.19,1.34-.63,2.11,0A2.37,2.37,0,0,0,56.16,1a4.12,4.12,0,0,1,3.23,0,3.61,3.61,0,0,0,2.14,0A5.39,5.39,0,0,1,64,.66c1.66,0,3.33-.07,5,0,.6,0,.64-.53,1.58-.21,2.16.75,4.58-.06,6.92,0,2.63.08,2.65-.25,5.16.11A3.09,3.09,0,0,0,84.41.38c.69-.65,1.66-.06,2-.19a1.88,1.88,0,0,1,2,.27,2.33,2.33,0,0,0,1.11.07C90.05.48,90.73.17,91,.28a7.85,7.85,0,0,0,3.41.36c1,0,2.07-.4,3.1,0,1.51-.59,3.41.57,4.83-.4,1.36.92,2.73,0,4.1,0,.62,0,1.24.13,1.87.18.94.08,1.89.13,2.83.23s2,.27,3,.39a1.1,1.1,0,0,0,.59-.09c.41-.24,1-.54,1.34-.18.58.58.9-.23,1.48,0A9.17,9.17,0,0,0,122,1c3-.33,2.93-.4,5.47.07a9.25,9.25,0,0,0,3,.35c1.06-.2,1.68.73,2.89.12.63-.32,2.87.67,2.84,1.17a7.47,7.47,0,0,0,.64,2.87,1.36,1.36,0,0,1-.52,1.83c.92.51.89,1,0,1.53,1.48.38-.28,1,.33,1.58s.25,1.15.25,1.74a5.35,5.35,0,0,0,.61,1.94c-1.68.72.78,1.38.08,2.08.79.42.35,1,.22,1.42s.83.78-.21,1c1.11.51.46,1.24.65,1.86s.51,1.37.64,2.06a4.29,4.29,0,0,1,0,1.82c-.15.58,1,1.07.21,1.65,1,.55-.45.93-.3,1.54a6.72,6.72,0,0,1,.46,2.61c-.06.37-.33,1-.12,1.07,1.41.44-.53.95.21,1.49.52.38.62,1.11-.27,1.62-.15.09-.17.44,0,.52,1,.56.44,1.27.53,1.9.26,2-.5,3.93.5,5.86-1.1.39.45.57.19.93s-.39.85-.71,1.23c-.14.18-.6.25-.91.37-.82-.86-1.63-.15-2.44,0a6.1,6.1,0,0,1-1.21.2c-.69-.74-1.76.67-2.36-.18a10.49,10.49,0,0,1-2.89.19,9.59,9.59,0,0,0-2.85-.18c-1.46,0-3-.32-4.34.33-3.52-.82-7.16-.15-10.73-.34a11,11,0,0,0-2.82.23c-.77.18-.5-.12-.69-.29a3.46,3.46,0,0,0-.92-.36c-.59,1-2.13-.36-2.83.41a33.07,33.07,0,0,0-3.71-.38c-1.35,0-2.8.48-4,.29A9.29,9.29,0,0,0,95,45.2c-.64,0-1.71-.32-1.86-.19-.8.69-1.45-.34-2.15,0a2.09,2.09,0,0,1-2.26-.19c-.41.6-1.11,0-1.65.15-1.43.48-3,.17-4.45.18-.37-.66-1.37.37-2-.3-.22-.23-1.67,0-2.54-.07-.72-.07-1.24.57-2.18.07a4.7,4.7,0,0,0-2.56,0,21,21,0,0,1-5.06.38c-2.46.1-5-.31-7.39.38a4.82,4.82,0,0,1-1.59-.06,16,16,0,0,0-1.77-.31c-2.88,0-5.77-.1-8.64,0s-5.66-.47-8.37.37a.82.82,0,0,1-.56-.12c-.67-.71-1.46.18-2.07-.05a2.39,2.39,0,0,0-2.31.1,1.37,1.37,0,0,1-.85,0c-.58-.49-1.4-.28-2.13-.31-2.64-.12-5.34.27-7.94-.29-.73.53-1.86-.62-2.67.26a4,4,0,0,1-2.2,0,11.06,11.06,0,0,0-4.74-.33c-1.84.14-3.62-.77-5.43,0-.55-1-1.67.07-2.62-.25a10.23,10.23,0,0,0-3.53-.13A4.34,4.34,0,0,1,0,43.32C1.74,42.48,2.9,41.55,1.34,40.14Z"/></g><g id="レイヤー_2" data-name="レイヤー 2"><path class="cls-1" d="M136.69,22a7.37,7.37,0,0,1,.54-1.2,1.12,1.12,0,0,1,1.15-.55,17.93,17.93,0,0,0,2.11,0,6.46,6.46,0,0,0-2.79-.35,1,1,0,0,1-.51,0c-.35-.14-.67-.34-1-.52.08-.71.76-1,1.14-1.41.08-.1.39-.05.57,0,1.12.34,1.38.17,1.42-1,0-.23,0-.46,0-.86a14.77,14.77,0,0,1-1.49,0,1.27,1.27,0,0,1-.72-.31c-.41-.38-.18-.66.27-1.08s1.2-.16,1.88-.39l.1-1.35a11.15,11.15,0,0,1,1.31.22c.12,0,.24.31.23.47,0,.74,0,.65.68.76a16.88,16.88,0,0,1,2.23.63l-.92,1.47h-2.2l.47,1.66c.42,0,1,.18,1.29,0,.48-.39.8-.05,1.12.06.81.29,1,.53,1.27,1,.1.19.2.38.3.6-.68.27-1.34.86-2.21.17-.23-.19-.75,0-1.29,0a5.3,5.3,0,0,0,2.63.76,17.54,17.54,0,0,0,2.43.29c.17,0,.47.34.54.58a5.71,5.71,0,0,1,.33,2.77,1.11,1.11,0,0,1-.74.72A8.8,8.8,0,0,1,145,25a5.47,5.47,0,0,0,.55-.83,1.7,1.7,0,0,0,.26-1c-.05-.23-.54-.59-.68-.53-.63.28-1.2-.93-1.81-.06-.5-.53-1.16-.31-1.74-.3s-1.24-.24-1.89-.25c-.48,0-.49,0-.77.38-.49.73-.18,1.42-.24,2.12,0,0,.17.13.27.13s.25,0,.29-.09c.3-.51.55-1.05.88-1.53.14-.2.53-.46.66-.4a1.13,1.13,0,0,1,.59.7c.09.5.21,1.2-.05,1.5-.58.67-.24,1.55-.72,2.19-.12.16-.27.51-.21.57.58.54-.12.86-.25,1.2-.3.8-.81.06-1.23,0-.09,0-.18-.1-.3-.18.18-.79-.29-1.68.36-2.43a.5.5,0,0,0-.14-.43.49.49,0,0,0-.45.05c-.23.16-.46.57-.61.54a3,3,0,0,1-1-.58c-.25-.18-.28-.37-.15-.71.47-1.24.43-1.26-.73-1.88-.64-.34-1.22-.92-2-.31-.08.07-.42-.2-.79-.39,0,1.33-.06,2.47,0,3.6s-.34,2.15.23,3.18c0,.06-.1.28-.2.35-.27.17-.56.31-.92.5a1.65,1.65,0,0,1-.89-1.69c.05-.39-.24-.81-.3-1.23a10.34,10.34,0,0,1,0-1.4l-1,.75c-.31.22-.46.46,0,.73l-.68.92a1.11,1.11,0,0,1-1.32.14c-.31-.22-.64-.48-.2-.95s.36-1.6,1.1-2.13c.52-.37.68-1.56,1.72-.6.25.23.59-.26.52-.76a4,4,0,0,1,.13-.94c-.32,0-.71,0-1.1,0A1.25,1.25,0,0,1,129,22.1c-.14-.46-.39-1.32.21-1.56.92-.38,1.12-1.32,1.8-1.85-.6-.37-1.21-.7-1.76-1.11s-.41-1.31-.21-1.78c.67-1.61,2.18-2.26,3.45-3.28l.66,1.28c-.92.73-1.41,1.86-2.57,2.55a7,7,0,0,0,2.16.37c.58-.09,1.17-.62,1.58.12s-.35,1-.53,1.54a3.41,3.41,0,0,1-1.72,1.69c-.17.1-.64.39-.28.73s1.82.11,1.93-.41c.18-.76.58-.55,1-.43a7.67,7.67,0,0,1,.84.46c.43.18.82.29.69.92C136.18,21.5,136.52,21.75,136.69,22Zm4.66-1.8c-.07-.12-.13-.26-.17-.26a2.46,2.46,0,0,0-.45.11c0,.07.08.21.13.21A2.25,2.25,0,0,0,141.35,20.15Z"/><path class="cls-1" d="M113.14,22.55c.29-1.35,1.34-1.52,2.38-1.62a8,8,0,0,0,1.82-.34c.62.63,1.4.18,2.2.38a9.37,9.37,0,0,0,.07-1c0-.89-.4-1.25-1.38-1.28-.45,0-.9-.27-1.39.13-.25.2-.78,0-1.18,0-.56,0-.79-.33-.88-.81-.12-.65.36-1.38.87-1.15s.83-.43,1.33-.14a4.89,4.89,0,0,0,1.4.37,3.53,3.53,0,0,0,.47,0c0-.3.06-.62.07-.93s0-.68,0-1c-.15-.06-.28-.16-.34-.13-.52.29-.8-.68-1.36-.22-.38.31-.72-.24-1.15-.17a1.17,1.17,0,0,1-.84-.4c-.37-.35.13-.56.23-.84a2.17,2.17,0,0,0,.11-.39c.71-.2,1.43.22,2-.29,0,0,.21,0,.23,0,.42.79,1,.36,1.54.22.91-.22,1.92.32,2.79-.33.39.55,1,.16,1.55.41-.11.2-.3.37-.3.53,0,.81-.33,1.06-1.11,1.13a3.33,3.33,0,0,0-1.64.32c-.15.1-.38.36-.35.4a6.79,6.79,0,0,0,.65.77c-.35.27-.31.51,0,.73s.62.52.82.45c.35-.13.54-.48,1-.06a1.44,1.44,0,0,1,.55,1.66l-2.15-.23c.89.78-.2,1.4.26,2.15.37-.05.8-.09,1.22-.17.15,0,.38-.22.42-.18.84.88,1.64-.17,2.49-.06s.85,0,1.11.75c.09.27-.35,1.07-.61,1-.51-.17-.78.78-1.35.2-.25-.25-.66.49-1.1,0-.12-.14-.75.13-1.14.25-.13,0-.24.23-.36.23-.8,0-1,.13-1,.75a6.34,6.34,0,0,1-2.09,4.48,2.87,2.87,0,0,1-1.26.68,1.64,1.64,0,0,1-2-.88c.51-.28,1.21-.45,1.5-.88s1.24-.74,1.16-1.16c-.17-.82.81-.77.78-1.42a9.71,9.71,0,0,1,.29-1.88c-.88.19-1.71-.17-2.62.33-.53.29-1.38-.08-2,.08A1.59,1.59,0,0,1,113.14,22.55Z"/><path class="cls-1" d="M85.69,20.88a9.6,9.6,0,0,1,.76,3.4,1.43,1.43,0,0,0,.42,1,3.15,3.15,0,0,1,.49,1.16c.11.45-.78,1.07-1.19.86-.79-.41-1.63-.79-1.46-2,0-.23-.2-.49-.22-.75,0-.58-.39-1.08-.16-1.76a1.67,1.67,0,0,0-.23-1.77c-.15-.15-.12-.56,0-.82A3.48,3.48,0,0,0,83.63,18a3.81,3.81,0,0,1-.08-2.38,2,2,0,0,0-.28-1.48,1.73,1.73,0,0,1-.26-1.1.74.74,0,0,1,.72-.78,2.84,2.84,0,0,1,1.2,0c.38.16.57-.71,1-.1.06.08.77-.19.77-.17.21.65.72-.51.89.15,1.05-.36,2.07.37,3.12.1a.75.75,0,0,1,.92.57c.21.69.86,1.32.39,2.15a.68.68,0,0,0,.09.63.88.88,0,0,1,0,1.2c-.13.2-.21.67-.1.77.68.59.17,1.11,0,1.64a.89.89,0,0,1-1.06.62,2.27,2.27,0,0,0-1.41.34A7.28,7.28,0,0,1,85.69,20.88Zm.14-3.69v1.52a4.52,4.52,0,0,0,1.57.36,18.57,18.57,0,0,1,2.5-.59c.12,0,.28-.25.35-.42a7.41,7.41,0,0,0,.25-.81c-.56-.16-1.27-.61-1.66-.42C87.85,17.33,86.85,16.94,85.83,17.19Zm4.79-2.3c-.28-.33-.45-.75-.73-.84a5,5,0,0,0-1.35,0,2.1,2.1,0,0,1-1.26-.3c-.41-.28-.65.48-1,.63-.12,0-.29-.1-.45-.14s-.32-.05-.34,0c-.13.29.47,1.2.78,1.2.62,0,1.25,0,1.88,0s1.15-.33,1.77,0C90,15.43,90.36,15.07,90.62,14.89Z"/><path class="cls-1" d="M101.27,11.36c.83-.26,1.55.19,2.16-.31,0,0,.16,0,.24,0l1.78,1.44a4.21,4.21,0,0,0,2.06,2.06,6.66,6.66,0,0,1,1.69,1.66c.48.6,1,1.17,1.53,1.8a4.62,4.62,0,0,0-.72.26,1.26,1.26,0,0,1-1.78-.23c-.62-.56-1-1.39-1.91-1.64-.15,0-.1-.8-.27-.86-.58-.2-.74-.7-1.1-1.07a10.15,10.15,0,0,0-2-1.38c-.65.93-1.25,1.89-2,2.78-.31.39-.52.71-.25,1.23a2,2,0,0,1,.49-.3c.16-.05.47-.07.5,0,.26.52.68,0,1,.19.6.38.88.3,1.8.19a2,2,0,0,1,.93.17c.61.23,1.16.66,1.84.44.45.58.13.95-.25,1.34s-.67.65-1.08.1c-.26.49-.83-.2-1.1.28a5.9,5.9,0,0,0-1.11-.64,10.2,10.2,0,0,0-1.47-.21c-.15,0-.36-.19-.44-.13-.24.14-.4.45-.64.54-.48.18-.14-.37-.36-.47a3.67,3.67,0,0,0-.72-.35.65.65,0,0,0-.57.1c-.38.52-.71,1.08-1,1.63-.07.14,0,.38-.08.48s-.51.48-.65.42a1.48,1.48,0,0,1-.65-.66c-.3-.52.55-1,0-1.58.54-.33.53-.92.77-1.41s.72-.72.57-1.31c.89-.41,1.14-1.34,1.69-2,.13-.17.39-.38.35-.53C100.41,12.52,101.69,12.27,101.27,11.36Z"/><path class="cls-1" d="M155.18,21c-.63-.38-.9.73-1.34.08s-.7.22-1.11,0a4.28,4.28,0,0,0-1.27-.27c-.39-1,.67-1.29,1-1.92a16.08,16.08,0,0,0,1.61.62c.65.18,1.35-.45,1-1.08a3.7,3.7,0,0,1-.32-1.43c0-.09-.24-.16-.36-.23-.38.65-.86-.16-1.4.12s-1.59-1-1.33-1.61a1.76,1.76,0,0,1,1.43-.55c.36.15.76-.05.91,0,.55.27.82.08,1.2-.29.81-.79,1.37-.66,1.6.44.11.5.38.38.66.51.47.21.86-.68,1.28,0,.49-.16.84.17,1.24.34l.42.63c0,.1-.32.43-.37.51-.26.38-.63.24-.95.23s-.78-.19-1.17-.18a7.63,7.63,0,0,0-1.26.27l.28,2c.37-.07.87-.34,1.2-.19a1.54,1.54,0,0,0,1.21,0c.41-.12,1,.5,1.4-.09a5.23,5.23,0,0,1,.91,1c.26.53-.28.6-.62.73a3.07,3.07,0,0,1-.93.22c-.92,0-1.84,0-2.92,0a3.6,3.6,0,0,0,.23,1.06c.18.32.09.47-.09.73a.69.69,0,0,0,.11,1c.68.5.08.91-.1,1.31s-1.16.53-1.37.3-.56-.75-.47-1c.42-1-.34-1.78-.38-2.68C155.17,21.47,155.18,21.25,155.18,21Z"/><path class="cls-1" d="M102.14,22.79a13.61,13.61,0,0,1-1.88-.37c-.28-.1-.82-.08-.69-.71.08-.45.34-.86.71-.76.68.18,1.29-.87,2-.06.08.08.56-.23.87-.31s.31.55.63.12a.36.36,0,0,1,.29-.12,3.76,3.76,0,0,0,1.23.28c.39-.06.71-.48,1.11-.62a.88.88,0,0,1,1,.4c.23.31,0,.48-.16.72a11.37,11.37,0,0,0-.58,1.28c-.17-.14-.38-.36-.41-.33a3.52,3.52,0,0,1-1.94.34.88.88,0,0,0-.51.41,10.43,10.43,0,0,0-.78,1.57,1.13,1.13,0,0,0,.9,1.43,7,7,0,0,0,1.89,0c.21,0,.35-.6.56-.63.82-.12.13-.37.09-.58-.08-.48,0-.67.88-1.5.39-.16-.18,1.16.61.39.08.1.22.19.22.29a3,3,0,0,0,1.25,2.06,2.87,2.87,0,0,1,.83,1.7c-.09.53-.5.67-.93.8-.1,0-.17.15-.29.28-.1-.46-1.11-.46-.51-1.22-.49-.19-1.08-.82-1.44-.48-.55.53-1.21.07-1.73.49A3.48,3.48,0,0,1,104,28a.28.28,0,0,1-.24,0c-.44-.54-1.21-.14-1.7-.63S100.82,27,101,26.05c.08-.6-.13-1.25.5-1.7.13-.09,0-.5.08-.71A5.14,5.14,0,0,1,102.14,22.79Z"/><path class="cls-1" d="M95.92,28c-1.38,1.44-1.88,1.68-3.68,1.47-.55-.06-1.07.58-1.61,0-.48.49-.95,0-1.43,0a3.37,3.37,0,0,0-1.41.35.84.84,0,0,1-.68,0,3.39,3.39,0,0,0-2.27-.32c-.78,0-1.66-.54-2.34.31-.21-.53-.71.18-1-.24a1,1,0,0,0-.5-.41c-.79-.16-.53-.72-.28-1a2.14,2.14,0,0,0,.19-2.73c-.07-.15-.12-.3-.18-.44-.68-1.55-.68-1.55.71-2.4a9,9,0,0,1,1.48,2.24,10.43,10.43,0,0,1,0,2.79l1.5-.21c.32.83,1-.12,1.51.28s1.22.05,1.85.07,1.47-.33,2.31,0a7.93,7.93,0,0,0,2.39,0c.34,0,.79.12,1-.05C94.42,27.05,95.07,27.69,95.92,28Z"/><path class="cls-1" d="M176.54,24.92a3,3,0,0,1-.45.12c-.5.1-.64-.39-1-.58a8.38,8.38,0,0,1-2.33-2.09c-.73-1.22-1.89-2.13-2.52-3.43,0-.09-.3-.09-.46-.09s-.79.74-.94,1.09a11.69,11.69,0,0,1-.76,1.33c-.28.46-.61.89-.84,1.37s-.91.5-.76,1.23c.06.29-.84.62-1.14.49a1.16,1.16,0,0,1-.53-1.21c.06-.26,0-.66.14-.79,1.39-1.1,1.66-2.93,2.79-4.2.09-.93.79-1.25,1.54-1.54a1.45,1.45,0,0,1,1.76.52c.5.55.57,1.42,1.41,1.72.64.23.32,1.34,1.23,1.47.19,0,.3.53.46.81a2.63,2.63,0,0,0,.54.79,3.61,3.61,0,0,1,1.53,2.45A2.46,2.46,0,0,0,176.54,24.92Z"/><path class="cls-1" d="M93.52,21.31a3.63,3.63,0,0,1-2.43,2.2l1.38,1.71c-.89,1.13-.93,1.1-2.2.4-.55-.31-1.14-.57-1.7-.89a2.18,2.18,0,0,1-1.09-2c1.52-.09,1.57-.15,3.66-1.44.3-.19.91-.82,1.44-.06C92.68,21.37,93.09,21.29,93.52,21.31Z"/><path class="cls-1" d="M156.77,29.15c-.56-.32-.92-.65-1.61-.37-.33.13-1-.34-1.39-.65-.79-.58-1.65-1.12-1.76-2.27a2,2,0,0,1,.88-1.8,2.53,2.53,0,0,1,.9.69c-.17,1.13.79,1.56,1.4,2.15a1.65,1.65,0,0,0,1.24.14,8.81,8.81,0,0,0,1.31-.57.94.94,0,0,1,1.16.4c.17.24-.28,1.15-.63,1.27s-.46,0-.62.15A10.08,10.08,0,0,0,156.77,29.15Z"/><path class="cls-1" d="M147.24,29.18c-.76,0-1.43,0-2.11,0a3.23,3.23,0,0,1-3.07-2.83c0-.27,0-.56-.05-.83a1.27,1.27,0,0,1,.63-1.5.79.79,0,0,1,.33,0c-.11.65.95.52.81,1.16s.21.83.34,1.23a1.26,1.26,0,0,0,1.66.91,3.59,3.59,0,0,1,.75-.23c.78-.05.85.08.72,1A7.49,7.49,0,0,0,147.24,29.18Z"/><path class="cls-1" d="M80.35,16.79s.37,0,.52.13a14.38,14.38,0,0,1,1.69,2,1.14,1.14,0,0,1,0,1.09,1.08,1.08,0,0,1-1.08.13,12.6,12.6,0,0,1-1.56-1.54C80.51,18.07,79.29,17.46,80.35,16.79Z"/><path class="cls-1" d="M137.94,27.3c-.34.29-.69.81-1,.79a4.49,4.49,0,0,1-1.6-.63,1.94,1.94,0,0,1-1.2-1.34c0-.22.13-.48.21-.73.33.25.5-.61,1-.07a11.46,11.46,0,0,0,1.77,1.46A8.33,8.33,0,0,0,137.94,27.3Z"/><path class="cls-1" d="M132.36,20.42s-.1.12-.11.11l-.21-.15.16-.16Z"/><path class="cls-1" d="M101.31,27.27l-.21.16c0-.07-.08-.19,0-.21a.74.74,0,0,1,.26-.1Z"/></g></svg>