<svg xmlns="http://www.w3.org/2000/svg" viewBox="0 0 196.51 45.65"><defs><style>.cls-1{fill:#fff;}</style></defs><g id="レイヤー_1" data-name="レイヤー 1"><path d="M195.59,40.14c.22-.28,0-.79,0-1.19s.24-.73.3-1.1c.08-.52.32-1.14.1-1.55a7.61,7.61,0,0,1-.45-1.66c-.16-.5.66-.75.16-1.36-.32-.4-.05-1.16-.13-1.76-.06-.37.87-.72,0-1.08.73-.23-.08-.7.2-1s-.73-.95.18-1.45c.4-.22-.7-.95.07-1.43-.19-1,.4-2-.33-2.91a.68.68,0,0,1-.07-.54,6.1,6.1,0,0,0,0-4c.53-.38-.16-.8,0-1,.3-.49-.09-1.08,0-1.27.51-.76.09-1.64.45-2.27.51-.87-.11-1.56-.07-2.32,0-.61-.23-1.34.06-1.8.43-.67-.11-1.15-.07-1.71a8.76,8.76,0,0,0,0-2.23,7,7,0,0,1-.18-1.83c0-.61-.68-1.27.18-1.81-.74-.41-.2-1.14-.5-1.63-.2-.31-.64-.86-1.05-.54-1.14.9-2.45-.26-3.56.37-.33-.62-1.17.28-1.48-.4-.6.72-1.24.4-1.88,0-1.4.74-2.93.19-4.39.34-.6.06-1.43-.21-1.77.05-.64.51-1-.23-1.48,0a3.49,3.49,0,0,1-2.83,0c-.14-.05-.39.11-.59.16s-.66.24-.75.15c-.65-.59-1.43-.27-2.14-.31-1.06-.05-2.13.06-3.19,0a5.77,5.77,0,0,0-3,.19c-.24.09-.63.24-.76.15-.87-.65-1.88-.2-2.82-.31-.58-.07-1.3.1-1.75-.14a1.52,1.52,0,0,0-1.59,0c-.42.19-.92-.63-1.44,0A1.16,1.16,0,0,1,158,1a2,2,0,0,0-2.21,0,1.75,1.75,0,0,1-1.47,0c-.58-.42-1.15-.25-1.71-.27a32.31,32.31,0,0,0-3.41,0c-.41,0-.44-.53-1.09-.21-1.47.75-3.13-.06-4.74,0-1.8.08-1.81-.25-3.53.11-.38.08-1,0-1.19-.21-.48-.65-1.14-.06-1.37-.19-.7-.4-1-.09-1.4.27-.14.13-.51.11-.75.07s-.81-.36-1-.25a3.82,3.82,0,0,1-2.34.36c-.71,0-1.42-.4-2.13,0-1-.59-2.33.57-3.3-.4-.94.92-1.87,0-2.81,0-.43,0-.85.13-1.28.18-.65.08-1.3.13-1.94.23s-1.4.27-2.09.39a.57.57,0,0,1-.41-.09c-.28-.24-.67-.54-.92-.18-.39.58-.61-.23-1,0a4.39,4.39,0,0,1-3,.19c-2-.33-2-.4-3.75.07a4.46,4.46,0,0,1-2.06.35c-.72-.2-1.15.73-2,.12-.44-.32-2,.67-2,1.17a10.35,10.35,0,0,1-.44,2.87,1.75,1.75,0,0,0,.36,1.83c-.64.51-.61,1,0,1.53-1,.38.19,1-.23,1.58s-.16,1.15-.17,1.74a6.8,6.8,0,0,1-.42,1.94c1.16.72-.53,1.38,0,2.08-.54.42-.24,1-.15,1.42s-.57.78.15,1c-.76.51-.32,1.24-.45,1.86s-.35,1.37-.44,2.06a6.17,6.17,0,0,0,0,1.82c.11.58-.67,1.07-.14,1.65-.69.55.31.93.2,1.54a9.52,9.52,0,0,0-.31,2.61c0,.37.22,1,.08,1.07-1,.44.37.95-.14,1.49a1.1,1.1,0,0,0,.18,1.62.47.47,0,0,1,0,.52c-.68.56-.3,1.27-.36,1.9-.18,2,.34,3.93-.34,5.86.75.39-.31.57-.13.93s.27.85.48,1.23c.1.18.41.25.63.37.56-.86,1.11-.15,1.67,0,.29.08.79.26.83.2.47-.74,1.2.67,1.61-.18.67.08,1.45.39,2,.19a4.59,4.59,0,0,1,2-.18c1,0,2.06-.32,3,.33,2.41-.82,4.91-.15,7.35-.34a5.2,5.2,0,0,1,1.93.23c.53.18.35-.12.48-.29s.41-.24.63-.36c.4,1,1.45-.36,1.93.41a16,16,0,0,1,2.55-.38c.92,0,1.91.48,2.74.29.54-.12.84.08,1.24.07s1.17-.32,1.28-.19c.54.69,1-.34,1.47,0a1.08,1.08,0,0,0,1.55-.19c.28.6.76,0,1.13.15,1,.48,2,.17,3.05.18.25-.66.94.37,1.36-.3.15-.23,1.15,0,1.74-.07s.85.57,1.49.07a2.27,2.27,0,0,1,1.76,0,10,10,0,0,0,3.47.38c1.68.1,3.41-.31,5.06.38a2.28,2.28,0,0,0,1.09-.06,7.68,7.68,0,0,1,1.21-.31c2,0,3.95-.1,5.92,0s3.88-.47,5.73.37a.41.41,0,0,0,.38-.12c.47-.71,1,.18,1.43-.05a1.2,1.2,0,0,1,1.58.1.65.65,0,0,0,.58,0c.4-.49,1-.28,1.46-.31,1.81-.12,3.66.27,5.44-.29.5.53,1.27-.62,1.83.26.12.2,1.12.2,1.51,0a5.28,5.28,0,0,1,3.24-.33c1.26.14,2.48-.77,3.72,0,.38-1,1.15.07,1.8-.25a4.86,4.86,0,0,1,2.42-.13,2.44,2.44,0,0,0,2.39-1.11C195.32,42.48,194.53,41.55,195.59,40.14Z"/><path d="M1.06,40.14c-.25-.28,0-.79-.06-1.19s-.27-.73-.34-1.1C.57,37.33.29,36.71.55,36.3a7.33,7.33,0,0,0,.51-1.66c.18-.5-.76-.75-.19-1.36.38-.4.06-1.16.16-1.76.06-.37-1-.72,0-1.08-.84-.23.09-.7-.22-1S1.61,28.48.56,28c-.46-.22.81-.95-.07-1.43.21-1-.47-2,.38-2.91A.64.64,0,0,0,1,23.1a5.36,5.36,0,0,1,0-4c-.61-.38.19-.8,0-1-.34-.49.11-1.08,0-1.27-.58-.76-.1-1.64-.51-2.27-.58-.87.13-1.56.08-2.32,0-.61.26-1.34-.08-1.8-.49-.67.14-1.15.09-1.71a7.25,7.25,0,0,1,0-2.23A6,6,0,0,0,.73,4.67c0-.61.78-1.27-.21-1.81.85-.41.23-1.14.58-1.63C1.32.92,1.83.37,2.3.69c1.31.9,2.82-.26,4.09.37.38-.62,1.34.28,1.69-.4.7.72,1.43.4,2.16,0,1.61.74,3.36.19,5,.34.69.06,1.64-.21,2,.05.74.51,1.2-.23,1.71,0a4.52,4.52,0,0,0,3.24,0c.17-.05.45.11.68.16s.76.24.86.15c.74-.59,1.64-.27,2.46-.31,1.21-.05,2.45.06,3.65,0a7.6,7.6,0,0,1,3.49.19c.28.09.73.24.87.15,1-.65,2.16-.2,3.23-.31a7.47,7.47,0,0,0,2-.14,2,2,0,0,1,1.83,0c.48.19,1.06-.63,1.66,0A1.51,1.51,0,0,0,44.17,1a2.61,2.61,0,0,1,2.54,0,2.26,2.26,0,0,0,1.68,0,3.38,3.38,0,0,1,2-.27c1.31,0,2.62-.07,3.92,0,.47,0,.5-.53,1.24-.21,1.7.75,3.6-.06,5.45,0C63,.56,63,.23,65,.59A1.94,1.94,0,0,0,66.38.38C66.92-.27,67.69.32,68,.19c.8-.4,1.12-.09,1.6.27a1.45,1.45,0,0,0,.87.07c.4-.05.93-.36,1.13-.25a4.93,4.93,0,0,0,2.68.36c.82,0,1.63-.4,2.44,0,1.18-.59,2.68.57,3.79-.4,1.08.92,2.15,0,3.23,0,.49,0,1,.13,1.47.18.74.08,1.49.13,2.23.23s1.6.27,2.4.39A.71.71,0,0,0,90.25,1c.32-.24.77-.54,1-.18.46.58.71-.23,1.17,0A5.71,5.71,0,0,0,95.94,1c2.33-.33,2.3-.4,4.31.07a5.8,5.8,0,0,0,2.36.35c.83-.2,1.33.73,2.27.12.5-.32,2.26.67,2.24,1.17a8.85,8.85,0,0,0,.51,2.87,1.6,1.6,0,0,1-.42,1.83c.73.51.7,1,0,1.53,1.17.38-.21,1,.27,1.58s.19,1.15.19,1.74a6.57,6.57,0,0,0,.48,1.94c-1.32.72.61,1.38.07,2.08.61.42.27,1,.17,1.42s.65.78-.17,1c.87.51.37,1.24.51,1.86s.41,1.37.5,2.06a5.06,5.06,0,0,1,0,1.82c-.12.58.77,1.07.17,1.65.79.55-.36.93-.24,1.54a8,8,0,0,1,.36,2.61c0,.37-.25,1-.09,1.07,1.11.44-.42.95.16,1.49a1,1,0,0,1-.21,1.62.44.44,0,0,0,0,.52c.79.56.35,1.27.41,1.9.21,2-.38,3.93.4,5.86-.87.39.35.57.15.93s-.31.85-.56,1.23c-.11.18-.47.25-.72.37-.64-.86-1.28-.15-1.92,0a3.68,3.68,0,0,1-1,.2c-.54-.74-1.38.67-1.85-.18a6.54,6.54,0,0,1-2.27.19,6,6,0,0,0-2.25-.18c-1.14,0-2.37-.32-3.41.33-2.77-.82-5.63-.15-8.44-.34a6.85,6.85,0,0,0-2.22.23c-.6.18-.39-.12-.54-.29a2.42,2.42,0,0,0-.72-.36c-.46,1-1.68-.36-2.23.41a20.71,20.71,0,0,0-2.91-.38c-1.07,0-2.2.48-3.16.29a5.74,5.74,0,0,0-1.42.07c-.51,0-1.34-.32-1.47-.19-.62.69-1.14-.34-1.69,0a1.37,1.37,0,0,1-1.78-.19c-.32.6-.87,0-1.29.15-1.13.48-2.33.17-3.5.18-.29-.66-1.08.37-1.57-.3-.17-.23-1.31,0-2-.07s-1,.57-1.71.07a3,3,0,0,0-2,0,13.07,13.07,0,0,1-4,.38c-1.94.1-3.92-.31-5.81.38a3,3,0,0,1-1.25-.06,10.23,10.23,0,0,0-1.39-.31c-2.27,0-4.54-.1-6.79,0s-4.46-.47-6.59.37a.54.54,0,0,1-.44-.12c-.53-.71-1.15.18-1.63-.05a1.53,1.53,0,0,0-1.81.1.86.86,0,0,1-.67,0c-.46-.49-1.1-.28-1.68-.31-2.08-.12-4.2.27-6.25-.29-.57.53-1.46-.62-2.09.26a2.48,2.48,0,0,1-1.73,0,6.94,6.94,0,0,0-3.73-.33c-1.45.14-2.85-.77-4.27,0-.44-1-1.32.07-2.06-.25a6.38,6.38,0,0,0-2.78-.13A3,3,0,0,1,0,43.32C1.37,42.48,2.28,41.55,1.06,40.14Z"/></g><g id="レイヤー_2" data-name="レイヤー 2"><path class="cls-1" d="M106,22a8.34,8.34,0,0,1,.55-1.2,1.12,1.12,0,0,1,1.15-.55,17.72,17.72,0,0,0,2.1,0,6.4,6.4,0,0,0-2.78-.35,1,1,0,0,1-.52,0c-.34-.14-.66-.34-1-.52.08-.71.77-1,1.15-1.41.07-.1.39-.05.57,0,1.11.34,1.37.17,1.42-1,0-.23,0-.46,0-.86a14.62,14.62,0,0,1-1.48,0,1.33,1.33,0,0,1-.73-.31c-.4-.38-.18-.66.28-1.08s1.2-.16,1.88-.39l.1-1.35a11.91,11.91,0,0,1,1.31.22c.12,0,.24.31.23.47,0,.74,0,.65.68.76a16.88,16.88,0,0,1,2.23.63l-.93,1.47H110l.46,1.66c.43,0,1,.18,1.29,0,.49-.39.8-.05,1.13.06a1.85,1.85,0,0,1,1.27,1c.09.19.19.38.3.6-.68.27-1.34.86-2.21.17-.24-.19-.75,0-1.3,0a5.33,5.33,0,0,0,2.63.76,17.72,17.72,0,0,0,2.43.29c.18,0,.48.34.55.58a5.83,5.83,0,0,1,.33,2.77,1.13,1.13,0,0,1-.74.72,8.8,8.8,0,0,1-1.84,0,6.38,6.38,0,0,0,.55-.83,1.88,1.88,0,0,0,.26-1c0-.23-.55-.59-.68-.53-.64.28-1.2-.93-1.81-.06-.51-.53-1.16-.31-1.75-.3s-1.23-.24-1.89-.25c-.48,0-.48,0-.76.38-.49.73-.19,1.42-.25,2.12,0,0,.18.13.27.13s.26,0,.3-.09c.3-.51.55-1.05.88-1.53.14-.2.52-.46.65-.4a1.15,1.15,0,0,1,.6.7c.08.5.21,1.2-.05,1.5-.58.67-.24,1.55-.73,2.19-.12.16-.26.51-.2.57.58.54-.13.86-.25,1.2-.3.8-.81.06-1.23,0-.1,0-.19-.1-.31-.18.19-.79-.28-1.68.36-2.43.06-.07,0-.36-.14-.43a.47.47,0,0,0-.44.05c-.23.16-.46.57-.61.54a2.9,2.9,0,0,1-1-.58c-.26-.18-.28-.37-.15-.71.46-1.24.43-1.26-.73-1.88-.64-.34-1.23-.92-2-.31-.09.07-.42-.2-.8-.39,0,1.33-.06,2.47,0,3.6s-.34,2.15.24,3.18c0,.06-.1.28-.21.35-.26.17-.56.31-.92.5a1.65,1.65,0,0,1-.88-1.69c.05-.39-.24-.81-.31-1.23a12.33,12.33,0,0,1,0-1.4l-1,.75c-.32.22-.46.46,0,.73-.23.31-.46.61-.68.92a1.13,1.13,0,0,1-1.33.14c-.31-.22-.63-.48-.2-.95s.37-1.6,1.11-2.13c.51-.37.67-1.56,1.71-.6.25.23.59-.26.53-.76a4,4,0,0,1,.13-.94c-.33,0-.72,0-1.1,0a1.23,1.23,0,0,1-1.14-.88c-.15-.46-.39-1.32.2-1.56.93-.38,1.12-1.32,1.8-1.85-.59-.37-1.2-.7-1.75-1.11s-.42-1.31-.22-1.78c.67-1.61,2.18-2.26,3.46-3.28l.66,1.28c-.93.73-1.42,1.86-2.58,2.55a7,7,0,0,0,2.17.37c.58-.09,1.16-.62,1.58.12s-.35,1-.54,1.54a3.37,3.37,0,0,1-1.72,1.69c-.17.1-.64.39-.27.73s1.81.11,1.93-.41c.17-.76.58-.55,1-.43a8.72,8.72,0,0,1,.84.46c.42.18.81.29.68.92C105.46,21.5,105.8,21.75,106,22Zm4.67-1.8c-.08-.12-.13-.26-.17-.26A2.46,2.46,0,0,0,110,20c0,.07.08.21.13.21A2.33,2.33,0,0,0,110.63,20.15Z"/><path class="cls-1" d="M82.41,22.55c.3-1.35,1.35-1.52,2.38-1.62a7.91,7.91,0,0,0,1.82-.34c.62.63,1.4.18,2.21.38,0-.37.07-.69.06-1,0-.89-.39-1.25-1.37-1.28-.46,0-.91-.27-1.4.13-.24.2-.77,0-1.18,0s-.79-.33-.88-.81c-.11-.65.36-1.38.88-1.15s.83-.43,1.33-.14a4.83,4.83,0,0,0,1.39.37,3.53,3.53,0,0,0,.47,0c0-.3.06-.62.07-.93s0-.68,0-1c-.15-.06-.29-.16-.34-.13-.52.29-.8-.68-1.37-.22-.38.31-.71-.24-1.15-.17a1.21,1.21,0,0,1-.84-.4c-.36-.35.13-.56.24-.84a3.54,3.54,0,0,0,.11-.39c.71-.2,1.42.22,2-.29a.28.28,0,0,1,.24,0c.41.79,1,.36,1.53.22.91-.22,1.92.32,2.8-.33.39.55,1,.16,1.55.41-.11.2-.31.37-.3.53,0,.81-.33,1.06-1.12,1.13a3.29,3.29,0,0,0-1.63.32c-.15.1-.38.36-.35.4a6.7,6.7,0,0,0,.64.77c-.34.27-.31.51,0,.73s.63.52.82.45c.35-.13.54-.48,1-.06A1.44,1.44,0,0,1,92.64,19l-2.16-.23c.89.78-.19,1.4.27,2.15.37-.05.79-.09,1.21-.17.15,0,.39-.22.42-.18.84.88,1.64-.17,2.49-.06s.86,0,1.11.75c.09.27-.34,1.07-.6,1-.52-.17-.78.78-1.36.2-.24-.25-.66.49-1.1,0-.12-.14-.74.13-1.13.25-.14,0-.24.23-.37.23-.8,0-1,.13-1,.75a6.31,6.31,0,0,1-2.1,4.48,2.87,2.87,0,0,1-1.26.68,1.63,1.63,0,0,1-2-.88c.51-.28,1.21-.45,1.49-.88s1.25-.74,1.16-1.16c-.16-.82.82-.77.79-1.42a9.62,9.62,0,0,1,.28-1.88c-.88.19-1.71-.17-2.61.33-.53.29-1.39-.08-2,.08A1.61,1.61,0,0,1,82.41,22.55Z"/><path class="cls-1" d="M55,20.88a9.38,9.38,0,0,1,.76,3.4,1.47,1.47,0,0,0,.42,1,3,3,0,0,1,.5,1.16c.1.45-.79,1.07-1.19.86-.8-.41-1.63-.79-1.46-2,0-.23-.2-.49-.22-.75,0-.58-.4-1.08-.17-1.76a1.65,1.65,0,0,0-.22-1.77c-.15-.15-.12-.56-.05-.82A3.55,3.55,0,0,0,52.91,18a3.67,3.67,0,0,1-.08-2.38,2.09,2.09,0,0,0-.28-1.48,1.74,1.74,0,0,1-.27-1.1A.75.75,0,0,1,53,12.3a2.79,2.79,0,0,1,1.19,0c.39.16.58-.71,1-.1.05.08.76-.19.77-.17.21.65.71-.51.88.15,1.06-.36,2.07.37,3.13.1a.75.75,0,0,1,.92.57c.2.69.86,1.32.38,2.15a.72.72,0,0,0,.1.63.89.89,0,0,1,0,1.2c-.14.2-.22.67-.1.77.68.59.16,1.11,0,1.64a.89.89,0,0,1-1.06.62,2.27,2.27,0,0,0-1.41.34A7.26,7.26,0,0,1,55,20.88Zm.14-3.69v1.52a4.62,4.62,0,0,0,1.57.36,19.09,19.09,0,0,1,2.51-.59c.12,0,.27-.25.34-.42a7.55,7.55,0,0,0,.26-.81c-.56-.16-1.28-.61-1.66-.42C57.13,17.33,56.12,16.94,55.1,17.19Zm4.8-2.3c-.28-.33-.46-.75-.74-.84a5,5,0,0,0-1.35,0,2.07,2.07,0,0,1-1.25-.3c-.42-.28-.65.48-1.06.63-.11,0-.29-.1-.44-.14s-.33-.05-.35,0c-.12.29.47,1.2.78,1.2.63,0,1.26,0,1.88,0s1.16-.33,1.78,0C59.29,15.43,59.63,15.07,59.9,14.89Z"/><path class="cls-1" d="M70.54,11.36c.84-.26,1.56.19,2.17-.31.05,0,.15,0,.24,0l1.78,1.44a4.19,4.19,0,0,0,2,2.06,6.7,6.7,0,0,1,1.7,1.66c.47.6,1,1.17,1.53,1.8a4.62,4.62,0,0,0-.72.26c-.68.48-1.2.29-1.79-.23s-1-1.39-1.9-1.64c-.16,0-.1-.8-.27-.86-.58-.2-.75-.7-1.1-1.07a10.21,10.21,0,0,0-2-1.38C71.57,14,71,15,70.26,15.86c-.3.39-.51.71-.25,1.23a2,2,0,0,1,.5-.3c.16-.05.46-.07.5,0,.25.52.67,0,1,.19.6.38.88.3,1.79.19a2,2,0,0,1,.93.17c.61.23,1.16.66,1.85.44.44.58.12.95-.25,1.34s-.67.65-1.09.1c-.26.49-.83-.2-1.09.28a6,6,0,0,0-1.12-.64,9.87,9.87,0,0,0-1.46-.21c-.16,0-.36-.19-.45-.13-.24.14-.39.45-.64.54-.47.18-.14-.37-.36-.47a3.6,3.6,0,0,0-.71-.35c-.18,0-.49,0-.57.1a18.69,18.69,0,0,0-1,1.63c-.08.14,0,.38-.09.48s-.5.48-.65.42a1.51,1.51,0,0,1-.64-.66c-.31-.52.55-1,0-1.58.54-.33.54-.92.77-1.41s.72-.72.58-1.31c.88-.41,1.14-1.34,1.68-2,.14-.17.39-.38.36-.53C69.68,12.52,71,12.27,70.54,11.36Z"/><path class="cls-1" d="M124.46,21c-.64-.38-.9.73-1.35.08s-.69.22-1.1,0a4.28,4.28,0,0,0-1.27-.27c-.39-1,.67-1.29,1-1.92a16.24,16.24,0,0,0,1.62.62c.65.18,1.35-.45,1-1.08a4.11,4.11,0,0,1-.32-1.43c0-.09-.23-.16-.36-.23-.37.65-.86-.16-1.39.12s-1.59-1-1.34-1.61a1.76,1.76,0,0,1,1.43-.55c.37.15.77-.05.91,0,.55.27.82.08,1.2-.29.82-.79,1.38-.66,1.61.44.11.5.37.38.66.51.46.21.85-.68,1.27,0,.49-.16.84.17,1.24.34l.43.63c0,.1-.32.43-.38.51-.25.38-.62.24-.94.23s-.79-.19-1.18-.18a7.52,7.52,0,0,0-1.25.27l.28,2c.37-.07.87-.34,1.19-.19a1.54,1.54,0,0,0,1.21,0c.41-.12.95.5,1.41-.09a5.23,5.23,0,0,1,.91,1c.25.53-.29.6-.62.73a3.07,3.07,0,0,1-.94.22c-.91,0-1.83,0-2.92,0a4,4,0,0,0,.23,1.06c.19.32.09.47-.09.73a.7.7,0,0,0,.12,1c.67.5.08.91-.11,1.31s-1.16.53-1.36.3-.56-.75-.47-1c.42-1-.35-1.78-.38-2.68C124.45,21.47,124.46,21.25,124.46,21Z"/><path class="cls-1" d="M71.42,22.79a13.77,13.77,0,0,1-1.89-.37c-.28-.1-.81-.08-.69-.71.09-.45.34-.86.71-.76.69.18,1.3-.87,2-.06.07.08.56-.23.86-.31s.32.55.64.12a.34.34,0,0,1,.28-.12,3.88,3.88,0,0,0,1.23.28c.39-.06.72-.48,1.11-.62a.87.87,0,0,1,1,.4c.23.31,0,.48-.15.72A11.37,11.37,0,0,0,76,22.64c-.17-.14-.38-.36-.42-.33a3.5,3.5,0,0,1-1.93.34.82.82,0,0,0-.51.41,9.62,9.62,0,0,0-.79,1.57,1.13,1.13,0,0,0,.9,1.43,7.11,7.11,0,0,0,1.9,0c.21,0,.34-.6.55-.63.83-.12.14-.37.1-.58-.09-.48,0-.67.87-1.5.39-.16-.17,1.16.61.39.08.1.22.19.23.29a3,3,0,0,0,1.24,2.06,2.83,2.83,0,0,1,.84,1.7c-.09.53-.5.67-.94.8-.09,0-.16.15-.29.28-.1-.46-1.1-.46-.51-1.22-.49-.19-1.08-.82-1.44-.48-.54.53-1.2.07-1.73.49a3.48,3.48,0,0,1-1.38.39A.26.26,0,0,1,73,28c-.45-.54-1.22-.14-1.71-.63s-1.24-.41-1.11-1.32c.09-.6-.13-1.25.51-1.7.12-.09,0-.5.07-.71A6,6,0,0,1,71.42,22.79Z"/><path class="cls-1" d="M65.2,28c-1.39,1.44-1.89,1.68-3.68,1.47-.56-.06-1.08.58-1.61,0-.48.49-1,0-1.44,0a3.41,3.41,0,0,0-1.41.35.82.82,0,0,1-.67,0,3.42,3.42,0,0,0-2.28-.32c-.78,0-1.66-.54-2.33.31-.21-.53-.72.18-1-.24a1,1,0,0,0-.51-.41c-.79-.16-.53-.72-.28-1a2.14,2.14,0,0,0,.2-2.73c-.07-.15-.12-.3-.19-.44-.68-1.55-.68-1.55.72-2.4a8.92,8.92,0,0,1,1.47,2.24,10,10,0,0,1,.06,2.79l1.49-.21c.32.83,1-.12,1.51.28s1.22.05,1.85.07,1.48-.33,2.31,0a8,8,0,0,0,2.4,0c.34,0,.79.12,1-.05C63.7,27.05,64.35,27.69,65.2,28Z"/><path class="cls-1" d="M145.81,24.92a2.83,2.83,0,0,1-.44.12c-.5.1-.65-.39-1-.58a8.33,8.33,0,0,1-2.32-2.09c-.73-1.22-1.89-2.13-2.52-3.43-.05-.09-.31-.09-.47-.09s-.78.74-.93,1.09a13.43,13.43,0,0,1-.76,1.33,14,14,0,0,0-.84,1.37c-.21.44-.92.5-.77,1.23.06.29-.83.62-1.13.49a1.17,1.17,0,0,1-.54-1.21c.07-.26,0-.66.14-.79,1.39-1.1,1.66-2.93,2.79-4.2.09-.93.79-1.25,1.54-1.54a1.47,1.47,0,0,1,1.77.52c.49.55.56,1.42,1.4,1.72.65.23.33,1.34,1.24,1.47.18,0,.29.53.45.81a2.83,2.83,0,0,0,.54.79,3.59,3.59,0,0,1,1.54,2.45A2.81,2.81,0,0,0,145.81,24.92Z"/><path class="cls-1" d="M62.79,21.31a3.63,3.63,0,0,1-2.43,2.2l1.38,1.71c-.88,1.13-.93,1.1-2.19.4-.56-.31-1.14-.57-1.7-.89a2.21,2.21,0,0,1-1.1-2c1.53-.09,1.57-.15,3.67-1.44.3-.19.91-.82,1.44-.06C62,21.37,62.37,21.29,62.79,21.31Z"/><path class="cls-1" d="M126,29.15c-.55-.32-.91-.65-1.6-.37-.33.13-1-.34-1.4-.65-.78-.58-1.64-1.12-1.76-2.27a2.06,2.06,0,0,1,.88-1.8,2.48,2.48,0,0,1,.91.69c-.18,1.13.79,1.56,1.4,2.15a1.65,1.65,0,0,0,1.24.14,8.7,8.7,0,0,0,1.3-.57,1,1,0,0,1,1.17.4c.17.24-.29,1.15-.63,1.27s-.47,0-.62.15A8.92,8.92,0,0,0,126,29.15Z"/><path class="cls-1" d="M116.51,29.18c-.75,0-1.43,0-2.1,0a3.24,3.24,0,0,1-3.08-2.83,5.78,5.78,0,0,0,0-.83,1.26,1.26,0,0,1,.64-1.5.74.74,0,0,1,.32,0c-.1.65,1,.52.81,1.16s.21.83.35,1.23a1.26,1.26,0,0,0,1.66.91,3.41,3.41,0,0,1,.75-.23c.78-.05.85.08.71,1A7.49,7.49,0,0,0,116.51,29.18Z"/><path class="cls-1" d="M49.63,16.79a.79.79,0,0,1,.52.13,15.09,15.09,0,0,1,1.69,2,1.14,1.14,0,0,1,0,1.09,1.1,1.1,0,0,1-1.09.13,13.25,13.25,0,0,1-1.55-1.54C49.78,18.07,48.56,17.46,49.63,16.79Z"/><path class="cls-1" d="M107.21,27.3c-.34.29-.69.81-1,.79a4.42,4.42,0,0,1-1.6-.63,1.92,1.92,0,0,1-1.2-1.34c0-.22.13-.48.2-.73.33.25.5-.61,1-.07a11.54,11.54,0,0,0,1.78,1.46A9.28,9.28,0,0,0,107.21,27.3Z"/><path class="cls-1" d="M101.64,20.42s-.1.12-.11.11a1.59,1.59,0,0,1-.21-.15l.15-.16Z"/><path class="cls-1" d="M70.58,27.27l-.2.16c0-.07-.08-.19-.06-.21a.74.74,0,0,1,.26-.1Z"/></g></svg>