<svg xmlns="http://www.w3.org/2000/svg" viewBox="0 0 249.34 45.02"><defs><style>.cls-1{fill:#fff;}</style></defs><g id="レイヤー_1" data-name="レイヤー 1"><path d="M114.8,13.38c.48-.3-.3-.46,0-.9A3,3,0,0,0,114.9,10a5.75,5.75,0,0,0-.75-1.43c-.63-.78.44-1.2.35-1.81,0-.32,0-.69-.2-1a5.43,5.43,0,0,1-.86-3.38c0-1.43-2.08-2.58-3.94-2.31-.51.69-1.1-.45-1.62.05s-1.45.19-2.18.29c-.49.07-1.23,0-1.44.16-.63.64-1.18-.2-1.65,0a1.51,1.51,0,0,1-1.8-.12.91.91,0,0,0-.67,0A.91.91,0,0,1,98.69.45a1.91,1.91,0,0,1-1.59.4c-.95,0-1.91,0-2.86,0s-1.73,0-2.59,0L89.24.74c-.85-.05-1.81.38-2.4.06A5.52,5.52,0,0,0,83.91.45c-5.45,0-10.9,0-16.34,0-.64,0-1.37.27-1.95-.24a1,1,0,0,0-.68-.13,6.28,6.28,0,0,1-4.78,0,2,2,0,0,0-1,0,15.6,15.6,0,0,1-6.63,0c-.25,0-.59.18-.88.17S51,.08,50.66,0a3,3,0,0,0-1,0c-.62.14-1.26.71-1.82.33-.79-.54-1.25.26-2,.1a6.49,6.49,0,0,0-2.56,0c-.77.16-1.26-.34-2-.25S39.84,0,39.19.43a.31.31,0,0,1-.23,0C38.26-.2,37.5,0,36.65.2c-.66.15-1.45,0-2.12.1A8.84,8.84,0,0,0,32,.82c-.73.41-1.55-.63-2.37,0-1.24-.7-2.65-.26-4-.32-.45,0-.79.66-1.51.17-.23-.16-1,.17-1.47.19-.78,0-1.56,0-2.34,0s-1.77.24-2.28,0c-.82-.46-1.36.23-1.94,0a2.7,2.7,0,0,0-1.92,0c-.54-.63-1.15.21-1.63,0-1.6-.77-3.33-.19-5-.38C6.7,1.17,5.94.51,5.15.36A13.37,13.37,0,0,0,3,.57L.45,3.78a1.15,1.15,0,0,1,.11.29A6,6,0,0,1,.77,6.6c-.32.9.29,1.66.12,2.52s0,1.89-.07,2.82.55,1.76-.49,2.47c.26.82,1.08,1.64,0,2.48a3.15,3.15,0,0,1,0,3.55c1,.71,0,1.38-.07,2.07,1.28.7-.43,1.37,0,2.11.2.36-.77.84,0,1.27C.44,27.33,0,28.8.84,30.18c-.83.7.29,1.35.06,2.1S1,34.05.79,34.9c-.11.49.86.78.18,1.34-.48.4.18,1.14-.54,1.66-.27.18-.3,1-.07,1.11.71.41-.1.92.4,1.42s.1,1.3.08,2a2.88,2.88,0,0,0,1.51,2.34c.11.08.47.13.52.07.58-.59,1.23.25,1.41.08C5,44.21,5.47,45,6,45c1-.09,2,.32,2.94-.35.4-.28,1.24.06,1.92-.28.37-.19,1.29.36,1.74.2a14.66,14.66,0,0,1,4.22-.37c.52,0,1.23-.4,1.5-.24a2,2,0,0,0,1.67.21c.8-.29,1.76-.64,2.35-.3.91.52,1.47-.44,2.23-.08a3.33,3.33,0,0,0,1.36.34c.44,0,.88-.31,1.31-.3s1.22.43,1.29.35c.72-.78,1.69,0,2.56-.29a4.11,4.11,0,0,1,3.18.23c.25.16.95,0,1.36-.16a1.57,1.57,0,0,1,1.61.09,1.06,1.06,0,0,0,.67.15c1-.81,2.3-.25,3.44-.37a2.9,2.9,0,0,1,1.69.22c.37.19,1.16-.23,1.76-.22s1.55.43,2,.24a1.77,1.77,0,0,1,2,.12.9.9,0,0,0,.67-.13c.57-.5,1.46,0,1.9-.3.77-.54,1.28.26,2,.06s1.38-.47,1.77-.29c1.79.84,3.93-.39,5.62.67.64-.68,1.61-.45,2.36-.35s1.58-.65,2.4-.11c.26-.74.81.26,1.34-.15.37-.28,1.28-.19,1.94-.18s1.26.35,1.47.2c.8-.62,1.17.29,1.78.2s1-.17,1.44-.21c.81-.06,1.63-.09,2.44-.1.18,0,.49.21.53.18.65-.57,1.48-.18,2.2-.27a3.71,3.71,0,0,1,2.13.39c.61.29,1.13-.56,2,0,.46.29,1.42,0,2.09.43s1.24-.69,1.88,0c.37-.63,1.14-.14,1.73-.33.74-.24,1.8.17,2.69.1.56,0,1.07.23,1.68,0a4.09,4.09,0,0,1,1.73-.14c.53,0,1.3.45,1.53.3a2.76,2.76,0,0,1,1.67-.31c.61,0,1.22,0,1.81,0,.21,0,.38.29.6.33.61.11,1.22.65,1.87.06a62.18,62.18,0,0,0,9.58-.5c.49-.61,1-1.25,1.52-1.88.08-.1.27-.27.26-.28-1.07-.73-.24-1.76-.63-2.63-.28-.63-.8-1.57-.28-2.15s.34-1.27.44-1.9c.06-.33-.06-.69,0-1,.17-.48.6-.91.68-1.39a7.73,7.73,0,0,0-.19-1.56c0-.6,0-1.21,0-1.82s-.28-1.25.06-1.58c.62-.62-.34-1-.07-1.53.12-.23,0-.58.2-.73.47-.39.24-.61,0-1s0-1,0-1.48c0-.31.24-.61.27-.92.06-.71-.23-1.5.82-2,.07,0,.12-.24.08-.27a1.15,1.15,0,0,1-.3-1.67c.61-.69-.3-1.16-.09-1.73.16-.42-.22-.94.42-1.3.11-.06.13-.42,0-.52C114.53,14,114.22,13.73,114.8,13.38Z"/><path d="M96.32,13.38c-.65-.3.4-.46.06-.9A2.32,2.32,0,0,1,96.19,10a5.33,5.33,0,0,1,1-1.43c.84-.78-.58-1.2-.46-1.81.07-.32,0-.69.26-1A4.46,4.46,0,0,0,98.14,2.4c0-1.43,2.76-2.58,5.24-2.31.68.69,1.47-.45,2.16.05s1.94.19,2.9.29c.65.07,1.64,0,1.92.16.85.64,1.58-.2,2.21,0A2.57,2.57,0,0,0,115,.51a1.55,1.55,0,0,1,.88,0,1.49,1.49,0,0,0,1.94-.08,3.21,3.21,0,0,0,2.13.4c1.26,0,2.53,0,3.8,0s2.31,0,3.46,0l3.21-.1c1.13-.05,2.41.38,3.19.06A9.71,9.71,0,0,1,137.5.45c7.26,0,14.52,0,21.78,0,.85,0,1.82.27,2.59-.24a1.65,1.65,0,0,1,.91-.13,11,11,0,0,0,6.37,0,3.55,3.55,0,0,1,1.33,0,27.53,27.53,0,0,0,8.83,0c.35,0,.79.18,1.18.17s.87-.18,1.33-.22a5.23,5.23,0,0,1,1.37,0c.82.14,1.68.71,2.42.33,1-.54,1.66.26,2.62.1a11.6,11.6,0,0,1,3.43,0c1,.16,1.67-.34,2.68-.25a8,8,0,0,1,2.76.21.55.55,0,0,0,.31,0c.93-.61,1.94-.39,3.07-.21.89.15,1.94,0,2.83.1a15,15,0,0,1,3.43.52c1,.41,2.08-.63,3.17,0,1.65-.7,3.53-.26,5.29-.32.6,0,1.05.66,2,.17.32-.16,1.29.17,2,.19,1,0,2.07,0,3.11,0a10.39,10.39,0,0,0,3,0c1.1-.46,1.82.23,2.59,0a4.73,4.73,0,0,1,2.56,0c.72-.63,1.53.21,2.17,0,2.13-.77,4.44-.19,6.65-.38,1.11.73,2.12.07,3.17-.08a23.87,23.87,0,0,1,2.85.21l3.42,3.21c-.05.1-.14.19-.15.29-.13.85-.64,1.76-.28,2.53s-.38,1.66-.15,2.52-.06,1.89.09,2.82-.74,1.76.65,2.47c-.35.82-1.44,1.64-.07,2.48a2.53,2.53,0,0,0,0,3.55c-1.37.71-.06,1.38.09,2.07-1.7.7.58,1.37,0,2.11-.26.36,1,.84,0,1.27-.16,1.44.47,2.91-.7,4.29,1.12.7-.37,1.35-.07,2.1s-.11,1.77.14,2.62c.15.49-1.14.78-.23,1.34.64.4-.25,1.14.72,1.66.35.18.39,1,.08,1.11-.93.41.15.92-.52,1.42s-.14,1.3-.11,2c0,1-.85,1.71-2,2.34a1.27,1.27,0,0,1-.7.07c-.77-.59-1.63.25-1.88.08-1-.68-1.58.14-2.31.09-1.29-.09-2.66.32-3.92-.35-.53-.28-1.65.06-2.55-.28-.49-.19-1.72.36-2.32.2a25.8,25.8,0,0,0-5.62-.37c-.69,0-1.64-.4-2-.24a3.56,3.56,0,0,1-2.23.21c-1.06-.29-2.35-.64-3.13-.3-1.22.52-2-.44-3-.08a5.76,5.76,0,0,1-1.82.34c-.58,0-1.17-.31-1.74-.3s-1.63.43-1.73.35c-.95-.78-2.24,0-3.41-.29a7.13,7.13,0,0,0-4.23.23,3.73,3.73,0,0,1-1.82-.16,2.69,2.69,0,0,0-2.14.09,1.82,1.82,0,0,1-.89.15c-1.38-.81-3.07-.25-4.59-.37A5,5,0,0,0,192,44c-.5.19-1.55-.23-2.35-.22s-2.06.43-2.72.24a3,3,0,0,0-2.68.12,1.53,1.53,0,0,1-.89-.13c-.76-.5-1.95,0-2.54-.3-1-.54-1.71.26-2.6.06a6,6,0,0,0-2.36-.29c-2.39.84-5.24-.39-7.49.67-.85-.68-2.15-.45-3.16-.35s-2.1-.65-3.19-.11c-.35-.74-1.09.26-1.79-.15a7,7,0,0,0-2.58-.18c-.68,0-1.69.35-2,.2-1.07-.62-1.57.29-2.37.2-.64-.08-1.28-.17-1.93-.21-1.08-.06-2.16-.09-3.25-.1-.24,0-.66.21-.71.18-.86-.57-2-.18-2.93-.27a6.33,6.33,0,0,0-2.83.39c-.81.29-1.51-.56-2.6,0-.61.29-1.9,0-2.79.43-.7.37-1.66-.69-2.51,0-.49-.63-1.51-.14-2.3-.33-1-.24-2.4.17-3.59.1a8,8,0,0,1-2.24,0,7.19,7.19,0,0,0-2.3-.14c-.71,0-1.73.45-2,.3a4.75,4.75,0,0,0-2.23-.31c-.81,0-1.62,0-2.42,0-.28,0-.5.29-.79.33-.82.11-1.63.65-2.5.06a110,110,0,0,1-12.76-.5l-2-1.88c-.11-.1-.36-.27-.35-.28,1.43-.73.32-1.76.84-2.63.38-.63,1.07-1.57.38-2.15s-.46-1.27-.59-1.9c-.07-.33.08-.69-.06-1-.23-.48-.8-.91-.91-1.39s.21-1,.25-1.56,0-1.21,0-1.82.37-1.25-.08-1.58c-.82-.62.46-1,.1-1.53-.17-.23,0-.58-.27-.73-.63-.39-.32-.61,0-1s0-1-.07-1.48c-.06-.31-.32-.61-.35-.92-.08-.71.3-1.5-1.09-2-.1,0-.17-.24-.11-.27a1,1,0,0,0,.39-1.67c-.8-.69.4-1.16.12-1.73-.21-.42.29-.94-.55-1.3-.16-.06-.18-.42,0-.52C96.68,14,97.09,13.73,96.32,13.38Z"/></g><g id="レイヤー_2" data-name="レイヤー 2"><path class="cls-1" d="M118.13,20.4a9.94,9.94,0,0,0,.31,2.41,2.59,2.59,0,0,1,.21,2.09c.11-.09.27-.28.33-.25.38.18.55-.63,1-.2a1.2,1.2,0,0,1,.11,1.51c-.37.42-.82.78-1.25,1.18a3.5,3.5,0,0,0,2.11.56c.92-.07,1.84,0,2.76,0,.4,0,1,.17,1.17,0,.34-.41.61,0,.9-.09.5-.09.83.26.71.65-.26.85-1.07.91-1.72,1.18-.2.09-.46,0-.69,0-.44,0-1.08-.09-1.28.15-.35.41-.69-.5-.93.11,0,.12-.63.19-.79.06-.85-.68-2,0-2.84-.66-.36-.31-.68.47-1.14.11a2.8,2.8,0,0,0-1-.45,1.11,1.11,0,0,0-.83,0c-.42.36-.53.31-.52-.23,0-.05-.18-.17-.26-.16-.89.15-.82-.66-1.09-1.11-.1-.17,0-.45,0-.68,0-.47.32-.92.06-1.46-.06-.12.24-.65.32-1,.13-.57.7-.65,1.14-.24.21.19.4.41.62.6a.55.55,0,0,1,.11.85c-.19.29-.09.76-.18,1.13-.18.73.68.43.81.84.72-.76,1.4.22,2.1,0,0,0,.09-.06.21-.16-.34-.34-.63-.87-1-1-.92-.26-.72-1.11-1-1.66a3.27,3.27,0,0,1,0-1.53c0-.37-.62-.73,0-1.09-.44-.48,0-1,0-1.43a4.84,4.84,0,0,0-.22-1.36c-.11-.43.36-.49.23-.83s.09-.63,0-.84a1.4,1.4,0,0,1,0-1.79c-.53-.54-.11-1.07,0-1.61a3.77,3.77,0,0,1,1.37-2,.77.77,0,0,1,.43-.19c.63,0,1.47.2,1.83-.12.56-.5,1.11.33,1.57-.2a3,3,0,0,1,1,.16,2.38,2.38,0,0,1,1.19.82,6.55,6.55,0,0,1,.86,1.53c.06.14-.07.39-.14.58a1.45,1.45,0,0,0,.06,1.41,5.19,5.19,0,0,1,.14,2.06,2.13,2.13,0,0,1-2,2,10.84,10.84,0,0,0-2.68.61c-.13.07-.38-.1-.58-.14Zm.1-1.72c1.68.06,3.34.32,4.7-.83a1.76,1.76,0,0,0-2-.85c-.34.05-.74.28-1,.16a3.35,3.35,0,0,0-1.7-.11Zm.31-3.83c1.42.18,2.74.77,4.12.27a11.6,11.6,0,0,0-.39-1.41c-.08-.18-.48-.42-.57-.37-.75.46-1.56.07-2.31.24Z"/><path class="cls-1" d="M152,20.65a1.61,1.61,0,0,1,2.15-.82c.55.27,1.11.05,1.57.39s.83-.43,1.37-.1v-1.6a4.07,4.07,0,0,0-1.42-.45c-.77,0-1.52-.86-2.34-.08-.08.08-.78-.31-1-.61s.06-.78.43-1,.71-.07.58-.6a3,3,0,0,0,.82.16c.25,0,.51-.34.71-.29s.39.4.63.55.51-.43.72.05a3.63,3.63,0,0,0,.22-.5c.07-.26,0-.59.17-.79a1.48,1.48,0,0,1,.69-.37c.09,0,.5.8.9,1.16s.52,1.39,1.42.67c0,0,.29.05.35.14.24.36.44.74.74,1.24l-1.76.72a7.85,7.85,0,0,1,.58,1.52.46.46,0,0,0,.73.37c.45-.37,1-.22,1.43-.34.74-.18.54,1,1.21.78a3.92,3.92,0,0,1-.16.36c-.14.26-.11.5-.56.66a8.72,8.72,0,0,1-2.48.29l-.64,1.31a2.24,2.24,0,0,1,1.81.82c.27.27,1,.3,1,.54.18.82.75.27,1.09.43l1.09.53-2,1.52c-.51-.47-.9-1.16-1.77-1.08-.35-1.23-.79-.43-1.2,0s-1,1-1.46,1.46a1.23,1.23,0,0,1-.88.4,3.08,3.08,0,0,1-1.69-.51c-.62-.31-.53-1.07-.69-1.59a2.31,2.31,0,0,1,1.84-2.75c.28-.08.66-.28.82-.17.54.39.45-.34.8-.36a7.88,7.88,0,0,0-4-.84c-.73.06-1.28-.06-1.54-.83C152.33,20.85,152.15,20.75,152,20.65Zm5.62,4.68h-1.54l.2,1A5.47,5.47,0,0,0,157,26,6,6,0,0,0,157.66,25.33Z"/><path class="cls-1" d="M174.27,19.07a4.83,4.83,0,0,0-.35,1.07c0,.27.21.57.18.83-.06.54-.23,1.06-.32,1.59s-.43.3-.67.28-.67-.12-.69-.23c-.15-.95-.76-1.88-.19-2.88a1.61,1.61,0,0,0,.15-.62,5.22,5.22,0,0,0,0-.69h-3.11c.09.7-.22,1.4.22,2.09a.39.39,0,0,1-.13.35,1.11,1.11,0,0,0-.43,1.21c.07.53-.23,1.13.29,1.6s1.14,1.35,2.06,1.21c.46-.06.85.7,1.27.05.44.2.87.41,1.31.6a.57.57,0,0,0,.46,0c.68-.43,1.35-.89,2.07-1.38l.78,1.23c-.27.67-1.17.73-1.4,1.46,0,.07-.19.12-.29.12-.52,0-1.19-.19-1.52.05-.55.42-.95-.35-1.28,0-.49.48-.89,0-1.28-.05a7.65,7.65,0,0,1-2.46-.7c-.46-.23-.7-.88-1-1.33s-.24-1.43-1-1.86c-.06,0,.08-.37.1-.57a2.43,2.43,0,0,0,.06-.92c0-.19-.31-.32,0-.49a1.09,1.09,0,0,0,.39-1.5c-.27-.43-.06-.51.12-.77s.27-.52.19-.68a1,1,0,0,0-.66-.43c-.23,0-.48.19-.74.27a1,1,0,0,1-1.25-.52.88.88,0,0,1,.71-1.14c.73-.2,1.48-.32,2.32-.5a3,3,0,0,1,.91-1.89,1.34,1.34,0,0,1,.47-.25c.37.5.52-.33.82-.13s.41.23.51.41-.29.59.08.84a4.38,4.38,0,0,0-.6.62c-.24.4,0,.82.53.89a2.12,2.12,0,0,1,.67.05,9,9,0,0,1,1,.58c.68-.55.45-1.35.58-2.07a1.59,1.59,0,0,0,0-.89,3.37,3.37,0,0,1,.83-.07,1.11,1.11,0,0,1,.88,1.47c-.09.3-.17.62-.24.93s-.15.54-.1.56a2.38,2.38,0,0,0,1,.29,7.49,7.49,0,0,0,1.13-.16c.26,0,1,.63.93.9a1.25,1.25,0,0,1-.51.79,4.13,4.13,0,0,1-1.4.36A10.42,10.42,0,0,1,174.27,19.07Z"/><path class="cls-1" d="M135.24,18c3.66.91,3.66,1.16,3.79,1.32s.32.44.07.72-.61.58-.87.35c-.76-.67-1.73-.06-2.55-.54a9.13,9.13,0,0,0-2.32-.64,4,4,0,0,1-1.72-1.16c-.36-.51-.45-.54-.67.11s-.84.81-1.13,1.4c-.44.88-1.29,1-2.2.45-.23-.13.34-.6-.11-.83,1.2-.66,1-2.5,2.53-2.91a.36.36,0,0,0,.19-.24c.43-1.53,2-2.29,2.53-3.79.06-.2.43-.3.66-.44.6-.37,1.18.9,1.79,0a2,2,0,0,1,.21.2c.22.31.43.63.65.93.46.63,1.24,1,1.49,1.81.2.68,1.25.63,1.44,1.44a.65.65,0,0,0,.5.39c1,0,1.41.9,2,1.48.28.29.17.95.23,1.45-1.29.75-1.86-.68-6.47-1.53-3.07-.69-2.57-.71-2.07-.68a3.32,3.32,0,0,1,.93.22,3.61,3.61,0,0,0,1.88.48c.21,0,.54.34.68.27.29-.16.49-.48.85-.12.15.16.29.38.49.46s.31-.13.48-.18.21.56.4.07a.47.47,0,0,0-.12-.45,8.75,8.75,0,0,1-3.36-3.36c-.14-.27-.64-.17-.75-.7-.07-.35-.92-.16-1.23.33a3.83,3.83,0,0,0-.71,1.41C132.63,16.51,131.89,16.65,135.24,18Z"/><path class="cls-1" d="M184.7,23.06a9.73,9.73,0,0,0-1.34,1.46c-.64,1.09-1.77,1-2.74,1.31-.43.12-1-.74-.86-1.19.05-.15.25-.34.21-.42-.78-1.33.16-2.48.3-3.71.1-.88.3-1.73.42-2.6s.65-1.13,1.45-.91a4.45,4.45,0,0,1,.46,1.34c-.81,0-.48.58-.54,1-.13.81.22,1.65-.31,2.46-.21.34,0,1,0,1.48.78-.07,1-.67,1.43-1s.83-.94,1.6-.75c.15,0,.37-.18.57-.29.56.62,1.41,1.1,1.21,2.22,0,.24.27.57.47.82a1.39,1.39,0,0,0,2.23.19c.41-.42,1.18-.51,1.13-1.4,0-.53,1.05-.34,1-1.07.09,0,.21,0,.24,0a2.46,2.46,0,0,1,.73,1.59c0,.31.09.58-.45.72s-.74,1.13-1.46,1.35c-.17.93-1.08.69-1.63,1-.31.17-.8-.11-1.07.32a5.42,5.42,0,0,0-.91-.62c-.71-.31-.84-1.21-1.6-1.48-.12,0-.06-.52-.14-.77A9.85,9.85,0,0,0,184.7,23.06Z"/><path class="cls-1" d="M137.34,24.3a4.6,4.6,0,0,0,.9,1.46c.47.36.41,1.12,1.15,1.27.26.06.41.6.62.91a1.63,1.63,0,0,1-.09,1.3,1.3,1.3,0,0,1-1.37,0c-1.06-.9-1.27-1-2.36-.72a2.33,2.33,0,0,1-.35.1c-.36-.74-.91-.16-1.36-.2a2.5,2.5,0,0,0-1.19,0c-.43.19-.6-.58-1-.18,0,.05-.26,0-.35-.08-.43-.34-.84-.69-1.23-1a11.22,11.22,0,0,1,2.82-3.9,1.38,1.38,0,0,0,.14-.24,1.78,1.78,0,0,0-.29-.12l-1.93-.35a1.4,1.4,0,0,1-.73-1c.11-.52.67-1,1-.72.53.39,1.06.25,1.6.32a17.21,17.21,0,0,0,2.1.32c1,0,1.09-.06,1.62.41.16.15.3.33.45.49-.44.24-.28.69-.37,1.05a.26.26,0,0,1-.23,0c-.8-.67-1.46,0-1.84.44s-.93.59-1,1.24c-.07.38-.93.55-.56,1,.24.32.85.4,1.32.48.31.05.78,0,.94-.15s1.12-.42.42-1.1a1.27,1.27,0,0,1,.31-.45C136.74,24.69,137.06,24.49,137.34,24.3Z"/><path class="cls-1" d="M102.54,26.35a1.88,1.88,0,0,0-1.88.73A2.76,2.76,0,0,1,97.9,28a1.84,1.84,0,0,0-.2-.53c-.19-.23-.45-.53-.13-.69.69-.35.42-1.12.83-1.57a11,11,0,0,0,1.1-1.44c.41-.66.77-1.37,1.26-2.25a6.46,6.46,0,0,0-2.24.05c-.82.36-1-.22-1.4-.58s.08-.78.43-.84c.71-.13,1.42-.82,2.13,0,.37-.52.92-.32,1.41-.32a.81.81,0,0,1,.57.24,3.19,3.19,0,0,1,.79,2.14,2.16,2.16,0,0,0,0,.36c-.75-.19-.59.59-.79.87-.57.8-.4,1.09.58,1.18a1.4,1.4,0,0,1,1,.47c.38.42.81.81,1.21,1.22.23.23.36.47.77.1a1.29,1.29,0,0,1,1.15,0,3.13,3.13,0,0,1,1,1c0,.06-.38.67-.57.67-.59,0-.48.71-.54.66-.57-.53-1.31-.09-1.89-.38A4.49,4.49,0,0,0,104,28C102.67,27.62,102.67,27.63,102.54,26.35Z"/><path class="cls-1" d="M150.58,27.61c-.68.22-1.38-.23-1.85.42-.58-.12-1.3-.07-1.71-.41a15.18,15.18,0,0,1-1.86-2.12c.5-.44.07-.81,0-1.25s-.59-1.12-.08-1.8c.19-.26-.06-.85-.11-1.29,0-.12-.07-.26,0-.36a13.35,13.35,0,0,0,.3-2.49,1.33,1.33,0,0,1,.28-.82c.22-.26.28-.39,0-.63-.07-.06,0-.4,0-.44a2,2,0,0,1,1-.42c.37,0,.78.42.6.83s.68.53.13,1a1.18,1.18,0,0,0-.07,1.12,1.77,1.77,0,0,1-.08,1.6,2.16,2.16,0,0,0-.08,2c0,.08-.07.25-.12.36-.39.87.17,1.6.45,2.32a1.54,1.54,0,0,0,2.05.64c.53-.25.86-.43,1.33,0s0,1-.13,1.49C150.62,27.44,150.61,27.49,150.58,27.61Z"/><path class="cls-1" d="M69.45,30.29c-.65,0-.94-.81-1.53-.2-.34-.47-1,.1-1.3-.34-.88.15-1.55-.39-2.31-.66-.56-.2-.07-.33-.09-.5a10.48,10.48,0,0,1,.29-4.81c.21-1.07.91-2.19.28-3.36a.72.72,0,0,1-.05-.23,3.6,3.6,0,0,1,1.37-.39c.46,0,.7.51.6,1s-.24,1.05-.34,1.58a4.11,4.11,0,0,1-.2,1.13c-.19.4-.3.76,0,1.05s-.24.63-.09,1a.75.75,0,0,1,.09.37c0,.09-.14.17-.23.24a1,1,0,0,0-.22,1.36,1.43,1.43,0,0,0,1.48.48,1.39,1.39,0,0,0,.37-.28c.57.94,1.5.56,2.31.66a.67.67,0,0,1,.29,1.15l-.25.24Z"/><path class="cls-1" d="M81,20.44c1.12.07,1.33.68,1.29,1.57a9.3,9.3,0,0,0,.31,1.4c0,.5,0,1,0,1.53.1.76.89,1.07,1.19,1.7.19-.58.75.17,1-.27.34.21.55.13.87-.14a.84.84,0,0,1,1.45.35A1.73,1.73,0,0,1,86.35,28a3.26,3.26,0,0,1-3.81-.21c-.11-.09-.31-.07-.45-.13a2.77,2.77,0,0,1-.7-.38s.19-.36.14-.45a5.56,5.56,0,0,0-.64-.74c.36-.31.44-.52-.17-.51-.06,0-.2-.21-.18-.23.56-.77,0-1.53-.05-2.29A11.36,11.36,0,0,1,81,20.44Z"/><path class="cls-1" d="M125.16,25.85c-1.12.39-1.44-.55-2.12-.76-.5-.14-.88-.64-1.37-.83s-.49-1-1.24-.75a9.41,9.41,0,0,1-.56-1c.21-.16.54-.37.82-.62s.68-.93,1,.13c.16.49,1.16.52,1.66.14a13.51,13.51,0,0,0,1.29-1.24.9.9,0,0,0,.23.19c1.07.6,1.11,1,.15,1.76-.68.5-.62.47-.18,1.36A6.13,6.13,0,0,1,125.16,25.85Z"/><path class="cls-1" d="M96.07,15.1A2.2,2.2,0,0,1,98.71,15a1.38,1.38,0,0,0,.72.29c1.25-.21,2.4.44,3.63.37.76-.05,1,.62,1.38,1a2.14,2.14,0,0,1-2,.72c-.39-.05-.85.58-1.2-.15-.14-.29-.45-.27-.7,0,0,.06-.21.12-.23.1-1-1.05-2.12-.66-3.26-.4-.32.07-1-.38-1-.67S96.07,15.42,96.07,15.1Z"/><path class="cls-1" d="M88.49,22.32c.08-.08.21-.15.24-.25.1-.3.07-.76.27-.89.42-.28.83.1,1.2.31s.5.45.79.59c.52.25-.18.45,0,.75A12.86,12.86,0,0,1,92.09,25c.14.35.65.62.23,1.22-.18.25.25.89.28,1.36,0,.63-.35.78-1,.5a1.71,1.71,0,0,1-1-1.09l-.69-2.29A3.9,3.9,0,0,0,88.49,22.32Z"/><path class="cls-1" d="M77.42,28.06c-.41,0-.82,0-.92-.13-.3-.46-1-.45-1.17-1-.11-.3-.48-.48-.63-.77-.06-.12.45-.28.07-.61s.12-1-.71-1.09c-.23,0,.06-.85-.48-1.14a.82.82,0,0,1-.28-.71,4.26,4.26,0,0,1,.43-1.35.8.8,0,0,1,.77,0,2.77,2.77,0,0,1,1.2,1.89c.09.8.18,1.65,1.22,1.86-.24.74.45,1.24.49,1.91C77.44,27.18,77.42,27.53,77.42,28.06Z"/><path class="cls-1" d="M114.37,20.08c0,.11,0,.25,0,.34-.18.3-.13,1.07-.84.42-.16-.16-.52-.1-.79-.14.07-.16.24-.41.19-.47s-.6-.29-.59-.4c0-.61-.45-1-.57-1.49a1.61,1.61,0,0,1,0-.92c.2-.51,1.1-.51,1.5,0s.32,1.24,1.09,1.4C113.85,19.27,114.57,19.66,114.37,20.08Z"/><path class="cls-1" d="M91.23,28.18l-.2.16c0-.07-.08-.19-.06-.21a1,1,0,0,1,.26-.1Z"/></g></svg>