<svg xmlns="http://www.w3.org/2000/svg" viewBox="0 0 196.08 45.02"><defs><style>.cls-1{fill:#fff;}</style></defs><g id="レイヤー_1" data-name="レイヤー 1"><path d="M90.28,13.38c.38-.3-.24-.46,0-.9A3.73,3.73,0,0,0,90.36,10a6.43,6.43,0,0,0-.59-1.43c-.49-.78.35-1.2.27-1.81a2.63,2.63,0,0,0-.15-1,6.59,6.59,0,0,1-.68-3.38A2.66,2.66,0,0,0,86.11.09c-.4.69-.86-.45-1.27.05S83.7.33,83.13.43c-.39.07-1,0-1.14.16-.49.64-.93-.2-1.3,0A1,1,0,0,1,79.28.51a.58.58,0,0,0-.53,0C78.31,1,78,.89,77.61.45c-.32.45-.78.41-1.25.4-.75,0-1.5,0-2.25,0s-1.36,0-2,0l-1.9-.1c-.67-.05-1.42.38-1.88.06A3.52,3.52,0,0,0,66,.45c-4.29,0-8.57,0-12.85,0-.51,0-1.08.27-1.54-.24a.61.61,0,0,0-.53-.13,4,4,0,0,1-3.76,0,1.24,1.24,0,0,0-.78,0,9.74,9.74,0,0,1-5.22,0c-.2,0-.46.18-.69.17A7.59,7.59,0,0,1,39.84,0a1.84,1.84,0,0,0-.81,0c-.48.14-1,.71-1.43.33-.62-.54-1,.26-1.55.1a4.06,4.06,0,0,0-2,0c-.6.16-1-.34-1.58-.25S31.33,0,30.82.43c0,0-.15,0-.18,0C30.09-.2,29.49,0,28.82.2s-1.14,0-1.66.1a5.64,5.64,0,0,0-2,.52c-.58.41-1.22-.63-1.87,0-1-.7-2.08-.26-3.12-.32-.36,0-.62.66-1.19.17-.18-.16-.75.17-1.16.19-.6,0-1.22,0-1.83,0s-1.4.24-1.8,0c-.64-.46-1.07.23-1.53,0a1.68,1.68,0,0,0-1.5,0c-.43-.63-.91.21-1.28,0C8.59.05,7.22.63,5.93.44c-.66.73-1.26.07-1.88-.08A8.39,8.39,0,0,0,2.37.57l-2,3.21a1.61,1.61,0,0,1,.09.29A7.33,7.33,0,0,1,.6,6.6c-.24.9.23,1.66.1,2.52s0,1.89-.06,2.82.44,1.76-.38,2.47c.21.82.85,1.64,0,2.48a3.9,3.9,0,0,1,0,3.55c.8.71,0,1.38,0,2.07,1,.7-.35,1.37,0,2.11.15.36-.61.84,0,1.27.08,1.44-.29,2.91.4,4.29-.65.7.23,1.35,0,2.1S.77,34.05.62,34.9c-.09.49.67.78.14,1.34-.38.4.15,1.14-.42,1.66A1.13,1.13,0,0,0,.29,39c.55.41-.09.92.31,1.42s.08,1.3.06,2a3,3,0,0,0,1.19,2.34c.09.08.37.13.41.07.45-.59,1,.25,1.11.08.58-.68.93.14,1.36.09.76-.09,1.57.32,2.31-.35.32-.28,1,.06,1.51-.28.29-.19,1,.36,1.37.2a9.1,9.1,0,0,1,3.31-.37c.41,0,1-.4,1.18-.24a1.33,1.33,0,0,0,1.32.21c.62-.29,1.38-.64,1.85-.3.71.52,1.15-.44,1.75-.08a2.18,2.18,0,0,0,1.07.34c.34,0,.69-.31,1-.3s1,.43,1,.35c.56-.78,1.32,0,2-.29a2.61,2.61,0,0,1,2.5.23c.2.16.75,0,1.07-.16a1,1,0,0,1,1.26.09c.13.11.46.21.53.15.81-.81,1.81-.25,2.7-.37a1.87,1.87,0,0,1,1.34.22c.29.19.91-.23,1.38-.22s1.22.43,1.6.24c.65-.33,1.07-.38,1.58.12.08.07.43,0,.53-.13.45-.5,1.15,0,1.5-.3.6-.54,1,.26,1.53.06s1.1-.47,1.4-.29c1.4.84,3.09-.39,4.42.67.5-.68,1.26-.45,1.86-.35s1.24-.65,1.88-.11c.21-.74.64.26,1.06-.15s1-.19,1.52-.18,1,.35,1.16.2c.63-.62.92.29,1.39.2a11.39,11.39,0,0,1,1.14-.21c.64-.06,1.28-.09,1.92-.1.14,0,.39.21.42.18.51-.57,1.16-.18,1.73-.27a2.37,2.37,0,0,1,1.67.39c.48.29.89-.56,1.53,0,.36.29,1.12,0,1.65.43s1-.69,1.48,0c.29-.63.89-.14,1.36-.33S71,44,71.68,44c.44,0,.85.23,1.32,0a2.58,2.58,0,0,1,1.36-.14c.42,0,1,.45,1.2.3a1.8,1.8,0,0,1,1.32-.31,11.36,11.36,0,0,1,1.43,0c.16,0,.29.29.46.33.49.11,1,.65,1.48.06a38.61,38.61,0,0,0,7.53-.5c.38-.61.79-1.25,1.2-1.88.06-.1.21-.27.2-.28-.84-.73-.19-1.76-.5-2.63-.22-.63-.63-1.57-.22-2.15s.27-1.27.35-1.9a6.59,6.59,0,0,1,0-1,11.29,11.29,0,0,0,.53-1.39,8.4,8.4,0,0,0-.15-1.56c0-.6,0-1.21,0-1.82s-.22-1.25,0-1.58c.49-.62-.27-1,0-1.53.1-.23,0-.58.16-.73.37-.39.19-.61,0-1a3,3,0,0,1,0-1.48c0-.31.19-.61.21-.92,0-.71-.18-1.5.64-2,.06,0,.1-.24.06-.27a1.36,1.36,0,0,1-.23-1.67c.48-.69-.23-1.16-.07-1.73.12-.42-.17-.94.33-1.3a.53.53,0,0,0,0-.52C90.07,14,89.83,13.73,90.28,13.38Z"/><path d="M75.75,13.38c-.51-.3.31-.46,0-.9A2.88,2.88,0,0,1,75.64,10a5.58,5.58,0,0,1,.79-1.43c.66-.78-.46-1.2-.37-1.81.06-.32,0-.69.21-1a5.29,5.29,0,0,0,.91-3.38C77.22,1,79.35-.18,81.3.09c.53.69,1.16-.45,1.7.05s1.52.19,2.28.29c.51.07,1.29,0,1.51.16.66.64,1.24-.2,1.73,0A1.65,1.65,0,0,0,90.41.51a1,1,0,0,1,.7,0A1,1,0,0,0,92.63.45a2.09,2.09,0,0,0,1.67.4c1,0,2,0,3,0s1.82,0,2.72,0l2.53-.1c.89-.05,1.9.38,2.51.06a6.08,6.08,0,0,1,3.08-.35c5.71,0,11.42,0,17.13,0,.67,0,1.43.27,2-.24A1,1,0,0,1,128,.05a6.88,6.88,0,0,0,5,0,2.23,2.23,0,0,1,1,0,17.13,17.13,0,0,0,7,0c.27,0,.61.18.92.17s.69-.18,1-.22a3.25,3.25,0,0,1,1.08,0c.65.14,1.32.71,1.91.33.83-.54,1.31.26,2.06.1a7.16,7.16,0,0,1,2.69,0c.81.16,1.32-.34,2.11-.25S154.32,0,155,.43a.36.36,0,0,0,.25,0C156-.2,156.78,0,157.66.2c.7.15,1.52,0,2.23.1a9.57,9.57,0,0,1,2.7.52c.76.41,1.63-.63,2.49,0,1.3-.7,2.77-.26,4.16-.32.47,0,.82.66,1.58.17.25-.16,1,.17,1.55.19.81,0,1.63,0,2.44,0s1.86.24,2.4,0c.86-.46,1.42.23,2,0a3,3,0,0,1,2,0c.57-.63,1.21.21,1.71,0,1.67-.77,3.5-.19,5.23-.38.87.73,1.67.07,2.49-.08a14.67,14.67,0,0,1,2.24.21l2.69,3.21a1.78,1.78,0,0,0-.12.29c-.1.85-.5,1.76-.21,2.53s-.3,1.66-.12,2.52,0,1.89.07,2.82-.58,1.76.51,2.47c-.28.82-1.13,1.64-.06,2.48a3,3,0,0,0,0,3.55c-1.08.71-.05,1.38.06,2.07-1.33.7.46,1.37,0,2.11-.21.36.81.84,0,1.27-.11,1.44.38,2.91-.54,4.29.88.7-.3,1.35-.06,2.1s-.09,1.77.12,2.62c.11.49-.9.78-.19,1.34.5.4-.19,1.14.57,1.66.28.18.3,1,.06,1.11-.73.41.12.92-.41,1.42s-.11,1.3-.09,2a2.83,2.83,0,0,1-1.58,2.34.8.8,0,0,1-.55.07c-.6-.59-1.28.25-1.47.08-.77-.68-1.25.14-1.82.09-1-.09-2.09.32-3.08-.35-.42-.28-1.3.06-2-.28-.38-.19-1.35.36-1.82.2a16.06,16.06,0,0,0-4.42-.37c-.55,0-1.3-.4-1.58-.24a2.24,2.24,0,0,1-1.75.21c-.83-.29-1.85-.64-2.46-.3-1,.52-1.54-.44-2.34-.08a3.66,3.66,0,0,1-1.43.34c-.46,0-.92-.31-1.37-.3s-1.28.43-1.36.35c-.75-.78-1.76,0-2.68-.29a4.49,4.49,0,0,0-3.33.23,2.3,2.3,0,0,1-1.42-.16A1.72,1.72,0,0,0,157,44a1.16,1.16,0,0,1-.7.15c-1.09-.81-2.41-.25-3.61-.37A3.18,3.18,0,0,0,151,44c-.39.19-1.22-.23-1.85-.22s-1.62.43-2.13.24a1.93,1.93,0,0,0-2.11.12,1,1,0,0,1-.7-.13c-.6-.5-1.53,0-2-.3-.8-.54-1.34.26-2,.06s-1.45-.47-1.85-.29c-1.88.84-4.13-.39-5.89.67-.67-.68-1.69-.45-2.48-.35s-1.66-.65-2.52-.11c-.27-.74-.85.26-1.4-.15a4.44,4.44,0,0,0-2-.18c-.53,0-1.32.35-1.54.2-.84-.62-1.23.29-1.86.2s-1-.17-1.51-.21c-.85-.06-1.71-.09-2.56-.1-.19,0-.52.21-.56.18-.68-.57-1.54-.18-2.31-.27a4,4,0,0,0-2.22.39c-.64.29-1.19-.56-2,0-.49.29-1.5,0-2.2.43-.55.37-1.3-.69-2,0-.39-.63-1.19-.14-1.81-.33-.78-.24-1.89.17-2.83.1-.58,0-1.12.23-1.75,0A4.52,4.52,0,0,0,97,43.8c-.56,0-1.36.45-1.6.3a3,3,0,0,0-1.75-.31c-.64,0-1.28,0-1.9,0-.22,0-.4.29-.63.33-.64.11-1.28.65-2,.06a68.29,68.29,0,0,1-10-.5c-.51-.61-1-1.25-1.6-1.88-.08-.1-.28-.27-.27-.28,1.12-.73.25-1.76.66-2.63.3-.63.84-1.57.3-2.15s-.36-1.27-.47-1.9a5.51,5.51,0,0,0,0-1c-.18-.48-.63-.91-.71-1.39a7.07,7.07,0,0,1,.19-1.56c0-.6,0-1.21,0-1.82s.29-1.25-.06-1.58c-.65-.62.36-1,.07-1.53-.13-.23,0-.58-.21-.73-.49-.39-.25-.61,0-1s0-1,0-1.48c-.05-.31-.25-.61-.28-.92-.07-.71.23-1.5-.86-2-.08,0-.13-.24-.08-.27a1.11,1.11,0,0,0,.3-1.67c-.63-.69.32-1.16.1-1.73-.16-.42.23-.94-.44-1.3-.12-.06-.14-.42,0-.52C76,14,76.35,13.73,75.75,13.38Z"/></g><g id="レイヤー_2" data-name="レイヤー 2"><path class="cls-1" d="M87.4,20.4a9.94,9.94,0,0,0,.31,2.41,2.63,2.63,0,0,1,.22,2.09c.11-.09.26-.28.32-.25.38.18.55-.63,1-.2A1.17,1.17,0,0,1,89.32,26c-.37.42-.82.78-1.25,1.18a3.52,3.52,0,0,0,2.12.56c.91-.07,1.83,0,2.75,0,.41,0,1,.17,1.17,0,.34-.41.62,0,.9-.09.5-.09.83.26.71.65-.26.85-1.07.91-1.72,1.18-.2.09-.46,0-.68,0-.45,0-1.08-.09-1.29.15-.35.41-.69-.5-.93.11,0,.12-.63.19-.79.06-.85-.68-2,0-2.84-.66-.36-.31-.68.47-1.14.11a2.72,2.72,0,0,0-1-.45,1.11,1.11,0,0,0-.83,0c-.42.36-.53.31-.51-.23,0-.05-.18-.17-.26-.16-.9.15-.83-.66-1.1-1.11-.1-.17,0-.45,0-.68,0-.47.31-.92,0-1.46-.06-.12.24-.65.32-1,.13-.57.71-.65,1.14-.24.21.19.4.41.62.6a.55.55,0,0,1,.11.85c-.18.29-.09.76-.18,1.13-.18.73.68.43.81.84.73-.76,1.4.22,2.11,0,0,0,.08-.06.21-.16-.35-.34-.64-.87-1-1-.92-.26-.72-1.11-1-1.66a3,3,0,0,1,0-1.53c0-.37-.63-.73,0-1.09-.45-.48,0-1,0-1.43a4.84,4.84,0,0,0-.23-1.36c-.11-.43.36-.49.23-.83s.09-.63,0-.84a1.38,1.38,0,0,1,0-1.79c-.54-.54-.12-1.07,0-1.61a3.77,3.77,0,0,1,1.37-2,.77.77,0,0,1,.43-.19c.63,0,1.48.2,1.83-.12.56-.5,1.11.33,1.57-.2a3,3,0,0,1,1,.16,2.47,2.47,0,0,1,1.19.82A6.9,6.9,0,0,1,93.94,14c.07.14-.06.39-.14.58A1.45,1.45,0,0,0,93.86,16,5.19,5.19,0,0,1,94,18.08a2.13,2.13,0,0,1-2,2,10.77,10.77,0,0,0-2.67.61c-.14.07-.38-.1-.58-.14Zm.1-1.72c1.68.06,3.34.32,4.71-.83a1.77,1.77,0,0,0-2-.85c-.33.05-.74.28-1,.16a3.34,3.34,0,0,0-1.7-.11Zm.31-3.83c1.43.18,2.74.77,4.12.27a10,10,0,0,0-.39-1.41c-.07-.18-.48-.42-.57-.37-.75.46-1.56.07-2.31.24Z"/><path class="cls-1" d="M121.32,20.65a1.6,1.6,0,0,1,2.14-.82c.55.27,1.12.05,1.57.39s.83-.43,1.37-.1v-1.6a4.07,4.07,0,0,0-1.42-.45c-.77,0-1.51-.86-2.34-.08-.08.08-.78-.31-1-.61s.07-.78.43-1,.72-.07.58-.6a3,3,0,0,0,.82.16c.25,0,.51-.34.72-.29s.39.4.62.55.51-.43.73.05a5.32,5.32,0,0,0,.21-.5c.07-.26,0-.59.17-.79a1.48,1.48,0,0,1,.69-.37c.09,0,.5.8.9,1.16s.52,1.39,1.43.67c0,0,.28.05.34.14.24.36.44.74.74,1.24l-1.75.72a8.54,8.54,0,0,1,.57,1.52.47.47,0,0,0,.74.37c.45-.37,1-.22,1.42-.34.74-.18.54,1,1.21.78a2.32,2.32,0,0,1-.16.36c-.13.26-.11.5-.56.66a8.65,8.65,0,0,1-2.47.29l-.64,1.31a2.24,2.24,0,0,1,1.8.82c.27.27,1,.3,1.05.54.18.82.75.27,1.09.43l1.09.53-2,1.52c-.51-.47-.9-1.16-1.77-1.08-.34-1.23-.79-.43-1.19,0s-1,1-1.47,1.46a1.21,1.21,0,0,1-.87.4,3.09,3.09,0,0,1-1.7-.51c-.62-.31-.53-1.07-.69-1.59a2.31,2.31,0,0,1,1.85-2.75c.27-.08.66-.28.81-.17.55.39.45-.34.8-.36a7.88,7.88,0,0,0-4-.84c-.72.06-1.28-.06-1.54-.83C121.6,20.85,121.42,20.75,121.32,20.65Zm5.61,4.68h-1.54l.2,1a5.47,5.47,0,0,0,.69-.33A6,6,0,0,0,126.93,25.33Z"/><path class="cls-1" d="M143.54,19.07a5.43,5.43,0,0,0-.35,1.07c0,.27.21.57.18.83-.06.54-.23,1.06-.32,1.59s-.43.3-.67.28-.67-.12-.69-.23c-.14-.95-.76-1.88-.19-2.88a1.83,1.83,0,0,0,.16-.62c0-.22,0-.44,0-.69h-3.11c.09.7-.21,1.4.22,2.09,0,.07,0,.29-.13.35a1.11,1.11,0,0,0-.43,1.21c.07.53-.23,1.13.29,1.6s1.14,1.35,2.06,1.21c.46-.06.85.7,1.28.05.43.2.86.41,1.3.6a.58.58,0,0,0,.46,0c.68-.43,1.35-.89,2.07-1.38l.78,1.23c-.27.67-1.16.73-1.4,1.46,0,.07-.19.12-.29.12-.52,0-1.18-.19-1.52.05-.55.42-1-.35-1.28,0-.49.48-.89,0-1.28-.05a7.72,7.72,0,0,1-2.46-.7c-.46-.23-.7-.88-1.05-1.33s-.24-1.43-1-1.86c-.06,0,.08-.37.1-.57a2.43,2.43,0,0,0,.06-.92c0-.19-.31-.32,0-.49a1.1,1.1,0,0,0,.4-1.5c-.27-.43-.06-.51.12-.77s.26-.52.18-.68a.93.93,0,0,0-.65-.43c-.24,0-.49.19-.74.27a1,1,0,0,1-1.26-.52.89.89,0,0,1,.71-1.14c.73-.2,1.49-.32,2.33-.5a2.89,2.89,0,0,1,.91-1.89,1.41,1.41,0,0,1,.46-.25c.37.5.52-.33.82-.13s.41.23.51.41-.29.59.08.84a3.82,3.82,0,0,0-.59.62c-.25.4,0,.82.52.89a2.1,2.1,0,0,1,.67.05,9,9,0,0,1,1,.58c.68-.55.45-1.35.58-2.07a1.51,1.51,0,0,0,.05-.89,3.37,3.37,0,0,1,.83-.07,1.11,1.11,0,0,1,.88,1.47c-.08.3-.17.62-.24.93s-.14.54-.09.56a2.29,2.29,0,0,0,.94.29,7.49,7.49,0,0,0,1.13-.16c.26,0,1,.63.93.9a1.25,1.25,0,0,1-.51.79,4.13,4.13,0,0,1-1.4.36A10.42,10.42,0,0,1,143.54,19.07Z"/><path class="cls-1" d="M104.51,18c3.67.91,3.66,1.16,3.79,1.32s.32.44.07.72-.6.58-.87.35c-.76-.67-1.73-.06-2.55-.54a9.13,9.13,0,0,0-2.32-.64,4.17,4.17,0,0,1-1.72-1.16c-.36-.51-.45-.54-.66.11s-.85.81-1.14,1.4c-.43.88-1.29,1-2.2.45-.22-.13.34-.6-.11-.83,1.2-.66,1-2.5,2.53-2.91a.36.36,0,0,0,.19-.24c.44-1.53,2-2.29,2.53-3.79.06-.2.43-.3.66-.44.6-.37,1.18.9,1.8,0,.06.07.14.12.2.2.22.31.43.63.65.93.46.63,1.24,1,1.49,1.81.2.68,1.25.63,1.44,1.44a.65.65,0,0,0,.5.39c1,0,1.41.9,2,1.48.28.29.17.95.23,1.45-1.29.75-1.86-.68-6.47-1.53-3.07-.69-2.57-.71-2.07-.68a3.39,3.39,0,0,1,.94.22,3.55,3.55,0,0,0,1.87.48c.22,0,.54.34.68.27s.5-.48.85-.12c.16.16.3.38.49.46s.31-.13.48-.18.21.56.4.07a.5.5,0,0,0-.11-.45,8.77,8.77,0,0,1-3.37-3.36c-.14-.27-.63-.17-.74-.7-.08-.35-.93-.16-1.24.33a3.83,3.83,0,0,0-.71,1.41C101.9,16.51,101.17,16.65,104.51,18Z"/><path class="cls-1" d="M154,23.06a10.29,10.29,0,0,0-1.34,1.46c-.63,1.09-1.76,1-2.74,1.31-.43.12-1-.74-.85-1.19.05-.15.25-.34.2-.42-.77-1.33.16-2.48.3-3.71.1-.88.3-1.73.42-2.6a1,1,0,0,1,1.45-.91,4.49,4.49,0,0,1,.47,1.34c-.81,0-.48.58-.55,1-.13.81.23,1.65-.3,2.46-.22.34,0,1,0,1.48.78-.07,1-.67,1.43-1s.84-.94,1.6-.75c.15,0,.37-.18.57-.29.56.62,1.42,1.1,1.22,2.22-.05.24.26.57.46.82a1.39,1.39,0,0,0,2.23.19c.41-.42,1.18-.51,1.13-1.4,0-.53,1.06-.34,1-1.07.08,0,.2,0,.23,0a2.46,2.46,0,0,1,.73,1.59c0,.31.09.58-.44.72s-.75,1.13-1.47,1.35c-.17.93-1.08.69-1.63,1-.31.17-.8-.11-1.07.32a5.42,5.42,0,0,0-.91-.62c-.71-.31-.84-1.21-1.6-1.48-.12,0-.06-.52-.14-.77A9.85,9.85,0,0,0,154,23.06Z"/><path class="cls-1" d="M106.61,24.3a4.79,4.79,0,0,0,.9,1.46c.48.36.42,1.12,1.16,1.27.25.06.41.6.62.91a1.72,1.72,0,0,1-.09,1.3,1.32,1.32,0,0,1-1.38,0c-1.06-.9-1.27-1-2.36-.72a2.33,2.33,0,0,1-.35.1c-.36-.74-.91-.16-1.36-.2a2.5,2.5,0,0,0-1.19,0c-.43.19-.59-.58-1-.18,0,.05-.26,0-.35-.08-.43-.34-.85-.69-1.24-1a11.35,11.35,0,0,1,2.82-3.9,1.38,1.38,0,0,0,.14-.24,1.78,1.78,0,0,0-.29-.12l-1.93-.35a1.4,1.4,0,0,1-.73-1c.11-.52.67-1,1-.72.52.39,1.06.25,1.6.32a17.06,17.06,0,0,0,2.09.32c1,0,1.09-.06,1.62.41.16.15.3.33.45.49-.44.24-.27.69-.37,1.05a.26.26,0,0,1-.23,0c-.8-.67-1.45,0-1.84.44s-.93.59-1,1.24c-.06.38-.93.55-.56,1,.24.32.86.4,1.32.48s.78,0,.94-.15,1.12-.42.43-1.1c0,0,.16-.33.3-.45C106,24.69,106.33,24.49,106.61,24.3Z"/><path class="cls-1" d="M71.81,26.35a1.88,1.88,0,0,0-1.88.73,2.76,2.76,0,0,1-2.76.88,1.58,1.58,0,0,0-.2-.53c-.19-.23-.45-.53-.13-.69.69-.35.42-1.12.83-1.57a11,11,0,0,0,1.1-1.44c.42-.66.77-1.37,1.26-2.25a6.47,6.47,0,0,0-2.24.05c-.81.36-1-.22-1.4-.58-.21-.21.08-.78.43-.84.71-.13,1.42-.82,2.13,0,.37-.52.92-.32,1.41-.32a.79.79,0,0,1,.57.24,3.14,3.14,0,0,1,.79,2.14,2.16,2.16,0,0,0,0,.36c-.75-.19-.58.59-.79.87-.57.8-.4,1.09.58,1.18a1.39,1.39,0,0,1,1,.47c.39.42.81.81,1.21,1.22.23.23.36.47.77.1a1.29,1.29,0,0,1,1.15,0,3,3,0,0,1,1,1c0,.06-.37.67-.57.67-.58,0-.48.71-.54.66-.57-.53-1.3-.09-1.89-.38a3.5,3.5,0,0,0-.42-.24C71.94,27.62,71.94,27.63,71.81,26.35Z"/><path class="cls-1" d="M119.85,27.61c-.67.22-1.37-.23-1.85.42-.58-.12-1.3-.07-1.71-.41a15.18,15.18,0,0,1-1.86-2.12c.5-.44.07-.81,0-1.25s-.59-1.12-.08-1.8c.19-.26-.06-.85-.1-1.29a.76.76,0,0,1,0-.36,14.35,14.35,0,0,0,.29-2.49,1.33,1.33,0,0,1,.28-.82c.23-.26.28-.39,0-.63a.49.49,0,0,1,0-.44,2,2,0,0,1,1-.42c.37,0,.79.42.6.83s.69.53.13,1a1.18,1.18,0,0,0-.07,1.12,1.71,1.71,0,0,1-.08,1.6,2.19,2.19,0,0,0-.08,2c0,.08-.07.25-.12.36-.39.87.18,1.6.45,2.32a1.56,1.56,0,0,0,2.06.64c.52-.25.85-.43,1.32,0s0,1-.12,1.49A1.87,1.87,0,0,0,119.85,27.61Z"/><path class="cls-1" d="M38.72,30.29c-.65,0-.93-.81-1.53-.2-.34-.47-.95.1-1.29-.34-.89.15-1.55-.39-2.32-.66-.55-.2-.06-.33-.08-.5a10.34,10.34,0,0,1,.28-4.81c.21-1.07.91-2.19.29-3.36a.58.58,0,0,1-.06-.23,3.6,3.6,0,0,1,1.37-.39c.46,0,.7.51.6,1s-.23,1.05-.34,1.58a4.53,4.53,0,0,1-.19,1.13c-.2.4-.3.76,0,1.05s-.25.63-.1,1a.65.65,0,0,1,.09.37c0,.09-.14.17-.23.24a1,1,0,0,0-.21,1.36,1.41,1.41,0,0,0,1.47.48,1.39,1.39,0,0,0,.37-.28c.57.94,1.51.56,2.32.66a.67.67,0,0,1,.28,1.15l-.24.24Z"/><path class="cls-1" d="M50.26,20.44c1.12.07,1.33.68,1.29,1.57a9.3,9.3,0,0,0,.31,1.4c.06.5,0,1,0,1.53.1.76.89,1.07,1.2,1.7.18-.58.74.17,1-.27.33.21.55.13.86-.14a.84.84,0,0,1,1.45.35A1.7,1.7,0,0,1,55.62,28a3.26,3.26,0,0,1-3.81-.21c-.11-.09-.31-.07-.45-.13a3,3,0,0,1-.7-.38s.2-.36.14-.45a6.32,6.32,0,0,0-.63-.74c.36-.31.43-.52-.18-.51-.06,0-.2-.21-.18-.23.56-.77,0-1.53-.05-2.29A12.52,12.52,0,0,1,50.26,20.44Z"/><path class="cls-1" d="M94.44,25.85c-1.13.39-1.45-.55-2.13-.76-.49-.14-.88-.64-1.37-.83s-.49-1-1.24-.75a9.41,9.41,0,0,1-.56-1c.21-.16.54-.37.83-.62s.68-.93,1,.13c.16.49,1.16.52,1.66.14a11.5,11.5,0,0,0,1.29-1.24.9.9,0,0,0,.23.19c1.07.6,1.11,1,.16,1.76-.69.5-.63.47-.19,1.36A6.54,6.54,0,0,1,94.44,25.85Z"/><path class="cls-1" d="M65.34,15.1A2.2,2.2,0,0,1,68,15c.23.13.5.32.72.29,1.25-.21,2.4.44,3.64.37.75-.05.94.62,1.37,1a2.13,2.13,0,0,1-2,.72c-.4-.05-.86.58-1.21-.15-.14-.29-.45-.27-.7,0,0,.06-.21.12-.23.1-1-1.05-2.12-.66-3.26-.4a1.11,1.11,0,0,1-1-.67C65.33,15.81,65.34,15.42,65.34,15.1Z"/><path class="cls-1" d="M57.76,22.32c.09-.08.21-.15.24-.25.1-.3.07-.76.27-.89.42-.28.83.1,1.2.31s.5.45.79.59c.52.25-.17.45,0,.75A12.13,12.13,0,0,1,61.36,25c.14.35.65.62.23,1.22-.18.25.26.89.28,1.36,0,.63-.35.78-1,.5a1.67,1.67,0,0,1-1-1.09c-.24-.76-.46-1.52-.7-2.29A3.85,3.85,0,0,0,57.76,22.32Z"/><path class="cls-1" d="M46.69,28.06c-.41,0-.82,0-.92-.13-.3-.46-1-.45-1.17-1-.11-.3-.48-.48-.63-.77-.06-.12.45-.28.07-.61s.12-1-.71-1.09c-.23,0,.06-.85-.48-1.14a.87.87,0,0,1-.28-.71A4,4,0,0,1,43,21.24a.78.78,0,0,1,.76,0A2.82,2.82,0,0,1,45,23.08c.08.8.18,1.65,1.21,1.86-.24.74.45,1.24.5,1.91C46.71,27.18,46.69,27.53,46.69,28.06Z"/><path class="cls-1" d="M83.64,20.08c0,.11,0,.25,0,.34-.18.3-.13,1.07-.84.42-.17-.16-.53-.1-.8-.14.07-.16.24-.41.19-.47s-.6-.29-.59-.4c.05-.61-.44-1-.57-1.49a1.61,1.61,0,0,1,0-.92c.2-.51,1.1-.51,1.51,0s.32,1.24,1.08,1.4C83.12,19.27,83.85,19.66,83.64,20.08Z"/><path class="cls-1" d="M60.51,28.18l-.21.16c0-.07-.08-.19-.06-.21a1.25,1.25,0,0,1,.27-.1Z"/></g></svg>