<svg xmlns="http://www.w3.org/2000/svg" viewBox="0 0 249.11 45.02"><defs><style>.cls-1{fill:#fff;}</style></defs><g id="レイヤー_1" data-name="レイヤー 1"><path d="M134.31,31.64c-.48.3.31.46.05.9a3,3,0,0,0-.14,2.52,6.08,6.08,0,0,0,.74,1.43c.63.77-.44,1.19-.34,1.81,0,.32,0,.69.19.94a5.44,5.44,0,0,1,.87,3.38c0,1.44,2.07,2.58,3.93,2.32.51-.7,1.11.44,1.62,0s1.45-.2,2.18-.3c.49-.07,1.23.06,1.44-.16.63-.63,1.18.2,1.65,0a1.5,1.5,0,0,1,1.8.11.82.82,0,0,0,.67,0,.92.92,0,0,1,1.45.08c.41-.45,1-.4,1.6-.39h2.85c.86,0,1.73,0,2.59,0s1.65.05,2.42.09,1.8-.38,2.39-.05a5.65,5.65,0,0,0,2.94.34c5.44,0,10.89,0,16.34,0,.63,0,1.36-.26,1.94.24a.87.87,0,0,0,.68.13A6.28,6.28,0,0,1,189,45a1.91,1.91,0,0,0,1,0,15.6,15.6,0,0,1,6.63,0c.26,0,.59-.18.88-.16s.66.17,1,.21a3.24,3.24,0,0,0,1,0c.61-.15,1.25-.72,1.81-.34.79.54,1.25-.26,2-.1a6.36,6.36,0,0,0,2.57,0c.77-.15,1.25.34,2,.25s1.42.2,2.07-.21a.29.29,0,0,1,.24,0c.7.6,1.45.39,2.3.2.67-.14,1.45,0,2.12-.1a8.77,8.77,0,0,0,2.58-.52c.73-.41,1.55.63,2.38,0,1.23.7,2.64.27,4,.32.46,0,.79-.65,1.51-.16.24.16,1-.17,1.48-.2.77,0,1.55,0,2.33,0s1.77-.23,2.28,0c.82.47,1.36-.23,2,0a2.67,2.67,0,0,0,1.91,0c.54.63,1.15-.21,1.63,0,1.6.78,3.34.19,5,.39.83-.74,1.59-.08,2.38.08a14.78,14.78,0,0,0,2.14-.21l2.56-3.22a1.15,1.15,0,0,1-.11-.29,5.94,5.94,0,0,1-.21-2.52c.32-.91-.28-1.67-.11-2.52s0-1.89.06-2.83-.55-1.76.49-2.47c-.26-.82-1.08-1.64-.05-2.48a3.19,3.19,0,0,1,0-3.55c-1-.71,0-1.38.07-2.07-1.27-.7.44-1.37,0-2.11-.19-.36.77-.84,0-1.27-.12-1.43.36-2.91-.52-4.28.84-.7-.28-1.36-.06-2.11s-.08-1.76.11-2.61c.11-.5-.85-.78-.18-1.35.49-.4-.18-1.14.55-1.65.26-.19.29-1,.06-1.12-.7-.4.11-.92-.39-1.42s-.11-1.29-.09-2A2.85,2.85,0,0,0,246.76.28a.77.77,0,0,0-.52-.07C245.67.8,245,0,244.83.14c-.73.68-1.18-.15-1.73-.1-1,.09-2-.32-2.94.35-.4.29-1.24-.06-1.92.29-.36.18-1.28-.37-1.74-.21a14.22,14.22,0,0,1-4.21.37c-.52,0-1.24.4-1.5.25a2.08,2.08,0,0,0-1.68-.22c-.79.3-1.76.64-2.35.3-.91-.52-1.46.44-2.23.08a3.32,3.32,0,0,0-1.36-.33c-.43,0-.88.3-1.31.29s-1.22-.43-1.29-.35c-.72.78-1.68,0-2.56.29a4,4,0,0,1-3.17-.23,2.29,2.29,0,0,0-1.37.16A1.53,1.53,0,0,1,211.86,1c-.16-.11-.58-.21-.66-.14-1,.8-2.3.24-3.44.37a3,3,0,0,1-1.7-.23c-.37-.18-1.16.23-1.76.23s-1.54-.44-2-.24a1.79,1.79,0,0,1-2-.12.86.86,0,0,0-.66.12c-.57.51-1.47,0-1.91.3-.77.54-1.28-.26-2-.06s-1.39.47-1.78.29c-1.78-.84-3.93.4-5.61-.67-.64.69-1.61.45-2.37.36s-1.58.64-2.4.1c-.26.75-.81-.25-1.34.15-.37.28-1.27.19-1.94.18-.5,0-1.26-.35-1.47-.19-.8.61-1.17-.3-1.77-.2s-1,.17-1.45.2c-.81.06-1.62.09-2.44.1-.18,0-.49-.21-.53-.17-.65.56-1.47.17-2.2.27a3.68,3.68,0,0,1-2.12-.4c-.61-.29-1.14.57-1.95.05-.46-.3-1.43,0-2.09-.44s-1.25.69-1.89,0c-.37.62-1.13.13-1.72.32-.75.24-1.8-.17-2.7-.1-.56,0-1.07-.23-1.68,0a4.09,4.09,0,0,1-1.73.13c-.53,0-1.3-.45-1.52-.29a2.85,2.85,0,0,1-1.68.3,15.61,15.61,0,0,1-1.81,0c-.21,0-.38-.29-.6-.33-.61-.11-1.22-.65-1.87-.06a62.05,62.05,0,0,0-9.57.51L136,3.22c-.08.1-.27.27-.26.27,1.07.74.24,1.76.63,2.64.29.63.8,1.56.28,2.15s-.34,1.26-.44,1.89a5.51,5.51,0,0,1,0,1c-.17.48-.6.92-.68,1.39a7.62,7.62,0,0,0,.18,1.56c0,.61,0,1.22,0,1.82s.28,1.25-.06,1.59c-.62.62.35,1,.07,1.52-.12.23,0,.58-.2.74-.47.38-.24.6,0,1s0,1-.05,1.48c0,.31-.24.61-.26.92-.07.72.22,1.5-.82,2-.08,0-.13.24-.08.27a1.15,1.15,0,0,1,.29,1.67c-.6.7.3,1.16.09,1.73s.22.94-.42,1.3a.43.43,0,0,0,0,.52C134.58,31,134.89,31.29,134.31,31.64Z"/><path d="M144.26,31.64c.61.3-.38.46-.06.9a2.46,2.46,0,0,1,.18,2.52,5.69,5.69,0,0,1-.94,1.43c-.79.77.56,1.19.44,1.81-.06.32,0,.69-.24.94a4.6,4.6,0,0,0-1.09,3.38c-.05,1.44-2.61,2.58-5,2.32-.64-.7-1.39.44-2,0s-1.82-.2-2.73-.3c-.62-.07-1.55.06-1.81-.16-.8-.63-1.49.2-2.08,0a2.27,2.27,0,0,0-2.26.11,1.27,1.27,0,0,1-.84,0,1.36,1.36,0,0,0-1.83.08,2.86,2.86,0,0,0-2-.39h-3.58c-1.09,0-2.18,0-3.26,0s-2.08.05-3,.09-2.28-.38-3-.05a8.79,8.79,0,0,1-3.69.34c-6.85,0-13.69,0-20.53,0-.81,0-1.72-.26-2.45.24a1.32,1.32,0,0,1-.85.13,9.87,9.87,0,0,0-6,0,3,3,0,0,1-1.25,0,24.52,24.52,0,0,0-8.33,0c-.33,0-.74-.18-1.11-.16s-.83.17-1.25.21a5.14,5.14,0,0,1-1.3,0c-.77-.14-1.58-.72-2.28-.34-1,.54-1.57-.26-2.47-.1a10,10,0,0,1-3.23,0c-1-.15-1.58.34-2.53.25s-1.78.2-2.6-.21a.45.45,0,0,0-.3,0,3.64,3.64,0,0,1-2.89.2c-.84-.14-1.82,0-2.67-.1a13.37,13.37,0,0,1-3.23-.52c-.92-.41-2,.63-3,0-1.56.7-3.32.27-5,.32-.57,0-1-.65-1.89-.16-.3.16-1.22-.17-1.86-.2-1,0-1.95,0-2.93,0a9.59,9.59,0,0,0-2.87,0c-1,.47-1.71-.23-2.44,0a4.2,4.2,0,0,1-2.41,0c-.68.63-1.45-.21-2.05,0-2,.78-4.19.19-6.26.39-1.05-.74-2-.08-3,.08a23.09,23.09,0,0,1-2.69-.21L.56,41.24A1.34,1.34,0,0,0,.71,41c.12-.84.6-1.75.26-2.52s.36-1.67.14-2.52A26.67,26.67,0,0,1,1,33.08c-.12-.83.69-1.76-.62-2.47.34-.82,1.36-1.64.07-2.48a2.65,2.65,0,0,0,0-3.55c1.29-.71.06-1.38-.08-2.07,1.6-.7-.55-1.37,0-2.11.25-.36-1-.84,0-1.27.14-1.43-.45-2.91.65-4.28-1-.7.36-1.36.07-2.11S1.24,11,1,10.13c-.14-.5,1.08-.78.23-1.35-.61-.4.23-1.14-.68-1.65C.2,6.94.17,6.14.46,6c.88-.4-.14-.92.49-1.42s.13-1.29.11-2C1,1.63,1.86.91,3,.28A1.22,1.22,0,0,1,3.61.21C4.33.8,5.15,0,5.38.14,6.3.82,6.87,0,7.56,0c1.22.09,2.5-.32,3.69.35.5.29,1.56-.06,2.41.29.46.18,1.62-.37,2.18-.21a22.46,22.46,0,0,0,5.3.37c.66,0,1.55.4,1.89.25A3.21,3.21,0,0,1,25.14.87a4.87,4.87,0,0,0,2.95.3c1.14-.52,1.84.44,2.8.08A5,5,0,0,1,32.6.92c.55,0,1.1.3,1.64.29S35.78.79,35.87.86c.9.78,2.12,0,3.21.29a6.22,6.22,0,0,0,4-.23,3.56,3.56,0,0,1,1.72.16,2.34,2.34,0,0,0,2-.09,1.5,1.5,0,0,1,.84-.14c1.3.8,2.89.24,4.32.37A4.55,4.55,0,0,0,54.1,1c.47-.18,1.46.23,2.21.23S58.25.78,58.87,1A2.73,2.73,0,0,0,61.4.86a1.36,1.36,0,0,1,.84.12c.71.51,1.83,0,2.39.3,1,.54,1.61-.26,2.46-.06a5.13,5.13,0,0,0,2.22.29c2.25-.84,4.94.4,7.06-.67.81.69,2,.45,3,.36s2,.64,3,.1c.33.75,1-.25,1.68.15a6.31,6.31,0,0,0,2.44.18c.64,0,1.59-.35,1.85-.19,1,.61,1.47-.3,2.23-.2.6.07,1.2.17,1.81.2,1,.06,2,.09,3.07.1.23,0,.62-.21.67-.17.81.56,1.85.17,2.77.27a5.63,5.63,0,0,0,2.66-.4c.77-.29,1.43.57,2.45.05.58-.3,1.79,0,2.63-.44.66-.37,1.57.69,2.37,0,.46.62,1.42.13,2.17.32.94.24,2.26-.17,3.39-.1a6.75,6.75,0,0,1,2.1,0,6.42,6.42,0,0,0,2.17.13c.68,0,1.64-.45,1.92-.29a4.53,4.53,0,0,0,2.11.31c.76,0,1.52,0,2.28,0,.26,0,.47-.29.74-.33.78-.11,1.54-.65,2.36-.06a97.87,97.87,0,0,1,12,.51l1.92,1.88c.1.1.33.27.32.27-1.34.74-.3,1.76-.79,2.64-.36.63-1,1.56-.35,2.15s.43,1.26.55,1.89c.07.33-.08.69.06,1,.21.48.75.92.85,1.39s-.19,1-.23,1.56,0,1.22,0,1.82-.35,1.25.07,1.59c.78.62-.43,1-.09,1.52.16.23,0,.58.26.74.59.38.3.6,0,1s0,1,.06,1.48c.05.31.3.61.33.92.08.72-.28,1.5,1,2,.09,0,.16.24.1.27a1,1,0,0,0-.36,1.67c.75.7-.38,1.16-.12,1.73s-.28.94.52,1.3a.37.37,0,0,1,0,.52C143.92,31,143.54,31.29,144.26,31.64Z"/></g><g id="レイヤー_2" data-name="レイヤー 2"><g id="SGngUQ"><path class="cls-1" d="M162.12,18.58a10,10,0,0,0-1.47,0c-.32,0-.6.37-1,0,0,0-.45.24-.65.42a3.54,3.54,0,0,0,.28.47c.1.18.31.39.28.55-.15.83.42.36.69.42a2.62,2.62,0,0,0,2.22-.63c.09.25.15.42.22.59.47,1.08.48,1.08-.47,1.55-.48.24-1,.44-1.48.68l-.68-.64c-.17.25-.51.6-.45.68.39.56.31,1.08-.32,1.67.93.15,1.72-.11,2.11.66,0,0,.32-.2.47-.17s.37.2.57.27a8,8,0,0,1,1.18.46c.21.12.3.43.45.66a2.84,2.84,0,0,0-.52.27c-.94.85-.94.86-1.77.3,0,0-1.6-.3-1.65-.3-.56,0-.74.33-.91.78s.44,1.06-.36,1.28c-.46.13-.33.91-1,.88-.2,0-.41.28-.61.43-.35-.48-1.29-.05-1.39-.74s-.58-.69-.88-.78a1.29,1.29,0,0,1-.89-1.17,2.18,2.18,0,0,1,.41-2.06,5.29,5.29,0,0,1,1.85-1c.32-.14.88.24,1.49.43a6,6,0,0,0,0-1c0-.3.24-.72-.25-.87s-.83-.23-1.24-.35c-.31.87-1-.27-1.5.32-.28.34-.89-.42-1.38,0-.23-.36-.42-.19-.61.05a6.8,6.8,0,0,1-.18-.75,7.36,7.36,0,0,1,0-.81c1.52-.89,3.14-.31,4.8-.54a5,5,0,0,1,0-.76c.1-.48-.24-.83-.32-1.24-.14-.74-.76-.2-1.11-.49-.19-.17-.76-.12-1.15-.22-.59-.15-.91.28-1.32.57-.2.14-.6,0-.92,0,.31-.36-.6-.52-.14-1,.2-.19.08-.76.28-.88a3.29,3.29,0,0,1,1.38-.4c.84-.05,1.69,0,2.55,0l.11-1c.27,0,.54,0,.81,0s.54,0,.52.45c0,.76.43,1,1.09.92.43-.05.84.55,1.26,0a4,4,0,0,1,1.24.72C162.07,17.51,162,18,162.12,18.58Zm-6.26,8.06c.07.38.65.1.73.69s.82.27,1-.3c0-.16,0-.37.12-.46.26-.21.15-.32,0-.5s-.25-.23-.5-.05A7.3,7.3,0,0,1,155.86,26.64Z"/><path class="cls-1" d="M115.77,28.57c-.3-.11-.61-.36-.88-.31-.67.1-.9-.28-1-.76a10.29,10.29,0,0,1-.88-3.66c0-.43.64-.83.08-1.27.5-.37-.14-.7,0-1.08,0-.21,0-.46,0-.67a5.65,5.65,0,0,0,.17-3.29,2.26,2.26,0,0,1,.19-1.31,3.06,3.06,0,0,0,.28-2.1c-.1-.45.63-.71.14-1.14,0,0,.13-.23.21-.25.33-.06.81,0,1-.13.42-.5.51.21.82.14a4.38,4.38,0,0,1,1.2,0c.28,0,.65.27.81.16.44-.29.59.3,1,.21a1.43,1.43,0,0,1,1.63,1c.07.17.34.25.52.38s.18.15.28.23c-.83.29.46,1-.28,1.32a4.58,4.58,0,0,1,.66,1.43c.06,1.22.27,2.51-.74,3.56H121a1,1,0,0,0-.1-.26s-.14,0-.21.06a.59.59,0,0,0,.23.2c.16.53-.13,1-.56,1-.92-.1-1.73.38-2.6.38-.48,0-1,.16-1.44-.29-.2-.19-.75,0-1.16,0v4c.15,0,.4.13.45.07.3-.36.85-.51,1-.29a1.47,1.47,0,0,1,.12,1.22A8.1,8.1,0,0,1,115.77,28.57ZM120,17.86a7.32,7.32,0,0,1-.78-1.91c0-.91-.62-1-1.25-1.14-.38-.06-.78,0-1.05-.34-.38.6-.73.21-1.12,0,0,0-.32.19-.4.34a3.87,3.87,0,0,0-.15.63c-.42,1.21-.38,1.3.92,1.67a2.32,2.32,0,0,0,1.28.21.94.94,0,0,1,1.2.21C119.28,16.86,119.39,17.84,120,17.86Zm-4.88,1c0,1.22.13,1.38,1,1.4s1.84,0,2.76,0a1.55,1.55,0,0,0,.75-.24c.15-.11.19-.37.28-.56-.19-.07-.44-.26-.55-.2a2.12,2.12,0,0,1-1.93-.09A7.59,7.59,0,0,0,115.16,18.9Z"/><path class="cls-1" d="M172.21,22.41a6.73,6.73,0,0,1-.76,1.4A13.91,13.91,0,0,1,169.93,25c-.22.18-.77,0-.63.57a1,1,0,0,1-.33.07c-.73-.07-1.22-.65-1.87-.9-.12,0-.15-.36-.22-.55s-.17-.62-.29-.92c-.2-.52-.44-1.25.07-1.48s-.62-.77.18-.81c.58,0,.28-.49.4-.75s.32-.2.49-.29c1.3-.65,1.41-.67,3.67-.72-.14-.37-.27-.68-.37-1-.21-.7-.43-.9-.92-.6a1.06,1.06,0,0,1-1.2.06c-.34-.15-.91-.29-1.12-.12-1.12.89-1.41-.19-2.15-.69.43-.43.69-.87,1.07-1s.7-.62,1.07-.06H171V14.53c1.28-.06,1.38,0,1.64.67.14.35.33.62.43.62.92,0,1.84,0,2.76,0a1,1,0,0,1,1.06.63,1.53,1.53,0,0,1-.8,1.37c-.21,0-.47-.26-.69-.24s-.6.3-.89.3-.59-.28-.9-.31c-.6-.06-.61,0-.54.84,0,.27-.2.56-.17.83a4.11,4.11,0,0,0,1,2.32c1,1,.54,2.41,1.25,3.44-.5.31-.13.91-.35,1.22a2.85,2.85,0,0,0-.32,1.6c0,.26,0,.63-.2.76-.48.37-.43.86-.5,1.36-.14.9-.4,1.09-1.13,1.06a1,1,0,0,1-.75-1,4.67,4.67,0,0,1,.37-1.05c.58-1.06.45-2.27.65-3.4a4.8,4.8,0,0,0,.22-1.14C173.07,23.3,173.13,23.3,172.21,22.41Zm-2.4-1.08a1.29,1.29,0,0,0-.24-.23.27.27,0,0,0-.23,0,3.23,3.23,0,0,0-1.06,1.59c-.07.17,0,.56.11.6a1.54,1.54,0,0,0,.76,0c.12-.71,1-.66,1.22-1.34S170.71,21.33,169.81,21.33Z"/><path class="cls-1" d="M86.32,17.13A7.46,7.46,0,0,1,87.4,19.3c.14,1.08,1,1.08,1.62,1.32.46.16,1,0,1.54.06a1.21,1.21,0,0,1,.67.63c.12.23-.51,1.05-.76,1.06h-2c.17.22.32.34.31.42-.19,1.16.7,1.89,1.29,2.54a17,17,0,0,0,1.73,1.88c.82.7.75,1.23,0,2.11-.08.09-.16.16-.24.24a5.66,5.66,0,0,1-2.42-2.67c-.5.68-1,1.38-1.49,2a2.24,2.24,0,0,1-.89.62c-.6-.58-1.45,0-2-.48-.25-.22-.8-.15-.65-.74.05-.2.05-.56-.07-.64-1-.65,0-1.49-.25-2.2,0-.1.13-.29.23-.41A3.24,3.24,0,0,1,85.71,24c.25-.09.52-.12.78-.2.45-.15.4-.41.3-.92-.16-.85-.52-.76-1.12-.48a.9.9,0,0,1-.72-.26c-.48-.48-.92-.66-1.45-.1,0,.06-.28.08-.31,0-.44-.59-.84.18-1.28,0s-.57-.42-.33-.87c.48-.93.84-1.1,1.79-1,.26,0,.56-.19.83-.17s.59.26.9.29c.57.07.79-.26.62-.84C85.34,18.13,85.34,18.13,86.32,17.13ZM85.93,28a17.16,17.16,0,0,0,1.15-1.72c.1-.18-.07-.51-.12-.78-.31.06-.71,0-.91.2C85.37,26.3,85.34,27,85.93,28Z"/><path class="cls-1" d="M131,13.09a5.67,5.67,0,0,1,.85,1c.22.39,1,.13.88.8.86.14,1.39.8,2.05,1.25a3.85,3.85,0,0,1,.78.6c.29.32.46.75.76,1.05s.66.38.93.63c.57.54,1.25,1,1.06,2,0,.19.33.55-.08.72a1.17,1.17,0,0,1-.91,0A4,4,0,0,1,136,19.89a3.48,3.48,0,0,0-1.6-1.55,6.6,6.6,0,0,1-1.64-1c-.4-.4-.68-.91-1.23-1.17-.29-.14-.55-.33-.84-.48a.5.5,0,0,0-.35,0,8.34,8.34,0,0,0-1.75,3.06s.06.09.15.25c1-.47,1.86.37,2.87.51a5.73,5.73,0,0,1,2.78,1.34c-.1.25-.14.63-.32.71a5.28,5.28,0,0,1-1.39.38c-.14,0-.33-.14-.48-.23-1.24-.72-2.47-1.36-4-.84-.21.07-.58-.28-.92-.46-.23.34-.51.75-.76,1.17-.11.18-.13.43-.27.57s-.45.71-.94.61a1.06,1.06,0,0,1-.48-1.31c.29-.5,0-1.39.88-1.5.14-1.09,1-1.78,1.49-2.66a13.14,13.14,0,0,1,1.43-2.49C129.19,14.12,129.57,13.07,131,13.09Z"/><path class="cls-1" d="M127.18,28.84a6,6,0,0,1,.93-3.47,5,5,0,0,0,.32-1.18L127,23.75a.65.65,0,0,1-.47-.83,1.56,1.56,0,0,1,1.67-.86,9.82,9.82,0,0,0,1.41.16c.5.07,1,.08,1.5.16s1.26-.29,1.78.29a1.4,1.4,0,0,0,.23-.16c.51-.44.72.1.93.35s-.11.49-.25.68a2.69,2.69,0,0,1-2,.87,2.66,2.66,0,0,0-2.06,1.23,6,6,0,0,0-.48,1.8,10.72,10.72,0,0,0,2.39.09c.46,0,.6-.34.81-.7a1.33,1.33,0,0,1,2.3-.16c.21.4.54.43.75.68s.29.6.51.82c.39.36.43.88.65,1.27s0,.56-.17.76-.55.24-.58.41c-.12.56-.32.31-.49.08a10,10,0,0,0-.62-.93c-.23-.24-.76-.19-.7-.72-.2,0-.44-.07-.58,0-.32.21-.49.7-1,.24-.16-.13-.74.31-1,.19s-.51-.29-.87,0a1.31,1.31,0,0,1-1,.13C128.81,29.4,128.06,29.12,127.18,28.84Z"/><path class="cls-1" d="M110.38,24a3.75,3.75,0,0,1,.87,4.47c.93.15,1.78.34,2.64.41.41,0,.84-.36,1.26,0s.59-.6,1-.12,1-.14,1.4.37a.5.5,0,0,0,.44,0c.34-.38.6-.38,1,0,.12.11.57-.23.8-.15a2.5,2.5,0,0,0,2.36-.09c.18-.12.64.07.9.23.5.3.21.83.27,1.25,0,0,0,.12-.09.13-.74.24-1.48.46-2.23.69-.52-.67-1.43.11-2-.57-.19-.23-.73.31-1.25,0a1.29,1.29,0,0,0-1.43.21c-.44.43-1-.41-1.52,0-.22-.54-.45.16-.75,0a4.55,4.55,0,0,0-1.1-.24c-.3-.09-.69-.41-.87-.31-.53.29-1-.07-1.45,0-.68.06-1-.26-1.18-.9a.7.7,0,0,1,0-.63c.23-.62.68-1.2.24-2-.19-.34.43-1-.14-1.51Z"/><path class="cls-1" d="M144.61,18.23A3.77,3.77,0,0,0,145,19c.3.35-.11,1,.48,1.18-.34.21-.22.66-.37.87-.66.87.06,2-.66,2.83a.17.17,0,0,0,0,.17A9.88,9.88,0,0,0,145.5,26a3.64,3.64,0,0,0,1.5.88c.35.12.79,0,1.07.35,0,.05.44-.07.43-.1,0-.66.51-.27.74-.41.51-.29.53-.17.77.34.32.67.42,1.42-.25,1.52-.86.13-1.75.92-2.66.12a3.93,3.93,0,0,1-3.39-2.26c-.17-.29-.56-.5-.81-.83s.53-.66.11-1-.28-.83-.3-1.26-.13-.92.07-1.15c.56-.66,0-1.53.53-2.13-.2-.15-.29-.27,0-.5C143.74,19.14,144.16,18.68,144.61,18.23Z"/><path class="cls-1" d="M80.39,29.71C79,29.12,79,27.86,78.5,27c-.12-.23.26-.68.23-1s-.53-.61-.47-.71c.46-.75.19-1.55.18-2.31s.35-1.7-.31-2.43c.58-.63.51-1.51.85-2.22a.67.67,0,0,1,.87-.35c.27.12.64.4.66.63a20.71,20.71,0,0,1-.05,2.36c-.66.17.42.58-.13.89-.3.16-.24.71.13,1-.64.65.11,1.43-.2,2.13-.09.21.23.59.15.81s-.31.4-.1.73.12.84.26.88a.76.76,0,0,1,.64,1.09A6.06,6.06,0,0,1,80.39,29.71Z"/><path class="cls-1" d="M96,24.13c-.09.52,0,1-.16,1.5,0,.2.21.67.29,1,0,.19.37.84.81.21.45.19.78-.86,1.31-.12.16.22.7,0,.62.58a1.55,1.55,0,0,1-.79,1.24,1.07,1.07,0,0,1-.61.17c-.52-.06-.71.83-1.3.42s-1.31-.56-1.5-1.42c-.06-.27-.39-.54-.29-.89s-.66-.47-.09-.78a6.57,6.57,0,0,1-.58-1.58A11.47,11.47,0,0,1,94,22.91c0-.23-.27-.46-.31-.71a1.13,1.13,0,0,1,.13-.79,4.22,4.22,0,0,1,1.07-.73s.3.19.34.33C95.49,22,95.73,23.09,96,24.13Z"/><path class="cls-1" d="M105,27.08l-1.37,1.37c-.45-.08-.64-.56-.79-1.18s-.65-1.23-.79-1.89a6,6,0,0,1-.47-2.06,3.71,3.71,0,0,0-.63-2.14c-.12-.23-.14-.92.16-.82.51.17.84-.66,1.31-.1s1,.93.57,1.73c-.09.16,0,.44.08.64s.87.45.27,1a14.11,14.11,0,0,1,.66,1.28c.16.39.19.84.37,1.22A6,6,0,0,0,105,27.08Z"/><path class="cls-1" d="M117.09,24.62l.91-.85c.87.88,1.18-.16,1.54-.55a2.08,2.08,0,0,1,2.45-.73c0,.2,0,.42,0,.64,0,.48.09.88-.61,1.14s-.56,1.13,0,1.49a1,1,0,0,1,.42,1.42,1.22,1.22,0,0,1-1.64.12Z"/><path class="cls-1" d="M111.28,21.38c-.12.33.32.92-.32.95-.26,0-.48.78-.69.1-.11-.37-.51-.35-.53-.43a12.29,12.29,0,0,0-1.2-2.27.75.75,0,0,1,.38-1,1.11,1.11,0,0,1,.91,0A3.06,3.06,0,0,1,111.28,21.38Z"/></g></g></svg>